<?xml version="1.0" standalone="no"?>
<!DOCTYPE svg PUBLIC "-//W3C//DTD SVG 1.1//EN" "http://www.w3.org/Graphics/SVG/1.1/DTD/svg11.dtd" >
<svg xmlns="http://www.w3.org/2000/svg" xmlns:xlink="http://www.w3.org/1999/xlink" version="1.1">
<metadata>
Created by FontForge 20170731 at Sun Sep 17 09:34:51 2023
 By Aleksey,,,
Copyright (c) 2022 AK Design Lab
</metadata>
<defs>
<font id="Lusail-Medium" horiz-adv-x="0" >
  <font-face 
    font-family="Lusail Medium"
    font-weight="500"
    font-stretch="normal"
    units-per-em="2048"
    panose-1="0 0 0 0 0 0 0 0 0 0"
    ascent="1638"
    descent="-410"
    x-height="778"
    cap-height="1290"
    bbox="-383 -905 2441 1888"
    underline-thickness="102"
    underline-position="-358"
    unicode-range="U+0020-FDFC"
  />
<missing-glyph horiz-adv-x="1228" 
 />
    <glyph glyph-name="fi" unicode="fi" horiz-adv-x="1036" 
d="M733 0v621h-362v-621h-195v621h-131v157h131v250q0 152 83 238t233 86q92 0 165 -37l-47 -162q-31 19 -57.5 26t-69.5 7q-55 0 -90 -17q-22 -36 -22 -135v-256h561v-778h-199zM709 1087q0 50 35 85.5t87 35.5q53 0 89 -35.5t36 -85.5t-36 -85t-89 -35q-52 0 -87 35
t-35 85z" />
    <glyph glyph-name="fl" unicode="fl" horiz-adv-x="1038" 
d="M176 1028q0 164 91 244t278 80q85 0 197.5 -12.5t187.5 -30.5v-1309h-191v1176q-98 16 -186 16q-106 0 -160 -23q-22 -36 -22 -135v-256h239v-157h-239v-621h-195v621h-131v157h131v250z" />
    <glyph glyph-name="f_f" unicode="ff" horiz-adv-x="1187" 
d="M733 1028q0 152 83.5 238t236.5 86q98 0 178 -41l-45 -162q-64 37 -131 37q-72 0 -105 -17q-22 -36 -22 -135v-256h262v-157h-262v-621h-195v621h-362v-621h-195v621h-131v157h131v250q0 152 83.5 238t234.5 86q90 0 163 -37l-47 -162q-56 33 -112 33q-72 0 -105 -17
q-22 -36 -22 -135v-256h362v250z" />
    <glyph glyph-name="f_f_i" unicode="ffi" horiz-adv-x="1593" 
d="M1290 0v621h-362v-621h-195v621h-362v-621h-195v621h-131v157h131v250q0 152 83 238t233 86q92 0 165 -37l-47 -162q-31 19 -57.5 26t-69.5 7q-55 0 -90 -17q-22 -36 -22 -135v-256h362v250q0 151 83.5 237.5t232.5 86.5q92 0 165 -37l-45 -162q-60 33 -114 33
q-72 0 -105 -17q-22 -36 -22 -135v-256h561v-778h-199zM1266 1087q0 50 36 85.5t89 35.5q52 0 87 -35.5t35 -85.5t-35 -85t-87 -35q-53 0 -89 35t-36 85z" />
    <glyph glyph-name="f_f_l" unicode="ffl" horiz-adv-x="1595" 
d="M733 1028q0 164 91 244t278 80q85 0 197.5 -12.5t187.5 -30.5v-1309h-189v1176q-98 16 -186 16q-119 0 -162 -23q-22 -36 -22 -135v-256h227v-157h-227v-621h-195v621h-362v-621h-195v621h-131v157h131v250q0 152 83 238t233 86q92 0 165 -37l-47 -162q-31 19 -57.5 26
t-69.5 7q-55 0 -90 -17q-22 -36 -22 -135v-256h362v250z" />
    <glyph glyph-name="uni0622.fina" unicode="&#x622;" horiz-adv-x="546" arabic-form="final" 
d="M438 0q-162 0 -227.5 85.5t-65.5 311.5v989h179v-983q0 -124 29 -166t122 -42h72v-195h-109zM-6 1616q41 40 91.5 51.5t97.5 3.5t93 -17.5t92 -6t81 31.5l32 -100q-43 -32 -95.5 -39t-100.5 0.5t-94.5 15t-90.5 -1.5t-75 -43z" />
    <glyph glyph-name="uni0623.fina" unicode="&#x623;" horiz-adv-x="546" arabic-form="final" 
d="M438 0q-162 0 -227.5 85.5t-65.5 311.5v989h179v-983q0 -124 29 -166t122 -42h72v-195h-109zM25 1618l116 12q-41 48 -41 119q0 64 40.5 101.5t111.5 37.5q64 0 145 -33l-37 -98q-54 23 -92 23q-34 0 -61 -17q-1 -62 29 -92.5t88 -25.5l110 8l8 -97l-407 -36z" />
    <glyph glyph-name="uni0624.fina" unicode="&#x624;" horiz-adv-x="948" arabic-form="final" 
d="M123 -332q379 127 489 334q-273 7 -402.5 77t-129.5 210q0 69 29 147t77 144.5t118.5 110.5t146.5 44q102 0 188 -76.5t134 -200.5t48 -263h127v-195h-157q-107 -322 -578 -494zM227 1036l117 13q-41 48 -41 118q0 65 41 102.5t111 37.5q64 0 145 -33l-37 -98
q-52 22 -92 22q-35 0 -61 -16q-1 -63 29 -93.5t87 -25.5l111 8l8 -96l-407 -37zM242 276q92 -81 391 -81h16q-4 52 -19 109.5t-40.5 112t-65.5 89.5t-86 35q-77 0 -135 -81t-61 -184z" />
    <glyph glyph-name="uni0625.fina" unicode="&#x625;" horiz-adv-x="546" arabic-form="final" 
d="M438 0q-162 0 -227.5 85.5t-65.5 311.5v989h179v-983q0 -124 29 -166t122 -42h72v-195h-109zM14 -475l119 10q-43 46 -43 121q0 64 40.5 101.5t111.5 37.5q70 0 145 -35l-37 -96q-54 23 -92 23q-34 0 -61 -17q-1 -63 29 -94.5t87 -26.5l111 11l8 -99l-407 -36z" />
    <glyph glyph-name="uni0626.init" unicode="&#x626;" horiz-adv-x="559" arabic-form="initial" 
d="M389 0h-389l-37 98l37 97h227q13 136 13 299v247h180v-247q0 -304 -31 -494zM76 1135l117 12q-41 48 -41 119q0 65 40.5 102t110.5 37q65 0 146 -33l-37 -98q-52 22 -93 22q-35 0 -61 -16q-1 -63 29.5 -93.5t87.5 -25.5l110 8l9 -96l-408 -37z" />
    <glyph glyph-name="uni0626.medi" unicode="&#x626;" horiz-adv-x="595" arabic-form="medial" 
d="M225 0h-225l-37 98l37 97h166q22 96 22 352v194h185v-356q0 -105 39.5 -147.5t130.5 -42.5h53v-195h-96q-141 0 -209 100q-23 -50 -66 -100zM68 1071l116 12q-41 48 -41 119q0 64 40.5 101.5t111.5 37.5q67 0 145 -32l-37 -99q-54 23 -92 23q-35 0 -61 -16
q-1 -63 29.5 -93.5t87.5 -25.5l110 8l8 -96l-407 -37z" />
    <glyph glyph-name="uni0626.fina" unicode="&#x626;" horiz-adv-x="1359" arabic-form="final" 
d="M680 -410q-96 0 -181 15t-162.5 50.5t-133 88t-88.5 133t-33 180.5q0 114 43.5 221.5t138.5 233.5l144 -111q-140 -185 -140 -323q0 -141 116 -217t321 -76q319 0 448 178q-115 77 -362 225l100 160q120 -80 209 -116.5t172 -36.5h88v-195h-57q8 -19 8 -47
q0 -67 -46 -132t-126 -116.5t-200.5 -83t-258.5 -31.5zM152 788l116 13q-41 48 -41 119q0 64 40.5 101.5t111.5 37.5q64 0 145 -33l-37 -98q-52 22 -92 22q-35 0 -61 -16q-1 -63 29.5 -93.5t87.5 -25.5l110 8l8 -96l-407 -37z" />
    <glyph glyph-name="uni0627.fina" unicode="&#x627;" horiz-adv-x="546" arabic-form="final" 
d="M438 0q-162 0 -227.5 85.5t-65.5 311.5v989h179v-983q0 -124 29 -166t122 -42h72v-195h-109z" />
    <glyph glyph-name="uni0628.init" unicode="&#x628;" horiz-adv-x="559" arabic-form="initial" 
d="M389 0h-389l-37 98l37 97h227q13 136 13 299v247h180v-247q0 -304 -31 -494zM129 -293q0 53 34 88t85 35q52 0 86.5 -35t34.5 -88q0 -51 -34.5 -86t-86.5 -35q-51 0 -85 35t-34 86z" />
    <glyph glyph-name="uni0628.medi" unicode="&#x628;" horiz-adv-x="595" arabic-form="medial" 
d="M225 0h-225l-37 98l37 97h166q22 96 22 352v194h185v-356q0 -105 39.5 -147.5t130.5 -42.5h53v-195h-96q-141 0 -209 100q-23 -50 -66 -100zM164 -293q0 53 34 88t85 35q52 0 86 -35t34 -88q0 -51 -34 -86t-86 -35q-51 0 -85 35t-34 86z" />
    <glyph glyph-name="uni0628.fina" unicode="&#x628;" horiz-adv-x="1822" arabic-form="final" 
d="M541 0q-196 0 -307 99t-111 284q0 205 156 434l151 -100q-119 -183 -119 -311q0 -211 240 -211h874q17 119 17 352v194h182v-417q0 -71 34 -100t109 -29h56v-195h-70q-151 0 -215 82q-33 -50 -65 -82h-932zM834 -293q0 53 33.5 88t84.5 35q52 0 86.5 -35t34.5 -88
q0 -51 -34.5 -86t-86.5 -35q-51 0 -84.5 35t-33.5 86z" />
    <glyph glyph-name="uni0629.fina" unicode="&#x629;" horiz-adv-x="1101" arabic-form="final" 
d="M483 68q-91 0 -169.5 29t-129 75.5t-78.5 102t-28 110.5q0 79 58.5 149t150 117.5t194 78t199.5 40.5v150h184v-285q0 -94 2 -155.5t8 -114.5t15.5 -82.5t26.5 -51t40 -29t56 -7.5h90v-195h-127q-93 0 -150 32t-90 109q-105 -73 -252 -73zM254 397q25 -70 92.5 -106.5
t151.5 -36.5q111 0 196 61q-11 100 -14 269q-134 -11 -257 -64.5t-169 -122.5zM295 1217q0 52 34 87t85 35t84.5 -34.5t33.5 -87.5q0 -51 -33.5 -85t-84.5 -34t-85 34t-34 85zM594 1217q0 52 34 87t85 35t84.5 -34.5t33.5 -87.5q0 -51 -33.5 -85t-84.5 -34t-85 34t-34 85z
" />
    <glyph glyph-name="uni062A.init" unicode="&#x62a;" horiz-adv-x="559" arabic-form="initial" 
d="M389 0h-389l-37 98l37 97h227q13 136 13 299v247h180v-247q0 -304 -31 -494zM16 1133q0 52 34 87t85 35t85 -35t34 -87q0 -51 -34 -85t-85 -34t-85 34t-34 85zM315 1133q0 52 34 87t85 35t85 -35t34 -87q0 -51 -34 -85t-85 -34t-85 34t-34 85z" />
    <glyph glyph-name="uni062A.medi" unicode="&#x62a;" horiz-adv-x="595" arabic-form="medial" 
d="M225 0h-225l-37 98l37 97h166q22 96 22 352v194h185v-356q0 -105 39.5 -147.5t130.5 -42.5h53v-195h-96q-141 0 -209 100q-23 -50 -66 -100zM8 1069q0 53 34 88t85 35t85 -35t34 -88q0 -51 -34 -85t-85 -34t-85 34t-34 85zM307 1069q0 53 34 88t85 35t85 -35t34 -88
q0 -51 -34 -85t-85 -34t-85 34t-34 85z" />
    <glyph glyph-name="uni062A.fina" unicode="&#x62a;" horiz-adv-x="1822" arabic-form="final" 
d="M541 0q-196 0 -307 99t-111 284q0 205 156 434l151 -100q-119 -183 -119 -311q0 -211 240 -211h874q17 119 17 352v194h182v-417q0 -71 34 -100t109 -29h56v-195h-70q-151 0 -215 82q-33 -50 -65 -82h-932zM684 1014q0 53 34 88t85 35t85 -35t34 -88q0 -51 -34 -85
t-85 -34t-85 34t-34 85zM983 1014q0 53 34 88t85 35t85 -35t34 -88q0 -51 -34 -85t-85 -34t-85 34t-34 85z" />
    <glyph glyph-name="uni062B.init" unicode="&#x62b;" horiz-adv-x="559" arabic-form="initial" 
d="M389 0h-389l-37 98l37 97h227q13 136 13 299v247h180v-247q0 -304 -31 -494zM31 1116q0 46 30.5 77.5t75.5 31.5q46 0 76.5 -31.5t30.5 -77.5t-30.5 -76t-76.5 -30t-76 30t-30 76zM180 1352q0 46 30.5 77t76.5 31q44 0 74 -31t30 -77q0 -45 -30 -76t-74 -31q-45 0 -76 31
t-31 76zM328 1116q0 46 30.5 77.5t75.5 31.5q46 0 76.5 -31.5t30.5 -77.5t-30.5 -76t-76.5 -30t-76 30t-30 76z" />
    <glyph glyph-name="uni062B.medi" unicode="&#x62b;" horiz-adv-x="595" arabic-form="medial" 
d="M225 0h-225l-37 98l37 97h166q22 96 22 352v194h185v-356q0 -105 39.5 -147.5t130.5 -42.5h53v-195h-96q-141 0 -209 100q-23 -50 -66 -100zM23 1053q0 46 30 77t76 31t76.5 -31t30.5 -77t-30.5 -76.5t-76.5 -30.5t-76 30.5t-30 76.5zM172 1288q0 46 30.5 77.5t76.5 31.5
q44 0 74 -31.5t30 -77.5q0 -44 -30 -75t-74 -31q-45 0 -76 31t-31 75zM319 1053q0 46 30.5 77t76.5 31t76 -31t30 -77t-30 -76.5t-76 -30.5t-76.5 30.5t-30.5 76.5z" />
    <glyph glyph-name="uni062B.fina" unicode="&#x62b;" horiz-adv-x="1822" arabic-form="final" 
d="M541 0q-196 0 -307 99t-111 284q0 205 156 434l151 -100q-119 -183 -119 -311q0 -211 240 -211h874q17 119 17 352v194h182v-417q0 -71 34 -100t109 -29h56v-195h-70q-151 0 -215 82q-33 -50 -65 -82h-932zM698 997q0 46 30.5 77.5t76.5 31.5q45 0 75.5 -31.5t30.5 -77.5
t-30 -76t-76 -30t-76.5 30t-30.5 76zM848 1233q0 46 30 77t76 31q44 0 74.5 -31t30.5 -77q0 -44 -30.5 -75.5t-74.5 -31.5q-45 0 -75.5 31t-30.5 76zM995 997q0 46 30.5 77.5t76.5 31.5q45 0 75.5 -31.5t30.5 -77.5t-30 -76t-76 -30t-76.5 30t-30.5 76z" />
    <glyph glyph-name="uni062C.init" unicode="&#x62c;" horiz-adv-x="1253" arabic-form="initial" 
d="M66 0h-66l-37 98l37 97h82q160 0 316.5 75t283.5 191q-254 82 -385 82q-115 0 -209 -43l-45 188q122 51 252 51q84 0 164 -17t149.5 -40.5t145.5 -47t184 -39.5t233 -15l-32 -195q-76 10 -131 10q-53 0 -104.5 -22t-99 -56.5t-99.5 -76.5t-116 -84.5t-136 -77
t-172.5 -56.5t-214.5 -22zM465 -248q0 53 34 88t85 35q52 0 86.5 -35t34.5 -88q0 -51 -34.5 -86t-86.5 -35q-51 0 -85 35t-34 86z" />
    <glyph glyph-name="uni062C.medi" unicode="&#x62c;" horiz-adv-x="1257" arabic-form="medial" 
d="M66 0h-66l-37 98l37 97h82q160 0 317.5 75t282.5 191q-250 82 -383 82q-123 0 -211 -43l-45 188q122 51 252 51q84 0 164 -17t149.5 -40.5t145.5 -47t184 -39.5t233 -15l-32 -195q-76 10 -131 10t-104.5 -22t-110.5 -64q69 -114 260 -114h204v-195h-184q-157 0 -264 54
t-150 153q-58 -45 -110.5 -76.5t-125.5 -64t-163.5 -49.5t-193.5 -17zM506 -293q0 53 34 88t85 35q52 0 86 -35t34 -88q0 -51 -34 -86t-86 -35q-51 0 -85 35t-34 86z" />
    <glyph glyph-name="uni062C.fina" unicode="&#x62c;" horiz-adv-x="1312" arabic-form="final" 
d="M887 -760q-160 0 -298.5 38.5t-243 110.5t-164.5 183.5t-60 249.5q0 121 47 236t124.5 202.5t171.5 152t193 99.5q-175 59 -307 59q-112 0 -225 -43l-47 189q128 51 250 51q83 0 162.5 -17.5t150.5 -42.5t148 -50t186.5 -42.5t234.5 -17.5l-32 -190q-142 15 -285 -7
q36 -93 107 -149.5t171 -56.5h142v-195h-137q-334 0 -428 369q-179 -55 -305.5 -172.5t-176.5 -296.5q2 -211 182 -337t482 -126q120 0 231 18l25 -190q-159 -25 -299 -25zM571 -143q0 53 34 88t85 35q52 0 86.5 -35t34.5 -88q0 -51 -34.5 -86t-86.5 -35q-51 0 -85 35
t-34 86z" />
    <glyph glyph-name="uni062D.init" unicode="&#x62d;" horiz-adv-x="1253" arabic-form="initial" 
d="M66 0h-66l-37 98l37 97h82q160 0 316.5 75t283.5 191q-254 82 -385 82q-115 0 -209 -43l-45 188q122 51 252 51q84 0 164 -17t149.5 -40.5t145.5 -47t184 -39.5t233 -15l-32 -195q-76 10 -131 10q-53 0 -104.5 -22t-99 -56.5t-99.5 -76.5t-116 -84.5t-136 -77
t-172.5 -56.5t-214.5 -22z" />
    <glyph glyph-name="uni062D.medi" unicode="&#x62d;" horiz-adv-x="1257" arabic-form="medial" 
d="M66 0h-66l-37 98l37 97h82q160 0 317.5 75t282.5 191q-250 82 -383 82q-123 0 -211 -43l-45 188q122 51 252 51q84 0 164 -17t149.5 -40.5t145.5 -47t184 -39.5t233 -15l-32 -195q-76 10 -131 10t-104.5 -22t-110.5 -64q69 -114 260 -114h204v-195h-184q-157 0 -264 54
t-150 153q-58 -45 -110.5 -76.5t-125.5 -64t-163.5 -49.5t-193.5 -17z" />
    <glyph glyph-name="uni062D.fina" unicode="&#x62d;" horiz-adv-x="1312" arabic-form="final" 
d="M887 -760q-160 0 -298.5 38.5t-243 110.5t-164.5 183.5t-60 249.5q0 121 47 236t124.5 202.5t171.5 152t193 99.5q-175 59 -307 59q-112 0 -225 -43l-47 189q128 51 250 51q83 0 162.5 -17.5t150.5 -42.5t148 -50t186.5 -42.5t234.5 -17.5l-32 -190q-142 15 -285 -7
q36 -93 107 -149.5t171 -56.5h142v-195h-137q-334 0 -428 369q-179 -55 -305.5 -172.5t-176.5 -296.5q2 -211 182 -337t482 -126q120 0 231 18l25 -190q-159 -25 -299 -25z" />
    <glyph glyph-name="uni062E.init" unicode="&#x62e;" horiz-adv-x="1253" arabic-form="initial" 
d="M66 0h-66l-37 98l37 97h82q160 0 316.5 75t283.5 191q-254 82 -385 82q-115 0 -209 -43l-45 188q122 51 252 51q84 0 164 -17t149.5 -40.5t145.5 -47t184 -39.5t233 -15l-32 -195q-76 10 -131 10q-53 0 -104.5 -22t-99 -56.5t-99.5 -76.5t-116 -84.5t-136 -77
t-172.5 -56.5t-214.5 -22zM506 1090q0 52 34 87t85 35q52 0 86 -34.5t34 -87.5q0 -51 -34 -86t-86 -35q-51 0 -85 35t-34 86z" />
    <glyph glyph-name="uni062E.medi" unicode="&#x62e;" horiz-adv-x="1257" arabic-form="medial" 
d="M66 0h-66l-37 98l37 97h82q160 0 317.5 75t282.5 191q-250 82 -383 82q-123 0 -211 -43l-45 188q122 51 252 51q84 0 164 -17t149.5 -40.5t145.5 -47t184 -39.5t233 -15l-32 -195q-76 10 -131 10t-104.5 -22t-110.5 -64q69 -114 260 -114h204v-195h-184q-157 0 -264 54
t-150 153q-58 -45 -110.5 -76.5t-125.5 -64t-163.5 -49.5t-193.5 -17zM506 1090q0 52 34 87t85 35q52 0 86 -34.5t34 -87.5q0 -51 -34 -86t-86 -35q-51 0 -85 35t-34 86z" />
    <glyph glyph-name="uni062E.fina" unicode="&#x62e;" horiz-adv-x="1312" arabic-form="final" 
d="M887 -760q-160 0 -298.5 38.5t-243 110.5t-164.5 183.5t-60 249.5q0 121 47 236t124.5 202.5t171.5 152t193 99.5q-175 59 -307 59q-112 0 -225 -43l-47 189q128 51 250 51q83 0 162.5 -17.5t150.5 -42.5t148 -50t186.5 -42.5t234.5 -17.5l-32 -190q-142 15 -285 -7
q36 -93 107 -149.5t171 -56.5h142v-195h-137q-334 0 -428 369q-179 -55 -305.5 -172.5t-176.5 -296.5q2 -211 182 -337t482 -126q120 0 231 18l25 -190q-159 -25 -299 -25zM586 1096q0 53 34 88t85 35q52 0 86 -35t34 -88q0 -51 -34 -86t-86 -35q-51 0 -85 35t-34 86z" />
    <glyph glyph-name="uni062F.fina" unicode="&#x62f;" horiz-adv-x="1060" arabic-form="final" 
d="M1014 0q-165 0 -275 133l-47 -67q-80 -46 -253.5 -62t-358.5 6l14 197q379 -43 570 49q-93 185 -168 573l184 37q51 -259 99 -402.5t105.5 -206t139.5 -62.5h37v-195h-47z" />
    <glyph glyph-name="uni0630.fina" unicode="&#x630;" horiz-adv-x="1060" arabic-form="final" 
d="M1014 0q-165 0 -275 133l-47 -67q-80 -46 -253.5 -62t-358.5 6l14 197q379 -43 570 49q-93 185 -168 573l184 37q51 -259 99 -402.5t105.5 -206t139.5 -62.5h37v-195h-47zM434 1139q0 53 34 88t85 35q52 0 86.5 -35t34.5 -88q0 -51 -34.5 -86t-86.5 -35q-51 0 -85 35
t-34 86z" />
    <glyph glyph-name="uni0631.fina" unicode="&#x631;" horiz-adv-x="894" arabic-form="final" 
d="M-4 -307q427 213 512 487q-18 136 -125 449l174 67l90 -268q43 -132 94.5 -182.5t132.5 -50.5h21v-195h-45q-107 0 -197 72q-84 -295 -553 -541z" />
    <glyph glyph-name="uni0632.fina" unicode="&#x632;" horiz-adv-x="894" arabic-form="final" 
d="M-4 -307q427 213 512 487q-18 136 -125 449l174 67l90 -268q43 -132 94.5 -182.5t132.5 -50.5h21v-195h-45q-107 0 -197 72q-84 -295 -553 -541zM301 997q0 53 34 88t85 35q52 0 86.5 -35t34.5 -88q0 -51 -34.5 -85.5t-86.5 -34.5q-51 0 -85 34.5t-34 85.5z" />
    <glyph glyph-name="uni0633.init" unicode="&#x633;" horiz-adv-x="1464" arabic-form="initial" 
d="M289 0h-289l-37 98l37 97h227q21 121 21 352v153h182v-344q0 -87 35 -124t113 -37h133q22 86 22 223v282h180v-325q0 -109 36.5 -144.5t115.5 -35.5h94q19 81 19 233v272h180v-288q0 -228 -58 -412h-247q-66 0 -120 24.5t-87 63.5q-23 -45 -66 -88h-221q-67 0 -120.5 24
t-84.5 62q-23 -46 -65 -86z" />
    <glyph glyph-name="uni0633.medi" unicode="&#x633;" horiz-adv-x="1562" arabic-form="medial" 
d="M289 0h-289l-37 98l37 97h227q21 97 21 282v223h182v-362q0 -143 156 -143h129q18 95 18 264v241h180v-362q0 -143 158 -143h84q21 79 21 184v321h182v-362q0 -143 141 -143h64v-195h-68q-67 0 -122.5 23t-88.5 61q-24 -45 -74 -84h-157q-128 0 -203 86q-39 -59 -76 -86
h-215q-67 0 -121 25t-86 63q-23 -44 -63 -88z" />
    <glyph glyph-name="uni0633.fina" unicode="&#x633;" horiz-adv-x="2369" arabic-form="final" 
d="M596 -279q-228 0 -360 125t-132 347q0 132 47.5 263.5t135.5 245.5l143 -110q-65 -87 -102 -186.5t-37 -188.5q0 -143 90.5 -221t243.5 -78q148 0 259 73t152 202q-21 158 -102 479l186 49l78 -332q27 -115 69.5 -154.5t129.5 -39.5h125q20 97 20 239v266h180v-329
q0 -108 34 -142t118 -34h90q18 68 18 247v258h181v-350q0 -86 33 -120.5t112 -34.5h62v-195h-68q-58 0 -109 25.5t-84 68.5q-27 -58 -69 -94h-178q-141 0 -211 92q-25 -46 -68 -92h-186q-145 0 -223 78q-60 -154 -213.5 -255.5t-364.5 -101.5z" />
    <glyph glyph-name="uni0634.init" unicode="&#x634;" horiz-adv-x="1464" arabic-form="initial" 
d="M289 0h-289l-37 98l37 97h227q21 121 21 352v153h182v-344q0 -87 35 -124t113 -37h133q22 86 22 223v282h180v-325q0 -109 36.5 -144.5t115.5 -35.5h94q19 81 19 233v272h180v-288q0 -228 -58 -412h-247q-66 0 -120 24.5t-87 63.5q-23 -45 -66 -88h-221q-67 0 -120.5 24
t-84.5 62q-23 -46 -65 -86zM569 1077q0 46 30.5 77.5t76.5 31.5q45 0 75.5 -31.5t30.5 -77.5t-30 -76t-76 -30t-76.5 30t-30.5 76zM719 1313q0 46 30 77t76 31q44 0 74.5 -31t30.5 -77q0 -44 -30.5 -75.5t-74.5 -31.5q-45 0 -75.5 31t-30.5 76zM866 1077q0 46 30.5 77.5
t76.5 31.5q45 0 75.5 -31.5t30.5 -77.5t-30 -76t-76 -30t-76.5 30t-30.5 76z" />
    <glyph glyph-name="uni0634.medi" unicode="&#x634;" horiz-adv-x="1562" arabic-form="medial" 
d="M289 0h-289l-37 98l37 97h227q21 97 21 282v223h182v-362q0 -143 156 -143h129q18 95 18 264v241h180v-362q0 -143 158 -143h84q21 79 21 184v321h182v-362q0 -143 141 -143h64v-195h-68q-67 0 -122.5 23t-88.5 61q-24 -45 -74 -84h-157q-128 0 -203 86q-39 -59 -76 -86
h-215q-67 0 -121 25t-86 63q-23 -44 -63 -88zM569 1077q0 46 30.5 77.5t76.5 31.5q45 0 75.5 -31.5t30.5 -77.5t-30 -76t-76 -30t-76.5 30t-30.5 76zM719 1313q0 46 30 77t76 31q44 0 74.5 -31t30.5 -77q0 -44 -30.5 -75.5t-74.5 -31.5q-45 0 -75.5 31t-30.5 76zM866 1077
q0 46 30.5 77.5t76.5 31.5q45 0 75.5 -31.5t30.5 -77.5t-30 -76t-76 -30t-76.5 30t-30.5 76z" />
    <glyph glyph-name="uni0634.fina" unicode="&#x634;" horiz-adv-x="2369" arabic-form="final" 
d="M596 -279q-228 0 -360 125t-132 347q0 132 47.5 263.5t135.5 245.5l143 -110q-65 -87 -102 -186.5t-37 -188.5q0 -143 90.5 -221t243.5 -78q148 0 259 73t152 202q-21 158 -102 479l186 49l78 -332q27 -115 69.5 -154.5t129.5 -39.5h125q20 97 20 239v266h180v-329
q0 -108 34 -142t118 -34h90q18 68 18 247v258h181v-350q0 -86 33 -120.5t112 -34.5h62v-195h-68q-58 0 -109 25.5t-84 68.5q-27 -58 -69 -94h-178q-141 0 -211 92q-25 -46 -68 -92h-186q-145 0 -223 78q-60 -154 -213.5 -255.5t-364.5 -101.5zM1380 1077q0 46 30.5 77.5
t76.5 31.5q45 0 75.5 -31.5t30.5 -77.5t-30 -76t-76 -30t-76.5 30t-30.5 76zM1530 1313q0 46 30 77t76 31q44 0 74.5 -31t30.5 -77q0 -44 -30.5 -75.5t-74.5 -31.5q-45 0 -75.5 31t-30.5 76zM1677 1077q0 46 30.5 77.5t76.5 31.5q45 0 75.5 -31.5t30.5 -77.5t-30 -76
t-76 -30t-76.5 30t-30.5 76z" />
    <glyph glyph-name="uni0635.init" unicode="&#x635;" horiz-adv-x="1486" arabic-form="initial" 
d="M215 0h-215l-37 98l37 97h139q19 103 19 213v292h180v-208q160 136 339 220.5t322 84.5q120 0 214 -60t143 -155.5t49 -206.5q0 -91 -37 -159.5t-96 -109t-146.5 -65t-174 -33t-193.5 -8.5h-221q-101 0 -163 21t-100 75q-23 -57 -59 -96zM348 291q18 -51 64 -73.5
t125 -22.5h165q409 0 527 108q0 141 -67.5 221t-194.5 80q-145 0 -321 -96.5t-298 -216.5z" />
    <glyph glyph-name="uni0635.medi" unicode="&#x635;" horiz-adv-x="1511" arabic-form="medial" 
d="M215 0h-215l-37 98l37 97h141q15 103 15 213v292h180v-206q162 136 334 219.5t317 83.5q122 0 217.5 -59.5t145 -154.5t49.5 -206q0 -112 -53 -182h165v-195h-976q-99 0 -162 20.5t-101 71.5q-28 -58 -57 -92zM348 295q16 -60 59.5 -80t127.5 -20h165q405 0 523 108
q3 132 -64.5 216.5t-197.5 84.5q-142 0 -313.5 -93.5t-299.5 -215.5z" />
    <glyph glyph-name="uni0635.fina" unicode="&#x635;" horiz-adv-x="2371" arabic-form="final" 
d="M569 -276q-103 0 -190 28.5t-154 84t-105 147t-38 209.5q0 267 182 509l144 -110q-67 -87 -103.5 -186.5t-36.5 -188.5q0 -143 89.5 -221t244.5 -78q145 0 259 74t153 203q-31 190 -99 477l183 55l63 -250q145 132 329 226t343 94q178 0 299 -119t121 -295
q0 -113 -58 -193q34 5 80 5h97v-195h-953q-171 0 -270 70q-60 -154 -220 -250t-360 -96zM1206 315q26 -67 76 -93.5t150 -26.5h104q205 0 337 23.5t204 84.5q8 74 -16.5 141.5t-86.5 113.5t-151 46q-133 0 -312 -87t-305 -202z" />
    <glyph glyph-name="uni0636.init" unicode="&#x636;" horiz-adv-x="1486" arabic-form="initial" 
d="M215 0h-215l-37 98l37 97h139q19 103 19 213v292h180v-208q160 136 339 220.5t322 84.5q120 0 214 -60t143 -155.5t49 -206.5q0 -91 -37 -159.5t-96 -109t-146.5 -65t-174 -33t-193.5 -8.5h-221q-101 0 -163 21t-100 75q-23 -57 -59 -96zM348 291q18 -51 64 -73.5
t125 -22.5h165q409 0 527 108q0 141 -67.5 221t-194.5 80q-145 0 -321 -96.5t-298 -216.5zM641 1090q0 52 34 87t85 35q52 0 86.5 -34.5t34.5 -87.5q0 -51 -34.5 -86t-86.5 -35q-51 0 -85 35t-34 86z" />
    <glyph glyph-name="uni0636.medi" unicode="&#x636;" horiz-adv-x="1511" arabic-form="medial" 
d="M215 0h-215l-37 98l37 97h141q15 103 15 213v292h180v-206q162 136 334 219.5t317 83.5q122 0 217.5 -59.5t145 -154.5t49.5 -206q0 -112 -53 -182h165v-195h-976q-99 0 -162 20.5t-101 71.5q-28 -58 -57 -92zM348 295q16 -60 59.5 -80t127.5 -20h165q405 0 523 108
q3 132 -64.5 216.5t-197.5 84.5q-142 0 -313.5 -93.5t-299.5 -215.5zM641 1090q0 52 34 87t85 35q52 0 86.5 -34.5t34.5 -87.5q0 -51 -34.5 -86t-86.5 -35q-51 0 -85 35t-34 86z" />
    <glyph glyph-name="uni0636.fina" unicode="&#x636;" horiz-adv-x="2371" arabic-form="final" 
d="M569 -276q-103 0 -190 28.5t-154 84t-105 147t-38 209.5q0 267 182 509l144 -110q-67 -87 -103.5 -186.5t-36.5 -188.5q0 -143 89.5 -221t244.5 -78q145 0 259 74t153 203q-31 190 -99 477l183 55l63 -250q145 132 329 226t343 94q178 0 299 -119t121 -295
q0 -113 -58 -193q34 5 80 5h97v-195h-953q-171 0 -270 70q-60 -154 -220 -250t-360 -96zM1206 315q26 -67 76 -93.5t150 -26.5h104q205 0 337 23.5t204 84.5q8 74 -16.5 141.5t-86.5 113.5t-151 46q-133 0 -312 -87t-305 -202zM1253 1090q0 52 34 87t85 35q52 0 86.5 -34.5
t34.5 -87.5q0 -51 -34.5 -86t-86.5 -35q-51 0 -85 35t-34 86z" />
    <glyph glyph-name="uni0637.init" unicode="&#x637;" horiz-adv-x="1370" arabic-form="initial" 
d="M395 0h-395l-37 98l37 97h80q95 151 188 264q19 159 19 366v561h180v-434q0 -229 -14 -309q195 154 395 154q194 0 315 -124t121 -302q0 -56 -14.5 -100.5t-50 -88t-101 -75.5t-161.5 -57t-238 -37.5t-324 -12.5zM262 195h178q509 0 668 118q9 121 -74 205t-221 84
q-136 0 -269.5 -95.5t-281.5 -311.5z" />
    <glyph glyph-name="uni0637.medi" unicode="&#x637;" horiz-adv-x="1406" arabic-form="medial" 
d="M1407 0h-1407l-37 98l37 97h90q94 150 191 264q18 153 18 366v561h180v-434q0 -229 -14 -309q195 154 395 154q129 0 230 -59t153.5 -153t52.5 -202q0 -114 -90 -207q74 19 152 19h49v-195zM274 195h177q508 0 667 118q9 121 -73 205t-220 84q-136 0 -269.5 -95.5
t-281.5 -311.5z" />
    <glyph glyph-name="uni0637.fina" unicode="&#x637;" horiz-adv-x="1650" arabic-form="final" 
d="M104 0l-22 195h246q109 163 188 258q19 162 19 372v561h180v-434q0 -225 -15 -311q193 156 390 156q133 0 235 -58.5t154.5 -155t52.5 -212.5q0 -112 -62 -185q115 9 138 9h43v-195h-1547zM508 195h180q510 0 666 118q10 68 -27 135t-113 110.5t-170 43.5
q-129 0 -258 -95.5t-278 -311.5z" />
    <glyph glyph-name="uni0638.init" unicode="&#x638;" horiz-adv-x="1370" arabic-form="initial" 
d="M395 0h-395l-37 98l37 97h80q95 151 188 264q19 159 19 366v561h180v-434q0 -229 -14 -309q195 154 395 154q194 0 315 -124t121 -302q0 -56 -14.5 -100.5t-50 -88t-101 -75.5t-161.5 -57t-238 -37.5t-324 -12.5zM262 195h178q509 0 668 118q9 121 -74 205t-221 84
q-136 0 -269.5 -95.5t-281.5 -311.5zM705 1130q0 53 33.5 88t84.5 35q52 0 86.5 -35t34.5 -88q0 -51 -34.5 -85.5t-86.5 -34.5q-51 0 -84.5 34.5t-33.5 85.5z" />
    <glyph glyph-name="uni0638.medi" unicode="&#x638;" horiz-adv-x="1406" arabic-form="medial" 
d="M1407 0h-1407l-37 98l37 97h90q94 150 191 264q18 153 18 366v561h180v-434q0 -229 -14 -309q195 154 395 154q129 0 230 -59t153.5 -153t52.5 -202q0 -114 -90 -207q74 19 152 19h49v-195zM274 195h177q508 0 667 118q9 121 -73 205t-220 84q-136 0 -269.5 -95.5
t-281.5 -311.5zM719 1130q0 53 34 88t85 35q52 0 86 -35t34 -88q0 -51 -34 -85.5t-86 -34.5q-51 0 -85 34.5t-34 85.5z" />
    <glyph glyph-name="uni0638.fina" unicode="&#x638;" horiz-adv-x="1650" arabic-form="final" 
d="M104 0l-22 195h246q109 163 188 258q19 162 19 372v561h180v-434q0 -225 -15 -311q193 156 390 156q133 0 235 -58.5t154.5 -155t52.5 -212.5q0 -112 -62 -185q115 9 138 9h43v-195h-1547zM508 195h180q510 0 666 118q10 68 -27 135t-113 110.5t-170 43.5
q-129 0 -258 -95.5t-278 -311.5zM965 1130q0 53 33.5 88t84.5 35q52 0 86.5 -35t34.5 -88q0 -51 -34.5 -85.5t-86.5 -34.5q-51 0 -84.5 34.5t-33.5 85.5z" />
    <glyph glyph-name="uni0639.init" unicode="&#x639;" horiz-adv-x="983" arabic-form="initial" 
d="M858 0h-858l-37 98l37 97h201q-90 110 -90 249q0 72 23.5 136.5t69 116.5t121 83t171.5 31q164 0 311 -80l-68 -172q-121 64 -245 64q-122 0 -197 -62q-33 -149 50.5 -257.5t246.5 -108.5h291z" />
    <glyph glyph-name="uni0639.medi" unicode="&#x639;" horiz-adv-x="1107" arabic-form="medial" 
d="M483 0h-483l-37 98l37 97h442q-119 141 -329 270v205q82 53 202 84.5t240 31.5q84 0 156.5 -16t129.5 -48t89.5 -84t32.5 -120q0 -96 -56.5 -182t-138.5 -141h340v-195h-322q-108 0 -200 61q-55 -39 -103 -61zM285 545q171 -109 313 -273q195 132 207 242
q-31 43 -103.5 66.5t-162.5 23.5q-148 0 -254 -59z" />
    <glyph glyph-name="uni0639.fina" unicode="&#x639;" horiz-adv-x="1058" arabic-form="final" 
d="M739 -756q-138 0 -254.5 25.5t-209 77.5t-145 139.5t-52.5 202.5q0 163 97.5 300t244.5 216q-205 193 -336 266v209q92 51 215 81t240 30q108 0 193 -25.5t141.5 -87t56.5 -152.5q0 -171 -207 -325q62 -6 168 -6h168v-195h-133q-158 0 -236.5 14t-136.5 68
q-120 -54 -214 -142t-122 -186q5 -99 75.5 -172.5t188.5 -109.5t267 -33q118 4 239 18l17 -188q-141 -25 -265 -25zM252 553q72 -41 161.5 -111.5t159.5 -146.5q87 59 134.5 109t72.5 110q-15 43 -89 68.5t-171 25.5q-155 0 -268 -55z" />
    <glyph glyph-name="uni063A.init" unicode="&#x63a;" horiz-adv-x="983" arabic-form="initial" 
d="M858 0h-858l-37 98l37 97h201q-90 110 -90 249q0 72 23.5 136.5t69 116.5t121 83t171.5 31q164 0 311 -80l-68 -172q-121 64 -245 64q-122 0 -197 -62q-33 -149 50.5 -257.5t246.5 -108.5h291zM385 1116q0 53 34 88t85 35q52 0 86.5 -35t34.5 -88q0 -51 -34.5 -86
t-86.5 -35q-51 0 -85 35t-34 86z" />
    <glyph glyph-name="uni063A.medi" unicode="&#x63a;" horiz-adv-x="1107" arabic-form="medial" 
d="M483 0h-483l-37 98l37 97h442q-119 141 -329 270v205q82 53 202 84.5t240 31.5q84 0 156.5 -16t129.5 -48t89.5 -84t32.5 -120q0 -96 -56.5 -182t-138.5 -141h340v-195h-322q-108 0 -200 61q-55 -39 -103 -61zM285 545q171 -109 313 -273q195 132 207 242
q-31 43 -103.5 66.5t-162.5 23.5q-148 0 -254 -59zM410 1096q0 53 33.5 88t84.5 35q52 0 86.5 -35t34.5 -88q0 -51 -34.5 -86t-86.5 -35q-51 0 -84.5 35t-33.5 86z" />
    <glyph glyph-name="uni063A.fina" unicode="&#x63a;" horiz-adv-x="1058" arabic-form="final" 
d="M739 -756q-138 0 -254.5 25.5t-209 77.5t-145 139.5t-52.5 202.5q0 163 97.5 300t244.5 216q-205 193 -336 266v209q92 51 215 81t240 30q108 0 193 -25.5t141.5 -87t56.5 -152.5q0 -171 -207 -325q62 -6 168 -6h168v-195h-133q-158 0 -236.5 14t-136.5 68
q-120 -54 -214 -142t-122 -186q5 -99 75.5 -172.5t188.5 -109.5t267 -33q118 4 239 18l17 -188q-141 -25 -265 -25zM252 553q72 -41 161.5 -111.5t159.5 -146.5q87 59 134.5 109t72.5 110q-15 43 -89 68.5t-171 25.5q-155 0 -268 -55zM410 1096q0 53 33.5 88t84.5 35
q52 0 86.5 -35t34.5 -88q0 -51 -34.5 -86t-86.5 -35q-51 0 -84.5 35t-33.5 86z" />
    <glyph glyph-name="uni0640.fina" unicode="&#x640;" horiz-adv-x="507" 
d="M0 0v195h508v-195h-508z" />
    <glyph glyph-name="uni0641.init" unicode="&#x641;" horiz-adv-x="1013" arabic-form="initial" 
d="M850 0h-850l-37 98l37 97h262q-139 98 -139 231q0 63 30 136.5t79 136.5t121.5 105t148.5 42q110 0 202.5 -85.5t142.5 -216.5t50 -270q0 -138 -47 -274zM293 420q53 -82 168 -144.5t239 -80.5q7 44 7 77q0 87 -30.5 176t-80.5 147t-100 58q-58 0 -124 -68t-79 -165z
M379 1135q0 52 34 87t85 35q52 0 86 -34.5t34 -87.5q0 -51 -34 -86t-86 -35q-51 0 -85 35t-34 86z" />
    <glyph glyph-name="uni0641.medi" unicode="&#x641;" horiz-adv-x="995" arabic-form="medial" 
d="M219 0h-219l-37 98l37 97h238q-48 46 -79.5 112.5t-31.5 136.5q0 71 38.5 144.5t97 129t132 91t140.5 35.5q69 0 133 -40t106.5 -100.5t68 -131t25.5 -132.5q0 -140 -112 -245h239v-195h-254q-60 0 -128.5 19.5t-116.5 52.5q-115 -72 -277 -72zM303 434q18 -46 72 -108
t117 -105q71 43 123.5 99t76.5 106q-3 81 -56.5 155t-115.5 74q-63 0 -137 -77t-80 -144zM381 1135q0 52 34 87t85 35q52 0 86.5 -34.5t34.5 -87.5q0 -51 -34.5 -86t-86.5 -35q-51 0 -85 35t-34 86z" />
    <glyph glyph-name="uni0641.fina" unicode="&#x641;" horiz-adv-x="1943" arabic-form="final" 
d="M510 0q-114 0 -198.5 29.5t-133.5 82.5t-72.5 119t-23.5 146q0 220 156 440l151 -100q-63 -96 -91 -167.5t-28 -143.5q0 -211 234 -211h690q-52 43 -84.5 106t-32.5 129q0 88 61.5 186t158.5 164t190 66q70 0 133.5 -42.5t106 -106.5t67.5 -137t25 -136q0 -134 -109 -229
h234v-195h-261q-135 0 -241 70q-61 -37 -119 -53.5t-135 -16.5h-678zM1257 416q14 -42 68 -97.5t125 -97.5q140 79 195 191q-2 83 -53 163t-117 80q-69 0 -143.5 -84t-74.5 -155zM1346 1135q0 53 33.5 87.5t84.5 34.5q52 0 86.5 -34.5t34.5 -87.5q0 -51 -34.5 -86t-86.5 -35
q-51 0 -84.5 35t-33.5 86z" />
    <glyph glyph-name="uni0642.init" unicode="&#x642;" horiz-adv-x="1013" arabic-form="initial" 
d="M850 0h-850l-37 98l37 97h262q-139 98 -139 231q0 63 30 136.5t79 136.5t121.5 105t148.5 42q110 0 202.5 -85.5t142.5 -216.5t50 -270q0 -138 -47 -274zM231 1137q0 53 34 88t85 35t85 -35t34 -88q0 -51 -34 -85t-85 -34t-85 34t-34 85zM293 420q53 -82 168 -144.5
t239 -80.5q7 44 7 77q0 87 -30.5 176t-80.5 147t-100 58q-58 0 -124 -68t-79 -165zM530 1137q0 53 34 88t85 35t85 -35t34 -88q0 -51 -34 -85t-85 -34t-85 34t-34 85z" />
    <glyph glyph-name="uni0642.medi" unicode="&#x642;" horiz-adv-x="995" arabic-form="medial" 
d="M219 0h-219l-37 98l37 97h238q-48 46 -79.5 112.5t-31.5 136.5q0 71 38.5 144.5t97 129t132 91t140.5 35.5q69 0 133 -40t106.5 -100.5t68 -131t25.5 -132.5q0 -140 -112 -245h239v-195h-254q-60 0 -128.5 19.5t-116.5 52.5q-115 -72 -277 -72zM231 1137q0 53 34 88
t85 35t85 -35t34 -88q0 -51 -34 -85t-85 -34t-85 34t-34 85zM303 434q18 -46 72 -108t117 -105q71 43 123.5 99t76.5 106q-3 81 -56.5 155t-115.5 74q-63 0 -137 -77t-80 -144zM530 1137q0 53 34 88t85 35t85 -35t34 -88q0 -51 -34 -85t-85 -34t-85 34t-34 85z" />
    <glyph glyph-name="uni0642.fina" unicode="&#x642;" horiz-adv-x="1484" arabic-form="final" 
d="M711 -449q-128 0 -239 29.5t-199.5 88.5t-139.5 158t-51 228q0 262 180 498l146 -109q-67 -88 -103.5 -188.5t-36.5 -185.5q0 -83 35.5 -145.5t98.5 -100t144 -56t177 -18.5q145 0 258 37.5t174 101.5q17 69 21 113q-566 27 -566 311q0 50 17.5 109t51.5 117t78.5 106
t104 77.5t123.5 29.5q84 0 153.5 -50t114 -131.5t70.5 -178t31 -197.5h131v-195h-142q-21 -115 -78.5 -202.5t-142 -140.5t-188 -79.5t-223.5 -26.5zM694 1128q0 53 34 88t85 35t85 -35t34 -88q0 -51 -34 -84.5t-85 -33.5t-85 33.5t-34 84.5zM772 299q130 -95 406 -102
q-7 98 -30 176.5t-67 132t-104 53.5q-76 0 -134.5 -76.5t-70.5 -183.5zM993 1128q0 53 34 88t85 35t85 -35t34 -88q0 -51 -34 -84.5t-85 -33.5t-85 33.5t-34 84.5z" />
    <glyph glyph-name="uni0643.init" unicode="&#x643;" horiz-adv-x="919" arabic-form="initial" 
d="M653 0h-653l-37 98l37 97h553q-30 163 -158 306.5t-338 233.5l-26 219l774 408l78 -172l-645 -330q248 -131 370 -312t140 -423z" />
    <glyph glyph-name="uni0643.medi" unicode="&#x643;" horiz-adv-x="1097" arabic-form="medial" 
d="M375 0h-375l-37 98l37 97h322q57 70 57 159q0 203 -316 377l-26 219l872 389l68 -180l-733 -315q65 -31 134.5 -84.5t128 -112.5t118.5 -123.5t115 -122.5t107.5 -104.5t106 -74t101.5 -27.5h43v-195h-43q-65 0 -136 29t-135.5 79.5t-121 108t-107.5 123.5v-18
q0 -110 -52 -191t-128 -131z" />
    <glyph glyph-name="uni0643.fina" unicode="&#x643;" horiz-adv-x="1810" arabic-form="final" 
d="M541 0q-196 0 -307 99t-111 284q0 205 156 434l151 -100q-119 -183 -119 -311q0 -97 57.5 -154t198.5 -57h856q23 121 23 352v839h182v-1067q0 -72 29.5 -98t111.5 -26h41v-195h-51q-84 0 -134 21t-79 71q-22 -43 -61 -92h-944zM670 674q22 3 69 12t66 12q-66 73 -66 176
q0 90 53 150.5t156 60.5q116 0 207 -59l-57 -123q-70 43 -150 43q-44 0 -76 -14q-4 -10 -4 -37q0 -71 39.5 -124.5t118.5 -45.5l172 20l8 -122q-263 -28 -514 -76z" />
    <glyph glyph-name="uni0644.init" unicode="&#x644;" horiz-adv-x="505" arabic-form="initial" 
d="M324 0h-324l-37 98l37 97h168q12 187 12 448v743h180v-743q0 -455 -36 -643z" />
    <glyph glyph-name="uni0644.medi" unicode="&#x644;" horiz-adv-x="536" arabic-form="medial" 
d="M195 0h-195l-37 98l37 97h141q23 101 23 352v839h182v-1034q0 -83 36 -120t112 -37h43v-195h-60q-87 0 -136.5 24t-78.5 80q-26 -57 -67 -104z" />
    <glyph glyph-name="uni0644.fina" unicode="&#x644;" horiz-adv-x="1429" arabic-form="final" 
d="M614 -442q-117 0 -212 27.5t-167 83t-111.5 146.5t-39.5 212q0 274 182 512l144 -111q-67 -90 -103.5 -189t-36.5 -186q0 -147 98 -224t263 -77q264 0 389 176q27 123 27 598v860h178v-1013q0 -97 39.5 -137.5t117.5 -40.5h48v-195h-74q-87 0 -152 45q-16 -152 -67 -244
q-64 -118 -203.5 -180.5t-319.5 -62.5z" />
    <glyph glyph-name="uni0645.init" unicode="&#x645;" horiz-adv-x="1032" arabic-form="initial" 
d="M801 -27q-288 30 -520 164q-30 -72 -54 -137h-227l-37 98l37 97h106q89 257 221.5 412t252.5 155q71 0 139 -58.5t113 -143.5t72.5 -176.5t27.5 -160.5q0 -131 -131 -250zM354 315q73 -45 186.5 -81t219.5 -48q-13 120 -66.5 229t-128.5 173q-113 -66 -211 -273z" />
    <glyph glyph-name="uni0645.medi" unicode="&#x645;" horiz-adv-x="1173" arabic-form="medial" 
d="M227 0h-227l-37 98l37 97h106q87 251 217 409t263 158q58 0 106 -31.5t82 -81.5t64 -110t58.5 -120.5t58.5 -110.5t71.5 -81.5t89.5 -31.5h58v-195h-31q-157 0 -254 84l-35 -94q-327 0 -569 170q-41 -113 -58 -160zM360 336q72 -55 195.5 -96.5t247.5 -55.5
q-30 47 -69.5 134.5t-79 156t-91.5 111.5q-113 -71 -203 -250z" />
    <glyph glyph-name="uni0645.fina" unicode="&#x645;" horiz-adv-x="1464" arabic-form="final" 
d="M295 -713q-189 694 -189 926q0 83 29 156t77.5 127t113 98t134 73.5t141.5 49.5t135 28.5t116 8.5q76 0 134.5 -31t95.5 -80t66.5 -109t55 -119.5t53.5 -108.5t70 -80t96 -31h41v-195h-32q-84 0 -137 16.5t-95 53.5l-33 -80q-93 0 -202.5 23t-210 63.5t-167.5 107
t-67 142.5q0 91 76 188q-94 -31 -188 -88.5t-121 -91.5q20 -291 196 -1004zM670 336q70 -56 195 -101.5t255 -60.5q-27 43 -108 200.5t-131 207.5q-65 -43 -123.5 -111t-87.5 -135z" />
    <glyph glyph-name="uni0646.init" unicode="&#x646;" horiz-adv-x="559" arabic-form="initial" 
d="M389 0h-389l-37 98l37 97h227q13 136 13 299v247h180v-247q0 -304 -31 -494zM166 1128q0 53 34 88t85 35q52 0 86.5 -35t34.5 -88q0 -51 -34.5 -85.5t-86.5 -34.5q-51 0 -85 34.5t-34 85.5z" />
    <glyph glyph-name="uni0646.medi" unicode="&#x646;" horiz-adv-x="595" arabic-form="medial" 
d="M225 0h-225l-37 98l37 97h166q22 96 22 352v194h185v-356q0 -105 39.5 -147.5t130.5 -42.5h53v-195h-96q-141 0 -209 100q-23 -50 -66 -100zM158 1065q0 53 33.5 88t84.5 35q52 0 86.5 -35t34.5 -88q0 -51 -34.5 -86t-86.5 -35q-51 0 -84.5 35t-33.5 86z" />
    <glyph glyph-name="uni0646.fina" unicode="&#x646;" horiz-adv-x="1361" arabic-form="final" 
d="M584 -279q-108 0 -198 28.5t-158.5 85t-107 146.5t-38.5 207q-3 271 182 514l144 -108q-66 -87 -103 -188t-37 -191q0 -141 90 -219t246 -78q146 0 257.5 69.5t150.5 194.5q-31 232 -97 506l197 49l76 -381q13 -70 31.5 -105.5t40 -45.5t61.5 -10h41v-195h-51
q-121 0 -176 43q-65 -150 -211 -236t-340 -86zM508 967q0 53 34 88t85 35q52 0 86.5 -35t34.5 -88q0 -51 -34.5 -86t-86.5 -35q-51 0 -85 35t-34 86z" />
    <glyph glyph-name="uni0647.init" unicode="&#x647;" horiz-adv-x="1245" arabic-form="initial" 
d="M121 0h-121l-37 98l37 97h168q-76 83 -76 188q0 90 59 182t150 146l41 182q180 -16 331.5 -77t260.5 -159t163 -238.5t38 -305.5l-91 -113h-358q-167 0 -276 74q-113 -74 -289 -74zM258 381q48 -104 154 -168q127 70 180 160q-2 78 -46.5 146.5t-109.5 68.5
q-69 0 -123.5 -71t-54.5 -136zM666 195h290q2 12 2 32q0 113 -80 218t-208 171q76 -102 73 -223q0 -115 -77 -198z" />
    <glyph glyph-name="uni0647.medi" unicode="&#x647;" horiz-adv-x="851" arabic-form="medial" 
d="M432 -469q-77 0 -139 28t-101.5 73.5t-66.5 107.5t-38 126.5t-11 133.5h-76l-37 98l37 97h82q18 180 105 358t216 287h168q58 -73 94.5 -181.5t36.5 -207.5q0 -161 -106 -256h256v-195h-180q80 -80 80 -186q0 -113 -90 -198t-230 -85zM250 0q-2 -135 51 -211t152 -76
q62 0 106 33t53 94q-31 85 -124.5 120t-237.5 40zM260 190h102q75 12 120.5 70t45.5 152q0 117 -65 254q-187 -220 -203 -476z" />
    <glyph glyph-name="uni0647.fina" unicode="&#x647;" horiz-adv-x="1101" arabic-form="final" 
d="M483 68q-91 0 -169.5 29t-129 75.5t-78.5 102t-28 110.5q0 79 58.5 149t150 117.5t194 78t199.5 40.5v150h184v-285q0 -94 2 -155.5t8 -114.5t15.5 -82.5t26.5 -51t40 -29t56 -7.5h90v-195h-127q-93 0 -150 32t-90 109q-105 -73 -252 -73zM254 397q25 -70 92.5 -106.5
t151.5 -36.5q111 0 196 61q-11 100 -14 269q-134 -11 -257 -64.5t-169 -122.5z" />
    <glyph glyph-name="uni0648.fina" unicode="&#x648;" horiz-adv-x="948" arabic-form="final" 
d="M123 -332q379 127 489 334q-273 7 -402.5 77t-129.5 210q0 69 29 147t77 144.5t118.5 110.5t146.5 44q102 0 188 -76.5t134 -200.5t48 -263h127v-195h-157q-107 -322 -578 -494zM242 276q92 -81 391 -81h16q-4 52 -19 109.5t-40.5 112t-65.5 89.5t-86 35q-77 0 -135 -81
t-61 -184z" />
    <glyph glyph-name="uni0649.fina" unicode="&#x649;" horiz-adv-x="1359" arabic-form="final" 
d="M680 -410q-96 0 -181 15t-162.5 50.5t-133 88t-88.5 133t-33 180.5q0 114 43.5 221.5t138.5 233.5l144 -111q-140 -185 -140 -323q0 -141 116 -217t321 -76q319 0 448 178q-115 77 -362 225l100 160q120 -80 209 -116.5t172 -36.5h88v-195h-57q8 -19 8 -47
q0 -67 -46 -132t-126 -116.5t-200.5 -83t-258.5 -31.5z" />
    <glyph glyph-name="uni064A.init" unicode="&#x64a;" horiz-adv-x="559" arabic-form="initial" 
d="M389 0h-389l-37 98l37 97h227q13 136 13 299v247h180v-247q0 -304 -31 -494zM-18 -293q0 51 33.5 86t84.5 35t85 -35t34 -86t-34 -85t-85 -34t-84.5 34t-33.5 85zM281 -293q0 51 33.5 86t84.5 35t85 -35t34 -86t-34 -85t-85 -34t-84.5 34t-33.5 85z" />
    <glyph glyph-name="uni064A.medi" unicode="&#x64a;" horiz-adv-x="595" arabic-form="medial" 
d="M225 0h-225l-37 98l37 97h166q22 96 22 352v194h185v-356q0 -105 39.5 -147.5t130.5 -42.5h53v-195h-96q-141 0 -209 100q-23 -50 -66 -100zM14 -293q0 51 34 86t85 35t85 -35t34 -86t-34 -85t-85 -34t-85 34t-34 85zM313 -293q0 51 34 86t85 35t85 -35t34 -86t-34 -85
t-85 -34t-85 34t-34 85z" />
    <glyph glyph-name="uni064A.fina" unicode="&#x64a;" horiz-adv-x="1359" arabic-form="final" 
d="M680 -410q-96 0 -181 15t-162.5 50.5t-133 88t-88.5 133t-33 180.5q0 114 43.5 221.5t138.5 233.5l144 -111q-140 -185 -140 -323q0 -141 116 -217t321 -76q319 0 448 178q-115 77 -362 225l100 160q120 -80 209 -116.5t172 -36.5h88v-195h-57q8 -19 8 -47
q0 -67 -46 -132t-126 -116.5t-200.5 -83t-258.5 -31.5zM408 -666q0 51 33.5 86t84.5 35t85 -35t34 -86t-34 -84.5t-85 -33.5t-84.5 33.5t-33.5 84.5zM707 -666q0 51 33.5 86t84.5 35t85 -35t34 -86t-34 -84.5t-85 -33.5t-84.5 33.5t-33.5 84.5z" />
    <glyph glyph-name="uni066E.init" unicode="&#x66e;" horiz-adv-x="559" 
d="M389 0h-389l-37 98l37 97h227q13 136 13 299v247h180v-247q0 -304 -31 -494z" />
    <glyph glyph-name="uni066E.medi" unicode="&#x66e;" horiz-adv-x="595" 
d="M225 0h-225l-37 98l37 97h166q22 96 22 352v194h185v-356q0 -105 39.5 -147.5t130.5 -42.5h53v-195h-96q-141 0 -209 100q-23 -50 -66 -100z" />
    <glyph glyph-name="uni066E.fina" unicode="&#x66e;" horiz-adv-x="1822" 
d="M541 0q-196 0 -307 99t-111 284q0 205 156 434l151 -100q-119 -183 -119 -311q0 -211 240 -211h874q17 119 17 352v194h182v-417q0 -71 34 -100t109 -29h56v-195h-70q-151 0 -215 82q-33 -50 -65 -82h-932z" />
    <glyph glyph-name="uni066F.fina" unicode="&#x66f;" horiz-adv-x="1484" 
d="M711 -449q-128 0 -239 29.5t-199.5 88.5t-139.5 158t-51 228q0 262 180 498l146 -109q-67 -88 -103.5 -188.5t-36.5 -185.5q0 -83 35.5 -145.5t98.5 -100t144 -56t177 -18.5q145 0 258 37.5t174 101.5q17 69 21 113q-566 27 -566 311q0 50 17.5 109t51.5 117t78.5 106
t104 77.5t123.5 29.5q84 0 153.5 -50t114 -131.5t70.5 -178t31 -197.5h131v-195h-142q-21 -115 -78.5 -202.5t-142 -140.5t-188 -79.5t-223.5 -26.5zM772 299q130 -95 406 -102q-7 98 -30 176.5t-67 132t-104 53.5q-76 0 -134.5 -76.5t-70.5 -183.5z" />
    <glyph glyph-name="uni0671.fina" unicode="&#x671;" horiz-adv-x="546" arabic-form="final" 
d="M438 0q-162 0 -227.5 85.5t-65.5 311.5v989h179v-983q0 -124 29 -166t122 -42h72v-195h-109zM-59 1575q67 76 143 76q19 0 55 -9q95 146 203 146q57 0 95 -39t38 -94q0 -63 -50.5 -103.5t-137.5 -40.5q-58 0 -117.5 25t-87.5 25q-44 0 -90 -48zM205 1616q40 -14 86 -14
q71 0 108 24q-8 66 -69 66q-64 0 -125 -76z" />
    <glyph glyph-name="uni06A1.init" unicode="&#x6a1;" horiz-adv-x="1013" 
d="M850 0h-850l-37 98l37 97h262q-139 98 -139 231q0 63 30 136.5t79 136.5t121.5 105t148.5 42q110 0 202.5 -85.5t142.5 -216.5t50 -270q0 -138 -47 -274zM293 420q53 -82 168 -144.5t239 -80.5q7 44 7 77q0 87 -30.5 176t-80.5 147t-100 58q-58 0 -124 -68t-79 -165z" />
    <glyph glyph-name="uni06A1.medi" unicode="&#x6a1;" horiz-adv-x="995" 
d="M219 0h-219l-37 98l37 97h238q-48 46 -79.5 112.5t-31.5 136.5q0 71 38.5 144.5t97 129t132 91t140.5 35.5q69 0 133 -40t106.5 -100.5t68 -131t25.5 -132.5q0 -140 -112 -245h239v-195h-254q-60 0 -128.5 19.5t-116.5 52.5q-115 -72 -277 -72zM303 434q18 -46 72 -108
t117 -105q71 43 123.5 99t76.5 106q-3 81 -56.5 155t-115.5 74q-63 0 -137 -77t-80 -144z" />
    <glyph glyph-name="uni06A1.fina" unicode="&#x6a1;" horiz-adv-x="1943" 
d="M510 0q-114 0 -198.5 29.5t-133.5 82.5t-72.5 119t-23.5 146q0 220 156 440l151 -100q-63 -96 -91 -167.5t-28 -143.5q0 -211 234 -211h690q-52 43 -84.5 106t-32.5 129q0 88 61.5 186t158.5 164t190 66q70 0 133.5 -42.5t106 -106.5t67.5 -137t25 -136q0 -134 -109 -229
h234v-195h-261q-135 0 -241 70q-61 -37 -119 -53.5t-135 -16.5h-678zM1257 416q14 -42 68 -97.5t125 -97.5q140 79 195 191q-2 83 -53 163t-117 80q-69 0 -143.5 -84t-74.5 -155z" />
    <glyph glyph-name="uni06A4.init" unicode="&#x6a4;" horiz-adv-x="1013" arabic-form="initial" 
d="M850 0h-850l-37 98l37 97h262q-139 98 -139 231q0 63 30 136.5t79 136.5t121.5 105t148.5 42q110 0 202.5 -85.5t142.5 -216.5t50 -270q0 -138 -47 -274zM244 1122q0 46 30.5 77.5t75.5 31.5q46 0 76.5 -31.5t30.5 -77.5t-30.5 -76t-76.5 -30t-76 30t-30 76zM293 420
q53 -82 168 -144.5t239 -80.5q7 44 7 77q0 87 -30.5 176t-80.5 147t-100 58q-58 0 -124 -68t-79 -165zM393 1358q0 46 30.5 77t76.5 31q44 0 74 -31t30 -77q0 -45 -30 -76t-74 -31q-45 0 -76 31t-31 76zM541 1122q0 46 30.5 77.5t75.5 31.5q46 0 76.5 -31.5t30.5 -77.5
t-30.5 -76t-76.5 -30t-76 30t-30 76z" />
    <glyph glyph-name="uni06A4.medi" unicode="&#x6a4;" horiz-adv-x="995" arabic-form="medial" 
d="M219 0h-219l-37 98l37 97h238q-48 46 -79.5 112.5t-31.5 136.5q0 71 38.5 144.5t97 129t132 91t140.5 35.5q69 0 133 -40t106.5 -100.5t68 -131t25.5 -132.5q0 -140 -112 -245h239v-195h-254q-60 0 -128.5 19.5t-116.5 52.5q-115 -72 -277 -72zM246 1122q0 46 30.5 77.5
t75.5 31.5q46 0 76.5 -31.5t30.5 -77.5t-30.5 -76t-76.5 -30t-76 30t-30 76zM303 434q18 -46 72 -108t117 -105q71 43 123.5 99t76.5 106q-3 81 -56.5 155t-115.5 74q-63 0 -137 -77t-80 -144zM395 1358q0 46 30.5 77t76.5 31q44 0 74 -31t30 -77q0 -45 -30 -76t-74 -31
q-45 0 -76 31t-31 76zM543 1122q0 46 30.5 77.5t75.5 31.5q46 0 76.5 -31.5t30.5 -77.5t-30.5 -76t-76.5 -30t-76 30t-30 76z" />
    <glyph glyph-name="uni06A4.fina" unicode="&#x6a4;" horiz-adv-x="1943" arabic-form="final" 
d="M510 0q-114 0 -198.5 29.5t-133.5 82.5t-72.5 119t-23.5 146q0 220 156 440l151 -100q-63 -96 -91 -167.5t-28 -143.5q0 -211 234 -211h690q-52 43 -84.5 106t-32.5 129q0 88 61.5 186t158.5 164t190 66q70 0 133.5 -42.5t106 -106.5t67.5 -137t25 -136q0 -134 -109 -229
h234v-195h-261q-135 0 -241 70q-61 -37 -119 -53.5t-135 -16.5h-678zM1210 1122q0 46 30.5 77.5t76.5 31.5q45 0 75.5 -31.5t30.5 -77.5t-30 -76t-76 -30t-76.5 30t-30.5 76zM1257 416q14 -42 68 -97.5t125 -97.5q140 79 195 191q-2 83 -53 163t-117 80q-69 0 -143.5 -84
t-74.5 -155zM1360 1358q0 46 30 77t76 31q44 0 74.5 -31t30.5 -77q0 -44 -30.5 -75.5t-74.5 -31.5q-45 0 -75.5 31t-30.5 76zM1507 1122q0 46 30.5 77.5t76.5 31.5q45 0 75.5 -31.5t30.5 -77.5t-30 -76t-76 -30t-76.5 30t-30.5 76z" />
    <glyph glyph-name="uni06BA.fina" unicode="&#x6ba;" horiz-adv-x="1361" arabic-form="final" 
d="M584 -279q-108 0 -198 28.5t-158.5 85t-107 146.5t-38.5 207q-3 271 182 514l144 -108q-66 -87 -103 -188t-37 -191q0 -141 90 -219t246 -78q146 0 257.5 69.5t150.5 194.5q-31 232 -97 506l197 49l76 -381q13 -70 31.5 -105.5t40 -45.5t61.5 -10h41v-195h-51
q-121 0 -176 43q-65 -150 -211 -236t-340 -86z" />
    <glyph glyph-name="uniFDFC" unicode="&#xfdfc;" horiz-adv-x="2529" arabic-form="isolated" 
d="M545 -442q-100 0 -183 27.5t-145.5 83t-97.5 146t-35 208.5q0 278 182 516l144 -111q-140 -188 -140 -381q0 -142 83.5 -218.5t224.5 -76.5q223 0 313 176q33 320 33 830v628h178v-622q0 -416 -18.5 -633.5t-61.5 -314.5q-54 -119 -182.5 -188.5t-294.5 -69.5zM1206 -268
q0 48 35 84.5t82 36.5t80 -36.5t33 -84.5q0 -45 -33.5 -81t-79.5 -36q-47 0 -82 36t-35 81zM1296 727v659h179v-661q0 -318 8 -406q6 -66 38.5 -95t104.5 -29h141q13 137 13 299v135h180v-135q0 -304 -31 -494h-348q-247 0 -272 236q-13 130 -13 491zM1497 -268
q0 48 33 84.5t78 36.5q49 0 83.5 -36.5t34.5 -84.5q0 -45 -35 -81t-83 -36q-45 0 -78 36t-33 81zM1757 -430q120 61 213.5 127t152 130t93 121.5t51.5 114.5q-15 169 -123 449l178 66q56 -150 87.5 -263.5t31.5 -210.5q0 -200 -149.5 -376.5t-431.5 -319.5z" />
    <glyph glyph-name=".notdef" horiz-adv-x="1228" 
 />
    <glyph glyph-name=".null" 
 />
    <glyph glyph-name="nonmarkingreturn" horiz-adv-x="682" 
 />
    <glyph glyph-name="space" unicode=" " horiz-adv-x="409" 
 />
    <glyph glyph-name="exclam" unicode="!" horiz-adv-x="528" 
d="M195 352q-3 53 -12 156t-14 188.5t-5 161.5v432h201v-432q0 -76 -5 -161.5t-14 -188.5t-12 -156h-139zM143 100q0 52 34.5 87.5t86.5 35.5t86.5 -36.5t34.5 -86.5q0 -51 -34.5 -85.5t-86.5 -34.5t-86.5 34.5t-34.5 85.5z" />
    <glyph glyph-name="quotedbl" unicode="&#x22;" horiz-adv-x="657" 
d="M150 807q-48 192 -48 354q0 191 93 191q92 0 92 -193q0 -136 -47 -352h-90zM371 1161q0 191 92 191t92 -193q0 -136 -47 -352h-90q-47 188 -47 354z" />
    <glyph glyph-name="numbersign" unicode="#" horiz-adv-x="1357" 
d="M668 0l77 309h-305l-75 -309h-168l75 309h-198v144h235l101 405h-248v143h282l72 289h168l-72 -289h306l71 289h168l-72 -289h199v-143h-235l-101 -405h248v-144h-283l-77 -309h-168zM477 453h303l101 405h-303z" />
    <glyph glyph-name="dollar" unicode="$" horiz-adv-x="1007" 
d="M426 -119v150q-191 9 -344 116l49 168q64 -55 168 -91t193 -36q40 0 90 7.5t75 19.5q39 25 62.5 70t23.5 96q0 45 -22 78.5t-59.5 53t-86 34.5t-102 27.5t-106.5 27.5t-101.5 39t-86 57t-59.5 87t-22 124q0 141 86 238.5t242 120.5v153h149v-149q188 -19 289 -117
l-47 -162q-62 53 -152.5 87t-166.5 34q-42 0 -89.5 -11.5t-74.5 -31.5q-23 -25 -38 -67t-15 -82q0 -45 22 -77t59.5 -51t86 -33.5t102 -26.5t106.5 -26.5t101.5 -39t86 -58t59.5 -88.5t22 -127q0 -150 -92 -243.5t-259 -116.5v-154h-149z" />
    <glyph glyph-name="percent" unicode="%" horiz-adv-x="1298" 
d="M319 750q-125 0 -201.5 71t-76.5 211q0 131 80 206t198 75q126 0 203.5 -71t77.5 -210q0 -132 -81 -207t-200 -75zM184 1032q0 -74 37 -111.5t98 -37.5q75 0 113 35q25 48 25 114q0 71 -39 110.5t-99 39.5q-67 0 -106 -31q-29 -42 -29 -119zM215 0l688 1290h178
l-690 -1290h-176zM698 264q0 131 80.5 206t198.5 75q126 0 203 -71t77 -210q0 -132 -80.5 -207t-199.5 -75q-125 0 -202 71t-77 211zM842 264q0 -74 37 -111.5t98 -37.5q75 0 113 35q24 46 24 114q0 71 -38.5 110.5t-98.5 39.5q-68 0 -107 -31q-28 -41 -28 -119z" />
    <glyph glyph-name="ampersand" unicode="&#x26;" horiz-adv-x="1280" 
d="M586 -23q-95 0 -178 22t-150 65.5t-106 118t-39 171.5q0 121 64 210.5t185 133.5q-66 61 -101.5 126t-35.5 151q0 155 111 247.5t274 92.5q108 0 224 -37l-25 -164q-81 37 -193 37q-87 0 -149 -29q-55 -49 -55 -133q0 -71 49 -133t119 -104l294 -185v346h175v-452
l176 -111l-41 -174l-158 96q-20 -135 -146 -215t-294 -80zM301 369q0 -61 24.5 -107t66.5 -71.5t91.5 -37.5t106.5 -12q141 0 221 60q48 62 59 170l-368 229q-91 -15 -148 -55q-53 -62 -53 -176z" />
    <glyph glyph-name="quotesingle" unicode="'" horiz-adv-x="389" 
d="M150 807q-48 192 -48 354q0 191 93 191q92 0 92 -193q0 -136 -47 -352h-90z" />
    <glyph glyph-name="parenleft" unicode="(" horiz-adv-x="729" 
d="M530 -414q-223 197 -325.5 437.5t-102.5 545.5q0 307 102.5 547.5t325.5 435.5l117 -96q-348 -352 -348 -887q0 -530 348 -882z" />
    <glyph glyph-name="parenright" unicode=")" horiz-adv-x="729" 
d="M82 -313q348 352 348 882q0 535 -348 887l117 96q223 -195 325.5 -435.5t102.5 -547.5q0 -305 -102.5 -545.5t-325.5 -437.5z" />
    <glyph glyph-name="asterisk" unicode="*" horiz-adv-x="968" 
d="M313 719l-118 86l184 237l-287 86l43 138l283 -101l-8 297h147l-10 -297l284 103l46 -140l-287 -86l180 -237l-117 -86l-170 248z" />
    <glyph glyph-name="plus" unicode="+" horiz-adv-x="1140" 
d="M115 565v164h370v369h170v-369h371v-164h-371v-368h-170v368h-370z" />
    <glyph glyph-name="comma" unicode="," horiz-adv-x="425" 
d="M96 -262q105 111 105 184q0 25 -11 42t-27.5 27.5t-32.5 22.5t-27 33.5t-11 52.5q0 56 33 89.5t86 33.5q62 0 92.5 -45.5t30.5 -124.5q0 -109 -49.5 -213t-120.5 -164z" />
    <glyph glyph-name="hyphen" unicode="-" horiz-adv-x="622" 
d="M102 444v172h418v-172h-418z" />
    <glyph glyph-name="period" unicode="." horiz-adv-x="425" 
d="M213 -20q-51 0 -86 34.5t-35 85.5t35 87t86 36q52 0 86.5 -36.5t34.5 -86.5q0 -51 -34.5 -85.5t-86.5 -34.5z" />
    <glyph glyph-name="slash" unicode="/" horiz-adv-x="765" 
d="M41 -147l500 1560h184l-502 -1560h-182z" />
    <glyph glyph-name="zero" unicode="0" horiz-adv-x="1101" 
d="M551 -27q-240 0 -351.5 154.5t-111.5 511.5q0 353 115.5 515.5t349.5 162.5q240 0 350.5 -154t110.5 -508q0 -356 -115 -519t-348 -163zM297 643q0 -268 61.5 -379.5t194.5 -111.5q121 0 190 69q62 131 62 426q0 266 -61.5 379t-194.5 113q-109 0 -182 -60
q-70 -133 -70 -436z" />
    <glyph glyph-name="one" unicode="1" horiz-adv-x="679" 
d="M338 0v1069l-234 -149l-65 178l315 192h191v-1290h-207z" />
    <glyph glyph-name="two" unicode="2" horiz-adv-x="983" 
d="M70 0v166l360 377q32 33 90 90t94 95.5t60 72.5q31 81 31 143q0 86 -53 140.5t-160 54.5q-96 0 -183.5 -40t-154.5 -100l-54 170q171 148 414 148q188 0 291.5 -89.5t103.5 -256.5q0 -73 -17.5 -134t-62 -127t-96.5 -124.5t-145 -151.5l-256 -258h563v-176h-825z" />
    <glyph glyph-name="three" unicode="3" horiz-adv-x="997" 
d="M457 -27q-113 0 -203.5 30.5t-183.5 98.5l53 170q132 -120 344 -120q118 0 199 45q47 57 47 151q0 117 -74 180.5t-209 63.5h-84v166h84q163 0 236 63q30 58 30 127q0 191 -227 191q-183 0 -326 -119l-53 170q97 68 187 97.5t202 29.5q207 0 313.5 -86.5t106.5 -253.5
q0 -222 -213 -307q234 -70 234 -322q0 -177 -123 -276t-340 -99z" />
    <glyph glyph-name="four" unicode="4" horiz-adv-x="1003" 
d="M61 293v160l265 837h215l-265 -823h420v491h205v-958h-205v293h-635z" />
    <glyph glyph-name="five" unicode="5" horiz-adv-x="1009" 
d="M467 -27q-104 0 -188.5 25.5t-176.5 85.5l52 166q141 -98 325 -98q148 0 209 55q33 53 33 168q0 136 -66.5 187.5t-242.5 51.5h-267v676h723v-176h-520v-328h131q231 0 340 -95t109 -294q0 -211 -117 -317.5t-344 -106.5z" />
    <glyph glyph-name="six" unicode="6" horiz-adv-x="1042" 
d="M530 -27q-93 0 -172 31t-140 92t-95.5 161t-34.5 230q0 70 2 118.5t14.5 140t36 157.5t71.5 146.5t114 132.5t171.5 90.5t237.5 44.5l64 -172q-222 0 -343 -105t-155 -288q97 102 281 102q190 0 289.5 -108.5t99.5 -301.5q0 -222 -124 -346.5t-317 -124.5zM289 471
q0 -164 70.5 -244t181.5 -80q108 0 178 66q49 77 49 211q0 121 -58 189.5t-175 68.5q-144 0 -246 -98v-113z" />
    <glyph glyph-name="seven" unicode="7" horiz-adv-x="925" 
d="M143 0l504 1114h-618v176h841v-145l-505 -1145h-222z" />
    <glyph glyph-name="eight" unicode="8" horiz-adv-x="1093" 
d="M545 -25q-217 0 -337 109t-120 270q0 112 53 194.5t150 123.5q-170 86 -170 286q0 153 114 255t312 102q199 0 311.5 -99t112.5 -258q0 -201 -168 -286q96 -39 149.5 -124t53.5 -194q0 -159 -122.5 -269t-338.5 -110zM291 369q0 -104 67.5 -167t190.5 -63q115 0 203 58
q51 63 51 168q0 103 -67.5 163t-188.5 60q-98 0 -182 -39q-74 -67 -74 -180zM319 946q0 -97 60 -150t170 -53q113 0 182 52q41 57 41 147q0 93 -56 151t-171 58q-99 0 -172 -43q-54 -64 -54 -162z" />
    <glyph glyph-name="nine" unicode="9" horiz-adv-x="1034" 
d="M240 145q222 0 342 104.5t153 289.5q-95 -103 -270 -103q-195 0 -294 109t-99 309q0 216 122.5 339.5t315.5 123.5q208 0 322 -119t114 -360q0 -65 -1 -103.5t-6.5 -113.5t-16.5 -125.5t-33.5 -121.5t-53.5 -119.5t-80.5 -103t-111.5 -88.5t-149 -59t-191 -31zM268 862
q0 -118 59 -186t175 -68q143 0 246 99v147q0 139 -62 214t-180 75q-50 0 -104 -18.5t-83 -47.5q-51 -76 -51 -215z" />
    <glyph glyph-name="colon" unicode=":" horiz-adv-x="428" 
d="M215 557q-52 0 -87.5 35.5t-35.5 85.5q0 51 35.5 87t87.5 36q50 0 85.5 -36.5t35.5 -86.5q0 -48 -35.5 -84.5t-85.5 -36.5zM92 100q0 51 35 87t86 36q52 0 86.5 -36.5t34.5 -86.5q0 -51 -34.5 -85.5t-86.5 -34.5q-51 0 -86 34.5t-35 85.5z" />
    <glyph glyph-name="semicolon" unicode=";" horiz-adv-x="428" 
d="M215 557q-52 0 -87.5 35.5t-35.5 85.5q0 51 35.5 87t87.5 36q50 0 85.5 -36.5t35.5 -86.5q0 -48 -35.5 -84.5t-85.5 -36.5zM92 100q0 56 33 89.5t86 33.5q62 0 92.5 -45.5t30.5 -124.5q0 -109 -49.5 -213t-120.5 -164l-68 62q105 111 105 184q0 25 -11 42t-27.5 27.5
t-32.5 22.5t-27 33.5t-11 52.5z" />
    <glyph glyph-name="less" unicode="&#x3c;" horiz-adv-x="1140" 
d="M946 133l-751 442v140l751 444v-192l-551 -322l551 -319v-193z" />
    <glyph glyph-name="equal" unicode="=" horiz-adv-x="1140" 
d="M135 782v160h871v-160h-871zM135 356v160h871v-160h-871z" />
    <glyph glyph-name="greater" unicode="&#x3e;" horiz-adv-x="1140" 
d="M195 133v193l550 319l-550 322v192l751 -444v-140z" />
    <glyph glyph-name="question" unicode="?" horiz-adv-x="841" 
d="M174 352q0 73 21.5 132t56.5 97t76.5 70.5t83.5 61t77 59t56.5 74.5t21.5 98q0 99 -60 150t-165 51q-60 0 -127.5 -15t-108.5 -36l-45 161q126 62 293 62q410 0 410 -367q0 -76 -22.5 -136.5t-59 -99t-80 -70t-87 -59.5t-80 -58t-59 -74.5t-22.5 -100.5h-180zM143 100
q0 52 34.5 87.5t86.5 35.5t86.5 -36.5t34.5 -86.5q0 -51 -34.5 -85.5t-86.5 -34.5t-86.5 34.5t-34.5 85.5z" />
    <glyph glyph-name="at" unicode="@" horiz-adv-x="1931" 
d="M920 -412q-135 0 -253.5 30.5t-220.5 97t-175 164.5t-114.5 241.5t-41.5 320.5q0 404 233 637.5t641 233.5q138 0 257.5 -26t225.5 -86.5t181 -151t118.5 -227t43.5 -308.5q0 -74 -8 -141.5t-31 -137.5t-58 -121t-94 -83.5t-135 -32.5q-90 0 -155 44.5t-95 121.5
q-82 -168 -305 -168q-95 0 -165.5 29t-110 72t-63.5 104t-31 113.5t-7 111.5q0 73 11.5 137.5t41.5 128t76.5 108.5t121.5 73t171 28q131 0 228.5 -45t152.5 -106v-383q0 -211 123 -211q76 0 123 57q34 89 34 283q0 145 -34.5 259t-94 188.5t-143 123.5t-176.5 69.5
t-201 20.5q-313 0 -520 -160q-182 -202 -182 -565q0 -142 33.5 -257.5t92 -195t140.5 -133.5t176.5 -79t202.5 -25q136 0 241.5 40.5t174.5 104.5l92 -129q-79 -69 -214 -119.5t-308 -50.5zM731 440q0 -65 10 -114t33.5 -89t67 -60.5t106.5 -20.5q112 0 178 51q60 91 60 231
v240q-99 67 -211 67q-99 0 -170 -40q-74 -82 -74 -265z" />
    <glyph glyph-name="A" unicode="A" horiz-adv-x="1302" 
d="M35 0l491 1290h250l492 -1290h-219l-111 303h-576l-110 -303h-217zM426 475h448l-223 615z" />
    <glyph glyph-name="B" unicode="B" horiz-adv-x="1210" 
d="M135 0v1290h471q126 0 217 -23.5t144 -68.5t77.5 -104.5t24.5 -137.5q0 -108 -48 -177.5t-151 -110.5q240 -52 240 -303q0 -175 -115 -270t-356 -95h-504zM340 168h289q153 0 223 39q51 54 51 158q0 105 -62.5 160t-211.5 55h-289v-412zM340 741h256q153 0 221 43
q45 61 45 146q0 192 -266 192h-256v-381z" />
    <glyph glyph-name="C" unicode="C" horiz-adv-x="1202" 
d="M735 -25q-315 0 -485 161.5t-170 469.5q0 223 88.5 385.5t242 244t353.5 81.5q192 0 366 -86l-45 -172q-163 80 -313 80q-99 0 -203 -32t-166 -85q-55 -73 -84.5 -179.5t-29.5 -226.5q0 -221 115 -341.5t335 -120.5q216 0 394 94l43 -158q-177 -115 -441 -115z" />
    <glyph glyph-name="D" unicode="D" horiz-adv-x="1347" 
d="M135 0v1290h473q660 0 660 -624q0 -205 -87 -357t-240 -230.5t-353 -78.5h-453zM340 176h242q228 0 370 109q51 64 81 166t30 208q0 217 -111 336t-321 119h-291v-938z" />
    <glyph glyph-name="E" unicode="E" horiz-adv-x="1028" 
d="M135 0v1290h817v-176h-610v-391h532v-176h-532v-371h612v-176h-819z" />
    <glyph glyph-name="F" unicode="F" horiz-adv-x="1017" 
d="M135 0v1290h836v-176h-629v-434h551v-176h-551v-504h-207z" />
    <glyph glyph-name="G" unicode="G" horiz-adv-x="1312" 
d="M737 -27q-317 0 -487 161.5t-170 473.5q0 334 192 521.5t506 187.5q201 0 375 -86l-45 -172q-184 80 -336 80q-103 0 -206.5 -32t-166.5 -83q-53 -74 -82.5 -180t-29.5 -223q0 -224 116 -346.5t342 -122.5q131 0 269 41v346h-285v174h475v-623q-90 -57 -212.5 -87
t-254.5 -30z" />
    <glyph glyph-name="H" unicode="H" horiz-adv-x="1302" 
d="M958 0v545h-616v-545h-207v1290h207v-569h616v569h207v-1290h-207z" />
    <glyph glyph-name="I" unicode="I" horiz-adv-x="475" 
d="M135 0v1290h205v-1290h-205z" />
    <glyph glyph-name="J" unicode="J" horiz-adv-x="491" 
d="M-143 -154q61 4 113.5 23.5t96 56.5t68.5 99.5t25 144.5v1120h205v-1065q0 -492 -441 -553z" />
    <glyph glyph-name="K" unicode="K" horiz-adv-x="1153" 
d="M879 0l-508 647l475 643h241l-483 -635l526 -655h-251zM135 0v1290h205v-1290h-205z" />
    <glyph glyph-name="L" unicode="L" horiz-adv-x="989" 
d="M135 0v1290h207v-1114h625v-176h-832z" />
    <glyph glyph-name="M" unicode="M" horiz-adv-x="1521" 
d="M135 0v1290h279l348 -729l346 729h276v-1290h-200v1051l-344 -717h-158l-344 710v-1044h-203z" />
    <glyph glyph-name="N" unicode="N" horiz-adv-x="1310" 
d="M135 0v1290h293l547 -1046v1046h199v-1290h-289l-549 1049v-1049h-201z" />
    <glyph glyph-name="O" unicode="O" horiz-adv-x="1447" 
d="M713 -27q-133 0 -240 35.5t-179.5 96t-121.5 145t-70.5 180t-21.5 203.5q0 202 74 355t222.5 241t354.5 88q298 0 467.5 -179t169.5 -485q0 -144 -40 -265.5t-118.5 -215t-205.5 -146.5t-291 -53zM287 645q0 -98 26.5 -185.5t78 -157t135.5 -110t190 -40.5
q100 0 195.5 33.5t148.5 82.5q50 62 74 164t24 203q0 102 -27.5 192t-80.5 160t-137 111t-189 41q-96 0 -187.5 -32.5t-144.5 -78.5q-51 -64 -78.5 -171t-27.5 -212z" />
    <glyph glyph-name="P" unicode="P" horiz-adv-x="1173" 
d="M135 0v1290h455q524 0 524 -432q0 -220 -147 -342.5t-385 -122.5h-240v-393h-207zM342 567h254q156 0 248 62q65 74 65 221q0 266 -303 266h-264v-549z" />
    <glyph glyph-name="Q" unicode="Q" horiz-adv-x="1447" 
d="M1296 -385q-101 0 -217 46.5t-203.5 104t-202.5 133t-188 111.5q-405 128 -405 633q0 146 44 270t125.5 213.5t202.5 140t269 50.5q309 0 478 -179t169 -491q0 -127 -33 -236t-98 -194t-166.5 -140t-232.5 -71q293 -213 518 -213q72 0 155 37l37 -152q-101 -63 -252 -63z
M287 645q0 -78 16 -149t50.5 -133.5t84.5 -109t122 -73t159 -26.5q96 0 190.5 33t149.5 79q49 66 74.5 170t25.5 207q0 99 -28 187.5t-81 158t-138.5 110t-192.5 40.5q-91 0 -183 -32.5t-143 -78.5q-52 -63 -79 -170t-27 -213z" />
    <glyph glyph-name="R" unicode="R" horiz-adv-x="1216" 
d="M135 0v1290h486q139 0 236 -26t153 -78.5t80 -121t24 -163.5q0 -150 -79 -245t-216 -130l342 -526h-254l-307 500h-258v-500h-207zM342 676h279q149 0 229 39q55 63 55 184q0 106 -63.5 160.5t-220.5 54.5h-279v-438z" />
    <glyph glyph-name="S" unicode="S" horiz-adv-x="1101" 
d="M514 -27q-256 0 -444 123l51 187q84 -64 204 -97.5t222 -33.5q114 0 194 26q38 23 63 66.5t25 95.5q0 61 -41 102.5t-106 64.5t-143.5 42.5t-157.5 45.5t-144 63t-106 105t-41 163q0 179 132.5 285t346.5 106q108 0 216 -29.5t186 -95.5l-49 -178q-80 60 -185 92.5
t-209 32.5q-102 0 -182 -41q-24 -25 -40.5 -64.5t-16.5 -81.5q0 -47 25.5 -82t68.5 -57t99 -39t118 -32t123.5 -33t117.5 -45.5t99 -65t68.5 -96.5t25.5 -135q0 -185 -140 -289.5t-380 -104.5z" />
    <glyph glyph-name="T" unicode="T" horiz-adv-x="1083" 
d="M438 0v1112h-413v178h1036v-178h-416v-1112h-207z" />
    <glyph glyph-name="U" unicode="U" horiz-adv-x="1275" 
d="M639 -25q-243 0 -377.5 129t-134.5 408v778h203v-778q0 -193 77.5 -275.5t231.5 -82.5q171 0 242 59q65 81 65 299v778h203v-778q0 -279 -134 -408t-376 -129z" />
    <glyph glyph-name="V" unicode="V" horiz-adv-x="1280" 
d="M516 0l-481 1290h217l389 -1091l387 1091h217l-481 -1290h-248z" />
    <glyph glyph-name="W" unicode="W" horiz-adv-x="1875" 
d="M414 0l-379 1290h207l290 -1020l299 1020h213l297 -1020l295 1020h205l-383 -1290h-229l-291 989l-291 -989h-233z" />
    <glyph glyph-name="X" unicode="X" horiz-adv-x="1200" 
d="M20 0l455 674l-414 616h240l309 -469l291 469h238l-414 -616l455 -674h-244l-342 524l-328 -524h-246z" />
    <glyph glyph-name="Y" unicode="Y" horiz-adv-x="1308" 
d="M551 0v453l-516 837h233l387 -647l387 647h232l-516 -837v-453h-207z" />
    <glyph glyph-name="Z" unicode="Z" horiz-adv-x="1103" 
d="M66 0v154l694 958h-670v178h928v-153l-694 -959h714v-178h-972z" />
    <glyph glyph-name="bracketleft" unicode="[" horiz-adv-x="579" 
d="M102 -393v1933h416v-149h-239v-1635h239v-149h-416z" />
    <glyph glyph-name="backslash" unicode="\" horiz-adv-x="765" 
d="M725 -147h-182l-502 1560h184z" />
    <glyph glyph-name="bracketright" unicode="]" horiz-adv-x="579" 
d="M477 -393h-416v149h240v1635h-240v149h416v-1933z" />
    <glyph glyph-name="asciicircum" unicode="^" horiz-adv-x="1140" 
d="M182 743l316 674h143l320 -674h-181l-211 465l-209 -465h-178z" />
    <glyph glyph-name="underscore" unicode="_" horiz-adv-x="819" 
d="M0 -285v162h819v-162h-819z" />
    <glyph glyph-name="grave" unicode="`" horiz-adv-x="530" 
d="M283 946l-201 279h209l158 -279h-166z" />
    <glyph glyph-name="a" unicode="a" horiz-adv-x="858" 
d="M600 0l-20 76q-87 -101 -252 -101q-126 0 -200.5 63t-74.5 189q0 238 340 238h178v37q0 73 -41.5 106t-132.5 33q-59 0 -126 -14t-107 -35l-45 151q144 60 303 60q175 0 257.5 -76t82.5 -238v-489h-162zM244 229q0 -98 129 -98q57 0 111 23t87 59v106h-178
q-90 0 -131 -14q-18 -35 -18 -76z" />
    <glyph glyph-name="b" unicode="b" horiz-adv-x="960" 
d="M494 -27q-195 0 -296.5 105t-101.5 295v958h195v-602q93 74 235 74q178 0 277.5 -107.5t99.5 -292.5q0 -196 -109.5 -313t-299.5 -117zM291 365q0 -98 53 -163t152 -65q118 0 172 51q32 58 32 199q0 114 -52 184t-154 70q-46 0 -108 -20t-95 -50v-206z" />
    <glyph glyph-name="c" unicode="c" horiz-adv-x="780" 
d="M481 -27q-199 0 -311.5 103t-112.5 297q0 192 127 311t320 119q116 0 227 -51l-49 -168q-31 20 -81 37.5t-101 17.5q-44 0 -101 -17t-92 -44q-49 -71 -49 -199q0 -115 63.5 -177.5t178.5 -62.5q125 0 219 58l41 -148q-109 -76 -279 -76z" />
    <glyph glyph-name="d" unicode="d" horiz-adv-x="942" 
d="M414 -27q-167 0 -262 111.5t-95 292.5q0 198 124.5 312t320.5 114q69 0 137 -21v549h195v-1331h-168l-23 74q-30 -44 -90 -72.5t-139 -28.5zM258 385q0 -108 54.5 -178t152.5 -70q101 0 174 80v391q-60 33 -131 33q-59 0 -116 -16t-91 -45q-18 -33 -30.5 -88.5
t-12.5 -106.5z" />
    <glyph glyph-name="e" unicode="e" horiz-adv-x="878" 
d="M471 -27q-190 0 -302 102t-112 300q0 190 105.5 309t288.5 119q87 0 155 -25t110 -69t69 -104.5t32.5 -132t-0.5 -150.5h-569q2 -82 66 -134.5t180 -52.5q123 0 231 64l41 -150q-120 -76 -295 -76zM248 469h389q-6 84 -56.5 129t-131.5 45q-105 0 -164 -59
q-34 -61 -37 -115z" />
    <glyph glyph-name="f" unicode="f" horiz-adv-x="628" 
d="M176 1028q0 152 83.5 238t234.5 86q100 0 180 -41l-45 -162q-64 37 -131 37q-72 0 -105 -17q-22 -36 -22 -137v-254h243v-157h-243v-621h-195v621h-131v157h131v250z" />
    <glyph glyph-name="g" unicode="g" horiz-adv-x="935" 
d="M418 -412q-162 0 -297 74l49 172q115 -80 262 -80q107 0 170 53q43 65 43 236v45q-87 -84 -235 -84q-165 0 -259 101t-94 282q0 194 110 305t294 111q379 0 379 -418v-354q0 -236 -109 -339.5t-313 -103.5zM256 399q0 -109 51.5 -172t141.5 -63q53 0 106 22.5t90 59.5
v147q0 129 -51.5 188.5t-132.5 59.5q-90 0 -154 -43q-24 -33 -37.5 -88t-13.5 -111z" />
    <glyph glyph-name="h" unicode="h" horiz-adv-x="931" 
d="M641 444q0 88 -35.5 142.5t-116.5 54.5q-48 0 -98.5 -29t-87.5 -71v-541h-194v1331h194v-633q91 105 242 105q148 0 219.5 -87t71.5 -239v-477h-195v444z" />
    <glyph glyph-name="i" unicode="i" horiz-adv-x="411" 
d="M109 0v778h194v-778h-194zM84 1087q0 50 35.5 85.5t87.5 35.5q53 0 88 -35.5t35 -85.5t-35 -85t-88 -35q-52 0 -87.5 35t-35.5 85z" />
    <glyph glyph-name="j" unicode="j" horiz-adv-x="411" 
d="M-96 -244q89 7 147 72t58 195v755h194v-702q0 -428 -338 -486zM84 1087q0 50 35.5 85.5t87.5 35.5q53 0 88 -35.5t35 -85.5t-35 -85t-88 -35q-52 0 -87.5 35t-35.5 85z" />
    <glyph glyph-name="k" unicode="k" horiz-adv-x="858" 
d="M614 0l-280 414l258 360h233l-280 -360l301 -414h-232zM109 0v1331h194v-1331h-194z" />
    <glyph glyph-name="l" unicode="l" horiz-adv-x="411" 
d="M109 0v1331h194v-1331h-194z" />
    <glyph glyph-name="m" unicode="m" horiz-adv-x="1409" 
d="M1116 446q0 195 -137 195q-97 0 -174 -100q2 -18 2 -60v-481h-195v446q0 195 -135 195q-47 0 -93.5 -25.5t-80.5 -66.5v-549h-194v778h167l19 -90q83 115 235 115q181 0 240 -115q112 115 262 115q147 0 213 -88.5t66 -237.5v-477h-195v446z" />
    <glyph glyph-name="n" unicode="n" horiz-adv-x="931" 
d="M641 444q0 87 -34 142t-109 55q-52 0 -105 -29t-90 -71v-541h-194v778h167l19 -90q93 115 250 115q148 0 219.5 -87t71.5 -239v-477h-195v444z" />
    <glyph glyph-name="o" unicode="o" horiz-adv-x="925" 
d="M461 -27q-194 0 -299 110.5t-105 303.5q0 185 110.5 300.5t295.5 115.5q193 0 298 -109.5t105 -304.5q0 -187 -109 -301.5t-296 -114.5zM258 391q0 -108 52 -180t153 -72q49 0 96 14.5t72 39.5q37 54 37 192q0 109 -54 182.5t-153 73.5q-109 0 -160 -51q-43 -58 -43 -199
z" />
    <glyph glyph-name="p" unicode="p" horiz-adv-x="944" 
d="M446 -25q-65 0 -143 19v-379h-194v1163h167l21 -76q31 45 89 73t132 28q174 0 270.5 -111t96.5 -291q0 -197 -122 -311.5t-317 -114.5zM303 166q60 -29 131 -29q58 0 114 16.5t91 45.5q20 34 33.5 88t13.5 106q0 109 -55 178.5t-154 69.5q-93 0 -174 -84v-391z" />
    <glyph glyph-name="q" unicode="q" horiz-adv-x="960" 
d="M670 414q0 97 -53 162t-152 65q-118 0 -172 -51q-33 -56 -33 -201q0 -113 52.5 -182.5t154.5 -69.5q46 0 108 20t95 50v207zM57 375q0 196 109 312t301 116q106 0 185 -31.5t124 -87.5t66.5 -125.5t21.5 -152.5v-791h-194v430q-94 -72 -230 -72q-182 0 -282.5 108
t-100.5 294z" />
    <glyph glyph-name="r" unicode="r" horiz-adv-x="659" 
d="M109 0v778h167l21 -94q79 119 219 119q79 0 143 -43l-53 -180q-71 51 -129 51q-53 0 -98.5 -29.5t-75.5 -75.5v-526h-194z" />
    <glyph glyph-name="s" unicode="s" horiz-adv-x="745" 
d="M356 -25q-180 0 -311 76l49 168q52 -43 128 -63.5t149 -20.5q70 0 123 17q20 27 20 57q0 24 -19 41.5t-50.5 27t-71.5 20t-82 19.5t-82 27t-71.5 41t-50.5 62.5t-19 91.5q0 87 44.5 148t115 88.5t159.5 27.5q182 0 285 -78l-47 -162q-52 39 -119.5 61.5t-128.5 22.5
t-113 -22q-14 -25 -14 -52q0 -29 25 -48.5t64.5 -30t87.5 -20.5t96 -26t87.5 -39t64.5 -66t25 -103q0 -70 -28.5 -122.5t-78 -83t-109 -45t-128.5 -14.5z" />
    <glyph glyph-name="t" unicode="t" horiz-adv-x="684" 
d="M446 -27q-134 0 -202 77t-68 210v361h-135v157h135v273h193v-273h247v-157h-247v-345q0 -65 33 -101t98 -36q59 0 110 29l33 -152q-69 -43 -197 -43z" />
    <glyph glyph-name="u" unicode="u" horiz-adv-x="929" 
d="M387 -27q-143 0 -217 88.5t-74 235.5v481h195v-452q0 -80 35.5 -133.5t113.5 -53.5q49 0 99.5 24.5t87.5 59.5v555h194v-778h-166l-20 80q-44 -52 -109 -79.5t-139 -27.5z" />
    <glyph glyph-name="v" unicode="v" horiz-adv-x="882" 
d="M334 0l-320 778h217l215 -571l213 571h209l-325 -778h-209z" />
    <glyph glyph-name="w" unicode="w" horiz-adv-x="1406" 
d="M311 0l-297 778h209l193 -577l192 577h195l192 -577l193 577h205l-297 -778h-205l-189 555l-188 -555h-203z" />
    <glyph glyph-name="x" unicode="x" horiz-adv-x="870" 
d="M12 0l301 412l-268 366h227l164 -250l162 250h225l-270 -366l303 -412h-227l-195 295l-194 -295h-228z" />
    <glyph glyph-name="y" unicode="y" horiz-adv-x="929" 
d="M399 -412q-163 0 -295 74l50 170q115 -76 249 -76q115 0 175 47q29 42 38 101t11 194q-89 -96 -236 -96q-146 0 -220.5 86.5t-74.5 241.5v448h195v-428q0 -94 40 -141t107 -47q51 0 102.5 24.5t86.5 57.5v534h194v-758q0 -80 -16.5 -145t-42.5 -109t-63 -77.5t-74.5 -52
t-80.5 -30t-76.5 -15t-68.5 -3.5z" />
    <glyph glyph-name="z" unicode="z" horiz-adv-x="778" 
d="M68 0v145l401 476h-395v157h626v-145l-401 -475h410v-158h-641z" />
    <glyph glyph-name="braceleft" unicode="{" horiz-adv-x="813" 
d="M653 -393q-159 0 -244 100t-85 291v209q0 149 -49.5 229t-145.5 80h-47v152h47q96 0 145.5 80.5t49.5 228.5v172q0 192 83 291.5t246 99.5h99v-149h-78q-182 0 -182 -287v-166q0 -259 -170 -346q170 -81 170 -346v-203q0 -287 182 -287h78v-149h-99z" />
    <glyph glyph-name="bar" unicode="|" horiz-adv-x="514" 
d="M164 -475v1974h186v-1974h-186z" />
    <glyph glyph-name="braceright" unicode="}" horiz-adv-x="813" 
d="M160 -393h-99v149h78q183 0 183 287v203q0 265 170 346q-170 87 -170 346v166q0 287 -183 287h-78v149h99q163 0 246 -99.5t83 -291.5v-172q0 -148 49.5 -228.5t145.5 -80.5h47v-152h-47q-96 0 -145.5 -80t-49.5 -229v-209q0 -191 -85 -291t-244 -100z" />
    <glyph glyph-name="asciitilde" unicode="~" horiz-adv-x="1140" 
d="M786 397q-63 0 -117.5 20t-92.5 48.5t-72.5 57.5t-71.5 49t-74 20q-60 0 -89 -50.5t-29 -129.5h-150q0 158 69.5 239.5t194.5 81.5q64 0 119 -20t93 -48.5t71.5 -57t69.5 -48.5t73 -20q119 0 119 180h150q0 -158 -69 -240t-194 -82z" />
    <glyph glyph-name="uni00A0" unicode="&#xa0;" horiz-adv-x="385" 
 />
    <glyph glyph-name="exclamdown" unicode="&#xa1;" horiz-adv-x="528" 
d="M334 426q3 -53 12 -156t14 -188.5t5 -161.5v-432h-201v432q0 76 5 161.5t14 188.5t12 156h139zM143 678q0 51 34.5 86t86.5 35t86.5 -35t34.5 -86q0 -52 -34.5 -87.5t-86.5 -35.5t-86.5 36.5t-34.5 86.5z" />
    <glyph glyph-name="cent" unicode="&#xa2;" horiz-adv-x="931" 
d="M494 0v166q-107 13 -184.5 55.5t-122 108.5t-65 144t-20.5 173q0 91 20.5 167.5t64.5 143t122 110t185 56.5v166h149v-162q106 -6 188 -41l-26 -167q-110 45 -217 45q-57 0 -130.5 -17t-107.5 -45q-33 -33 -49 -109t-16 -141q0 -81 14.5 -139t49 -101.5t95.5 -65
t150 -21.5q128 0 231 41l25 -168q-101 -34 -207 -37v-162h-149z" />
    <glyph glyph-name="sterling" unicode="&#xa3;" horiz-adv-x="1038" 
d="M82 158q154 27 154 280v123h-154v144h154v75q0 287 90 412t297 125q160 0 288 -74l-43 -156q-107 58 -225 58q-95 0 -168 -49q-43 -74 -43 -252v-139h324v-144h-324v-121q0 -187 -82 -286q47 14 178 14h408v-168h-854v158z" />
    <glyph glyph-name="currency" unicode="&#xa4;" horiz-adv-x="1304" 
d="M653 342q-75 0 -151 37l-269 -270l-118 118l264 262q-51 73 -51 158q0 84 49 158l-260 260l116 119l269 -269q76 37 151 37q76 0 152 -37l266 269l119 -119l-262 -260q51 -73 51 -158q0 -87 -51 -160l262 -258l-119 -120l-268 270q-72 -37 -150 -37zM483 647
q0 -72 49.5 -121t120.5 -49t120.5 49t49.5 121q0 71 -49.5 120.5t-120.5 49.5t-120.5 -49.5t-49.5 -120.5z" />
    <glyph glyph-name="yen" unicode="&#xa5;" horiz-adv-x="1216" 
d="M512 0v150h-334v141h334v127h-334v141h291l-434 731h221l352 -618l353 618h221l-437 -731h293v-141h-331v-127h331v-141h-331v-150h-195z" />
    <glyph glyph-name="brokenbar" unicode="&#xa6;" horiz-adv-x="514" 
d="M164 -475v831h186v-831h-186zM164 711v788h186v-788h-186z" />
    <glyph glyph-name="section" unicode="&#xa7;" horiz-adv-x="985" 
d="M471 -412q-116 0 -220.5 34t-178.5 87l49 170q69 -62 170 -94.5t186 -32.5q87 0 166 27q74 69 74 158q0 58 -35 98t-91 62t-123.5 40.5t-135.5 41t-124 54t-91 89.5t-35 139q0 149 119 256q-119 80 -119 233q0 169 120.5 268t317.5 99q97 0 193.5 -27.5t163.5 -91.5
l-48 -166q-161 121 -321 121q-94 0 -182 -35q-21 -22 -36.5 -60.5t-15.5 -78.5q0 -50 27.5 -86t73 -55t103.5 -36.5t118 -30.5t118 -38.5t103.5 -59t73 -93t27.5 -138.5q0 -156 -111 -252q106 -82 106 -233q0 -118 -60.5 -203t-159 -125.5t-222.5 -40.5zM272 504
q0 -41 17.5 -73t44 -51.5t70 -37t81 -27.5t92.5 -25t91 -28q57 57 57 141q0 44 -17.5 78.5t-41.5 55.5t-68 40t-78 29t-92 25.5t-90 25.5q-66 -70 -66 -153z" />
    <glyph glyph-name="dieresis" unicode="&#xa8;" horiz-adv-x="751" 
d="M203 967q-51 0 -86 35t-35 85q0 51 35 86t86 35t86 -35t35 -86q0 -50 -35 -85t-86 -35zM426 1087q0 51 36 86t87 35t86 -35t35 -86q0 -50 -35 -85t-86 -35t-87 35t-36 85z" />
    <glyph glyph-name="copyright" unicode="&#xa9;" horiz-adv-x="1705" 
d="M854 -82q-201 0 -368.5 97.5t-263 263t-95.5 360.5q0 196 95.5 362.5t263 264.5t368.5 98t368 -98t262 -264.5t95 -362.5q0 -195 -95.5 -360.5t-262.5 -263t-367 -97.5zM242 639q0 -164 79.5 -303t221 -221t311.5 -82t310.5 81.5t220 220.5t79.5 304q0 166 -79.5 306
t-220 222t-310.5 82q-128 0 -242 -48.5t-195 -130.5t-128 -194.5t-47 -236.5zM487 633q0 190 101 304t297 114q116 0 213 -43l-23 -146q-100 43 -188 43q-119 0 -189 -53q-47 -79 -47 -213q0 -131 59 -197.5t189 -66.5q108 0 195 41l18 -146q-84 -41 -221 -41
q-200 0 -302 104.5t-102 299.5z" />
    <glyph glyph-name="ordfeminine" unicode="&#xaa;" horiz-adv-x="645" 
d="M424 766l-14 51q-56 -65 -170 -65q-82 0 -134.5 42t-52.5 124q0 165 238 165h112v23q0 47 -25.5 68.5t-82.5 21.5q-97 0 -168 -33l-29 107q97 41 219 41q118 0 175 -52t57 -161v-332h-125zM199 922q0 -62 77 -62q36 0 71.5 15t55.5 38v70h-112q-52 0 -76 -8
q-16 -26 -16 -53z" />
    <glyph glyph-name="guillemotleft" unicode="&#xab;" horiz-adv-x="892" 
d="M274 242l-213 270l213 270h205l-213 -270l213 -270h-205zM395 512l213 270h205l-213 -270l213 -270h-205z" />
    <glyph glyph-name="logicalnot" unicode="&#xac;" horiz-adv-x="1140" 
d="M864 399v365h-753v158h921v-523h-168z" />
    <glyph glyph-name="uni00AD" unicode="&#xad;" horiz-adv-x="622" 
d="M102 444v172h418v-172h-418z" />
    <glyph glyph-name="registered" unicode="&#xae;" horiz-adv-x="1705" 
d="M854 -82q-201 0 -368.5 97.5t-263 263t-95.5 360.5q0 196 95.5 362.5t263 264.5t368.5 98t368 -98t262 -264.5t95 -362.5q0 -195 -95.5 -360.5t-262.5 -263t-367 -97.5zM242 639q0 -164 79.5 -303t221 -221t311.5 -82t310.5 81.5t220 220.5t79.5 304q0 166 -79.5 306
t-220 222t-310.5 82q-128 0 -242 -48.5t-195 -130.5t-128 -194.5t-47 -236.5zM571 242v796h301q134 0 213.5 -56.5t79.5 -178.5q0 -87 -43.5 -148t-126.5 -82l195 -331h-172l-172 315h-117v-315h-158zM729 688h139q79 0 121 27q21 31 21 84q0 106 -142 106h-139v-217z" />
    <glyph glyph-name="macron" unicode="&#xaf;" horiz-adv-x="684" 
d="M82 1006v149h520v-149h-520z" />
    <glyph glyph-name="degree" unicode="&#xb0;" horiz-adv-x="804" 
d="M401 721q-130 0 -215.5 85.5t-85.5 213.5q0 125 87 211t214 86q129 0 216.5 -86t87.5 -211q0 -126 -87.5 -212.5t-216.5 -86.5zM242 1020q0 -71 45.5 -117.5t115.5 -46.5q66 0 113 49t47 115q0 67 -45.5 115.5t-114.5 48.5q-71 0 -116 -47t-45 -117z" />
    <glyph glyph-name="plusminus" unicode="&#xb1;" horiz-adv-x="1140" 
d="M485 307v383h-370v160h370v371h170v-371h371v-160h-371v-383h-170zM115 66v159h911v-159h-911z" />
    <glyph glyph-name="uni00B2" unicode="&#xb2;" horiz-adv-x="559" 
d="M70 774v103l174 124q92 66 92 127q0 68 -78 68q-72 0 -145 -49l-37 106q100 62 207 62q92 0 145 -45t53 -121q0 -63 -30.5 -111t-98.5 -94l-88 -59h223v-111h-417z" />
    <glyph glyph-name="uni00B3" unicode="&#xb3;" horiz-adv-x="522" 
d="M240 754q-126 0 -207 51l28 100q88 -45 170 -45q91 0 91 64q0 31 -27.5 48t-71.5 17h-55v103h55q92 0 92 61q0 26 -21 37.5t-67 11.5q-82 0 -155 -39l-29 101q89 47 195 47q221 0 221 -137q0 -95 -115 -130q125 -24 125 -124q0 -73 -63 -119.5t-166 -46.5z" />
    <glyph glyph-name="acute" unicode="&#xb4;" horiz-adv-x="540" 
d="M82 946l162 279h215l-205 -279h-172z" />
    <glyph glyph-name="uni00B5" unicode="&#xb5;" horiz-adv-x="1003" 
d="M102 -385v1163h195v-456q0 -76 35.5 -129.5t109.5 -53.5q51 0 101.5 24.5t89.5 61.5v553h192v-559q0 -44 10 -62t33 -18q27 0 62 21l33 -144q-52 -41 -140 -41q-128 0 -170 109q-71 -109 -219 -109q-92 0 -143 45v-405h-189z" />
    <glyph glyph-name="paragraph" unicode="&#xb6;" horiz-adv-x="1093" 
d="M436 -176v713q-171 1 -275 111t-104 272q0 173 104.5 271.5t299.5 98.5h495v-1466h-165v1329h-189v-1329h-166z" />
    <glyph glyph-name="periodcentered" unicode="&#xb7;" horiz-adv-x="425" 
d="M213 504q-51 0 -86 35t-35 86t35 87t86 36q52 0 86.5 -36.5t34.5 -86.5t-34.5 -85.5t-86.5 -35.5z" />
    <glyph glyph-name="cedilla" unicode="&#xb8;" horiz-adv-x="516" 
d="M217 -401q-65 0 -135 24l18 107q31 -14 75 -18.5t82 10.5t38 53q0 63 -102 63h-76l53 213h121l-33 -133q75 2 125.5 -32t50.5 -111q0 -87 -62.5 -131.5t-154.5 -44.5z" />
    <glyph glyph-name="uni00B9" unicode="&#xb9;" horiz-adv-x="505" 
d="M70 774v111h123v270l-117 -47l-27 109l170 73h117v-405h104v-111h-370z" />
    <glyph glyph-name="ordmasculine" unicode="&#xba;" horiz-adv-x="698" 
d="M348 752q-140 0 -215.5 74t-75.5 204q0 125 80 203t213 78q140 0 215.5 -74.5t75.5 -206.5q0 -125 -79 -201.5t-214 -76.5zM211 1032q0 -65 35 -108t104 -43q79 0 113 34q26 39 26 113q0 67 -36 110.5t-105 43.5q-77 0 -106 -33q-31 -50 -31 -117z" />
    <glyph glyph-name="guillemotright" unicode="&#xbb;" horiz-adv-x="892" 
d="M285 242h-205l213 270l-213 270h205l213 -270zM414 242l213 270l-213 270h204l213 -270l-213 -270h-204z" />
    <glyph glyph-name="onequarter" unicode="&#xbc;" horiz-adv-x="1282" 
d="M70 774v111h123v270l-117 -47l-27 109l170 73h117v-405h104v-111h-370zM190 0l689 1290h178l-690 -1290h-177zM756 109v92l121 315h145l-117 -301h133v172h140v-387h-140v109h-282z" />
    <glyph glyph-name="onehalf" unicode="&#xbd;" horiz-adv-x="1273" 
d="M70 774v111h123v270l-117 -47l-27 109l170 73h117v-405h104v-111h-370zM190 0l689 1290h178l-690 -1290h-177zM784 0v102l174 125q93 67 93 127q0 68 -78 68q-73 0 -146 -49l-36 106q100 62 206 62q92 0 145.5 -45.5t53.5 -120.5q0 -63 -30.5 -111t-98.5 -94l-88 -59h223
v-111h-418z" />
    <glyph glyph-name="threequarters" unicode="&#xbe;" horiz-adv-x="1298" 
d="M240 754q-126 0 -207 51l28 100q88 -45 170 -45q91 0 91 64q0 31 -27.5 48t-71.5 17h-55v103h55q92 0 92 61q0 26 -21 37.5t-67 11.5q-82 0 -155 -39l-29 101q89 47 195 47q221 0 221 -137q0 -95 -115 -130q125 -24 125 -124q0 -73 -63 -119.5t-166 -46.5zM207 0
l688 1290h178l-690 -1290h-176zM772 109v92l121 315h145l-116 -301h133v172h139v-387h-139v109h-283z" />
    <glyph glyph-name="questiondown" unicode="&#xbf;" horiz-adv-x="841" 
d="M668 426q0 -73 -21.5 -132t-56.5 -97t-77 -70.5t-84 -61t-77 -59t-56.5 -74.5t-21.5 -98q0 -99 60 -150t166 -51q59 0 126 15.5t109 36.5l45 -162q-126 -62 -293 -62q-202 0 -305.5 89.5t-103.5 277.5q0 76 22.5 136.5t58.5 99t80 70t87.5 59.5t79.5 58t58.5 74.5
t22.5 100.5h181zM457 678q0 51 34.5 86t86.5 35t86 -35t34 -86q0 -52 -34 -87.5t-86 -35.5t-86.5 36.5t-34.5 86.5z" />
    <glyph glyph-name="Agrave" unicode="&#xc0;" horiz-adv-x="1302" 
d="M35 0l491 1290h250l492 -1290h-219l-111 303h-576l-110 -303h-217zM383 1679h209l158 -278h-166zM426 475h448l-223 615z" />
    <glyph glyph-name="Aacute" unicode="&#xc1;" horiz-adv-x="1302" 
d="M35 0l491 1290h250l492 -1290h-219l-111 303h-576l-110 -303h-217zM426 475h448l-223 615zM565 1401l162 278h215l-205 -278h-172z" />
    <glyph glyph-name="Acircumflex" unicode="&#xc2;" horiz-adv-x="1302" 
d="M35 0l491 1290h250l492 -1290h-219l-111 303h-576l-110 -303h-217zM377 1401l178 278h193l178 -278h-168l-105 168l-108 -168h-168zM426 475h448l-223 615z" />
    <glyph glyph-name="Atilde" unicode="&#xc3;" horiz-adv-x="1302" 
d="M35 0l491 1290h250l492 -1290h-219l-111 303h-576l-110 -303h-217zM352 1401q0 112 46.5 171.5t133.5 59.5q38 0 75 -17.5t60.5 -38.5t49.5 -38.5t45 -17.5q57 0 57 98h131q0 -112 -47.5 -172t-132.5 -60q-38 0 -75 17.5t-60.5 39t-49.5 39t-44 17.5q-58 0 -58 -98h-131z
M426 475h448l-223 615z" />
    <glyph glyph-name="Adieresis" unicode="&#xc4;" horiz-adv-x="1302" 
d="M35 0l491 1290h250l492 -1290h-219l-111 303h-576l-110 -303h-217zM354 1542q0 48 35.5 83.5t85.5 35.5q51 0 87 -35.5t36 -83.5q0 -50 -36 -85.5t-87 -35.5t-86 35.5t-35 85.5zM426 475h448l-223 615zM705 1542q0 48 35 83.5t85 35.5t85.5 -35.5t35.5 -83.5
q0 -50 -35 -85.5t-86 -35.5t-85.5 35.5t-34.5 85.5z" />
    <glyph glyph-name="Aring" unicode="&#xc5;" horiz-adv-x="1302" 
d="M35 0l491 1290h250l492 -1290h-219l-111 303h-576l-110 -303h-217zM426 475h448l-223 615zM449 1552q0 90 56.5 142.5t143.5 52.5q90 0 147.5 -52.5t57.5 -142.5q0 -88 -57.5 -140t-147.5 -52q-87 0 -143.5 52.5t-56.5 139.5zM563 1552q0 -37 23.5 -62.5t62.5 -25.5
q40 0 64 25.5t24 62.5q0 40 -23.5 65t-64.5 25q-39 0 -62.5 -25t-23.5 -65z" />
    <glyph glyph-name="AE" unicode="&#xc6;" horiz-adv-x="1783" 
d="M35 0l749 1290h926v-176h-610v-391h532v-176h-532v-371h612v-176h-819v309h-465l-176 -309h-217zM522 475h371v653z" />
    <glyph glyph-name="Ccedilla" unicode="&#xc7;" horiz-adv-x="1202" 
d="M725 -401q-65 0 -135 24l18 107q31 -14 75 -18.5t82 10.5t38 53q0 33 -29 48t-74 15h-75l34 139q-279 20 -429 180.5t-150 448.5q0 223 88.5 385.5t242 244t353.5 81.5q192 0 366 -86l-45 -172q-163 80 -313 80q-99 0 -203 -32t-166 -85q-55 -73 -84.5 -179.5
t-29.5 -226.5q0 -221 115 -341.5t335 -120.5q216 0 394 94l43 -158q-162 -105 -396 -115l-14 -57q75 2 125.5 -32t50.5 -111q0 -87 -62.5 -131.5t-154.5 -44.5z" />
    <glyph glyph-name="Egrave" unicode="&#xc8;" horiz-adv-x="1028" 
d="M135 0v1290h817v-176h-610v-391h532v-176h-532v-371h612v-176h-819zM276 1679h209l158 -278h-166z" />
    <glyph glyph-name="Eacute" unicode="&#xc9;" horiz-adv-x="1028" 
d="M135 0v1290h817v-176h-610v-391h532v-176h-532v-371h612v-176h-819zM459 1401l162 278h215l-205 -278h-172z" />
    <glyph glyph-name="Ecircumflex" unicode="&#xca;" horiz-adv-x="1028" 
d="M135 0v1290h817v-176h-610v-391h532v-176h-532v-371h612v-176h-819zM270 1401l179 278h192l178 -278h-168l-104 168l-109 -168h-168z" />
    <glyph glyph-name="Edieresis" unicode="&#xcb;" horiz-adv-x="1028" 
d="M135 0v1290h817v-176h-610v-391h532v-176h-532v-371h612v-176h-819zM248 1542q0 48 35.5 83.5t85.5 35.5q51 0 87 -35.5t36 -83.5q0 -50 -36 -85.5t-87 -35.5t-86 35.5t-35 85.5zM598 1542q0 48 35.5 83.5t85.5 35.5t85.5 -35.5t35.5 -83.5q0 -50 -35 -85.5t-86 -35.5
t-86 35.5t-35 85.5z" />
    <glyph glyph-name="Igrave" unicode="&#xcc;" horiz-adv-x="475" 
d="M135 0v1290h205v-1290h-205zM-31 1679h209l158 -278h-166z" />
    <glyph glyph-name="Iacute" unicode="&#xcd;" horiz-adv-x="475" 
d="M135 0v1290h205v-1290h-205zM152 1401l161 278h215l-204 -278h-172z" />
    <glyph glyph-name="Icircumflex" unicode="&#xce;" horiz-adv-x="475" 
d="M135 0v1290h205v-1290h-205zM-37 1401l178 278h193l178 -278h-168l-104 168l-109 -168h-168z" />
    <glyph glyph-name="Idieresis" unicode="&#xcf;" horiz-adv-x="475" 
d="M135 0v1290h205v-1290h-205zM-57 1542q0 48 35 83.5t85 35.5q51 0 87 -35.5t36 -83.5q0 -50 -36 -85.5t-87 -35.5t-85.5 35.5t-34.5 85.5zM293 1542q0 48 35.5 83.5t85.5 35.5t85.5 -35.5t35.5 -83.5q0 -50 -35 -85.5t-86 -35.5t-86 35.5t-35 85.5z" />
    <glyph glyph-name="Eth" unicode="&#xd0;" horiz-adv-x="1409" 
d="M197 0v565h-181v158h181v567h473q659 0 659 -624q0 -205 -87 -357t-240 -230.5t-353 -78.5h-452zM401 176h242q229 0 371 109q51 64 80.5 165.5t29.5 208.5q0 217 -111 336t-321 119h-291v-391h320v-158h-320v-389z" />
    <glyph glyph-name="Ntilde" unicode="&#xd1;" horiz-adv-x="1310" 
d="M135 0v1290h293l547 -1046v1046h199v-1290h-289l-549 1049v-1049h-201zM354 1401q0 112 47 171.5t134 59.5q38 0 75 -17.5t60 -38.5t49 -38.5t45 -17.5q57 0 57 98h131q0 -112 -47.5 -172t-132.5 -60q-38 0 -75 17.5t-60.5 39t-49.5 39t-44 17.5q-58 0 -58 -98h-131z" />
    <glyph glyph-name="Ograve" unicode="&#xd2;" horiz-adv-x="1447" 
d="M713 -27q-133 0 -240 35.5t-179.5 96t-121.5 145t-70.5 180t-21.5 203.5q0 202 74 355t222.5 241t354.5 88q298 0 467.5 -179t169.5 -485q0 -144 -40 -265.5t-118.5 -215t-205.5 -146.5t-291 -53zM287 645q0 -98 26.5 -185.5t78 -157t135.5 -110t190 -40.5
q100 0 195.5 33.5t148.5 82.5q50 62 74 164t24 203q0 102 -27.5 192t-80.5 160t-137 111t-189 41q-96 0 -187.5 -32.5t-144.5 -78.5q-51 -64 -78.5 -171t-27.5 -212zM457 1679h209l157 -278h-166z" />
    <glyph glyph-name="Oacute" unicode="&#xd3;" horiz-adv-x="1447" 
d="M713 -27q-133 0 -240 35.5t-179.5 96t-121.5 145t-70.5 180t-21.5 203.5q0 202 74 355t222.5 241t354.5 88q298 0 467.5 -179t169.5 -485q0 -144 -40 -265.5t-118.5 -215t-205.5 -146.5t-291 -53zM287 645q0 -98 26.5 -185.5t78 -157t135.5 -110t190 -40.5
q100 0 195.5 33.5t148.5 82.5q50 62 74 164t24 203q0 102 -27.5 192t-80.5 160t-137 111t-189 41q-96 0 -187.5 -32.5t-144.5 -78.5q-51 -64 -78.5 -171t-27.5 -212zM639 1401l162 278h215l-205 -278h-172z" />
    <glyph glyph-name="Ocircumflex" unicode="&#xd4;" horiz-adv-x="1447" 
d="M713 -27q-133 0 -240 35.5t-179.5 96t-121.5 145t-70.5 180t-21.5 203.5q0 202 74 355t222.5 241t354.5 88q298 0 467.5 -179t169.5 -485q0 -144 -40 -265.5t-118.5 -215t-205.5 -146.5t-291 -53zM287 645q0 -98 26.5 -185.5t78 -157t135.5 -110t190 -40.5
q100 0 195.5 33.5t148.5 82.5q50 62 74 164t24 203q0 102 -27.5 192t-80.5 160t-137 111t-189 41q-96 0 -187.5 -32.5t-144.5 -78.5q-51 -64 -78.5 -171t-27.5 -212zM451 1401l178 278h192l178 -278h-168l-104 168l-109 -168h-167z" />
    <glyph glyph-name="Otilde" unicode="&#xd5;" horiz-adv-x="1447" 
d="M713 -27q-133 0 -240 35.5t-179.5 96t-121.5 145t-70.5 180t-21.5 203.5q0 202 74 355t222.5 241t354.5 88q298 0 467.5 -179t169.5 -485q0 -144 -40 -265.5t-118.5 -215t-205.5 -146.5t-291 -53zM287 645q0 -98 26.5 -185.5t78 -157t135.5 -110t190 -40.5
q100 0 195.5 33.5t148.5 82.5q50 62 74 164t24 203q0 102 -27.5 192t-80.5 160t-137 111t-189 41q-96 0 -187.5 -32.5t-144.5 -78.5q-51 -64 -78.5 -171t-27.5 -212zM426 1401q0 112 46.5 171.5t133.5 59.5q38 0 75 -17.5t60.5 -38.5t49.5 -38.5t45 -17.5q57 0 57 98h131
q0 -112 -47.5 -172t-132.5 -60q-38 0 -75.5 17.5t-61 39t-49.5 39t-44 17.5q-57 0 -57 -98h-131z" />
    <glyph glyph-name="Odieresis" unicode="&#xd6;" horiz-adv-x="1447" 
d="M713 -27q-133 0 -240 35.5t-179.5 96t-121.5 145t-70.5 180t-21.5 203.5q0 202 74 355t222.5 241t354.5 88q298 0 467.5 -179t169.5 -485q0 -144 -40 -265.5t-118.5 -215t-205.5 -146.5t-291 -53zM287 645q0 -98 26.5 -185.5t78 -157t135.5 -110t190 -40.5
q100 0 195.5 33.5t148.5 82.5q50 62 74 164t24 203q0 102 -27.5 192t-80.5 160t-137 111t-189 41q-96 0 -187.5 -32.5t-144.5 -78.5q-51 -64 -78.5 -171t-27.5 -212zM428 1542q0 48 35.5 83.5t85.5 35.5q51 0 87 -35.5t36 -83.5q0 -50 -36 -85.5t-87 -35.5t-86 35.5
t-35 85.5zM778 1542q0 48 35.5 83.5t85.5 35.5t85.5 -35.5t35.5 -83.5q0 -50 -35 -85.5t-86 -35.5t-86 35.5t-35 85.5z" />
    <glyph glyph-name="multiply" unicode="&#xd7;" horiz-adv-x="1140" 
d="M244 209l-115 113l328 327l-328 326l115 112l327 -325l328 325l115 -112l-328 -326l328 -327l-115 -113l-328 326z" />
    <glyph glyph-name="Oslash" unicode="&#xd8;" horiz-adv-x="1447" 
d="M713 -27q-225 0 -379 101l-64 -74h-192l147 172q-145 175 -145 461q0 202 74 355t222.5 241t354.5 88q225 0 379 -105l66 78h192l-149 -174q149 -178 149 -463q0 -144 -40 -265.5t-118.5 -215t-205.5 -146.5t-291 -53zM287 645q0 -175 80 -305l612 719q-111 80 -254 80
q-96 0 -187.5 -32.5t-144.5 -78.5q-51 -64 -78.5 -171t-27.5 -212zM465 229q104 -77 252 -77q100 0 195.5 33.5t148.5 82.5q50 62 74 164t24 203q0 185 -82 313z" />
    <glyph glyph-name="Ugrave" unicode="&#xd9;" horiz-adv-x="1275" 
d="M639 -25q-243 0 -377.5 129t-134.5 408v778h203v-778q0 -193 77.5 -275.5t231.5 -82.5q171 0 242 59q65 81 65 299v778h203v-778q0 -279 -134 -408t-376 -129zM373 1679h209l157 -278h-166z" />
    <glyph glyph-name="Uacute" unicode="&#xda;" horiz-adv-x="1275" 
d="M639 -25q-243 0 -377.5 129t-134.5 408v778h203v-778q0 -193 77.5 -275.5t231.5 -82.5q171 0 242 59q65 81 65 299v778h203v-778q0 -279 -134 -408t-376 -129zM553 1401l162 278h215l-205 -278h-172z" />
    <glyph glyph-name="Ucircumflex" unicode="&#xdb;" horiz-adv-x="1275" 
d="M639 -25q-243 0 -377.5 129t-134.5 408v778h203v-778q0 -193 77.5 -275.5t231.5 -82.5q171 0 242 59q65 81 65 299v778h203v-778q0 -279 -134 -408t-376 -129zM365 1401l178 278h192l178 -278h-168l-104 168l-109 -168h-167z" />
    <glyph glyph-name="Udieresis" unicode="&#xdc;" horiz-adv-x="1275" 
d="M639 -25q-243 0 -377.5 129t-134.5 408v778h203v-778q0 -193 77.5 -275.5t231.5 -82.5q171 0 242 59q65 81 65 299v778h203v-778q0 -279 -134 -408t-376 -129zM344 1542q0 48 35.5 83.5t85.5 35.5q51 0 87 -35.5t36 -83.5q0 -50 -36 -85.5t-87 -35.5t-86 35.5t-35 85.5z
M694 1542q0 48 35.5 83.5t85.5 35.5t85.5 -35.5t35.5 -83.5q0 -50 -35 -85.5t-86 -35.5t-86 35.5t-35 85.5z" />
    <glyph glyph-name="Yacute" unicode="&#xdd;" horiz-adv-x="1308" 
d="M551 0v453l-516 837h233l387 -647l387 647h232l-516 -837v-453h-207zM567 1401l162 278h215l-205 -278h-172z" />
    <glyph glyph-name="Thorn" unicode="&#xde;" horiz-adv-x="1173" 
d="M135 0v1290h207v-184h248q524 0 524 -416q0 -220 -146.5 -341.5t-385.5 -121.5h-240v-227h-207zM342 401h254q159 0 248 60q65 74 65 223q0 248 -303 248h-264v-531z" />
    <glyph glyph-name="germandbls" unicode="&#xdf;" horiz-adv-x="1030" 
d="M606 -25q-127 0 -227 45l47 166q67 -34 153.5 -42t137.5 22q22 24 38.5 74.5t16.5 113.5q0 133 -74 197.5t-200 64.5h-68v162h41q83 0 124.5 10t76.5 33q41 64 41 172q0 101 -51.5 152t-139.5 51q-110 0 -164.5 -76t-54.5 -205v-915h-194v903q0 74 14 139.5t46 124
t79.5 100.5t119 66.5t160.5 24.5q172 0 277.5 -88t105.5 -260q0 -229 -194 -303q254 -67 254 -351q0 -178 -98 -279.5t-267 -101.5z" />
    <glyph glyph-name="agrave" unicode="&#xe0;" horiz-adv-x="858" 
d="M600 0l-20 76q-87 -101 -252 -101q-126 0 -200.5 63t-74.5 189q0 238 340 238h178v37q0 73 -41.5 106t-132.5 33q-59 0 -126 -14t-107 -35l-45 151q144 60 303 60q175 0 257.5 -76t82.5 -238v-489h-162zM160 1225h209l157 -279h-166zM244 229q0 -98 129 -98q57 0 111 23
t87 59v106h-178q-90 0 -131 -14q-18 -35 -18 -76z" />
    <glyph glyph-name="aacute" unicode="&#xe1;" horiz-adv-x="858" 
d="M600 0l-20 76q-87 -101 -252 -101q-126 0 -200.5 63t-74.5 189q0 238 340 238h178v37q0 73 -41.5 106t-132.5 33q-59 0 -126 -14t-107 -35l-45 151q144 60 303 60q175 0 257.5 -76t82.5 -238v-489h-162zM244 229q0 -98 129 -98q57 0 111 23t87 59v106h-178
q-90 0 -131 -14q-18 -35 -18 -76zM317 946l162 279h215l-205 -279h-172z" />
    <glyph glyph-name="acircumflex" unicode="&#xe2;" horiz-adv-x="858" 
d="M600 0l-20 76q-87 -101 -252 -101q-126 0 -200.5 63t-74.5 189q0 238 340 238h178v37q0 73 -41.5 106t-132.5 33q-59 0 -126 -14t-107 -35l-45 151q144 60 303 60q175 0 257.5 -76t82.5 -238v-489h-162zM150 946l178 279h192l178 -279h-168l-104 168l-109 -168h-167z
M244 229q0 -98 129 -98q57 0 111 23t87 59v106h-178q-90 0 -131 -14q-18 -35 -18 -76z" />
    <glyph glyph-name="atilde" unicode="&#xe3;" horiz-adv-x="858" 
d="M600 0l-20 76q-87 -101 -252 -101q-126 0 -200.5 63t-74.5 189q0 238 340 238h178v37q0 73 -41.5 106t-132.5 33q-59 0 -126 -14t-107 -35l-45 151q144 60 303 60q175 0 257.5 -76t82.5 -238v-489h-162zM125 942q0 112 46.5 172t133.5 60q38 0 75 -17.5t60.5 -39
t49.5 -39t45 -17.5q27 0 42 26t15 72h131q0 -112 -47.5 -171.5t-132.5 -59.5q-38 0 -75.5 17.5t-61 38.5t-49.5 38.5t-44 17.5q-57 0 -57 -98h-131zM244 229q0 -98 129 -98q57 0 111 23t87 59v106h-178q-90 0 -131 -14q-18 -35 -18 -76z" />
    <glyph glyph-name="adieresis" unicode="&#xe4;" horiz-adv-x="858" 
d="M600 0l-20 76q-87 -101 -252 -101q-126 0 -200.5 63t-74.5 189q0 238 340 238h178v37q0 73 -41.5 106t-132.5 33q-59 0 -126 -14t-107 -35l-45 151q144 60 303 60q175 0 257.5 -76t82.5 -238v-489h-162zM131 1087q0 51 35 86t86 35t86 -35t35 -86q0 -50 -35 -85t-86 -35
t-86 35t-35 85zM244 229q0 -98 129 -98q57 0 111 23t87 59v106h-178q-90 0 -131 -14q-18 -35 -18 -76zM475 1087q0 51 36 86t87 35t86 -35t35 -86q0 -50 -35 -85t-86 -35t-87 35t-36 85z" />
    <glyph glyph-name="aring" unicode="&#xe5;" horiz-adv-x="858" 
d="M600 0l-20 76q-87 -101 -252 -101q-126 0 -200.5 63t-74.5 189q0 238 340 238h178v37q0 73 -41.5 106t-132.5 33q-59 0 -126 -14t-107 -35l-45 151q144 60 303 60q175 0 257.5 -76t82.5 -238v-489h-162zM229 1085q0 85 52.5 136t140.5 51q89 0 141.5 -51t52.5 -136
q0 -84 -52.5 -134t-141.5 -50q-88 0 -140.5 50.5t-52.5 133.5zM244 229q0 -98 129 -98q57 0 111 23t87 59v106h-178q-90 0 -131 -14q-18 -35 -18 -76zM336 1085q0 -41 22.5 -64.5t63.5 -23.5t64.5 23.5t23.5 64.5q0 43 -23.5 67t-64.5 24t-63.5 -24t-22.5 -67z" />
    <glyph glyph-name="ae" unicode="&#xe6;" horiz-adv-x="1398" 
d="M571 502q0 72 -41 105.5t-129 33.5q-63 0 -129.5 -14t-107.5 -35l-45 151q144 60 313 60q192 0 264 -103q106 103 273 103q87 0 155 -25t110 -69t69 -104.5t32.5 -132t-0.5 -150.5h-569q2 -82 66 -134.5t180 -52.5q123 0 231 64l41 -150q-120 -76 -295 -76
q-226 0 -336 140q-112 -136 -325 -136q-125 0 -200 62.5t-75 181.5q0 244 340 244h178v37zM244 229q0 -98 123 -98q66 0 127 26t102 72q-12 41 -18 90h-185q-90 0 -131 -14q-18 -35 -18 -76zM766 469h389q-6 84 -56.5 129t-131.5 45q-105 0 -164 -59q-34 -61 -37 -115z" />
    <glyph glyph-name="ccedilla" unicode="&#xe7;" horiz-adv-x="780" 
d="M451 -401q-66 0 -136 24l19 107q22 -10 54 -15t63.5 -3t54 18t22.5 45q0 63 -102 63h-76l35 142q-156 24 -242 124t-86 269q0 192 127 311t320 119q116 0 227 -51l-49 -168q-31 20 -81 37.5t-101 17.5q-44 0 -101 -17t-92 -44q-49 -71 -49 -199q0 -115 63.5 -177.5
t178.5 -62.5q125 0 219 58l41 -148q-99 -69 -254 -76l-14 -55q75 2 125.5 -32t50.5 -111q0 -87 -62.5 -131.5t-154.5 -44.5z" />
    <glyph glyph-name="egrave" unicode="&#xe8;" horiz-adv-x="878" 
d="M471 -27q-190 0 -302 102t-112 300q0 190 105.5 309t288.5 119q87 0 155 -25t110 -69t69 -104.5t32.5 -132t-0.5 -150.5h-569q2 -82 66 -134.5t180 -52.5q123 0 231 64l41 -150q-120 -76 -295 -76zM186 1225h209l158 -279h-166zM248 469h389q-6 84 -56.5 129t-131.5 45
q-105 0 -164 -59q-34 -61 -37 -115z" />
    <glyph glyph-name="eacute" unicode="&#xe9;" horiz-adv-x="878" 
d="M471 -27q-190 0 -302 102t-112 300q0 190 105.5 309t288.5 119q87 0 155 -25t110 -69t69 -104.5t32.5 -132t-0.5 -150.5h-569q2 -82 66 -134.5t180 -52.5q123 0 231 64l41 -150q-120 -76 -295 -76zM248 469h389q-6 84 -56.5 129t-131.5 45q-105 0 -164 -59
q-34 -61 -37 -115zM342 946l162 279h215l-205 -279h-172z" />
    <glyph glyph-name="ecircumflex" unicode="&#xea;" horiz-adv-x="878" 
d="M471 -27q-190 0 -302 102t-112 300q0 190 105.5 309t288.5 119q87 0 155 -25t110 -69t69 -104.5t32.5 -132t-0.5 -150.5h-569q2 -82 66 -134.5t180 -52.5q123 0 231 64l41 -150q-120 -76 -295 -76zM174 946l178 279h193l178 -279h-168l-104 168l-109 -168h-168zM248 469
h389q-6 84 -56.5 129t-131.5 45q-105 0 -164 -59q-34 -61 -37 -115z" />
    <glyph glyph-name="edieresis" unicode="&#xeb;" horiz-adv-x="878" 
d="M471 -27q-190 0 -302 102t-112 300q0 190 105.5 309t288.5 119q87 0 155 -25t110 -69t69 -104.5t32.5 -132t-0.5 -150.5h-569q2 -82 66 -134.5t180 -52.5q123 0 231 64l41 -150q-120 -76 -295 -76zM156 1087q0 51 34.5 86t85.5 35t86 -35t35 -86q0 -50 -35 -85t-86 -35
t-85.5 35t-34.5 85zM248 469h389q-6 84 -56.5 129t-131.5 45q-105 0 -164 -59q-34 -61 -37 -115zM500 1087q0 51 36 86t87 35t85.5 -35t34.5 -86q0 -50 -34.5 -85t-85.5 -35t-87 35t-36 85z" />
    <glyph glyph-name="igrave" unicode="&#xec;" horiz-adv-x="411" 
d="M109 0v778h194v-778h-194zM-55 1225h209l157 -279h-166z" />
    <glyph glyph-name="iacute" unicode="&#xed;" horiz-adv-x="411" 
d="M109 0v778h194v-778h-194zM102 946l162 279h215l-205 -279h-172z" />
    <glyph glyph-name="icircumflex" unicode="&#xee;" horiz-adv-x="411" 
d="M109 0v778h194v-778h-194zM-66 946l179 279h192l178 -279h-168l-104 168l-109 -168h-168z" />
    <glyph glyph-name="idieresis" unicode="&#xef;" horiz-adv-x="411" 
d="M109 0v778h194v-778h-194zM-68 1087q0 51 35 86t86 35q52 0 86.5 -35t34.5 -86t-34.5 -85.5t-86.5 -34.5q-51 0 -86 34.5t-35 85.5zM240 1087q0 51 34.5 86t85.5 35q52 0 86.5 -35t34.5 -86t-34.5 -85.5t-86.5 -34.5q-51 0 -85.5 34.5t-34.5 85.5z" />
    <glyph glyph-name="eth" unicode="&#xf0;" horiz-adv-x="925" 
d="M463 -27q-198 0 -302 107.5t-104 290.5q0 198 113 314t299 116q89 0 156 -31q-47 129 -170 231l-138 -118h-194l227 194q-76 51 -256 150l131 123q144 -79 260 -156l160 137h197l-252 -217q156 -129 216 -276t60 -373q0 -253 -98 -372.5t-305 -119.5zM258 391
q0 -111 50 -181.5t159 -70.5q115 0 158 75t43 241q0 77 -6 141q-94 43 -191 43q-123 0 -170 -53q-43 -68 -43 -195z" />
    <glyph glyph-name="ntilde" unicode="&#xf1;" horiz-adv-x="931" 
d="M641 444q0 87 -34 142t-109 55q-52 0 -105 -29t-90 -71v-541h-194v778h167l19 -90q93 115 250 115q148 0 219.5 -87t71.5 -239v-477h-195v444zM166 942q0 112 46.5 172t133.5 60q38 0 75 -17.5t60 -39t49 -39t45 -17.5q28 0 43 26t15 72h131q0 -112 -47.5 -171.5
t-132.5 -59.5q-38 0 -75.5 17.5t-61 38.5t-49.5 38.5t-44 17.5q-57 0 -57 -98h-131z" />
    <glyph glyph-name="ograve" unicode="&#xf2;" horiz-adv-x="925" 
d="M461 -27q-194 0 -299 110.5t-105 303.5q0 185 110.5 300.5t295.5 115.5q193 0 298 -109.5t105 -304.5q0 -187 -109 -301.5t-296 -114.5zM201 1225h209l157 -279h-166zM258 391q0 -108 52 -180t153 -72q49 0 96 14.5t72 39.5q37 54 37 192q0 109 -54 182.5t-153 73.5
q-109 0 -160 -51q-43 -58 -43 -199z" />
    <glyph glyph-name="oacute" unicode="&#xf3;" horiz-adv-x="925" 
d="M461 -27q-194 0 -299 110.5t-105 303.5q0 185 110.5 300.5t295.5 115.5q193 0 298 -109.5t105 -304.5q0 -187 -109 -301.5t-296 -114.5zM258 391q0 -108 52 -180t153 -72q49 0 96 14.5t72 39.5q37 54 37 192q0 109 -54 182.5t-153 73.5q-109 0 -160 -51q-43 -58 -43 -199
zM358 946l162 279h215l-205 -279h-172z" />
    <glyph glyph-name="ocircumflex" unicode="&#xf4;" horiz-adv-x="925" 
d="M461 -27q-194 0 -299 110.5t-105 303.5q0 185 110.5 300.5t295.5 115.5q193 0 298 -109.5t105 -304.5q0 -187 -109 -301.5t-296 -114.5zM190 946l179 279h192l178 -279h-168l-104 168l-109 -168h-168zM258 391q0 -108 52 -180t153 -72q49 0 96 14.5t72 39.5q37 54 37 192
q0 109 -54 182.5t-153 73.5q-109 0 -160 -51q-43 -58 -43 -199z" />
    <glyph glyph-name="otilde" unicode="&#xf5;" horiz-adv-x="925" 
d="M461 -27q-194 0 -299 110.5t-105 303.5q0 185 110.5 300.5t295.5 115.5q193 0 298 -109.5t105 -304.5q0 -187 -109 -301.5t-296 -114.5zM164 942q0 112 46.5 172t133.5 60q38 0 75 -17.5t60 -39t49 -39t45 -17.5q28 0 43 26t15 72h131q0 -112 -47.5 -171.5t-132.5 -59.5
q-38 0 -75.5 17.5t-61 38.5t-49.5 38.5t-44 17.5q-57 0 -57 -98h-131zM258 391q0 -108 52 -180t153 -72q49 0 96 14.5t72 39.5q37 54 37 192q0 109 -54 182.5t-153 73.5q-109 0 -160 -51q-43 -58 -43 -199z" />
    <glyph glyph-name="odieresis" unicode="&#xf6;" horiz-adv-x="925" 
d="M461 -27q-194 0 -299 110.5t-105 303.5q0 185 110.5 300.5t295.5 115.5q193 0 298 -109.5t105 -304.5q0 -187 -109 -301.5t-296 -114.5zM172 1087q0 51 35 86t86 35t86 -35t35 -86q0 -50 -35 -85t-86 -35t-86 35t-35 85zM258 391q0 -108 52 -180t153 -72q49 0 96 14.5
t72 39.5q37 54 37 192q0 109 -54 182.5t-153 73.5q-109 0 -160 -51q-43 -58 -43 -199zM516 1087q0 51 36 86t87 35t86 -35t35 -86q0 -50 -35 -85t-86 -35t-87 35t-36 85z" />
    <glyph glyph-name="divide" unicode="&#xf7;" horiz-adv-x="1140" 
d="M115 567v160h911v-160h-911zM455 276q0 50 33.5 83.5t84.5 33.5q50 0 84.5 -34t34.5 -83t-34.5 -82.5t-84.5 -33.5t-84 34t-34 82zM455 1018q0 48 34 82.5t84 34.5t84.5 -34.5t34.5 -82.5q0 -49 -35.5 -83t-83.5 -34q-51 0 -84.5 33.5t-33.5 83.5z" />
    <glyph glyph-name="oslash" unicode="&#xf8;" horiz-adv-x="925" 
d="M461 -27q-147 0 -242 64l-35 -37h-149l102 113q-80 106 -80 274q0 185 110.5 300.5t295.5 115.5q146 0 244 -64l34 39h152l-105 -114q78 -107 78 -275q0 -187 -109 -301.5t-296 -114.5zM258 391q0 -67 21 -123l303 334q-51 39 -121 39q-109 0 -160 -51q-43 -58 -43 -199z
M344 176q50 -37 119 -37q49 0 96 14.5t72 39.5q37 54 37 192q0 67 -21 123z" />
    <glyph glyph-name="ugrave" unicode="&#xf9;" horiz-adv-x="929" 
d="M387 -27q-143 0 -217 88.5t-74 235.5v481h195v-452q0 -80 35.5 -133.5t113.5 -53.5q49 0 99.5 24.5t87.5 59.5v555h194v-778h-166l-20 80q-44 -52 -109 -79.5t-139 -27.5zM203 1225h209l157 -279h-166z" />
    <glyph glyph-name="uacute" unicode="&#xfa;" horiz-adv-x="929" 
d="M387 -27q-143 0 -217 88.5t-74 235.5v481h195v-452q0 -80 35.5 -133.5t113.5 -53.5q49 0 99.5 24.5t87.5 59.5v555h194v-778h-166l-20 80q-44 -52 -109 -79.5t-139 -27.5zM360 946l162 279h215l-205 -279h-172z" />
    <glyph glyph-name="ucircumflex" unicode="&#xfb;" horiz-adv-x="929" 
d="M387 -27q-143 0 -217 88.5t-74 235.5v481h195v-452q0 -80 35.5 -133.5t113.5 -53.5q49 0 99.5 24.5t87.5 59.5v555h194v-778h-166l-20 80q-44 -52 -109 -79.5t-139 -27.5zM193 946l178 279h192l178 -279h-168l-104 168l-109 -168h-167z" />
    <glyph glyph-name="udieresis" unicode="&#xfc;" horiz-adv-x="929" 
d="M387 -27q-143 0 -217 88.5t-74 235.5v481h195v-452q0 -80 35.5 -133.5t113.5 -53.5q49 0 99.5 24.5t87.5 59.5v555h194v-778h-166l-20 80q-44 -52 -109 -79.5t-139 -27.5zM174 1087q0 51 35 86t86 35t86 -35t35 -86q0 -50 -35 -85t-86 -35t-86 35t-35 85zM518 1087
q0 51 36 86t87 35t86 -35t35 -86q0 -50 -35 -85t-86 -35t-87 35t-36 85z" />
    <glyph glyph-name="yacute" unicode="&#xfd;" horiz-adv-x="929" 
d="M399 -412q-163 0 -295 74l50 170q115 -76 249 -76q115 0 175 47q29 42 38 101t11 194q-89 -96 -236 -96q-146 0 -220.5 86.5t-74.5 241.5v448h195v-428q0 -94 40 -141t107 -47q51 0 102.5 24.5t86.5 57.5v534h194v-758q0 -80 -16.5 -145t-42.5 -109t-63 -77.5t-74.5 -52
t-80.5 -30t-76.5 -15t-68.5 -3.5zM360 946l162 279h215l-205 -279h-172z" />
    <glyph glyph-name="thorn" unicode="&#xfe;" horiz-adv-x="944" 
d="M109 -385v1716h194v-614q86 86 215 86q174 0 270.5 -111.5t96.5 -290.5q0 -197 -122 -311.5t-317 -114.5q-65 0 -143 19v-379h-194zM303 166q60 -29 131 -29q58 0 114 16.5t91 45.5q20 34 33.5 88t13.5 106q0 109 -55 178.5t-154 69.5q-93 0 -174 -84v-391z" />
    <glyph glyph-name="ydieresis" unicode="&#xff;" horiz-adv-x="929" 
d="M399 -412q-163 0 -295 74l50 170q115 -76 249 -76q115 0 175 47q29 42 38 101t11 194q-89 -96 -236 -96q-146 0 -220.5 86.5t-74.5 241.5v448h195v-428q0 -94 40 -141t107 -47q51 0 102.5 24.5t86.5 57.5v534h194v-758q0 -80 -16.5 -145t-42.5 -109t-63 -77.5t-74.5 -52
t-80.5 -30t-76.5 -15t-68.5 -3.5zM174 1087q0 51 35 86t86 35t86 -35t35 -86q0 -50 -35 -85t-86 -35t-86 35t-35 85zM518 1087q0 51 36 86t87 35t86 -35t35 -86q0 -50 -35 -85t-86 -35t-87 35t-36 85z" />
    <glyph glyph-name="Amacron" unicode="&#x100;" horiz-adv-x="1302" 
d="M35 0l491 1290h250l492 -1290h-219l-111 303h-576l-110 -303h-217zM391 1442v151h520v-151h-520zM426 475h448l-223 615z" />
    <glyph glyph-name="amacron" unicode="&#x101;" horiz-adv-x="858" 
d="M600 0l-20 76q-87 -101 -252 -101q-126 0 -200.5 63t-74.5 189q0 238 340 238h178v37q0 73 -41.5 106t-132.5 33q-59 0 -126 -14t-107 -35l-45 151q144 60 303 60q175 0 257.5 -76t82.5 -238v-489h-162zM164 1006v149h520v-149h-520zM244 229q0 -98 129 -98q57 0 111 23
t87 59v106h-178q-90 0 -131 -14q-18 -35 -18 -76z" />
    <glyph glyph-name="Abreve" unicode="&#x102;" horiz-adv-x="1302" 
d="M35 0l491 1290h250l492 -1290h-219l-111 303h-576l-110 -303h-217zM362 1663l142 23q10 -80 46 -117t99 -37t99.5 37t46.5 117l141 -23q-15 -129 -87.5 -199.5t-199.5 -70.5q-124 0 -198 71t-89 199zM426 475h448l-223 615z" />
    <glyph glyph-name="abreve" unicode="&#x103;" horiz-adv-x="858" 
d="M600 0l-20 76q-87 -101 -252 -101q-126 0 -200.5 63t-74.5 189q0 238 340 238h178v37q0 73 -41.5 106t-132.5 33q-59 0 -126 -14t-107 -35l-45 151q144 60 303 60q175 0 257.5 -76t82.5 -238v-489h-162zM137 1208l142 23q10 -80 46 -117t99 -37t99 37t46 117l142 -23
q-15 -129 -87.5 -199.5t-199.5 -70.5q-124 0 -198 71t-89 199zM244 229q0 -98 129 -98q57 0 111 23t87 59v106h-178q-90 0 -131 -14q-18 -35 -18 -76z" />
    <glyph glyph-name="Aogonek" unicode="&#x104;" horiz-adv-x="1302" 
d="M35 0l491 1290h250l492 -1290h-90q-80 -44 -125 -97.5t-45 -107.5q0 -59 71 -59q39 0 68 18l31 -127q-61 -28 -129 -28q-85 0 -143 43t-58 127q0 80 56 145t136 111l-102 278h-576l-110 -303h-217zM426 475h448l-223 615z" />
    <glyph glyph-name="aogonek" unicode="&#x105;" horiz-adv-x="858" 
d="M328 -25q-126 0 -200.5 63t-74.5 189q0 238 340 238h178v37q0 73 -41.5 106t-132.5 33q-59 0 -126 -14t-107 -35l-45 151q144 60 303 60q175 0 257.5 -76t82.5 -238v-489h-10q-80 -44 -125 -97.5t-45 -107.5q0 -59 71 -59q39 0 68 18l31 -127q-61 -28 -129 -28
q-85 0 -143 43t-58 127q0 139 174 245l-16 62q-87 -101 -252 -101zM244 229q0 -98 129 -98q57 0 111 23t87 59v106h-178q-90 0 -131 -14q-18 -35 -18 -76z" />
    <glyph glyph-name="Cacute" unicode="&#x106;" horiz-adv-x="1202" 
d="M735 -25q-315 0 -485 161.5t-170 469.5q0 223 88.5 385.5t242 244t353.5 81.5q192 0 366 -86l-45 -172q-163 80 -313 80q-99 0 -203 -32t-166 -85q-55 -73 -84.5 -179.5t-29.5 -226.5q0 -221 115 -341.5t335 -120.5q216 0 394 94l43 -158q-177 -115 -441 -115zM647 1401
l162 278h215l-205 -278h-172z" />
    <glyph glyph-name="cacute" unicode="&#x107;" horiz-adv-x="780" 
d="M481 -27q-199 0 -311.5 103t-112.5 297q0 192 127 311t320 119q116 0 227 -51l-49 -168q-31 20 -81 37.5t-101 17.5q-44 0 -101 -17t-92 -44q-49 -71 -49 -199q0 -115 63.5 -177.5t178.5 -62.5q125 0 219 58l41 -148q-109 -76 -279 -76zM358 946l162 279h215l-205 -279
h-172z" />
    <glyph glyph-name="Ccircumflex" unicode="&#x108;" horiz-adv-x="1202" 
d="M735 -25q-315 0 -485 161.5t-170 469.5q0 223 88.5 385.5t242 244t353.5 81.5q192 0 366 -86l-45 -172q-163 80 -313 80q-99 0 -203 -32t-166 -85q-55 -73 -84.5 -179.5t-29.5 -226.5q0 -221 115 -341.5t335 -120.5q216 0 394 94l43 -158q-177 -115 -441 -115zM459 1401
l178 278h192l179 -278h-168l-105 168l-108 -168h-168z" />
    <glyph glyph-name="ccircumflex" unicode="&#x109;" horiz-adv-x="780" 
d="M481 -27q-199 0 -311.5 103t-112.5 297q0 192 127 311t320 119q116 0 227 -51l-49 -168q-31 20 -81 37.5t-101 17.5q-44 0 -101 -17t-92 -44q-49 -71 -49 -199q0 -115 63.5 -177.5t178.5 -62.5q125 0 219 58l41 -148q-109 -76 -279 -76zM190 946l179 279h192l178 -279
h-168l-104 168l-109 -168h-168z" />
    <glyph glyph-name="Cdotaccent" unicode="&#x10a;" horiz-adv-x="1202" 
d="M735 -25q-315 0 -485 161.5t-170 469.5q0 223 88.5 385.5t242 244t353.5 81.5q192 0 366 -86l-45 -172q-163 80 -313 80q-99 0 -203 -32t-166 -85q-55 -73 -84.5 -179.5t-29.5 -226.5q0 -221 115 -341.5t335 -120.5q216 0 394 94l43 -158q-177 -115 -441 -115zM612 1542
q0 48 35 83.5t86 35.5q52 0 87.5 -35.5t35.5 -83.5q0 -50 -35.5 -85.5t-87.5 -35.5t-86.5 35.5t-34.5 85.5z" />
    <glyph glyph-name="cdotaccent" unicode="&#x10b;" horiz-adv-x="780" 
d="M481 -27q-199 0 -311.5 103t-112.5 297q0 192 127 311t320 119q116 0 227 -51l-49 -168q-31 20 -81 37.5t-101 17.5q-44 0 -101 -17t-92 -44q-49 -71 -49 -199q0 -115 63.5 -177.5t178.5 -62.5q125 0 219 58l41 -148q-109 -76 -279 -76zM342 1087q0 50 35.5 85.5
t87.5 35.5q53 0 88 -35.5t35 -85.5t-35 -85t-88 -35q-52 0 -87.5 35t-35.5 85z" />
    <glyph glyph-name="Ccaron" unicode="&#x10c;" horiz-adv-x="1202" 
d="M735 -25q-315 0 -485 161.5t-170 469.5q0 223 88.5 385.5t242 244t353.5 81.5q192 0 366 -86l-45 -172q-163 80 -313 80q-99 0 -203 -32t-166 -85q-55 -73 -84.5 -179.5t-29.5 -226.5q0 -221 115 -341.5t335 -120.5q216 0 394 94l43 -158q-177 -115 -441 -115zM459 1679
h168l108 -168l105 168h168l-179 -278h-192z" />
    <glyph glyph-name="ccaron" unicode="&#x10d;" horiz-adv-x="780" 
d="M481 -27q-199 0 -311.5 103t-112.5 297q0 192 127 311t320 119q116 0 227 -51l-49 -168q-31 20 -81 37.5t-101 17.5q-44 0 -101 -17t-92 -44q-49 -71 -49 -199q0 -115 63.5 -177.5t178.5 -62.5q125 0 219 58l41 -148q-109 -76 -279 -76zM190 1229h168l109 -170l104 170
h168l-178 -283h-192z" />
    <glyph glyph-name="Dcaron" unicode="&#x10e;" horiz-adv-x="1347" 
d="M135 0v1290h473q660 0 660 -624q0 -205 -87 -357t-240 -230.5t-353 -78.5h-453zM324 1679h168l108 -168l105 168h167l-178 -278h-192zM340 176h242q228 0 370 109q51 64 81 166t30 208q0 217 -111 336t-321 119h-291v-938z" />
    <glyph glyph-name="dcaron" unicode="&#x10f;" horiz-adv-x="942" 
d="M414 -27q-167 0 -262 111.5t-95 292.5q0 198 124.5 312t320.5 114q69 0 137 -21v549h195v-1331h-168l-23 74q-30 -44 -90 -72.5t-139 -28.5zM258 385q0 -108 54.5 -178t152.5 -70q101 0 174 80v391q-60 33 -131 33q-59 0 -116 -16t-91 -45q-18 -33 -30.5 -88.5
t-12.5 -106.5zM909 946l21 385h168l-62 -385h-127z" />
    <glyph glyph-name="Dcroat" unicode="&#x110;" horiz-adv-x="1449" 
d="M238 0v565h-181v158h181v567h473q659 0 659 -624q0 -205 -87 -357t-240 -230.5t-353 -78.5h-452zM442 176h242q229 0 371 109q51 64 80.5 165.5t29.5 208.5q0 217 -111 336t-321 119h-291v-391h320v-158h-320v-389z" />
    <glyph glyph-name="dcroat" unicode="&#x111;" horiz-adv-x="942" 
d="M414 -27q-167 0 -262 111.5t-95 292.5q0 198 124.5 312t320.5 114q69 0 137 -21v236h-252v143h252v170h195v-170h129v-143h-129v-1018h-168l-23 74q-30 -44 -90 -72.5t-139 -28.5zM258 385q0 -108 54.5 -178t152.5 -70q101 0 174 80v391q-60 33 -131 33q-59 0 -116 -16
t-91 -45q-18 -33 -30.5 -88.5t-12.5 -106.5z" />
    <glyph glyph-name="Emacron" unicode="&#x112;" horiz-adv-x="1028" 
d="M135 0v1290h817v-176h-610v-391h532v-176h-532v-371h612v-176h-819zM285 1442v151h520v-151h-520z" />
    <glyph glyph-name="emacron" unicode="&#x113;" horiz-adv-x="878" 
d="M471 -27q-190 0 -302 102t-112 300q0 190 105.5 309t288.5 119q87 0 155 -25t110 -69t69 -104.5t32.5 -132t-0.5 -150.5h-569q2 -82 66 -134.5t180 -52.5q123 0 231 64l41 -150q-120 -76 -295 -76zM190 1006v149h521v-149h-521zM248 469h389q-6 84 -56.5 129t-131.5 45
q-105 0 -164 -59q-34 -61 -37 -115z" />
    <glyph glyph-name="Edotaccent" unicode="&#x116;" horiz-adv-x="1028" 
d="M135 0v1290h817v-176h-610v-391h532v-176h-532v-371h612v-176h-819zM424 1542q0 48 35 83.5t86 35.5q52 0 87.5 -35.5t35.5 -83.5q0 -50 -35.5 -85.5t-87.5 -35.5t-86.5 35.5t-34.5 85.5z" />
    <glyph glyph-name="edotaccent" unicode="&#x117;" horiz-adv-x="878" 
d="M471 -27q-190 0 -302 102t-112 300q0 190 105.5 309t288.5 119q87 0 155 -25t110 -69t69 -104.5t32.5 -132t-0.5 -150.5h-569q2 -82 66 -134.5t180 -52.5q123 0 231 64l41 -150q-120 -76 -295 -76zM248 469h389q-6 84 -56.5 129t-131.5 45q-105 0 -164 -59
q-34 -61 -37 -115zM326 1087q0 50 35.5 85.5t87.5 35.5q53 0 87.5 -35.5t34.5 -85.5t-34.5 -85t-87.5 -35q-52 0 -87.5 35t-35.5 85z" />
    <glyph glyph-name="Eogonek" unicode="&#x118;" horiz-adv-x="1028" 
d="M135 0v1290h817v-176h-610v-391h532v-176h-532v-371h612v-176h-2q-80 -44 -125 -97.5t-45 -107.5q0 -59 72 -59q39 0 68 18l30 -127q-61 -28 -129 -28q-85 0 -142.5 43t-57.5 127q0 69 43 128t108 103h-639z" />
    <glyph glyph-name="eogonek" unicode="&#x119;" horiz-adv-x="878" 
d="M520 -401q-85 0 -141.5 43t-56.5 127q0 111 124 204q-178 6 -283.5 108t-105.5 294q0 190 105.5 309t288.5 119q87 0 155 -25t110 -69t69 -104.5t32.5 -132t-0.5 -150.5h-569q2 -82 66 -134.5t180 -52.5q123 0 231 64l41 -150q-18 -11 -31 -16q-10 -6 -39 -22
t-43.5 -24.5t-41 -25t-41.5 -28.5t-34.5 -29.5t-29.5 -33.5t-17.5 -35.5t-7.5 -39.5q0 -59 70 -59q41 0 70 18l30 -127q-64 -28 -131 -28zM248 469h389q-6 84 -56.5 129t-131.5 45q-105 0 -164 -59q-34 -61 -37 -115z" />
    <glyph glyph-name="Ecaron" unicode="&#x11a;" horiz-adv-x="1028" 
d="M135 0v1290h817v-176h-610v-391h532v-176h-532v-371h612v-176h-819zM270 1679h168l109 -168l104 168h168l-178 -278h-192z" />
    <glyph glyph-name="ecaron" unicode="&#x11b;" horiz-adv-x="878" 
d="M471 -27q-190 0 -302 102t-112 300q0 190 105.5 309t288.5 119q87 0 155 -25t110 -69t69 -104.5t32.5 -132t-0.5 -150.5h-569q2 -82 66 -134.5t180 -52.5q123 0 231 64l41 -150q-120 -76 -295 -76zM174 1229h168l109 -170l104 170h168l-178 -283h-193zM248 469h389
q-6 84 -56.5 129t-131.5 45q-105 0 -164 -59q-34 -61 -37 -115z" />
    <glyph glyph-name="Gcircumflex" unicode="&#x11c;" horiz-adv-x="1312" 
d="M737 -27q-317 0 -487 161.5t-170 473.5q0 334 192 521.5t506 187.5q201 0 375 -86l-45 -172q-184 80 -336 80q-103 0 -206.5 -32t-166.5 -83q-53 -74 -82.5 -180t-29.5 -223q0 -224 116 -346.5t342 -122.5q131 0 269 41v346h-285v174h475v-623q-90 -57 -212.5 -87
t-254.5 -30zM481 1401l178 278h193l178 -278h-168l-104 168l-109 -168h-168z" />
    <glyph glyph-name="gcircumflex" unicode="&#x11d;" horiz-adv-x="935" 
d="M418 -412q-162 0 -297 74l49 172q115 -80 262 -80q107 0 170 53q43 65 43 236v45q-87 -84 -235 -84q-165 0 -259 101t-94 282q0 194 110 305t294 111q379 0 379 -418v-354q0 -236 -109 -339.5t-313 -103.5zM190 946l179 279h192l178 -279h-168l-104 168l-109 -168h-168z
M256 399q0 -109 51.5 -172t141.5 -63q53 0 106 22.5t90 59.5v147q0 129 -51.5 188.5t-132.5 59.5q-90 0 -154 -43q-24 -33 -37.5 -88t-13.5 -111z" />
    <glyph glyph-name="Gbreve" unicode="&#x11e;" horiz-adv-x="1312" 
d="M737 -27q-317 0 -487 161.5t-170 473.5q0 334 192 521.5t506 187.5q201 0 375 -86l-45 -172q-184 80 -336 80q-103 0 -206.5 -32t-166.5 -83q-53 -74 -82.5 -180t-29.5 -223q0 -224 116 -346.5t342 -122.5q131 0 269 41v346h-285v174h475v-623q-90 -57 -212.5 -87
t-254.5 -30zM469 1663l141 23q10 -80 46.5 -117t99.5 -37t99 37t46 117l141 -23q-15 -129 -87.5 -199.5t-198.5 -70.5q-124 0 -198 71t-89 199z" />
    <glyph glyph-name="gbreve" unicode="&#x11f;" horiz-adv-x="935" 
d="M418 -412q-162 0 -297 74l49 172q115 -80 262 -80q107 0 170 53q43 65 43 236v45q-87 -84 -235 -84q-165 0 -259 101t-94 282q0 194 110 305t294 111q379 0 379 -418v-354q0 -236 -109 -339.5t-313 -103.5zM176 1208l141 23q10 -80 46.5 -117t99.5 -37t99 37t46 117
l142 -23q-15 -129 -87.5 -199.5t-199.5 -70.5q-124 0 -198 71t-89 199zM256 399q0 -109 51.5 -172t141.5 -63q53 0 106 22.5t90 59.5v147q0 129 -51.5 188.5t-132.5 59.5q-90 0 -154 -43q-24 -33 -37.5 -88t-13.5 -111z" />
    <glyph glyph-name="Gdotaccent" unicode="&#x120;" horiz-adv-x="1312" 
d="M737 -27q-317 0 -487 161.5t-170 473.5q0 334 192 521.5t506 187.5q201 0 375 -86l-45 -172q-184 80 -336 80q-103 0 -206.5 -32t-166.5 -83q-53 -74 -82.5 -180t-29.5 -223q0 -224 116 -346.5t342 -122.5q131 0 269 41v346h-285v174h475v-623q-90 -57 -212.5 -87
t-254.5 -30zM635 1542q0 48 35 83.5t86 35.5q52 0 87.5 -35.5t35.5 -83.5q0 -50 -35.5 -85.5t-87.5 -35.5t-86.5 35.5t-34.5 85.5z" />
    <glyph glyph-name="gdotaccent" unicode="&#x121;" horiz-adv-x="935" 
d="M418 -412q-162 0 -297 74l49 172q115 -80 262 -80q107 0 170 53q43 65 43 236v45q-87 -84 -235 -84q-165 0 -259 101t-94 282q0 194 110 305t294 111q379 0 379 -418v-354q0 -236 -109 -339.5t-313 -103.5zM256 399q0 -109 51.5 -172t141.5 -63q53 0 106 22.5t90 59.5
v147q0 129 -51.5 188.5t-132.5 59.5q-90 0 -154 -43q-24 -33 -37.5 -88t-13.5 -111zM340 1087q0 50 35.5 85.5t87.5 35.5q53 0 88 -35.5t35 -85.5t-35 -85t-88 -35q-52 0 -87.5 35t-35.5 85z" />
    <glyph glyph-name="uni0122" unicode="&#x122;" horiz-adv-x="1312" 
d="M737 -27q-317 0 -487 161.5t-170 473.5q0 334 192 521.5t506 187.5q201 0 375 -86l-45 -172q-184 80 -336 80q-103 0 -206.5 -32t-166.5 -83q-53 -74 -82.5 -180t-29.5 -223q0 -224 116 -346.5t342 -122.5q131 0 269 41v346h-285v174h475v-623q-90 -57 -212.5 -87
t-254.5 -30zM631 -201q0 43 30 69t82 26q66 0 98.5 -35.5t32.5 -94.5q0 -77 -46 -145t-119 -106l-58 67q78 59 78 94q0 16 -15.5 28.5t-33.5 20.5t-33.5 28t-15.5 48z" />
    <glyph glyph-name="uni0123" unicode="&#x123;" horiz-adv-x="935" 
d="M418 -412q-162 0 -297 74l49 172q115 -80 262 -80q107 0 170 53q43 65 43 236v45q-87 -84 -235 -84q-165 0 -259 101t-94 282q0 194 110 305t294 111q379 0 379 -418v-354q0 -236 -109 -339.5t-313 -103.5zM256 399q0 -109 51.5 -172t141.5 -63q53 0 106 22.5t90 59.5
v147q0 129 -51.5 188.5t-132.5 59.5q-90 0 -154 -43q-24 -33 -37.5 -88t-13.5 -111zM334 1026q0 77 46 144.5t118 107.5l59 -68q-80 -58 -80 -94q0 -16 16 -29t34.5 -21t34.5 -27.5t16 -47.5q0 -43 -30.5 -68.5t-82.5 -25.5q-66 0 -98.5 35t-32.5 94z" />
    <glyph glyph-name="Hcircumflex" unicode="&#x124;" horiz-adv-x="1302" 
d="M958 0v545h-616v-545h-207v1290h207v-569h616v569h207v-1290h-207zM377 1401l178 278h193l178 -278h-168l-105 168l-108 -168h-168z" />
    <glyph glyph-name="hcircumflex" unicode="&#x125;" horiz-adv-x="931" 
d="M641 444q0 88 -35.5 142.5t-116.5 54.5q-48 0 -98.5 -29t-87.5 -71v-541h-194v1331h194v-633q91 105 242 105q148 0 219.5 -87t71.5 -239v-477h-195v444zM193 1401l178 278h192l178 -278h-168l-104 168l-109 -168h-167z" />
    <glyph glyph-name="Hbar" unicode="&#x126;" horiz-adv-x="1343" 
d="M979 0v545h-617v-545h-206v942h-107v158h107v190h206v-190h617v190h207v-190h108v-158h-108v-942h-207zM362 721h617v221h-617v-221z" />
    <glyph glyph-name="hbar" unicode="&#x127;" horiz-adv-x="931" 
d="M641 444q0 88 -35.5 142.5t-116.5 54.5q-48 0 -98.5 -29t-87.5 -71v-541h-194v1018h-129v143h129v170h194v-170h252v-143h-252v-320q91 105 242 105q148 0 219.5 -87t71.5 -239v-477h-195v444z" />
    <glyph glyph-name="Itilde" unicode="&#x128;" horiz-adv-x="475" 
d="M135 0v1290h205v-1290h-205zM-59 1401q0 112 46.5 171.5t133.5 59.5q38 0 75 -17.5t60 -38.5t49 -38.5t45 -17.5q58 0 58 98h131q0 -112 -48 -172t-133 -60q-38 0 -75 17.5t-60.5 39t-49.5 39t-44 17.5q-57 0 -57 -98h-131z" />
    <glyph glyph-name="itilde" unicode="&#x129;" horiz-adv-x="411" 
d="M109 0v778h194v-778h-194zM-92 942q0 112 46.5 172t133.5 60q38 0 75 -17.5t60 -39t49 -39t45 -17.5q28 0 43 26t15 72h131q0 -112 -47.5 -171.5t-132.5 -59.5q-38 0 -75.5 17.5t-61 38.5t-49.5 38.5t-44 17.5q-57 0 -57 -98h-131z" />
    <glyph glyph-name="Imacron" unicode="&#x12a;" horiz-adv-x="475" 
d="M135 0v1290h205v-1290h-205zM-23 1442v151h521v-151h-521z" />
    <glyph glyph-name="imacron" unicode="&#x12b;" horiz-adv-x="411" 
d="M109 0v778h194v-778h-194zM-51 1006v149h520v-149h-520z" />
    <glyph glyph-name="Iogonek" unicode="&#x12e;" horiz-adv-x="475" 
d="M135 0v1290h205v-1290h-2q-80 -44 -125 -97.5t-45 -107.5q0 -59 72 -59q38 0 67 18l31 -127q-61 -28 -129 -28q-85 0 -143 43t-58 127q0 129 152 231h-25z" />
    <glyph glyph-name="iogonek" unicode="&#x12f;" horiz-adv-x="411" 
d="M109 0v778h194v-776l2 -2q-80 -44 -125 -97.5t-45 -107.5q0 -59 72 -59q38 0 67 18l31 -127q-61 -28 -129 -28q-85 0 -143 43t-58 127q0 129 152 231h-18zM84 1087q0 50 35.5 85.5t87.5 35.5q53 0 88 -35.5t35 -85.5t-35 -85t-88 -35q-52 0 -87.5 35t-35.5 85z" />
    <glyph glyph-name="Idotaccent" unicode="&#x130;" horiz-adv-x="475" 
d="M135 0v1290h205v-1290h-205zM117 1542q0 48 35 83.5t86 35.5q52 0 87 -35.5t35 -83.5q0 -50 -35 -85.5t-87 -35.5t-86.5 35.5t-34.5 85.5z" />
    <glyph glyph-name="dotlessi" unicode="&#x131;" horiz-adv-x="411" 
d="M109 0v778h194v-778h-194z" />
    <glyph glyph-name="IJ" unicode="&#x132;" horiz-adv-x="966" 
d="M135 0v1290h205v-1290h-205zM332 -154q61 4 113.5 23.5t96 56.5t68.5 99.5t25 144.5v1120h205v-1065q0 -492 -441 -553z" />
    <glyph glyph-name="ij" unicode="&#x133;" horiz-adv-x="823" 
d="M109 0v778h194v-778h-194zM84 1087q0 50 35.5 85.5t87.5 35.5q53 0 88 -35.5t35 -85.5t-35 -85t-88 -35q-52 0 -87.5 35t-35.5 85zM315 -244q89 7 147 72t58 195v755h195v-702q0 -428 -338 -486zM496 1087q0 50 35 85.5t87 35.5q53 0 88 -35.5t35 -85.5t-35 -85t-88 -35
q-52 0 -87 35t-35 85z" />
    <glyph glyph-name="Jcircumflex" unicode="&#x134;" horiz-adv-x="491" 
d="M-143 -154q61 4 113.5 23.5t96 56.5t68.5 99.5t25 144.5v1120h205v-1065q0 -492 -441 -553zM-29 1401l179 278h192l178 -278h-168l-104 168l-109 -168h-168z" />
    <glyph glyph-name="jcircumflex" unicode="&#x135;" horiz-adv-x="411" 
d="M-96 -244q89 7 147 72t58 195v755h194v-702q0 -428 -338 -486zM-68 946l179 279h192l178 -279h-168l-104 168l-109 -168h-168z" />
    <glyph glyph-name="uni0136" unicode="&#x136;" horiz-adv-x="1153" 
d="M879 0l-508 647l475 643h241l-483 -635l526 -655h-251zM135 0v1290h205v-1290h-205zM469 -201q0 43 30.5 69t82.5 26q66 0 98.5 -35.5t32.5 -94.5q0 -77 -46.5 -145t-119.5 -106l-58 67q78 59 78 94q0 16 -15.5 28.5t-33.5 20.5t-33.5 28t-15.5 48z" />
    <glyph glyph-name="uni0137" unicode="&#x137;" horiz-adv-x="858" 
d="M614 0l-280 414l258 360h233l-280 -360l301 -414h-232zM109 0v1331h194v-1331h-194zM336 -201q0 43 30.5 69t82.5 26q66 0 98.5 -35.5t32.5 -94.5q0 -77 -46.5 -145t-119.5 -106l-58 67q78 59 78 94q0 16 -15.5 28.5t-33.5 20.5t-33.5 28t-15.5 48z" />
    <glyph glyph-name="Lacute" unicode="&#x139;" horiz-adv-x="989" 
d="M135 0v1290h207v-1114h625v-176h-832zM156 1401l161 278h215l-204 -278h-172z" />
    <glyph glyph-name="lacute" unicode="&#x13a;" horiz-adv-x="411" 
d="M109 0v1331h194v-1331h-194zM121 1409l162 279h215l-205 -279h-172z" />
    <glyph glyph-name="uni013B" unicode="&#x13b;" horiz-adv-x="989" 
d="M135 0v1290h207v-1114h625v-176h-832zM444 -201q0 43 30.5 69t82.5 26q66 0 98.5 -35.5t32.5 -94.5q0 -77 -46.5 -145t-119.5 -106l-57 67q78 59 78 94q0 16 -15.5 28.5t-34 20.5t-34 28t-15.5 48z" />
    <glyph glyph-name="uni013C" unicode="&#x13c;" horiz-adv-x="411" 
d="M109 0v1331h194v-1331h-194zM96 -201q0 43 30.5 69t82.5 26q66 0 98.5 -35.5t32.5 -94.5q0 -77 -46.5 -145t-119.5 -106l-57 67q78 59 78 94q0 16 -15.5 28.5t-34 20.5t-34 28t-15.5 48z" />
    <glyph glyph-name="Lcaron" unicode="&#x13d;" horiz-adv-x="989" 
d="M135 0v1290h207v-1114h625v-176h-832zM420 905l20 385h168l-61 -385h-127z" />
    <glyph glyph-name="lcaron" unicode="&#x13e;" horiz-adv-x="411" 
d="M109 0v1331h194v-1331h-194zM379 946l20 385h168l-61 -385h-127z" />
    <glyph glyph-name="Ldot" unicode="&#x13f;" horiz-adv-x="989" 
d="M135 0v1290h207v-1114h625v-176h-832zM606 682q0 51 35 86t86 35q52 0 87.5 -35.5t35.5 -85.5q0 -51 -35.5 -86t-87.5 -35q-51 0 -86 35t-35 86z" />
    <glyph glyph-name="ldot" unicode="&#x140;" horiz-adv-x="577" 
d="M109 0v1331h194v-1331h-194zM377 643q0 50 34 84.5t85 34.5q49 0 82.5 -35.5t33.5 -83.5t-33.5 -82.5t-82.5 -34.5q-51 0 -85 33.5t-34 83.5z" />
    <glyph glyph-name="Lslash" unicode="&#x141;" horiz-adv-x="1030" 
d="M176 0v410l-141 -93v189l141 92v692h207v-559l293 191v-189l-293 -190v-367h625v-176h-832z" />
    <glyph glyph-name="lslash" unicode="&#x142;" horiz-adv-x="534" 
d="M170 0v524l-123 -86v183l123 86v624h195v-520l129 90v-182l-129 -90v-629h-195z" />
    <glyph glyph-name="Nacute" unicode="&#x143;" horiz-adv-x="1310" 
d="M135 0v1290h293l547 -1046v1046h199v-1290h-289l-549 1049v-1049h-201zM565 1401l162 278h215l-205 -278h-172z" />
    <glyph glyph-name="nacute" unicode="&#x144;" horiz-adv-x="931" 
d="M641 444q0 87 -34 142t-109 55q-52 0 -105 -29t-90 -71v-541h-194v778h167l19 -90q93 115 250 115q148 0 219.5 -87t71.5 -239v-477h-195v444zM358 946l162 279h215l-205 -279h-172z" />
    <glyph glyph-name="uni0145" unicode="&#x145;" horiz-adv-x="1310" 
d="M135 0v1290h293l547 -1046v1046h199v-1290h-289l-549 1049v-1049h-201zM541 -201q0 43 30 69t82 26q66 0 98.5 -35.5t32.5 -94.5q0 -77 -46.5 -145t-119.5 -106l-57 67q78 59 78 94q0 16 -15.5 28.5t-33.5 20.5t-33.5 28t-15.5 48z" />
    <glyph glyph-name="uni0146" unicode="&#x146;" horiz-adv-x="931" 
d="M641 444q0 87 -34 142t-109 55q-52 0 -105 -29t-90 -71v-541h-194v778h167l19 -90q93 115 250 115q148 0 219.5 -87t71.5 -239v-477h-195v444zM352 -201q0 43 30.5 69t82.5 26q66 0 98.5 -35.5t32.5 -94.5q0 -77 -46.5 -145t-119.5 -106l-57 67q78 59 78 94
q0 16 -15.5 28.5t-34 20.5t-34 28t-15.5 48z" />
    <glyph glyph-name="Ncaron" unicode="&#x147;" horiz-adv-x="1310" 
d="M135 0v1290h293l547 -1046v1046h199v-1290h-289l-549 1049v-1049h-201zM377 1679h168l108 -168l105 168h168l-178 -278h-193z" />
    <glyph glyph-name="ncaron" unicode="&#x148;" horiz-adv-x="931" 
d="M641 444q0 87 -34 142t-109 55q-52 0 -105 -29t-90 -71v-541h-194v778h167l19 -90q93 115 250 115q148 0 219.5 -87t71.5 -239v-477h-195v444zM190 1229h168l109 -170l104 170h168l-178 -283h-192z" />
    <glyph glyph-name="Omacron" unicode="&#x14c;" horiz-adv-x="1447" 
d="M713 -27q-133 0 -240 35.5t-179.5 96t-121.5 145t-70.5 180t-21.5 203.5q0 202 74 355t222.5 241t354.5 88q298 0 467.5 -179t169.5 -485q0 -144 -40 -265.5t-118.5 -215t-205.5 -146.5t-291 -53zM287 645q0 -98 26.5 -185.5t78 -157t135.5 -110t190 -40.5
q100 0 195.5 33.5t148.5 82.5q50 62 74 164t24 203q0 102 -27.5 192t-80.5 160t-137 111t-189 41q-96 0 -187.5 -32.5t-144.5 -78.5q-51 -64 -78.5 -171t-27.5 -212zM465 1442v151h520v-151h-520z" />
    <glyph glyph-name="omacron" unicode="&#x14d;" horiz-adv-x="925" 
d="M461 -27q-194 0 -299 110.5t-105 303.5q0 185 110.5 300.5t295.5 115.5q193 0 298 -109.5t105 -304.5q0 -187 -109 -301.5t-296 -114.5zM205 1006v149h520v-149h-520zM258 391q0 -108 52 -180t153 -72q49 0 96 14.5t72 39.5q37 54 37 192q0 109 -54 182.5t-153 73.5
q-109 0 -160 -51q-43 -58 -43 -199z" />
    <glyph glyph-name="Ohungarumlaut" unicode="&#x150;" horiz-adv-x="1447" 
d="M713 -27q-133 0 -240 35.5t-179.5 96t-121.5 145t-70.5 180t-21.5 203.5q0 202 74 355t222.5 241t354.5 88q298 0 467.5 -179t169.5 -485q0 -144 -40 -265.5t-118.5 -215t-205.5 -146.5t-291 -53zM287 645q0 -98 26.5 -185.5t78 -157t135.5 -110t190 -40.5
q100 0 195.5 33.5t148.5 82.5q50 62 74 164t24 203q0 102 -27.5 192t-80.5 160t-137 111t-189 41q-96 0 -187.5 -32.5t-144.5 -78.5q-51 -64 -78.5 -171t-27.5 -212zM516 1401l141 278h195l-182 -278h-154zM778 1401l183 278h192l-219 -278h-156z" />
    <glyph glyph-name="ohungarumlaut" unicode="&#x151;" horiz-adv-x="925" 
d="M461 -27q-194 0 -299 110.5t-105 303.5q0 185 110.5 300.5t295.5 115.5q193 0 298 -109.5t105 -304.5q0 -187 -109 -301.5t-296 -114.5zM242 946l141 279h192l-182 -279h-151zM258 391q0 -108 52 -180t153 -72q49 0 96 14.5t72 39.5q37 54 37 192q0 109 -54 182.5
t-153 73.5q-109 0 -160 -51q-43 -58 -43 -199zM502 946l182 279h188l-219 -279h-151z" />
    <glyph glyph-name="OE" unicode="&#x152;" horiz-adv-x="2060" 
d="M702 -27q-129 0 -234 35t-176.5 96t-119.5 145.5t-70 180.5t-22 203q0 202 74.5 356t221 241t347.5 87q286 0 444 -191v164h818v-176h-611v-391h533v-176h-533v-371h613v-176h-820v174q-161 -201 -465 -201zM287 645q0 -98 26.5 -185.5t78 -157t135.5 -110t190 -40.5
q100 0 195.5 33.5t148.5 82.5q50 62 74 164t24 203q0 102 -27.5 192t-80.5 160t-137 111t-189 41q-96 0 -187.5 -32.5t-144.5 -78.5q-51 -64 -78.5 -171t-27.5 -212z" />
    <glyph glyph-name="oe" unicode="&#x153;" horiz-adv-x="1503" 
d="M461 -27q-194 0 -299 110.5t-105 303.5q0 185 110.5 300.5t295.5 115.5q211 0 315 -129q110 129 297 129q87 0 155 -25t110.5 -69t69.5 -104.5t32.5 -132t-0.5 -150.5h-570q2 -82 66 -134.5t180 -52.5q124 0 232 64l41 -150q-120 -76 -295 -76q-220 0 -326 127
q-114 -127 -309 -127zM258 391q0 -108 52 -180t153 -72q49 0 96 14.5t72 39.5q37 54 37 192q0 109 -54 182.5t-153 73.5q-109 0 -160 -51q-43 -58 -43 -199zM872 469h390q-6 84 -56.5 129t-132.5 45q-105 0 -164 -59q-34 -61 -37 -115z" />
    <glyph glyph-name="Racute" unicode="&#x154;" horiz-adv-x="1216" 
d="M135 0v1290h486q139 0 236 -26t153 -78.5t80 -121t24 -163.5q0 -150 -79 -245t-216 -130l342 -526h-254l-307 500h-258v-500h-207zM342 676h279q149 0 229 39q55 63 55 184q0 106 -63.5 160.5t-220.5 54.5h-279v-438zM520 1401l162 278h215l-205 -278h-172z" />
    <glyph glyph-name="racute" unicode="&#x155;" horiz-adv-x="659" 
d="M109 0v778h167l21 -94q79 119 219 119q79 0 143 -43l-53 -180q-71 51 -129 51q-53 0 -98.5 -29.5t-75.5 -75.5v-526h-194zM244 946l162 279h215l-205 -279h-172z" />
    <glyph glyph-name="uni0156" unicode="&#x156;" horiz-adv-x="1216" 
d="M135 0v1290h486q139 0 236 -26t153 -78.5t80 -121t24 -163.5q0 -150 -79 -245t-216 -130l342 -526h-254l-307 500h-258v-500h-207zM342 676h279q149 0 229 39q55 63 55 184q0 106 -63.5 160.5t-220.5 54.5h-279v-438zM494 -201q0 43 30 69t82 26q66 0 98.5 -35.5
t32.5 -94.5q0 -77 -46.5 -145t-119.5 -106l-57 67q78 59 78 94q0 16 -15.5 28.5t-33.5 20.5t-33.5 28t-15.5 48z" />
    <glyph glyph-name="uni0157" unicode="&#x157;" horiz-adv-x="659" 
d="M109 0v778h167l21 -94q79 119 219 119q79 0 143 -43l-53 -180q-71 51 -129 51q-53 0 -98.5 -29.5t-75.5 -75.5v-526h-194zM92 -201q0 43 30.5 69t82.5 26q66 0 98.5 -35.5t32.5 -94.5q0 -77 -46.5 -145t-119.5 -106l-57 67q77 58 77 94q0 16 -15.5 28.5t-33.5 20.5
t-33.5 28t-15.5 48z" />
    <glyph glyph-name="Rcaron" unicode="&#x158;" horiz-adv-x="1216" 
d="M135 0v1290h486q139 0 236 -26t153 -78.5t80 -121t24 -163.5q0 -150 -79 -245t-216 -130l342 -526h-254l-307 500h-258v-500h-207zM332 1679h168l108 -168l105 168h168l-179 -278h-192zM342 676h279q149 0 229 39q55 63 55 184q0 106 -63.5 160.5t-220.5 54.5h-279v-438z
" />
    <glyph glyph-name="rcaron" unicode="&#x159;" horiz-adv-x="659" 
d="M109 0v778h167l21 -94q79 119 219 119q79 0 143 -43l-53 -180q-71 51 -129 51q-53 0 -98.5 -29.5t-75.5 -75.5v-526h-194zM76 1229h168l108 -170l105 170h168l-179 -283h-192z" />
    <glyph glyph-name="Sacute" unicode="&#x15a;" horiz-adv-x="1101" 
d="M514 -27q-256 0 -444 123l51 187q84 -64 204 -97.5t222 -33.5q114 0 194 26q38 23 63 66.5t25 95.5q0 61 -41 102.5t-106 64.5t-143.5 42.5t-157.5 45.5t-144 63t-106 105t-41 163q0 179 132.5 285t346.5 106q108 0 216 -29.5t186 -95.5l-49 -178q-80 60 -185 92.5
t-209 32.5q-102 0 -182 -41q-24 -25 -40.5 -64.5t-16.5 -81.5q0 -47 25.5 -82t68.5 -57t99 -39t118 -32t123.5 -33t117.5 -45.5t99 -65t68.5 -96.5t25.5 -135q0 -185 -140 -289.5t-380 -104.5zM461 1401l162 278h215l-205 -278h-172z" />
    <glyph glyph-name="sacute" unicode="&#x15b;" horiz-adv-x="745" 
d="M356 -25q-180 0 -311 76l49 168q52 -43 128 -63.5t149 -20.5q70 0 123 17q20 27 20 57q0 24 -19 41.5t-50.5 27t-71.5 20t-82 19.5t-82 27t-71.5 41t-50.5 62.5t-19 91.5q0 87 44.5 148t115 88.5t159.5 27.5q182 0 285 -78l-47 -162q-52 39 -119.5 61.5t-128.5 22.5
t-113 -22q-14 -25 -14 -52q0 -29 25 -48.5t64.5 -30t87.5 -20.5t96 -26t87.5 -39t64.5 -66t25 -103q0 -70 -28.5 -122.5t-78 -83t-109 -45t-128.5 -14.5zM268 946l162 279h215l-205 -279h-172z" />
    <glyph glyph-name="Scircumflex" unicode="&#x15c;" horiz-adv-x="1101" 
d="M514 -27q-256 0 -444 123l51 187q84 -64 204 -97.5t222 -33.5q114 0 194 26q38 23 63 66.5t25 95.5q0 61 -41 102.5t-106 64.5t-143.5 42.5t-157.5 45.5t-144 63t-106 105t-41 163q0 179 132.5 285t346.5 106q108 0 216 -29.5t186 -95.5l-49 -178q-80 60 -185 92.5
t-209 32.5q-102 0 -182 -41q-24 -25 -40.5 -64.5t-16.5 -81.5q0 -47 25.5 -82t68.5 -57t99 -39t118 -32t123.5 -33t117.5 -45.5t99 -65t68.5 -96.5t25.5 -135q0 -185 -140 -289.5t-380 -104.5zM272 1401l179 278h192l178 -278h-168l-104 168l-109 -168h-168z" />
    <glyph glyph-name="scircumflex" unicode="&#x15d;" horiz-adv-x="745" 
d="M356 -25q-180 0 -311 76l49 168q52 -43 128 -63.5t149 -20.5q70 0 123 17q20 27 20 57q0 24 -19 41.5t-50.5 27t-71.5 20t-82 19.5t-82 27t-71.5 41t-50.5 62.5t-19 91.5q0 87 44.5 148t115 88.5t159.5 27.5q182 0 285 -78l-47 -162q-52 39 -119.5 61.5t-128.5 22.5
t-113 -22q-14 -25 -14 -52q0 -29 25 -48.5t64.5 -30t87.5 -20.5t96 -26t87.5 -39t64.5 -66t25 -103q0 -70 -28.5 -122.5t-78 -83t-109 -45t-128.5 -14.5zM100 946l179 279h192l178 -279h-168l-104 168l-109 -168h-168z" />
    <glyph glyph-name="Scedilla" unicode="&#x15e;" horiz-adv-x="1101" 
d="M541 -401q-65 0 -135 24l18 107q22 -10 54 -15t63.5 -3t54 18t22.5 45q0 63 -102 63h-76l35 135q-233 9 -405 123l51 187q84 -64 204 -97.5t222 -33.5q114 0 194 26q38 23 63 66.5t25 95.5q0 61 -41 102.5t-106 64.5t-143.5 42.5t-157.5 45.5t-144 63t-106 105t-41 163
q0 179 132.5 285t346.5 106q108 0 216 -29.5t186 -95.5l-49 -178q-80 60 -185 92.5t-209 32.5q-102 0 -182 -41q-24 -25 -40.5 -64.5t-16.5 -81.5q0 -47 25.5 -82t68.5 -57t99 -39t118 -32t123.5 -33t117.5 -45.5t99 -65t68.5 -96.5t25.5 -135q0 -167 -117 -270t-321 -120
l-14 -59q75 2 125.5 -32t50.5 -111q0 -87 -62.5 -131.5t-154.5 -44.5z" />
    <glyph glyph-name="scedilla" unicode="&#x15f;" horiz-adv-x="745" 
d="M352 -401q-65 0 -135 24l19 107q22 -10 54 -15t63.5 -3t54 18t22.5 45q0 63 -102 63h-76l35 139q-136 13 -242 74l49 168q52 -43 128 -63.5t149 -20.5q70 0 123 17q20 27 20 57q0 24 -19 41.5t-50.5 27t-71.5 20t-82 19.5t-82 27t-71.5 41t-50.5 62.5t-19 91.5
q0 87 44.5 148t115 88.5t159.5 27.5q182 0 285 -78l-47 -162q-52 39 -119.5 61.5t-128.5 22.5t-113 -22q-14 -25 -14 -52q0 -29 25 -48.5t64.5 -30t87.5 -20.5t96 -26t87.5 -39t64.5 -66t25 -103q0 -63 -23.5 -112.5t-64.5 -80.5t-92 -48t-112 -22l-15 -59q75 2 125.5 -32
t50.5 -111q0 -87 -62.5 -131.5t-154.5 -44.5z" />
    <glyph glyph-name="Scaron" unicode="&#x160;" horiz-adv-x="1101" 
d="M514 -27q-256 0 -444 123l51 187q84 -64 204 -97.5t222 -33.5q114 0 194 26q38 23 63 66.5t25 95.5q0 61 -41 102.5t-106 64.5t-143.5 42.5t-157.5 45.5t-144 63t-106 105t-41 163q0 179 132.5 285t346.5 106q108 0 216 -29.5t186 -95.5l-49 -178q-80 60 -185 92.5
t-209 32.5q-102 0 -182 -41q-24 -25 -40.5 -64.5t-16.5 -81.5q0 -47 25.5 -82t68.5 -57t99 -39t118 -32t123.5 -33t117.5 -45.5t99 -65t68.5 -96.5t25.5 -135q0 -185 -140 -289.5t-380 -104.5zM272 1679h168l109 -168l104 168h168l-178 -278h-192z" />
    <glyph glyph-name="scaron" unicode="&#x161;" horiz-adv-x="745" 
d="M356 -25q-180 0 -311 76l49 168q52 -43 128 -63.5t149 -20.5q70 0 123 17q20 27 20 57q0 24 -19 41.5t-50.5 27t-71.5 20t-82 19.5t-82 27t-71.5 41t-50.5 62.5t-19 91.5q0 87 44.5 148t115 88.5t159.5 27.5q182 0 285 -78l-47 -162q-52 39 -119.5 61.5t-128.5 22.5
t-113 -22q-14 -25 -14 -52q0 -29 25 -48.5t64.5 -30t87.5 -20.5t96 -26t87.5 -39t64.5 -66t25 -103q0 -70 -28.5 -122.5t-78 -83t-109 -45t-128.5 -14.5zM100 1229h168l109 -170l104 170h168l-178 -283h-192z" />
    <glyph glyph-name="uni0162" unicode="&#x162;" horiz-adv-x="1083" 
d="M438 0v1112h-413v178h1036v-178h-416v-1112h-47l-20 -82q75 2 125.5 -32t50.5 -111q0 -87 -62.5 -131.5t-154.5 -44.5q-66 0 -136 24l19 107q22 -10 54 -15t63.5 -3t54 18t22.5 45q0 63 -102 63h-76l41 162h-39z" />
    <glyph glyph-name="uni0163" unicode="&#x163;" horiz-adv-x="684" 
d="M41 621v157h135v273h193v-273h247v-157h-247v-345q0 -65 33 -101t98 -36q59 0 110 29l33 -152q-70 -43 -186 -43l-15 -55q75 2 125.5 -32t50.5 -111q0 -87 -62.5 -131.5t-154.5 -44.5q-65 0 -135 24l19 107q22 -10 54 -15t63.5 -3t54 18t22.5 45q0 63 -102 63h-76l37 152
q-80 27 -121 97t-41 173v361h-135z" />
    <glyph glyph-name="Tcaron" unicode="&#x164;" horiz-adv-x="1083" 
d="M438 0v1112h-413v178h1036v-178h-416v-1112h-207zM270 1679h168l109 -168l104 168h168l-178 -278h-192z" />
    <glyph glyph-name="tcaron" unicode="&#x165;" horiz-adv-x="684" 
d="M446 -27q-134 0 -202 77t-68 210v361h-135v157h135v273h193v-273h247v-157h-247v-345q0 -65 33 -101t98 -36q59 0 110 29l33 -152q-69 -43 -197 -43zM446 946l21 385h168l-62 -385h-127z" />
    <glyph glyph-name="Utilde" unicode="&#x168;" horiz-adv-x="1275" 
d="M639 -25q-243 0 -377.5 129t-134.5 408v778h203v-778q0 -193 77.5 -275.5t231.5 -82.5q171 0 242 59q65 81 65 299v778h203v-778q0 -279 -134 -408t-376 -129zM342 1401q0 112 46.5 171.5t133.5 59.5q38 0 75 -17.5t60.5 -38.5t49.5 -38.5t45 -17.5q57 0 57 98h131
q0 -112 -47.5 -172t-132.5 -60q-38 0 -75.5 17.5t-61 39t-49.5 39t-44 17.5q-57 0 -57 -98h-131z" />
    <glyph glyph-name="utilde" unicode="&#x169;" horiz-adv-x="929" 
d="M387 -27q-143 0 -217 88.5t-74 235.5v481h195v-452q0 -80 35.5 -133.5t113.5 -53.5q49 0 99.5 24.5t87.5 59.5v555h194v-778h-166l-20 80q-44 -52 -109 -79.5t-139 -27.5zM168 942q0 112 46.5 172t133.5 60q38 0 75 -17.5t60.5 -39t49.5 -39t45 -17.5q27 0 42 26t15 72
h131q0 -112 -47.5 -171.5t-132.5 -59.5q-38 0 -75.5 17.5t-61 38.5t-49.5 38.5t-44 17.5q-57 0 -57 -98h-131z" />
    <glyph glyph-name="Umacron" unicode="&#x16a;" horiz-adv-x="1275" 
d="M639 -25q-243 0 -377.5 129t-134.5 408v778h203v-778q0 -193 77.5 -275.5t231.5 -82.5q171 0 242 59q65 81 65 299v778h203v-778q0 -279 -134 -408t-376 -129zM381 1442v151h520v-151h-520z" />
    <glyph glyph-name="umacron" unicode="&#x16b;" horiz-adv-x="929" 
d="M387 -27q-143 0 -217 88.5t-74 235.5v481h195v-452q0 -80 35.5 -133.5t113.5 -53.5q49 0 99.5 24.5t87.5 59.5v555h194v-778h-166l-20 80q-44 -52 -109 -79.5t-139 -27.5zM207 1006v149h520v-149h-520z" />
    <glyph glyph-name="Ubreve" unicode="&#x16c;" horiz-adv-x="1275" 
d="M639 -25q-243 0 -377.5 129t-134.5 408v778h203v-778q0 -193 77.5 -275.5t231.5 -82.5q171 0 242 59q65 81 65 299v778h203v-778q0 -279 -134 -408t-376 -129zM352 1663l142 23q10 -80 46 -117t99 -37t99 37t46 117l142 -23q-15 -129 -87.5 -199.5t-199.5 -70.5
q-124 0 -198 71t-89 199z" />
    <glyph glyph-name="ubreve" unicode="&#x16d;" horiz-adv-x="929" 
d="M387 -27q-143 0 -217 88.5t-74 235.5v481h195v-452q0 -80 35.5 -133.5t113.5 -53.5q49 0 99.5 24.5t87.5 59.5v555h194v-778h-166l-20 80q-44 -52 -109 -79.5t-139 -27.5zM178 1208l141 23q10 -80 46.5 -117t99.5 -37t99 37t46 117l142 -23q-15 -129 -87.5 -199.5
t-199.5 -70.5q-124 0 -198 71t-89 199z" />
    <glyph glyph-name="Uring" unicode="&#x16e;" horiz-adv-x="1275" 
d="M639 -25q-243 0 -377.5 129t-134.5 408v778h203v-778q0 -193 77.5 -275.5t231.5 -82.5q171 0 242 59q65 81 65 299v778h203v-778q0 -279 -134 -408t-376 -129zM436 1552q0 90 57 142.5t144 52.5q90 0 147.5 -52.5t57.5 -142.5q0 -88 -57.5 -140t-147.5 -52
q-87 0 -144 52.5t-57 139.5zM551 1552q0 -37 23.5 -62.5t62.5 -25.5q40 0 64 25.5t24 62.5q0 40 -23.5 65t-64.5 25q-39 0 -62.5 -25t-23.5 -65z" />
    <glyph glyph-name="uring" unicode="&#x16f;" horiz-adv-x="929" 
d="M387 -27q-143 0 -217 88.5t-74 235.5v481h195v-452q0 -80 35.5 -133.5t113.5 -53.5q49 0 99.5 24.5t87.5 59.5v555h194v-778h-166l-20 80q-44 -52 -109 -79.5t-139 -27.5zM272 1085q0 85 52.5 136t140.5 51q89 0 141.5 -51t52.5 -136q0 -84 -52.5 -134t-141.5 -50
q-88 0 -140.5 50.5t-52.5 133.5zM379 1085q0 -41 22.5 -64.5t63.5 -23.5t64.5 23.5t23.5 64.5q0 43 -23.5 67t-64.5 24t-63.5 -24t-22.5 -67z" />
    <glyph glyph-name="Uhungarumlaut" unicode="&#x170;" horiz-adv-x="1275" 
d="M639 -25q-243 0 -377.5 129t-134.5 408v778h203v-778q0 -193 77.5 -275.5t231.5 -82.5q171 0 242 59q65 81 65 299v778h203v-778q0 -279 -134 -408t-376 -129zM432 1401l141 278h195l-182 -278h-154zM694 1401l183 278h192l-219 -278h-156z" />
    <glyph glyph-name="uhungarumlaut" unicode="&#x171;" horiz-adv-x="929" 
d="M387 -27q-143 0 -217 88.5t-74 235.5v481h195v-452q0 -80 35.5 -133.5t113.5 -53.5q49 0 99.5 24.5t87.5 59.5v555h194v-778h-166l-20 80q-44 -52 -109 -79.5t-139 -27.5zM244 946l141 279h193l-183 -279h-151zM504 946l182 279h188l-219 -279h-151z" />
    <glyph glyph-name="Uogonek" unicode="&#x172;" horiz-adv-x="1275" 
d="M696 -401q-85 0 -142.5 43t-57.5 127q0 110 118 206q-487 13 -487 537v778h203v-778q0 -193 77.5 -275.5t231.5 -82.5q171 0 242 59q65 81 65 299v778h203v-778q0 -430 -330 -516q-77 -44 -120.5 -96t-43.5 -105q0 -59 72 -59q39 0 68 18l30 -127q-61 -28 -129 -28z" />
    <glyph glyph-name="uogonek" unicode="&#x173;" horiz-adv-x="929" 
d="M387 -27q-143 0 -217 88.5t-74 235.5v481h195v-452q0 -80 35.5 -133.5t113.5 -53.5q49 0 99.5 24.5t87.5 59.5v555h194v-778h-18q-80 -44 -125 -97.5t-45 -107.5q0 -59 72 -59q38 0 67 18l31 -127q-61 -28 -129 -28q-85 0 -143 43t-58 127q0 76 51 139t127 108l-16 64
q-44 -52 -109 -79.5t-139 -27.5z" />
    <glyph glyph-name="Wcircumflex" unicode="&#x174;" horiz-adv-x="1875" 
d="M414 0l-379 1290h207l290 -1020l299 1020h213l297 -1020l295 1020h205l-383 -1290h-229l-291 989l-291 -989h-233zM666 1401l178 278h192l178 -278h-167l-105 168l-108 -168h-168z" />
    <glyph glyph-name="wcircumflex" unicode="&#x175;" horiz-adv-x="1406" 
d="M311 0l-297 778h209l193 -577l192 577h195l192 -577l193 577h205l-297 -778h-205l-189 555l-188 -555h-203zM430 946l178 279h193l178 -279h-168l-104 168l-109 -168h-168z" />
    <glyph glyph-name="Ycircumflex" unicode="&#x176;" horiz-adv-x="1308" 
d="M551 0v453l-516 837h233l387 -647l387 647h232l-516 -837v-453h-207zM381 1401l178 278h193l178 -278h-168l-105 168l-108 -168h-168z" />
    <glyph glyph-name="ycircumflex" unicode="&#x177;" horiz-adv-x="929" 
d="M399 -412q-163 0 -295 74l50 170q115 -76 249 -76q115 0 175 47q29 42 38 101t11 194q-89 -96 -236 -96q-146 0 -220.5 86.5t-74.5 241.5v448h195v-428q0 -94 40 -141t107 -47q51 0 102.5 24.5t86.5 57.5v534h194v-758q0 -80 -16.5 -145t-42.5 -109t-63 -77.5t-74.5 -52
t-80.5 -30t-76.5 -15t-68.5 -3.5zM193 946l178 279h192l178 -279h-168l-104 168l-109 -168h-167z" />
    <glyph glyph-name="Ydieresis" unicode="&#x178;" horiz-adv-x="1308" 
d="M551 0v453l-516 837h233l387 -647l387 647h232l-516 -837v-453h-207zM358 1542q0 48 35.5 83.5t85.5 35.5q51 0 87 -35.5t36 -83.5q0 -50 -36 -85.5t-87 -35.5t-86 35.5t-35 85.5zM709 1542q0 48 35 83.5t85 35.5t85.5 -35.5t35.5 -83.5q0 -50 -35 -85.5t-86 -35.5
t-85.5 35.5t-34.5 85.5z" />
    <glyph glyph-name="Zacute" unicode="&#x179;" horiz-adv-x="1103" 
d="M66 0v154l694 958h-670v178h928v-153l-694 -959h714v-178h-972zM477 1401l162 278h215l-205 -278h-172z" />
    <glyph glyph-name="zacute" unicode="&#x17a;" horiz-adv-x="778" 
d="M68 0v145l401 476h-395v157h626v-145l-401 -475h410v-158h-641zM283 946l161 279h215l-204 -279h-172z" />
    <glyph glyph-name="Zdotaccent" unicode="&#x17b;" horiz-adv-x="1103" 
d="M66 0v154l694 958h-670v178h928v-153l-694 -959h714v-178h-972zM440 1542q0 48 35 83.5t86 35.5q52 0 87.5 -35.5t35.5 -83.5q0 -50 -35.5 -85.5t-87.5 -35.5t-86.5 35.5t-34.5 85.5z" />
    <glyph glyph-name="zdotaccent" unicode="&#x17c;" horiz-adv-x="778" 
d="M68 0v145l401 476h-395v157h626v-145l-401 -475h410v-158h-641zM264 1087q0 50 35.5 85.5t87.5 35.5q53 0 88 -35.5t35 -85.5t-35 -85t-88 -35q-52 0 -87.5 35t-35.5 85z" />
    <glyph glyph-name="Zcaron" unicode="&#x17d;" horiz-adv-x="1103" 
d="M66 0v154l694 958h-670v178h928v-153l-694 -959h714v-178h-972zM289 1679h168l108 -168l105 168h168l-179 -278h-192z" />
    <glyph glyph-name="zcaron" unicode="&#x17e;" horiz-adv-x="778" 
d="M68 0v145l401 476h-395v157h626v-145l-401 -475h410v-158h-641zM115 1229h168l108 -170l105 170h168l-179 -283h-192z" />
    <glyph glyph-name="uni018F" unicode="&#x18f;" horiz-adv-x="1396" 
d="M666 -27q-196 0 -335 97.5t-202 266t-47 384.5h1022q-9 89 -38.5 162t-82.5 131.5t-137.5 91.5t-194.5 33q-105 0 -209.5 -28.5t-181.5 -68.5l-43 158q176 117 440 117q317 0 488.5 -177.5t171.5 -486.5q0 -143 -38.5 -263.5t-115.5 -215t-204 -148t-293 -53.5zM297 545
q11 -173 108 -283t273 -110q117 0 193.5 33t142.5 91q72 104 88 269h-805z" />
    <glyph glyph-name="florin" unicode="&#x191;" horiz-adv-x="1099" 
d="M82 -178q162 -27 244 57q41 77 73 293l64 397h-232v150h254l35 215q37 228 160 318t338 46l-25 -163q-50 20 -120 15.5t-107 -38.5q-34 -52 -55 -182l-33 -211h301v-150h-326l-63 -405q-99 -626 -508 -504v162z" />
    <glyph glyph-name="florin" unicode="&#x192;" horiz-adv-x="1099" 
d="M82 -178q162 -27 244 57q41 77 73 293l64 397h-232v150h254l35 215q37 228 160 318t338 46l-25 -163q-50 20 -120 15.5t-107 -38.5q-34 -52 -55 -182l-33 -211h301v-150h-326l-63 -405q-99 -626 -508 -504v162z" />
    <glyph glyph-name="uni0218" unicode="&#x218;" horiz-adv-x="1101" 
d="M514 -27q-256 0 -444 123l51 187q84 -64 204 -97.5t222 -33.5q114 0 194 26q38 23 63 66.5t25 95.5q0 61 -41 102.5t-106 64.5t-143.5 42.5t-157.5 45.5t-144 63t-106 105t-41 163q0 179 132.5 285t346.5 106q108 0 216 -29.5t186 -95.5l-49 -178q-80 60 -185 92.5
t-209 32.5q-102 0 -182 -41q-24 -25 -40.5 -64.5t-16.5 -81.5q0 -47 25.5 -82t68.5 -57t99 -39t118 -32t123.5 -33t117.5 -45.5t99 -65t68.5 -96.5t25.5 -135q0 -185 -140 -289.5t-380 -104.5zM434 -201q0 43 30.5 69t82.5 26q66 0 98.5 -35.5t32.5 -94.5q0 -77 -46.5 -145
t-119.5 -106l-57 67q77 58 77 94q0 16 -15.5 28.5t-33.5 20.5t-33.5 28t-15.5 48z" />
    <glyph glyph-name="uni0219" unicode="&#x219;" horiz-adv-x="745" 
d="M356 -25q-180 0 -311 76l49 168q52 -43 128 -63.5t149 -20.5q70 0 123 17q20 27 20 57q0 24 -19 41.5t-50.5 27t-71.5 20t-82 19.5t-82 27t-71.5 41t-50.5 62.5t-19 91.5q0 87 44.5 148t115 88.5t159.5 27.5q182 0 285 -78l-47 -162q-52 39 -119.5 61.5t-128.5 22.5
t-113 -22q-14 -25 -14 -52q0 -29 25 -48.5t64.5 -30t87.5 -20.5t96 -26t87.5 -39t64.5 -66t25 -103q0 -70 -28.5 -122.5t-78 -83t-109 -45t-128.5 -14.5zM248 -201q0 43 30 69t82 26q66 0 99 -35.5t33 -94.5q0 -77 -46.5 -145t-119.5 -106l-58 67q78 59 78 94
q0 16 -15.5 28.5t-33.5 20.5t-33.5 28t-15.5 48z" />
    <glyph glyph-name="uni021A" unicode="&#x21a;" horiz-adv-x="1083" 
d="M438 0v1112h-413v178h1036v-178h-416v-1112h-207zM432 -201q0 43 30.5 69t82.5 26q66 0 98.5 -35.5t32.5 -94.5q0 -77 -46.5 -145t-119.5 -106l-57 67q77 58 77 94q0 16 -15.5 28.5t-33.5 20.5t-33.5 28t-15.5 48z" />
    <glyph glyph-name="uni021B" unicode="&#x21b;" horiz-adv-x="684" 
d="M446 -27q-134 0 -202 77t-68 210v361h-135v157h135v273h193v-273h247v-157h-247v-345q0 -65 33 -101t98 -36q59 0 110 29l33 -152q-69 -43 -197 -43zM297 -201q0 43 30.5 69t82.5 26q66 0 98.5 -35.5t32.5 -94.5q0 -77 -46.5 -145t-119.5 -106l-58 67q78 59 78 94
q0 16 -15.5 28.5t-33.5 20.5t-33.5 28t-15.5 48z" />
    <glyph glyph-name="uni0237" unicode="&#x237;" horiz-adv-x="411" 
d="M-96 -244q89 7 147 72t58 195v755h194v-702q0 -428 -338 -486z" />
    <glyph glyph-name="uni0259" unicode="&#x259;" horiz-adv-x="878" 
d="M408 805q190 0 301.5 -102t111.5 -300q0 -190 -105.5 -309t-287.5 -119q-109 0 -186.5 38t-119 105.5t-56.5 152t-5 186.5h570q-2 82 -66 134t-180 52q-125 0 -231 -63l-41 149q120 76 295 76zM242 309q6 -84 56.5 -129t131.5 -45q104 0 164 60q34 61 37 114h-389z" />
    <glyph glyph-name="uni02BC" unicode="&#x2bc;" horiz-adv-x="360" 
d="M96 940q76 73 76 131q0 26 -17 44.5t-37.5 29t-37.5 35.5t-17 63q0 51 31 82t82 31q121 0 121 -168q0 -183 -141 -303z" />
    <glyph glyph-name="circumflex" unicode="&#x2c6;" horiz-adv-x="712" 
d="M82 946l178 279h193l178 -279h-168l-105 168l-108 -168h-168z" />
    <glyph glyph-name="caron" unicode="&#x2c7;" horiz-adv-x="712" 
d="M260 946l-178 283h168l108 -170l105 170h168l-178 -283h-193z" />
    <glyph glyph-name="breve" unicode="&#x2d8;" horiz-adv-x="737" 
d="M369 938q-124 0 -198 71t-89 199l141 23q10 -80 46.5 -117t99.5 -37t99 37t46 117l141 -23q-15 -129 -87.5 -199.5t-198.5 -70.5z" />
    <glyph glyph-name="dotaccent" unicode="&#x2d9;" horiz-adv-x="409" 
d="M205 967q-52 0 -87.5 35t-35.5 85t35.5 85.5t87.5 35.5q53 0 88 -35.5t35 -85.5t-35 -85t-88 -35z" />
    <glyph glyph-name="ring" unicode="&#x2da;" horiz-adv-x="550" 
d="M274 901q-88 0 -140 50.5t-52 133.5q0 85 52 136t140 51q89 0 142 -51t53 -136q0 -83 -53 -133.5t-142 -50.5zM188 1085q0 -41 22.5 -64.5t63.5 -23.5t64.5 23.5t23.5 64.5q0 43 -23.5 67t-64.5 24t-63.5 -24t-22.5 -67z" />
    <glyph glyph-name="ogonek" unicode="&#x2db;" horiz-adv-x="493" 
d="M283 -401q-85 0 -143 43t-58 127q0 54 28 104.5t72 86.5t86.5 60.5t81.5 38.5l62 -59q-80 -44 -125 -97.5t-45 -107.5q0 -59 71 -59q39 0 68 18l31 -127q-61 -28 -129 -28z" />
    <glyph glyph-name="tilde" unicode="&#x2dc;" horiz-adv-x="761" 
d="M500 928q-38 0 -75.5 17.5t-61 38.5t-49.5 38.5t-44 17.5q-57 0 -57 -98h-131q0 112 46.5 172t133.5 60q38 0 75 -17.5t60.5 -39t49.5 -39t45 -17.5q27 0 42 26t15 72h131q0 -112 -47.5 -171.5t-132.5 -59.5z" />
    <glyph glyph-name="hungarumlaut" unicode="&#x2dd;" horiz-adv-x="794" 
d="M82 946l141 279h193l-183 -279h-151zM342 946l182 279h189l-219 -279h-152z" />
    <glyph glyph-name="gravecomb" unicode="&#x300;" 
d="M283 946l-201 279h209l158 -279h-166z" />
    <glyph glyph-name="acutecomb" unicode="&#x301;" 
d="M82 946l162 279h215l-205 -279h-172z" />
    <glyph glyph-name="uni0302" unicode="&#x302;" 
d="M82 946l178 279h193l178 -279h-168l-105 168l-108 -168h-168z" />
    <glyph glyph-name="tildecomb" unicode="&#x303;" 
d="M500 928q-38 0 -75.5 17.5t-61 38.5t-49.5 38.5t-44 17.5q-57 0 -57 -98h-131q0 112 46.5 172t133.5 60q38 0 75 -17.5t60.5 -39t49.5 -39t45 -17.5q27 0 42 26t15 72h131q0 -112 -47.5 -171.5t-132.5 -59.5z" />
    <glyph glyph-name="uni0304" unicode="&#x304;" 
d="M82 1006v149h520v-149h-520z" />
    <glyph glyph-name="uni0306" unicode="&#x306;" 
d="M369 938q-124 0 -198 71t-89 199l141 23q10 -80 46.5 -117t99.5 -37t99 37t46 117l141 -23q-15 -129 -87.5 -199.5t-198.5 -70.5z" />
    <glyph glyph-name="uni0307" unicode="&#x307;" 
d="M205 967q-52 0 -87.5 35t-35.5 85t35.5 85.5t87.5 35.5q53 0 88 -35.5t35 -85.5t-35 -85t-88 -35z" />
    <glyph glyph-name="uni0308" unicode="&#x308;" 
d="M203 967q-51 0 -86 35t-35 85q0 51 35 86t86 35t86 -35t35 -86q0 -50 -35 -85t-86 -35zM426 1087q0 51 36 86t87 35t86 -35t35 -86q0 -50 -35 -85t-86 -35t-87 35t-36 85z" />
    <glyph glyph-name="uni030A" unicode="&#x30a;" 
d="M274 901q-88 0 -140 50.5t-52 133.5q0 85 52 136t140 51q89 0 142 -51t53 -136q0 -83 -53 -133.5t-142 -50.5zM188 1085q0 -41 22.5 -64.5t63.5 -23.5t64.5 23.5t23.5 64.5q0 43 -23.5 67t-64.5 24t-63.5 -24t-22.5 -67z" />
    <glyph glyph-name="uni030B" unicode="&#x30b;" 
d="M82 946l141 279h193l-183 -279h-151zM342 946l182 279h189l-219 -279h-152z" />
    <glyph glyph-name="uni030C" unicode="&#x30c;" 
d="M260 946l-178 283h168l108 -170l105 170h168l-178 -283h-193z" />
    <glyph glyph-name="uni0312" unicode="&#x312;" 
d="M213 897q-66 0 -98.5 35t-32.5 94q0 77 46 144.5t118 107.5l59 -68q-80 -58 -80 -94q0 -16 16 -29t34.5 -21t34.5 -27.5t16 -47.5q0 -43 -30.5 -68.5t-82.5 -25.5z" />
    <glyph glyph-name="uni0326" unicode="&#x326;" 
d="M102 -420q78 59 78 94q0 16 -15.5 28.5t-33.5 20.5t-33.5 28t-15.5 48q0 43 30.5 69t82.5 26q66 0 98.5 -35.5t32.5 -94.5q0 -77 -46.5 -145t-119.5 -106z" />
    <glyph glyph-name="uni0327" unicode="&#x327;" 
d="M217 -401q-65 0 -135 24l18 107q31 -14 75 -18.5t82 10.5t38 53q0 63 -102 63h-76l53 213h121l-33 -133q75 2 125.5 -32t50.5 -111q0 -87 -62.5 -131.5t-154.5 -44.5z" />
    <glyph glyph-name="uni0328" unicode="&#x328;" 
d="M283 -401q-85 0 -143 43t-58 127q0 54 28 104.5t72 86.5t86.5 60.5t81.5 38.5l62 -59q-80 -44 -125 -97.5t-45 -107.5q0 -59 71 -59q39 0 68 18l31 -127q-61 -28 -129 -28z" />
    <glyph glyph-name="uni03A9" unicode="&#x3a9;" horiz-adv-x="1447" 
d="M84 0v193h231q-235 136 -235 512q0 130 44 241.5t125 194t205 129.5t277 47q150 0 271 -45.5t201 -125.5t122.5 -188.5t42.5 -236.5q0 -196 -70.5 -327t-195.5 -201h262v-193h-545v172q167 59 254.5 193t87.5 313q0 127 -49 230.5t-149 167t-236 63.5q-99 0 -191.5 -31
t-148.5 -74q-98 -118 -98 -356q0 -194 83.5 -319.5t258.5 -186.5v-172h-547z" />
    <glyph glyph-name="pi" unicode="&#x3c0;" horiz-adv-x="970" 
d="M780 -27q-215 0 -215 232v407h-221v-612h-190v612h-113v166h883v-166h-172v-389q0 -80 63 -80q37 0 82 25l33 -156q-65 -39 -150 -39z" />
    <glyph glyph-name="uni060C" unicode="&#x60c;" horiz-adv-x="452" 
d="M238 -20q-125 0 -125 161q0 113 50.5 218t125.5 169l61 -59q-100 -108 -100 -184q0 -25 11 -42.5t27 -29t32 -24t27 -35t11 -54.5q0 -57 -32 -88.5t-88 -31.5z" />
    <glyph glyph-name="uni061B" unicode="&#x61b;" horiz-adv-x="503" 
d="M264 426q-123 0 -123 160q0 111 50 215.5t124 167.5l62 -60q-98 -106 -98 -182q0 -25 11 -42t26.5 -28t31 -23t26.5 -34t11 -53q0 -57 -32.5 -89t-88.5 -32zM129 100q0 53 35 89t88 36t88 -36t35 -89q0 -54 -34.5 -89.5t-88.5 -35.5t-88.5 35.5t-34.5 89.5z" />
    <glyph glyph-name="uni061F" unicode="&#x61f;" horiz-adv-x="856" 
d="M469 369q0 48 -20.5 87.5t-53.5 68.5t-72.5 56.5t-79.5 60.5t-73 72t-53.5 99.5t-20.5 134.5q0 182 114.5 274.5t303.5 92.5q85 0 162 -17.5t125 -42.5l-51 -163q-40 21 -106 36t-126 15q-106 0 -169.5 -52t-63.5 -147q0 -50 20.5 -92.5t53.5 -73.5t72.5 -61t79 -62.5
t72.5 -70.5t53.5 -93t20.5 -122h-188zM438 98q0 50 34.5 85.5t84.5 35.5q51 0 85 -35t34 -86t-34 -84.5t-85 -33.5t-85 34t-34 84z" />
    <glyph glyph-name="uni0621" unicode="&#x621;" horiz-adv-x="909" 
d="M74 174l190 35q-92 95 -92 242q0 80 30 144.5t97.5 106t163.5 41.5q165 0 287 -81l-80 -170q-95 59 -205 59q-63 0 -107 -21q-6 -14 -6 -53q0 -44 12 -85.5t37 -78t69 -56t101 -13.5l238 28l14 -172q-329 -32 -714 -102z" />
    <glyph glyph-name="uni0622" unicode="&#x622;" horiz-adv-x="471" 
d="M145 0v1386h181v-1386h-181zM-6 1616q41 40 91.5 51.5t97.5 3.5t93 -17.5t92 -6t81 31.5l32 -100q-43 -32 -95.5 -39t-100.5 0.5t-94.5 15t-90.5 -1.5t-75 -43z" />
    <glyph glyph-name="uni0623" unicode="&#x623;" horiz-adv-x="471" 
d="M145 0v1386h181v-1386h-181zM25 1618l116 12q-41 48 -41 119q0 64 40.5 101.5t111.5 37.5q64 0 145 -33l-37 -98q-54 23 -92 23q-34 0 -61 -17q-1 -62 29 -92.5t88 -25.5l110 8l8 -97l-407 -36z" />
    <glyph glyph-name="uni0624" unicode="&#x624;" horiz-adv-x="911" 
d="M123 -332q376 127 487 328q-271 7 -400.5 79.5t-129.5 213.5q0 69 29 147t77 144.5t118.5 110.5t146.5 44q102 0 188 -77t134 -201.5t48 -263.5q0 -464 -608 -687zM227 1036l117 13q-41 48 -41 118q0 65 41 102.5t111 37.5q64 0 145 -33l-37 -98q-52 22 -92 22
q-35 0 -61 -16q-1 -63 29 -93.5t87 -25.5l111 8l8 -96l-407 -37zM242 276q92 -81 391 -81h16q-4 52 -19 109.5t-40.5 112t-65.5 89.5t-86 35q-77 0 -135 -81t-61 -184z" />
    <glyph glyph-name="uni0625" unicode="&#x625;" horiz-adv-x="471" 
d="M145 0v1386h181v-1386h-181zM14 -475l119 10q-43 46 -43 121q0 64 40.5 101.5t111.5 37.5q70 0 145 -35l-37 -96q-54 23 -92 23q-34 0 -61 -17q-1 -63 29 -94.5t87 -26.5l111 11l8 -99l-407 -36z" />
    <glyph glyph-name="uni0626" unicode="&#x626;" horiz-adv-x="1411" 
d="M631 -305q-121 0 -221 27t-177 80.5t-120 141t-43 201.5q0 128 51 255.5t133 224.5l143 -109q-62 -83 -101.5 -177t-39.5 -179q0 -74 32 -127.5t88.5 -83t123 -42.5t147.5 -13q155 0 285 44.5t188 127.5q-20 26 -63 52t-90.5 46.5t-99.5 49.5t-93 60t-67.5 79.5
t-26.5 107.5q0 102 72 195.5t190.5 149.5t247.5 56q111 0 184 -47l-69 -174q-53 27 -125 27q-107 0 -202.5 -52t-125.5 -129q16 -29 48.5 -54.5t71 -44.5t81.5 -38.5t82.5 -42.5t72 -51t51.5 -69.5t19 -92.5q0 -114 -89 -206t-237 -142.5t-321 -50.5zM117 879l116 12
q-40 46 -40 119q0 65 40.5 102t110.5 37q64 0 145 -33l-36 -98q-52 22 -93 22q-35 0 -61 -16q-1 -63 29.5 -93.5t87.5 -25.5l110 8l9 -96l-408 -37z" />
    <glyph glyph-name="uni0627" unicode="&#x627;" horiz-adv-x="471" 
d="M145 0v1386h181v-1386h-181z" />
    <glyph glyph-name="uni0628" unicode="&#x628;" horiz-adv-x="1767" 
d="M541 0q-196 0 -307 99t-111 284q0 205 156 434l151 -100q-119 -183 -119 -311q0 -211 240 -211h885q10 110 10 266v280h182v-268q0 -264 -26 -473h-1061zM834 -293q0 53 33.5 88t84.5 35q52 0 86.5 -35t34.5 -88q0 -51 -34.5 -86t-86.5 -35q-51 0 -84.5 35t-33.5 86z" />
    <glyph glyph-name="uni0629" unicode="&#x629;" horiz-adv-x="923" 
d="M451 -20q-93 0 -163.5 28.5t-110.5 76t-59.5 103.5t-19.5 117q0 96 49 193t132 164q-31 11 -80 26l59 178q278 -70 420 -201t147 -319q2 -171 -97 -268.5t-277 -97.5zM170 1110q0 53 34 88t85 35t85 -35t34 -88q0 -51 -34 -85t-85 -34t-85 34t-34 85zM244 330
q11 -73 77 -115.5t146 -42.5q132 0 203 123q-6 169 -228 295q-73 -47 -125.5 -116.5t-72.5 -143.5zM469 1110q0 53 34 88t85 35t85 -35t34 -88q0 -51 -34 -85t-85 -34t-85 34t-34 85z" />
    <glyph glyph-name="uni062A" unicode="&#x62a;" horiz-adv-x="1767" 
d="M541 0q-196 0 -307 99t-111 284q0 205 156 434l151 -100q-119 -183 -119 -311q0 -211 240 -211h885q10 110 10 266v280h182v-268q0 -264 -26 -473h-1061zM684 1016q0 53 34 88t85 35t85 -35t34 -88q0 -51 -34 -85t-85 -34t-85 34t-34 85zM983 1016q0 53 34 88t85 35
t85 -35t34 -88q0 -51 -34 -85t-85 -34t-85 34t-34 85z" />
    <glyph glyph-name="uni062B" unicode="&#x62b;" horiz-adv-x="1767" 
d="M541 0q-196 0 -307 99t-111 284q0 205 156 434l151 -100q-119 -183 -119 -311q0 -211 240 -211h885q10 110 10 266v280h182v-268q0 -264 -26 -473h-1061zM698 999q0 46 30.5 77.5t76.5 31.5q45 0 75.5 -31.5t30.5 -77.5t-30 -76t-76 -30t-76.5 30t-30.5 76zM848 1235
q0 46 30 77t76 31q44 0 74.5 -31t30.5 -77q0 -44 -30.5 -75.5t-74.5 -31.5q-45 0 -75.5 31t-30.5 76zM995 999q0 46 30.5 77.5t76.5 31.5q45 0 75.5 -31.5t30.5 -77.5t-30 -76t-76 -30t-76.5 30t-30.5 76z" />
    <glyph glyph-name="uni062C" unicode="&#x62c;" horiz-adv-x="1292" 
d="M887 -760q-160 0 -298.5 38.5t-243 110.5t-164.5 183.5t-60 249.5q0 121 47 236t124.5 202.5t171.5 152t193 99.5q-175 59 -307 59q-112 0 -225 -43l-47 189q128 51 250 51q83 0 162.5 -17.5t150.5 -42.5t148 -50t186.5 -42.5t234.5 -17.5l-32 -190q-99 12 -198 3.5
t-190.5 -30t-175 -65t-151 -101t-119 -138.5t-78.5 -177q2 -211 182 -337t482 -126q120 0 231 18l25 -190q-159 -25 -299 -25zM639 -66q0 53 34 88t85 35q52 0 86.5 -35t34.5 -88q0 -51 -34.5 -85.5t-86.5 -34.5q-51 0 -85 34.5t-34 85.5z" />
    <glyph glyph-name="uni062D" unicode="&#x62d;" horiz-adv-x="1292" 
d="M887 -760q-160 0 -298.5 38.5t-243 110.5t-164.5 183.5t-60 249.5q0 121 47 236t124.5 202.5t171.5 152t193 99.5q-175 59 -307 59q-112 0 -225 -43l-47 189q128 51 250 51q83 0 162.5 -17.5t150.5 -42.5t148 -50t186.5 -42.5t234.5 -17.5l-32 -190q-99 12 -198 3.5
t-190.5 -30t-175 -65t-151 -101t-119 -138.5t-78.5 -177q2 -211 182 -337t482 -126q120 0 231 18l25 -190q-159 -25 -299 -25z" />
    <glyph glyph-name="uni062E" unicode="&#x62e;" horiz-adv-x="1292" 
d="M887 -760q-160 0 -298.5 38.5t-243 110.5t-164.5 183.5t-60 249.5q0 121 47 236t124.5 202.5t171.5 152t193 99.5q-175 59 -307 59q-112 0 -225 -43l-47 189q128 51 250 51q83 0 162.5 -17.5t150.5 -42.5t148 -50t186.5 -42.5t234.5 -17.5l-32 -190q-99 12 -198 3.5
t-190.5 -30t-175 -65t-151 -101t-119 -138.5t-78.5 -177q2 -211 182 -337t482 -126q120 0 231 18l25 -190q-159 -25 -299 -25zM586 1096q0 53 34 88t85 35q52 0 86 -35t34 -88q0 -51 -34 -86t-86 -35q-51 0 -85 35t-34 86z" />
    <glyph glyph-name="uni062F" unicode="&#x62f;" horiz-adv-x="905" 
d="M403 0q-232 0 -337 14l6 197q160 -16 325 -16h258q-59 317 -358 485l82 162q213 -88 337.5 -286t110.5 -427l-96 -129h-328z" />
    <glyph glyph-name="uni0630" unicode="&#x630;" horiz-adv-x="905" 
d="M403 0q-232 0 -337 14l6 197q160 -16 325 -16h258q-59 317 -358 485l82 162q213 -88 337.5 -286t110.5 -427l-96 -129h-328zM274 1128q0 53 34 88t85 35q52 0 86.5 -35t34.5 -88q0 -51 -34.5 -85.5t-86.5 -34.5q-51 0 -85 34.5t-34 85.5z" />
    <glyph glyph-name="uni0631" unicode="&#x631;" horiz-adv-x="770" 
d="M-4 -307q423 212 512 493q-15 169 -123 449l178 65q37 -101 58 -166.5t40 -152.5t19 -154q0 -200 -149.5 -376.5t-430.5 -319.5z" />
    <glyph glyph-name="uni0632" unicode="&#x632;" horiz-adv-x="770" 
d="M-4 -307q423 212 512 493q-15 169 -123 449l178 65q37 -101 58 -166.5t40 -152.5t19 -154q0 -200 -149.5 -376.5t-430.5 -319.5zM301 993q0 53 34 88t85 35q52 0 86.5 -35t34.5 -88q0 -51 -34.5 -86t-86.5 -35q-51 0 -85 35t-34 86z" />
    <glyph glyph-name="uni0633" unicode="&#x633;" horiz-adv-x="2269" 
d="M596 -279q-228 0 -360 125t-132 347q0 132 47.5 263.5t135.5 245.5l143 -110q-65 -87 -102 -186.5t-37 -188.5q0 -143 90.5 -221t243.5 -78q148 0 259 73t152 202q-21 158 -102 479l186 49l78 -332q27 -115 69.5 -154.5t129.5 -39.5h125q20 97 20 239v266h180v-329
q0 -108 34 -142t118 -34h92q16 71 16 258v247h181v-251q0 -279 -54 -449h-247q-141 0 -211 92q-25 -46 -68 -92h-186q-145 0 -223 78q-60 -154 -213.5 -255.5t-364.5 -101.5z" />
    <glyph glyph-name="uni0634" unicode="&#x634;" horiz-adv-x="2269" 
d="M596 -279q-228 0 -360 125t-132 347q0 132 47.5 263.5t135.5 245.5l143 -110q-65 -87 -102 -186.5t-37 -188.5q0 -143 90.5 -221t243.5 -78q148 0 259 73t152 202q-21 158 -102 479l186 49l78 -332q27 -115 69.5 -154.5t129.5 -39.5h125q20 97 20 239v266h180v-329
q0 -108 34 -142t118 -34h92q16 71 16 258v247h181v-251q0 -279 -54 -449h-247q-141 0 -211 92q-25 -46 -68 -92h-186q-145 0 -223 78q-60 -154 -213.5 -255.5t-364.5 -101.5zM1374 1077q0 46 30.5 77.5t76.5 31.5q45 0 75.5 -31.5t30.5 -77.5t-30 -76t-76 -30t-76.5 30
t-30.5 76zM1524 1313q0 46 30 77t76 31q44 0 74.5 -31t30.5 -77q0 -44 -30.5 -75.5t-74.5 -31.5q-45 0 -75.5 31t-30.5 76zM1671 1077q0 46 30.5 77.5t76.5 31.5q45 0 75.5 -31.5t30.5 -77.5t-30 -76t-76 -30t-76.5 30t-30.5 76z" />
    <glyph glyph-name="uni0635" unicode="&#x635;" horiz-adv-x="2334" 
d="M569 -276q-103 0 -190 28.5t-154 84t-105 147t-38 209.5q0 267 182 509l144 -110q-67 -87 -103.5 -186.5t-36.5 -188.5q0 -143 89.5 -221t244.5 -78q145 0 259 74t153 203q-41 232 -99 477l183 55l63 -250q140 130 327 225t345 95q178 0 299 -119t121 -297
q0 -70 -21.5 -127t-57.5 -96t-90 -68t-110 -46t-126.5 -27t-131.5 -13.5t-133 -3.5h-164q-171 0 -270 70q-60 -154 -220 -250t-360 -96zM1206 315q26 -67 76 -93.5t150 -26.5h104q205 0 337 23.5t204 84.5q8 74 -16.5 141.5t-86.5 113.5t-151 46q-132 0 -313 -87t-304 -202z
" />
    <glyph glyph-name="uni0636" unicode="&#x636;" horiz-adv-x="2334" 
d="M569 -276q-103 0 -190 28.5t-154 84t-105 147t-38 209.5q0 267 182 509l144 -110q-67 -87 -103.5 -186.5t-36.5 -188.5q0 -143 89.5 -221t244.5 -78q145 0 259 74t153 203q-41 232 -99 477l183 55l63 -250q140 130 327 225t345 95q178 0 299 -119t121 -297
q0 -70 -21.5 -127t-57.5 -96t-90 -68t-110 -46t-126.5 -27t-131.5 -13.5t-133 -3.5h-164q-171 0 -270 70q-60 -154 -220 -250t-360 -96zM1206 315q26 -67 76 -93.5t150 -26.5h104q205 0 337 23.5t204 84.5q8 74 -16.5 141.5t-86.5 113.5t-151 46q-132 0 -313 -87t-304 -202z
M1253 1090q0 52 34 87t85 35q52 0 86.5 -34.5t34.5 -87.5q0 -51 -34.5 -86t-86.5 -35q-51 0 -85 35t-34 86z" />
    <glyph glyph-name="uni0637" unicode="&#x637;" horiz-adv-x="1613" 
d="M104 0l-22 195h246q109 163 188 258q19 162 19 372v561h180v-434q0 -225 -15 -311q193 156 390 156q133 0 235 -58.5t154.5 -155t52.5 -212.5q0 -56 -14.5 -100.5t-50.5 -88t-101.5 -75.5t-161.5 -57t-237.5 -37.5t-323.5 -12.5h-539zM508 195h180q510 0 666 118
q10 68 -27 135t-113 110.5t-170 43.5q-129 0 -258 -95.5t-278 -311.5z" />
    <glyph glyph-name="uni0638" unicode="&#x638;" horiz-adv-x="1613" 
d="M104 0l-22 195h246q109 163 188 258q19 162 19 372v561h180v-434q0 -225 -15 -311q193 156 390 156q133 0 235 -58.5t154.5 -155t52.5 -212.5q0 -56 -14.5 -100.5t-50.5 -88t-101.5 -75.5t-161.5 -57t-237.5 -37.5t-323.5 -12.5h-539zM508 195h180q510 0 666 118
q10 68 -27 135t-113 110.5t-170 43.5q-129 0 -258 -95.5t-278 -311.5zM965 1130q0 53 33.5 88t84.5 35q52 0 86.5 -35t34.5 -88q0 -51 -34.5 -85.5t-86.5 -34.5q-51 0 -84.5 34.5t-33.5 85.5z" />
    <glyph glyph-name="uni0639" unicode="&#x639;" horiz-adv-x="1103" 
d="M791 -756q-137 0 -256 31t-212.5 91t-147.5 158t-54 222q0 147 71 273.5t195 211.5q-203 106 -203 332q0 72 22.5 135t66.5 113t116 79.5t164 29.5q89 0 175.5 -23.5t141.5 -56.5l-65 -172q-137 63 -258 63q-129 0 -189 -63q-24 -146 63.5 -236t242.5 -88q64 2 299 33
l-9 -172q-115 -3 -223.5 -27t-204 -69t-165 -118t-95.5 -165q5 -186 147.5 -284.5t422.5 -98.5q92 0 215 14l16 -188q-131 -25 -276 -25z" />
    <glyph glyph-name="uni063A" unicode="&#x63a;" horiz-adv-x="1103" 
d="M791 -756q-137 0 -256 31t-212.5 91t-147.5 158t-54 222q0 147 71 273.5t195 211.5q-203 106 -203 332q0 72 22.5 135t66.5 113t116 79.5t164 29.5q89 0 175.5 -23.5t141.5 -56.5l-65 -172q-137 63 -258 63q-129 0 -189 -63q-24 -146 63.5 -236t242.5 -88q64 2 299 33
l-9 -172q-115 -3 -223.5 -27t-204 -69t-165 -118t-95.5 -165q5 -186 147.5 -284.5t422.5 -98.5q92 0 215 14l16 -188q-131 -25 -276 -25zM420 1190q0 53 34 88t85 35q52 0 86 -35t34 -88q0 -51 -34 -86t-86 -35q-51 0 -85 35t-34 86z" />
    <glyph glyph-name="uni0640" unicode="&#x640;" horiz-adv-x="507" 
d="M508 0h-508l-37 98l37 97h508v-195z" />
    <glyph glyph-name="uni0641" unicode="&#x641;" horiz-adv-x="2023" 
d="M541 0q-196 0 -307 99t-111 284q0 205 156 434l151 -100q-119 -183 -119 -311q0 -211 240 -211h706q-133 89 -133 215q0 86 52 186.5t144.5 175t192.5 74.5q84 0 159.5 -55t125.5 -141.5t79.5 -193t29.5 -210.5q0 -130 -43 -246h-1323zM1294 397q54 -72 172.5 -130.5
t249.5 -73.5q6 30 6 65q0 86 -31 179t-80.5 154.5t-97.5 61.5q-60 0 -133 -79t-86 -177zM1386 1135q0 52 34 87t85 35q52 0 86.5 -34.5t34.5 -87.5q0 -51 -34.5 -86t-86.5 -35q-51 0 -85 35t-34 86z" />
    <glyph glyph-name="uni0642" unicode="&#x642;" horiz-adv-x="1447" 
d="M711 -403q-102 0 -193 18t-171.5 57t-139 97t-92 143.5t-33.5 189.5q0 259 180 498l146 -111q-67 -88 -103.5 -188.5t-36.5 -185.5q0 -83 35.5 -145.5t98.5 -100t144 -56t177 -18.5q144 0 257 38t175 101q15 52 21 121q-105 2 -199 18.5t-180 49t-136.5 91.5t-50.5 138
q0 61 28.5 136.5t76 145t120.5 116.5t152 47q88 0 160.5 -57t117 -148t68 -197t23.5 -211q0 -151 -50 -266t-139.5 -184t-204 -103t-251.5 -34zM702 1128q0 53 34 88t85 35t85 -35t34 -88q0 -51 -34 -84.5t-85 -33.5t-85 33.5t-34 84.5zM772 348q72 -55 171 -78t235 -28
q-7 98 -29.5 175.5t-66.5 131t-105 55.5q-73 3 -136.5 -76.5t-68.5 -179.5zM1001 1128q0 53 34 88t85 35t85 -35t34 -88q0 -51 -34 -84.5t-85 -33.5t-85 33.5t-34 84.5z" />
    <glyph glyph-name="uni0643" unicode="&#x643;" horiz-adv-x="1771" 
d="M541 0q-196 0 -307 99t-111 284q0 205 156 434l151 -100q-119 -183 -119 -311q0 -211 240 -211h885q10 149 10 487v704h180v-692q0 -482 -37 -694h-1048zM670 674q20 3 67 11.5t70 12.5q-68 68 -68 176q0 90 53 150.5t156 60.5q116 0 207 -59l-57 -123q-70 43 -150 43
q-44 0 -76 -14q-4 -10 -4 -37q0 -71 39.5 -124.5t118.5 -45.5l172 20l8 -122q-263 -28 -514 -76z" />
    <glyph glyph-name="uni0644" unicode="&#x644;" horiz-adv-x="1345" 
d="M606 -442q-114 0 -207.5 27.5t-164.5 83t-110.5 147.5t-39.5 213q0 272 182 510l144 -111q-67 -90 -103.5 -189t-36.5 -186q0 -147 99 -224t270 -77q265 0 375 176q33 320 33 830v628h178v-622q0 -413 -18.5 -633.5t-61.5 -314.5q-56 -120 -202.5 -189t-336.5 -69z" />
    <glyph glyph-name="uni0645" unicode="&#x645;" horiz-adv-x="1177" 
d="M217 -774q-137 450 -137 682q0 78 16 131.5t41.5 84.5t73 48t93.5 22.5t120 6.5q339 6 506 -2q-36 107 -106 195.5t-154 127.5q-43 -22 -94 -87.5t-89 -168.5l-163 66q66 174 161 271t199 97q89 0 178.5 -67t159 -188t96.5 -267l-104 -178q-325 11 -748 2
q5 -154 36 -318.5t104 -414.5z" />
    <glyph glyph-name="uni0646" unicode="&#x646;" horiz-adv-x="1304" 
d="M618 -272q-119 0 -215.5 27.5t-169 83t-112 146.5t-39.5 212q0 270 182 512l144 -111q-66 -88 -103 -188.5t-37 -188.5q0 -144 97.5 -221.5t263.5 -77.5q122 0 230.5 44.5t170.5 139.5q-3 216 -168 564l166 80q170 -329 170 -553q0 -116 -45 -207t-124.5 -147.5
t-183.5 -85.5t-227 -29zM508 967q0 53 34 88t85 35q52 0 86.5 -35t34.5 -88q0 -51 -34.5 -86t-86.5 -35q-51 0 -85 35t-34 86z" />
    <glyph glyph-name="uni0647" unicode="&#x647;" horiz-adv-x="923" 
d="M451 -20q-93 0 -163.5 28.5t-110.5 76t-59.5 103.5t-19.5 117q0 96 49 193t132 164q-31 11 -80 26l59 178q278 -70 420 -201t147 -319q2 -171 -97 -268.5t-277 -97.5zM244 330q11 -73 77 -115.5t146 -42.5q132 0 203 123q-6 169 -228 295q-73 -47 -125.5 -116.5
t-72.5 -143.5z" />
    <glyph glyph-name="uni0648" unicode="&#x648;" horiz-adv-x="911" 
d="M123 -332q376 127 487 328q-271 7 -400.5 79.5t-129.5 213.5q0 69 29 147t77 144.5t118.5 110.5t146.5 44q102 0 188 -77t134 -201.5t48 -263.5q0 -464 -608 -687zM242 276q92 -81 391 -81h16q-4 52 -19 109.5t-40.5 112t-65.5 89.5t-86 35q-77 0 -135 -81t-61 -184z" />
    <glyph glyph-name="uni0649" unicode="&#x649;" horiz-adv-x="1411" 
d="M631 -305q-121 0 -221 27t-177 80.5t-120 141t-43 201.5q0 128 51 255.5t133 224.5l143 -109q-62 -83 -101.5 -177t-39.5 -179q0 -74 32 -127.5t88.5 -83t123 -42.5t147.5 -13q155 0 285 44.5t188 127.5q-20 26 -63 52t-90.5 46.5t-99.5 49.5t-93 60t-67.5 79.5
t-26.5 107.5q0 102 72 195.5t190.5 149.5t247.5 56q111 0 184 -47l-69 -174q-53 27 -125 27q-107 0 -202.5 -52t-125.5 -129q16 -29 48.5 -54.5t71 -44.5t81.5 -38.5t82.5 -42.5t72 -51t51.5 -69.5t19 -92.5q0 -114 -89 -206t-237 -142.5t-321 -50.5z" />
    <glyph glyph-name="uni064A" unicode="&#x64a;" horiz-adv-x="1411" 
d="M631 -305q-121 0 -221 27t-177 80.5t-120 141t-43 201.5q0 128 51 255.5t133 224.5l143 -109q-62 -83 -101.5 -177t-39.5 -179q0 -74 32 -127.5t88.5 -83t123 -42.5t147.5 -13q155 0 285 44.5t188 127.5q-20 26 -63 52t-90.5 46.5t-99.5 49.5t-93 60t-67.5 79.5
t-26.5 107.5q0 102 72 195.5t190.5 149.5t247.5 56q111 0 184 -47l-69 -174q-53 27 -125 27q-107 0 -202.5 -52t-125.5 -129q16 -29 48.5 -54.5t71 -44.5t81.5 -38.5t82.5 -42.5t72 -51t51.5 -69.5t19 -92.5q0 -114 -89 -206t-237 -142.5t-321 -50.5zM395 -565q0 51 34 86
t85 35t85 -35t34 -86t-34 -85t-85 -34t-85 34t-34 85zM694 -565q0 51 34 86t85 35t85 -35t34 -86t-34 -85t-85 -34t-85 34t-34 85z" />
    <glyph glyph-name="uni064B" unicode="&#x64b;" 
d="M111 258l-19 90l447 92l14 -92zM113 178l440 92l18 -90l-444 -90z" />
    <glyph glyph-name="uni064C" unicode="&#x64c;" 
d="M92 285q96 38 148 104q-70 19 -106 48t-36 81q0 60 44 104t98 44q56 0 89 -48.5t33 -113.5q0 -105 -90 -185q175 47 244 113q-70 19 -103.5 46t-33.5 77q0 61 44.5 105.5t100.5 44.5t89.5 -48.5t33.5 -113.5q0 -66 -39 -121t-97 -90t-135 -61.5t-140.5 -39.5t-126.5 -20z
M166 520q18 -24 42 -37.5t68 -25.5q9 36 9 53q0 31 -14.5 52.5t-39.5 21.5q-21 0 -40.5 -16t-24.5 -48zM444 561q20 -26 44 -39.5t73 -25.5q8 19 8 47q0 33 -14.5 56.5t-38.5 23.5q-20 0 -41 -15.5t-31 -46.5z" />
    <glyph glyph-name="uni064D" unicode="&#x64d;" 
d="M111 -164l-19 88l443 92l18 -88zM109 -248l442 92l18 -86l-442 -92z" />
    <glyph glyph-name="uni064E" unicode="&#x64e;" 
d="M115 61l-23 103l443 92l18 -104z" />
    <glyph glyph-name="uni064F" unicode="&#x64f;" 
d="M92 197q179 23 275 94q-62 18 -107 56t-45 95q0 62 52 114t116 52q62 0 104.5 -56t42.5 -132q0 -67 -35 -122t-95.5 -92.5t-130.5 -62t-152 -39.5zM299 444q32 -41 131 -71q8 21 8 51q0 39 -18 62.5t-45 23.5q-23 0 -45 -17.5t-31 -48.5z" />
    <glyph glyph-name="uni0650" unicode="&#x650;" 
d="M115 -250l-23 103l443 92l18 -105z" />
    <glyph glyph-name="uni0651" unicode="&#x651;" 
d="M223 68q-59 0 -95 33t-36 87v127h88v-98q0 -31 14 -43t46 -12h43q8 27 8 71v82h90v-90q0 -38 13 -49.5t46 -11.5h35q6 27 6 88v63h86v-59q0 -117 -22 -186h-99q-77 0 -106 47q-21 -28 -47 -38.5t-70 -10.5z" />
    <glyph glyph-name="uni0652" unicode="&#x652;" 
d="M256 72q-81 0 -122.5 44t-41.5 103q0 45 27 93t80 89q-38 25 -41 27l55 76q217 -138 217 -277q0 -65 -44 -110t-130 -45zM180 229q0 -65 80 -65q41 0 61.5 18.5t20.5 44.5q0 54 -76 121q-86 -54 -86 -119z" />
    <glyph glyph-name="uni0653" unicode="&#x653;" 
d="M92 184q41 40 91.5 51.5t97.5 4t93 -17t92 -6t81 31.5l33 -101q-43 -32 -96 -39t-101 1t-94.5 15t-90.5 -1.5t-75 -42.5z" />
    <glyph glyph-name="uni0654" unicode="&#x654;" 
d="M102 729l-10 98l117 13q-41 48 -41 118q0 65 40.5 102.5t110.5 37.5q65 0 146 -33l-37 -98q-52 22 -92 22q-36 0 -62 -16q-1 -63 29.5 -93.5t87.5 -25.5l111 8l8 -96z" />
    <glyph glyph-name="uni0655" unicode="&#x655;" 
d="M102 -508l-10 100l119 11q-43 46 -43 121q0 65 40.5 102t110.5 37q71 0 146 -35l-37 -96q-52 22 -92 22q-36 0 -62 -16q-1 -63 29.5 -94.5t87.5 -26.5l111 10l8 -98z" />
    <glyph glyph-name="uni0656" unicode="&#x656;" 
d="M131 -408q-6 178 -39 336l109 17q24 -125 39 -340z" />
    <glyph glyph-name="uni0660" unicode="&#x660;" horiz-adv-x="585" 
d="M291 369l-197 198l197 203l201 -203z" />
    <glyph glyph-name="uni0661" unicode="&#x661;" horiz-adv-x="663" 
d="M338 -16q-3 287 -73 630t-179 613l174 69q110 -258 183 -624.5t75 -659.5z" />
    <glyph glyph-name="uni0662" unicode="&#x662;" horiz-adv-x="956" 
d="M412 -16q-15 169 -52.5 322t-80 256.5t-83 190t-67.5 158t-27 125.5q0 81 63.5 137t160.5 78t204.5 25t204.5 -16.5t152 -53.5l-45 -180q-96 46 -278.5 49.5t-284.5 -47.5q121 -199 206.5 -478t104.5 -536z" />
    <glyph glyph-name="uni0663" unicode="&#x663;" horiz-adv-x="1263" 
d="M362 -16q-30 314 -93.5 591t-194.5 642l168 63q42 -138 78 -208.5t75 -97t99 -26.5q66 0 94 47.5t28 141.5v139h170q0 -123 13.5 -194t41 -101t74.5 -31q41 0 72 8q13 85 6 318h178q2 -277 -53.5 -391.5t-191.5 -114.5q-68 0 -117 27t-92 88q-37 -58 -94 -87.5
t-121 -29.5q-52 0 -103 23q104 -360 144 -777z" />
    <glyph glyph-name="uni0664" unicode="&#x664;" horiz-adv-x="864" 
d="M647 1108q-240 3 -360 -129q28 -28 117.5 -85t147.5 -113t58 -117q0 -40 -26.5 -80t-70 -76t-90 -71t-96 -79t-77.5 -86q85 -70 240.5 -93t275.5 -3v-188q-73 -11 -156 -12t-175.5 13t-165.5 44t-121 88.5t-48 138.5q0 96 74 187t248 217q-176 108 -236.5 164t-60.5 128
q0 91 80.5 171t206 123t252.5 34z" />
    <glyph glyph-name="uni0665" unicode="&#x665;" horiz-adv-x="1144" 
d="M557 45q-213 0 -329.5 117t-116.5 342q0 139 44.5 271t113.5 225t156 149.5t171 56.5q112 0 214.5 -96.5t163 -250t60.5 -316.5q0 -105 -28.5 -193.5t-85 -157.5t-149.5 -108t-214 -39zM270 526q0 -63 17.5 -112.5t47 -81.5t70.5 -52.5t84.5 -29t92.5 -8.5q87 0 147 27.5
t115 82.5q21 49 23 130.5t-17 169.5t-52.5 166.5t-89 129.5t-120.5 51q-78 0 -153 -71.5t-120 -181.5t-45 -220z" />
    <glyph glyph-name="uni0666" unicode="&#x666;" horiz-adv-x="1085" 
d="M801 -16q-64 175 -117.5 472t-77.5 597q-321 -25 -557 37l39 186q94 -24 204 -35t239 -4.5t239 35.5q7 -313 68 -646t143 -569z" />
    <glyph glyph-name="uni0667" unicode="&#x667;" horiz-adv-x="1228" 
d="M535 -2q-89 330 -215 638.5t-275 545.5l168 100q95 -139 207.5 -394t206.5 -540q67 234 171.5 480.5t217.5 443.5l168 -92q-157 -270 -280.5 -581.5t-176.5 -600.5h-192z" />
    <glyph glyph-name="uni0668" unicode="&#x668;" horiz-adv-x="1239" 
d="M1026 2q-235 432 -393 924q-119 -403 -422 -922l-166 88q87 149 178 330.5t185 427t124 428.5h191q64 -257 202.5 -605t268.5 -571z" />
    <glyph glyph-name="uni0669" unicode="&#x669;" horiz-adv-x="1054" 
d="M774 -16q-72 266 -133 604q-90 -35 -209 -35q-96 0 -177 33.5t-131 100.5t-50 155q0 79 26.5 157.5t72 140.5t111.5 101t140 39q67 0 118.5 -25t89 -69.5t68 -122.5t52.5 -167.5t47 -221.5q64 -339 147 -645zM227 831q30 -36 92 -62t125 -26q65 0 158 29
q-32 174 -75.5 240.5t-110.5 66.5q-81 0 -134 -74t-55 -174z" />
    <glyph glyph-name="uni066A" unicode="&#x66a;" horiz-adv-x="1390" 
d="M270 0l670 1290h190l-675 -1290h-185zM94 932l197 203l201 -203l-201 -199zM899 317l197 203l200 -203l-200 -198z" />
    <glyph glyph-name="uni066B" unicode="&#x66b;" horiz-adv-x="399" 
d="M80 -150q70 85 70 160q0 43 -35 91.5t-35 88.5q0 46 28 77.5t76 31.5q61 0 98 -47.5t37 -140.5q0 -187 -165 -324z" />
    <glyph glyph-name="uni066C" unicode="&#x66c;" horiz-adv-x="440" 
d="M68 -186q15 98 27.5 165t30.5 131.5t38 102t48 60t62 22.5q40 0 63 -24.5t23 -67.5q0 -68 -60.5 -184t-149.5 -236z" />
    <glyph glyph-name="uni066D" unicode="&#x66d;" horiz-adv-x="954" 
d="M645 719l-170 248l-168 -246l-119 84l185 237l-287 86l43 138l283 -101l-9 297h148l-10 -297l284 103l43 -140l-286 -86l182 -237z" />
    <glyph glyph-name="uni066E" unicode="&#x66e;" horiz-adv-x="1767" 
d="M541 0q-196 0 -307 99t-111 284q0 205 156 434l151 -100q-119 -183 -119 -311q0 -211 240 -211h885q10 110 10 266v280h182v-268q0 -264 -26 -473h-1061z" />
    <glyph glyph-name="uni066F" unicode="&#x66f;" horiz-adv-x="1447" 
d="M711 -403q-102 0 -193 18t-171.5 57t-139 97t-92 143.5t-33.5 189.5q0 259 180 498l146 -111q-67 -88 -103.5 -188.5t-36.5 -185.5q0 -83 35.5 -145.5t98.5 -100t144 -56t177 -18.5q144 0 257 38t175 101q15 52 21 121q-105 2 -199 18.5t-180 49t-136.5 91.5t-50.5 138
q0 61 28.5 136.5t76 145t120.5 116.5t152 47q88 0 160.5 -57t117 -148t68 -197t23.5 -211q0 -151 -50 -266t-139.5 -184t-204 -103t-251.5 -34zM772 348q72 -55 171 -78t235 -28q-7 98 -29.5 175.5t-66.5 131t-105 55.5q-73 3 -136.5 -76.5t-68.5 -179.5z" />
    <glyph glyph-name="uni0670" unicode="&#x670;" 
d="M-47 100q-6 180 -39 338l109 15q22 -117 38 -340z" />
    <glyph glyph-name="uni0671" unicode="&#x671;" horiz-adv-x="471" 
d="M145 0v1386h181v-1386h-181zM-59 1575q67 76 143 76q19 0 55 -9q95 146 203 146q57 0 95 -39t38 -94q0 -63 -50.5 -103.5t-137.5 -40.5q-58 0 -117.5 25t-87.5 25q-44 0 -90 -48zM205 1616q40 -14 86 -14q71 0 108 24q-8 66 -69 66q-64 0 -125 -76z" />
    <glyph glyph-name="uni06A1" unicode="&#x6a1;" horiz-adv-x="2023" 
d="M541 0q-196 0 -307 99t-111 284q0 205 156 434l151 -100q-119 -183 -119 -311q0 -211 240 -211h706q-133 89 -133 215q0 86 52 186.5t144.5 175t192.5 74.5q84 0 159.5 -55t125.5 -141.5t79.5 -193t29.5 -210.5q0 -130 -43 -246h-1323zM1294 397q54 -72 172.5 -130.5
t249.5 -73.5q6 30 6 65q0 86 -31 179t-80.5 154.5t-97.5 61.5q-60 0 -133 -79t-86 -177z" />
    <glyph glyph-name="uni06A4" unicode="&#x6a4;" horiz-adv-x="2023" 
d="M541 0q-196 0 -307 99t-111 284q0 205 156 434l151 -100q-119 -183 -119 -311q0 -211 240 -211h706q-133 89 -133 215q0 86 52 186.5t144.5 175t192.5 74.5q84 0 159.5 -55t125.5 -141.5t79.5 -193t29.5 -210.5q0 -130 -43 -246h-1323zM1249 1122q0 46 30.5 77.5
t76.5 31.5q45 0 75.5 -31.5t30.5 -77.5t-30 -76t-76 -30t-76.5 30t-30.5 76zM1294 397q54 -72 172.5 -130.5t249.5 -73.5q6 30 6 65q0 86 -31 179t-80.5 154.5t-97.5 61.5q-60 0 -133 -79t-86 -177zM1399 1358q0 46 30 77t76 31q44 0 74.5 -31t30.5 -77q0 -44 -30.5 -75.5
t-74.5 -31.5q-45 0 -75.5 31t-30.5 76zM1546 1122q0 46 30.5 77.5t76.5 31.5q45 0 75.5 -31.5t30.5 -77.5t-30 -76t-76 -30t-76.5 30t-30.5 76z" />
    <glyph glyph-name="uni06BA" unicode="&#x6ba;" horiz-adv-x="1304" 
d="M618 -272q-119 0 -215.5 27.5t-169 83t-112 146.5t-39.5 212q0 270 182 512l144 -111q-66 -88 -103 -188.5t-37 -188.5q0 -144 97.5 -221.5t263.5 -77.5q122 0 230.5 44.5t170.5 139.5q-3 216 -168 564l166 80q170 -329 170 -553q0 -116 -45 -207t-124.5 -147.5
t-183.5 -85.5t-227 -29z" />
    <glyph glyph-name="Wgrave" unicode="&#x1e80;" horiz-adv-x="1875" 
d="M414 0l-379 1290h207l290 -1020l299 1020h213l297 -1020l295 1020h205l-383 -1290h-229l-291 989l-291 -989h-233zM672 1679h209l157 -278h-166z" />
    <glyph glyph-name="wgrave" unicode="&#x1e81;" horiz-adv-x="1406" 
d="M311 0l-297 778h209l193 -577l192 577h195l192 -577l193 577h205l-297 -778h-205l-189 555l-188 -555h-203zM440 1225h209l158 -279h-166z" />
    <glyph glyph-name="Wacute" unicode="&#x1e82;" horiz-adv-x="1875" 
d="M414 0l-379 1290h207l290 -1020l299 1020h213l297 -1020l295 1020h205l-383 -1290h-229l-291 989l-291 -989h-233zM852 1401l162 278h215l-205 -278h-172z" />
    <glyph glyph-name="wacute" unicode="&#x1e83;" horiz-adv-x="1406" 
d="M311 0l-297 778h209l193 -577l192 577h195l192 -577l193 577h205l-297 -778h-205l-189 555l-188 -555h-203zM598 946l162 279h215l-205 -279h-172z" />
    <glyph glyph-name="Wdieresis" unicode="&#x1e84;" horiz-adv-x="1875" 
d="M414 0l-379 1290h207l290 -1020l299 1020h213l297 -1020l295 1020h205l-383 -1290h-229l-291 989l-291 -989h-233zM643 1542q0 48 35.5 83.5t85.5 35.5q51 0 87 -35.5t36 -83.5q0 -50 -36 -85.5t-87 -35.5t-86 35.5t-35 85.5zM993 1542q0 48 35.5 83.5t85.5 35.5
t85.5 -35.5t35.5 -83.5q0 -50 -35 -85.5t-86 -35.5t-86 35.5t-35 85.5z" />
    <glyph glyph-name="wdieresis" unicode="&#x1e85;" horiz-adv-x="1406" 
d="M311 0l-297 778h209l193 -577l192 577h195l192 -577l193 577h205l-297 -778h-205l-189 555l-188 -555h-203zM412 1087q0 51 34.5 86t85.5 35t86 -35t35 -86q0 -50 -35 -85t-86 -35t-85.5 35t-34.5 85zM756 1087q0 51 36 86t87 35t85.5 -35t34.5 -86q0 -50 -34.5 -85
t-85.5 -35t-87 35t-36 85z" />
    <glyph glyph-name="uni1E9E" unicode="&#x1e9e;" horiz-adv-x="1304" 
d="M807 -25q-196 0 -346 107l51 166q60 -48 144.5 -73t154.5 -25q126 0 193 53q28 54 28 139q0 126 -69.5 181t-227.5 55h-176v151l328 383h-545v-1112h-207v1290h1020v-153l-346 -389q226 -9 327 -93t101 -272q0 -408 -430 -408z" />
    <glyph glyph-name="uni1EBC" unicode="&#x1ebc;" horiz-adv-x="1028" 
d="M135 0v1290h817v-176h-610v-391h532v-176h-532v-371h612v-176h-819zM246 1401q0 112 46.5 171.5t133.5 59.5q38 0 75 -17.5t60 -38.5t49 -38.5t45 -17.5q58 0 58 98h131q0 -112 -47.5 -172t-132.5 -60q-38 0 -75.5 17.5t-61 39t-49.5 39t-44 17.5q-57 0 -57 -98h-131z
" />
    <glyph glyph-name="uni1EBD" unicode="&#x1ebd;" horiz-adv-x="878" 
d="M471 -27q-190 0 -302 102t-112 300q0 190 105.5 309t288.5 119q87 0 155 -25t110 -69t69 -104.5t32.5 -132t-0.5 -150.5h-569q2 -82 66 -134.5t180 -52.5q123 0 231 64l41 -150q-120 -76 -295 -76zM150 942q0 112 46.5 172t133.5 60q38 0 75 -17.5t60 -39t49 -39
t45 -17.5q27 0 42 26t15 72h132q0 -111 -47.5 -171t-133.5 -60q-38 0 -75 17.5t-60.5 38.5t-49.5 38.5t-44 17.5q-57 0 -57 -98h-131zM248 469h389q-6 84 -56.5 129t-131.5 45q-105 0 -164 -59q-34 -61 -37 -115z" />
    <glyph glyph-name="Ygrave" unicode="&#x1ef2;" horiz-adv-x="1308" 
d="M551 0v453l-516 837h233l387 -647l387 647h232l-516 -837v-453h-207zM387 1679h209l158 -278h-166z" />
    <glyph glyph-name="ygrave" unicode="&#x1ef3;" horiz-adv-x="929" 
d="M399 -412q-163 0 -295 74l50 170q115 -76 249 -76q115 0 175 47q29 42 38 101t11 194q-89 -96 -236 -96q-146 0 -220.5 86.5t-74.5 241.5v448h195v-428q0 -94 40 -141t107 -47q51 0 102.5 24.5t86.5 57.5v534h194v-758q0 -80 -16.5 -145t-42.5 -109t-63 -77.5t-74.5 -52
t-80.5 -30t-76.5 -15t-68.5 -3.5zM203 1225h209l157 -279h-166z" />
    <glyph glyph-name="uni1EF8" unicode="&#x1ef8;" horiz-adv-x="1308" 
d="M551 0v453l-516 837h233l387 -647l387 647h232l-516 -837v-453h-207zM356 1401q0 112 47 171.5t134 59.5q38 0 75 -17.5t60 -38.5t49 -38.5t45 -17.5q57 0 57 98h131q0 -112 -47.5 -172t-132.5 -60q-38 0 -75 17.5t-60.5 39t-49.5 39t-44 17.5q-58 0 -58 -98h-131z" />
    <glyph glyph-name="uni1EF9" unicode="&#x1ef9;" horiz-adv-x="929" 
d="M399 -412q-163 0 -295 74l50 170q115 -76 249 -76q115 0 175 47q29 42 38 101t11 194q-89 -96 -236 -96q-146 0 -220.5 86.5t-74.5 241.5v448h195v-428q0 -94 40 -141t107 -47q51 0 102.5 24.5t86.5 57.5v534h194v-758q0 -80 -16.5 -145t-42.5 -109t-63 -77.5t-74.5 -52
t-80.5 -30t-76.5 -15t-68.5 -3.5zM168 942q0 112 46.5 172t133.5 60q38 0 75 -17.5t60.5 -39t49.5 -39t45 -17.5q27 0 42 26t15 72h131q0 -112 -47.5 -171.5t-132.5 -59.5q-38 0 -75.5 17.5t-61 38.5t-49.5 38.5t-44 17.5q-57 0 -57 -98h-131z" />
    <glyph glyph-name="uni2000" unicode="&#x2000;" horiz-adv-x="1024" 
 />
    <glyph glyph-name="uni2001" unicode="&#x2001;" horiz-adv-x="2048" 
 />
    <glyph glyph-name="uni2002" unicode="&#x2002;" horiz-adv-x="1024" 
 />
    <glyph glyph-name="uni2003" unicode="&#x2003;" horiz-adv-x="2048" 
 />
    <glyph glyph-name="uni2004" unicode="&#x2004;" horiz-adv-x="681" 
 />
    <glyph glyph-name="uni2005" unicode="&#x2005;" horiz-adv-x="512" 
 />
    <glyph glyph-name="uni2006" unicode="&#x2006;" horiz-adv-x="339" 
 />
    <glyph glyph-name="uni2007" unicode="&#x2007;" horiz-adv-x="1101" 
 />
    <glyph glyph-name="uni2008" unicode="&#x2008;" horiz-adv-x="425" 
 />
    <glyph glyph-name="uni2009" unicode="&#x2009;" horiz-adv-x="256" 
 />
    <glyph glyph-name="uni200A" unicode="&#x200a;" horiz-adv-x="143" 
 />
    <glyph glyph-name="uni200B" unicode="&#x200b;" 
 />
    <glyph glyph-name="endash" unicode="&#x2013;" horiz-adv-x="1105" 
d="M102 455v161h902v-161h-902z" />
    <glyph glyph-name="emdash" unicode="&#x2014;" horiz-adv-x="2007" 
d="M102 455v161h1803v-161h-1803z" />
    <glyph glyph-name="quoteleft" unicode="&#x2018;" horiz-adv-x="360" 
d="M264 1296q-76 -73 -76 -131q0 -26 17 -44.5t37.5 -29t37.5 -35.5t17 -63q0 -51 -31 -81.5t-82 -30.5q-121 0 -121 168q0 183 142 303z" />
    <glyph glyph-name="quoteright" unicode="&#x2019;" horiz-adv-x="360" 
d="M96 940q76 73 76 131q0 26 -17 44.5t-37.5 29t-37.5 35.5t-17 63q0 51 31 82t82 31q121 0 121 -168q0 -183 -141 -303z" />
    <glyph glyph-name="quotesinglbase" unicode="&#x201a;" horiz-adv-x="360" 
d="M96 -209q76 76 76 131q0 22 -11 38t-27 26t-32.5 21.5t-27.5 33.5t-11 53q0 52 31 82.5t82 30.5q121 0 121 -168q0 -180 -141 -303z" />
    <glyph glyph-name="quotedblleft" unicode="&#x201c;" horiz-adv-x="649" 
d="M264 1296q-76 -73 -76 -131q0 -26 17 -44.5t37.5 -29t37.5 -35.5t17 -63q0 -51 -31 -81.5t-82 -30.5q-121 0 -121 168q0 183 142 303zM352 1049q0 183 142 303l59 -56q-76 -73 -76 -131q0 -26 17 -44.5t37.5 -29t37.5 -35.5t17 -63q0 -51 -31 -81.5t-82 -30.5
q-121 0 -121 168z" />
    <glyph glyph-name="quotedblright" unicode="&#x201d;" horiz-adv-x="649" 
d="M96 940q76 73 76 131q0 26 -17 44.5t-37.5 29t-37.5 35.5t-17 63q0 51 31 82t82 31q121 0 121 -168q0 -183 -141 -303zM352 1243q0 51 31 82t82 31q121 0 121 -168q0 -183 -142 -303l-59 55q76 73 76 131q0 26 -17 44.5t-37.5 29t-37.5 35.5t-17 63z" />
    <glyph glyph-name="quotedblbase" unicode="&#x201e;" horiz-adv-x="649" 
d="M96 -209q76 76 76 131q0 22 -11 38t-27 26t-32.5 21.5t-27.5 33.5t-11 53q0 52 31 82.5t82 30.5q121 0 121 -168q0 -180 -141 -303zM352 94q0 52 31 82.5t82 30.5q121 0 121 -168q0 -180 -142 -303l-59 55q76 76 76 131q0 19 -8 33.5t-20 22.5t-26.5 18.5t-26.5 21
t-20 30.5t-8 46z" />
    <glyph glyph-name="dagger" unicode="&#x2020;" horiz-adv-x="911" 
d="M352 -205v967h-270v176h270v352h207v-352h270v-176h-270v-967h-207z" />
    <glyph glyph-name="daggerdbl" unicode="&#x2021;" horiz-adv-x="911" 
d="M352 -205v352h-270v177h270v438h-270v176h270v352h207v-352h270v-176h-270v-438h270v-177h-270v-352h-207z" />
    <glyph glyph-name="bullet" unicode="&#x2022;" horiz-adv-x="557" 
d="M279 403q-89 0 -145 56t-56 145q0 88 56 144.5t145 56.5q88 0 144 -56.5t56 -144.5q0 -89 -56 -145t-144 -56z" />
    <glyph glyph-name="ellipsis" unicode="&#x2026;" horiz-adv-x="1251" 
d="M254 -20q-51 0 -86 34.5t-35 85.5t35 87t86 36q52 0 86.5 -36.5t34.5 -86.5q0 -51 -34.5 -85.5t-86.5 -34.5zM504 100q0 51 35 87t86 36q52 0 86 -36t34 -87t-34 -85.5t-86 -34.5q-51 0 -86 34.5t-35 85.5zM877 100q0 51 34.5 87t85.5 36q52 0 86.5 -36.5t34.5 -86.5
q0 -51 -34.5 -85.5t-86.5 -34.5q-51 0 -85.5 34.5t-34.5 85.5z" />
    <glyph glyph-name="uni202F" unicode="&#x202f;" horiz-adv-x="77" 
 />
    <glyph glyph-name="perthousand" unicode="&#x2030;" horiz-adv-x="1896" 
d="M319 750q-125 0 -201.5 71t-76.5 211q0 131 80 206t198 75q126 0 203.5 -71t77.5 -210q0 -132 -81 -207t-200 -75zM184 1032q0 -74 37 -111.5t98 -37.5q75 0 113 35q25 48 25 114q0 71 -39 110.5t-99 39.5q-67 0 -106 -31q-29 -42 -29 -119zM215 0l688 1290h178
l-690 -1290h-176zM698 264q0 131 80.5 206t198.5 75q126 0 203 -71t77 -210q0 -132 -80.5 -207t-199.5 -75q-125 0 -202 71t-77 211zM842 264q0 -74 37 -111.5t98 -37.5q75 0 113 35q24 46 24 114q0 71 -38.5 110.5t-98.5 39.5q-68 0 -107 -31q-28 -41 -28 -119zM1298 264
q0 131 80.5 206t198.5 75q126 0 203.5 -71t77.5 -210q0 -132 -81 -207t-200 -75q-125 0 -202 71t-77 211zM1442 264q0 -74 37 -111.5t98 -37.5q75 0 113 35q24 46 24 114q0 71 -38.5 110.5t-98.5 39.5q-68 0 -107 -31q-28 -41 -28 -119z" />
    <glyph glyph-name="guilsinglleft" unicode="&#x2039;" horiz-adv-x="559" 
d="M274 242l-213 270l213 270h205l-213 -270l213 -270h-205z" />
    <glyph glyph-name="guilsinglright" unicode="&#x203a;" horiz-adv-x="559" 
d="M285 242h-205l213 270l-213 270h205l213 -270z" />
    <glyph glyph-name="fraction" unicode="&#x2044;" horiz-adv-x="235" 
d="M-315 0l688 1290h178l-690 -1290h-176z" />
    <glyph glyph-name="uni205F" unicode="&#x205f;" horiz-adv-x="454" 
 />
    <glyph glyph-name="Euro" unicode="&#x20ac;" horiz-adv-x="1214" 
d="M782 -23q-459 0 -538 461h-162v142h149q-2 18 -2 55q0 49 2 74h-149v141h164q14 76 37.5 141t66 126t99.5 103.5t141.5 68.5t187.5 26q174 0 322 -62l-35 -161q-138 57 -295 57q-149 0 -244 -76q-68 -99 -90 -223h563l-28 -141h-551q-2 -23 -2 -66q0 -40 2 -63h526
l-28 -142h-482q62 -295 344 -295q83 0 173.5 19.5t136.5 42.5l22 -164q-145 -64 -330 -64z" />
    <glyph glyph-name="uni2116" unicode="&#x2116;" horiz-adv-x="2070" 
d="M135 0v1290h293l547 -1046v1046h199v-1290h-289l-549 1049v-1049h-201zM1368 1030q0 125 80 203t213 78q140 0 215.5 -74.5t75.5 -206.5q0 -125 -79 -201.5t-214 -76.5q-140 0 -215.5 74t-75.5 204zM1522 1032q0 -65 35 -108t104 -43q79 0 113 34q26 39 26 113
q0 67 -36 110.5t-105 43.5q-78 0 -107 -33q-30 -48 -30 -117z" />
    <glyph glyph-name="trademark" unicode="&#x2122;" horiz-adv-x="1628" 
d="M791 696v594h196l176 -426l168 426h195v-594h-127v463l-187 -463h-102l-195 465v-465h-124zM102 1184v106h555v-106h-211v-488h-131v488h-213z" />
    <glyph glyph-name="estimated" unicode="&#x212e;" horiz-adv-x="1599" 
d="M801 0q-209 0 -372 80t-255 229.5t-92 345.5q0 193 92 342.5t255.5 231.5t371.5 82q321 0 512.5 -175.5t204.5 -498.5h-1141q-16 0 -22.5 -6t-6.5 -29v-319q0 -27 33.5 -65.5t90 -76t145 -64t184.5 -26.5q130 0 251 58.5t201 150.5h133q-128 -143 -257.5 -201.5
t-327.5 -58.5zM348 694q0 -16 29 -16h842q21 0 25.5 5.5t4.5 25.5v313q0 51 -69.5 108.5t-176 96.5t-204.5 39q-91 0 -178.5 -27.5t-145 -66t-92.5 -76t-35 -60.5v-342z" />
    <glyph glyph-name="partialdiff" unicode="&#x2202;" horiz-adv-x="1085" 
d="M516 -27q-88 0 -161.5 26t-131 78t-89.5 136.5t-32 194.5q0 213 114.5 329.5t301.5 116.5q163 0 250 -98q-33 181 -151.5 285t-335.5 104l65 172q130 -6 234.5 -42t169 -84.5t112.5 -117t70 -124.5t35 -123t14.5 -96t1.5 -60q0 -153 -24 -272.5t-66 -198.5t-101.5 -130.5
t-127.5 -73.5t-148 -22zM303 416q0 -120 55 -196.5t168 -76.5q117 0 186.5 92.5t69.5 286.5v64q-100 96 -245 96q-116 0 -175 -70t-59 -196z" />
    <glyph glyph-name="uni2206" unicode="&#x2206;" horiz-adv-x="1437" 
d="M102 0l492 1290h250l491 -1290h-1233zM375 162h686l-342 925z" />
    <glyph glyph-name="product" unicode="&#x220f;" horiz-adv-x="1239" 
d="M815 -205v1319h-391v-1319h-199v1319h-123v176h1035v-176h-123v-1319h-199z" />
    <glyph glyph-name="summation" unicode="&#x2211;" horiz-adv-x="1128" 
d="M102 -205v152l516 596l-516 596v151h924v-176h-647l436 -506v-131l-436 -506h647v-176h-924z" />
    <glyph glyph-name="minus" unicode="&#x2212;" horiz-adv-x="1140" 
d="M115 565v164h911v-164h-911z" />
    <glyph glyph-name="radical" unicode="&#x221a;" horiz-adv-x="1277" 
d="M395 -205l-293 758h203l203 -553l366 1290h302v-176h-154l-395 -1319h-232z" />
    <glyph glyph-name="infinity" unicode="&#x221e;" horiz-adv-x="1312" 
d="M356 336q-144 0 -219.5 77.5t-75.5 215.5q0 132 80.5 215.5t220.5 83.5q116 0 186 -42.5t118 -117.5q114 158 288 158q143 0 220 -78t77 -217q0 -133 -80.5 -214t-222.5 -81q-118 0 -188 41.5t-113 114.5q-127 -156 -291 -156zM207 633q0 -70 39.5 -116t118.5 -46
q78 0 131.5 33.5t91.5 107.5q-20 44 -36.5 70.5t-43 55t-64 42t-86.5 13.5q-74 0 -118 -23q-33 -43 -33 -137zM727 649q21 -43 37.5 -69.5t43 -54.5t62.5 -41t82 -13q84 0 123 25q31 40 31 133q0 71 -41.5 117.5t-116.5 46.5q-150 0 -221 -144z" />
    <glyph glyph-name="integral" unicode="&#x222b;" horiz-adv-x="901" 
d="M236 -229q-72 0 -134 16v166q55 -14 113 -14q75 0 109 34q32 62 32 185v774q0 86 16.5 153.5t52 120t96.5 81t145 28.5q70 0 133 -17v-165q-55 14 -113 14q-73 0 -108 -35q-33 -64 -33 -184v-774q0 -383 -309 -383z" />
    <glyph glyph-name="approxequal" unicode="&#x2248;" horiz-adv-x="1140" 
d="M784 684q-61 0 -115 20t-92.5 49t-72.5 57.5t-71 48.5t-73 20q-61 0 -90.5 -50.5t-29.5 -130.5h-150q0 158 70 240t198 82q62 0 115.5 -20t91.5 -49t72 -57.5t71 -48.5t74 -20q117 0 117 181h150q0 -158 -69.5 -240t-195.5 -82zM90 289q0 158 70 239.5t198 81.5
q62 0 115.5 -20t91.5 -48.5t72 -57t71 -48.5t74 -20q117 0 117 180h150q0 -158 -69.5 -240t-195.5 -82q-61 0 -115 20t-92.5 49t-72.5 57.5t-71 48.5t-73 20q-61 0 -90.5 -50t-29.5 -130h-150z" />
    <glyph glyph-name="notequal" unicode="&#x2260;" horiz-adv-x="1140" 
d="M135 782v160h451l59 184h168l-59 -184h252v-160h-304l-84 -266h388v-160h-439l-59 -186h-166l59 186h-266v160h318l84 266h-402z" />
    <glyph glyph-name="lessequal" unicode="&#x2264;" horiz-adv-x="1140" 
d="M1026 336l-911 319v181l911 321v-190l-682 -222l682 -219v-190zM115 66v163h911v-163h-911z" />
    <glyph glyph-name="greaterequal" unicode="&#x2265;" horiz-adv-x="1140" 
d="M115 336v190l682 219l-682 222v190l911 -321v-181zM115 66v163h911v-163h-911z" />
    <glyph glyph-name="lozenge" unicode="&#x25ca;" horiz-adv-x="942" 
d="M469 0l-274 274l274 279l279 -279z" />
    <glyph glyph-name="uniA78B" unicode="&#xa78b;" horiz-adv-x="428" 
d="M115 410v880h198l-24 -880h-174z" />
    <glyph glyph-name="uniA78C" unicode="&#xa78c;" horiz-adv-x="411" 
d="M109 410v815h194l-20 -815h-174z" />
    <glyph glyph-name="uniF8FF" unicode="&#xf8ff;" horiz-adv-x="942" 
d="M469 0l-274 274l274 279l279 -279z" />
    <glyph glyph-name="uniFD3E" unicode="&#xfd3e;" horiz-adv-x="741" 
d="M522 -475q-211 197 -309 438.5t-98 548.5t98 548.5t309 438.5l121 -110q-352 -319 -352 -877q0 -551 352 -874z" />
    <glyph glyph-name="uniFD3F" unicode="&#xfd3f;" horiz-adv-x="741" 
d="M98 -362q353 324 353 874q0 557 -353 877l121 110q211 -197 309.5 -439t98.5 -548t-98.5 -548t-309.5 -439z" />
    <glyph glyph-name="uni066E.medi.wide" horiz-adv-x="759" 
d="M307 0h-307l-37 98l37 97h248q22 96 22 352v194h185v-356q0 -106 40 -148t130 -42h135v-195h-178q-141 0 -209 100q-23 -50 -66 -100z" />
    <glyph glyph-name="uni066E.init.wide" horiz-adv-x="669" 
d="M500 0h-500l-37 98l37 97h336q14 104 14 274v272h180v-247q0 -310 -30 -494z" />
    <glyph glyph-name="uni066E.init.wide.shifted" horiz-adv-x="741" 
d="M571 0h-571l-37 98l37 97h408q14 104 14 274v272h180v-247q0 -304 -31 -494z" />
    <glyph glyph-name="uni0628.medi.wide" horiz-adv-x="759" 
d="M307 0h-307l-37 98l37 97h248q22 96 22 352v194h185v-356q0 -106 40 -148t130 -42h135v-195h-178q-141 0 -209 100q-23 -50 -66 -100zM236 -293q0 53 33.5 88t84.5 35q52 0 86.5 -35t34.5 -88q0 -51 -34.5 -86t-86.5 -35q-51 0 -84.5 35t-33.5 86z" />
    <glyph glyph-name="uni0628.init.wide" horiz-adv-x="669" 
d="M500 0h-500l-37 98l37 97h336q14 104 14 274v272h180v-247q0 -310 -30 -494zM199 -293q0 53 33.5 88t84.5 35q52 0 86.5 -35t34.5 -88q0 -51 -34.5 -86t-86.5 -35q-51 0 -84.5 35t-33.5 86z" />
    <glyph glyph-name="uni062A.medi.wide" horiz-adv-x="759" 
d="M307 0h-307l-37 98l37 97h248q22 96 22 352v194h185v-356q0 -106 40 -148t130 -42h135v-195h-178q-141 0 -209 100q-23 -50 -66 -100zM86 1069q0 53 34 88t85 35t85 -35t34 -88q0 -51 -34 -85t-85 -34t-85 34t-34 85zM385 1069q0 53 34 88t85 35t85 -35t34 -88
q0 -51 -34 -85t-85 -34t-85 34t-34 85z" />
    <glyph glyph-name="uni062A.init.wide" horiz-adv-x="669" 
d="M500 0h-500l-37 98l37 97h336q14 104 14 274v272h180v-247q0 -310 -30 -494zM92 1133q0 52 34 87t85 35t85 -35t34 -87q0 -51 -34 -85t-85 -34t-85 34t-34 85zM391 1133q0 52 34 87t85 35t85 -35t34 -87q0 -51 -34 -85t-85 -34t-85 34t-34 85z" />
    <glyph glyph-name="uni062B.medi.wide" horiz-adv-x="759" 
d="M307 0h-307l-37 98l37 97h248q22 96 22 352v194h185v-356q0 -106 40 -148t130 -42h135v-195h-178q-141 0 -209 100q-23 -50 -66 -100zM100 1053q0 46 30.5 77t76.5 31t76 -31t30 -77t-30 -76.5t-76 -30.5t-76.5 30.5t-30.5 76.5zM250 1288q0 46 30.5 77.5t75.5 31.5
q44 0 74.5 -31.5t30.5 -77.5q0 -44 -30.5 -75t-74.5 -31q-45 0 -75.5 30.5t-30.5 75.5zM397 1053q0 46 30.5 77t76.5 31t76 -31t30 -77t-30 -76.5t-76 -30.5t-76.5 30.5t-30.5 76.5z" />
    <glyph glyph-name="uni062B.init.wide" horiz-adv-x="669" 
d="M500 0h-500l-37 98l37 97h336q14 104 14 274v272h180v-247q0 -310 -30 -494zM106 1116q0 46 30.5 77.5t76.5 31.5q45 0 75.5 -31.5t30.5 -77.5t-30 -76t-76 -30t-76.5 30t-30.5 76zM256 1352q0 46 30 77t76 31q44 0 74.5 -31t30.5 -77q0 -44 -30.5 -75.5t-74.5 -31.5
q-45 0 -75.5 31t-30.5 76zM403 1116q0 46 30.5 77.5t76.5 31.5q45 0 75.5 -31.5t30.5 -77.5t-30 -76t-76 -30t-76.5 30t-30.5 76z" />
    <glyph glyph-name="uni0643.medi.ss01" horiz-adv-x="1636" 
d="M1251 0h-1251l-37 98l37 97h1255q-15 136 -110 192.5t-297 56.5h-670l-86 252l793 469l98 -174l-649 -356h575q467 0 516 -359q7 -49 41 -65t127 -16h43v-195h-71q-88 0 -145.5 22t-96.5 74z" />
    <glyph glyph-name="uni0643.init.ss01" horiz-adv-x="1507" 
d="M1331 0h-1331l-37 98l37 97h1237q-15 137 -106 193t-289 56h-664l-86 252l793 469l98 -174l-649 -356h518q79 0 142 -6t124 -20.5t107 -39.5t85 -63.5t64 -91t39 -123.5t14 -160z" />
    <glyph glyph-name="uni0646.medi.wide" horiz-adv-x="759" 
d="M307 0h-307l-37 98l37 97h248q22 96 22 352v194h185v-356q0 -106 40 -148t130 -42h135v-195h-178q-141 0 -209 100q-23 -50 -66 -100zM236 1065q0 53 33.5 88t84.5 35q52 0 86.5 -35t34.5 -88q0 -51 -34.5 -86t-86.5 -35q-51 0 -84.5 35t-33.5 86z" />
    <glyph glyph-name="uni0646.init.wide" horiz-adv-x="669" 
d="M500 0h-500l-37 98l37 97h336q14 104 14 274v272h180v-247q0 -310 -30 -494zM242 1128q0 53 33.5 88t84.5 35q52 0 86.5 -35t34.5 -88q0 -51 -34.5 -85.5t-86.5 -34.5q-51 0 -84.5 34.5t-33.5 85.5z" />
    <glyph glyph-name="uni064A.medi.wide" horiz-adv-x="759" 
d="M307 0h-307l-37 98l37 97h248q22 96 22 352v194h185v-356q0 -106 40 -148t130 -42h135v-195h-178q-141 0 -209 100q-23 -50 -66 -100zM86 -293q0 51 34 86t85 35t85 -35t34 -86t-34 -85t-85 -34t-85 34t-34 85zM385 -293q0 51 34 86t85 35t85 -35t34 -86t-34 -85t-85 -34
t-85 34t-34 85z" />
    <glyph glyph-name="uni064A.medi.wide.shifted" horiz-adv-x="759" 
d="M307 0h-307l-37 98l37 97h248q22 96 22 352v194h185v-356q0 -106 40 -148t130 -42h135v-195h-178q-141 0 -209 100q-23 -50 -66 -100zM25 -293q0 51 33.5 86t84.5 35t85 -35t34 -86t-34 -85t-85 -34t-84.5 34t-33.5 85zM324 -293q0 51 33.5 86t84.5 35t85 -35t34 -86
t-34 -85t-85 -34t-84.5 34t-33.5 85z" />
    <glyph glyph-name="uni064A.init.wide" horiz-adv-x="669" 
d="M500 0h-500l-37 98l37 97h336q14 104 14 274v272h180v-247q0 -310 -30 -494zM49 -293q0 51 34 86t85 35t85 -35t34 -86t-34 -85t-85 -34t-85 34t-34 85zM348 -293q0 51 34 86t85 35t85 -35t34 -86t-34 -85t-85 -34t-85 34t-34 85z" />
    <glyph glyph-name="uni064A.init.wide.shifted" horiz-adv-x="741" 
d="M571 0h-571l-37 98l37 97h408q14 104 14 274v272h180v-247q0 -304 -31 -494zM-37 -293q0 51 34 86t85 35t85 -35t34 -86t-34 -85t-85 -34t-85 34t-34 85zM262 -293q0 51 34 86t85 35t85 -35t34 -86t-34 -85t-85 -34t-85 34t-34 85z" />
    <glyph glyph-name="uni0626.medi.wide" horiz-adv-x="759" 
d="M307 0h-307l-37 98l37 97h248q22 96 22 352v194h185v-356q0 -106 40 -148t130 -42h135v-195h-178q-141 0 -209 100q-23 -50 -66 -100zM145 1071l117 12q-41 48 -41 119q0 64 40.5 101.5t111.5 37.5q67 0 145 -32l-37 -99q-54 23 -92 23q-35 0 -61 -16q-1 -63 29 -93.5
t87 -25.5l111 8l8 -96l-407 -37z" />
    <glyph glyph-name="uni0626.init.wide" horiz-adv-x="669" 
d="M500 0h-500l-37 98l37 97h336q14 104 14 274v272h180v-247q0 -310 -30 -494zM152 1135l116 12q-41 48 -41 119q0 64 40.5 101.5t111.5 37.5q64 0 145 -33l-37 -98q-52 22 -92 22q-35 0 -61 -16q-1 -63 29.5 -93.5t87.5 -25.5l110 8l8 -96l-407 -37z" />
    <glyph glyph-name="uni06440627" horiz-adv-x="978" 
d="M80 217q197 140 302.5 226.5t174.5 177.5q-85 123 -200.5 238t-274.5 251l121 145q303 -265 448 -464q54 143 54 358v237h176v-219q0 -339 -121 -546q129 -241 123 -494l-97 -127h-655zM311 195h416q-14 136 -80 274q-98 -105 -336 -274z" />
    <glyph glyph-name="uni06440627.fina" horiz-adv-x="1048" 
d="M78 133q221 -2 378.5 59.5t215.5 176.5q4 53 4 426v591h182v-944q0 -247 166 -247h25v-195h-27q-220 0 -281 190q-56 -87 -167 -143.5t-231.5 -77.5t-256.5 -20zM139 1284l174 23l140 -877l-177 -27z" />
    <glyph glyph-name="uni06440623" horiz-adv-x="978" 
d="M80 217q197 140 302.5 226.5t174.5 177.5q-85 123 -200.5 238t-274.5 251l121 145q303 -265 448 -464q54 143 54 358v237h176v-219q0 -339 -121 -546q129 -241 123 -494l-97 -127h-655zM-37 1479l117 12q-41 48 -41 119q0 65 40.5 102t110.5 37q65 0 146 -33l-37 -98
q-52 22 -92 22q-36 0 -62 -16q-1 -63 29.5 -93.5t87.5 -25.5l111 8l8 -96l-408 -37zM311 195h416q-14 136 -80 274q-98 -105 -336 -274z" />
    <glyph glyph-name="uni06440623.fina" horiz-adv-x="1048" 
d="M78 133q221 -2 378.5 59.5t215.5 176.5q4 53 4 426v591h182v-944q0 -247 166 -247h25v-195h-27q-220 0 -281 190q-56 -87 -167 -143.5t-231.5 -77.5t-256.5 -20zM-16 1567l116 12q-41 48 -41 119q0 64 40.5 101.5t111.5 37.5q64 0 145 -33l-37 -98q-54 23 -92 23
q-34 0 -61 -17q-1 -63 29.5 -93.5t87.5 -25.5l110 9l8 -97l-407 -37zM139 1284l174 23l140 -877l-177 -27z" />
    <glyph glyph-name="uni06440625" horiz-adv-x="978" 
d="M80 217q197 140 302.5 226.5t174.5 177.5q-85 123 -200.5 238t-274.5 251l121 145q303 -265 448 -464q54 143 54 358v237h176v-219q0 -339 -121 -546q129 -241 123 -494l-97 -127h-655zM0 -434l119 10q-43 46 -43 121q0 65 40.5 102t110.5 37q71 0 146 -35l-37 -96
q-54 23 -92 23q-35 0 -62 -17q-1 -63 29.5 -94.5t87.5 -26.5l111 11l8 -99l-408 -37zM311 195h416q-14 136 -80 274q-98 -105 -336 -274z" />
    <glyph glyph-name="uni06440625.fina" horiz-adv-x="1048" 
d="M78 133q221 -2 378.5 59.5t215.5 176.5q4 53 4 426v591h182v-944q0 -247 166 -247h25v-195h-27q-220 0 -281 190q-56 -87 -167 -143.5t-231.5 -77.5t-256.5 -20zM-16 1567l116 12q-41 48 -41 119q0 64 40.5 101.5t111.5 37.5q64 0 145 -33l-37 -98q-54 23 -92 23
q-34 0 -61 -17q-1 -63 29.5 -93.5t87.5 -25.5l110 9l8 -97l-407 -37zM139 1284l174 23l140 -877l-177 -27z" />
    <glyph glyph-name="uni06440622" horiz-adv-x="978" 
d="M80 217q197 140 302.5 226.5t174.5 177.5q-85 123 -200.5 238t-274.5 251l121 145q303 -265 448 -464q54 143 54 358v237h176v-219q0 -339 -121 -546q129 -241 123 -494l-97 -127h-655zM-68 1479q41 40 91.5 51.5t97.5 3.5t93 -17.5t92 -6t81 31.5l33 -100
q-43 -32 -96 -39t-101 0.5t-94.5 15t-90.5 -1.5t-75 -43zM311 195h416q-14 136 -80 274q-98 -105 -336 -274z" />
    <glyph glyph-name="uni06440622.fina" horiz-adv-x="1048" 
d="M78 133q221 -2 378.5 59.5t215.5 176.5q4 53 4 426v591h182v-944q0 -247 166 -247h25v-195h-27q-220 0 -281 190q-56 -87 -167 -143.5t-231.5 -77.5t-256.5 -20zM-47 1565q41 40 91.5 51.5t97.5 3.5t93 -17.5t92 -6t81 31.5l32 -100q-43 -32 -95.5 -39t-100.5 0.5
t-94.5 15t-90.5 -1.5t-75 -43zM139 1284l174 23l140 -877l-177 -27z" />
    <glyph glyph-name="uni06440671" horiz-adv-x="978" 
d="M80 217q197 140 302.5 226.5t174.5 177.5q-85 123 -200.5 238t-274.5 251l121 145q303 -265 448 -464q54 143 54 358v237h176v-219q0 -339 -121 -546q129 -241 123 -494l-97 -127h-655zM-121 1436q66 75 144 75q23 0 55 -8q95 146 203 146q57 0 95 -39t38 -94
q0 -63 -51 -103.5t-138 -40.5q-58 0 -117.5 24.5t-87.5 24.5q-45 0 -90 -47zM143 1477q43 -15 86 -15q70 0 109 25q-8 65 -70 65q-65 0 -125 -75zM311 195h416q-14 136 -80 274q-98 -105 -336 -274z" />
    <glyph glyph-name="uni06440671.fina" horiz-adv-x="1048" 
d="M78 133q221 -2 378.5 59.5t215.5 176.5q4 53 4 426v591h182v-944q0 -247 166 -247h25v-195h-27q-220 0 -281 190q-56 -87 -167 -143.5t-231.5 -77.5t-256.5 -20zM-100 1524q66 75 143 75q23 0 55 -8q95 146 203 146q57 0 95 -39t38 -94q0 -63 -50.5 -103.5t-137.5 -40.5
q-58 0 -117.5 24.5t-87.5 24.5q-45 0 -90 -47zM139 1284l174 23l140 -877l-177 -27zM164 1565q43 -15 86 -15q69 0 108 25q-8 65 -69 65q-65 0 -125 -75z" />
    <glyph glyph-name="uni06410649" horiz-adv-x="1429" 
d="M680 -410q-94 0 -179 15.5t-162.5 51t-133.5 88.5t-89.5 133.5t-33.5 180.5q0 113 43.5 220t138.5 233l144 -111q-140 -184 -140 -321q0 -143 122.5 -219t322.5 -76q313 0 438 180q-151 83 -440 133l43 170q140 -20 250 -51q67 67 108 176q-532 28 -532 299
q0 46 16 100.5t48 108.5t74.5 98t101 71.5t122.5 27.5q111 0 198 -82.5t130 -202t43 -246.5q0 -116 -38.5 -225.5t-107.5 -185.5q140 -78 140 -201q0 -106 -89 -191t-231.5 -129.5t-306.5 -44.5zM743 674q57 -48 165 -74t233 -29q-12 154 -67.5 244t-141.5 90
q-69 0 -120 -64.5t-69 -166.5zM819 1366q0 53 34 88t85 35q52 0 86.5 -35t34.5 -88q0 -51 -34.5 -86t-86.5 -35q-51 0 -85 35t-34 86z" />
    <glyph glyph-name="uni0641064A" horiz-adv-x="1429" 
d="M680 -410q-94 0 -179 15.5t-162.5 51t-133.5 88.5t-89.5 133.5t-33.5 180.5q0 113 43.5 220t138.5 233l144 -111q-140 -184 -140 -321q0 -143 122.5 -219t322.5 -76q313 0 438 180q-151 83 -440 133l43 170q140 -20 250 -51q67 67 108 176q-532 28 -532 299
q0 46 16 100.5t48 108.5t74.5 98t101 71.5t122.5 27.5q111 0 198 -82.5t130 -202t43 -246.5q0 -116 -38.5 -225.5t-107.5 -185.5q140 -78 140 -201q0 -106 -89 -191t-231.5 -129.5t-306.5 -44.5zM307 -664q0 51 34 86t85 35t85 -35t34 -86t-34 -84.5t-85 -33.5t-85 33.5
t-34 84.5zM606 -664q0 51 34 86t85 35t85 -35t34 -86t-34 -84.5t-85 -33.5t-85 33.5t-34 84.5zM743 674q57 -48 165 -74t233 -29q-12 154 -67.5 244t-141.5 90q-69 0 -120 -64.5t-69 -166.5zM819 1366q0 53 34 88t85 35q52 0 86.5 -35t34.5 -88q0 -51 -34.5 -86t-86.5 -35
q-51 0 -85 35t-34 86z" />
    <glyph glyph-name="uni06410626" horiz-adv-x="1429" 
d="M680 -410q-94 0 -179 15.5t-162.5 51t-133.5 88.5t-89.5 133.5t-33.5 180.5q0 113 43.5 220t138.5 233l144 -111q-140 -184 -140 -321q0 -143 122.5 -219t322.5 -76q313 0 438 180q-151 83 -440 133l43 170q140 -20 250 -51q67 67 108 176q-532 28 -532 299
q0 46 16 100.5t48 108.5t74.5 98t101 71.5t122.5 27.5q111 0 198 -82.5t130 -202t43 -246.5q0 -116 -38.5 -225.5t-107.5 -185.5q140 -78 140 -201q0 -106 -89 -191t-231.5 -129.5t-306.5 -44.5zM35 827l117 13q-41 48 -41 118q0 65 40.5 102.5t110.5 37.5q65 0 146 -33
l-37 -98q-52 22 -92 22q-36 0 -62 -16q-1 -63 29.5 -93.5t87.5 -25.5l110 8l9 -96l-408 -37zM743 674q57 -48 165 -74t233 -29q-12 154 -67.5 244t-141.5 90q-69 0 -120 -64.5t-69 -166.5zM819 1366q0 53 34 88t85 35q52 0 86.5 -35t34.5 -88q0 -51 -34.5 -86t-86.5 -35
q-51 0 -85 35t-34 86z" />
    <glyph glyph-name="uni06A10649" horiz-adv-x="1429" 
d="M680 -410q-94 0 -179 15.5t-162.5 51t-133.5 88.5t-89.5 133.5t-33.5 180.5q0 113 43.5 220t138.5 233l144 -111q-140 -184 -140 -321q0 -143 122.5 -219t322.5 -76q313 0 438 180q-151 83 -440 133l43 170q140 -20 250 -51q67 67 108 176q-532 28 -532 299
q0 46 16 100.5t48 108.5t74.5 98t101 71.5t122.5 27.5q111 0 198 -82.5t130 -202t43 -246.5q0 -116 -38.5 -225.5t-107.5 -185.5q140 -78 140 -201q0 -106 -89 -191t-231.5 -129.5t-306.5 -44.5zM743 674q57 -48 165 -74t233 -29q-12 154 -67.5 244t-141.5 90
q-69 0 -120 -64.5t-69 -166.5z" />
    <glyph glyph-name="uni06420649" horiz-adv-x="1429" 
d="M680 -410q-94 0 -179 15.5t-162.5 51t-133.5 88.5t-89.5 133.5t-33.5 180.5q0 113 43.5 220t138.5 233l144 -111q-140 -184 -140 -321q0 -143 122.5 -219t322.5 -76q313 0 438 180q-151 83 -440 133l43 170q140 -20 250 -51q67 67 108 176q-532 28 -532 299
q0 46 16 100.5t48 108.5t74.5 98t101 71.5t122.5 27.5q111 0 198 -82.5t130 -202t43 -246.5q0 -116 -38.5 -225.5t-107.5 -185.5q140 -78 140 -201q0 -106 -89 -191t-231.5 -129.5t-306.5 -44.5zM670 1368q0 53 33.5 88t84.5 35t85 -35t34 -88q0 -51 -34 -85t-85 -34
t-84.5 34t-33.5 85zM743 674q57 -48 165 -74t233 -29q-12 154 -67.5 244t-141.5 90q-69 0 -120 -64.5t-69 -166.5zM969 1368q0 53 33.5 88t84.5 35t85 -35t34 -88q0 -51 -34 -85t-85 -34t-84.5 34t-33.5 85z" />
    <glyph glyph-name="uni0642064A" horiz-adv-x="1429" 
d="M680 -410q-94 0 -179 15.5t-162.5 51t-133.5 88.5t-89.5 133.5t-33.5 180.5q0 113 43.5 220t138.5 233l144 -111q-140 -184 -140 -321q0 -143 122.5 -219t322.5 -76q313 0 438 180q-151 83 -440 133l43 170q140 -20 250 -51q67 67 108 176q-532 28 -532 299
q0 46 16 100.5t48 108.5t74.5 98t101 71.5t122.5 27.5q111 0 198 -82.5t130 -202t43 -246.5q0 -116 -38.5 -225.5t-107.5 -185.5q140 -78 140 -201q0 -106 -89 -191t-231.5 -129.5t-306.5 -44.5zM307 -664q0 51 34 86t85 35t85 -35t34 -86t-34 -84.5t-85 -33.5t-85 33.5
t-34 84.5zM606 -664q0 51 34 86t85 35t85 -35t34 -86t-34 -84.5t-85 -33.5t-85 33.5t-34 84.5zM670 1368q0 53 33.5 88t84.5 35t85 -35t34 -88q0 -51 -34 -85t-85 -34t-84.5 34t-33.5 85zM743 674q57 -48 165 -74t233 -29q-12 154 -67.5 244t-141.5 90q-69 0 -120 -64.5
t-69 -166.5zM969 1368q0 53 33.5 88t84.5 35t85 -35t34 -88q0 -51 -34 -85t-85 -34t-84.5 34t-33.5 85z" />
    <glyph glyph-name="uni06420626" horiz-adv-x="1429" 
d="M680 -410q-94 0 -179 15.5t-162.5 51t-133.5 88.5t-89.5 133.5t-33.5 180.5q0 113 43.5 220t138.5 233l144 -111q-140 -184 -140 -321q0 -143 122.5 -219t322.5 -76q313 0 438 180q-151 83 -440 133l43 170q140 -20 250 -51q67 67 108 176q-532 28 -532 299
q0 46 16 100.5t48 108.5t74.5 98t101 71.5t122.5 27.5q111 0 198 -82.5t130 -202t43 -246.5q0 -116 -38.5 -225.5t-107.5 -185.5q140 -78 140 -201q0 -106 -89 -191t-231.5 -129.5t-306.5 -44.5zM35 827l117 13q-41 48 -41 118q0 65 40.5 102.5t110.5 37.5q65 0 146 -33
l-37 -98q-52 22 -92 22q-36 0 -62 -16q-1 -63 29.5 -93.5t87.5 -25.5l110 8l9 -96l-408 -37zM670 1368q0 53 33.5 88t84.5 35t85 -35t34 -88q0 -51 -34 -85t-85 -34t-84.5 34t-33.5 85zM743 674q57 -48 165 -74t233 -29q-12 154 -67.5 244t-141.5 90q-69 0 -120 -64.5
t-69 -166.5zM969 1368q0 53 33.5 88t84.5 35t85 -35t34 -88q0 -51 -34 -85t-85 -34t-84.5 34t-33.5 85z" />
    </font>
</defs>
</svg>
