<?xml version="1.0" standalone="no"?>
<!DOCTYPE svg PUBLIC "-//W3C//DTD SVG 1.1//EN" "http://www.w3.org/Graphics/SVG/1.1/DTD/svg11.dtd" >
<svg xmlns="http://www.w3.org/2000/svg" xmlns:xlink="http://www.w3.org/1999/xlink" version="1.1">
<metadata>
Created by FontForge 20170731 at Sun Sep 17 09:34:49 2023
 By Aleksey,,,
Copyright (c) 2022 AK Design Lab
</metadata>
<defs>
<font id="Lusail-Light" horiz-adv-x="0" >
  <font-face 
    font-family="Lusail Light"
    font-weight="300"
    font-stretch="normal"
    units-per-em="2048"
    panose-1="0 0 0 0 0 0 0 0 0 0"
    ascent="1638"
    descent="-410"
    x-height="774"
    cap-height="1290"
    bbox="-360 -840 2316 1860"
    underline-thickness="102"
    underline-position="-358"
    unicode-range="U+0020-FDFC"
  />
<missing-glyph horiz-adv-x="1228" 
 />
    <glyph glyph-name="fi" unicode="fi" horiz-adv-x="1007" 
d="M754 0v664h-424v-664h-127v664h-144v110h144v260q0 151 72 234.5t208 83.5q86 0 156 -37l-33 -109q-64 33 -133 33q-75 0 -119 -37q-24 -47 -24 -153v-275h553v-774h-129zM725 1085q0 39 27.5 66t66.5 27t65.5 -27t26.5 -66t-26.5 -65.5t-65.5 -26.5q-40 0 -67 27t-27 65
z" />
    <glyph glyph-name="fl" unicode="fl" horiz-adv-x="997" 
d="M203 1034q0 159 81.5 238.5t250.5 79.5q78 0 173.5 -13.5t161.5 -33.5v-1305h-127v1219q-101 22 -204 22q-126 0 -185 -39q-24 -47 -24 -153v-275h258v-110h-258v-664h-127v664h-144v110h144v260z" />
    <glyph glyph-name="f_f" unicode="ff" horiz-adv-x="1169" 
d="M754 1034q0 152 71.5 235t210.5 83q90 0 164 -41l-33 -109q-57 37 -133 37q-88 0 -129 -37q-24 -47 -24 -153v-275h280v-110h-280v-664h-127v664h-424v-664h-127v664h-144v110h144v260q0 151 72 234.5t210 83.5q84 0 154 -37l-33 -109q-60 33 -123 33q-85 0 -129 -37
q-24 -47 -24 -153v-275h424v260z" />
    <glyph glyph-name="f_f_i" unicode="ffi" horiz-adv-x="1558" 
d="M1305 0v664h-424v-664h-127v664h-424v-664h-127v664h-144v110h144v260q0 151 72 234.5t208 83.5q86 0 156 -37l-33 -109q-64 33 -133 33q-75 0 -119 -37q-24 -47 -24 -153v-275h424v260q0 151 72 234.5t208 83.5q86 0 156 -37l-35 -109q-60 33 -121 33q-88 0 -129 -37
q-24 -47 -24 -153v-275h553v-774h-129zM1276 1085q0 39 27 66t67 27q39 0 65.5 -27t26.5 -66t-26.5 -65.5t-65.5 -26.5q-40 0 -67 27t-27 65z" />
    <glyph glyph-name="f_f_l" unicode="ffl" horiz-adv-x="1548" 
d="M754 1034q0 160 81 239t250 79q78 0 173 -13.5t163 -33.5v-1305h-127v1219q-101 22 -204 22q-129 0 -185 -39q-24 -47 -24 -153v-275h252v-110h-252v-664h-127v664h-424v-664h-127v664h-144v110h144v260q0 151 72 234.5t208 83.5q86 0 156 -37l-33 -109q-64 33 -133 33
q-75 0 -119 -37q-24 -47 -24 -153v-275h424v260z" />
    <glyph glyph-name="uni0622.fina" unicode="&#x622;" horiz-adv-x="489" arabic-form="final" 
d="M406 0q-93 0 -147 30t-81.5 106t-27.5 210v1040h116v-1042q0 -128 33 -171.5t131 -43.5h59v-129h-83zM-20 1593q39 36 86.5 47t93 3.5t90 -16t90.5 -4.5t82 30l27 -74q-43 -29 -95 -35t-98.5 1.5t-92 14.5t-87.5 -1t-72 -39z" />
    <glyph glyph-name="uni0623.fina" unicode="&#x623;" horiz-adv-x="489" arabic-form="final" 
d="M406 0q-93 0 -147 30t-81.5 106t-27.5 210v1040h116v-1042q0 -128 33 -171.5t131 -43.5h59v-129h-83zM14 1602l119 10q-47 47 -47 121q0 61 36.5 94t98.5 33q51 0 129 -31l-26 -74q-44 23 -93 23q-44 0 -65 -21q-3 -64 31.5 -100.5t99.5 -32.5l98 6l8 -69l-383 -31z" />
    <glyph glyph-name="uni0624.fina" unicode="&#x624;" horiz-adv-x="890" arabic-form="final" 
d="M150 -379q179 64 305.5 159.5t175.5 219.5q-279 5 -411 68.5t-132 197.5q0 86 44.5 178.5t124 158t167.5 65.5q91 0 170.5 -69t126.5 -184.5t47 -246.5q0 -27 -2 -39h125v-129h-146q-93 -317 -542 -485zM195 244q89 -115 411 -115h49v6q0 61 -16 129.5t-45 130.5
t-75.5 103t-100.5 41q-87 0 -154 -95t-69 -200zM229 958l119 11q-47 47 -47 121q0 61 36.5 94t98.5 33q52 0 129 -31l-26 -74q-44 23 -93 23q-44 0 -65 -21q-3 -64 31.5 -100.5t99.5 -32.5l98 6l8 -69l-382 -31z" />
    <glyph glyph-name="uni0625.fina" unicode="&#x625;" horiz-adv-x="489" arabic-form="final" 
d="M406 0q-93 0 -147 30t-81.5 106t-27.5 210v1040h116v-1042q0 -128 33 -171.5t131 -43.5h59v-129h-83zM12 -463l117 10q-45 45 -45 121q0 60 36 92.5t99 32.5q59 0 129 -31l-26 -71q-50 22 -93 22q-45 0 -65 -20q-3 -66 31.5 -102.5t99.5 -32.5l98 8l8 -70l-383 -31z" />
    <glyph glyph-name="uni0626.init" unicode="&#x626;" horiz-adv-x="505" arabic-form="initial" 
d="M334 0h-334l-37 66l37 63h229q15 159 15 332v215h116v-215q0 -290 -26 -461zM72 1069l118 10q-47 47 -47 121q0 61 36.5 94t99.5 33q51 0 129 -31l-27 -73q-42 22 -92 22q-46 0 -66 -20q-3 -64 31.5 -100.5t99.5 -32.5l99 6l8 -70l-383 -31z" />
    <glyph glyph-name="uni0626.medi" unicode="&#x626;" horiz-adv-x="528" arabic-form="medial" 
d="M203 0h-203l-37 66l37 63h166q20 88 20 352v195h119v-367q0 -109 36.5 -144.5t131.5 -35.5h55v-129h-94q-120 0 -180 78q-22 -49 -51 -78zM51 1008l119 10q-47 47 -47 121q0 61 36.5 94t98.5 33q52 0 129 -31l-27 -74q-44 23 -92 23q-44 0 -65 -21q-3 -64 31.5 -100.5
t99.5 -32.5l98 6l8 -69l-383 -31z" />
    <glyph glyph-name="uni0626.fina" unicode="&#x626;" horiz-adv-x="1312" arabic-form="final" 
d="M659 -410q-92 0 -172 14t-152 46.5t-123 82t-80.5 124t-29.5 168.5q0 102 37 197t119 208l96 -68q-66 -92 -98.5 -168.5t-32.5 -152.5q0 -155 121 -238.5t334 -83.5q178 0 307.5 55.5t185.5 153.5q-97 97 -348 238l64 102q216 -139 373 -139h53v-129h-72q23 -38 23 -78
q0 -60 -44 -119t-120.5 -106.5t-192 -77t-248.5 -29.5zM156 725l118 10q-47 47 -47 121q0 61 36.5 94t98.5 33q52 0 130 -31l-27 -73q-42 22 -92 22q-46 0 -66 -20q-3 -64 31.5 -100.5t99.5 -32.5l99 6l8 -70l-383 -31z" />
    <glyph glyph-name="uni0627.fina" unicode="&#x627;" horiz-adv-x="489" arabic-form="final" 
d="M406 0q-93 0 -147 30t-81.5 106t-27.5 210v1040h116v-1042q0 -128 33 -171.5t131 -43.5h59v-129h-83z" />
    <glyph glyph-name="uni0628.init" unicode="&#x628;" horiz-adv-x="505" arabic-form="initial" 
d="M334 0h-334l-37 66l37 63h229q15 159 15 332v215h116v-215q0 -290 -26 -461zM127 -291q0 41 27.5 69.5t68.5 28.5t67.5 -28t26.5 -70q0 -41 -26.5 -68.5t-67.5 -27.5t-68.5 27.5t-27.5 68.5z" />
    <glyph glyph-name="uni0628.medi" unicode="&#x628;" horiz-adv-x="528" arabic-form="medial" 
d="M203 0h-203l-37 66l37 63h166q20 88 20 352v195h119v-367q0 -109 36.5 -144.5t131.5 -35.5h55v-129h-94q-120 0 -180 78q-22 -49 -51 -78zM154 -291q0 41 27.5 69.5t68.5 28.5t67.5 -28t26.5 -70q0 -41 -26.5 -68.5t-67.5 -27.5t-68.5 27.5t-27.5 68.5z" />
    <glyph glyph-name="uni0628.fina" unicode="&#x628;" horiz-adv-x="1755" arabic-form="final" 
d="M518 0q-186 0 -285.5 88t-99.5 256q0 184 135 395l101 -65q-113 -174 -113 -318q0 -227 264 -227h910q14 118 14 346v201h117v-406q0 -76 41 -108.5t127 -32.5h26v-129h-31q-151 0 -208 70q-25 -37 -54 -70h-944zM831 -291q0 41 28 69.5t69 28.5t67.5 -28t26.5 -70
q0 -41 -26.5 -68.5t-67.5 -27.5t-69 27.5t-28 68.5z" />
    <glyph glyph-name="uni0629.fina" unicode="&#x629;" horiz-adv-x="1040" arabic-form="final" 
d="M471 63q-89 0 -164.5 27.5t-122.5 70t-73.5 92.5t-26.5 97q0 67 56.5 129.5t145.5 107t193.5 75t206.5 40.5v152h119v-291q0 -134 6.5 -213t24.5 -131t48.5 -71t80.5 -19h75v-129h-94q-84 0 -136 33.5t-79 109.5q-111 -80 -260 -80zM195 362q25 -87 103 -132.5t181 -45.5
q130 0 223 78q-16 104 -16 301v17q-171 -17 -311 -80t-180 -138zM315 1126q0 41 28 70t69 29t67.5 -28.5t26.5 -70.5q0 -41 -26.5 -68.5t-67.5 -27.5t-69 27.5t-28 68.5zM578 1126q0 42 27.5 70.5t68.5 28.5q40 0 67 -29t27 -70t-27 -68.5t-67 -27.5q-41 0 -68.5 27.5
t-27.5 68.5z" />
    <glyph glyph-name="uni062A.init" unicode="&#x62a;" horiz-adv-x="505" arabic-form="initial" 
d="M334 0h-334l-37 66l37 63h229q15 159 15 332v215h116v-215q0 -290 -26 -461zM39 1055q0 41 27.5 69.5t68.5 28.5t67.5 -28t26.5 -70t-26.5 -69.5t-67.5 -27.5t-68.5 28t-27.5 69zM301 1055q0 41 27.5 69.5t68.5 28.5q40 0 67.5 -28.5t27.5 -69.5t-27.5 -69t-67.5 -28
q-41 0 -68.5 28t-27.5 69z" />
    <glyph glyph-name="uni062A.medi" unicode="&#x62a;" horiz-adv-x="528" arabic-form="medial" 
d="M203 0h-203l-37 66l37 63h166q20 88 20 352v195h119v-367q0 -109 36.5 -144.5t131.5 -35.5h55v-129h-94q-120 0 -180 78q-22 -49 -51 -78zM16 993q0 41 28 70t69 29t67.5 -28.5t26.5 -70.5q0 -41 -26.5 -68.5t-67.5 -27.5t-69 27.5t-28 68.5zM279 993q0 42 27.5 70.5
t68.5 28.5q40 0 67 -29t27 -70t-27 -68.5t-67 -27.5q-41 0 -68.5 27.5t-27.5 68.5z" />
    <glyph glyph-name="uni062A.fina" unicode="&#x62a;" horiz-adv-x="1755" arabic-form="final" 
d="M518 0q-186 0 -285.5 88t-99.5 256q0 184 135 395l101 -65q-113 -174 -113 -318q0 -227 264 -227h910q14 118 14 346v201h117v-406q0 -76 41 -108.5t127 -32.5h26v-129h-31q-151 0 -208 70q-25 -37 -54 -70h-944zM700 956q0 41 28 70t69 29t67.5 -28.5t26.5 -70.5
q0 -41 -26.5 -68.5t-67.5 -27.5t-69 27.5t-28 68.5zM963 956q0 42 27.5 70.5t68.5 28.5q40 0 67 -29t27 -70t-27 -68.5t-67 -27.5q-41 0 -68.5 27.5t-27.5 68.5z" />
    <glyph glyph-name="uni062B.init" unicode="&#x62b;" horiz-adv-x="505" arabic-form="initial" 
d="M334 0h-334l-37 66l37 63h229q15 159 15 332v215h116v-215q0 -290 -26 -461zM55 1047q0 38 25 63t63 25q37 0 60.5 -25t23.5 -63t-23.5 -62t-60.5 -24q-38 0 -63 24t-25 62zM180 1255q0 39 25 65t63 26q35 0 59.5 -26.5t24.5 -64.5q0 -37 -24.5 -61.5t-59.5 -24.5
q-38 0 -63 24.5t-25 61.5zM305 1047q0 38 24.5 63t61.5 25t61.5 -25t24.5 -63t-24.5 -62t-61.5 -24t-61.5 24t-24.5 62z" />
    <glyph glyph-name="uni062B.medi" unicode="&#x62b;" horiz-adv-x="528" arabic-form="medial" 
d="M203 0h-203l-37 66l37 63h166q20 88 20 352v195h119v-367q0 -109 36.5 -144.5t131.5 -35.5h55v-129h-94q-120 0 -180 78q-22 -49 -51 -78zM33 985q0 38 25 63t63 25q37 0 60.5 -25t23.5 -63t-23.5 -62t-60.5 -24q-38 0 -63 24t-25 62zM158 1194q0 38 25 64t63 26
q35 0 59.5 -26t24.5 -64q0 -37 -24.5 -61.5t-59.5 -24.5q-38 0 -63 24.5t-25 61.5zM283 985q0 38 24.5 63t61.5 25t61.5 -25t24.5 -63t-24.5 -62t-61.5 -24t-61.5 24t-24.5 62z" />
    <glyph glyph-name="uni062B.fina" unicode="&#x62b;" horiz-adv-x="1755" arabic-form="final" 
d="M518 0q-186 0 -285.5 88t-99.5 256q0 184 135 395l101 -65q-113 -174 -113 -318q0 -227 264 -227h910q14 118 14 346v201h117v-406q0 -76 41 -108.5t127 -32.5h26v-129h-31q-151 0 -208 70q-25 -37 -54 -70h-944zM715 948q0 38 25 63t63 25q37 0 60.5 -25t23.5 -63
t-23.5 -62t-60.5 -24q-38 0 -63 24t-25 62zM840 1157q0 38 25 64t63 26q35 0 59.5 -26t24.5 -64q0 -37 -24.5 -61.5t-59.5 -24.5q-38 0 -63 24.5t-25 61.5zM965 948q0 38 24.5 63t61.5 25t61.5 -25t24.5 -63t-24.5 -62t-61.5 -24t-61.5 24t-24.5 62z" />
    <glyph glyph-name="uni062C.init" unicode="&#x62c;" horiz-adv-x="1193" arabic-form="initial" 
d="M43 0h-43l-37 66l37 63h76q52 0 103.5 9t92.5 20.5t90 35t80 40.5t78.5 50.5t69.5 50t69.5 54t63.5 49.5q-35 10 -116 36t-122 37.5t-102 22.5t-111 11q-112 0 -196 -35l-29 121q113 43 225 43q77 0 151 -16t139 -39t137 -46t175.5 -40t223.5 -19l-21 -125q-62 6 -100 6
q-55 0 -108.5 -22t-102 -56.5t-100.5 -76.5t-114.5 -84.5t-133.5 -77t-168 -56.5t-207 -22zM446 -223q0 41 28 69.5t69 28.5t67.5 -28t26.5 -70q0 -41 -26.5 -68.5t-67.5 -27.5t-69 27.5t-28 68.5z" />
    <glyph glyph-name="uni062C.medi" unicode="&#x62c;" horiz-adv-x="1189" arabic-form="medial" 
d="M43 0h-43l-37 66l37 63h76q52 0 103.5 9t92.5 20.5t90 35t80 40.5t78.5 50.5t69.5 50t69.5 54t63.5 49.5q-35 10 -116 36t-122 37.5t-102 22.5t-111 11q-112 0 -196 -35l-29 121q113 43 225 43q77 0 151 -16t139 -39t137 -46t175.5 -40t223.5 -19l-21 -125q-62 6 -100 6
q-65 0 -122.5 -27.5t-129.5 -80.5q34 -77 109.5 -117.5t185.5 -40.5h170v-129h-150q-319 0 -399 221q-63 -49 -113 -81t-125 -68t-165 -54t-195 -18zM496 -272q0 41 27.5 69.5t68.5 28.5t67.5 -28t26.5 -70t-26.5 -69.5t-67.5 -27.5t-68.5 28t-27.5 69z" />
    <glyph glyph-name="uni062C.fina" unicode="&#x62c;" horiz-adv-x="1263" arabic-form="final" 
d="M877 -760q-157 0 -291 36.5t-234 104.5t-156.5 174t-56.5 238q0 120 46.5 233t125 200.5t177.5 153t206 99.5q-8 3 -45 16t-46 16l-40.5 13.5t-43.5 13.5t-39 10.5t-43 10t-39 6.5t-43.5 5t-41.5 1q-93 0 -180 -32l-29 125q101 38 203 38q77 0 151.5 -16.5t142.5 -40.5
t142.5 -48.5t181.5 -42t230 -19.5l-20 -125q-156 12 -291 -17q39 -123 116.5 -193.5t194.5 -70.5h109v-129h-105q-159 0 -258 88t-149 283q-202 -63 -341 -201t-175 -322q5 -223 183.5 -351t487.5 -128q94 0 205 15l16 -125q-139 -19 -251 -19zM580 -170q0 41 27.5 69.5
t68.5 28.5t67.5 -28t26.5 -70q0 -41 -26.5 -68.5t-67.5 -27.5t-68.5 27.5t-27.5 68.5z" />
    <glyph glyph-name="uni062D.init" unicode="&#x62d;" horiz-adv-x="1193" arabic-form="initial" 
d="M43 0h-43l-37 66l37 63h76q52 0 103.5 9t92.5 20.5t90 35t80 40.5t78.5 50.5t69.5 50t69.5 54t63.5 49.5q-35 10 -116 36t-122 37.5t-102 22.5t-111 11q-112 0 -196 -35l-29 121q113 43 225 43q77 0 151 -16t139 -39t137 -46t175.5 -40t223.5 -19l-21 -125q-62 6 -100 6
q-55 0 -108.5 -22t-102 -56.5t-100.5 -76.5t-114.5 -84.5t-133.5 -77t-168 -56.5t-207 -22z" />
    <glyph glyph-name="uni062D.medi" unicode="&#x62d;" horiz-adv-x="1189" arabic-form="medial" 
d="M43 0h-43l-37 66l37 63h76q52 0 103.5 9t92.5 20.5t90 35t80 40.5t78.5 50.5t69.5 50t69.5 54t63.5 49.5q-35 10 -116 36t-122 37.5t-102 22.5t-111 11q-112 0 -196 -35l-29 121q113 43 225 43q77 0 151 -16t139 -39t137 -46t175.5 -40t223.5 -19l-21 -125q-62 6 -100 6
q-65 0 -122.5 -27.5t-129.5 -80.5q34 -77 109.5 -117.5t185.5 -40.5h170v-129h-150q-319 0 -399 221q-63 -49 -113 -81t-125 -68t-165 -54t-195 -18z" />
    <glyph glyph-name="uni062D.fina" unicode="&#x62d;" horiz-adv-x="1263" arabic-form="final" 
d="M877 -760q-157 0 -291 36.5t-234 104.5t-156.5 174t-56.5 238q0 120 46.5 233t125 200.5t177.5 153t206 99.5q-8 3 -45 16t-46 16l-40.5 13.5t-43.5 13.5t-39 10.5t-43 10t-39 6.5t-43.5 5t-41.5 1q-93 0 -180 -32l-29 125q101 38 203 38q77 0 151.5 -16.5t142.5 -40.5
t142.5 -48.5t181.5 -42t230 -19.5l-20 -125q-156 12 -291 -17q39 -123 116.5 -193.5t194.5 -70.5h109v-129h-105q-159 0 -258 88t-149 283q-202 -63 -341 -201t-175 -322q5 -223 183.5 -351t487.5 -128q94 0 205 15l16 -125q-139 -19 -251 -19z" />
    <glyph glyph-name="uni062E.init" unicode="&#x62e;" horiz-adv-x="1193" arabic-form="initial" 
d="M43 0h-43l-37 66l37 63h76q52 0 103.5 9t92.5 20.5t90 35t80 40.5t78.5 50.5t69.5 50t69.5 54t63.5 49.5q-35 10 -116 36t-122 37.5t-102 22.5t-111 11q-112 0 -196 -35l-29 121q113 43 225 43q77 0 151 -16t139 -39t137 -46t175.5 -40t223.5 -19l-21 -125q-62 6 -100 6
q-55 0 -108.5 -22t-102 -56.5t-100.5 -76.5t-114.5 -84.5t-133.5 -77t-168 -56.5t-207 -22zM469 1016q0 41 27.5 69.5t68.5 28.5t67.5 -28t26.5 -70q0 -41 -26.5 -68.5t-67.5 -27.5t-68.5 27.5t-27.5 68.5z" />
    <glyph glyph-name="uni062E.medi" unicode="&#x62e;" horiz-adv-x="1189" arabic-form="medial" 
d="M43 0h-43l-37 66l37 63h76q52 0 103.5 9t92.5 20.5t90 35t80 40.5t78.5 50.5t69.5 50t69.5 54t63.5 49.5q-35 10 -116 36t-122 37.5t-102 22.5t-111 11q-112 0 -196 -35l-29 121q113 43 225 43q77 0 151 -16t139 -39t137 -46t175.5 -40t223.5 -19l-21 -125q-62 6 -100 6
q-65 0 -122.5 -27.5t-129.5 -80.5q34 -77 109.5 -117.5t185.5 -40.5h170v-129h-150q-319 0 -399 221q-63 -49 -113 -81t-125 -68t-165 -54t-195 -18zM496 1016q0 41 27.5 69.5t68.5 28.5t67.5 -28t26.5 -70q0 -41 -26.5 -68.5t-67.5 -27.5t-68.5 27.5t-27.5 68.5z" />
    <glyph glyph-name="uni062E.fina" unicode="&#x62e;" horiz-adv-x="1263" arabic-form="final" 
d="M877 -760q-157 0 -291 36.5t-234 104.5t-156.5 174t-56.5 238q0 120 46.5 233t125 200.5t177.5 153t206 99.5q-8 3 -45 16t-46 16l-40.5 13.5t-43.5 13.5t-39 10.5t-43 10t-39 6.5t-43.5 5t-41.5 1q-93 0 -180 -32l-29 125q101 38 203 38q77 0 151.5 -16.5t142.5 -40.5
t142.5 -48.5t181.5 -42t230 -19.5l-20 -125q-156 12 -291 -17q39 -123 116.5 -193.5t194.5 -70.5h109v-129h-105q-159 0 -258 88t-149 283q-202 -63 -341 -201t-175 -322q5 -223 183.5 -351t487.5 -128q94 0 205 15l16 -125q-139 -19 -251 -19zM590 1020q0 41 27.5 69.5
t68.5 28.5t67.5 -28t26.5 -70q0 -41 -26.5 -68.5t-67.5 -27.5t-68.5 27.5t-27.5 68.5z" />
    <glyph glyph-name="uni062F.fina" unicode="&#x62f;" horiz-adv-x="991" arabic-form="final" 
d="M952 0q-150 0 -239 119l-35 -49q-87 -47 -252.5 -64.5t-341.5 0.5l8 131q370 -40 572 60q-89 173 -166 573l120 25q76 -382 146 -524t197 -142h30v-129h-39z" />
    <glyph glyph-name="uni0630.fina" unicode="&#x630;" horiz-adv-x="991" arabic-form="final" 
d="M952 0q-150 0 -239 119l-35 -49q-87 -47 -252.5 -64.5t-341.5 0.5l8 131q370 -40 572 60q-89 173 -166 573l120 25q76 -382 146 -524t197 -142h30v-129h-39zM424 1036q0 42 27.5 70.5t68.5 28.5t67.5 -28.5t26.5 -70.5q0 -41 -26.5 -68.5t-67.5 -27.5t-68.5 27.5
t-27.5 68.5z" />
    <glyph glyph-name="uni0631.fina" unicode="&#x631;" horiz-adv-x="817" arabic-form="final" 
d="M0 -352q203 104 332 231t172 264q-18 114 -127 430l115 48l86 -261q44 -136 89 -183.5t128 -47.5h22v-129h-37q-111 0 -184 76q-54 -162 -183.5 -289t-344.5 -244z" />
    <glyph glyph-name="uni0632.fina" unicode="&#x632;" horiz-adv-x="817" arabic-form="final" 
d="M0 -352q203 104 332 231t172 264q-18 114 -127 430l115 48l86 -261q44 -136 89 -183.5t128 -47.5h22v-129h-37q-111 0 -184 76q-54 -162 -183.5 -289t-344.5 -244zM293 901q0 41 27.5 69.5t68.5 28.5t67.5 -28t26.5 -70q0 -41 -26.5 -68.5t-67.5 -27.5t-68.5 27.5
t-27.5 68.5z" />
    <glyph glyph-name="uni0633.init" unicode="&#x633;" horiz-adv-x="1374" arabic-form="initial" 
d="M262 0h-262l-37 66l37 63h223q21 92 21 352v154h118v-328q0 -97 40 -137.5t130 -40.5h164q19 83 19 231v275h119v-313q0 -52 8.5 -87.5t22 -56.5t37.5 -32t48 -14t62 -3h102q16 76 16 238v268h117v-281q0 -199 -41 -354h-227q-126 0 -188 76q-23 -45 -54 -76h-211
q-69 0 -124 22t-85 58q-17 -36 -55 -80z" />
    <glyph glyph-name="uni0633.medi" unicode="&#x633;" horiz-adv-x="1466" arabic-form="medial" 
d="M262 0h-262l-37 66l37 63h223q21 83 21 256v250h118v-348q0 -86 46 -122t133 -36h157q17 119 17 305v201h119v-348q0 -85 43 -121.5t137 -36.5h110q19 81 19 209v297h119v-352q0 -77 45 -115.5t127 -38.5h32v-129h-51q-134 0 -201 70q-21 -44 -59 -70h-166
q-133 0 -196 74q-24 -41 -60 -74h-207q-67 0 -123 22.5t-88 59.5q-18 -35 -53 -82z" />
    <glyph glyph-name="uni0633.fina" unicode="&#x633;" horiz-adv-x="2287" arabic-form="final" 
d="M569 -279q-214 0 -335 114.5t-121 324.5q0 247 157 461l95 -68q-61 -88 -96.5 -187.5t-35.5 -191.5q0 -152 94 -238t255 -86q165 0 293.5 86t168.5 220q-7 86 -26.5 182t-65.5 283l117 30l82 -336q26 -114 75.5 -150t153.5 -36h138q18 103 18 277v229h117v-336
q0 -104 32 -137t109 -33h150q20 95 20 287v219h117v-324q0 -98 39 -140t137 -42h31v-129h-41q-126 0 -197 82q-14 -34 -51 -82h-197q-74 0 -120 16.5t-78 55.5q-16 -30 -52 -72h-178q-156 0 -235 82q-59 -158 -211.5 -259.5t-358.5 -101.5z" />
    <glyph glyph-name="uni0634.init" unicode="&#x634;" horiz-adv-x="1374" arabic-form="initial" 
d="M262 0h-262l-37 66l37 63h223q21 92 21 352v154h118v-328q0 -97 40 -137.5t130 -40.5h164q19 83 19 231v275h119v-313q0 -52 8.5 -87.5t22 -56.5t37.5 -32t48 -14t62 -3h102q16 76 16 238v268h117v-281q0 -199 -41 -354h-227q-126 0 -188 76q-23 -45 -54 -76h-211
q-69 0 -124 22t-85 58q-17 -36 -55 -80zM561 995q0 38 25 63t63 25q37 0 60.5 -25t23.5 -63t-23.5 -62t-60.5 -24q-38 0 -63 24t-25 62zM686 1204q0 38 25 64t63 26q35 0 59.5 -26t24.5 -64q0 -37 -24.5 -61.5t-59.5 -24.5q-38 0 -63 24.5t-25 61.5zM811 995q0 38 24.5 63
t61.5 25t61.5 -25t24.5 -63t-24.5 -62t-61.5 -24t-61.5 24t-24.5 62z" />
    <glyph glyph-name="uni0634.medi" unicode="&#x634;" horiz-adv-x="1466" arabic-form="medial" 
d="M262 0h-262l-37 66l37 63h223q21 83 21 256v250h118v-348q0 -86 46 -122t133 -36h157q17 119 17 305v201h119v-348q0 -85 43 -121.5t137 -36.5h110q19 81 19 209v297h119v-352q0 -77 45 -115.5t127 -38.5h32v-129h-51q-134 0 -201 70q-21 -44 -59 -70h-166
q-133 0 -196 74q-24 -41 -60 -74h-207q-67 0 -123 22.5t-88 59.5q-18 -35 -53 -82zM561 995q0 38 25 63t63 25q37 0 60.5 -25t23.5 -63t-23.5 -62t-60.5 -24q-38 0 -63 24t-25 62zM686 1204q0 38 25 64t63 26q35 0 59.5 -26t24.5 -64q0 -37 -24.5 -61.5t-59.5 -24.5
q-38 0 -63 24.5t-25 61.5zM811 995q0 38 24.5 63t61.5 25t61.5 -25t24.5 -63t-24.5 -62t-61.5 -24t-61.5 24t-24.5 62z" />
    <glyph glyph-name="uni0634.fina" unicode="&#x634;" horiz-adv-x="2287" arabic-form="final" 
d="M569 -279q-214 0 -335 114.5t-121 324.5q0 247 157 461l95 -68q-61 -88 -96.5 -187.5t-35.5 -191.5q0 -152 94 -238t255 -86q165 0 293.5 86t168.5 220q-7 86 -26.5 182t-65.5 283l117 30l82 -336q26 -114 75.5 -150t153.5 -36h138q18 103 18 277v229h117v-336
q0 -104 32 -137t109 -33h150q20 95 20 287v219h117v-324q0 -98 39 -140t137 -42h31v-129h-41q-126 0 -197 82q-14 -34 -51 -82h-197q-74 0 -120 16.5t-78 55.5q-16 -30 -52 -72h-178q-156 0 -235 82q-59 -158 -211.5 -259.5t-358.5 -101.5zM1378 995q0 38 25 63t63 25
q37 0 60.5 -25t23.5 -63t-23.5 -62t-60.5 -24q-38 0 -63 24t-25 62zM1503 1204q0 38 25 64t63 26q35 0 59.5 -26t24.5 -64q0 -37 -24.5 -61.5t-59.5 -24.5q-38 0 -63 24.5t-25 61.5zM1628 995q0 38 24.5 63t61.5 25t61.5 -25t24.5 -63t-24.5 -62t-61.5 -24t-61.5 24
t-24.5 62z" />
    <glyph glyph-name="uni0635.init" unicode="&#x635;" horiz-adv-x="1435" arabic-form="initial" 
d="M184 0h-184l-37 66l37 63h135q19 122 19 246v260h116v-232q178 147 364.5 237.5t323.5 90.5q114 0 202 -55t132.5 -143t44.5 -193q0 -83 -34.5 -145.5t-89 -98.5t-134 -58.5t-157 -30t-170.5 -7.5h-183q-139 0 -215.5 21t-117.5 77q-13 -37 -52 -98zM276 268
q13 -67 78 -103t205 -36h150q394 0 510 121q7 94 -20 172.5t-95.5 130t-167.5 51.5q-77 0 -173.5 -33.5t-187 -86.5t-167 -108.5t-132.5 -107.5z" />
    <glyph glyph-name="uni0635.medi" unicode="&#x635;" horiz-adv-x="1443" arabic-form="medial" 
d="M182 0h-182l-37 66l37 63h137q15 117 15 246v260h116v-229q180 147 361.5 236t322.5 89q171 0 276 -114t105 -275q0 -136 -96 -213h207v-129h-877q-136 0 -214 20.5t-120 75.5q-19 -56 -51 -96zM274 270q14 -74 78 -107.5t207 -33.5h148q394 0 510 121q6 66 -8.5 128
t-48.5 113t-93.5 82t-136.5 31q-100 0 -232.5 -58.5t-236 -129.5t-187.5 -146z" />
    <glyph glyph-name="uni0635.fina" unicode="&#x635;" horiz-adv-x="2316" arabic-form="final" 
d="M557 -279q-99 0 -180.5 26.5t-143.5 79t-96.5 137.5t-34.5 196q0 243 156 461l96 -68q-62 -88 -96.5 -188.5t-34.5 -190.5q0 -153 93.5 -238.5t258.5 -85.5t293 87t168 229q-42 238 -94 450l117 35l63 -258q174 149 359 243.5t338 94.5q164 0 275.5 -109t111.5 -272
q0 -138 -95 -223q33 2 97 2h108v-129h-880q-223 0 -310 84q-59 -167 -216 -265t-353 -98zM1153 283q32 -92 95.5 -123t209.5 -31h96q189 0 323.5 25.5t209.5 95.5q15 84 -12 164.5t-96.5 135t-166.5 54.5q-140 0 -335 -101t-324 -220z" />
    <glyph glyph-name="uni0636.init" unicode="&#x636;" horiz-adv-x="1435" arabic-form="initial" 
d="M184 0h-184l-37 66l37 63h135q19 122 19 246v260h116v-232q178 147 364.5 237.5t323.5 90.5q114 0 202 -55t132.5 -143t44.5 -193q0 -83 -34.5 -145.5t-89 -98.5t-134 -58.5t-157 -30t-170.5 -7.5h-183q-139 0 -215.5 21t-117.5 77q-13 -37 -52 -98zM276 268
q13 -67 78 -103t205 -36h150q394 0 510 121q7 94 -20 172.5t-95.5 130t-167.5 51.5q-77 0 -173.5 -33.5t-187 -86.5t-167 -108.5t-132.5 -107.5zM631 985q0 41 27.5 69.5t68.5 28.5t67.5 -28t26.5 -70q0 -41 -26.5 -68.5t-67.5 -27.5t-68.5 27.5t-27.5 68.5z" />
    <glyph glyph-name="uni0636.medi" unicode="&#x636;" horiz-adv-x="1443" arabic-form="medial" 
d="M182 0h-182l-37 66l37 63h137q15 117 15 246v260h116v-229q180 147 361.5 236t322.5 89q171 0 276 -114t105 -275q0 -136 -96 -213h207v-129h-877q-136 0 -214 20.5t-120 75.5q-19 -56 -51 -96zM274 270q14 -74 78 -107.5t207 -33.5h148q394 0 510 121q6 66 -8.5 128
t-48.5 113t-93.5 82t-136.5 31q-100 0 -232.5 -58.5t-236 -129.5t-187.5 -146zM631 985q0 41 27.5 69.5t68.5 28.5t67.5 -28t26.5 -70q0 -41 -26.5 -68.5t-67.5 -27.5t-68.5 27.5t-27.5 68.5z" />
    <glyph glyph-name="uni0636.fina" unicode="&#x636;" horiz-adv-x="2316" arabic-form="final" 
d="M557 -279q-99 0 -180.5 26.5t-143.5 79t-96.5 137.5t-34.5 196q0 243 156 461l96 -68q-62 -88 -96.5 -188.5t-34.5 -190.5q0 -153 93.5 -238.5t258.5 -85.5t293 87t168 229q-42 238 -94 450l117 35l63 -258q174 149 359 243.5t338 94.5q164 0 275.5 -109t111.5 -272
q0 -138 -95 -223q33 2 97 2h108v-129h-880q-223 0 -310 84q-59 -167 -216 -265t-353 -98zM1153 283q32 -92 95.5 -123t209.5 -31h96q189 0 323.5 25.5t209.5 95.5q15 84 -12 164.5t-96.5 135t-166.5 54.5q-140 0 -335 -101t-324 -220zM1264 985q0 41 27.5 69.5t68.5 28.5
t67.5 -28t26.5 -70q0 -41 -26.5 -68.5t-67.5 -27.5t-68.5 27.5t-27.5 68.5z" />
    <glyph glyph-name="uni0637.init" unicode="&#x637;" horiz-adv-x="1331" arabic-form="initial" 
d="M373 0h-373l-37 66l37 63h59q115 185 217 301q19 151 19 363v593h119v-495q0 -235 -19 -342q204 182 424 182q185 0 297.5 -114.5t112.5 -278.5q0 -51 -13 -91.5t-46.5 -80.5t-95.5 -68.5t-154.5 -51.5t-230.5 -34.5t-316 -11.5zM182 129h217q557 0 717 141
q6 149 -81 240.5t-240 91.5q-160 0 -307 -113t-306 -360z" />
    <glyph glyph-name="uni0637.medi" unicode="&#x637;" horiz-adv-x="1339" arabic-form="medial" 
d="M1339 0h-1339l-37 66l37 63h61q104 173 215 301q19 148 19 363v593h119v-477q0 -248 -21 -360q205 182 426 182q184 0 297 -112.5t113 -286.5q0 -69 -25.5 -118t-85.5 -95q75 10 142 10h79v-129zM182 129h217q557 0 717 141q8 145 -78 238.5t-241 93.5
q-158 0 -306.5 -112t-308.5 -361z" />
    <glyph glyph-name="uni0637.fina" unicode="&#x637;" horiz-adv-x="1609" arabic-form="final" 
d="M674 0h-31h-526l-13 129h228q115 180 215 297q18 143 18 367v593h119v-477q0 -148 -3.5 -221t-16.5 -141q206 184 421 184q126 0 221.5 -54.5t144 -143t48.5 -195.5q0 -71 -26.5 -125t-92.5 -96q108 12 181 12h49v-129h-936zM451 129h219q556 0 716 141q11 139 -83 235.5
t-248 96.5q-156 0 -299 -112.5t-305 -360.5z" />
    <glyph glyph-name="uni0638.init" unicode="&#x638;" horiz-adv-x="1331" arabic-form="initial" 
d="M373 0h-373l-37 66l37 63h59q115 185 217 301q19 151 19 363v593h119v-495q0 -235 -19 -342q204 182 424 182q185 0 297.5 -114.5t112.5 -278.5q0 -51 -13 -91.5t-46.5 -80.5t-95.5 -68.5t-154.5 -51.5t-230.5 -34.5t-316 -11.5zM182 129h217q557 0 717 141
q6 149 -81 240.5t-240 91.5q-160 0 -307 -113t-306 -360zM690 1073q0 41 27.5 69.5t68.5 28.5t68 -28t27 -70q0 -41 -27 -68.5t-68 -27.5t-68.5 27.5t-27.5 68.5z" />
    <glyph glyph-name="uni0638.medi" unicode="&#x638;" horiz-adv-x="1339" arabic-form="medial" 
d="M1339 0h-1339l-37 66l37 63h61q104 173 215 301q19 148 19 363v593h119v-477q0 -248 -21 -360q205 182 426 182q184 0 297 -112.5t113 -286.5q0 -69 -25.5 -118t-85.5 -95q75 10 142 10h79v-129zM182 129h217q557 0 717 141q8 145 -78 238.5t-241 93.5
q-158 0 -306.5 -112t-308.5 -361zM690 1073q0 41 27.5 69.5t68.5 28.5t68 -28t27 -70q0 -41 -27 -68.5t-68 -27.5t-68.5 27.5t-27.5 68.5z" />
    <glyph glyph-name="uni0638.fina" unicode="&#x638;" horiz-adv-x="1609" arabic-form="final" 
d="M674 0h-31h-526l-13 129h228q115 180 215 297q18 143 18 367v593h119v-477q0 -148 -3.5 -221t-16.5 -141q206 184 421 184q126 0 221.5 -54.5t144 -143t48.5 -195.5q0 -71 -26.5 -125t-92.5 -96q108 12 181 12h49v-129h-936zM451 129h219q556 0 716 141q11 139 -83 235.5
t-248 96.5q-156 0 -299 -112.5t-305 -360.5zM977 1073q0 41 27.5 69.5t68.5 28.5t67.5 -28t26.5 -70q0 -41 -26.5 -68.5t-67.5 -27.5t-68.5 27.5t-27.5 68.5z" />
    <glyph glyph-name="uni0639.init" unicode="&#x639;" horiz-adv-x="931" arabic-form="initial" 
d="M799 0h-799l-37 66l37 63h229q-118 110 -118 274q0 69 20.5 129t61.5 108.5t110 76.5t158 28q142 0 270 -65l-43 -113q-122 56 -235 56q-142 0 -215 -84q-26 -105 4.5 -199t115 -152.5t203.5 -58.5h256z" />
    <glyph glyph-name="uni0639.medi" unicode="&#x639;" horiz-adv-x="1040" arabic-form="medial" 
d="M475 0h-475l-37 66l37 63h479q-66 85 -166 173t-209 157v149q83 54 195.5 84.5t228.5 30.5q76 0 140.5 -13.5t116.5 -42t82 -76.5t30 -112q0 -101 -69.5 -199t-157.5 -151h370v-129h-256q-128 0 -217 51q-52 -36 -92 -51zM211 520q205 -135 362 -325q106 69 163.5 147.5
t60.5 140.5q-32 55 -106 85t-177 30q-87 0 -167.5 -21t-135.5 -57z" />
    <glyph glyph-name="uni0639.fina" unicode="&#x639;" horiz-adv-x="1007" arabic-form="final" 
d="M719 -756q-134 0 -245 23.5t-197.5 71.5t-134.5 129t-48 188q0 289 355 512q-188 191 -359 295v153q188 109 424 109q161 0 264 -59.5t103 -178.5q0 -92 -62 -171.5t-180 -161.5q28 -12 67.5 -17.5t67.5 -6.5t81 -1h17h136v-129h-109q-156 0 -235.5 17t-133.5 65
q-118 -67 -219 -166.5t-125 -202.5q3 -161 150.5 -253t392.5 -89q76 0 211 15l10 -125q-113 -17 -231 -17zM195 528q81 -46 177.5 -124.5t182.5 -172.5q96 66 150 121.5t83 118.5q-15 62 -92 96.5t-192 34.5q-174 0 -309 -74z" />
    <glyph glyph-name="uni063A.init" unicode="&#x63a;" horiz-adv-x="931" arabic-form="initial" 
d="M799 0h-799l-37 66l37 63h229q-118 110 -118 274q0 69 20.5 129t61.5 108.5t110 76.5t158 28q142 0 270 -65l-43 -113q-122 56 -235 56q-142 0 -215 -84q-26 -105 4.5 -199t115 -152.5t203.5 -58.5h256zM375 1038q0 42 27.5 70.5t68.5 28.5t67.5 -28.5t26.5 -70.5
q0 -41 -26.5 -68.5t-67.5 -27.5t-68.5 27.5t-27.5 68.5z" />
    <glyph glyph-name="uni063A.medi" unicode="&#x63a;" horiz-adv-x="1040" arabic-form="medial" 
d="M475 0h-475l-37 66l37 63h479q-66 85 -166 173t-209 157v149q83 54 195.5 84.5t228.5 30.5q76 0 140.5 -13.5t116.5 -42t82 -76.5t30 -112q0 -101 -69.5 -199t-157.5 -151h370v-129h-256q-128 0 -217 51q-52 -36 -92 -51zM211 520q205 -135 362 -325q106 69 163.5 147.5
t60.5 140.5q-32 55 -106 85t-177 30q-87 0 -167.5 -21t-135.5 -57zM403 1008q0 41 28 69.5t69 28.5t67.5 -28t26.5 -70t-26.5 -69.5t-67.5 -27.5t-69 28t-28 69z" />
    <glyph glyph-name="uni063A.fina" unicode="&#x63a;" horiz-adv-x="1007" arabic-form="final" 
d="M719 -756q-134 0 -245 23.5t-197.5 71.5t-134.5 129t-48 188q0 289 355 512q-188 191 -359 295v153q188 109 424 109q161 0 264 -59.5t103 -178.5q0 -92 -62 -171.5t-180 -161.5q28 -12 67.5 -17.5t67.5 -6.5t81 -1h17h136v-129h-109q-156 0 -235.5 17t-133.5 65
q-118 -67 -219 -166.5t-125 -202.5q3 -161 150.5 -253t392.5 -89q76 0 211 15l10 -125q-113 -17 -231 -17zM195 528q81 -46 177.5 -124.5t182.5 -172.5q96 66 150 121.5t83 118.5q-15 62 -92 96.5t-192 34.5q-174 0 -309 -74zM414 1018q0 41 27.5 69.5t68.5 28.5t67.5 -28
t26.5 -70q0 -41 -26.5 -68.5t-67.5 -27.5t-68.5 27.5t-27.5 68.5z" />
    <glyph glyph-name="uni0640.fina" unicode="&#x640;" horiz-adv-x="460" 
d="M20 0v129h441v-129h-441z" />
    <glyph glyph-name="uni0641.init" unicode="&#x641;" horiz-adv-x="958" arabic-form="initial" 
d="M795 0h-795l-37 66l37 63h317q-92 47 -147 114t-55 148q0 57 28 125t74 126.5t113 98t137 39.5q100 0 184 -77.5t131 -202t47 -264.5q0 -118 -34 -236zM227 377q56 -93 188 -166.5t281 -85.5q11 72 11 108q0 100 -34.5 197t-91 159t-116.5 62q-33 0 -72 -20.5t-74 -55.5
t-60.5 -87.5t-31.5 -110.5zM373 1075q0 42 27.5 70.5t68.5 28.5t67.5 -28.5t26.5 -70.5q0 -41 -26.5 -68.5t-67.5 -27.5t-68.5 27.5t-27.5 68.5z" />
    <glyph glyph-name="uni0641.medi" unicode="&#x641;" horiz-adv-x="927" arabic-form="medial" 
d="M207 0h-207l-37 66l37 63h289q-78 57 -122 131.5t-44 149.5q0 85 58.5 172t146.5 141.5t170 54.5q84 0 157 -62.5t111.5 -146.5t38.5 -159q0 -149 -164 -281h287v-129h-256q-53 0 -111.5 13.5t-97.5 33.5q-107 -47 -256 -47zM238 395q19 -50 86 -127.5t137 -120.5
q81 45 139 110.5t88 127.5q-2 92 -64.5 179t-136.5 87q-76 0 -161 -90t-88 -166zM371 1067q0 41 27.5 69.5t68.5 28.5t67.5 -28t26.5 -70q0 -41 -26.5 -68.5t-67.5 -27.5t-68.5 27.5t-27.5 68.5z" />
    <glyph glyph-name="uni0641.fina" unicode="&#x641;" horiz-adv-x="1890" arabic-form="final" 
d="M510 0q-112 0 -193.5 27t-127 76t-66.5 107.5t-21 129.5q0 189 134 399l98 -65q-113 -184 -113 -320q0 -110 69.5 -167.5t207.5 -57.5h762q-83 58 -129 128t-46 142q0 81 57.5 171t146.5 150t173 60q85 0 158 -66t111 -152.5t38 -162.5q0 -141 -163 -270h284v-129h-264
q-127 0 -205 45q-103 -45 -235 -45h-676zM1204 383q15 -47 84 -118.5t144 -114.5q79 46 135.5 107t85.5 118q0 95 -60.5 185.5t-138.5 90.5q-53 0 -112.5 -45.5t-98.5 -109t-39 -113.5zM1348 1067q0 41 27.5 69.5t68.5 28.5t67.5 -28t26.5 -70q0 -41 -26.5 -68.5
t-67.5 -27.5t-68.5 27.5t-27.5 68.5z" />
    <glyph glyph-name="uni0642.init" unicode="&#x642;" horiz-adv-x="958" arabic-form="initial" 
d="M795 0h-795l-37 66l37 63h317q-92 47 -147 114t-55 148q0 57 28 125t74 126.5t113 98t137 39.5q100 0 184 -77.5t131 -202t47 -264.5q0 -118 -34 -236zM227 377q56 -93 188 -166.5t281 -85.5q11 72 11 108q0 100 -34.5 197t-91 159t-116.5 62q-33 0 -72 -20.5t-74 -55.5
t-60.5 -87.5t-31.5 -110.5zM242 1077q0 42 27.5 70.5t68.5 28.5t67.5 -28.5t26.5 -70.5q0 -41 -26.5 -68.5t-67.5 -27.5t-68.5 27.5t-27.5 68.5zM504 1077q0 42 27.5 70.5t68.5 28.5q40 0 67 -29t27 -70t-27 -68.5t-67 -27.5q-41 0 -68.5 27.5t-27.5 68.5z" />
    <glyph glyph-name="uni0642.medi" unicode="&#x642;" horiz-adv-x="927" arabic-form="medial" 
d="M207 0h-207l-37 66l37 63h289q-78 57 -122 131.5t-44 149.5q0 85 58.5 172t146.5 141.5t170 54.5q84 0 157 -62.5t111.5 -146.5t38.5 -159q0 -149 -164 -281h287v-129h-256q-53 0 -111.5 13.5t-97.5 33.5q-107 -47 -256 -47zM238 395q19 -50 86 -127.5t137 -120.5
q81 45 139 110.5t88 127.5q-2 92 -64.5 179t-136.5 87q-76 0 -161 -90t-88 -166zM240 1067q0 41 27.5 69.5t68.5 28.5t67.5 -28t26.5 -70q0 -41 -26.5 -68.5t-67.5 -27.5t-68.5 27.5t-27.5 68.5zM502 1067q0 41 27.5 69.5t68.5 28.5q40 0 67 -28.5t27 -69.5t-27 -68.5
t-67 -27.5q-41 0 -68.5 27.5t-27.5 68.5z" />
    <glyph glyph-name="uni0642.fina" unicode="&#x642;" horiz-adv-x="1435" arabic-form="final" 
d="M698 -459q-96 0 -182 16.5t-162.5 53t-132 90.5t-87.5 133.5t-32 177.5q0 235 156 453l94 -70q-62 -88 -96.5 -188t-34.5 -187q0 -90 38.5 -158.5t106.5 -109t154.5 -60.5t190.5 -20q304 0 442 168q25 63 31 160q-563 15 -563 279q0 46 16 99.5t47 106t71.5 95.5t95 69.5
t112.5 26.5q78 0 143 -49t106 -129t64.5 -175t26.5 -194h133v-129h-140q-12 -98 -49.5 -176t-92.5 -130.5t-128.5 -87t-154.5 -50t-173 -15.5zM717 1055q0 41 27.5 69.5t68.5 28.5t67.5 -28t26.5 -70t-26.5 -69.5t-67.5 -27.5t-68.5 28t-27.5 69zM731 248q77 -63 188 -89.5
t267 -29.5q-5 80 -20.5 152.5t-42.5 133t-68.5 96.5t-93.5 36q-89 0 -158 -95t-72 -204zM979 1055q0 41 27.5 69.5t68.5 28.5q40 0 67 -28.5t27 -69.5t-27 -69t-67 -28q-41 0 -68.5 28t-27.5 69z" />
    <glyph glyph-name="uni0643.init" unicode="&#x643;" horiz-adv-x="897" arabic-form="initial" 
d="M606 0h-606l-37 66l37 63h559q-19 185 -149 347.5t-365 283.5l-20 153l786 437l53 -113l-721 -389q277 -155 397.5 -329.5t141.5 -418.5z" />
    <glyph glyph-name="uni0643.medi" unicode="&#x643;" horiz-adv-x="1048" arabic-form="medial" 
d="M356 0h-356l-37 66l37 63h326q71 68 71 180q0 119 -86 235.5t-245 213.5l-23 155l840 420l45 -116l-770 -375q79 -38 165.5 -109.5t157.5 -148.5t147 -159.5t137.5 -147.5t125.5 -106.5t115 -41.5h43v-129h-41q-112 0 -244.5 110t-269.5 298q20 -61 20 -127
q0 -92 -46.5 -166.5t-111.5 -114.5z" />
    <glyph glyph-name="uni0643.fina" unicode="&#x643;" horiz-adv-x="1746" arabic-form="final" 
d="M518 0q-186 0 -285.5 88t-99.5 256q0 184 135 395l101 -65q-113 -174 -113 -318q0 -109 63.5 -168t210.5 -59h897q19 130 19 414v843h119v-1124q0 -77 28 -105t109 -28h45v-129h-51q-132 0 -183 74q-20 -42 -49 -74h-946zM662 616q116 22 145 25q-35 31 -57.5 80.5
t-22.5 105.5q0 86 53.5 140.5t149.5 54.5q105 0 184 -49l-39 -86q-68 41 -147 41q-59 0 -103 -23q-10 -17 -10 -53q0 -35 11 -69t32 -63t58.5 -45t84.5 -11l164 18l6 -84q-225 -17 -495 -66z" />
    <glyph glyph-name="uni0644.init" unicode="&#x644;" horiz-adv-x="479" arabic-form="initial" 
d="M297 0h-297l-37 66l37 63h197q16 172 16 481v776h117v-776q0 -411 -33 -610z" />
    <glyph glyph-name="uni0644.medi" unicode="&#x644;" horiz-adv-x="489" arabic-form="medial" 
d="M180 0h-180l-37 66l37 63h152q18 81 18 352v905h119v-1089q0 -97 33 -132.5t104 -35.5h63v-129h-73q-133 0 -180 86q-22 -56 -56 -86z" />
    <glyph glyph-name="uni0644.fina" unicode="&#x644;" horiz-adv-x="1409" arabic-form="final" 
d="M594 -442q-112 0 -201 25.5t-154.5 77.5t-101 136.5t-35.5 196.5q0 239 156 463l96 -68q-62 -88 -96.5 -189t-34.5 -190q0 -158 104 -240.5t283 -82.5q138 0 249 49.5t175 146.5q31 219 31 715v788h117v-1050q0 -112 45 -159.5t133 -47.5h49v-129h-68q-111 0 -178 70
q-9 -183 -63 -279q-58 -109 -193.5 -171t-312.5 -62z" />
    <glyph glyph-name="uni0645.init" unicode="&#x645;" horiz-adv-x="976" arabic-form="initial" 
d="M760 -18q-132 14 -274.5 61t-241.5 104q-45 -112 -58 -147h-186l-37 66l37 63h104q87 248 212 405.5t239 157.5q64 0 123.5 -57.5t98 -139t61 -164.5t22.5 -141q0 -62 -23 -109t-77 -99zM297 266q88 -50 211.5 -93t234.5 -54q0 122 -55 256.5t-141 204.5
q-132 -62 -250 -314z" />
    <glyph glyph-name="uni0645.medi" unicode="&#x645;" horiz-adv-x="1105" arabic-form="medial" 
d="M180 0h-180l-37 66l37 63h96q93 256 214 410.5t247 154.5q51 0 93 -31t71.5 -81t56 -110t53.5 -120.5t56.5 -110.5t72 -81t93.5 -31h53v-129h-27q-126 0 -215 72l-22 -76q-173 0 -327 47t-267 139q-34 -81 -68 -182zM301 299q88 -79 233 -126t283 -52q-38 46 -74 118
t-59.5 131.5t-60 121t-78.5 94.5q-133 -59 -244 -287z" />
    <glyph glyph-name="uni0645.fina" unicode="&#x645;" horiz-adv-x="1411" arabic-form="final" 
d="M301 -707q-182 670 -182 877q0 108 52 198t132 147.5t179.5 98t190.5 57.5t169 17q63 0 111 -31t79 -80t57.5 -109t52 -119.5t55.5 -108.5t76.5 -80t106.5 -31h31v-129h-25q-130 0 -206 66l-25 -70q-93 0 -197.5 19.5t-201 55.5t-159 96t-62.5 132q0 47 27.5 113.5
t78.5 122.5q-140 -32 -258.5 -113.5t-144.5 -138.5q0 -125 44.5 -348t141.5 -613zM633 289q73 -66 209 -112.5t286 -55.5q-42 57 -88 156.5t-88 182.5t-84 120q-76 -39 -141.5 -120t-93.5 -171z" />
    <glyph glyph-name="uni0646.init" unicode="&#x646;" horiz-adv-x="505" arabic-form="initial" 
d="M334 0h-334l-37 66l37 63h229q15 159 15 332v215h116v-215q0 -290 -26 -461zM170 1055q0 41 27.5 69.5t68.5 28.5t67.5 -28t26.5 -70t-26.5 -69.5t-67.5 -27.5t-68.5 28t-27.5 69z" />
    <glyph glyph-name="uni0646.medi" unicode="&#x646;" horiz-adv-x="528" arabic-form="medial" 
d="M203 0h-203l-37 66l37 63h166q20 88 20 352v195h119v-367q0 -109 36.5 -144.5t131.5 -35.5h55v-129h-94q-120 0 -180 78q-22 -49 -51 -78zM147 993q0 41 28 70t69 29t67.5 -28.5t26.5 -70.5q0 -41 -26.5 -68.5t-67.5 -27.5t-69 27.5t-28 68.5z" />
    <glyph glyph-name="uni0646.fina" unicode="&#x646;" horiz-adv-x="1314" arabic-form="final" 
d="M578 -276q-101 0 -185.5 25t-150.5 76t-103 136.5t-37 198.5q0 247 156 465l94 -70q-62 -89 -95.5 -190t-33.5 -191q0 -154 98.5 -236.5t268.5 -82.5q166 0 282 77t160 218q-24 200 -88 487l127 31l70 -367q19 -108 48 -140t95 -32h31v-129h-29q-128 0 -172 55
q-57 -157 -198 -244t-338 -87zM510 909q0 42 27.5 70.5t68.5 28.5t67.5 -28.5t26.5 -70.5q0 -41 -26.5 -68.5t-67.5 -27.5t-68.5 27.5t-27.5 68.5z" />
    <glyph glyph-name="uni0647.init" unicode="&#x647;" horiz-adv-x="1173" arabic-form="initial" 
d="M109 0h-109l-37 66l37 63h215q-53 39 -87 101t-34 124q0 88 63 182.5t150 137.5l27 133q162 -14 299.5 -69t238 -144t150 -219t33.5 -283l-70 -92h-319q-187 0 -289 47q-103 -47 -268 -47zM201 354q19 -61 67 -116.5t113 -90.5q152 74 205 193q1 50 -19 106.5t-63 100
t-96 43.5q-78 0 -140 -80.5t-67 -155.5zM563 129h369q6 30 6 64q0 145 -104.5 264.5t-268.5 173.5q57 -48 89 -115.5t32 -144.5q0 -146 -123 -242z" />
    <glyph glyph-name="uni0647.medi" unicode="&#x647;" horiz-adv-x="780" arabic-form="medial" 
d="M397 -469q-70 0 -126 27t-92 71.5t-60 106t-34 127t-9 137.5h-76l-37 66l37 63h80q9 183 95 364t216 291h109q60 -71 97.5 -178.5t37.5 -204.5q0 -178 -125 -272h270v-129h-211q53 -37 83 -92.5t30 -116.5q0 -107 -79.5 -183.5t-205.5 -76.5zM190 0q-3 -159 52 -253.5
t168 -94.5q70 0 119.5 39.5t58.5 111.5q-15 56 -49.5 95t-88 60t-115.5 30.5t-145 11.5zM195 129h170q72 28 112.5 95t40.5 157q0 149 -86 293q-225 -244 -237 -545z" />
    <glyph glyph-name="uni0647.fina" unicode="&#x647;" horiz-adv-x="1040" arabic-form="final" 
d="M471 63q-89 0 -164.5 27.5t-122.5 70t-73.5 92.5t-26.5 97q0 67 56.5 129.5t145.5 107t193.5 75t206.5 40.5v152h119v-291q0 -134 6.5 -213t24.5 -131t48.5 -71t80.5 -19h75v-129h-94q-84 0 -136 33.5t-79 109.5q-111 -80 -260 -80zM195 362q25 -87 103 -132.5t181 -45.5
q130 0 223 78q-16 104 -16 301v17q-171 -17 -311 -80t-180 -138z" />
    <glyph glyph-name="uni0648.fina" unicode="&#x648;" horiz-adv-x="890" arabic-form="final" 
d="M150 -379q179 64 305.5 159.5t175.5 219.5q-279 5 -411 68.5t-132 197.5q0 86 44.5 178.5t124 158t167.5 65.5q91 0 170.5 -69t126.5 -184.5t47 -246.5q0 -27 -2 -39h125v-129h-146q-93 -317 -542 -485zM195 244q89 -115 411 -115h49v6q0 61 -16 129.5t-45 130.5
t-75.5 103t-100.5 41q-87 0 -154 -95t-69 -200z" />
    <glyph glyph-name="uni0649.fina" unicode="&#x649;" horiz-adv-x="1312" arabic-form="final" 
d="M659 -410q-92 0 -172 14t-152 46.5t-123 82t-80.5 124t-29.5 168.5q0 102 37 197t119 208l96 -68q-66 -92 -98.5 -168.5t-32.5 -152.5q0 -155 121 -238.5t334 -83.5q178 0 307.5 55.5t185.5 153.5q-97 97 -348 238l64 102q216 -139 373 -139h53v-129h-72q23 -38 23 -78
q0 -60 -44 -119t-120.5 -106.5t-192 -77t-248.5 -29.5z" />
    <glyph glyph-name="uni064A.init" unicode="&#x64a;" horiz-adv-x="505" arabic-form="initial" 
d="M334 0h-334l-37 66l37 63h229q15 159 15 332v215h116v-215q0 -290 -26 -461zM-4 -291q0 41 27.5 69.5t68.5 28.5t67.5 -28t26.5 -70q0 -41 -26.5 -68.5t-67.5 -27.5t-68.5 27.5t-27.5 68.5zM258 -291q0 41 27.5 69.5t68.5 28.5q40 0 67.5 -28.5t27.5 -69.5t-27.5 -68.5
t-67.5 -27.5q-41 0 -68.5 27.5t-27.5 68.5z" />
    <glyph glyph-name="uni064A.medi" unicode="&#x64a;" horiz-adv-x="528" arabic-form="medial" 
d="M203 0h-203l-37 66l37 63h166q20 88 20 352v195h119v-367q0 -109 36.5 -144.5t131.5 -35.5h55v-129h-94q-120 0 -180 78q-22 -49 -51 -78zM23 -291q0 41 27.5 69.5t68.5 28.5t67.5 -28t26.5 -70q0 -41 -26.5 -68.5t-67.5 -27.5t-68.5 27.5t-27.5 68.5zM285 -291
q0 41 27.5 69.5t68.5 28.5q40 0 67 -28.5t27 -69.5t-27 -68.5t-67 -27.5q-41 0 -68.5 27.5t-27.5 68.5z" />
    <glyph glyph-name="uni064A.fina" unicode="&#x64a;" horiz-adv-x="1312" arabic-form="final" 
d="M659 -410q-92 0 -172 14t-152 46.5t-123 82t-80.5 124t-29.5 168.5q0 102 37 197t119 208l96 -68q-66 -92 -98.5 -168.5t-32.5 -152.5q0 -155 121 -238.5t334 -83.5q178 0 307.5 55.5t185.5 153.5q-97 97 -348 238l64 102q216 -139 373 -139h53v-129h-72q23 -38 23 -78
q0 -60 -44 -119t-120.5 -106.5t-192 -77t-248.5 -29.5zM436 -670q0 42 27.5 70.5t68.5 28.5t68 -28.5t27 -70.5q0 -41 -27 -68.5t-68 -27.5t-68.5 27.5t-27.5 68.5zM698 -670q0 41 28 70t69 29q40 0 67 -29t27 -70t-27 -68.5t-67 -27.5q-41 0 -69 27.5t-28 68.5z" />
    <glyph glyph-name="uni066E.init" unicode="&#x66e;" horiz-adv-x="505" 
d="M334 0h-334l-37 66l37 63h229q15 159 15 332v215h116v-215q0 -290 -26 -461z" />
    <glyph glyph-name="uni066E.medi" unicode="&#x66e;" horiz-adv-x="528" 
d="M203 0h-203l-37 66l37 63h166q20 88 20 352v195h119v-367q0 -109 36.5 -144.5t131.5 -35.5h55v-129h-94q-120 0 -180 78q-22 -49 -51 -78z" />
    <glyph glyph-name="uni066E.fina" unicode="&#x66e;" horiz-adv-x="1755" 
d="M518 0q-186 0 -285.5 88t-99.5 256q0 184 135 395l101 -65q-113 -174 -113 -318q0 -227 264 -227h910q14 118 14 346v201h117v-406q0 -76 41 -108.5t127 -32.5h26v-129h-31q-151 0 -208 70q-25 -37 -54 -70h-944z" />
    <glyph glyph-name="uni066F.fina" unicode="&#x66f;" horiz-adv-x="1435" 
d="M698 -459q-96 0 -182 16.5t-162.5 53t-132 90.5t-87.5 133.5t-32 177.5q0 235 156 453l94 -70q-62 -88 -96.5 -188t-34.5 -187q0 -90 38.5 -158.5t106.5 -109t154.5 -60.5t190.5 -20q304 0 442 168q25 63 31 160q-563 15 -563 279q0 46 16 99.5t47 106t71.5 95.5t95 69.5
t112.5 26.5q78 0 143 -49t106 -129t64.5 -175t26.5 -194h133v-129h-140q-12 -98 -49.5 -176t-92.5 -130.5t-128.5 -87t-154.5 -50t-173 -15.5zM731 248q77 -63 188 -89.5t267 -29.5q-5 80 -20.5 152.5t-42.5 133t-68.5 96.5t-93.5 36q-89 0 -158 -95t-72 -204z" />
    <glyph glyph-name="uni0671.fina" unicode="&#x671;" horiz-adv-x="489" arabic-form="final" 
d="M406 0q-93 0 -147 30t-81.5 106t-27.5 210v1040h116v-1042q0 -128 33 -171.5t131 -43.5h59v-129h-83zM-66 1559q58 67 125 67q28 0 68 -12q46 70 89.5 105.5t100.5 35.5q52 0 85.5 -34t33.5 -81q0 -59 -46.5 -95t-127.5 -36q-58 0 -118 23.5t-89 23.5q-43 0 -86 -45z
M178 1593q40 -14 90 -14q69 0 111 29q-4 67 -74 67q-64 0 -127 -82z" />
    <glyph glyph-name="uni06A1.init" unicode="&#x6a1;" horiz-adv-x="958" 
d="M795 0h-795l-37 66l37 63h317q-92 47 -147 114t-55 148q0 57 28 125t74 126.5t113 98t137 39.5q100 0 184 -77.5t131 -202t47 -264.5q0 -118 -34 -236zM227 377q56 -93 188 -166.5t281 -85.5q11 72 11 108q0 100 -34.5 197t-91 159t-116.5 62q-33 0 -72 -20.5t-74 -55.5
t-60.5 -87.5t-31.5 -110.5z" />
    <glyph glyph-name="uni06A1.medi" unicode="&#x6a1;" horiz-adv-x="927" 
d="M207 0h-207l-37 66l37 63h289q-78 57 -122 131.5t-44 149.5q0 85 58.5 172t146.5 141.5t170 54.5q84 0 157 -62.5t111.5 -146.5t38.5 -159q0 -149 -164 -281h287v-129h-256q-53 0 -111.5 13.5t-97.5 33.5q-107 -47 -256 -47zM238 395q19 -50 86 -127.5t137 -120.5
q81 45 139 110.5t88 127.5q-2 92 -64.5 179t-136.5 87q-76 0 -161 -90t-88 -166z" />
    <glyph glyph-name="uni06A1.fina" unicode="&#x6a1;" horiz-adv-x="1890" 
d="M510 0q-112 0 -193.5 27t-127 76t-66.5 107.5t-21 129.5q0 189 134 399l98 -65q-113 -184 -113 -320q0 -110 69.5 -167.5t207.5 -57.5h762q-83 58 -129 128t-46 142q0 81 57.5 171t146.5 150t173 60q85 0 158 -66t111 -152.5t38 -162.5q0 -141 -163 -270h284v-129h-264
q-127 0 -205 45q-103 -45 -235 -45h-676zM1204 383q15 -47 84 -118.5t144 -114.5q79 46 135.5 107t85.5 118q0 95 -60.5 185.5t-138.5 90.5q-53 0 -112.5 -45.5t-98.5 -109t-39 -113.5z" />
    <glyph glyph-name="uni06A4.init" unicode="&#x6a4;" horiz-adv-x="958" arabic-form="initial" 
d="M795 0h-795l-37 66l37 63h317q-92 47 -147 114t-55 148q0 57 28 125t74 126.5t113 98t137 39.5q100 0 184 -77.5t131 -202t47 -264.5q0 -118 -34 -236zM227 377q56 -93 188 -166.5t281 -85.5q11 72 11 108q0 100 -34.5 197t-91 159t-116.5 62q-33 0 -72 -20.5t-74 -55.5
t-60.5 -87.5t-31.5 -110.5zM256 1069q0 38 25 63t63 25q37 0 60.5 -25t23.5 -63t-23.5 -62t-60.5 -24q-38 0 -63 24t-25 62zM381 1278q0 38 25 64t63 26q35 0 59.5 -26t24.5 -64q0 -37 -24.5 -61.5t-59.5 -24.5q-38 0 -63 24.5t-25 61.5zM506 1069q0 38 24.5 63t61.5 25
t61.5 -25t24.5 -63t-24.5 -62t-61.5 -24t-61.5 24t-24.5 62z" />
    <glyph glyph-name="uni06A4.medi" unicode="&#x6a4;" horiz-adv-x="927" arabic-form="medial" 
d="M207 0h-207l-37 66l37 63h289q-78 57 -122 131.5t-44 149.5q0 85 58.5 172t146.5 141.5t170 54.5q84 0 157 -62.5t111.5 -146.5t38.5 -159q0 -149 -164 -281h287v-129h-256q-53 0 -111.5 13.5t-97.5 33.5q-107 -47 -256 -47zM238 395q19 -50 86 -127.5t137 -120.5
q81 45 139 110.5t88 127.5q-2 92 -64.5 179t-136.5 87q-76 0 -161 -90t-88 -166zM256 1059q0 38 25 63t63 25q37 0 60.5 -25t23.5 -63t-23.5 -62t-60.5 -24q-38 0 -63 24t-25 62zM381 1268q0 38 25 64t63 26q35 0 59.5 -26t24.5 -64q0 -37 -24.5 -61.5t-59.5 -24.5
q-38 0 -63 24.5t-25 61.5zM506 1059q0 38 24.5 63t61.5 25t61.5 -25t24.5 -63t-24.5 -62t-61.5 -24t-61.5 24t-24.5 62z" />
    <glyph glyph-name="uni06A4.fina" unicode="&#x6a4;" horiz-adv-x="1890" arabic-form="final" 
d="M510 0q-112 0 -193.5 27t-127 76t-66.5 107.5t-21 129.5q0 189 134 399l98 -65q-113 -184 -113 -320q0 -110 69.5 -167.5t207.5 -57.5h762q-83 58 -129 128t-46 142q0 81 57.5 171t146.5 150t173 60q85 0 158 -66t111 -152.5t38 -162.5q0 -141 -163 -270h284v-129h-264
q-127 0 -205 45q-103 -45 -235 -45h-676zM1204 383q15 -47 84 -118.5t144 -114.5q79 46 135.5 107t85.5 118q0 95 -60.5 185.5t-138.5 90.5q-53 0 -112.5 -45.5t-98.5 -109t-39 -113.5zM1233 1059q0 38 25 63t63 25q37 0 60.5 -25t23.5 -63t-23.5 -62t-60.5 -24
q-38 0 -63 24t-25 62zM1358 1268q0 38 25 64t63 26q35 0 59.5 -26t24.5 -64q0 -37 -24.5 -61.5t-59.5 -24.5q-38 0 -63 24.5t-25 61.5zM1483 1059q0 38 24.5 63t61.5 25t61.5 -25t24.5 -63t-24.5 -62t-61.5 -24t-61.5 24t-24.5 62z" />
    <glyph glyph-name="uni06BA.fina" unicode="&#x6ba;" horiz-adv-x="1314" arabic-form="final" 
d="M578 -276q-101 0 -185.5 25t-150.5 76t-103 136.5t-37 198.5q0 247 156 465l94 -70q-62 -89 -95.5 -190t-33.5 -191q0 -154 98.5 -236.5t268.5 -82.5q166 0 282 77t160 218q-24 200 -88 487l127 31l70 -367q19 -108 48 -140t95 -32h31v-129h-29q-128 0 -172 55
q-57 -157 -198 -244t-338 -87z" />
    <glyph glyph-name="uniFDFC" unicode="&#xfdfc;" horiz-adv-x="2390" arabic-form="isolated" 
d="M535 -442q-197 0 -315 107.5t-118 324.5q0 243 156 467l96 -68q-63 -89 -97 -189.5t-34 -193.5q0 -154 91 -236.5t245 -82.5q123 0 211.5 50.5t136.5 145.5q35 345 35 842v661h117v-655q0 -426 -17.5 -633.5t-58.5 -298.5q-49 -107 -168.5 -174t-279.5 -67zM1190 -262
q0 38 29 68t67 30t65 -29.5t27 -68.5q0 -37 -27 -66.5t-65 -29.5t-67 29.5t-29 66.5zM1278 694v692h117v-692q0 -295 8 -409q4 -89 40 -122.5t122 -33.5h145q14 137 14 313v131h119v-131q0 -278 -26 -442h-287q-113 0 -171 51t-69 152q-12 141 -12 491zM1432 -262
q0 39 27 68.5t65 29.5t67 -30t29 -68q0 -37 -29 -66.5t-67 -29.5t-65 29.5t-27 66.5zM1679 -430q118 61 209.5 129t148.5 133.5t90 125t48 118.5q-12 153 -113 432l117 41q51 -141 78 -241.5t27 -186.5q0 -187 -137 -352.5t-400 -303.5z" />
    <glyph glyph-name=".notdef" horiz-adv-x="1228" 
 />
    <glyph glyph-name=".null" 
 />
    <glyph glyph-name="nonmarkingreturn" horiz-adv-x="682" 
 />
    <glyph glyph-name="space" unicode=" " horiz-adv-x="409" 
 />
    <glyph glyph-name="exclam" unicode="!" horiz-adv-x="479" 
d="M197 338q-1 25 -11 207.5t-10 298.5v446h127v-446q0 -118 -9 -308.5t-9 -197.5h-88zM145 76q0 40 27.5 67t67.5 27q39 0 66.5 -27.5t27.5 -66.5t-27.5 -66.5t-66.5 -27.5q-40 0 -67.5 28t-27.5 66z" />
    <glyph glyph-name="quotedbl" unicode="&#x22;" horiz-adv-x="571" 
d="M139 840q-37 194 -37 342q0 172 68 172q70 0 70 -174q0 -146 -37 -340h-64zM332 1182q0 91 16.5 131.5t50.5 40.5q70 0 70 -174q0 -146 -37 -340h-63q-37 194 -37 342z" />
    <glyph glyph-name="numbersign" unicode="#" horiz-adv-x="1357" 
d="M698 0l82 330h-364l-82 -330h-117l82 330h-217v102h242l110 447h-264v102h291l76 309h116l-75 -309h364l78 309h117l-78 -309h217v-102h-242l-110 -447h264v-102h-291l-82 -330h-117zM440 432h367l111 447h-367z" />
    <glyph glyph-name="dollar" unicode="$" horiz-adv-x="980" 
d="M442 -119v148q-210 9 -360 118l39 121q65 -55 171.5 -91t199.5 -36q108 0 176 27q45 28 75.5 82.5t30.5 120.5t-36.5 110.5t-94.5 67.5t-128.5 40.5t-141.5 39.5t-129 54t-94.5 93.5t-36.5 149.5q0 138 84.5 232t240.5 112v151h111v-149q86 -5 167 -33.5t136 -83.5
l-39 -113q-63 54 -149.5 86.5t-169.5 32.5q-50 0 -102.5 -11.5t-82.5 -33.5q-71 -68 -71 -180q0 -52 22.5 -90t61 -60.5t88 -39t104.5 -29.5t109.5 -28t104 -39t88 -57t61 -87.5t22.5 -126.5q0 -147 -90.5 -237t-255.5 -109v-152h-111z" />
    <glyph glyph-name="percent" unicode="%" horiz-adv-x="1320" 
d="M328 752q-125 0 -201 70.5t-76 209.5q0 130 79.5 204.5t197.5 74.5q124 0 200 -71t76 -208q0 -131 -80 -205.5t-196 -74.5zM160 1032q0 -88 46.5 -134t121.5 -46q87 0 135 45q31 48 31 135q0 85 -47 132.5t-119 47.5q-86 0 -133 -41q-35 -46 -35 -139zM260 0l674 1290
h127l-676 -1290h-125zM719 264q0 130 79 204.5t197 74.5q124 0 200.5 -71t76.5 -208q0 -131 -80.5 -205.5t-196.5 -74.5q-125 0 -200.5 70.5t-75.5 209.5zM827 264q0 -88 46.5 -134t121.5 -46q87 0 135 45q31 48 31 135q0 85 -47 132.5t-119 47.5q-86 0 -133 -41
q-35 -46 -35 -139z" />
    <glyph glyph-name="ampersand" unicode="&#x26;" horiz-adv-x="1280" 
d="M588 -18q-92 0 -171 21t-142.5 64t-99.5 115t-36 166q0 124 68 215.5t196 136.5q-145 131 -145 287q0 146 103 235t251 89q93 0 197 -33l-18 -113q-82 31 -175 31q-98 0 -161 -31q-70 -64 -70 -168q0 -157 182 -270l332 -211v385h121v-463l178 -112l-27 -117l-165 104
q-12 -151 -133 -241t-285 -90zM266 356q0 -58 18.5 -103.5t48.5 -74.5t72 -48t86.5 -26.5t94.5 -7.5q153 0 237 70q65 85 76 215l-395 250q-98 -17 -174 -70q-64 -76 -64 -205z" />
    <glyph glyph-name="quotesingle" unicode="'" horiz-adv-x="342" 
d="M139 840q-37 194 -37 342q0 172 68 172q70 0 70 -174q0 -146 -37 -340h-64z" />
    <glyph glyph-name="parenleft" unicode="(" horiz-adv-x="681" 
d="M520 -414q-217 197 -317.5 437.5t-100.5 545.5q0 306 100.5 547t317.5 436l80 -71q-79 -77 -142.5 -167.5t-116 -203.5t-81.5 -252t-29 -293q0 -538 369 -903z" />
    <glyph glyph-name="parenright" unicode=")" horiz-adv-x="681" 
d="M82 -338q369 365 369 903q0 154 -29 293t-81.5 252t-116 203.5t-142.5 167.5l80 71q217 -195 317.5 -436t100.5 -547q0 -305 -100.5 -545.5t-317.5 -437.5z" />
    <glyph glyph-name="asterisk" unicode="*" horiz-adv-x="862" 
d="M274 799l-86 61l166 219l-262 80l31 98l258 -90l-4 275h106l-6 -275l262 93l31 -101l-264 -80l166 -219l-86 -61l-158 225z" />
    <glyph glyph-name="plus" unicode="+" horiz-adv-x="1140" 
d="M115 590v115h397v393h117v-393h397v-115h-397v-393h-117v393h-397z" />
    <glyph glyph-name="comma" unicode="," horiz-adv-x="421" 
d="M109 -246q94 105 94 176q0 27 -14 45.5t-31 27t-31 29.5t-14 52q0 44 25 69t69 25q98 0 98 -139q0 -92 -41.5 -181t-107.5 -149z" />
    <glyph glyph-name="hyphen" unicode="-" horiz-adv-x="604" 
d="M102 475v121h400v-121h-400z" />
    <glyph glyph-name="period" unicode="." horiz-adv-x="421" 
d="M211 -18q-39 0 -66.5 27.5t-27.5 66.5q0 40 27 67t67 27q39 0 66.5 -27.5t27.5 -66.5t-27.5 -66.5t-66.5 -27.5z" />
    <glyph glyph-name="slash" unicode="/" horiz-adv-x="702" 
d="M41 -147l500 1560h121l-500 -1560h-121z" />
    <glyph glyph-name="zero" unicode="0" horiz-adv-x="1058" 
d="M526 -25q-219 0 -320.5 155.5t-101.5 510.5q0 351 105 512.5t323 161.5q219 0 320.5 -155t101.5 -507q0 -353 -105.5 -515.5t-322.5 -162.5zM240 641q0 -200 33 -322t95 -173.5t160 -51.5q128 0 201 76q90 144 90 481q0 202 -33.5 323.5t-95.5 171.5t-162 50
q-116 0 -192 -66q-96 -147 -96 -489z" />
    <glyph glyph-name="one" unicode="1" horiz-adv-x="643" 
d="M350 0v1141l-256 -160l-35 125l306 184h118v-1290h-133z" />
    <glyph glyph-name="two" unicode="2" horiz-adv-x="964" 
d="M63 0v111l375 395q33 35 91 93.5t96.5 100t62.5 72.5q49 87 49 191q0 99 -60 166t-185 67q-97 0 -185 -40.5t-155 -100.5l-43 112q160 148 391 148q179 0 274.5 -89t95.5 -249q0 -59 -14.5 -113t-35.5 -97t-67.5 -101.5t-84.5 -100t-113 -119.5l-315 -327h632v-119h-809z
" />
    <glyph glyph-name="three" unicode="3" horiz-adv-x="989" 
d="M457 -25q-107 0 -195.5 31t-177.5 100l43 113q134 -125 342 -125q138 0 229 66q56 70 56 180q0 132 -86.5 204t-243.5 72h-78v115h78q171 0 256 57q53 71 53 183q0 109 -65.5 167t-192.5 58q-183 0 -328 -123l-43 113q94 69 182 99t195 30q188 0 287.5 -85t99.5 -249
q0 -229 -213 -309q234 -70 234 -322q0 -178 -114.5 -276.5t-317.5 -98.5z" />
    <glyph glyph-name="four" unicode="4" horiz-adv-x="980" 
d="M80 326v98l274 866h140l-273 -846h494v523h133v-967h-133v326h-635z" />
    <glyph glyph-name="five" unicode="5" horiz-adv-x="978" 
d="M457 -25q-98 0 -177.5 25.5t-168.5 85.5l41 109q143 -101 321 -101q157 0 232 72q45 76 45 209q0 152 -77 210t-274 58h-237v647h674v-119h-541v-411h137q237 0 344 -89.5t107 -283.5q0 -202 -108.5 -307t-317.5 -105z" />
    <glyph glyph-name="six" unicode="6" horiz-adv-x="1005" 
d="M514 -25q-193 0 -301.5 137t-108.5 404q0 776 601 799l49 -119q-474 -11 -514 -498q106 129 307 129q180 0 277.5 -105.5t97.5 -295.5q0 -210 -114 -330.5t-294 -120.5zM236 489q0 -198 76 -297.5t208 -99.5q129 0 207 82q29 41 46.5 107t17.5 133q0 137 -70 217t-201 80
q-90 0 -165 -37.5t-119 -95.5v-89z" />
    <glyph glyph-name="seven" unicode="7" horiz-adv-x="913" 
d="M182 0l516 1171h-659v119h803v-94l-516 -1196h-144z" />
    <glyph glyph-name="eight" unicode="8" horiz-adv-x="1062" 
d="M528 -25q-103 0 -185 30t-133.5 81t-78.5 117t-27 141q0 118 55 202.5t160 125.5q-180 85 -180 289q0 152 104.5 253t288.5 101q183 0 286.5 -98t103.5 -254q0 -208 -177 -291q103 -39 158 -125.5t55 -202.5q0 -74 -28 -140t-80.5 -117.5t-135.5 -81.5t-186 -30zM236 352
q0 -115 78 -187.5t216 -72.5q133 0 230 68q67 77 67 192q0 118 -78.5 189t-216.5 71q-113 0 -217 -49q-79 -76 -79 -211zM268 956q0 -107 70.5 -171t196.5 -64q121 0 208 61q50 72 50 164q0 109 -66.5 180.5t-198.5 71.5q-118 0 -198 -55q-62 -75 -62 -187z" />
    <glyph glyph-name="nine" unicode="9" horiz-adv-x="1001" 
d="M250 94q126 0 221 37t154.5 106t92 157.5t42.5 199.5q-105 -131 -297 -131q-185 0 -282 105t-97 300q0 207 114 327t291 120q191 0 299.5 -119.5t108.5 -357.5q0 -63 -0.5 -101t-6 -112.5t-16 -125t-31 -121.5t-50 -120t-75.5 -104t-104 -89.5t-139 -59.5t-178 -30z
M215 872q0 -133 69.5 -212.5t196.5 -79.5q89 0 164.5 40t118.5 93v129q0 174 -74.5 265t-202.5 91q-62 0 -120.5 -23t-92.5 -59q-27 -41 -43 -107.5t-16 -136.5z" />
    <glyph glyph-name="colon" unicode=":" horiz-adv-x="423" 
d="M213 602q-40 0 -68 28t-28 66q0 40 28 67.5t68 27.5q38 0 65 -28t27 -67q0 -37 -27 -65.5t-65 -28.5zM117 76q0 40 27 67t67 27q39 0 66.5 -27.5t27.5 -66.5t-27.5 -66.5t-66.5 -27.5q-40 0 -67 27t-27 67z" />
    <glyph glyph-name="semicolon" unicode=";" horiz-adv-x="434" 
d="M223 602q-40 0 -68 28t-28 66q0 40 28 67.5t68 27.5q38 0 65 -28t27 -67q0 -37 -27 -65.5t-65 -28.5zM119 -246q94 105 94 176q0 27 -14 45.5t-31 27t-31 29.5t-14 52q0 44 25 69t69 25q98 0 98 -139q0 -92 -40.5 -181t-106.5 -149z" />
    <glyph glyph-name="less" unicode="&#x3c;" horiz-adv-x="1140" 
d="M946 160l-751 442v86l751 445v-140l-594 -348l594 -346v-139z" />
    <glyph glyph-name="equal" unicode="=" horiz-adv-x="1140" 
d="M135 795v110h871v-110h-871zM135 393v111h871v-111h-871z" />
    <glyph glyph-name="greater" unicode="&#x3e;" horiz-adv-x="1140" 
d="M195 160v139l593 346l-593 348v140l751 -445v-86z" />
    <glyph glyph-name="question" unicode="?" horiz-adv-x="841" 
d="M201 338q0 70 22 127.5t58 97.5t79 74.5t85.5 67.5t78.5 68.5t58 84.5t22 109q0 112 -67.5 172.5t-186.5 60.5q-135 0 -239 -53l-35 108q114 60 274 60q383 0 383 -346q0 -76 -22.5 -138t-58 -102.5t-78.5 -75t-86.5 -66t-79 -64.5t-58 -80t-22.5 -105h-127zM170 76
q0 40 27 67t67 27q38 0 65 -28t27 -66t-27 -66t-65 -28q-39 0 -66.5 27.5t-27.5 66.5z" />
    <glyph glyph-name="at" unicode="@" horiz-adv-x="1902" 
d="M903 -408q-133 0 -248 30.5t-213.5 96.5t-169 163.5t-110 238.5t-39.5 315q0 408 226.5 640.5t627.5 232.5q135 0 251.5 -26t219.5 -86t175.5 -150.5t114.5 -226t42 -306.5q0 -60 -5.5 -115.5t-18 -114t-36 -106t-56 -86t-81 -59.5t-108.5 -21q-89 0 -154 49t-92 132
q-77 -181 -309 -181q-355 0 -355 410q0 73 11 137t40 125.5t73 104.5t115.5 69.5t162.5 26.5q121 0 211.5 -41.5t144.5 -98.5v-378q0 -234 145 -234q94 0 144 70q37 95 37 289q0 153 -36 273.5t-97.5 198.5t-148.5 129.5t-183 73t-207 21.5q-325 0 -531 -166
q-194 -210 -194 -592q0 -149 34.5 -270t95.5 -203.5t145.5 -138.5t182 -81.5t208.5 -25.5q257 0 417 142l78 -97q-82 -67 -211 -115.5t-299 -48.5zM696 438q0 -68 10.5 -119.5t36 -95t73 -67t116.5 -23.5q117 0 190 57q68 87 68 248v254q-110 74 -227 74q-105 0 -185 -43
q-82 -88 -82 -285z" />
    <glyph glyph-name="A" unicode="A" horiz-adv-x="1282" 
d="M61 0l496 1290h168l496 -1290h-146l-129 346h-610l-131 -346h-144zM381 465h520l-260 692z" />
    <glyph glyph-name="B" unicode="B" horiz-adv-x="1204" 
d="M168 0v1290h432q432 0 432 -329q0 -112 -49.5 -183t-151.5 -110q246 -52 246 -308q0 -172 -108.5 -266t-335.5 -94h-465zM301 117h332q172 0 250 55q57 69 57 188q0 118 -74.5 181t-251.5 63h-313v-487zM301 717h281q181 0 264 61q53 63 53 168q0 228 -299 228h-299v-457
z" />
    <glyph glyph-name="C" unicode="C" horiz-adv-x="1189" 
d="M727 -25q-291 0 -459 163t-168 474q0 164 49 297.5t136 222t206.5 136t260.5 47.5q193 0 364 -88l-37 -113q-161 82 -317 82q-106 0 -210.5 -35t-172.5 -96q-70 -85 -105.5 -204t-35.5 -247q0 -244 130.5 -382t362.5 -138q103 0 206 27t183 72l33 -103
q-171 -115 -426 -115z" />
    <glyph glyph-name="D" unicode="D" horiz-adv-x="1343" 
d="M168 0v1290h422q653 0 653 -624q0 -326 -178.5 -496t-499.5 -170h-397zM301 119h258q279 0 432 139q54 74 85.5 179.5t31.5 221.5q0 252 -128 382t-378 130h-301v-1052z" />
    <glyph glyph-name="E" unicode="E" horiz-adv-x="1034" 
d="M168 0v1290h772v-119h-639v-477h561v-119h-561v-456h641v-119h-774z" />
    <glyph glyph-name="F" unicode="F" horiz-adv-x="1019" 
d="M168 0v1290h793v-119h-660v-520h582v-119h-582v-532h-133z" />
    <glyph glyph-name="G" unicode="G" horiz-adv-x="1296" 
d="M723 -25q-299 0 -461 161t-162 470q0 168 49.5 303t138 223.5t209.5 135.5t265 47q190 0 366 -84l-34 -115q-184 80 -336 80q-109 0 -217 -36.5t-174 -96.5q-61 -83 -96 -201t-35 -248q0 -247 125 -383.5t366 -136.5q156 0 307 51v430h-315v119h446v-604
q-175 -115 -442 -115z" />
    <glyph glyph-name="H" unicode="H" horiz-adv-x="1284" 
d="M983 0v575h-682v-575h-133v1290h133v-596h682v596h133v-1290h-133z" />
    <glyph glyph-name="I" unicode="I" horiz-adv-x="468" 
d="M168 0v1290h133v-1290h-133z" />
    <glyph glyph-name="J" unicode="J" horiz-adv-x="468" 
d="M-100 -199q58 5 107.5 27t91 64.5t65.5 113.5t24 164v1120h131v-1065q0 -477 -374 -538z" />
    <glyph glyph-name="K" unicode="K" horiz-adv-x="1114" 
d="M905 0l-555 647l522 643h160l-522 -635l563 -655h-168zM168 0v1290h133v-1290h-133z" />
    <glyph glyph-name="L" unicode="L" horiz-adv-x="989" 
d="M168 0v1290h133v-1171h647v-119h-780z" />
    <glyph glyph-name="M" unicode="M" horiz-adv-x="1499" 
d="M168 0v1290h186l398 -784l395 784h184v-1290h-133v1128l-395 -786h-107l-395 782v-1124h-133z" />
    <glyph glyph-name="N" unicode="N" horiz-adv-x="1306" 
d="M168 0v1290h188l650 -1118v1118h133v-1290h-189l-649 1120v-1120h-133z" />
    <glyph glyph-name="O" unicode="O" horiz-adv-x="1435" 
d="M707 -25q-124 0 -226 35t-172 95.5t-117.5 144.5t-69.5 180t-22 203q0 151 41.5 276t120 215.5t197 140.5t266.5 50q285 0 447.5 -178t162.5 -484q0 -144 -38.5 -265.5t-113.5 -214.5t-197 -145.5t-279 -52.5zM236 645q0 -110 29.5 -207.5t86.5 -175t149 -123t208 -45.5
q106 0 206 36t158 89q63 71 95 187.5t32 228.5q0 159 -53 284.5t-163 201t-263 75.5q-103 0 -199 -35t-153 -84q-64 -72 -98.5 -193.5t-34.5 -238.5z" />
    <glyph glyph-name="P" unicode="P" horiz-adv-x="1161" 
d="M168 0v1290h416q493 0 493 -432q0 -208 -135.5 -323t-361.5 -115h-279v-420h-133zM301 539h289q173 0 272 71q78 97 78 244q0 317 -346 317h-293v-632z" />
    <glyph glyph-name="Q" unicode="Q" horiz-adv-x="1435" 
d="M1292 -377q-76 0 -158 24.5t-166 70t-153 89.5t-161 105t-146 94q-408 136 -408 635q0 300 166 487t451 187q292 0 455 -178t163 -488q0 -279 -146.5 -457t-430.5 -198q344 -250 571 -250q94 0 176 49l27 -106q-97 -64 -240 -64zM236 645q0 -108 29.5 -205.5t86 -175
t148 -123t207.5 -45.5q104 0 201.5 37t162.5 92q62 74 95.5 189t33.5 233q0 109 -31 207t-90 175t-153 122t-211 45q-99 0 -194.5 -34t-151.5 -85q-65 -72 -99 -192.5t-34 -239.5z" />
    <glyph glyph-name="R" unicode="R" horiz-adv-x="1202" 
d="M168 0v1290h453q127 0 215.5 -25.5t139.5 -77t73 -119t22 -159.5q0 -151 -81.5 -240.5t-227.5 -115.5l356 -553h-168l-336 539h-313v-539h-133zM301 655h320q147 0 241 50q72 67 72 204q0 63 -14.5 109t-49.5 81.5t-97 53.5t-152 18h-320v-516z" />
    <glyph glyph-name="S" unicode="S" horiz-adv-x="1083" 
d="M516 -25q-256 0 -436 125l41 127q83 -66 200.5 -99.5t221.5 -33.5q127 0 223 35q46 28 75 78t29 117q0 60 -26 105t-69.5 73t-100 50t-118.5 39.5t-124.5 36t-119 45.5t-100 62.5t-69.5 91.5t-26 129q0 166 124.5 262.5t327.5 96.5q102 0 207.5 -31.5t179.5 -95.5
l-38 -119q-75 59 -177 93t-202 34q-126 0 -222 -51q-69 -69 -69 -168q0 -55 26 -96.5t69.5 -67.5t100.5 -46.5t119.5 -37.5t125 -36t119.5 -47.5t100.5 -66t69.5 -97t26 -136.5q0 -176 -129 -273.5t-359 -97.5z" />
    <glyph glyph-name="T" unicode="T" horiz-adv-x="1099" 
d="M483 0v1171h-442v119h1018v-119h-443v-1171h-133z" />
    <glyph glyph-name="U" unicode="U" horiz-adv-x="1257" 
d="M625 -25q-111 0 -195.5 29t-149.5 92.5t-99 172.5t-34 261v760h134v-760q0 -121 23 -206t68.5 -135t107 -72.5t145.5 -22.5q181 0 272 82q80 102 80 354v760h133v-760q0 -555 -485 -555z" />
    <glyph glyph-name="V" unicode="V" horiz-adv-x="1245" 
d="M545 0l-484 1290h144l418 -1153l417 1153h144l-484 -1290h-155z" />
    <glyph glyph-name="W" unicode="W" horiz-adv-x="1849" 
d="M449 0l-388 1290h134l327 -1112l332 1112h139l332 -1110l330 1110h133l-391 -1290h-146l-327 1090l-328 -1090h-147z" />
    <glyph glyph-name="X" unicode="X" horiz-adv-x="1157" 
d="M39 0l457 674l-414 616h160l346 -518l327 518h160l-413 -612l456 -678h-164l-383 575l-368 -575h-164z" />
    <glyph glyph-name="Y" unicode="Y" horiz-adv-x="1282" 
d="M573 0v459l-512 831h152l428 -702l428 702h152l-514 -835v-455h-134z" />
    <glyph glyph-name="Z" unicode="Z" horiz-adv-x="1105" 
d="M76 0v94l751 1077h-723v119h895v-94l-749 -1077h780v-119h-954z" />
    <glyph glyph-name="bracketleft" unicode="[" horiz-adv-x="555" 
d="M102 -393v1933h392v-106h-273v-1721h273v-106h-392z" />
    <glyph glyph-name="backslash" unicode="\" horiz-adv-x="702" 
d="M662 -147h-121l-500 1560h121z" />
    <glyph glyph-name="bracketright" unicode="]" horiz-adv-x="555" 
d="M453 -393h-392v106h273v1721h-273v106h392v-1933z" />
    <glyph glyph-name="asciicircum" unicode="^" horiz-adv-x="1140" 
d="M211 743l311 674h94l316 -674h-131l-232 510l-229 -510h-129z" />
    <glyph glyph-name="underscore" unicode="_" horiz-adv-x="819" 
d="M0 -238v115h819v-115h-819z" />
    <glyph glyph-name="grave" unicode="`" horiz-adv-x="468" 
d="M274 946l-192 279h147l158 -279h-113z" />
    <glyph glyph-name="a" unicode="a" horiz-adv-x="835" 
d="M618 0l-20 82q-43 -51 -112 -79t-144 -28q-126 0 -196 60.5t-70 179.5q0 234 309 234h213v69q0 88 -48 128t-149 40q-62 0 -125 -15t-102 -36l-33 104q58 27 133 43.5t140 16.5q161 0 236 -70.5t75 -222.5v-506h-107zM203 217q0 -65 40 -98t113 -33q74 0 141.5 30.5
t100.5 76.5v149h-213q-99 0 -145 -14q-37 -40 -37 -111z" />
    <glyph glyph-name="b" unicode="b" horiz-adv-x="923" 
d="M477 -25q-180 0 -272 103t-92 291v962h125v-645q102 111 258 111q169 0 262.5 -107t93.5 -291q0 -194 -100 -309t-275 -115zM238 360q0 -117 62 -194.5t179 -77.5q108 0 178 53q64 74 64 246q0 132 -61.5 214.5t-178.5 82.5q-63 0 -133 -32.5t-110 -84.5v-207z" />
    <glyph glyph-name="c" unicode="c" horiz-adv-x="761" 
d="M469 -25q-192 0 -294.5 101t-102.5 293q0 201 115 315.5t298 114.5q112 0 220 -51l-41 -119q-32 21 -83 39t-104 18q-46 0 -105.5 -17t-97.5 -44q-73 -81 -73 -250q0 -138 72 -212.5t202 -74.5q129 0 225 57l33 -96q-107 -74 -264 -74z" />
    <glyph glyph-name="d" unicode="d" horiz-adv-x="909" 
d="M406 -23q-161 0 -247.5 109t-86.5 289q0 199 108.5 311.5t294.5 112.5q103 0 180 -39v571h127v-1331h-104l-25 90q-91 -113 -247 -113zM201 379q0 -133 61 -210t174 -77q129 0 219 117v426q-66 51 -180 51q-58 0 -115.5 -16t-95.5 -43q-63 -84 -63 -248z" />
    <glyph glyph-name="e" unicode="e" horiz-adv-x="856" 
d="M453 -25q-174 0 -277.5 101t-103.5 297q0 191 97.5 308.5t272.5 117.5q100 0 172 -35.5t110.5 -99t52.5 -143.5t5 -177h-581q-5 -117 68 -186.5t202 -69.5q119 0 234 68l32 -105q-122 -76 -284 -76zM203 455h461q-1 111 -62.5 171t-163.5 60q-110 0 -184 -70
q-45 -71 -51 -161z" />
    <glyph glyph-name="f" unicode="f" horiz-adv-x="618" 
d="M203 1034q0 151 72 234.5t210 83.5q90 0 164 -41l-33 -109q-57 37 -133 37q-85 0 -129 -37q-24 -47 -24 -155v-273h270v-110h-270v-664h-127v664h-144v110h144v260z" />
    <glyph glyph-name="g" unicode="g" horiz-adv-x="907" 
d="M410 -410q-151 0 -277 74l41 119q107 -80 242 -80q113 0 186 57q42 48 55 116t13 167v61q-42 -50 -109.5 -78t-148.5 -28q-160 0 -250 102t-90 287q0 193 102.5 302.5t276.5 109.5q172 0 259 -101.5t87 -291.5v-373q0 -233 -103.5 -338t-283.5 -105zM201 397
q0 -134 60 -211t167 -77q72 0 137.5 30.5t104.5 83.5v189q0 138 -61.5 206t-157.5 68q-104 0 -177 -55q-73 -81 -73 -234z" />
    <glyph glyph-name="h" unicode="h" horiz-adv-x="897" 
d="M657 467q0 217 -172 217q-67 0 -127.5 -36.5t-103.5 -94.5v-553h-127v1331h127v-659q96 125 258 125q137 0 204.5 -81t67.5 -227v-489h-127v467z" />
    <glyph glyph-name="i" unicode="i" horiz-adv-x="382" 
d="M127 0v774h127v-774h-127zM100 1085q0 39 27 66t66 27t66.5 -27t27.5 -66q0 -38 -27 -65t-67 -27q-39 0 -66 26.5t-27 65.5z" />
    <glyph glyph-name="j" unicode="j" horiz-adv-x="382" 
d="M-61 -303q85 17 136.5 94.5t51.5 231.5v751h127v-698q0 -427 -272 -486zM100 1085q0 39 27 66t66 27t66.5 -27t27.5 -66q0 -38 -27 -65t-67 -27q-39 0 -66 26.5t-27 65.5z" />
    <glyph glyph-name="k" unicode="k" horiz-adv-x="790" 
d="M610 0l-315 414l293 360h162l-306 -360l326 -414h-160zM127 0v1331h127v-1331h-127z" />
    <glyph glyph-name="l" unicode="l" horiz-adv-x="382" 
d="M127 0v1331h127v-1331h-127z" />
    <glyph glyph-name="m" unicode="m" horiz-adv-x="1374" 
d="M1137 467q0 106 -37.5 161.5t-124.5 55.5q-126 0 -219 -123q2 -18 2 -59v-502h-125v477q0 102 -37 154.5t-123 52.5q-63 0 -120 -34t-99 -91v-559h-127v774h106l21 -102q90 125 248 125q178 0 229 -123q110 123 268 123q265 0 265 -308v-489h-127v467z" />
    <glyph glyph-name="n" unicode="n" horiz-adv-x="897" 
d="M657 467q0 217 -168 217q-70 0 -131 -36.5t-104 -94.5v-553h-127v774h106l21 -102q96 125 258 125q137 0 204.5 -81t67.5 -227v-489h-127v467z" />
    <glyph glyph-name="o" unicode="o" horiz-adv-x="903" 
d="M451 -25q-186 0 -282.5 109t-96.5 303q0 183 102.5 297.5t276.5 114.5q185 0 282.5 -108.5t97.5 -303.5q0 -184 -102 -298t-278 -114zM201 387q0 -127 63.5 -212t186.5 -85q52 0 102.5 14.5t81.5 38.5q67 77 67 244q0 125 -65.5 212t-185.5 87q-52 0 -100.5 -14.5
t-78.5 -38.5q-71 -78 -71 -246z" />
    <glyph glyph-name="p" unicode="p" horiz-adv-x="911" 
d="M438 -23q-106 0 -184 37v-399h-127v1159h106l23 -90q88 113 242 113q165 0 253.5 -109.5t88.5 -288.5q0 -198 -108 -310t-294 -112zM254 139q70 -51 180 -51q59 0 116 16.5t95 45.5q31 40 48.5 107t17.5 138q0 132 -61.5 209.5t-176.5 77.5q-62 0 -119.5 -32t-99.5 -87
v-424z" />
    <glyph glyph-name="q" unicode="q" horiz-adv-x="923" 
d="M686 414q0 117 -62.5 194.5t-179.5 77.5q-108 0 -178 -53q-63 -73 -63 -246q0 -132 61 -214.5t178 -82.5q63 0 133.5 32.5t110.5 84.5v207zM72 375q0 194 99.5 309t272.5 115q182 0 274.5 -102.5t92.5 -290.5v-791h-125v473q-102 -111 -260 -111q-168 0 -261 107t-93 291
z" />
    <glyph glyph-name="r" unicode="r" horiz-adv-x="628" 
d="M127 0v774h106l21 -106q92 129 231 129q76 0 138 -41l-41 -125q-61 45 -123 45q-124 0 -205 -129v-547h-127z" />
    <glyph glyph-name="s" unicode="s" horiz-adv-x="735" 
d="M352 -23q-167 0 -289 78l41 119q48 -43 121 -63.5t144 -20.5q78 0 145 27q31 31 31 76q0 43 -33.5 72t-84 43.5t-109 33.5t-109 40.5t-84 66t-33.5 108.5q0 113 84.5 176.5t212.5 63.5q166 0 260 -80l-37 -115q-49 39 -111.5 61.5t-121.5 22.5q-76 0 -133 -29
q-27 -39 -27 -75q0 -35 25 -60t65 -39t88.5 -26.5t96.5 -29t88 -40.5t65 -66.5t25 -101.5q0 -82 -46 -138.5t-116 -80t-158 -23.5z" />
    <glyph glyph-name="t" unicode="t" horiz-adv-x="665" 
d="M442 -25q-121 0 -182 69t-61 198v422h-144v110h144v277h127v-277h262v-110h-262v-416q0 -160 141 -160q64 0 125 33l22 -105q-65 -41 -172 -41z" />
    <glyph glyph-name="u" unicode="u" horiz-adv-x="894" 
d="M383 -23q-132 0 -201 81.5t-69 224.5v491h125v-471q0 -97 42 -154t130 -57q67 0 127 33.5t104 87.5v561h127v-774h-104l-21 96q-96 -119 -260 -119z" />
    <glyph glyph-name="v" unicode="v" horiz-adv-x="831" 
d="M352 0l-327 774h143l250 -622l252 622h137l-330 -774h-125z" />
    <glyph glyph-name="w" unicode="w" horiz-adv-x="1333" 
d="M311 0l-286 774h139l217 -629l221 629h133l221 -629l218 629h135l-287 -774h-137l-219 614l-220 -614h-135z" />
    <glyph glyph-name="x" unicode="x" horiz-adv-x="806" 
d="M23 0l299 410l-267 364h154l194 -285l195 285h156l-269 -364l301 -410h-155l-228 330l-227 -330h-153z" />
    <glyph glyph-name="y" unicode="y" horiz-adv-x="894" 
d="M393 -410q-152 0 -278 74l39 117q112 -76 243 -76q124 0 191 57q34 52 43.5 119t9.5 221v13q-101 -119 -258 -119q-134 0 -202 80.5t-68 224.5v473h125v-455q0 -105 45 -159t125 -54q72 0 133 35.5t100 87.5v545h127v-754q0 -79 -13.5 -144t-35.5 -109t-54 -77t-64 -51.5
t-71 -30t-70.5 -15t-66.5 -3.5z" />
    <glyph glyph-name="z" unicode="z" horiz-adv-x="751" 
d="M72 0v94l438 568h-432v112h594v-94l-436 -567h444v-113h-608z" />
    <glyph glyph-name="braceleft" unicode="{" horiz-adv-x="794" 
d="M653 -393q-319 0 -319 391v209q0 156 -56 242t-159 86h-37v114h37q102 0 158.5 87t56.5 241v172q0 391 319 391h80v-106h-69q-108 0 -159.5 -77t-51.5 -233v-186q0 -259 -177 -346q177 -80 177 -346v-223q0 -156 51.5 -233t159.5 -77h69v-106h-80z" />
    <glyph glyph-name="bar" unicode="|" horiz-adv-x="446" 
d="M164 -475v1974h119v-1974h-119z" />
    <glyph glyph-name="braceright" unicode="}" horiz-adv-x="794" 
d="M141 -393h-80v106h70q108 0 159.5 77t51.5 233v223q0 266 176 346q-176 86 -176 346v186q0 156 -51.5 233t-159.5 77h-70v106h80q320 0 320 -391v-172q0 -154 56.5 -241t158.5 -87h37v-114h-37q-103 0 -159 -86t-56 -242v-209q0 -391 -320 -391z" />
    <glyph glyph-name="asciitilde" unicode="~" horiz-adv-x="1140" 
d="M788 401q-64 0 -117.5 23.5t-90.5 57t-70.5 67t-73 57t-82.5 23.5q-71 0 -107 -59.5t-36 -153.5h-111q0 154 67 233.5t185 79.5q65 0 119.5 -23.5t91 -56.5t69 -66.5t71.5 -57t81 -23.5q144 0 144 213h110q0 -154 -66 -234t-184 -80z" />
    <glyph glyph-name="uni00A0" unicode="&#xa0;" horiz-adv-x="407" 
 />
    <glyph glyph-name="exclamdown" unicode="&#xa1;" horiz-adv-x="479" 
d="M283 436q1 -20 10.5 -204.5t9.5 -301.5v-446h-127v446q0 117 9.5 304t9.5 202h88zM145 698q0 39 28 67t67 28t66.5 -28t27.5 -67q0 -40 -27 -67t-67 -27t-67.5 28t-27.5 66z" />
    <glyph glyph-name="cent" unicode="&#xa2;" horiz-adv-x="903" 
d="M485 0v168q-383 43 -383 477q0 94 20 171.5t63 143.5t119 108t181 54v168h111v-164q123 -7 207 -43l-25 -116q-104 45 -215 45q-63 0 -137.5 -17t-108.5 -45q-44 -40 -66 -128t-22 -181q0 -83 16 -146t53.5 -113.5t105 -76.5t163.5 -26q136 0 232 38l22 -114
q-95 -36 -225 -39v-164h-111z" />
    <glyph glyph-name="sterling" unicode="&#xa3;" horiz-adv-x="1024" 
d="M82 115q174 30 174 323v152h-174v104h174v86q0 284 85 409.5t277 125.5q151 0 279 -74l-33 -104q-120 63 -239 63q-96 0 -164 -45q-80 -95 -80 -311v-150h360v-104h-360v-150q0 -111 -23.5 -194.5t-83.5 -143.5q49 13 175 13h473v-115h-840v115z" />
    <glyph glyph-name="currency" unicode="&#xa4;" horiz-adv-x="1304" 
d="M653 356q-93 0 -166 45l-262 -264l-82 82l260 260q-53 71 -53 168t53 168l-258 258l80 82l262 -262q73 45 166 45t166 -45l260 262l82 -82l-258 -258q53 -71 53 -168q0 -95 -53 -170l258 -256l-82 -84l-260 262q-75 -43 -166 -43zM467 647q0 -82 51.5 -132t134.5 -50
t135 50t52 132t-52 132t-135 50t-134.5 -50t-51.5 -132z" />
    <glyph glyph-name="yen" unicode="&#xa5;" horiz-adv-x="1226" 
d="M551 0v176h-365v105h365v161h-365v105h328l-453 743h146l407 -676l406 676h145l-452 -743h327v-105h-362v-161h362v-105h-362v-176h-127z" />
    <glyph glyph-name="brokenbar" unicode="&#xa6;" horiz-adv-x="446" 
d="M164 -475v831h119v-831h-119zM164 711v788h119v-788h-119z" />
    <glyph glyph-name="section" unicode="&#xa7;" horiz-adv-x="958" 
d="M455 -406q-208 0 -375 113l37 113q72 -56 168.5 -85.5t177.5 -29.5q92 0 180 31q92 87 92 194q0 57 -27.5 98t-73 64t-103 43t-118 34t-118 38t-103 54t-73 82.5t-27.5 123.5q0 155 131 266q-121 76 -121 228q0 160 113 255t299 95q218 0 332 -109l-37 -112
q-150 110 -309 110q-99 0 -201 -39q-25 -28 -44 -76t-19 -98t22 -87t59.5 -59.5t86 -39t102 -30t106.5 -28.5t101.5 -39t86 -57t59.5 -86t22 -123q0 -165 -127 -260q116 -78 116 -233q0 -166 -117 -258.5t-298 -92.5zM225 502q0 -49 20 -86.5t51 -60t78.5 -41.5t91 -30
t101.5 -27.5t97 -31.5q81 71 81 181q0 52 -20 92t-50 63.5t-77.5 43.5t-89 31t-99.5 26.5t-96 29.5q-88 -81 -88 -190z" />
    <glyph glyph-name="dieresis" unicode="&#xa8;" horiz-adv-x="665" 
d="M176 993q-39 0 -66.5 27.5t-27.5 64.5t27.5 65t66.5 28q38 0 66 -28t28 -65t-28 -64.5t-66 -27.5zM395 1085q0 37 27.5 65t66.5 28q38 0 66.5 -28t28.5 -65t-28.5 -64.5t-66.5 -27.5q-39 0 -66.5 27.5t-27.5 64.5z" />
    <glyph glyph-name="copyright" unicode="&#xa9;" horiz-adv-x="1695" 
d="M848 -72q-148 0 -282 57.5t-230 154t-152.5 229t-56.5 276.5q0 145 56 277t151.5 229.5t230 155t283.5 57.5q150 0 284.5 -57.5t229.5 -155t151 -229.5t56 -277q0 -144 -56 -276.5t-151.5 -229t-230 -154t-283.5 -57.5zM223 645q0 -165 82.5 -307.5t227 -227.5t315.5 -85
t315.5 84.5t227 227t82.5 308.5t-82.5 309t-227 228.5t-315.5 85.5t-315.5 -85.5t-227 -228.5t-82.5 -309zM516 641q0 177 92 282t271 105q103 0 196 -41l-26 -106q-86 37 -168 37q-123 0 -195 -58q-47 -74 -47 -215q0 -132 59 -200t191 -68q101 0 176 37l22 -107
q-78 -41 -198 -41q-185 0 -279 97t-94 278z" />
    <glyph glyph-name="ordfeminine" unicode="&#xaa;" horiz-adv-x="638" 
d="M438 766l-14 51q-56 -65 -168 -65q-81 0 -130.5 40.5t-49.5 118.5q0 85 59.5 128.5t173.5 43.5h115v13q0 125 -129 125q-94 0 -154 -37l-30 78q85 49 202 49q109 0 162 -54.5t53 -166.5v-324h-90zM180 918q0 -82 94 -82q43 0 85 17.5t65 45.5v100h-115q-80 0 -104 -12
q-25 -31 -25 -69z" />
    <glyph glyph-name="guillemotleft" unicode="&#xab;" horiz-adv-x="833" 
d="M274 250l-213 262l213 262h144l-213 -262l213 -262h-144zM358 512l213 262h144l-213 -262l213 -262h-144z" />
    <glyph glyph-name="logicalnot" unicode="&#xac;" horiz-adv-x="1140" 
d="M915 399v379h-804v115h921v-494h-117z" />
    <glyph glyph-name="uni00AD" unicode="&#xad;" horiz-adv-x="604" 
d="M102 475v121h400v-121h-400z" />
    <glyph glyph-name="registered" unicode="&#xae;" horiz-adv-x="1695" 
d="M848 -72q-148 0 -282 57.5t-230 154t-152.5 229t-56.5 276.5q0 145 56 277t151.5 229.5t230 155t283.5 57.5q150 0 284.5 -57.5t229.5 -155t151 -229.5t56 -277q0 -144 -56 -276.5t-151.5 -229t-230 -154t-283.5 -57.5zM223 645q0 -165 82.5 -307.5t227 -227.5t315.5 -85
t315.5 84.5t227 227t82.5 308.5t-82.5 309t-227 228.5t-315.5 85.5t-315.5 -85.5t-227 -228.5t-82.5 -309zM596 276v742h274q121 0 194 -52t73 -163q0 -84 -45.5 -140t-130.5 -73l184 -314h-129l-168 304h-135v-304h-117zM713 682h168q79 0 118 31q21 31 21 86
q0 114 -150 114h-157v-231z" />
    <glyph glyph-name="macron" unicode="&#xaf;" horiz-adv-x="643" 
d="M82 1026v109h479v-109h-479z" />
    <glyph glyph-name="degree" unicode="&#xb0;" horiz-adv-x="804" 
d="M401 723q-130 0 -214.5 85t-84.5 212q0 124 86 209.5t213 85.5q128 0 214.5 -85.5t86.5 -209.5q0 -125 -86.5 -211t-214.5 -86zM211 1020q0 -85 54.5 -140t137.5 -55q78 0 134.5 58.5t56.5 136.5q0 80 -54 137t-137 57q-84 0 -138 -55.5t-54 -138.5z" />
    <glyph glyph-name="plusminus" unicode="&#xb1;" horiz-adv-x="1140" 
d="M512 307v402h-397v116h397v396h117v-396h397v-116h-397v-402h-117zM115 74v112h911v-112h-911z" />
    <glyph glyph-name="uni00B2" unicode="&#xb2;" horiz-adv-x="557" 
d="M63 774v82l187 141q96 72 96 142q0 82 -92 82q-71 0 -148 -52l-32 84q92 62 198 62q88 0 137.5 -45t49.5 -121q0 -61 -29 -109t-94 -96l-111 -80h248v-90h-410z" />
    <glyph glyph-name="uni00B3" unicode="&#xb3;" horiz-adv-x="522" 
d="M236 754q-118 0 -203 53l28 82q88 -47 175 -47q104 0 104 73q0 41 -32.5 62.5t-84.5 21.5h-55v82h55q47 0 79 18.5t32 57.5q0 64 -107 64q-84 0 -155 -41l-29 82q83 49 186 49q102 0 156.5 -35.5t54.5 -104.5q0 -93 -106 -127q60 -14 88.5 -43t28.5 -81q0 -74 -58 -120
t-157 -46z" />
    <glyph glyph-name="acute" unicode="&#xb4;" horiz-adv-x="481" 
d="M82 946l162 279h155l-198 -279h-119z" />
    <glyph glyph-name="uni00B5" unicode="&#xb5;" horiz-adv-x="923" 
d="M102 -385v1159h127v-471q0 -98 45 -156.5t134 -58.5q119 0 204 102v584h127v-606q0 -45 10.5 -62.5t36.5 -17.5q38 0 68 21l29 -95q-47 -39 -117 -39q-116 0 -145 109q-78 -109 -220 -109q-115 0 -172 64v-424h-127z" />
    <glyph glyph-name="paragraph" unicode="&#xb6;" horiz-adv-x="1060" 
d="M465 -178v715q-184 -9 -296 101.5t-112 279.5q0 173 104.5 272.5t299.5 99.5h432v-1468h-115v1366h-198v-1366h-115z" />
    <glyph glyph-name="periodcentered" unicode="&#xb7;" horiz-adv-x="421" 
d="M211 532q-40 0 -67 26.5t-27 66.5q0 41 27 68.5t67 27.5t67 -28t27 -68q0 -39 -27.5 -66t-66.5 -27z" />
    <glyph glyph-name="cedilla" unicode="&#xb8;" horiz-adv-x="485" 
d="M201 -397q-61 0 -119 22l16 80q44 -16 88.5 -18t78.5 20t34 62q0 73 -115 73h-61l45 191h92l-27 -125q73 0 121.5 -32t48.5 -105q0 -84 -59 -126t-143 -42z" />
    <glyph glyph-name="uni00B9" unicode="&#xb9;" horiz-adv-x="505" 
d="M84 774v90h123v314l-117 -52l-27 88l168 76h84v-426h111v-90h-342z" />
    <glyph glyph-name="ordmasculine" unicode="&#xba;" horiz-adv-x="669" 
d="M332 752q-123 0 -191.5 73.5t-68.5 202.5q0 127 71.5 205t192.5 78q125 0 193.5 -74.5t68.5 -204.5q0 -126 -72 -203t-194 -77zM178 1030q0 -75 39.5 -127.5t116.5 -52.5q87 0 129 45q29 53 29 133q0 79 -41 131.5t-119 52.5q-85 0 -119 -43q-35 -58 -35 -139z" />
    <glyph glyph-name="guillemotright" unicode="&#xbb;" horiz-adv-x="833" 
d="M262 250h-143l213 262l-213 262h143l213 -262zM416 250l213 262l-213 262h143l213 -262l-213 -262h-143z" />
    <glyph glyph-name="onequarter" unicode="&#xbc;" horiz-adv-x="1273" 
d="M84 774v90h123v314l-117 -52l-27 88l168 76h84v-426h111v-90h-342zM215 0l674 1290h127l-676 -1290h-125zM750 106v72l127 338h114l-119 -319h158v190h109v-387h-109v106h-280z" />
    <glyph glyph-name="onehalf" unicode="&#xbd;" horiz-adv-x="1261" 
d="M84 774v90h123v314l-117 -52l-27 88l168 76h84v-426h111v-90h-342zM215 0l674 1290h127l-676 -1290h-125zM766 0v82l186 141q97 73 97 142q0 37 -23 59t-70 22q-72 0 -147 -51l-33 84q92 62 199 62q88 0 137 -45t49 -121q0 -61 -29 -109t-94 -96l-110 -80h248v-90h-410z
" />
    <glyph glyph-name="threequarters" unicode="&#xbe;" horiz-adv-x="1290" 
d="M236 754q-118 0 -203 53l28 82q88 -47 175 -47q104 0 104 73q0 41 -32.5 62.5t-84.5 21.5h-55v82h55q47 0 79 18.5t32 57.5q0 64 -107 64q-84 0 -155 -41l-29 82q83 49 186 49q102 0 156.5 -35.5t54.5 -104.5q0 -93 -106 -127q60 -14 88.5 -43t28.5 -81q0 -74 -58 -120
t-157 -46zM231 0l674 1290h127l-676 -1290h-125zM766 106v72l127 338h115l-119 -319h158v190h108v-387h-108v106h-281z" />
    <glyph glyph-name="questiondown" unicode="&#xbf;" horiz-adv-x="841" 
d="M641 436q0 -70 -22 -127.5t-58 -97.5t-78.5 -74.5t-85.5 -67.5t-79 -68.5t-58 -84.5t-22 -109q0 -112 67.5 -172.5t186.5 -60.5q135 0 239 53l35 -108q-114 -60 -274 -60q-383 0 -383 346q0 76 22.5 138t58 102.5t79 75t86.5 66t78.5 64.5t58 80t22.5 105h127zM485 698
q0 38 27.5 66.5t65.5 28.5q39 0 66.5 -28t27.5 -67q0 -40 -27 -67t-67 -27q-38 0 -65.5 28t-27.5 66z" />
    <glyph glyph-name="Agrave" unicode="&#xc0;" horiz-adv-x="1282" 
d="M61 0l496 1290h168l496 -1290h-146l-129 346h-610l-131 -346h-144zM381 465h520l-260 692zM412 1661h153l158 -260h-119z" />
    <glyph glyph-name="Aacute" unicode="&#xc1;" horiz-adv-x="1282" 
d="M61 0l496 1290h168l496 -1290h-146l-129 346h-610l-131 -346h-144zM381 465h520l-260 692zM571 1401l160 260h158l-197 -260h-121z" />
    <glyph glyph-name="Acircumflex" unicode="&#xc2;" horiz-adv-x="1282" 
d="M61 0l496 1290h168l496 -1290h-146l-129 346h-610l-131 -346h-144zM381 465h520l-260 692zM399 1401l174 260h136l174 -260h-123l-119 176l-121 -176h-121z" />
    <glyph glyph-name="Atilde" unicode="&#xc3;" horiz-adv-x="1282" 
d="M61 0l496 1290h168l496 -1290h-146l-129 346h-610l-131 -346h-144zM356 1407q1 99 44.5 152t121.5 53q40 0 76 -18.5t58 -41t49 -41t51 -18.5q68 0 71 106h99q-1 -99 -45.5 -151.5t-120.5 -52.5q-40 0 -76.5 18.5t-59 40.5t-49.5 40.5t-51 18.5q-31 0 -49.5 -27.5
t-19.5 -78.5h-99zM381 465h520l-260 692z" />
    <glyph glyph-name="Adieresis" unicode="&#xc4;" horiz-adv-x="1282" 
d="M61 0l496 1290h168l496 -1290h-146l-129 346h-610l-131 -346h-144zM381 465h520l-260 692zM381 1526q0 41 27.5 67.5t68.5 26.5t68.5 -26.5t27.5 -67.5t-27.5 -67.5t-68.5 -26.5t-68.5 26.5t-27.5 67.5zM709 1526q0 41 26.5 67.5t67.5 26.5q43 0 70.5 -26.5t27.5 -67.5
t-27.5 -67.5t-70.5 -26.5q-41 0 -67.5 26.5t-26.5 67.5z" />
    <glyph glyph-name="Aring" unicode="&#xc5;" horiz-adv-x="1282" 
d="M61 0l496 1290h168l496 -1290h-146l-129 346h-610l-131 -346h-144zM381 465h520l-260 692zM465 1528q0 77 49.5 124.5t124.5 47.5q76 0 126 -47.5t50 -124.5q0 -75 -50 -121.5t-126 -46.5q-75 0 -124.5 46.5t-49.5 121.5zM555 1528q0 -36 23 -60t61 -24q39 0 63.5 24
t24.5 60q0 39 -24.5 63.5t-63.5 24.5q-38 0 -61 -24.5t-23 -63.5z" />
    <glyph glyph-name="AE" unicode="&#xc6;" horiz-adv-x="1744" 
d="M61 0l750 1290h840v-119h-639v-477h561v-119h-561v-456h641v-119h-774v350h-473l-201 -350h-144zM471 465h408v711z" />
    <glyph glyph-name="Ccedilla" unicode="&#xc7;" horiz-adv-x="1189" 
d="M717 -397q-61 0 -119 22l16 80q44 -16 88.5 -18t78.5 20t34 62q0 73 -115 73h-61l33 135q-268 15 -420 177t-152 458q0 164 49 297.5t136 222t206.5 136t260.5 47.5q193 0 364 -88l-37 -113q-161 82 -317 82q-106 0 -210.5 -35t-172.5 -96q-70 -85 -105.5 -204
t-35.5 -247q0 -244 130.5 -382t362.5 -138q103 0 206 27t183 72l33 -103q-155 -105 -389 -115l-14 -67q73 0 121.5 -32t48.5 -105q0 -83 -59 -125.5t-144 -42.5z" />
    <glyph glyph-name="Egrave" unicode="&#xc8;" horiz-adv-x="1034" 
d="M168 0v1290h772v-119h-639v-477h561v-119h-561v-456h641v-119h-774zM328 1661h153l158 -260h-119z" />
    <glyph glyph-name="Eacute" unicode="&#xc9;" horiz-adv-x="1034" 
d="M168 0v1290h772v-119h-639v-477h561v-119h-561v-456h641v-119h-774zM487 1401l160 260h158l-197 -260h-121z" />
    <glyph glyph-name="Ecircumflex" unicode="&#xca;" horiz-adv-x="1034" 
d="M168 0v1290h772v-119h-639v-477h561v-119h-561v-456h641v-119h-774zM315 1401l174 260h136l174 -260h-123l-119 176l-121 -176h-121z" />
    <glyph glyph-name="Edieresis" unicode="&#xcb;" horiz-adv-x="1034" 
d="M168 0v1290h772v-119h-639v-477h561v-119h-561v-456h641v-119h-774zM297 1526q0 41 27.5 67.5t68.5 26.5t68.5 -26.5t27.5 -67.5t-27.5 -67.5t-68.5 -26.5t-68.5 26.5t-27.5 67.5zM625 1526q0 41 26.5 67.5t67.5 26.5q43 0 70.5 -26.5t27.5 -67.5t-27.5 -67.5
t-70.5 -26.5q-41 0 -67.5 26.5t-26.5 67.5z" />
    <glyph glyph-name="Igrave" unicode="&#xcc;" horiz-adv-x="468" 
d="M168 0v1290h133v-1290h-133zM4 1661h154l157 -260h-118z" />
    <glyph glyph-name="Iacute" unicode="&#xcd;" horiz-adv-x="468" 
d="M168 0v1290h133v-1290h-133zM164 1401l160 260h157l-196 -260h-121z" />
    <glyph glyph-name="Icircumflex" unicode="&#xce;" horiz-adv-x="468" 
d="M168 0v1290h133v-1290h-133zM-8 1401l174 260h135l174 -260h-123l-119 176l-120 -176h-121z" />
    <glyph glyph-name="Idieresis" unicode="&#xcf;" horiz-adv-x="468" 
d="M168 0v1290h133v-1290h-133zM-27 1526q0 41 27.5 67.5t69.5 26.5q41 0 68.5 -26.5t27.5 -67.5t-27.5 -67.5t-68.5 -26.5q-42 0 -69.5 26.5t-27.5 67.5zM301 1526q0 41 26.5 67.5t67.5 26.5q43 0 71 -26.5t28 -67.5t-28 -67.5t-71 -26.5q-41 0 -67.5 26.5t-26.5 67.5z" />
    <glyph glyph-name="Eth" unicode="&#xd0;" horiz-adv-x="1404" 
d="M229 0v590h-186v110h186v590h422q654 0 654 -624q0 -326 -178.5 -496t-499.5 -170h-398zM362 119h259q279 0 432 139q54 73 85 179t31 222q0 252 -127.5 382t-377.5 130h-302v-471h330v-110h-330v-471z" />
    <glyph glyph-name="Ntilde" unicode="&#xd1;" horiz-adv-x="1306" 
d="M168 0v1290h188l650 -1118v1118h133v-1290h-189l-649 1120v-1120h-133zM369 1407q1 99 44.5 152t121.5 53q40 0 76 -18.5t57.5 -41t48.5 -41t51 -18.5q69 0 72 106h98q-1 -99 -45.5 -151.5t-120.5 -52.5q-40 0 -76.5 18.5t-58.5 40.5t-49 40.5t-51 18.5q-31 0 -50 -28
t-20 -78h-98z" />
    <glyph glyph-name="Ograve" unicode="&#xd2;" horiz-adv-x="1435" 
d="M707 -25q-124 0 -226 35t-172 95.5t-117.5 144.5t-69.5 180t-22 203q0 151 41.5 276t120 215.5t197 140.5t266.5 50q285 0 447.5 -178t162.5 -484q0 -144 -38.5 -265.5t-113.5 -214.5t-197 -145.5t-279 -52.5zM236 645q0 -110 29.5 -207.5t86.5 -175t149 -123t208 -45.5
q106 0 206 36t158 89q63 71 95 187.5t32 228.5q0 159 -53 284.5t-163 201t-263 75.5q-103 0 -199 -35t-153 -84q-64 -72 -98.5 -193.5t-34.5 -238.5zM489 1661h154l158 -260h-119z" />
    <glyph glyph-name="Oacute" unicode="&#xd3;" horiz-adv-x="1435" 
d="M707 -25q-124 0 -226 35t-172 95.5t-117.5 144.5t-69.5 180t-22 203q0 151 41.5 276t120 215.5t197 140.5t266.5 50q285 0 447.5 -178t162.5 -484q0 -144 -38.5 -265.5t-113.5 -214.5t-197 -145.5t-279 -52.5zM236 645q0 -110 29.5 -207.5t86.5 -175t149 -123t208 -45.5
q106 0 206 36t158 89q63 71 95 187.5t32 228.5q0 159 -53 284.5t-163 201t-263 75.5q-103 0 -199 -35t-153 -84q-64 -72 -98.5 -193.5t-34.5 -238.5zM649 1401l160 260h158l-197 -260h-121z" />
    <glyph glyph-name="Ocircumflex" unicode="&#xd4;" horiz-adv-x="1435" 
d="M707 -25q-124 0 -226 35t-172 95.5t-117.5 144.5t-69.5 180t-22 203q0 151 41.5 276t120 215.5t197 140.5t266.5 50q285 0 447.5 -178t162.5 -484q0 -144 -38.5 -265.5t-113.5 -214.5t-197 -145.5t-279 -52.5zM236 645q0 -110 29.5 -207.5t86.5 -175t149 -123t208 -45.5
q106 0 206 36t158 89q63 71 95 187.5t32 228.5q0 159 -53 284.5t-163 201t-263 75.5q-103 0 -199 -35t-153 -84q-64 -72 -98.5 -193.5t-34.5 -238.5zM477 1401l174 260h135l175 -260h-123l-119 176l-121 -176h-121z" />
    <glyph glyph-name="Otilde" unicode="&#xd5;" horiz-adv-x="1435" 
d="M707 -25q-124 0 -226 35t-172 95.5t-117.5 144.5t-69.5 180t-22 203q0 151 41.5 276t120 215.5t197 140.5t266.5 50q285 0 447.5 -178t162.5 -484q0 -144 -38.5 -265.5t-113.5 -214.5t-197 -145.5t-279 -52.5zM236 645q0 -110 29.5 -207.5t86.5 -175t149 -123t208 -45.5
q106 0 206 36t158 89q63 71 95 187.5t32 228.5q0 159 -53 284.5t-163 201t-263 75.5q-103 0 -199 -35t-153 -84q-64 -72 -98.5 -193.5t-34.5 -238.5zM434 1407q1 99 44.5 152t121.5 53q40 0 76 -18.5t58 -41t49 -41t51 -18.5q68 0 71 106h99q-1 -99 -45.5 -151.5
t-120.5 -52.5q-40 0 -76.5 18.5t-59 40.5t-49.5 40.5t-51 18.5q-31 0 -50 -28t-20 -78h-98z" />
    <glyph glyph-name="Odieresis" unicode="&#xd6;" horiz-adv-x="1435" 
d="M707 -25q-124 0 -226 35t-172 95.5t-117.5 144.5t-69.5 180t-22 203q0 151 41.5 276t120 215.5t197 140.5t266.5 50q285 0 447.5 -178t162.5 -484q0 -144 -38.5 -265.5t-113.5 -214.5t-197 -145.5t-279 -52.5zM236 645q0 -110 29.5 -207.5t86.5 -175t149 -123t208 -45.5
q106 0 206 36t158 89q63 71 95 187.5t32 228.5q0 159 -53 284.5t-163 201t-263 75.5q-103 0 -199 -35t-153 -84q-64 -72 -98.5 -193.5t-34.5 -238.5zM459 1526q0 41 27.5 67.5t68.5 26.5t68.5 -26.5t27.5 -67.5t-27.5 -67.5t-68.5 -26.5t-68.5 26.5t-27.5 67.5zM786 1526
q0 41 27 67.5t68 26.5q43 0 70.5 -26.5t27.5 -67.5t-27.5 -67.5t-70.5 -26.5q-41 0 -68 26.5t-27 67.5z" />
    <glyph glyph-name="multiply" unicode="&#xd7;" horiz-adv-x="1140" 
d="M225 225l-80 80l347 344l-345 342l80 80l344 -342l344 342l80 -80l-344 -342l344 -344l-80 -80l-344 344z" />
    <glyph glyph-name="Oslash" unicode="&#xd8;" horiz-adv-x="1435" 
d="M707 -25q-213 0 -357 101l-59 -76h-148l119 152q-162 180 -162 481q0 151 41.5 276t120 215.5t197 140.5t266.5 50q211 0 358 -101l60 76h149l-118 -153q161 -178 161 -484q0 -144 -38.5 -265.5t-113.5 -214.5t-197 -145.5t-279 -52.5zM236 645q0 -233 114 -379l651 842
q-118 88 -280 88q-103 0 -199 -35t-153 -84q-64 -72 -98.5 -193.5t-34.5 -238.5zM432 182q115 -88 277 -88q106 0 206 36t158 89q63 71 95 187.5t32 228.5q0 238 -115 389z" />
    <glyph glyph-name="Ugrave" unicode="&#xd9;" horiz-adv-x="1257" 
d="M625 -25q-111 0 -195.5 29t-149.5 92.5t-99 172.5t-34 261v760h134v-760q0 -121 23 -206t68.5 -135t107 -72.5t145.5 -22.5q181 0 272 82q80 102 80 354v760h133v-760q0 -555 -485 -555zM399 1661h154l158 -260h-119z" />
    <glyph glyph-name="Uacute" unicode="&#xda;" horiz-adv-x="1257" 
d="M625 -25q-111 0 -195.5 29t-149.5 92.5t-99 172.5t-34 261v760h134v-760q0 -121 23 -206t68.5 -135t107 -72.5t145.5 -22.5q181 0 272 82q80 102 80 354v760h133v-760q0 -555 -485 -555zM559 1401l160 260h158l-197 -260h-121z" />
    <glyph glyph-name="Ucircumflex" unicode="&#xdb;" horiz-adv-x="1257" 
d="M625 -25q-111 0 -195.5 29t-149.5 92.5t-99 172.5t-34 261v760h134v-760q0 -121 23 -206t68.5 -135t107 -72.5t145.5 -22.5q181 0 272 82q80 102 80 354v760h133v-760q0 -555 -485 -555zM387 1401l174 260h135l174 -260h-122l-119 176l-121 -176h-121z" />
    <glyph glyph-name="Udieresis" unicode="&#xdc;" horiz-adv-x="1257" 
d="M625 -25q-111 0 -195.5 29t-149.5 92.5t-99 172.5t-34 261v760h134v-760q0 -121 23 -206t68.5 -135t107 -72.5t145.5 -22.5q181 0 272 82q80 102 80 354v760h133v-760q0 -555 -485 -555zM369 1526q0 41 27.5 67.5t68.5 26.5t68.5 -26.5t27.5 -67.5t-27.5 -67.5
t-68.5 -26.5t-68.5 26.5t-27.5 67.5zM696 1526q0 41 27 67.5t68 26.5q43 0 70.5 -26.5t27.5 -67.5t-27.5 -67.5t-70.5 -26.5q-41 0 -68 26.5t-27 67.5z" />
    <glyph glyph-name="Yacute" unicode="&#xdd;" horiz-adv-x="1282" 
d="M573 0v459l-512 831h152l428 -702l428 702h152l-514 -835v-455h-134zM571 1401l160 260h158l-197 -260h-121z" />
    <glyph glyph-name="Thorn" unicode="&#xde;" horiz-adv-x="1161" 
d="M168 0v1290h133v-205h283q493 0 493 -393q0 -203 -139 -320.5t-363 -117.5h-274v-254h-133zM301 373h289q177 0 276 82q74 80 74 233q0 279 -340 279h-299v-594z" />
    <glyph glyph-name="germandbls" unicode="&#xdf;" horiz-adv-x="983" 
d="M582 -25q-126 0 -220 48l37 112q77 -38 165 -44t157 34q24 26 42.5 88t18.5 137q0 148 -82.5 220.5t-232.5 72.5h-64v113h37q97 0 146.5 15t89.5 50q45 68 45 183q0 114 -59.5 178.5t-161.5 64.5q-120 0 -183 -85t-63 -228v-934h-127v922q0 90 21.5 166t65 137t118 96
t172.5 35q157 0 251.5 -89t94.5 -255q0 -227 -188 -305q249 -63 249 -357q0 -174 -86.5 -274.5t-242.5 -100.5z" />
    <glyph glyph-name="agrave" unicode="&#xe0;" horiz-adv-x="835" 
d="M618 0l-20 82q-43 -51 -112 -79t-144 -28q-126 0 -196 60.5t-70 179.5q0 234 309 234h213v69q0 88 -48 128t-149 40q-62 0 -125 -15t-102 -36l-33 104q58 27 133 43.5t140 16.5q161 0 236 -70.5t75 -222.5v-506h-107zM190 1225h148l158 -279h-113zM203 217q0 -65 40 -98
t113 -33q74 0 141.5 30.5t100.5 76.5v149h-213q-99 0 -145 -14q-37 -40 -37 -111z" />
    <glyph glyph-name="aacute" unicode="&#xe1;" horiz-adv-x="835" 
d="M618 0l-20 82q-43 -51 -112 -79t-144 -28q-126 0 -196 60.5t-70 179.5q0 234 309 234h213v69q0 88 -48 128t-149 40q-62 0 -125 -15t-102 -36l-33 104q58 27 133 43.5t140 16.5q161 0 236 -70.5t75 -222.5v-506h-107zM203 217q0 -65 40 -98t113 -33q74 0 141.5 30.5
t100.5 76.5v149h-213q-99 0 -145 -14q-37 -40 -37 -111zM330 946l162 279h155l-198 -279h-119z" />
    <glyph glyph-name="acircumflex" unicode="&#xe2;" horiz-adv-x="835" 
d="M618 0l-20 82q-43 -51 -112 -79t-144 -28q-126 0 -196 60.5t-70 179.5q0 234 309 234h213v69q0 88 -48 128t-149 40q-62 0 -125 -15t-102 -36l-33 104q58 27 133 43.5t140 16.5q161 0 236 -70.5t75 -222.5v-506h-107zM180 946l174 279h125l174 -279h-118l-117 187
l-119 -187h-119zM203 217q0 -65 40 -98t113 -33q74 0 141.5 30.5t100.5 76.5v149h-213q-99 0 -145 -14q-37 -40 -37 -111z" />
    <glyph glyph-name="atilde" unicode="&#xe3;" horiz-adv-x="835" 
d="M618 0l-20 82q-43 -51 -112 -79t-144 -28q-126 0 -196 60.5t-70 179.5q0 234 309 234h213v69q0 88 -48 128t-149 40q-62 0 -125 -15t-102 -36l-33 104q58 27 133 43.5t140 16.5q161 0 236 -70.5t75 -222.5v-506h-107zM147 967q1 98 40.5 148t113.5 50q38 0 73.5 -17.5
t58 -38.5t49.5 -38.5t50 -17.5q31 0 47.5 26.5t16.5 73.5h94q-1 -98 -41 -148.5t-114 -50.5q-38 0 -74 18t-58.5 39.5t-49 39.5t-48.5 18q-29 0 -46 -27.5t-17 -74.5h-95zM203 217q0 -65 40 -98t113 -33q74 0 141.5 30.5t100.5 76.5v149h-213q-99 0 -145 -14
q-37 -40 -37 -111z" />
    <glyph glyph-name="adieresis" unicode="&#xe4;" horiz-adv-x="835" 
d="M618 0l-20 82q-43 -51 -112 -79t-144 -28q-126 0 -196 60.5t-70 179.5q0 234 309 234h213v69q0 88 -48 128t-149 40q-62 0 -125 -15t-102 -36l-33 104q58 27 133 43.5t140 16.5q161 0 236 -70.5t75 -222.5v-506h-107zM168 1085q0 37 27.5 65t66.5 28q38 0 66 -28t28 -65
t-28 -64.5t-66 -27.5q-39 0 -66.5 27.5t-27.5 64.5zM203 217q0 -65 40 -98t113 -33q74 0 141.5 30.5t100.5 76.5v149h-213q-99 0 -145 -14q-37 -40 -37 -111zM481 1085q0 37 27.5 65t66.5 28q38 0 66.5 -28t28.5 -65t-28.5 -64.5t-66.5 -27.5q-39 0 -66.5 27.5t-27.5 64.5z
" />
    <glyph glyph-name="aring" unicode="&#xe5;" horiz-adv-x="835" 
d="M618 0l-20 82q-43 -51 -112 -79t-144 -28q-126 0 -196 60.5t-70 179.5q0 234 309 234h213v69q0 88 -48 128t-149 40q-62 0 -125 -15t-102 -36l-33 104q58 27 133 43.5t140 16.5q161 0 236 -70.5t75 -222.5v-506h-107zM203 217q0 -65 40 -98t113 -33q74 0 141.5 30.5
t100.5 76.5v149h-213q-99 0 -145 -14q-37 -40 -37 -111zM240 1085q0 78 48.5 126.5t127.5 48.5q83 0 131.5 -48t48.5 -127q0 -77 -49 -124.5t-131 -47.5q-79 0 -127.5 47.5t-48.5 124.5zM326 1085q0 -43 23.5 -67.5t66.5 -24.5q45 0 70.5 24t25.5 68q0 45 -26 71t-70 26
q-42 0 -66 -26t-24 -71z" />
    <glyph glyph-name="ae" unicode="&#xe6;" horiz-adv-x="1384" 
d="M598 518q0 87 -47 127.5t-145 40.5q-66 0 -129.5 -15t-102.5 -36l-33 104q130 60 283 60q201 0 262 -133q97 133 285 133q100 0 172 -35.5t110.5 -99t52.5 -143.5t5 -177h-582q-5 -117 68 -186.5t202 -69.5q119 0 234 68l33 -105q-122 -76 -285 -76q-215 0 -313 146
q-60 -70 -146.5 -107t-181.5 -37q-124 0 -194 61t-70 177q0 236 309 236h213v67zM203 217q0 -131 153 -131q79 0 152.5 33.5t116.5 89.5q-22 62 -25 135h-215q-99 0 -145 -14q-37 -40 -37 -113zM731 455h461q-1 112 -62 171.5t-163 59.5q-111 0 -185 -70q-45 -71 -51 -161z
" />
    <glyph glyph-name="ccedilla" unicode="&#xe7;" horiz-adv-x="761" 
d="M434 -397q-61 0 -119 22l17 80q44 -16 88.5 -18t78 20t33.5 62q0 73 -114 73h-62l33 138q-154 20 -235.5 119.5t-81.5 269.5q0 201 115 315.5t298 114.5q112 0 220 -51l-41 -119q-32 21 -83 39t-104 18q-46 0 -105.5 -17t-97.5 -44q-73 -81 -73 -250q0 -138 72 -212.5
t202 -74.5q129 0 225 57l33 -96q-101 -70 -252 -74l-14 -67q73 0 121.5 -32t48.5 -105q0 -83 -59 -125.5t-144 -42.5z" />
    <glyph glyph-name="egrave" unicode="&#xe8;" horiz-adv-x="856" 
d="M453 -25q-174 0 -277.5 101t-103.5 297q0 191 97.5 308.5t272.5 117.5q100 0 172 -35.5t110.5 -99t52.5 -143.5t5 -177h-581q-5 -117 68 -186.5t202 -69.5q119 0 234 68l32 -105q-122 -76 -284 -76zM203 455h461q-1 111 -62.5 171t-163.5 60q-110 0 -184 -70
q-45 -71 -51 -161zM213 1225h147l158 -279h-112z" />
    <glyph glyph-name="eacute" unicode="&#xe9;" horiz-adv-x="856" 
d="M453 -25q-174 0 -277.5 101t-103.5 297q0 191 97.5 308.5t272.5 117.5q100 0 172 -35.5t110.5 -99t52.5 -143.5t5 -177h-581q-5 -117 68 -186.5t202 -69.5q119 0 234 68l32 -105q-122 -76 -284 -76zM203 455h461q-1 111 -62.5 171t-163.5 60q-110 0 -184 -70
q-45 -71 -51 -161zM352 946l162 279h156l-199 -279h-119z" />
    <glyph glyph-name="ecircumflex" unicode="&#xea;" horiz-adv-x="856" 
d="M453 -25q-174 0 -277.5 101t-103.5 297q0 191 97.5 308.5t272.5 117.5q100 0 172 -35.5t110.5 -99t52.5 -143.5t5 -177h-581q-5 -117 68 -186.5t202 -69.5q119 0 234 68l32 -105q-122 -76 -284 -76zM203 946l174 279h125l174 -279h-119l-117 187l-118 -187h-119zM203 455
h461q-1 111 -62.5 171t-163.5 60q-110 0 -184 -70q-45 -71 -51 -161z" />
    <glyph glyph-name="edieresis" unicode="&#xeb;" horiz-adv-x="856" 
d="M453 -25q-174 0 -277.5 101t-103.5 297q0 191 97.5 308.5t272.5 117.5q100 0 172 -35.5t110.5 -99t52.5 -143.5t5 -177h-581q-5 -117 68 -186.5t202 -69.5q119 0 234 68l32 -105q-122 -76 -284 -76zM190 1085q0 37 28 65t67 28q38 0 66 -28t28 -65t-28 -64.5t-66 -27.5
q-39 0 -67 27.5t-28 64.5zM203 455h461q-1 111 -62.5 171t-163.5 60q-110 0 -184 -70q-45 -71 -51 -161zM504 1085q0 37 27.5 65t66.5 28q38 0 66 -28t28 -65t-28 -64.5t-66 -27.5q-39 0 -66.5 27.5t-27.5 64.5z" />
    <glyph glyph-name="igrave" unicode="&#xec;" horiz-adv-x="382" 
d="M127 0v774h127v-774h-127zM-35 1225h148l157 -279h-112z" />
    <glyph glyph-name="iacute" unicode="&#xed;" horiz-adv-x="382" 
d="M127 0v774h127v-774h-127zM104 946l162 279h156l-199 -279h-119z" />
    <glyph glyph-name="icircumflex" unicode="&#xee;" horiz-adv-x="382" 
d="M127 0v774h127v-774h-127zM-43 946l174 279h125l174 -279h-119l-116 187l-119 -187h-119z" />
    <glyph glyph-name="idieresis" unicode="&#xef;" horiz-adv-x="382" 
d="M127 0v774h127v-774h-127zM-33 1085q0 39 27.5 66t66.5 27q40 0 67.5 -27.5t27.5 -65.5t-27.5 -65t-67.5 -27t-67 27t-27 65zM231 1085q0 38 27.5 65.5t67.5 27.5t67 -27t27 -66q0 -38 -27 -65t-67 -27t-67.5 27t-27.5 65z" />
    <glyph glyph-name="eth" unicode="&#xf0;" horiz-adv-x="884" 
d="M442 -25q-181 0 -275.5 106.5t-94.5 289.5q0 197 106.5 312.5t282.5 115.5q105 0 178 -39q-52 149 -190 272l-173 -149h-143l242 211q-79 59 -273 180l99 74q144 -86 262 -177l182 160h146l-254 -221q154 -137 215 -287t61 -366q0 -247 -90 -364.5t-281 -117.5zM201 381
q0 -125 60.5 -208t187.5 -83q135 0 185 86.5t50 274.5q0 99 -12 178q-105 57 -221 57q-131 0 -191 -63q-59 -92 -59 -242z" />
    <glyph glyph-name="ntilde" unicode="&#xf1;" horiz-adv-x="897" 
d="M657 467q0 217 -168 217q-70 0 -131 -36.5t-104 -94.5v-553h-127v774h106l21 -102q96 125 258 125q137 0 204.5 -81t67.5 -227v-489h-127v467zM180 967q1 98 40.5 148t113.5 50q38 0 73.5 -17.5t58 -38.5t49.5 -38.5t50 -17.5q31 0 47.5 26.5t16.5 73.5h94
q-1 -98 -41.5 -148.5t-114.5 -50.5q-38 0 -74 18t-58.5 39.5t-48.5 39.5t-48 18q-29 0 -46.5 -27.5t-17.5 -74.5h-94z" />
    <glyph glyph-name="ograve" unicode="&#xf2;" horiz-adv-x="903" 
d="M451 -25q-186 0 -282.5 109t-96.5 303q0 183 102.5 297.5t276.5 114.5q185 0 282.5 -108.5t97.5 -303.5q0 -184 -102 -298t-278 -114zM201 387q0 -127 63.5 -212t186.5 -85q52 0 102.5 14.5t81.5 38.5q67 77 67 244q0 125 -65.5 212t-185.5 87q-52 0 -100.5 -14.5
t-78.5 -38.5q-71 -78 -71 -246zM225 1225h148l157 -279h-112z" />
    <glyph glyph-name="oacute" unicode="&#xf3;" horiz-adv-x="903" 
d="M451 -25q-186 0 -282.5 109t-96.5 303q0 183 102.5 297.5t276.5 114.5q185 0 282.5 -108.5t97.5 -303.5q0 -184 -102 -298t-278 -114zM201 387q0 -127 63.5 -212t186.5 -85q52 0 102.5 14.5t81.5 38.5q67 77 67 244q0 125 -65.5 212t-185.5 87q-52 0 -100.5 -14.5
t-78.5 -38.5q-71 -78 -71 -246zM365 946l161 279h156l-199 -279h-118z" />
    <glyph glyph-name="ocircumflex" unicode="&#xf4;" horiz-adv-x="903" 
d="M451 -25q-186 0 -282.5 109t-96.5 303q0 183 102.5 297.5t276.5 114.5q185 0 282.5 -108.5t97.5 -303.5q0 -184 -102 -298t-278 -114zM201 387q0 -127 63.5 -212t186.5 -85q52 0 102.5 14.5t81.5 38.5q67 77 67 244q0 125 -65.5 212t-185.5 87q-52 0 -100.5 -14.5
t-78.5 -38.5q-71 -78 -71 -246zM215 946l174 279h125l174 -279h-119l-116 187l-119 -187h-119z" />
    <glyph glyph-name="otilde" unicode="&#xf5;" horiz-adv-x="903" 
d="M451 -25q-186 0 -282.5 109t-96.5 303q0 183 102.5 297.5t276.5 114.5q185 0 282.5 -108.5t97.5 -303.5q0 -184 -102 -298t-278 -114zM182 967q1 98 40.5 148t113.5 50q38 0 73.5 -17.5t58 -38.5t49.5 -38.5t50 -17.5q31 0 47.5 26.5t16.5 73.5h94q-1 -98 -41.5 -148.5
t-114.5 -50.5q-38 0 -74 18t-58.5 39.5t-48.5 39.5t-48 18q-29 0 -46.5 -27.5t-17.5 -74.5h-94zM201 387q0 -127 63.5 -212t186.5 -85q52 0 102.5 14.5t81.5 38.5q67 77 67 244q0 125 -65.5 212t-185.5 87q-52 0 -100.5 -14.5t-78.5 -38.5q-71 -78 -71 -246z" />
    <glyph glyph-name="odieresis" unicode="&#xf6;" horiz-adv-x="903" 
d="M451 -25q-186 0 -282.5 109t-96.5 303q0 183 102.5 297.5t276.5 114.5q185 0 282.5 -108.5t97.5 -303.5q0 -184 -102 -298t-278 -114zM201 387q0 -127 63.5 -212t186.5 -85q52 0 102.5 14.5t81.5 38.5q67 77 67 244q0 125 -65.5 212t-185.5 87q-52 0 -100.5 -14.5
t-78.5 -38.5q-71 -78 -71 -246zM203 1085q0 37 27.5 65t66.5 28q38 0 66 -28t28 -65t-28 -64.5t-66 -27.5q-39 0 -66.5 27.5t-27.5 64.5zM516 1085q0 37 27.5 65t66.5 28q38 0 66.5 -28t28.5 -65t-28.5 -64.5t-66.5 -27.5q-39 0 -66.5 27.5t-27.5 64.5z" />
    <glyph glyph-name="divide" unicode="&#xf7;" horiz-adv-x="1140" 
d="M115 592v110h911v-110h-911zM479 260q0 38 27 65t67 27q38 0 65.5 -27t27.5 -65q0 -39 -27 -66.5t-66 -27.5t-66.5 27.5t-27.5 66.5zM479 1036q0 38 27 65t67 27q39 0 66 -27t27 -65t-27.5 -65t-65.5 -27q-40 0 -67 27t-27 65z" />
    <glyph glyph-name="oslash" unicode="&#xf8;" horiz-adv-x="903" 
d="M451 -25q-140 0 -232 64l-33 -39h-127l91 106q-78 107 -78 281q0 183 102.5 297.5t276.5 114.5q141 0 235 -66l35 41h127l-94 -108q77 -106 77 -279q0 -184 -102 -298t-278 -114zM201 387q0 -102 39 -176l362 424q-60 51 -151 51q-52 0 -100.5 -14.5t-78.5 -38.5
q-71 -78 -71 -246zM303 137q56 -47 148 -47q52 0 102.5 14.5t81.5 38.5q67 77 67 244q0 101 -38 170z" />
    <glyph glyph-name="ugrave" unicode="&#xf9;" horiz-adv-x="894" 
d="M383 -23q-132 0 -201 81.5t-69 224.5v491h125v-471q0 -97 42 -154t130 -57q67 0 127 33.5t104 87.5v561h127v-774h-104l-21 96q-96 -119 -260 -119zM217 1225h148l157 -279h-112z" />
    <glyph glyph-name="uacute" unicode="&#xfa;" horiz-adv-x="894" 
d="M383 -23q-132 0 -201 81.5t-69 224.5v491h125v-471q0 -97 42 -154t130 -57q67 0 127 33.5t104 87.5v561h127v-774h-104l-21 96q-96 -119 -260 -119zM356 946l162 279h156l-199 -279h-119z" />
    <glyph glyph-name="ucircumflex" unicode="&#xfb;" horiz-adv-x="894" 
d="M383 -23q-132 0 -201 81.5t-69 224.5v491h125v-471q0 -97 42 -154t130 -57q67 0 127 33.5t104 87.5v561h127v-774h-104l-21 96q-96 -119 -260 -119zM209 946l174 279h125l174 -279h-119l-117 187l-118 -187h-119z" />
    <glyph glyph-name="udieresis" unicode="&#xfc;" horiz-adv-x="894" 
d="M383 -23q-132 0 -201 81.5t-69 224.5v491h125v-471q0 -97 42 -154t130 -57q67 0 127 33.5t104 87.5v561h127v-774h-104l-21 96q-96 -119 -260 -119zM197 1085q0 37 27.5 65t66.5 28q38 0 66 -28t28 -65t-28 -64.5t-66 -27.5q-39 0 -66.5 27.5t-27.5 64.5zM510 1085
q0 37 27.5 65t66.5 28q38 0 66 -28t28 -65t-28 -64.5t-66 -27.5q-39 0 -66.5 27.5t-27.5 64.5z" />
    <glyph glyph-name="yacute" unicode="&#xfd;" horiz-adv-x="894" 
d="M393 -410q-152 0 -278 74l39 117q112 -76 243 -76q124 0 191 57q34 52 43.5 119t9.5 221v13q-101 -119 -258 -119q-134 0 -202 80.5t-68 224.5v473h125v-455q0 -105 45 -159t125 -54q72 0 133 35.5t100 87.5v545h127v-754q0 -79 -13.5 -144t-35.5 -109t-54 -77t-64 -51.5
t-71 -30t-70.5 -15t-66.5 -3.5zM356 946l162 279h156l-199 -279h-119z" />
    <glyph glyph-name="thorn" unicode="&#xfe;" horiz-adv-x="911" 
d="M127 -385v1716h127v-647q99 111 244 111q165 0 253.5 -108.5t88.5 -287.5q0 -198 -105.5 -310t-285.5 -112q-114 0 -195 37v-399h-127zM254 139q70 -51 190 -51q123 0 201 62q31 40 48.5 107t17.5 138q0 133 -61.5 211t-176.5 78q-61 0 -117.5 -33.5t-101.5 -89.5v-422z
" />
    <glyph glyph-name="ydieresis" unicode="&#xff;" horiz-adv-x="894" 
d="M393 -410q-152 0 -278 74l39 117q112 -76 243 -76q124 0 191 57q34 52 43.5 119t9.5 221v13q-101 -119 -258 -119q-134 0 -202 80.5t-68 224.5v473h125v-455q0 -105 45 -159t125 -54q72 0 133 35.5t100 87.5v545h127v-754q0 -79 -13.5 -144t-35.5 -109t-54 -77t-64 -51.5
t-71 -30t-70.5 -15t-66.5 -3.5zM197 1085q0 37 27.5 65t66.5 28q38 0 66 -28t28 -65t-28 -64.5t-66 -27.5q-39 0 -66.5 27.5t-27.5 64.5zM510 1085q0 37 27.5 65t66.5 28q38 0 66 -28t28 -65t-28 -64.5t-66 -27.5q-39 0 -66.5 27.5t-27.5 64.5z" />
    <glyph glyph-name="Amacron" unicode="&#x100;" horiz-adv-x="1282" 
d="M61 0l496 1290h168l496 -1290h-146l-129 346h-610l-131 -346h-144zM381 465h520l-260 692zM393 1460v109h496v-109h-496z" />
    <glyph glyph-name="amacron" unicode="&#x101;" horiz-adv-x="835" 
d="M618 0l-20 82q-43 -51 -112 -79t-144 -28q-126 0 -196 60.5t-70 179.5q0 234 309 234h213v69q0 88 -48 128t-149 40q-62 0 -125 -15t-102 -36l-33 104q58 27 133 43.5t140 16.5q161 0 236 -70.5t75 -222.5v-506h-107zM178 1026v109h479v-109h-479zM203 217q0 -65 40 -98
t113 -33q74 0 141.5 30.5t100.5 76.5v149h-213q-99 0 -145 -14q-37 -40 -37 -111z" />
    <glyph glyph-name="Abreve" unicode="&#x102;" horiz-adv-x="1282" 
d="M61 0l496 1290h168l496 -1290h-146l-129 346h-610l-131 -346h-144zM381 465h520l-260 692zM381 1645l104 14q20 -162 154 -162q136 0 156 162l104 -14q-14 -120 -79.5 -186t-180.5 -66q-111 0 -177.5 66.5t-80.5 185.5z" />
    <glyph glyph-name="abreve" unicode="&#x103;" horiz-adv-x="835" 
d="M618 0l-20 82q-43 -51 -112 -79t-144 -28q-126 0 -196 60.5t-70 179.5q0 234 309 234h213v69q0 88 -48 128t-149 40q-62 0 -125 -15t-102 -36l-33 104q58 27 133 43.5t140 16.5q161 0 236 -70.5t75 -222.5v-506h-107zM156 1196l102 12q20 -166 158 -166q69 0 108 40
t49 126l105 -12q-15 -123 -81 -189.5t-181 -66.5q-112 0 -178.5 67t-81.5 189zM203 217q0 -65 40 -98t113 -33q74 0 141.5 30.5t100.5 76.5v149h-213q-99 0 -145 -14q-37 -40 -37 -111z" />
    <glyph glyph-name="Aogonek" unicode="&#x104;" horiz-adv-x="1282" 
d="M61 0l496 1290h168l496 -1290h-58q-188 -104 -188 -221q0 -40 23.5 -60t60.5 -20q42 0 78 18l24 -90q-59 -24 -119 -24q-79 0 -129.5 41.5t-50.5 117.5q0 78 58.5 145.5t146.5 115.5l-121 323h-610l-131 -346h-144zM381 465h520l-260 692z" />
    <glyph glyph-name="aogonek" unicode="&#x105;" horiz-adv-x="835" 
d="M342 -25q-126 0 -196 60.5t-70 179.5q0 234 309 234h213v69q0 88 -48 128t-149 40q-62 0 -125 -15t-102 -36l-33 104q58 27 133 43.5t140 16.5q161 0 236 -70.5t75 -222.5v-506q-188 -104 -188 -221q0 -40 23.5 -60t60.5 -20q41 0 77 18l25 -90q-59 -24 -119 -24
q-79 0 -129.5 41.5t-50.5 117.5q0 74 53.5 139.5t136.5 112.5l-16 68q-43 -51 -112 -79t-144 -28zM203 217q0 -65 40 -98t113 -33q74 0 141.5 30.5t100.5 76.5v149h-213q-99 0 -145 -14q-37 -40 -37 -111z" />
    <glyph glyph-name="Cacute" unicode="&#x106;" horiz-adv-x="1189" 
d="M727 -25q-291 0 -459 163t-168 474q0 164 49 297.5t136 222t206.5 136t260.5 47.5q193 0 364 -88l-37 -113q-161 82 -317 82q-106 0 -210.5 -35t-172.5 -96q-70 -85 -105.5 -204t-35.5 -247q0 -244 130.5 -382t362.5 -138q103 0 206 27t183 72l33 -103
q-171 -115 -426 -115zM653 1401l160 260h158l-197 -260h-121z" />
    <glyph glyph-name="cacute" unicode="&#x107;" horiz-adv-x="761" 
d="M469 -25q-192 0 -294.5 101t-102.5 293q0 201 115 315.5t298 114.5q112 0 220 -51l-41 -119q-32 21 -83 39t-104 18q-46 0 -105.5 -17t-97.5 -44q-73 -81 -73 -250q0 -138 72 -212.5t202 -74.5q129 0 225 57l33 -96q-107 -74 -264 -74zM365 946l161 279h156l-199 -279
h-118z" />
    <glyph glyph-name="Ccircumflex" unicode="&#x108;" horiz-adv-x="1189" 
d="M727 -25q-291 0 -459 163t-168 474q0 164 49 297.5t136 222t206.5 136t260.5 47.5q193 0 364 -88l-37 -113q-161 82 -317 82q-106 0 -210.5 -35t-172.5 -96q-70 -85 -105.5 -204t-35.5 -247q0 -244 130.5 -382t362.5 -138q103 0 206 27t183 72l33 -103
q-171 -115 -426 -115zM481 1401l174 260h136l174 -260h-123l-119 176l-121 -176h-121z" />
    <glyph glyph-name="ccircumflex" unicode="&#x109;" horiz-adv-x="761" 
d="M469 -25q-192 0 -294.5 101t-102.5 293q0 201 115 315.5t298 114.5q112 0 220 -51l-41 -119q-32 21 -83 39t-104 18q-46 0 -105.5 -17t-97.5 -44q-73 -81 -73 -250q0 -138 72 -212.5t202 -74.5q129 0 225 57l33 -96q-107 -74 -264 -74zM217 946l174 279h125l174 -279
h-119l-116 187l-119 -187h-119z" />
    <glyph glyph-name="Cdotaccent" unicode="&#x10a;" horiz-adv-x="1189" 
d="M727 -25q-291 0 -459 163t-168 474q0 164 49 297.5t136 222t206.5 136t260.5 47.5q193 0 364 -88l-37 -113q-161 82 -317 82q-106 0 -210.5 -35t-172.5 -96q-70 -85 -105.5 -204t-35.5 -247q0 -244 130.5 -382t362.5 -138q103 0 206 27t183 72l33 -103
q-171 -115 -426 -115zM625 1528q0 43 27.5 70.5t70.5 27.5t70.5 -27.5t27.5 -70.5q0 -41 -27.5 -68.5t-70.5 -27.5t-70.5 27.5t-27.5 68.5z" />
    <glyph glyph-name="cdotaccent" unicode="&#x10b;" horiz-adv-x="761" 
d="M469 -25q-192 0 -294.5 101t-102.5 293q0 201 115 315.5t298 114.5q112 0 220 -51l-41 -119q-32 21 -83 39t-104 18q-46 0 -105.5 -17t-97.5 -44q-73 -81 -73 -250q0 -138 72 -212.5t202 -74.5q129 0 225 57l33 -96q-107 -74 -264 -74zM360 1085q0 39 27 66t66 27
t66.5 -27t27.5 -66q0 -38 -27 -65t-67 -27q-39 0 -66 26.5t-27 65.5z" />
    <glyph glyph-name="Ccaron" unicode="&#x10c;" horiz-adv-x="1189" 
d="M727 -25q-291 0 -459 163t-168 474q0 164 49 297.5t136 222t206.5 136t260.5 47.5q193 0 364 -88l-37 -113q-161 82 -317 82q-106 0 -210.5 -35t-172.5 -96q-70 -85 -105.5 -204t-35.5 -247q0 -244 130.5 -382t362.5 -138q103 0 206 27t183 72l33 -103
q-171 -115 -426 -115zM481 1661h121l121 -176l119 176h123l-174 -260h-136z" />
    <glyph glyph-name="ccaron" unicode="&#x10d;" horiz-adv-x="761" 
d="M469 -25q-192 0 -294.5 101t-102.5 293q0 201 115 315.5t298 114.5q112 0 220 -51l-41 -119q-32 21 -83 39t-104 18q-46 0 -105.5 -17t-97.5 -44q-73 -81 -73 -250q0 -138 72 -212.5t202 -74.5q129 0 225 57l33 -96q-107 -74 -264 -74zM217 1225h119l119 -187l116 187
h119l-174 -279h-125z" />
    <glyph glyph-name="Dcaron" unicode="&#x10e;" horiz-adv-x="1343" 
d="M168 0v1290h422q653 0 653 -624q0 -326 -178.5 -496t-499.5 -170h-397zM301 119h258q279 0 432 139q54 74 85.5 179.5t31.5 221.5q0 252 -128 382t-378 130h-301v-1052zM350 1661h121l121 -176l119 176h123l-175 -260h-135z" />
    <glyph glyph-name="dcaron" unicode="&#x10f;" horiz-adv-x="909" 
d="M406 -23q-161 0 -247.5 109t-86.5 289q0 199 108.5 311.5t294.5 112.5q103 0 180 -39v571h127v-1331h-104l-25 90q-91 -113 -247 -113zM201 379q0 -133 61 -210t174 -77q129 0 219 117v426q-66 51 -180 51q-58 0 -115.5 -16t-95.5 -43q-63 -84 -63 -248zM862 946l21 385
h127l-62 -385h-86z" />
    <glyph glyph-name="Dcroat" unicode="&#x110;" horiz-adv-x="1445" 
d="M270 0v590h-186v110h186v590h422q654 0 654 -624q0 -326 -178.5 -496t-499.5 -170h-398zM403 119h259q279 0 432 139q54 73 85 179t31 222q0 252 -127.5 382t-377.5 130h-302v-471h330v-110h-330v-471z" />
    <glyph glyph-name="dcroat" unicode="&#x111;" horiz-adv-x="909" 
d="M406 -23q-161 0 -247.5 109t-86.5 289q0 199 108.5 311.5t294.5 112.5q103 0 180 -39v276h-247v107h247v188h127v-188h127v-107h-127v-1036h-104l-25 90q-91 -113 -247 -113zM201 379q0 -133 61 -210t174 -77q129 0 219 117v426q-66 51 -180 51q-58 0 -115.5 -16
t-95.5 -43q-63 -84 -63 -248z" />
    <glyph glyph-name="Emacron" unicode="&#x112;" horiz-adv-x="1034" 
d="M168 0v1290h772v-119h-639v-477h561v-119h-561v-456h641v-119h-774zM309 1460v109h496v-109h-496z" />
    <glyph glyph-name="emacron" unicode="&#x113;" horiz-adv-x="856" 
d="M453 -25q-174 0 -277.5 101t-103.5 297q0 191 97.5 308.5t272.5 117.5q100 0 172 -35.5t110.5 -99t52.5 -143.5t5 -177h-581q-5 -117 68 -186.5t202 -69.5q119 0 234 68l32 -105q-122 -76 -284 -76zM201 1026v109h479v-109h-479zM203 455h461q-1 111 -62.5 171t-163.5 60
q-110 0 -184 -70q-45 -71 -51 -161z" />
    <glyph glyph-name="Edotaccent" unicode="&#x116;" horiz-adv-x="1034" 
d="M168 0v1290h772v-119h-639v-477h561v-119h-561v-456h641v-119h-774zM459 1528q0 43 27.5 70.5t70.5 27.5t70.5 -27.5t27.5 -70.5q0 -41 -27.5 -68.5t-70.5 -27.5t-70.5 27.5t-27.5 68.5z" />
    <glyph glyph-name="edotaccent" unicode="&#x117;" horiz-adv-x="856" 
d="M453 -25q-174 0 -277.5 101t-103.5 297q0 191 97.5 308.5t272.5 117.5q100 0 172 -35.5t110.5 -99t52.5 -143.5t5 -177h-581q-5 -117 68 -186.5t202 -69.5q119 0 234 68l32 -105q-122 -76 -284 -76zM203 455h461q-1 111 -62.5 171t-163.5 60q-110 0 -184 -70
q-45 -71 -51 -161zM348 1085q0 39 26.5 66t65.5 27q40 0 67.5 -27.5t27.5 -65.5t-27.5 -65t-67.5 -27q-39 0 -65.5 26.5t-26.5 65.5z" />
    <glyph glyph-name="Eogonek" unicode="&#x118;" horiz-adv-x="1034" 
d="M168 0v1290h772v-119h-639v-477h561v-119h-561v-456h641v-119q-188 -104 -188 -221q0 -40 23.5 -60t60.5 -20q41 0 77 18l25 -90q-58 -24 -119 -24q-79 0 -129.5 41.5t-50.5 117.5q0 69 46 130t120 108h-639z" />
    <glyph glyph-name="eogonek" unicode="&#x119;" horiz-adv-x="856" 
d="M453 -25q-174 0 -277.5 101t-103.5 297q0 191 97.5 308.5t272.5 117.5q100 0 172 -35.5t110.5 -99t52.5 -143.5t5 -177h-581q-5 -117 68 -186.5t202 -69.5q119 0 234 68l32 -105l-20 -12q-16 -9 -50.5 -27t-55.5 -29.5t-51.5 -30.5t-49.5 -36t-37.5 -38.5t-27.5 -46.5
t-9 -52q0 -41 23 -60.5t61 -19.5q42 0 78 18l25 -90q-58 -24 -121 -24q-78 0 -128 42t-50 117q0 115 139 213h-10zM203 455h461q-1 111 -62.5 171t-163.5 60q-110 0 -184 -70q-45 -71 -51 -161z" />
    <glyph glyph-name="Ecaron" unicode="&#x11a;" horiz-adv-x="1034" 
d="M168 0v1290h772v-119h-639v-477h561v-119h-561v-456h641v-119h-774zM315 1661h121l121 -176l119 176h123l-174 -260h-136z" />
    <glyph glyph-name="ecaron" unicode="&#x11b;" horiz-adv-x="856" 
d="M453 -25q-174 0 -277.5 101t-103.5 297q0 191 97.5 308.5t272.5 117.5q100 0 172 -35.5t110.5 -99t52.5 -143.5t5 -177h-581q-5 -117 68 -186.5t202 -69.5q119 0 234 68l32 -105q-122 -76 -284 -76zM203 1225h119l118 -187l117 187h119l-174 -279h-125zM203 455h461
q-1 111 -62.5 171t-163.5 60q-110 0 -184 -70q-45 -71 -51 -161z" />
    <glyph glyph-name="Gcircumflex" unicode="&#x11c;" horiz-adv-x="1296" 
d="M723 -25q-299 0 -461 161t-162 470q0 168 49.5 303t138 223.5t209.5 135.5t265 47q190 0 366 -84l-34 -115q-184 80 -336 80q-109 0 -217 -36.5t-174 -96.5q-61 -83 -96 -201t-35 -248q0 -247 125 -383.5t366 -136.5q156 0 307 51v430h-315v119h446v-604
q-175 -115 -442 -115zM498 1401l174 260h135l174 -260h-123l-119 176l-121 -176h-120z" />
    <glyph glyph-name="gcircumflex" unicode="&#x11d;" horiz-adv-x="907" 
d="M410 -410q-151 0 -277 74l41 119q107 -80 242 -80q113 0 186 57q42 48 55 116t13 167v61q-42 -50 -109.5 -78t-148.5 -28q-160 0 -250 102t-90 287q0 193 102.5 302.5t276.5 109.5q172 0 259 -101.5t87 -291.5v-373q0 -233 -103.5 -338t-283.5 -105zM201 397
q0 -134 60 -211t167 -77q72 0 137.5 30.5t104.5 83.5v189q0 138 -61.5 206t-157.5 68q-104 0 -177 -55q-73 -81 -73 -234zM217 946l174 279h125l174 -279h-119l-116 187l-119 -187h-119z" />
    <glyph glyph-name="Gbreve" unicode="&#x11e;" horiz-adv-x="1296" 
d="M723 -25q-299 0 -461 161t-162 470q0 168 49.5 303t138 223.5t209.5 135.5t265 47q190 0 366 -84l-34 -115q-184 80 -336 80q-109 0 -217 -36.5t-174 -96.5q-61 -83 -96 -201t-35 -248q0 -247 125 -383.5t366 -136.5q156 0 307 51v430h-315v119h446v-604
q-175 -115 -442 -115zM479 1645l105 14q20 -162 153 -162q136 0 156 162l104 -14q-14 -120 -79.5 -186t-180.5 -66q-111 0 -177.5 66.5t-80.5 185.5z" />
    <glyph glyph-name="gbreve" unicode="&#x11f;" horiz-adv-x="907" 
d="M410 -410q-151 0 -277 74l41 119q107 -80 242 -80q113 0 186 57q42 48 55 116t13 167v61q-42 -50 -109.5 -78t-148.5 -28q-160 0 -250 102t-90 287q0 193 102.5 302.5t276.5 109.5q172 0 259 -101.5t87 -291.5v-373q0 -233 -103.5 -338t-283.5 -105zM193 1196l102 12
q20 -166 158 -166q69 0 108 40t49 126l105 -12q-15 -123 -81 -189.5t-181 -66.5q-112 0 -178.5 67t-81.5 189zM201 397q0 -134 60 -211t167 -77q72 0 137.5 30.5t104.5 83.5v189q0 138 -61.5 206t-157.5 68q-104 0 -177 -55q-73 -81 -73 -234z" />
    <glyph glyph-name="Gdotaccent" unicode="&#x120;" horiz-adv-x="1296" 
d="M723 -25q-299 0 -461 161t-162 470q0 168 49.5 303t138 223.5t209.5 135.5t265 47q190 0 366 -84l-34 -115q-184 80 -336 80q-109 0 -217 -36.5t-174 -96.5q-61 -83 -96 -201t-35 -248q0 -247 125 -383.5t366 -136.5q156 0 307 51v430h-315v119h446v-604
q-175 -115 -442 -115zM641 1528q0 43 27.5 70.5t70.5 27.5t71 -27.5t28 -70.5q0 -41 -28 -68.5t-71 -27.5t-70.5 27.5t-27.5 68.5z" />
    <glyph glyph-name="gdotaccent" unicode="&#x121;" horiz-adv-x="907" 
d="M410 -410q-151 0 -277 74l41 119q107 -80 242 -80q113 0 186 57q42 48 55 116t13 167v61q-42 -50 -109.5 -78t-148.5 -28q-160 0 -250 102t-90 287q0 193 102.5 302.5t276.5 109.5q172 0 259 -101.5t87 -291.5v-373q0 -233 -103.5 -338t-283.5 -105zM201 397
q0 -134 60 -211t167 -77q72 0 137.5 30.5t104.5 83.5v189q0 138 -61.5 206t-157.5 68q-104 0 -177 -55q-73 -81 -73 -234zM360 1085q0 39 27 66t66 27t66.5 -27t27.5 -66q0 -38 -27 -65t-67 -27q-39 0 -66 26.5t-27 65.5z" />
    <glyph glyph-name="uni0122" unicode="&#x122;" horiz-adv-x="1296" 
d="M723 -25q-299 0 -461 161t-162 470q0 168 49.5 303t138 223.5t209.5 135.5t265 47q190 0 366 -84l-34 -115q-184 80 -336 80q-109 0 -217 -36.5t-174 -96.5q-61 -83 -96 -201t-35 -248q0 -247 125 -383.5t366 -136.5q156 0 307 51v430h-315v119h446v-604
q-175 -115 -442 -115zM631 -199q0 37 25.5 58.5t68.5 21.5q52 0 78 -28.5t26 -77.5q0 -69 -41 -133t-102 -101l-43 49q72 57 72 93q0 17 -13 29.5t-29 20t-29 25t-13 43.5z" />
    <glyph glyph-name="uni0123" unicode="&#x123;" horiz-adv-x="907" 
d="M410 -410q-151 0 -277 74l41 119q107 -80 242 -80q113 0 186 57q42 48 55 116t13 167v61q-42 -50 -109.5 -78t-148.5 -28q-160 0 -250 102t-90 287q0 193 102.5 302.5t276.5 109.5q172 0 259 -101.5t87 -291.5v-373q0 -233 -103.5 -338t-283.5 -105zM201 397
q0 -134 60 -211t167 -77q72 0 137.5 30.5t104.5 83.5v189q0 138 -61.5 206t-157.5 68q-104 0 -177 -55q-73 -81 -73 -234zM348 1008q0 70 40 133t101 100l46 -49q-72 -57 -72 -92q0 -17 13 -29.5t29 -20.5t29 -25.5t13 -43.5q0 -37 -25.5 -58.5t-68.5 -21.5q-53 0 -79 30
t-26 77z" />
    <glyph glyph-name="Hcircumflex" unicode="&#x124;" horiz-adv-x="1284" 
d="M983 0v575h-682v-575h-133v1290h133v-596h682v596h133v-1290h-133zM399 1401l174 260h136l174 -260h-123l-119 176l-121 -176h-121z" />
    <glyph glyph-name="hcircumflex" unicode="&#x125;" horiz-adv-x="897" 
d="M657 467q0 217 -172 217q-67 0 -127.5 -36.5t-103.5 -94.5v-553h-127v1331h127v-659q96 125 258 125q137 0 204.5 -81t67.5 -227v-489h-127v467zM209 1401l174 260h135l174 -260h-123l-118 176l-121 -176h-121z" />
    <glyph glyph-name="Hbar" unicode="&#x126;" horiz-adv-x="1325" 
d="M1004 0v575h-682v-575h-134v965h-112v110h112v215h134v-215h682v215h133v-215h114v-110h-114v-965h-133zM322 694h682v271h-682v-271z" />
    <glyph glyph-name="hbar" unicode="&#x127;" horiz-adv-x="897" 
d="M657 467q0 217 -172 217q-67 0 -127.5 -36.5t-103.5 -94.5v-553h-127v1036h-125v107h125v188h127v-188h250v-107h-250v-364q96 125 258 125q137 0 204.5 -81t67.5 -227v-489h-127v467z" />
    <glyph glyph-name="Itilde" unicode="&#x128;" horiz-adv-x="468" 
d="M168 0v1290h133v-1290h-133zM-51 1407q1 99 44.5 152t121.5 53q40 0 76 -18.5t57.5 -41t48.5 -41t51 -18.5q69 0 72 106h98q-1 -99 -45.5 -151.5t-120.5 -52.5q-40 0 -76.5 18.5t-58.5 40.5t-49 40.5t-51 18.5q-31 0 -50 -28t-20 -78h-98z" />
    <glyph glyph-name="itilde" unicode="&#x129;" horiz-adv-x="382" 
d="M127 0v774h127v-774h-127zM-78 967q1 98 40.5 148t113.5 50q38 0 73.5 -17.5t58 -38.5t49.5 -38.5t50 -17.5q31 0 47.5 26.5t16.5 73.5h94q-1 -98 -41.5 -148.5t-114.5 -50.5q-38 0 -74 18t-58.5 39.5t-48.5 39.5t-48 18q-29 0 -46.5 -27.5t-17.5 -74.5h-94z" />
    <glyph glyph-name="Imacron" unicode="&#x12a;" horiz-adv-x="468" 
d="M168 0v1290h133v-1290h-133zM-14 1460v109h495v-109h-495z" />
    <glyph glyph-name="imacron" unicode="&#x12b;" horiz-adv-x="382" 
d="M127 0v774h127v-774h-127zM-47 1026v109h479v-109h-479z" />
    <glyph glyph-name="Iogonek" unicode="&#x12e;" horiz-adv-x="468" 
d="M180 -397q-79 0 -129.5 41.5t-50.5 117.5q0 132 168 240v1288h133v-1290q-188 -104 -188 -221q0 -40 23.5 -60t60.5 -20q41 0 77 18l25 -90q-59 -24 -119 -24z" />
    <glyph glyph-name="iogonek" unicode="&#x12f;" horiz-adv-x="382" 
d="M193 993q-39 0 -66 26.5t-27 65.5t27 66t66 27t66.5 -27t27.5 -66q0 -38 -27 -65t-67 -27zM-45 -238q0 134 172 242v770h127v-772l2 -2q-188 -104 -188 -221q0 -40 23.5 -60t60.5 -20q41 0 77 18l25 -90q-59 -24 -119 -24q-79 0 -129.5 41.5t-50.5 117.5z" />
    <glyph glyph-name="Idotaccent" unicode="&#x130;" horiz-adv-x="468" 
d="M168 0v1290h133v-1290h-133zM135 1528q0 43 27.5 70.5t70.5 27.5t71 -27.5t28 -70.5q0 -41 -28 -68.5t-71 -27.5t-70.5 27.5t-27.5 68.5z" />
    <glyph glyph-name="dotlessi" unicode="&#x131;" horiz-adv-x="382" 
d="M127 0v774h127v-774h-127z" />
    <glyph glyph-name="IJ" unicode="&#x132;" horiz-adv-x="935" 
d="M168 0v1290h133v-1290h-133zM369 -199q58 5 107.5 27t91 64.5t65.5 113.5t24 164v1120h131v-1065q0 -477 -374 -538z" />
    <glyph glyph-name="ij" unicode="&#x133;" horiz-adv-x="763" 
d="M127 0v774h127v-774h-127zM100 1085q0 39 27 66t66 27t66.5 -27t27.5 -66q0 -38 -27 -65t-67 -27q-39 0 -66 26.5t-27 65.5zM322 -303q85 17 136.5 94.5t51.5 231.5v751h127v-698q0 -427 -272 -486zM481 1085q0 39 26.5 66t65.5 27q40 0 67.5 -27.5t27.5 -65.5t-27.5 -65
t-67.5 -27q-39 0 -65.5 26.5t-26.5 65.5z" />
    <glyph glyph-name="Jcircumflex" unicode="&#x134;" horiz-adv-x="468" 
d="M-100 -199q58 5 107.5 27t91 64.5t65.5 113.5t24 164v1120h131v-1065q0 -477 -374 -538zM-2 1401l174 260h135l174 -260h-123l-118 176l-121 -176h-121z" />
    <glyph glyph-name="jcircumflex" unicode="&#x135;" horiz-adv-x="382" 
d="M-61 -303q85 17 136.5 94.5t51.5 231.5v751h127v-698q0 -427 -272 -486zM-43 946l174 279h125l174 -279h-119l-116 187l-119 -187h-119z" />
    <glyph glyph-name="uni0136" unicode="&#x136;" horiz-adv-x="1114" 
d="M905 0l-555 647l522 643h160l-522 -635l563 -655h-168zM168 0v1290h133v-1290h-133zM467 -199q0 37 25.5 58.5t68.5 21.5q52 0 78.5 -28.5t26.5 -77.5q0 -69 -41.5 -133t-102.5 -101l-43 49q72 57 72 93q0 17 -13 29.5t-29 20t-29 25t-13 43.5z" />
    <glyph glyph-name="uni0137" unicode="&#x137;" horiz-adv-x="790" 
d="M610 0l-315 414l293 360h162l-306 -360l326 -414h-160zM127 0v1331h127v-1331h-127zM326 -199q0 37 25.5 58.5t68.5 21.5q52 0 78 -28.5t26 -77.5q0 -69 -41 -133t-102 -101l-43 49q72 57 72 93q0 17 -13 29.5t-29 20t-29 25t-13 43.5z" />
    <glyph glyph-name="Lacute" unicode="&#x139;" horiz-adv-x="989" 
d="M168 0v1290h133v-1171h647v-119h-780zM166 1401l160 260h157l-196 -260h-121z" />
    <glyph glyph-name="lacute" unicode="&#x13a;" horiz-adv-x="382" 
d="M127 0v1331h127v-1331h-127zM121 1401l160 260h157l-196 -260h-121z" />
    <glyph glyph-name="uni013B" unicode="&#x13b;" horiz-adv-x="989" 
d="M168 0v1290h133v-1171h647v-119h-780zM467 -199q0 37 25.5 58.5t68.5 21.5q52 0 78.5 -28.5t26.5 -77.5q0 -69 -41.5 -133t-102.5 -101l-43 49q72 57 72 93q0 17 -13 29.5t-29 20t-29 25t-13 43.5z" />
    <glyph glyph-name="uni013C" unicode="&#x13c;" horiz-adv-x="382" 
d="M127 0v1331h127v-1331h-127zM98 -199q0 37 26 58.5t69 21.5q52 0 78 -28.5t26 -77.5q0 -69 -41 -133t-102 -101l-43 49q71 56 71 93q0 17 -13 29.5t-29 20t-29 25t-13 43.5z" />
    <glyph glyph-name="Lcaron" unicode="&#x13d;" horiz-adv-x="989" 
d="M168 0v1290h133v-1171h647v-119h-780zM381 905l20 385h127l-61 -385h-86z" />
    <glyph glyph-name="lcaron" unicode="&#x13e;" horiz-adv-x="382" 
d="M127 0v1331h127v-1331h-127zM334 946l20 385h127l-61 -385h-86z" />
    <glyph glyph-name="Ldot" unicode="&#x13f;" horiz-adv-x="989" 
d="M168 0v1290h133v-1171h647v-119h-780zM629 680q0 41 26.5 68.5t67.5 27.5q40 0 67 -28t27 -68t-27 -67t-67 -27q-41 0 -67.5 27t-26.5 67z" />
    <glyph glyph-name="ldot" unicode="&#x140;" horiz-adv-x="514" 
d="M127 0v1331h127v-1331h-127zM356 643q0 40 27.5 68t65.5 28q39 0 66.5 -28.5t27.5 -67.5t-27.5 -66.5t-66.5 -27.5t-66 27.5t-27 66.5z" />
    <glyph glyph-name="Lslash" unicode="&#x141;" horiz-adv-x="1030" 
d="M209 0v473l-166 -111v136l166 110v682h133v-592l320 215v-135l-320 -215v-444h647v-119h-780z" />
    <glyph glyph-name="lslash" unicode="&#x142;" horiz-adv-x="505" 
d="M188 0v565l-145 -108v137l145 108v629h127v-561l150 111v-138l-150 -110v-633h-127z" />
    <glyph glyph-name="Nacute" unicode="&#x143;" horiz-adv-x="1306" 
d="M168 0v1290h188l650 -1118v1118h133v-1290h-189l-649 1120v-1120h-133zM584 1401l159 260h158l-196 -260h-121z" />
    <glyph glyph-name="nacute" unicode="&#x144;" horiz-adv-x="897" 
d="M657 467q0 217 -168 217q-70 0 -131 -36.5t-104 -94.5v-553h-127v774h106l21 -102q96 125 258 125q137 0 204.5 -81t67.5 -227v-489h-127v467zM362 946l162 279h156l-199 -279h-119z" />
    <glyph glyph-name="uni0145" unicode="&#x145;" horiz-adv-x="1306" 
d="M168 0v1290h188l650 -1118v1118h133v-1290h-189l-649 1120v-1120h-133zM559 -199q0 37 25.5 58.5t68.5 21.5q52 0 78.5 -28.5t26.5 -77.5q0 -69 -41.5 -133t-102.5 -101l-43 49q72 57 72 93q0 17 -13 29.5t-29 20t-29 25t-13 43.5z" />
    <glyph glyph-name="uni0146" unicode="&#x146;" horiz-adv-x="897" 
d="M657 467q0 217 -168 217q-70 0 -131 -36.5t-104 -94.5v-553h-127v774h106l21 -102q96 125 258 125q137 0 204.5 -81t67.5 -227v-489h-127v467zM356 -199q0 37 26 58.5t69 21.5q52 0 78 -28.5t26 -77.5q0 -69 -41 -133t-102 -101l-43 49q71 56 71 93q0 17 -13 29.5t-29 20
t-29 25t-13 43.5z" />
    <glyph glyph-name="Ncaron" unicode="&#x147;" horiz-adv-x="1306" 
d="M168 0v1290h188l650 -1118v1118h133v-1290h-189l-649 1120v-1120h-133zM414 1661h121l120 -176l119 176h123l-174 -260h-135z" />
    <glyph glyph-name="ncaron" unicode="&#x148;" horiz-adv-x="897" 
d="M657 467q0 217 -168 217q-70 0 -131 -36.5t-104 -94.5v-553h-127v774h106l21 -102q96 125 258 125q137 0 204.5 -81t67.5 -227v-489h-127v467zM215 1225h119l119 -187l116 187h119l-174 -279h-125z" />
    <glyph glyph-name="Omacron" unicode="&#x14c;" horiz-adv-x="1435" 
d="M707 -25q-124 0 -226 35t-172 95.5t-117.5 144.5t-69.5 180t-22 203q0 151 41.5 276t120 215.5t197 140.5t266.5 50q285 0 447.5 -178t162.5 -484q0 -144 -38.5 -265.5t-113.5 -214.5t-197 -145.5t-279 -52.5zM236 645q0 -110 29.5 -207.5t86.5 -175t149 -123t208 -45.5
q106 0 206 36t158 89q63 71 95 187.5t32 228.5q0 159 -53 284.5t-163 201t-263 75.5q-103 0 -199 -35t-153 -84q-64 -72 -98.5 -193.5t-34.5 -238.5zM471 1460v109h496v-109h-496z" />
    <glyph glyph-name="omacron" unicode="&#x14d;" horiz-adv-x="903" 
d="M451 -25q-186 0 -282.5 109t-96.5 303q0 183 102.5 297.5t276.5 114.5q185 0 282.5 -108.5t97.5 -303.5q0 -184 -102 -298t-278 -114zM201 387q0 -127 63.5 -212t186.5 -85q52 0 102.5 14.5t81.5 38.5q67 77 67 244q0 125 -65.5 212t-185.5 87q-52 0 -100.5 -14.5
t-78.5 -38.5q-71 -78 -71 -246zM213 1026v109h479v-109h-479z" />
    <glyph glyph-name="Ohungarumlaut" unicode="&#x150;" horiz-adv-x="1435" 
d="M707 -25q-124 0 -226 35t-172 95.5t-117.5 144.5t-69.5 180t-22 203q0 151 41.5 276t120 215.5t197 140.5t266.5 50q285 0 447.5 -178t162.5 -484q0 -144 -38.5 -265.5t-113.5 -214.5t-197 -145.5t-279 -52.5zM236 645q0 -110 29.5 -207.5t86.5 -175t149 -123t208 -45.5
q106 0 206 36t158 89q63 71 95 187.5t32 228.5q0 159 -53 284.5t-163 201t-263 75.5q-103 0 -199 -35t-153 -84q-64 -72 -98.5 -193.5t-34.5 -238.5zM537 1401l141 260h147l-182 -260h-106zM784 1401l183 260h147l-219 -260h-111z" />
    <glyph glyph-name="ohungarumlaut" unicode="&#x151;" horiz-adv-x="903" 
d="M451 -25q-186 0 -282.5 109t-96.5 303q0 183 102.5 297.5t276.5 114.5q185 0 282.5 -108.5t97.5 -303.5q0 -184 -102 -298t-278 -114zM201 387q0 -127 63.5 -212t186.5 -85q52 0 102.5 14.5t81.5 38.5q67 77 67 244q0 125 -65.5 212t-185.5 87q-52 0 -100.5 -14.5
t-78.5 -38.5q-71 -78 -71 -246zM258 946l150 279h139l-182 -279h-107zM496 946l182 279h139l-213 -279h-108z" />
    <glyph glyph-name="OE" unicode="&#x152;" horiz-adv-x="2074" 
d="M707 -25q-124 0 -226 35t-172 95.5t-117.5 144.5t-69.5 180t-22 203q0 151 41.5 276t120 215.5t197 140.5t266.5 50q161 0 284 -62.5t199 -179.5v217h772v-119h-639v-477h562v-119h-562v-456h641v-119h-774v229q-160 -254 -501 -254zM236 645q0 -110 29.5 -207.5
t86.5 -175t149 -123t208 -45.5q106 0 206 36t158 89q63 71 95 187.5t32 228.5q0 159 -53 284.5t-163 201t-263 75.5q-103 0 -199 -35t-153 -84q-64 -72 -98.5 -193.5t-34.5 -238.5z" />
    <glyph glyph-name="oe" unicode="&#x153;" horiz-adv-x="1495" 
d="M451 -25q-186 0 -282.5 109t-96.5 303q0 183 102.5 297.5t276.5 114.5q231 0 323 -166q47 79 125.5 122.5t181.5 43.5q100 0 172 -35.5t110.5 -99t52.5 -143.5t5 -177h-581q-5 -117 68 -186.5t202 -69.5q118 0 233 68l33 -105q-122 -76 -284 -76q-228 0 -326 164
q-48 -78 -129 -121t-186 -43zM201 387q0 -127 63.5 -212t186.5 -85q52 0 102.5 14.5t81.5 38.5q67 77 67 244q0 125 -65.5 212t-185.5 87q-52 0 -100.5 -14.5t-78.5 -38.5q-71 -78 -71 -246zM842 455h461q-1 111 -62.5 171t-163.5 60q-110 0 -184 -70q-45 -71 -51 -161z" />
    <glyph glyph-name="Racute" unicode="&#x154;" horiz-adv-x="1202" 
d="M168 0v1290h453q127 0 215.5 -25.5t139.5 -77t73 -119t22 -159.5q0 -151 -81.5 -240.5t-227.5 -115.5l356 -553h-168l-336 539h-313v-539h-133zM301 655h320q147 0 241 50q72 67 72 204q0 63 -14.5 109t-49.5 81.5t-97 53.5t-152 18h-320v-516zM518 1401l160 260h158
l-197 -260h-121z" />
    <glyph glyph-name="racute" unicode="&#x155;" horiz-adv-x="628" 
d="M127 0v774h106l21 -106q92 129 231 129q76 0 138 -41l-41 -125q-61 45 -123 45q-124 0 -205 -129v-547h-127zM252 946l162 279h155l-198 -279h-119z" />
    <glyph glyph-name="uni0156" unicode="&#x156;" horiz-adv-x="1202" 
d="M168 0v1290h453q127 0 215.5 -25.5t139.5 -77t73 -119t22 -159.5q0 -151 -81.5 -240.5t-227.5 -115.5l356 -553h-168l-336 539h-313v-539h-133zM301 655h320q147 0 241 50q72 67 72 204q0 63 -14.5 109t-49.5 81.5t-97 53.5t-152 18h-320v-516zM512 -199q0 37 25.5 58.5
t68.5 21.5q52 0 78.5 -28.5t26.5 -77.5q0 -69 -41.5 -133t-102.5 -101l-43 49q72 57 72 93q0 17 -13 29.5t-29 20t-29 25t-13 43.5z" />
    <glyph glyph-name="uni0157" unicode="&#x157;" horiz-adv-x="628" 
d="M127 0v774h106l21 -106q92 129 231 129q76 0 138 -41l-41 -125q-61 45 -123 45q-124 0 -205 -129v-547h-127zM96 -199q0 37 25.5 58.5t68.5 21.5q52 0 78.5 -28.5t26.5 -77.5q0 -69 -41 -133t-102 -101l-43 49q71 56 71 93q0 17 -13 29.5t-29 20t-29 25t-13 43.5z" />
    <glyph glyph-name="Rcaron" unicode="&#x158;" horiz-adv-x="1202" 
d="M168 0v1290h453q127 0 215.5 -25.5t139.5 -77t73 -119t22 -159.5q0 -151 -81.5 -240.5t-227.5 -115.5l356 -553h-168l-336 539h-313v-539h-133zM301 655h320q147 0 241 50q72 67 72 204q0 63 -14.5 109t-49.5 81.5t-97 53.5t-152 18h-320v-516zM346 1661h121l121 -176
l119 176h122l-174 -260h-135z" />
    <glyph glyph-name="rcaron" unicode="&#x159;" horiz-adv-x="628" 
d="M127 0v774h106l21 -106q92 129 231 129q76 0 138 -41l-41 -125q-61 45 -123 45q-124 0 -205 -129v-547h-127zM104 1225h119l119 -187l117 187h119l-175 -279h-124z" />
    <glyph glyph-name="Sacute" unicode="&#x15a;" horiz-adv-x="1083" 
d="M516 -25q-256 0 -436 125l41 127q83 -66 200.5 -99.5t221.5 -33.5q127 0 223 35q46 28 75 78t29 117q0 60 -26 105t-69.5 73t-100 50t-118.5 39.5t-124.5 36t-119 45.5t-100 62.5t-69.5 91.5t-26 129q0 166 124.5 262.5t327.5 96.5q102 0 207.5 -31.5t179.5 -95.5
l-38 -119q-75 59 -177 93t-202 34q-126 0 -222 -51q-69 -69 -69 -168q0 -55 26 -96.5t69.5 -67.5t100.5 -46.5t119.5 -37.5t125 -36t119.5 -47.5t100.5 -66t69.5 -97t26 -136.5q0 -176 -129 -273.5t-359 -97.5zM477 1401l160 260h158l-197 -260h-121z" />
    <glyph glyph-name="sacute" unicode="&#x15b;" horiz-adv-x="735" 
d="M352 -23q-167 0 -289 78l41 119q48 -43 121 -63.5t144 -20.5q78 0 145 27q31 31 31 76q0 43 -33.5 72t-84 43.5t-109 33.5t-109 40.5t-84 66t-33.5 108.5q0 113 84.5 176.5t212.5 63.5q166 0 260 -80l-37 -115q-49 39 -111.5 61.5t-121.5 22.5q-76 0 -133 -29
q-27 -39 -27 -75q0 -35 25 -60t65 -39t88.5 -26.5t96.5 -29t88 -40.5t65 -66.5t25 -101.5q0 -82 -46 -138.5t-116 -80t-158 -23.5zM291 946l162 279h155l-198 -279h-119z" />
    <glyph glyph-name="Scircumflex" unicode="&#x15c;" horiz-adv-x="1083" 
d="M516 -25q-256 0 -436 125l41 127q83 -66 200.5 -99.5t221.5 -33.5q127 0 223 35q46 28 75 78t29 117q0 60 -26 105t-69.5 73t-100 50t-118.5 39.5t-124.5 36t-119 45.5t-100 62.5t-69.5 91.5t-26 129q0 166 124.5 262.5t327.5 96.5q102 0 207.5 -31.5t179.5 -95.5
l-38 -119q-75 59 -177 93t-202 34q-126 0 -222 -51q-69 -69 -69 -168q0 -55 26 -96.5t69.5 -67.5t100.5 -46.5t119.5 -37.5t125 -36t119.5 -47.5t100.5 -66t69.5 -97t26 -136.5q0 -176 -129 -273.5t-359 -97.5zM305 1401l174 260h135l174 -260h-122l-119 176l-121 -176h-121
z" />
    <glyph glyph-name="scircumflex" unicode="&#x15d;" horiz-adv-x="735" 
d="M352 -23q-167 0 -289 78l41 119q48 -43 121 -63.5t144 -20.5q78 0 145 27q31 31 31 76q0 43 -33.5 72t-84 43.5t-109 33.5t-109 40.5t-84 66t-33.5 108.5q0 113 84.5 176.5t212.5 63.5q166 0 260 -80l-37 -115q-49 39 -111.5 61.5t-121.5 22.5q-76 0 -133 -29
q-27 -39 -27 -75q0 -35 25 -60t65 -39t88.5 -26.5t96.5 -29t88 -40.5t65 -66.5t25 -101.5q0 -82 -46 -138.5t-116 -80t-158 -23.5zM141 946l174 279h125l174 -279h-118l-117 187l-119 -187h-119z" />
    <glyph glyph-name="Scedilla" unicode="&#x15e;" horiz-adv-x="1083" 
d="M539 -397q-61 0 -119 22l16 80q44 -16 88.5 -18t78.5 20t34 62q0 73 -115 73h-61l31 133q-241 6 -412 125l41 127q83 -66 200.5 -99.5t221.5 -33.5q127 0 223 35q46 28 75 78t29 117q0 60 -26 105t-69.5 73t-100 50t-118.5 39.5t-124.5 36t-119 45.5t-100 62.5
t-69.5 91.5t-26 129q0 166 124.5 262.5t327.5 96.5q102 0 207.5 -31.5t179.5 -95.5l-38 -119q-75 59 -177 93t-202 34q-126 0 -222 -51q-69 -69 -69 -168q0 -55 26 -96.5t69.5 -67.5t100.5 -46.5t119.5 -37.5t125 -36t119.5 -47.5t100.5 -66t69.5 -97t26 -136.5
q0 -162 -110 -258t-308 -111l-15 -69q73 0 121.5 -32t48.5 -105q0 -84 -59 -126t-143 -42z" />
    <glyph glyph-name="scedilla" unicode="&#x15f;" horiz-adv-x="735" 
d="M348 -397q-61 0 -119 22l17 80q44 -16 88.5 -18t78 20t33.5 62q0 73 -114 73h-62l33 138q-131 6 -240 75l41 119q48 -43 121 -63.5t144 -20.5q78 0 145 27q31 31 31 76q0 43 -33.5 72t-84 43.5t-109 33.5t-109 40.5t-84 66t-33.5 108.5q0 113 84.5 176.5t212.5 63.5
q166 0 260 -80l-37 -115q-49 39 -111.5 61.5t-121.5 22.5q-76 0 -133 -29q-27 -39 -27 -75q0 -35 25 -60t65 -39t88.5 -26.5t96.5 -29t88 -40.5t65 -66.5t25 -101.5q0 -112 -77.5 -171.5t-199.5 -67.5l-14 -72q73 0 121.5 -32t48.5 -105q0 -83 -59 -125.5t-144 -42.5z" />
    <glyph glyph-name="Scaron" unicode="&#x160;" horiz-adv-x="1083" 
d="M516 -25q-256 0 -436 125l41 127q83 -66 200.5 -99.5t221.5 -33.5q127 0 223 35q46 28 75 78t29 117q0 60 -26 105t-69.5 73t-100 50t-118.5 39.5t-124.5 36t-119 45.5t-100 62.5t-69.5 91.5t-26 129q0 166 124.5 262.5t327.5 96.5q102 0 207.5 -31.5t179.5 -95.5
l-38 -119q-75 59 -177 93t-202 34q-126 0 -222 -51q-69 -69 -69 -168q0 -55 26 -96.5t69.5 -67.5t100.5 -46.5t119.5 -37.5t125 -36t119.5 -47.5t100.5 -66t69.5 -97t26 -136.5q0 -176 -129 -273.5t-359 -97.5zM305 1661h121l121 -176l119 176h122l-174 -260h-135z" />
    <glyph glyph-name="scaron" unicode="&#x161;" horiz-adv-x="735" 
d="M352 -23q-167 0 -289 78l41 119q48 -43 121 -63.5t144 -20.5q78 0 145 27q31 31 31 76q0 43 -33.5 72t-84 43.5t-109 33.5t-109 40.5t-84 66t-33.5 108.5q0 113 84.5 176.5t212.5 63.5q166 0 260 -80l-37 -115q-49 39 -111.5 61.5t-121.5 22.5q-76 0 -133 -29
q-27 -39 -27 -75q0 -35 25 -60t65 -39t88.5 -26.5t96.5 -29t88 -40.5t65 -66.5t25 -101.5q0 -82 -46 -138.5t-116 -80t-158 -23.5zM141 1225h119l119 -187l117 187h118l-174 -279h-125z" />
    <glyph glyph-name="uni0162" unicode="&#x162;" horiz-adv-x="1099" 
d="M483 0v1171h-442v119h1018v-119h-443v-1171h-22l-19 -92q73 0 121.5 -32t48.5 -105q0 -84 -59 -126t-143 -42q-61 0 -119 22l16 80q44 -16 88.5 -18t78.5 20t34 62q0 73 -115 73h-61l37 158h-19z" />
    <glyph glyph-name="uni0163" unicode="&#x163;" horiz-adv-x="665" 
d="M442 -25h-10l-14 -67q73 0 121.5 -32t48.5 -105q0 -83 -59 -125.5t-144 -42.5q-61 0 -119 22l17 80q44 -16 88.5 -18t78 20t33.5 62q0 73 -114 73h-62l35 148q-143 52 -143 252v422h-144v110h144v277h127v-277h262v-110h-262v-416q0 -160 141 -160q64 0 125 33l22 -105
q-65 -41 -172 -41z" />
    <glyph glyph-name="Tcaron" unicode="&#x164;" horiz-adv-x="1099" 
d="M483 0v1171h-442v119h1018v-119h-443v-1171h-133zM311 1661h121l121 -176l119 176h123l-174 -260h-136z" />
    <glyph glyph-name="tcaron" unicode="&#x165;" horiz-adv-x="665" 
d="M442 -25q-121 0 -182 69t-61 198v422h-144v110h144v277h127v-277h262v-110h-262v-416q0 -160 141 -160q64 0 125 33l22 -105q-65 -41 -172 -41zM424 946l20 385h127l-61 -385h-86z" />
    <glyph glyph-name="Utilde" unicode="&#x168;" horiz-adv-x="1257" 
d="M625 -25q-111 0 -195.5 29t-149.5 92.5t-99 172.5t-34 261v760h134v-760q0 -121 23 -206t68.5 -135t107 -72.5t145.5 -22.5q181 0 272 82q80 102 80 354v760h133v-760q0 -555 -485 -555zM344 1407q1 99 44.5 152t121.5 53q40 0 76 -18.5t57.5 -41t48.5 -41t51 -18.5
q69 0 72 106h98q-1 -100 -45 -152t-120 -52q-40 0 -76.5 18.5t-59 40.5t-49.5 40.5t-51 18.5q-31 0 -50 -28t-20 -78h-98z" />
    <glyph glyph-name="utilde" unicode="&#x169;" horiz-adv-x="894" 
d="M383 -23q-132 0 -201 81.5t-69 224.5v491h125v-471q0 -97 42 -154t130 -57q67 0 127 33.5t104 87.5v561h127v-774h-104l-21 96q-96 -119 -260 -119zM174 967q1 98 40.5 148t113.5 50q38 0 73.5 -17.5t58 -38.5t49.5 -38.5t50 -17.5q31 0 47.5 26.5t16.5 73.5h94
q-1 -98 -41.5 -148.5t-114.5 -50.5q-38 0 -74 18t-58.5 39.5t-48.5 39.5t-48 18q-29 0 -46.5 -27.5t-17.5 -74.5h-94z" />
    <glyph glyph-name="Umacron" unicode="&#x16a;" horiz-adv-x="1257" 
d="M625 -25q-111 0 -195.5 29t-149.5 92.5t-99 172.5t-34 261v760h134v-760q0 -121 23 -206t68.5 -135t107 -72.5t145.5 -22.5q181 0 272 82q80 102 80 354v760h133v-760q0 -555 -485 -555zM381 1460v109h496v-109h-496z" />
    <glyph glyph-name="umacron" unicode="&#x16b;" horiz-adv-x="894" 
d="M383 -23q-132 0 -201 81.5t-69 224.5v491h125v-471q0 -97 42 -154t130 -57q67 0 127 33.5t104 87.5v561h127v-774h-104l-21 96q-96 -119 -260 -119zM207 1026v109h479v-109h-479z" />
    <glyph glyph-name="Ubreve" unicode="&#x16c;" horiz-adv-x="1257" 
d="M625 -25q-111 0 -195.5 29t-149.5 92.5t-99 172.5t-34 261v760h134v-760q0 -121 23 -206t68.5 -135t107 -72.5t145.5 -22.5q181 0 272 82q80 102 80 354v760h133v-760q0 -555 -485 -555zM369 1645l104 14q20 -162 154 -162q135 0 155 162l105 -14q-14 -120 -79.5 -186
t-180.5 -66q-111 0 -177.5 66.5t-80.5 185.5z" />
    <glyph glyph-name="ubreve" unicode="&#x16d;" horiz-adv-x="894" 
d="M383 -23q-132 0 -201 81.5t-69 224.5v491h125v-471q0 -97 42 -154t130 -57q67 0 127 33.5t104 87.5v561h127v-774h-104l-21 96q-96 -119 -260 -119zM184 1196l103 12q20 -166 157 -166q69 0 108.5 40t49.5 126l105 -12q-15 -122 -81.5 -189t-181.5 -67q-112 0 -178.5 67
t-81.5 189z" />
    <glyph glyph-name="Uring" unicode="&#x16e;" horiz-adv-x="1257" 
d="M625 -25q-111 0 -195.5 29t-149.5 92.5t-99 172.5t-34 261v760h134v-760q0 -121 23 -206t68.5 -135t107 -72.5t145.5 -22.5q181 0 272 82q80 102 80 354v760h133v-760q0 -555 -485 -555zM453 1528q0 77 49.5 124.5t124.5 47.5q76 0 126 -47.5t50 -124.5q0 -75 -50 -121.5
t-126 -46.5q-75 0 -124.5 46.5t-49.5 121.5zM543 1528q0 -36 23 -60t61 -24q39 0 63.5 24t24.5 60q0 39 -24.5 63.5t-63.5 24.5q-38 0 -61 -24.5t-23 -63.5z" />
    <glyph glyph-name="uring" unicode="&#x16f;" horiz-adv-x="894" 
d="M383 -23q-132 0 -201 81.5t-69 224.5v491h125v-471q0 -97 42 -154t130 -57q67 0 127 33.5t104 87.5v561h127v-774h-104l-21 96q-96 -119 -260 -119zM266 1085q0 78 48.5 126.5t127.5 48.5q83 0 132 -48t49 -127q0 -77 -49 -124.5t-132 -47.5q-79 0 -127.5 47.5
t-48.5 124.5zM352 1085q0 -43 23.5 -67.5t66.5 -24.5q45 0 71 24t26 68q0 45 -26 71t-71 26q-42 0 -66 -26t-24 -71z" />
    <glyph glyph-name="Uhungarumlaut" unicode="&#x170;" horiz-adv-x="1257" 
d="M625 -25q-111 0 -195.5 29t-149.5 92.5t-99 172.5t-34 261v760h134v-760q0 -121 23 -206t68.5 -135t107 -72.5t145.5 -22.5q181 0 272 82q80 102 80 354v760h133v-760q0 -555 -485 -555zM446 1401l142 260h147l-182 -260h-107zM694 1401l183 260h147l-219 -260h-111z" />
    <glyph glyph-name="uhungarumlaut" unicode="&#x171;" horiz-adv-x="894" 
d="M383 -23q-132 0 -201 81.5t-69 224.5v491h125v-471q0 -97 42 -154t130 -57q67 0 127 33.5t104 87.5v561h127v-774h-104l-21 96q-96 -119 -260 -119zM252 946l149 279h140l-183 -279h-106zM489 946l183 279h139l-213 -279h-109z" />
    <glyph glyph-name="Uogonek" unicode="&#x172;" horiz-adv-x="1257" 
d="M625 -25q-111 0 -195.5 29t-149.5 92.5t-99 172.5t-34 261v760h134v-760q0 -121 23 -206t68.5 -135t107 -72.5t145.5 -22.5q181 0 272 82q80 102 80 354v760h133v-760q0 -440 -303 -530q-189 -104 -189 -221q0 -40 23.5 -60t60.5 -20q42 0 78 18l25 -90q-59 -24 -119 -24
q-79 0 -129.5 41.5t-50.5 117.5q0 116 131 213h-12z" />
    <glyph glyph-name="uogonek" unicode="&#x173;" horiz-adv-x="894" 
d="M383 -23q-132 0 -201 81.5t-69 224.5v491h125v-471q0 -97 42 -154t130 -57q67 0 127 33.5t104 87.5v561h127v-774q-188 -104 -188 -221q0 -40 23.5 -60t60.5 -20q41 0 77 18l25 -90q-59 -24 -119 -24q-79 0 -129.5 41.5t-50.5 117.5q0 74 53.5 139.5t138.5 114.5l-16 80
q-96 -119 -260 -119z" />
    <glyph glyph-name="Wcircumflex" unicode="&#x174;" horiz-adv-x="1849" 
d="M449 0l-388 1290h134l327 -1112l332 1112h139l332 -1110l330 1110h133l-391 -1290h-146l-327 1090l-328 -1090h-147zM684 1401l174 260h135l174 -260h-123l-118 176l-121 -176h-121z" />
    <glyph glyph-name="wcircumflex" unicode="&#x175;" horiz-adv-x="1333" 
d="M311 0l-286 774h139l217 -629l221 629h133l221 -629l218 629h135l-287 -774h-137l-219 614l-220 -614h-135zM430 946l174 279h125l174 -279h-119l-116 187l-119 -187h-119z" />
    <glyph glyph-name="Ycircumflex" unicode="&#x176;" horiz-adv-x="1282" 
d="M573 0v459l-512 831h152l428 -702l428 702h152l-514 -835v-455h-134zM399 1401l174 260h136l174 -260h-123l-119 176l-121 -176h-121z" />
    <glyph glyph-name="ycircumflex" unicode="&#x177;" horiz-adv-x="894" 
d="M393 -410q-152 0 -278 74l39 117q112 -76 243 -76q124 0 191 57q34 52 43.5 119t9.5 221v13q-101 -119 -258 -119q-134 0 -202 80.5t-68 224.5v473h125v-455q0 -105 45 -159t125 -54q72 0 133 35.5t100 87.5v545h127v-754q0 -79 -13.5 -144t-35.5 -109t-54 -77t-64 -51.5
t-71 -30t-70.5 -15t-66.5 -3.5zM209 946l174 279h125l174 -279h-119l-117 187l-118 -187h-119z" />
    <glyph glyph-name="Ydieresis" unicode="&#x178;" horiz-adv-x="1282" 
d="M573 0v459l-512 831h152l428 -702l428 702h152l-514 -835v-455h-134zM381 1526q0 41 27.5 67.5t68.5 26.5t68.5 -26.5t27.5 -67.5t-27.5 -67.5t-68.5 -26.5t-68.5 26.5t-27.5 67.5zM709 1526q0 41 26.5 67.5t67.5 26.5q43 0 70.5 -26.5t27.5 -67.5t-27.5 -67.5
t-70.5 -26.5q-41 0 -67.5 26.5t-26.5 67.5z" />
    <glyph glyph-name="Zacute" unicode="&#x179;" horiz-adv-x="1105" 
d="M76 0v94l751 1077h-723v119h895v-94l-749 -1077h780v-119h-954zM489 1401l160 260h158l-197 -260h-121z" />
    <glyph glyph-name="zacute" unicode="&#x17a;" horiz-adv-x="751" 
d="M72 0v94l438 568h-432v112h594v-94l-436 -567h444v-113h-608zM287 946l162 279h155l-198 -279h-119z" />
    <glyph glyph-name="Zdotaccent" unicode="&#x17b;" horiz-adv-x="1105" 
d="M76 0v94l751 1077h-723v119h895v-94l-749 -1077h780v-119h-954zM461 1528q0 43 27.5 70.5t70.5 27.5t70.5 -27.5t27.5 -70.5q0 -41 -27.5 -68.5t-70.5 -27.5t-70.5 27.5t-27.5 68.5z" />
    <glyph glyph-name="zdotaccent" unicode="&#x17c;" horiz-adv-x="751" 
d="M72 0v94l438 568h-432v112h594v-94l-436 -567h444v-113h-608zM283 1085q0 39 26.5 66t65.5 27t66.5 -27t27.5 -66q0 -38 -27 -65t-67 -27q-39 0 -65.5 26.5t-26.5 65.5z" />
    <glyph glyph-name="Zcaron" unicode="&#x17d;" horiz-adv-x="1105" 
d="M76 0v94l751 1077h-723v119h895v-94l-749 -1077h780v-119h-954zM317 1661h121l121 -176l119 176h123l-174 -260h-135z" />
    <glyph glyph-name="zcaron" unicode="&#x17e;" horiz-adv-x="751" 
d="M72 0v94l438 568h-432v112h594v-94l-436 -567h444v-113h-608zM139 1225h119l119 -187l117 187h118l-174 -279h-125z" />
    <glyph glyph-name="uni018F" unicode="&#x18f;" horiz-adv-x="1376" 
d="M662 -25q-188 0 -321 94t-193 255.5t-46 369.5h1037q-5 104 -36 192t-88.5 159t-151.5 111t-216 40q-107 0 -212 -28t-179 -68l-33 106q172 109 422 109q303 0 467 -176.5t164 -485.5q0 -113 -22 -213t-70.5 -186t-119.5 -147.5t-173.5 -96.5t-228.5 -35zM236 575
q2 -100 29.5 -186t79 -152.5t134 -104.5t187.5 -38q126 0 210.5 37.5t153.5 101.5q92 130 109 342h-903z" />
    <glyph glyph-name="florin" unicode="&#x191;" horiz-adv-x="1048" 
d="M82 -254q159 -25 250 57q39 81 78 328l67 455h-266v100h281l38 264q34 219 138.5 304t298.5 51l-17 -113q-33 9 -75 10.5t-89 -9.5t-75 -36q-36 -61 -56 -207l-39 -264h310v-100h-324l-67 -457q-9 -58 -19 -108t-24 -98t-30.5 -87.5t-37.5 -74.5t-46 -60.5t-56 -44
t-67 -27t-79.5 -7.5t-93.5 13v111z" />
    <glyph glyph-name="florin" unicode="&#x192;" horiz-adv-x="1048" 
d="M82 -254q159 -25 250 57q39 81 78 328l67 455h-266v100h281l38 264q34 219 138.5 304t298.5 51l-17 -113q-33 9 -75 10.5t-89 -9.5t-75 -36q-36 -61 -56 -207l-39 -264h310v-100h-324l-67 -457q-9 -58 -19 -108t-24 -98t-30.5 -87.5t-37.5 -74.5t-46 -60.5t-56 -44
t-67 -27t-79.5 -7.5t-93.5 13v111z" />
    <glyph glyph-name="uni0218" unicode="&#x218;" horiz-adv-x="1083" 
d="M516 -25q-256 0 -436 125l41 127q83 -66 200.5 -99.5t221.5 -33.5q127 0 223 35q46 28 75 78t29 117q0 60 -26 105t-69.5 73t-100 50t-118.5 39.5t-124.5 36t-119 45.5t-100 62.5t-69.5 91.5t-26 129q0 166 124.5 262.5t327.5 96.5q102 0 207.5 -31.5t179.5 -95.5
l-38 -119q-75 59 -177 93t-202 34q-126 0 -222 -51q-69 -69 -69 -168q0 -55 26 -96.5t69.5 -67.5t100.5 -46.5t119.5 -37.5t125 -36t119.5 -47.5t100.5 -66t69.5 -97t26 -136.5q0 -176 -129 -273.5t-359 -97.5zM453 -199q0 37 25.5 58.5t68.5 21.5q52 0 78 -28.5t26 -77.5
q0 -69 -41 -133t-102 -101l-43 49q72 57 72 93q0 17 -13 29.5t-29 20t-29 25t-13 43.5z" />
    <glyph glyph-name="uni0219" unicode="&#x219;" horiz-adv-x="735" 
d="M352 -23q-167 0 -289 78l41 119q48 -43 121 -63.5t144 -20.5q78 0 145 27q31 31 31 76q0 43 -33.5 72t-84 43.5t-109 33.5t-109 40.5t-84 66t-33.5 108.5q0 113 84.5 176.5t212.5 63.5q166 0 260 -80l-37 -115q-49 39 -111.5 61.5t-121.5 22.5q-76 0 -133 -29
q-27 -39 -27 -75q0 -35 25 -60t65 -39t88.5 -26.5t96.5 -29t88 -40.5t65 -66.5t25 -101.5q0 -82 -46 -138.5t-116 -80t-158 -23.5zM262 -199q0 37 25.5 58.5t68.5 21.5q52 0 78.5 -28.5t26.5 -77.5q0 -69 -41.5 -133t-102.5 -101l-43 49q72 57 72 93q0 17 -13 29.5t-29 20
t-29 25t-13 43.5z" />
    <glyph glyph-name="uni021A" unicode="&#x21a;" horiz-adv-x="1099" 
d="M483 0v1171h-442v119h1018v-119h-443v-1171h-133zM457 -199q0 37 25.5 58.5t68.5 21.5q52 0 78 -28.5t26 -77.5q0 -69 -41 -133t-102 -101l-43 49q72 57 72 93q0 17 -13 29.5t-29 20t-29 25t-13 43.5z" />
    <glyph glyph-name="uni021B" unicode="&#x21b;" horiz-adv-x="665" 
d="M442 -25q-121 0 -182 69t-61 198v422h-144v110h144v277h127v-277h262v-110h-262v-416q0 -160 141 -160q64 0 125 33l22 -105q-65 -41 -172 -41zM299 -199q0 37 25.5 58.5t68.5 21.5q52 0 78.5 -28.5t26.5 -77.5q0 -69 -41.5 -133t-102.5 -101l-43 49q72 57 72 93
q0 17 -13 29.5t-29 20t-29 25t-13 43.5z" />
    <glyph glyph-name="uni0237" unicode="&#x237;" horiz-adv-x="382" 
d="M-61 -303q85 17 136.5 94.5t51.5 231.5v751h127v-698q0 -427 -272 -486z" />
    <glyph glyph-name="uni0259" unicode="&#x259;" horiz-adv-x="856" 
d="M403 799q174 0 277.5 -101t103.5 -297q0 -191 -97.5 -308.5t-272.5 -117.5q-100 0 -172 35.5t-110.5 99t-52.5 143.5t-5 177h581q5 117 -68 186.5t-202 69.5q-118 0 -233 -68l-33 105q122 76 284 76zM193 319q1 -112 62 -171.5t163 -59.5q110 0 184 70q45 71 51 161h-460
z" />
    <glyph glyph-name="uni02BC" unicode="&#x2bc;" horiz-adv-x="307" 
d="M84 983q63 75 63 129q0 22 -13 38.5t-29 25.5t-29 29t-13 50q0 42 24 67.5t63 25.5q46 0 70 -36t24 -102q0 -75 -29 -145.5t-84 -122.5z" />
    <glyph glyph-name="circumflex" unicode="&#x2c6;" horiz-adv-x="636" 
d="M82 946l174 279h125l174 -279h-119l-117 187l-118 -187h-119z" />
    <glyph glyph-name="caron" unicode="&#x2c7;" horiz-adv-x="636" 
d="M256 946l-174 279h119l118 -187l117 187h119l-174 -279h-125z" />
    <glyph glyph-name="breve" unicode="&#x2d8;" horiz-adv-x="686" 
d="M342 940q-112 0 -178.5 67t-81.5 189l102 12q20 -166 158 -166q69 0 108.5 40t49.5 126l104 -12q-15 -123 -81 -189.5t-181 -66.5z" />
    <glyph glyph-name="dotaccent" unicode="&#x2d9;" horiz-adv-x="350" 
d="M174 993q-39 0 -65.5 26.5t-26.5 65.5t26.5 66t65.5 27q40 0 67 -27t27 -66q0 -38 -27 -65t-67 -27z" />
    <glyph glyph-name="ring" unicode="&#x2da;" horiz-adv-x="520" 
d="M258 913q-79 0 -127.5 47.5t-48.5 124.5q0 78 48.5 126.5t127.5 48.5q83 0 131.5 -48t48.5 -127q0 -77 -49 -124.5t-131 -47.5zM168 1085q0 -43 23.5 -67.5t66.5 -24.5q45 0 70.5 24t25.5 68q0 45 -26 71t-70 26q-42 0 -66 -26t-24 -71z" />
    <glyph glyph-name="ogonek" unicode="&#x2db;" horiz-adv-x="464" 
d="M262 -397q-79 0 -129.5 41.5t-50.5 117.5q0 91 76.5 166.5t185.5 122.5l39 -51q-188 -104 -188 -221q0 -40 23.5 -60t60.5 -20q41 0 77 18l25 -90q-59 -24 -119 -24z" />
    <glyph glyph-name="tilde" unicode="&#x2dc;" horiz-adv-x="706" 
d="M469 954q-38 0 -74 18t-58.5 39.5t-48.5 39.5t-48 18q-29 0 -46.5 -27.5t-17.5 -74.5h-94q1 98 40.5 148t113.5 50q38 0 73.5 -17.5t58 -38.5t49.5 -38.5t50 -17.5q63 0 63 100h95q-1 -98 -41.5 -148.5t-114.5 -50.5z" />
    <glyph glyph-name="hungarumlaut" unicode="&#x2dd;" horiz-adv-x="722" 
d="M82 946l149 279h140l-183 -279h-106zM319 946l183 279h139l-213 -279h-109z" />
    <glyph glyph-name="gravecomb" unicode="&#x300;" 
d="M274 946l-192 279h147l158 -279h-113z" />
    <glyph glyph-name="acutecomb" unicode="&#x301;" 
d="M82 946l162 279h155l-198 -279h-119z" />
    <glyph glyph-name="uni0302" unicode="&#x302;" 
d="M82 946l174 279h125l174 -279h-119l-117 187l-118 -187h-119z" />
    <glyph glyph-name="tildecomb" unicode="&#x303;" 
d="M469 954q-38 0 -74 18t-58.5 39.5t-48.5 39.5t-48 18q-29 0 -46.5 -27.5t-17.5 -74.5h-94q1 98 40.5 148t113.5 50q38 0 73.5 -17.5t58 -38.5t49.5 -38.5t50 -17.5q63 0 63 100h95q-1 -98 -41.5 -148.5t-114.5 -50.5z" />
    <glyph glyph-name="uni0304" unicode="&#x304;" 
d="M82 1026v109h479v-109h-479z" />
    <glyph glyph-name="uni0306" unicode="&#x306;" 
d="M342 940q-112 0 -178.5 67t-81.5 189l102 12q20 -166 158 -166q69 0 108.5 40t49.5 126l104 -12q-15 -123 -81 -189.5t-181 -66.5z" />
    <glyph glyph-name="uni0307" unicode="&#x307;" 
d="M174 993q-39 0 -65.5 26.5t-26.5 65.5t26.5 66t65.5 27q40 0 67 -27t27 -66q0 -38 -27 -65t-67 -27z" />
    <glyph glyph-name="uni0308" unicode="&#x308;" 
d="M176 993q-39 0 -66.5 27.5t-27.5 64.5t27.5 65t66.5 28q38 0 66 -28t28 -65t-28 -64.5t-66 -27.5zM395 1085q0 37 27.5 65t66.5 28q38 0 66.5 -28t28.5 -65t-28.5 -64.5t-66.5 -27.5q-39 0 -66.5 27.5t-27.5 64.5z" />
    <glyph glyph-name="uni030A" unicode="&#x30a;" 
d="M258 913q-79 0 -127.5 47.5t-48.5 124.5q0 78 48.5 126.5t127.5 48.5q83 0 131.5 -48t48.5 -127q0 -77 -49 -124.5t-131 -47.5zM168 1085q0 -43 23.5 -67.5t66.5 -24.5q45 0 70.5 24t25.5 68q0 45 -26 71t-70 26q-42 0 -66 -26t-24 -71z" />
    <glyph glyph-name="uni030B" unicode="&#x30b;" 
d="M82 946l149 279h140l-183 -279h-106zM319 946l183 279h139l-213 -279h-109z" />
    <glyph glyph-name="uni030C" unicode="&#x30c;" 
d="M256 946l-174 279h119l118 -187l117 187h119l-174 -279h-125z" />
    <glyph glyph-name="uni0312" unicode="&#x312;" 
d="M186 901q-53 0 -78.5 29.5t-25.5 77.5q0 70 40 133t101 100l45 -49q-71 -56 -71 -92q0 -17 13 -29.5t29 -20.5t29 -25.5t13 -43.5q0 -37 -26 -58.5t-69 -21.5z" />
    <glyph glyph-name="uni0326" unicode="&#x326;" 
d="M94 -410q72 57 72 93q0 17 -13 29.5t-29 20t-29 25t-13 43.5q0 37 25.5 58.5t68.5 21.5q52 0 78.5 -28.5t26.5 -77.5q0 -69 -41.5 -133t-102.5 -101z" />
    <glyph glyph-name="uni0327" unicode="&#x327;" 
d="M201 -397q-61 0 -119 22l16 80q44 -16 88.5 -18t78.5 20t34 62q0 73 -115 73h-61l45 191h92l-27 -125q73 0 121.5 -32t48.5 -105q0 -84 -59 -126t-143 -42z" />
    <glyph glyph-name="uni0328" unicode="&#x328;" 
d="M262 -397q-79 0 -129.5 41.5t-50.5 117.5q0 91 76.5 166.5t185.5 122.5l39 -51q-188 -104 -188 -221q0 -40 23.5 -60t60.5 -20q41 0 77 18l25 -90q-59 -24 -119 -24z" />
    <glyph glyph-name="uni03A9" unicode="&#x3a9;" horiz-adv-x="1472" 
d="M100 0v133h279q-133 66 -206 206.5t-73 348.5q0 282 172.5 454.5t470.5 172.5q196 0 340 -79t216.5 -217t72.5 -319q0 -216 -84 -358t-227 -209h311v-133h-541v123q198 62 304 210.5t106 348.5q0 105 -33 197t-95 162.5t-159 111.5t-217 41q-219 0 -389 -123
q-117 -159 -117 -391q0 -433 412 -557v-123h-543z" />
    <glyph glyph-name="pi" unicode="&#x3c0;" horiz-adv-x="970" 
d="M786 -25q-170 0 -170 215v469h-301v-659h-129v659h-131v115h860v-115h-172v-464q0 -105 66 -105q36 0 84 25l29 -101q-65 -39 -136 -39z" />
    <glyph glyph-name="uni060C" unicode="&#x60c;" horiz-adv-x="440" 
d="M233 -20q-96 0 -96 133q0 92 39.5 179.5t104.5 147.5l47 -45q-90 -96 -90 -168q0 -28 14 -46.5t31 -27.5t31 -29t14 -50q0 -42 -25.5 -68t-69.5 -26z" />
    <glyph glyph-name="uni061B" unicode="&#x61b;" horiz-adv-x="466" 
d="M244 420q-97 0 -97 135q0 92 40 180t104 146l47 -45q-90 -96 -90 -168q0 -28 14 -47t30 -27.5t30 -28.5t14 -49q0 -42 -24.5 -69t-67.5 -27zM139 76q0 40 27 67t67 27q41 0 69 -27t28 -67t-28 -68t-69 -28q-40 0 -67 28t-27 68z" />
    <glyph glyph-name="uni061F" unicode="&#x61f;" horiz-adv-x="831" 
d="M479 348q0 52 -21 96t-54.5 75.5t-73.5 62.5t-80.5 65.5t-74 74.5t-54.5 100.5t-21 133.5q0 172 107.5 265.5t290.5 93.5q158 0 272 -60l-41 -108q-45 24 -109.5 38.5t-125.5 14.5q-123 0 -195 -63.5t-72 -175.5q0 -58 21 -106.5t54 -84t73 -68t80.5 -67t73.5 -73
t54 -93.5t21 -121h-125zM444 76q0 38 28 66t67 28q40 0 67 -27t27 -67q0 -39 -27.5 -66.5t-66.5 -27.5t-67 28t-28 66z" />
    <glyph glyph-name="uni0621" unicode="&#x621;" horiz-adv-x="880" 
d="M94 147q107 22 197 35q-47 39 -77 106.5t-30 141.5q0 116 72 189t201 73q133 0 248 -65l-56 -117q-89 53 -196 53q-85 0 -136 -31q-14 -25 -14 -71q0 -45 14.5 -89.5t42.5 -84t78.5 -60.5t114.5 -14l219 23l8 -113q-305 -26 -663 -88z" />
    <glyph glyph-name="uni0622" unicode="&#x622;" horiz-adv-x="415" 
d="M150 0v1386h118v-1386h-118zM-20 1593q39 36 86.5 47t93 3.5t90 -16t90.5 -4.5t82 30l27 -74q-43 -29 -95 -35t-98.5 1.5t-92 14.5t-87.5 -1t-72 -39z" />
    <glyph glyph-name="uni0623" unicode="&#x623;" horiz-adv-x="415" 
d="M150 0v1386h118v-1386h-118zM14 1602l119 10q-47 47 -47 121q0 61 36.5 94t98.5 33q51 0 129 -31l-26 -74q-44 23 -93 23q-44 0 -65 -21q-3 -64 31.5 -100.5t99.5 -32.5l98 6l8 -69l-383 -31z" />
    <glyph glyph-name="uni0624" unicode="&#x624;" horiz-adv-x="872" 
d="M147 -379q391 142 484 377q-279 5 -411 69t-132 199q0 86 44.5 178.5t124 158t167.5 65.5q91 0 170.5 -69t126.5 -184.5t47 -246.5q0 -442 -565 -653zM197 244q89 -115 409 -115h49v10q0 81 -26.5 171t-83 159.5t-127.5 69.5q-86 0 -153.5 -95.5t-67.5 -199.5zM229 958
l119 11q-47 47 -47 121q0 61 36.5 94t98.5 33q52 0 129 -31l-26 -74q-44 23 -93 23q-44 0 -65 -21q-3 -64 31.5 -100.5t99.5 -32.5l98 6l8 -69l-382 -31z" />
    <glyph glyph-name="uni0625" unicode="&#x625;" horiz-adv-x="415" 
d="M150 0v1386h118v-1386h-118zM12 -463l117 10q-45 45 -45 121q0 60 36 92.5t99 32.5q59 0 129 -31l-26 -71q-50 22 -93 22q-45 0 -65 -20q-3 -66 31.5 -102.5t99.5 -32.5l98 8l8 -70l-383 -31z" />
    <glyph glyph-name="uni0626" unicode="&#x626;" horiz-adv-x="1355" 
d="M608 -305q-240 0 -382 103t-142 311q0 113 42.5 229t113.5 209l94 -70q-57 -82 -94 -176.5t-37 -181.5q0 -148 112.5 -220.5t300.5 -72.5q175 0 322.5 60t189.5 151q-13 35 -63 67.5t-111 60.5t-120.5 62t-99.5 87.5t-40 121.5q0 90 66 173.5t176.5 134.5t232.5 51
q78 0 140 -29l-39 -121q-59 19 -111 19q-118 0 -224.5 -60.5t-133.5 -152.5q18 -41 58 -74.5t86 -55t96.5 -47.5t90.5 -51.5t66.5 -68t26.5 -95.5q0 -101 -83.5 -184.5t-225 -131.5t-308.5 -48zM115 815l118 10q-47 47 -47 121q0 61 36.5 94t99.5 33q52 0 129 -31l-27 -73
q-42 22 -92 22q-46 0 -66 -20q-3 -64 31.5 -100.5t99.5 -32.5l99 6l8 -70l-383 -31z" />
    <glyph glyph-name="uni0627" unicode="&#x627;" horiz-adv-x="415" 
d="M150 0v1386h118v-1386h-118z" />
    <glyph glyph-name="uni0628" unicode="&#x628;" horiz-adv-x="1705" 
d="M518 0q-186 0 -285.5 88t-99.5 256q0 184 135 395l101 -65q-113 -174 -113 -318q0 -227 264 -227h912q12 131 12 299v248h117v-236q0 -246 -23 -440h-1020zM831 -291q0 41 28 69.5t69 28.5t67.5 -28t26.5 -70q0 -41 -26.5 -68.5t-67.5 -27.5t-69 27.5t-28 68.5z" />
    <glyph glyph-name="uni0629" unicode="&#x629;" horiz-adv-x="882" 
d="M432 -20q-82 0 -145 24.5t-100 66t-55.5 92t-18.5 107.5q0 102 58 206.5t146 170.5q-29 12 -96 35l41 117q254 -75 381 -201.5t129 -290.5q3 -151 -88.5 -239t-251.5 -88zM193 1044q0 42 27.5 70.5t68.5 28.5t67.5 -28.5t26.5 -70.5q0 -41 -26.5 -68.5t-67.5 -27.5
t-68.5 27.5t-27.5 68.5zM205 281q11 -83 79.5 -129t157.5 -46q84 0 143.5 39.5t88.5 100.5q0 216 -244 348q-86 -57 -145.5 -138t-79.5 -175zM455 1044q0 42 27.5 70.5t68.5 28.5q40 0 67 -29t27 -70t-27 -68.5t-67 -27.5q-41 0 -68.5 27.5t-27.5 68.5z" />
    <glyph glyph-name="uni062A" unicode="&#x62a;" horiz-adv-x="1705" 
d="M518 0q-186 0 -285.5 88t-99.5 256q0 184 135 395l101 -65q-113 -174 -113 -318q0 -227 264 -227h912q12 131 12 299v248h117v-236q0 -246 -23 -440h-1020zM700 958q0 41 28 70t69 29t67.5 -28.5t26.5 -70.5q0 -41 -26.5 -68.5t-67.5 -27.5t-69 27.5t-28 68.5zM963 958
q0 42 27.5 70.5t68.5 28.5q40 0 67 -29t27 -70t-27 -68.5t-67 -27.5q-41 0 -68.5 27.5t-27.5 68.5z" />
    <glyph glyph-name="uni062B" unicode="&#x62b;" horiz-adv-x="1705" 
d="M518 0q-186 0 -285.5 88t-99.5 256q0 184 135 395l101 -65q-113 -174 -113 -318q0 -227 264 -227h912q12 131 12 299v248h117v-236q0 -246 -23 -440h-1020zM715 950q0 38 25 63t63 25q37 0 60.5 -25t23.5 -63t-23.5 -62t-60.5 -24q-38 0 -63 24t-25 62zM840 1159
q0 38 25 64t63 26q35 0 59.5 -26t24.5 -64q0 -37 -24.5 -61.5t-59.5 -24.5q-38 0 -63 24.5t-25 61.5zM965 950q0 38 24.5 63t61.5 25t61.5 -25t24.5 -63t-24.5 -62t-61.5 -24t-61.5 24t-24.5 62z" />
    <glyph glyph-name="uni062C" unicode="&#x62c;" horiz-adv-x="1261" 
d="M879 -760q-126 0 -237.5 22.5t-203.5 68.5t-158.5 111.5t-103.5 155t-37 195.5q0 120 46.5 233t125 200.5t177.5 153t206 99.5q-8 3 -45 16t-46 16l-40.5 13.5t-43.5 13.5t-39 10.5t-43 10t-39 6.5t-43.5 5t-41.5 1q-94 0 -178 -32l-29 125q101 38 201 38q77 0 152 -16.5
t143 -40.5t142.5 -48.5t182 -42t230.5 -19.5l-22 -125q-214 19 -407 -46.5t-324.5 -201.5t-165.5 -314q5 -223 183.5 -351t487.5 -128q94 0 205 15l14 -125q-139 -19 -249 -19zM635 -113q0 42 27.5 70.5t68.5 28.5t67.5 -28.5t26.5 -70.5q0 -41 -26.5 -68.5t-67.5 -27.5
t-68.5 27.5t-27.5 68.5z" />
    <glyph glyph-name="uni062D" unicode="&#x62d;" horiz-adv-x="1261" 
d="M879 -760q-126 0 -237.5 22.5t-203.5 68.5t-158.5 111.5t-103.5 155t-37 195.5q0 120 46.5 233t125 200.5t177.5 153t206 99.5q-8 3 -45 16t-46 16l-40.5 13.5t-43.5 13.5t-39 10.5t-43 10t-39 6.5t-43.5 5t-41.5 1q-94 0 -178 -32l-29 125q101 38 201 38q77 0 152 -16.5
t143 -40.5t142.5 -48.5t182 -42t230.5 -19.5l-22 -125q-214 19 -407 -46.5t-324.5 -201.5t-165.5 -314q5 -223 183.5 -351t487.5 -128q94 0 205 15l14 -125q-139 -19 -249 -19z" />
    <glyph glyph-name="uni062E" unicode="&#x62e;" horiz-adv-x="1261" 
d="M879 -760q-126 0 -237.5 22.5t-203.5 68.5t-158.5 111.5t-103.5 155t-37 195.5q0 120 46.5 233t125 200.5t177.5 153t206 99.5q-8 3 -45 16t-46 16l-40.5 13.5t-43.5 13.5t-39 10.5t-43 10t-39 6.5t-43.5 5t-41.5 1q-94 0 -178 -32l-29 125q101 38 201 38q77 0 152 -16.5
t143 -40.5t142.5 -48.5t182 -42t230.5 -19.5l-22 -125q-214 19 -407 -46.5t-324.5 -201.5t-165.5 -314q5 -223 183.5 -351t487.5 -128q94 0 205 15l14 -125q-139 -19 -249 -19zM590 1020q0 41 27.5 69.5t68.5 28.5t67.5 -28t26.5 -70q0 -41 -26.5 -68.5t-67.5 -27.5
t-68.5 27.5t-27.5 68.5z" />
    <glyph glyph-name="uni062F" unicode="&#x62f;" horiz-adv-x="868" 
d="M387 0q-224 0 -313 14l4 129q123 -14 303 -14h276q-14 168 -102.5 304t-241.5 222l56 109q188 -88 298 -271t101 -397l-74 -96h-307z" />
    <glyph glyph-name="uni0630" unicode="&#x630;" horiz-adv-x="868" 
d="M387 0q-224 0 -313 14l4 129q123 -14 303 -14h276q-14 168 -102.5 304t-241.5 222l56 109q188 -88 298 -271t101 -397l-74 -96h-307zM272 1036q0 41 28 70t69 29t67.5 -28.5t26.5 -70.5q0 -41 -26.5 -68.5t-67.5 -27.5t-69 27.5t-28 68.5z" />
    <glyph glyph-name="uni0631" unicode="&#x631;" horiz-adv-x="708" 
d="M0 -352q117 61 208.5 128t148 132.5t90 125t49.5 118.5q-12 158 -113 432l115 41q104 -277 104 -428q0 -187 -136 -352.5t-398 -303.5z" />
    <glyph glyph-name="uni0632" unicode="&#x632;" horiz-adv-x="708" 
d="M0 -352q117 61 208.5 128t148 132.5t90 125t49.5 118.5q-12 158 -113 432l115 41q104 -277 104 -428q0 -187 -136 -352.5t-398 -303.5zM293 901q0 41 27.5 69.5t68.5 28.5t67.5 -28t26.5 -70q0 -41 -26.5 -68.5t-67.5 -27.5t-68.5 27.5t-27.5 68.5z" />
    <glyph glyph-name="uni0633" unicode="&#x633;" horiz-adv-x="2207" 
d="M569 -279q-214 0 -335 114.5t-121 324.5q0 247 157 461l95 -68q-61 -88 -96.5 -187.5t-35.5 -191.5q0 -152 94 -238t255 -86q165 0 293.5 86t168.5 220q-7 86 -26.5 182t-65.5 283l117 30l82 -336q26 -114 75.5 -150t153.5 -36h138q18 103 18 277v229h117v-336
q0 -104 32 -137t109 -33h152q18 85 18 287v219h117v-219q0 -262 -37 -416h-242q-74 0 -120 16.5t-78 55.5q-16 -30 -52 -72h-178q-156 0 -235 82q-59 -158 -211.5 -259.5t-358.5 -101.5z" />
    <glyph glyph-name="uni0634" unicode="&#x634;" horiz-adv-x="2207" 
d="M569 -279q-214 0 -335 114.5t-121 324.5q0 247 157 461l95 -68q-61 -88 -96.5 -187.5t-35.5 -191.5q0 -152 94 -238t255 -86q165 0 293.5 86t168.5 220q-7 86 -26.5 182t-65.5 283l117 30l82 -336q26 -114 75.5 -150t153.5 -36h138q18 103 18 277v229h117v-336
q0 -104 32 -137t109 -33h152q18 85 18 287v219h117v-219q0 -262 -37 -416h-242q-74 0 -120 16.5t-78 55.5q-16 -30 -52 -72h-178q-156 0 -235 82q-59 -158 -211.5 -259.5t-358.5 -101.5zM1378 995q0 38 25 63t63 25q37 0 60.5 -25t23.5 -63t-23.5 -62t-60.5 -24
q-38 0 -63 24t-25 62zM1503 1204q0 38 25 64t63 26q35 0 59.5 -26t24.5 -64q0 -37 -24.5 -61.5t-59.5 -24.5q-38 0 -63 24.5t-25 61.5zM1628 995q0 38 24.5 63t61.5 25t61.5 -25t24.5 -63t-24.5 -62t-61.5 -24t-61.5 24t-24.5 62z" />
    <glyph glyph-name="uni0635" unicode="&#x635;" horiz-adv-x="2308" 
d="M557 -279q-99 0 -180.5 26.5t-143.5 79t-96.5 137.5t-34.5 196q0 243 156 461l96 -68q-62 -88 -96.5 -188.5t-34.5 -190.5q0 -153 93.5 -238.5t258.5 -85.5t293 87t168 229q-42 238 -94 450l117 35l63 -258q174 149 359 243.5t338 94.5q164 0 275.5 -109t111.5 -272
q0 -74 -24.5 -131.5t-71 -95t-102.5 -63t-129.5 -38t-140 -17.5t-145.5 -5h-157q-223 0 -310 84q-59 -167 -216 -265t-353 -98zM1153 283q32 -95 98 -124.5t207 -29.5h96q189 0 323.5 25.5t209.5 95.5q15 84 -12 164.5t-96.5 135t-166.5 54.5q-140 0 -335 -101t-324 -220z
" />
    <glyph glyph-name="uni0636" unicode="&#x636;" horiz-adv-x="2308" 
d="M557 -279q-99 0 -180.5 26.5t-143.5 79t-96.5 137.5t-34.5 196q0 243 156 461l96 -68q-62 -88 -96.5 -188.5t-34.5 -190.5q0 -153 93.5 -238.5t258.5 -85.5t293 87t168 229q-42 238 -94 450l117 35l63 -258q174 149 359 243.5t338 94.5q164 0 275.5 -109t111.5 -272
q0 -74 -24.5 -131.5t-71 -95t-102.5 -63t-129.5 -38t-140 -17.5t-145.5 -5h-157q-223 0 -310 84q-59 -167 -216 -265t-353 -98zM1153 283q32 -95 98 -124.5t207 -29.5h96q189 0 323.5 25.5t209.5 95.5q15 84 -12 164.5t-96.5 135t-166.5 54.5q-140 0 -335 -101t-324 -220z
M1264 985q0 41 27.5 69.5t68.5 28.5t67.5 -28t26.5 -70q0 -41 -26.5 -68.5t-67.5 -27.5t-68.5 27.5t-27.5 68.5z" />
    <glyph glyph-name="uni0637" unicode="&#x637;" horiz-adv-x="1601" 
d="M117 0l-13 129h228q115 180 215 297q18 143 18 367v593h119v-477q0 -148 -3.5 -221t-16.5 -141q206 184 421 184q126 0 221.5 -54.5t144 -143t48.5 -195.5q0 -51 -13 -91.5t-46.5 -80.5t-95.5 -68.5t-154.5 -51.5t-230.5 -34.5t-316 -11.5h-526zM451 129h219
q556 0 716 141q11 139 -83 235.5t-248 96.5q-156 0 -299 -112.5t-305 -360.5z" />
    <glyph glyph-name="uni0638" unicode="&#x638;" horiz-adv-x="1601" 
d="M117 0l-13 129h228q115 180 215 297q18 143 18 367v593h119v-477q0 -148 -3.5 -221t-16.5 -141q206 184 421 184q126 0 221.5 -54.5t144 -143t48.5 -195.5q0 -51 -13 -91.5t-46.5 -80.5t-95.5 -68.5t-154.5 -51.5t-230.5 -34.5t-316 -11.5h-526zM451 129h219
q556 0 716 141q11 139 -83 235.5t-248 96.5q-156 0 -299 -112.5t-305 -360.5zM977 1073q0 41 27.5 69.5t68.5 28.5t67.5 -28t26.5 -70q0 -41 -26.5 -68.5t-67.5 -27.5t-68.5 27.5t-27.5 68.5z" />
    <glyph glyph-name="uni0639" unicode="&#x639;" horiz-adv-x="1046" 
d="M770 -756q-108 0 -203 17.5t-176 55t-139.5 92t-91.5 132.5t-33 172q0 145 76.5 272t212.5 205q-81 38 -133.5 98t-72.5 121t-20 128q0 136 84 226.5t248 90.5q145 0 279 -66l-43 -112q-124 53 -240 53q-142 0 -211 -82q-28 -161 65.5 -266t239.5 -105q79 0 287 35
l-2 -114q-116 -8 -220.5 -33.5t-200.5 -72.5t-163 -126t-90 -182q0 -201 147.5 -304.5t430.5 -103.5q86 0 194 11l9 -125q-111 -17 -234 -17z" />
    <glyph glyph-name="uni063A" unicode="&#x63a;" horiz-adv-x="1046" 
d="M770 -756q-108 0 -203 17.5t-176 55t-139.5 92t-91.5 132.5t-33 172q0 145 76.5 272t212.5 205q-81 38 -133.5 98t-72.5 121t-20 128q0 136 84 226.5t248 90.5q145 0 279 -66l-43 -112q-124 53 -240 53q-142 0 -211 -82q-28 -161 65.5 -266t239.5 -105q79 0 287 35
l-2 -114q-116 -8 -220.5 -33.5t-200.5 -72.5t-163 -126t-90 -182q0 -201 147.5 -304.5t430.5 -103.5q86 0 194 11l9 -125q-111 -17 -234 -17zM408 1108q0 41 27.5 69.5t68.5 28.5t67.5 -28t26.5 -70q0 -41 -26.5 -68.5t-67.5 -27.5t-68.5 27.5t-27.5 68.5z" />
    <glyph glyph-name="uni0640" unicode="&#x640;" horiz-adv-x="440" 
d="M440 0h-440l-37 66l37 63h440v-129z" />
    <glyph glyph-name="uni0641" unicode="&#x641;" horiz-adv-x="1976" 
d="M553 0q-420 0 -420 346q0 182 135 393l99 -65q-115 -180 -115 -318q0 -227 270 -227h805q-92 44 -146.5 108t-54.5 142q0 79 48.5 171.5t134.5 161t178 68.5q100 0 183.5 -82.5t129 -211.5t45.5 -269q0 -122 -33 -217h-1259zM1237 362q58 -86 191 -156.5t286 -80.5
q10 44 10 100q0 99 -33.5 198t-89 163.5t-114.5 64.5q-73 0 -155 -87t-95 -202zM1370 1067q0 41 27.5 69.5t68.5 28.5t68 -28t27 -70q0 -41 -27 -68.5t-68 -27.5t-68.5 27.5t-27.5 68.5z" />
    <glyph glyph-name="uni0642" unicode="&#x642;" horiz-adv-x="1417" 
d="M698 -403q-96 0 -182 16.5t-162.5 53t-132 90.5t-87.5 133.5t-32 177.5q0 234 156 452l94 -69q-62 -88 -96.5 -188t-34.5 -187q0 -90 38.5 -158.5t106.5 -109t154.5 -60.5t190.5 -20q304 0 442 168q23 60 33 157q-110 1 -205 15.5t-179 45t-132.5 86t-48.5 130.5
q0 44 16 97.5t47 106.5t71.5 97.5t95 72t112.5 27.5q81 0 147.5 -52.5t107.5 -137.5t63 -185t22 -202q0 -119 -31.5 -214t-86.5 -158.5t-132.5 -105.5t-165.5 -60.5t-189 -18.5zM723 1055q0 41 27.5 69.5t68.5 28.5t67.5 -28t26.5 -70t-26.5 -69.5t-67.5 -27.5t-68.5 28
t-27.5 69zM731 307q74 -69 185 -95t270 -28q-5 108 -29.5 199t-75.5 154.5t-120 64.5q-88 1 -160.5 -95.5t-69.5 -199.5zM985 1055q0 41 27.5 69.5t68.5 28.5q40 0 67.5 -28.5t27.5 -69.5t-27.5 -69t-67.5 -28q-41 0 -68.5 28t-27.5 69z" />
    <glyph glyph-name="uni0643" unicode="&#x643;" horiz-adv-x="1712" 
d="M518 0q-186 0 -285.5 88t-99.5 256q0 184 135 395l101 -65q-113 -174 -113 -318q0 -227 264 -227h912q14 162 14 520v737h119v-724q0 -457 -33 -662h-1014zM659 616q85 15 148 25q-36 31 -59 80.5t-23 105.5q0 86 54.5 140.5t148.5 54.5q104 0 186 -49l-41 -86
q-65 41 -147 41q-60 0 -101 -23q-10 -17 -10 -53q0 -48 17.5 -91.5t61.5 -73.5t107 -23l164 18l4 -84q-227 -17 -495 -66z" />
    <glyph glyph-name="uni0644" unicode="&#x644;" horiz-adv-x="1320" 
d="M590 -442q-227 0 -357.5 108t-130.5 328q0 239 156 463l96 -68q-62 -88 -96.5 -189t-34.5 -190q0 -159 104 -241t287 -82q146 0 253 51t163 145q35 345 35 842v661h117v-655q0 -416 -18 -630.5t-58 -301.5q-53 -109 -192.5 -175t-323.5 -66z" />
    <glyph glyph-name="uni0645" unicode="&#x645;" horiz-adv-x="1148" 
d="M223 -768q-129 428 -129 647q0 67 14.5 113t38.5 73.5t68.5 43t91 21t119.5 7.5q257 8 520 -6q-39 138 -111 241t-167 148q-61 -18 -121 -88.5t-101 -183.5l-104 41q60 161 148 253.5t182 92.5q118 0 233.5 -140t163.5 -360l-82 -135q-472 20 -770 -14q-3 -270 129 -725z
" />
    <glyph glyph-name="uni0646" unicode="&#x646;" horiz-adv-x="1275" 
d="M594 -272q-227 0 -359.5 107t-132.5 329q0 247 156 465l96 -70q-63 -89 -97 -189.5t-34 -189.5q0 -156 102.5 -239.5t280.5 -83.5q85 0 162 19t151 69t119 127q0 214 -166 544l111 58q160 -305 160 -512q0 -136 -71 -235.5t-194 -149t-284 -49.5zM510 909q0 42 27.5 70.5
t68.5 28.5t67.5 -28.5t26.5 -70.5q0 -41 -26.5 -68.5t-67.5 -27.5t-68.5 27.5t-27.5 68.5z" />
    <glyph glyph-name="uni0647" unicode="&#x647;" horiz-adv-x="882" 
d="M432 -20q-82 0 -145 24.5t-100 66t-55.5 92t-18.5 107.5q0 102 58 206.5t146 170.5q-29 12 -96 35l41 117q254 -75 381 -201.5t129 -290.5q3 -151 -88.5 -239t-251.5 -88zM205 281q11 -83 79.5 -129t157.5 -46q84 0 143.5 39.5t88.5 100.5q0 216 -244 348
q-86 -57 -145.5 -138t-79.5 -175z" />
    <glyph glyph-name="uni0648" unicode="&#x648;" horiz-adv-x="872" 
d="M147 -379q391 142 484 377q-279 5 -411 69t-132 199q0 86 44.5 178.5t124 158t167.5 65.5q91 0 170.5 -69t126.5 -184.5t47 -246.5q0 -442 -565 -653zM197 244q89 -115 409 -115h49v10q0 81 -26.5 171t-83 159.5t-127.5 69.5q-86 0 -153.5 -95.5t-67.5 -199.5z" />
    <glyph glyph-name="uni0649" unicode="&#x649;" horiz-adv-x="1355" 
d="M608 -305q-240 0 -382 103t-142 311q0 113 42.5 229t113.5 209l94 -70q-57 -82 -94 -176.5t-37 -181.5q0 -148 112.5 -220.5t300.5 -72.5q175 0 322.5 60t189.5 151q-13 35 -63 67.5t-111 60.5t-120.5 62t-99.5 87.5t-40 121.5q0 90 66 173.5t176.5 134.5t232.5 51
q78 0 140 -29l-39 -121q-59 19 -111 19q-118 0 -224.5 -60.5t-133.5 -152.5q18 -41 58 -74.5t86 -55t96.5 -47.5t90.5 -51.5t66.5 -68t26.5 -95.5q0 -101 -83.5 -184.5t-225 -131.5t-308.5 -48z" />
    <glyph glyph-name="uni064A" unicode="&#x64a;" horiz-adv-x="1355" 
d="M608 -305q-240 0 -382 103t-142 311q0 113 42.5 229t113.5 209l94 -70q-57 -82 -94 -176.5t-37 -181.5q0 -148 112.5 -220.5t300.5 -72.5q175 0 322.5 60t189.5 151q-13 35 -63 67.5t-111 60.5t-120.5 62t-99.5 87.5t-40 121.5q0 90 66 173.5t176.5 134.5t232.5 51
q78 0 140 -29l-39 -121q-59 19 -111 19q-118 0 -224.5 -60.5t-133.5 -152.5q18 -41 58 -74.5t86 -55t96.5 -47.5t90.5 -51.5t66.5 -68t26.5 -95.5q0 -101 -83.5 -184.5t-225 -131.5t-308.5 -48zM416 -567q0 41 27.5 69.5t68.5 28.5t67.5 -28t26.5 -70t-26.5 -69.5
t-67.5 -27.5t-68.5 28t-27.5 69zM678 -567q0 41 27.5 69.5t68.5 28.5q40 0 67 -28.5t27 -69.5t-27 -69t-67 -28q-41 0 -68.5 28t-27.5 69z" />
    <glyph glyph-name="uni064B" unicode="&#x64b;" 
d="M106 246l-14 71l432 91l11 -72zM104 162l428 92l15 -72l-430 -90z" />
    <glyph glyph-name="uni064C" unicode="&#x64c;" 
d="M92 272q109 43 160 111q-72 21 -107.5 48.5t-35.5 78.5q0 57 39.5 100t89.5 43q53 0 85.5 -47.5t32.5 -111.5q0 -114 -104 -191q198 47 274 123q-72 21 -106.5 48t-34.5 77q0 59 43 103t96 44t86 -48t33 -113q0 -63 -37 -115t-92.5 -86t-130.5 -59.5t-141 -38t-133 -19.5
zM162 506q21 -27 46.5 -40.5t76.5 -27.5q10 30 10 58q0 36 -17.5 62t-44.5 26q-24 0 -45.5 -20t-25.5 -58zM440 553q22 -30 47.5 -45.5t77.5 -28.5q13 29 13 60q0 38 -16.5 65t-43.5 27q-23 0 -45.5 -21t-32.5 -57z" />
    <glyph glyph-name="uni064D" unicode="&#x64d;" 
d="M106 -164l-14 66l428 92l15 -68zM102 -252l428 90l15 -65l-428 -90z" />
    <glyph glyph-name="uni064E" unicode="&#x64e;" 
d="M111 68l-19 75l428 93l17 -78z" />
    <glyph glyph-name="uni064F" unicode="&#x64f;" 
d="M92 184q187 27 277 109q-64 18 -111 56t-47 93q0 56 49 103t109 47q57 0 96 -49.5t39 -122.5q0 -62 -31 -114t-86.5 -89t-124 -62.5t-149.5 -39.5zM274 444q33 -49 146 -86q14 25 14 64q0 43 -19 68.5t-50 25.5q-28 0 -54.5 -19.5t-36.5 -52.5z" />
    <glyph glyph-name="uni0650" unicode="&#x650;" 
d="M111 -246l-19 76l428 92l17 -78z" />
    <glyph glyph-name="uni0651" unicode="&#x651;" 
d="M227 70q-62 0 -98.5 33t-36.5 87v125h68v-106q0 -36 17.5 -51t53.5 -15h54q10 34 10 88v84h70v-100q0 -42 16.5 -56t54.5 -14h43q8 31 8 109v61h66v-57q0 -112 -21 -186h-88q-72 0 -108 41q-21 -25 -45 -34t-64 -9z" />
    <glyph glyph-name="uni0652" unicode="&#x652;" 
d="M246 74q-76 0 -115 43t-39 98q0 44 29.5 93t79.5 87q-7 6 -23 16.5t-18 12.5l41 53q205 -127 205 -254q0 -62 -40 -105.5t-120 -43.5zM160 221q0 -71 90 -71q45 0 66.5 19.5t21.5 49.5q0 62 -86 135q-39 -26 -65.5 -61.5t-26.5 -71.5z" />
    <glyph glyph-name="uni0653" unicode="&#x653;" 
d="M92 162q39 36 86.5 46.5t93.5 3.5t90.5 -16t90.5 -5t82 30l26 -74q-43 -29 -95 -35t-98.5 1.5t-91.5 14.5t-87 -1t-72 -39z" />
    <glyph glyph-name="uni0654" unicode="&#x654;" 
d="M98 752l-6 71l119 11q-47 47 -47 120q0 61 36.5 94t98.5 33q54 0 129 -30l-27 -74q-42 22 -92 22q-45 0 -65 -20q-3 -64 31.5 -100.5t99.5 -32.5l98 6l8 -70z" />
    <glyph glyph-name="uni0655" unicode="&#x655;" 
d="M98 -471l-6 72l117 10q-45 45 -45 121q0 60 36 92.5t99 32.5q59 0 129 -31l-27 -72q-52 23 -92 23q-44 0 -65 -21q-3 -66 31.5 -102.5t99.5 -32.5l98 8l8 -69z" />
    <glyph glyph-name="uni0656" unicode="&#x656;" 
d="M131 -399q-6 177 -39 327l78 11q29 -146 39 -328z" />
    <glyph glyph-name="uni0660" unicode="&#x660;" horiz-adv-x="507" 
d="M252 399l-150 150l150 158l154 -158z" />
    <glyph glyph-name="uni0661" unicode="&#x661;" horiz-adv-x="612" 
d="M342 -10q-4 293 -72 638t-174 623l115 45q106 -266 175.5 -629.5t72.5 -660.5z" />
    <glyph glyph-name="uni0662" unicode="&#x662;" horiz-adv-x="880" 
d="M406 -10q-20 193 -59 359t-79.5 271t-78.5 188t-62.5 146t-24.5 109q0 68 54.5 116t139 68.5t181 24.5t187.5 -10.5t151 -42.5l-31 -123q-72 27 -184 38t-225 -5t-166 -60q264 -494 313 -1059z" />
    <glyph glyph-name="uni0663" unicode="&#x663;" horiz-adv-x="1204" 
d="M371 -10q-30 314 -92.5 598.5t-186.5 652.5l111 39q31 -102 60 -167.5t62 -102.5t67 -50.5t81 -13.5q83 0 116.5 55t33.5 164v111h112q3 -174 37 -247t121 -73q41 0 82 13q20 108 14 307h117q0 -171 -20.5 -266t-65 -135.5t-125.5 -40.5q-69 0 -116 28.5t-87 93.5
q-35 -68 -93.5 -99.5t-125.5 -31.5q-80 0 -139 39q109 -394 155 -856z" />
    <glyph glyph-name="uni0664" unicode="&#x664;" horiz-adv-x="802" 
d="M582 1169q-117 -3 -214.5 -55.5t-148.5 -134.5q25 -31 83.5 -71.5t109.5 -72t92 -76t41 -87.5q0 -35 -29.5 -76t-75.5 -83t-94.5 -84.5t-93.5 -94t-66 -98.5q74 -77 229 -106t285 -15v-123q-67 -5 -145 -6.5t-158.5 15t-146 42.5t-107 76.5t-41.5 116.5q0 67 51 145
t99 124t166 150q9 9 14 13q-35 26 -89.5 64.5t-86 61.5t-65 53t-49 58t-15.5 58q0 78 67 153t175.5 121t222.5 45z" />
    <glyph glyph-name="uni0665" unicode="&#x665;" horiz-adv-x="1089" 
d="M526 86q-198 0 -303.5 109t-105.5 323q0 135 41 262t105.5 216t145 142.5t158.5 53.5q103 0 197 -91t150.5 -238.5t56.5 -305.5q0 -101 -26 -185t-78.5 -149t-139.5 -101t-201 -36zM223 535q0 -87 27 -151t74.5 -99t102 -51.5t118.5 -16.5q165 0 282 117
q28 57 32.5 149.5t-16 190t-57.5 184.5t-98 143t-131 56q-85 0 -163.5 -79.5t-124.5 -200.5t-46 -242z" />
    <glyph glyph-name="uni0666" unicode="&#x666;" horiz-adv-x="1038" 
d="M803 -10q-70 207 -126 534.5t-71 601.5q-310 -31 -551 29l27 121q135 -35 298 -39t335 33q11 -318 70 -652.5t137 -580.5z" />
    <glyph glyph-name="uni0667" unicode="&#x667;" horiz-adv-x="1153" 
d="M528 16q-191 710 -481 1194l113 68q104 -168 223 -451t205 -581q60 246 171 521t238 501l109 -60q-154 -283 -275.5 -595t-175.5 -597h-127z" />
    <glyph glyph-name="uni0668" unicode="&#x668;" horiz-adv-x="1159" 
d="M1001 4q-278 524 -409 1047q-133 -517 -434 -1045l-111 62q145 250 281.5 582t197.5 628h129q57 -268 188 -611.5t269 -598.5z" />
    <glyph glyph-name="uni0669" unicode="&#x669;" horiz-adv-x="997" 
d="M784 -10q-77 286 -147 678q-103 -50 -231 -50q-139 0 -232.5 68t-93.5 188q0 92 39 184t116 157t171 65q59 0 104 -22.5t79.5 -65.5t63 -120t51.5 -170t48 -232q62 -338 147 -652zM180 854q33 -47 96.5 -79t141.5 -32q94 0 194 41q-25 139 -57 220.5t-68.5 112
t-87.5 30.5q-95 0 -157 -93t-62 -200z" />
    <glyph glyph-name="uni066A" unicode="&#x66a;" horiz-adv-x="1212" 
d="M209 0l674 1290h127l-676 -1290h-125zM102 973l150 157l154 -157l-154 -150zM807 272l149 158l154 -158l-154 -149z" />
    <glyph glyph-name="uni066B" unicode="&#x66b;" horiz-adv-x="358" 
d="M80 -152q72 81 72 166q0 34 -12 60.5t-26 41t-26 37t-12 48.5q0 36 21.5 60t54.5 24q54 0 84 -53t30 -138q0 -166 -133 -289z" />
    <glyph glyph-name="uni066C" unicode="&#x66c;" horiz-adv-x="428" 
d="M82 -180q52 247 92.5 354t101.5 107q28 0 44 -18t16 -50q0 -59 -48 -157.5t-147 -256.5z" />
    <glyph glyph-name="uni066D" unicode="&#x66d;" horiz-adv-x="854" 
d="M582 799l-158 225l-156 -225l-86 61l168 219l-262 80l31 98l258 -90l-4 275h106l-8 -275l262 93l33 -101l-264 -80l166 -219z" />
    <glyph glyph-name="uni066E" unicode="&#x66e;" horiz-adv-x="1705" 
d="M518 0q-186 0 -285.5 88t-99.5 256q0 184 135 395l101 -65q-113 -174 -113 -318q0 -227 264 -227h912q12 131 12 299v248h117v-236q0 -246 -23 -440h-1020z" />
    <glyph glyph-name="uni066F" unicode="&#x66f;" horiz-adv-x="1417" 
d="M698 -403q-96 0 -182 16.5t-162.5 53t-132 90.5t-87.5 133.5t-32 177.5q0 234 156 452l94 -69q-62 -88 -96.5 -188t-34.5 -187q0 -90 38.5 -158.5t106.5 -109t154.5 -60.5t190.5 -20q304 0 442 168q23 60 33 157q-110 1 -205 15.5t-179 45t-132.5 86t-48.5 130.5
q0 44 16 97.5t47 106.5t71.5 97.5t95 72t112.5 27.5q81 0 147.5 -52.5t107.5 -137.5t63 -185t22 -202q0 -119 -31.5 -214t-86.5 -158.5t-132.5 -105.5t-165.5 -60.5t-189 -18.5zM731 307q74 -69 185 -95t270 -28q-5 108 -29.5 199t-75.5 154.5t-120 64.5q-88 1 -160.5 -95.5
t-69.5 -199.5z" />
    <glyph glyph-name="uni0670" unicode="&#x670;" 
d="M-29 102q-6 178 -39 328l80 10q28 -153 37 -327z" />
    <glyph glyph-name="uni0671" unicode="&#x671;" horiz-adv-x="415" 
d="M150 0v1386h118v-1386h-118zM-66 1559q58 67 125 67q28 0 68 -12q46 70 89.5 105.5t100.5 35.5q52 0 85.5 -34t33.5 -81q0 -59 -46.5 -95t-127.5 -36q-58 0 -118 23.5t-89 23.5q-43 0 -86 -45zM178 1593q40 -14 90 -14q69 0 111 29q-4 67 -74 67q-64 0 -127 -82z" />
    <glyph glyph-name="uni06A1" unicode="&#x6a1;" horiz-adv-x="1976" 
d="M553 0q-420 0 -420 346q0 182 135 393l99 -65q-115 -180 -115 -318q0 -227 270 -227h805q-92 44 -146.5 108t-54.5 142q0 79 48.5 171.5t134.5 161t178 68.5q100 0 183.5 -82.5t129 -211.5t45.5 -269q0 -122 -33 -217h-1259zM1237 362q58 -86 191 -156.5t286 -80.5
q10 44 10 100q0 99 -33.5 198t-89 163.5t-114.5 64.5q-73 0 -155 -87t-95 -202z" />
    <glyph glyph-name="uni06A4" unicode="&#x6a4;" horiz-adv-x="1976" 
d="M553 0q-420 0 -420 346q0 182 135 393l99 -65q-115 -180 -115 -318q0 -227 270 -227h805q-92 44 -146.5 108t-54.5 142q0 79 48.5 171.5t134.5 161t178 68.5q100 0 183.5 -82.5t129 -211.5t45.5 -269q0 -122 -33 -217h-1259zM1237 362q58 -86 191 -156.5t286 -80.5
q10 44 10 100q0 99 -33.5 198t-89 163.5t-114.5 64.5q-73 0 -155 -87t-95 -202zM1255 1059q0 38 25 63t63 25q37 0 60.5 -25t23.5 -63t-23.5 -62t-60.5 -24q-38 0 -63 24t-25 62zM1380 1268q0 38 25 64t63 26q35 0 59.5 -26t24.5 -64q0 -37 -24.5 -61.5t-59.5 -24.5
q-38 0 -63 24.5t-25 61.5zM1505 1059q0 38 24.5 63t61.5 25t61.5 -25t24.5 -63t-24.5 -62t-61.5 -24t-61.5 24t-24.5 62z" />
    <glyph glyph-name="uni06BA" unicode="&#x6ba;" horiz-adv-x="1275" 
d="M594 -272q-227 0 -359.5 107t-132.5 329q0 247 156 465l96 -70q-63 -89 -97 -189.5t-34 -189.5q0 -156 102.5 -239.5t280.5 -83.5q85 0 162 19t151 69t119 127q0 214 -166 544l111 58q160 -305 160 -512q0 -136 -71 -235.5t-194 -149t-284 -49.5z" />
    <glyph glyph-name="Wgrave" unicode="&#x1e80;" horiz-adv-x="1849" 
d="M449 0l-388 1290h134l327 -1112l332 1112h139l332 -1110l330 1110h133l-391 -1290h-146l-327 1090l-328 -1090h-147zM696 1661h154l158 -260h-119z" />
    <glyph glyph-name="wgrave" unicode="&#x1e81;" horiz-adv-x="1333" 
d="M311 0l-286 774h139l217 -629l221 629h133l221 -629l218 629h135l-287 -774h-137l-219 614l-220 -614h-135zM438 1225h148l157 -279h-112z" />
    <glyph glyph-name="Wacute" unicode="&#x1e82;" horiz-adv-x="1849" 
d="M449 0l-388 1290h134l327 -1112l332 1112h139l332 -1110l330 1110h133l-391 -1290h-146l-327 1090l-328 -1090h-147zM856 1401l160 260h158l-197 -260h-121z" />
    <glyph glyph-name="wacute" unicode="&#x1e83;" horiz-adv-x="1333" 
d="M311 0l-286 774h139l217 -629l221 629h133l221 -629l218 629h135l-287 -774h-137l-219 614l-220 -614h-135zM578 946l161 279h156l-199 -279h-118z" />
    <glyph glyph-name="Wdieresis" unicode="&#x1e84;" horiz-adv-x="1849" 
d="M449 0l-388 1290h134l327 -1112l332 1112h139l332 -1110l330 1110h133l-391 -1290h-146l-327 1090l-328 -1090h-147zM666 1526q0 41 27.5 67.5t68.5 26.5t68.5 -26.5t27.5 -67.5t-27.5 -67.5t-68.5 -26.5t-68.5 26.5t-27.5 67.5zM993 1526q0 41 26.5 67.5t67.5 26.5
q43 0 71 -26.5t28 -67.5t-28 -67.5t-71 -26.5q-41 0 -67.5 26.5t-26.5 67.5z" />
    <glyph glyph-name="wdieresis" unicode="&#x1e85;" horiz-adv-x="1333" 
d="M311 0l-286 774h139l217 -629l221 629h133l221 -629l218 629h135l-287 -774h-137l-219 614l-220 -614h-135zM418 1085q0 37 27.5 65t66.5 28q38 0 66 -28t28 -65t-28 -64.5t-66 -27.5q-39 0 -66.5 27.5t-27.5 64.5zM731 1085q0 37 27.5 65t66.5 28q38 0 66.5 -28
t28.5 -65t-28.5 -64.5t-66.5 -27.5q-39 0 -66.5 27.5t-27.5 64.5z" />
    <glyph glyph-name="uni1E9E" unicode="&#x1e9e;" horiz-adv-x="1271" 
d="M791 -25q-189 0 -334 109l41 109q60 -50 144.5 -76.5t154.5 -26.5q61 0 121 18t100 52q37 68 37 176q0 145 -78 207.5t-258 62.5h-158v105l377 460h-637v-1171h-133v1290h946v-102l-387 -465q246 -2 355.5 -83t109.5 -282q0 -195 -105 -289t-296 -94z" />
    <glyph glyph-name="uni1EBC" unicode="&#x1ebc;" horiz-adv-x="1034" 
d="M168 0v1290h772v-119h-639v-477h561v-119h-561v-456h641v-119h-774zM272 1407q1 99 44.5 152t121.5 53q40 0 76 -18.5t58 -41t49 -41t51 -18.5q68 0 71 106h99q-1 -99 -45.5 -151.5t-120.5 -52.5q-40 0 -76.5 18.5t-59 40.5t-49.5 40.5t-51 18.5q-31 0 -49.5 -27.5
t-19.5 -78.5h-99z" />
    <glyph glyph-name="uni1EBD" unicode="&#x1ebd;" horiz-adv-x="856" 
d="M453 -25q-174 0 -277.5 101t-103.5 297q0 191 97.5 308.5t272.5 117.5q100 0 172 -35.5t110.5 -99t52.5 -143.5t5 -177h-581q-5 -117 68 -186.5t202 -69.5q119 0 234 68l32 -105q-122 -76 -284 -76zM170 967q1 98 40.5 148t113.5 50q38 0 73.5 -17.5t58 -38.5t49.5 -38.5
t50 -17.5q63 0 63 100h95q-1 -98 -41.5 -148.5t-114.5 -50.5q-38 0 -74 18t-58.5 39.5t-48.5 39.5t-48 18q-29 0 -46.5 -27.5t-17.5 -74.5h-94zM203 455h461q-1 111 -62.5 171t-163.5 60q-110 0 -184 -70q-45 -71 -51 -161z" />
    <glyph glyph-name="Ygrave" unicode="&#x1ef2;" horiz-adv-x="1282" 
d="M573 0v459l-512 831h152l428 -702l428 702h152l-514 -835v-455h-134zM412 1661h153l158 -260h-119z" />
    <glyph glyph-name="ygrave" unicode="&#x1ef3;" horiz-adv-x="894" 
d="M393 -410q-152 0 -278 74l39 117q112 -76 243 -76q124 0 191 57q34 52 43.5 119t9.5 221v13q-101 -119 -258 -119q-134 0 -202 80.5t-68 224.5v473h125v-455q0 -105 45 -159t125 -54q72 0 133 35.5t100 87.5v545h127v-754q0 -79 -13.5 -144t-35.5 -109t-54 -77t-64 -51.5
t-71 -30t-70.5 -15t-66.5 -3.5zM217 1225h148l157 -279h-112z" />
    <glyph glyph-name="uni1EF8" unicode="&#x1ef8;" horiz-adv-x="1282" 
d="M573 0v459l-512 831h152l428 -702l428 702h152l-514 -835v-455h-134zM356 1407q1 99 44.5 152t121.5 53q40 0 76 -18.5t58 -41t49 -41t51 -18.5q68 0 71 106h99q-1 -99 -45.5 -151.5t-120.5 -52.5q-40 0 -76.5 18.5t-59 40.5t-49.5 40.5t-51 18.5q-31 0 -49.5 -27.5
t-19.5 -78.5h-99z" />
    <glyph glyph-name="uni1EF9" unicode="&#x1ef9;" horiz-adv-x="894" 
d="M393 -410q-152 0 -278 74l39 117q112 -76 243 -76q124 0 191 57q34 52 43.5 119t9.5 221v13q-101 -119 -258 -119q-134 0 -202 80.5t-68 224.5v473h125v-455q0 -105 45 -159t125 -54q72 0 133 35.5t100 87.5v545h127v-754q0 -79 -13.5 -144t-35.5 -109t-54 -77t-64 -51.5
t-71 -30t-70.5 -15t-66.5 -3.5zM174 967q1 98 40.5 148t113.5 50q38 0 73.5 -17.5t58 -38.5t49.5 -38.5t50 -17.5q31 0 47.5 26.5t16.5 73.5h94q-1 -98 -41.5 -148.5t-114.5 -50.5q-38 0 -74 18t-58.5 39.5t-48.5 39.5t-48 18q-29 0 -46.5 -27.5t-17.5 -74.5h-94z" />
    <glyph glyph-name="uni2000" unicode="&#x2000;" horiz-adv-x="1024" 
 />
    <glyph glyph-name="uni2001" unicode="&#x2001;" horiz-adv-x="2048" 
 />
    <glyph glyph-name="uni2002" unicode="&#x2002;" horiz-adv-x="1024" 
 />
    <glyph glyph-name="uni2003" unicode="&#x2003;" horiz-adv-x="2048" 
 />
    <glyph glyph-name="uni2004" unicode="&#x2004;" horiz-adv-x="681" 
 />
    <glyph glyph-name="uni2005" unicode="&#x2005;" horiz-adv-x="512" 
 />
    <glyph glyph-name="uni2006" unicode="&#x2006;" horiz-adv-x="339" 
 />
    <glyph glyph-name="uni2007" unicode="&#x2007;" horiz-adv-x="1058" 
 />
    <glyph glyph-name="uni2008" unicode="&#x2008;" horiz-adv-x="421" 
 />
    <glyph glyph-name="uni2009" unicode="&#x2009;" horiz-adv-x="256" 
 />
    <glyph glyph-name="uni200A" unicode="&#x200a;" horiz-adv-x="143" 
 />
    <glyph glyph-name="uni200B" unicode="&#x200b;" 
 />
    <glyph glyph-name="endash" unicode="&#x2013;" horiz-adv-x="1105" 
d="M102 481v115h902v-115h-902z" />
    <glyph glyph-name="emdash" unicode="&#x2014;" horiz-adv-x="2007" 
d="M102 481v115h1803v-115h-1803z" />
    <glyph glyph-name="quoteleft" unicode="&#x2018;" horiz-adv-x="307" 
d="M223 1307q-63 -75 -63 -127q0 -19 8.5 -33t21 -23.5t25 -20t21 -28t8.5 -41.5q0 -41 -24 -66.5t-62 -25.5q-47 0 -71 36t-24 101q0 74 29.5 145.5t83.5 123.5z" />
    <glyph glyph-name="quoteright" unicode="&#x2019;" horiz-adv-x="307" 
d="M84 983q63 75 63 129q0 22 -13 38.5t-29 25.5t-29 29t-13 50q0 42 24 67.5t63 25.5q46 0 70 -36t24 -102q0 -75 -29 -145.5t-84 -122.5z" />
    <glyph glyph-name="quotesinglbase" unicode="&#x201a;" horiz-adv-x="307" 
d="M84 -197q63 75 63 127q0 19 -8.5 33t-21 23.5t-25 20t-21 28t-8.5 41.5q0 41 24.5 66.5t62.5 25.5q46 0 70 -36.5t24 -102.5q0 -74 -29.5 -145.5t-83.5 -121.5z" />
    <glyph glyph-name="quotedblleft" unicode="&#x201c;" horiz-adv-x="548" 
d="M223 1307q-63 -75 -63 -127q0 -19 8.5 -33t21 -23.5t25 -20t21 -28t8.5 -41.5q0 -41 -24 -66.5t-62 -25.5q-47 0 -71 36t-24 101q0 74 29.5 145.5t83.5 123.5zM305 1079q0 74 29.5 145.5t83.5 123.5l47 -41q-64 -76 -64 -127q0 -19 8.5 -33t21 -23.5t25 -20t21 -28
t8.5 -41.5q0 -41 -24 -66.5t-62 -25.5q-94 0 -94 137z" />
    <glyph glyph-name="quotedblright" unicode="&#x201d;" horiz-adv-x="548" 
d="M84 983q63 75 63 129q0 22 -13 38.5t-29 25.5t-29 29t-13 50q0 42 24 67.5t63 25.5q46 0 70 -36t24 -102q0 -75 -29 -145.5t-84 -122.5zM305 1255q0 42 23.5 67.5t62.5 25.5q46 0 70 -36t24 -102q0 -75 -29 -146t-83 -122l-47 41q63 75 63 129q0 22 -13 38.5t-29 25.5
t-29 29t-13 50z" />
    <glyph glyph-name="quotedblbase" unicode="&#x201e;" horiz-adv-x="548" 
d="M84 -197q63 75 63 127q0 19 -8.5 33t-21 23.5t-25 20t-21 28t-8.5 41.5q0 41 24.5 66.5t62.5 25.5q46 0 70 -36.5t24 -102.5q0 -74 -29.5 -145.5t-83.5 -121.5zM305 76q0 41 24 66.5t62 25.5q46 0 70 -36.5t24 -102.5q0 -74 -29 -145.5t-83 -121.5l-47 41q63 75 63 127
q0 19 -8.5 33t-21 23.5t-25 20t-21 28t-8.5 41.5z" />
    <glyph glyph-name="dagger" unicode="&#x2020;" horiz-adv-x="897" 
d="M383 -205v998h-301v118h301v379h131v-379h301v-118h-301v-998h-131z" />
    <glyph glyph-name="daggerdbl" unicode="&#x2021;" horiz-adv-x="897" 
d="M383 -205v379h-301v119h301v500h-301v118h301v379h131v-379h301v-118h-301v-500h301v-119h-301v-379h-131z" />
    <glyph glyph-name="bullet" unicode="&#x2022;" horiz-adv-x="542" 
d="M270 440q-76 0 -125 49.5t-49 124.5q0 77 49 127t125 50t126 -50t50 -127q0 -75 -50 -124.5t-126 -49.5z" />
    <glyph glyph-name="ellipsis" unicode="&#x2026;" horiz-adv-x="1224" 
d="M252 -18q-39 0 -66.5 27.5t-27.5 66.5q0 40 27 67t67 27q39 0 66.5 -27.5t27.5 -66.5t-27.5 -66.5t-66.5 -27.5zM518 76q0 40 27 67t67 27t67.5 -28t27.5 -66t-27.5 -66t-67.5 -28q-39 0 -66.5 27.5t-27.5 66.5zM879 76q0 40 27 67t67 27q39 0 66.5 -27.5t27.5 -66.5
t-27.5 -66.5t-66.5 -27.5t-66.5 27.5t-27.5 66.5z" />
    <glyph glyph-name="uni202F" unicode="&#x202f;" horiz-adv-x="81" 
 />
    <glyph glyph-name="perthousand" unicode="&#x2030;" horiz-adv-x="1925" 
d="M328 752q-125 0 -201 70.5t-76 209.5q0 130 79.5 204.5t197.5 74.5q124 0 200 -71t76 -208q0 -131 -80 -205.5t-196 -74.5zM160 1032q0 -88 46.5 -134t121.5 -46q87 0 135 45q31 48 31 135q0 85 -47 132.5t-119 47.5q-86 0 -133 -41q-35 -46 -35 -139zM260 0l674 1290
h127l-676 -1290h-125zM719 264q0 130 79 204.5t197 74.5q124 0 200.5 -71t76.5 -208q0 -131 -80.5 -205.5t-196.5 -74.5q-125 0 -200.5 70.5t-75.5 209.5zM827 264q0 -88 46.5 -134t121.5 -46q87 0 135 45q31 48 31 135q0 85 -47 132.5t-119 47.5q-86 0 -133 -41
q-35 -46 -35 -139zM1323 264q0 130 79 204.5t197 74.5q124 0 200.5 -71t76.5 -208q0 -131 -80.5 -205.5t-196.5 -74.5q-125 0 -200.5 70.5t-75.5 209.5zM1432 264q0 -88 46 -134t121 -46q88 0 136 45q30 47 30 135q0 85 -47 132.5t-119 47.5q-86 0 -133 -41
q-34 -45 -34 -139z" />
    <glyph glyph-name="guilsinglleft" unicode="&#x2039;" horiz-adv-x="536" 
d="M274 250l-213 262l213 262h144l-213 -262l213 -262h-144z" />
    <glyph glyph-name="guilsinglright" unicode="&#x203a;" horiz-adv-x="536" 
d="M262 250h-143l213 262l-213 262h143l213 -262z" />
    <glyph glyph-name="fraction" unicode="&#x2044;" horiz-adv-x="219" 
d="M-291 0l674 1290h127l-676 -1290h-125z" />
    <glyph glyph-name="uni205F" unicode="&#x205f;" horiz-adv-x="454" 
 />
    <glyph glyph-name="Euro" unicode="&#x20ac;" horiz-adv-x="1222" 
d="M784 -23q-225 0 -358.5 126.5t-167.5 357.5h-176v106h166q-2 18 -2 60q0 38 4 108h-168v105h182q20 103 61.5 187t105 149.5t155.5 101t205 35.5q167 0 311 -72l-29 -108q-134 67 -289 67q-164 0 -282 -100q-79 -112 -111 -260h604l-20 -105h-600q-4 -70 -4 -104
q0 -44 2 -64h567l-20 -106h-535q15 -81 45 -146t77 -116.5t117.5 -80t159.5 -28.5q84 0 172 23.5t142 58.5l22 -109q-138 -86 -336 -86z" />
    <glyph glyph-name="uni2116" unicode="&#x2116;" horiz-adv-x="2037" 
d="M168 0v1290h188l650 -1118v1118h133v-1290h-189l-649 1120v-1120h-133zM1378 1028q0 127 71.5 205t192.5 78q125 0 194 -74.5t69 -204.5q0 -126 -72.5 -203t-194.5 -77q-123 0 -191.5 73.5t-68.5 202.5zM1485 1030q0 -76 39 -128t116 -52q87 0 129 45q29 53 29 133
q0 79 -41 131.5t-119 52.5q-84 0 -118 -43q-35 -58 -35 -139z" />
    <glyph glyph-name="trademark" unicode="&#x2122;" horiz-adv-x="1527" 
d="M752 696v594h151l191 -467l182 467h149v-594h-100v486l-192 -486h-82l-201 486v-486h-98zM102 1206v84h514v-84h-208v-510h-97v510h-209z" />
    <glyph glyph-name="estimated" unicode="&#x212e;" horiz-adv-x="1599" 
d="M801 0q-209 0 -372 80t-255 229.5t-92 345.5q0 193 92 342.5t255.5 231.5t371.5 82q321 0 512.5 -175.5t204.5 -498.5h-1141q-16 0 -22.5 -6t-6.5 -29v-319q0 -27 33.5 -65.5t90 -76t145 -64t184.5 -26.5q130 0 251 58.5t201 150.5h133q-128 -143 -257.5 -201.5
t-327.5 -58.5zM348 694q0 -16 29 -16h842q21 0 25.5 5.5t4.5 25.5v313q0 51 -69.5 108.5t-176 96.5t-204.5 39q-91 0 -178.5 -27.5t-145 -66t-92.5 -76t-35 -60.5v-342z" />
    <glyph glyph-name="partialdiff" unicode="&#x2202;" horiz-adv-x="1042" 
d="M489 -25q-174 0 -280.5 108t-106.5 308q0 206 112 320t296 114q186 0 293 -131q-11 109 -45 195t-96.5 155t-163.5 107.5t-236 42.5l43 115q101 -4 187 -27t147 -56.5t110 -81.5t79.5 -94t53.5 -102.5t33.5 -99t16.5 -91t7 -70t1 -44.5q0 -180 -34.5 -312t-97 -208
t-142 -112t-177.5 -36zM233 406q0 -142 69.5 -227t197.5 -85q140 0 223.5 106t83.5 326v49q-118 132 -295 132q-135 0 -207 -79t-72 -222z" />
    <glyph glyph-name="uni2206" unicode="&#x2206;" horiz-adv-x="1363" 
d="M102 0l496 1290h168l496 -1290h-1160zM289 115h784l-391 1042z" />
    <glyph glyph-name="product" unicode="&#x220f;" horiz-adv-x="1206" 
d="M825 -205v1376h-444v-1376h-133v1376h-146v119h1002v-119h-146v-1376h-133z" />
    <glyph glyph-name="summation" unicode="&#x2211;" horiz-adv-x="1110" 
d="M102 -205v94l555 654l-555 653v94h906v-119h-713l498 -585v-86l-496 -586h711v-119h-906z" />
    <glyph glyph-name="minus" unicode="&#x2212;" horiz-adv-x="1140" 
d="M115 590v115h911v-115h-911z" />
    <glyph glyph-name="radical" unicode="&#x221a;" horiz-adv-x="1218" 
d="M395 -205l-293 758h140l223 -598l389 1335h262v-119h-162l-411 -1376h-148z" />
    <glyph glyph-name="infinity" unicode="&#x221e;" horiz-adv-x="1312" 
d="M344 340q-135 0 -209 77t-74 212q0 131 78.5 213t214.5 82q118 0 188 -48t120 -133q109 179 307 179q133 0 207.5 -77t74.5 -214q0 -131 -78 -211t-217 -80q-83 0 -145 25t-96 59.5t-64 87.5q-65 -93 -140 -132.5t-167 -39.5zM178 635q0 -84 43.5 -137.5t130.5 -53.5
q88 0 147.5 40t100.5 128q-19 41 -31.5 64t-35 54.5t-46 48t-59.5 28.5t-80 12q-81 0 -129 -31q-41 -46 -41 -153zM713 647q24 -49 42.5 -78t48 -61.5t68.5 -48t89 -15.5q96 0 143 41q31 45 31 140q0 85 -45.5 139.5t-128.5 54.5q-168 0 -248 -172z" />
    <glyph glyph-name="integral" unicode="&#x222b;" horiz-adv-x="886" 
d="M231 -229q-70 0 -129 16v113q56 -15 109 -15q81 0 123 37q49 71 49 232v778q0 383 272 383q66 0 129 -17v-112q-53 14 -108 14q-81 0 -123 -39q-47 -75 -47 -229v-778q0 -383 -275 -383z" />
    <glyph glyph-name="approxequal" unicode="&#x2248;" horiz-adv-x="1140" 
d="M786 688q-63 0 -116 23.5t-89.5 57t-70 66.5t-72.5 56.5t-82 23.5q-73 0 -109 -59.5t-36 -153.5h-111q0 153 67 233.5t187 80.5q64 0 117.5 -23.5t90 -57t69.5 -67t72.5 -57t82.5 -23.5q142 0 142 213h110q0 -154 -66.5 -233.5t-185.5 -79.5zM100 293q0 153 67 233
t187 80q64 0 117.5 -23.5t90 -57t69.5 -66.5t72.5 -56.5t82.5 -23.5q142 0 142 213h110q0 -154 -66.5 -233.5t-185.5 -79.5q-63 0 -116 23.5t-89.5 56.5t-70 66.5t-72.5 57t-82 23.5q-73 0 -109 -59.5t-36 -153.5h-111z" />
    <glyph glyph-name="notequal" unicode="&#x2260;" horiz-adv-x="1140" 
d="M135 795v110h459l70 221h127l-70 -221h285v-110h-322l-92 -291h414v-111h-449l-72 -223h-125l72 223h-297v111h332l92 291h-424z" />
    <glyph glyph-name="lessequal" unicode="&#x2264;" horiz-adv-x="1140" 
d="M1026 354l-911 338v107l911 340v-133l-733 -261l733 -258v-133zM115 74v114h911v-114h-911z" />
    <glyph glyph-name="greaterequal" unicode="&#x2265;" horiz-adv-x="1140" 
d="M115 354v133l733 258l-733 261v133l911 -340v-107zM115 74v114h911v-114h-911z" />
    <glyph glyph-name="lozenge" unicode="&#x25ca;" horiz-adv-x="942" 
d="M469 0l-274 274l274 279l279 -279z" />
    <glyph glyph-name="uniA78B" unicode="&#xa78b;" horiz-adv-x="428" 
d="M147 410v880h136l-19 -880h-117z" />
    <glyph glyph-name="uniA78C" unicode="&#xa78c;" horiz-adv-x="387" 
d="M127 410v815h131l-20 -815h-111z" />
    <glyph glyph-name="uniF8FF" unicode="&#xf8ff;" horiz-adv-x="942" 
d="M469 0l-274 274l274 279l279 -279z" />
    <glyph glyph-name="uniFD3E" unicode="&#xfd3e;" horiz-adv-x="708" 
d="M522 -475q-212 196 -309.5 438.5t-97.5 552.5q0 313 97.5 558t309.5 444l88 -68q-170 -160 -271 -394.5t-101 -543.5q0 -566 372 -918z" />
    <glyph glyph-name="uniFD3F" unicode="&#xfd3f;" horiz-adv-x="708" 
d="M98 -406q373 353 373 918q0 308 -101.5 542.5t-271.5 395.5l88 68q212 -200 310 -445t98 -557q0 -309 -98 -551.5t-310 -439.5z" />
    <glyph glyph-name="uni066E.medi.wide" horiz-adv-x="692" 
d="M285 0h-285l-37 66l37 63h248q20 88 20 352v195h119v-367q0 -109 36.5 -144.5t131.5 -35.5h137v-129h-176q-120 0 -180 78q-22 -49 -51 -78z" />
    <glyph glyph-name="uni066E.init.wide" horiz-adv-x="608" 
d="M436 0h-436l-37 66l37 63h332q14 140 14 317v230h117v-215q0 -284 -27 -461z" />
    <glyph glyph-name="uni066E.init.wide.shifted" horiz-adv-x="659" 
d="M489 0h-489l-37 66l37 63h383q14 140 14 317v230h117v-215q0 -283 -25 -461z" />
    <glyph glyph-name="uni0628.medi.wide" horiz-adv-x="692" 
d="M285 0h-285l-37 66l37 63h248q20 88 20 352v195h119v-367q0 -109 36.5 -144.5t131.5 -35.5h137v-129h-176q-120 0 -180 78q-22 -49 -51 -78zM225 -291q0 41 28 69.5t69 28.5t67.5 -28t26.5 -70q0 -41 -26.5 -68.5t-67.5 -27.5t-69 27.5t-28 68.5z" />
    <glyph glyph-name="uni0628.init.wide" horiz-adv-x="608" 
d="M436 0h-436l-37 66l37 63h332q14 140 14 317v230h117v-215q0 -284 -27 -461zM188 -291q0 41 28 69.5t69 28.5t67.5 -28t26.5 -70q0 -41 -26.5 -68.5t-67.5 -27.5t-69 27.5t-28 68.5z" />
    <glyph glyph-name="uni062A.medi.wide" horiz-adv-x="692" 
d="M285 0h-285l-37 66l37 63h248q20 88 20 352v195h119v-367q0 -109 36.5 -144.5t131.5 -35.5h137v-129h-176q-120 0 -180 78q-22 -49 -51 -78zM94 993q0 42 27.5 70.5t68.5 28.5t68 -28.5t27 -70.5q0 -41 -27 -68.5t-68 -27.5t-68.5 27.5t-27.5 68.5zM356 993q0 41 28 70
t69 29q40 0 67 -29t27 -70t-27 -68.5t-67 -27.5q-41 0 -69 27.5t-28 68.5z" />
    <glyph glyph-name="uni062A.init.wide" horiz-adv-x="608" 
d="M436 0h-436l-37 66l37 63h332q14 140 14 317v230h117v-215q0 -284 -27 -461zM90 1055q0 41 27.5 69.5t68.5 28.5t68 -28t27 -70q0 -41 -27 -69t-68 -28t-68.5 28t-27.5 69zM352 1055q0 41 28 69.5t69 28.5q40 0 67 -28.5t27 -69.5t-27 -69t-67 -28q-41 0 -69 28t-28 69z
" />
    <glyph glyph-name="uni062B.medi.wide" horiz-adv-x="692" 
d="M285 0h-285l-37 66l37 63h248q20 88 20 352v195h119v-367q0 -109 36.5 -144.5t131.5 -35.5h137v-129h-176q-120 0 -180 78q-22 -49 -51 -78zM111 985q0 38 25 63t63 25q37 0 60.5 -25t23.5 -63t-23.5 -62t-60.5 -24q-38 0 -63 24t-25 62zM236 1194q0 38 25 64t63 26
q35 0 59.5 -26t24.5 -64q0 -37 -24.5 -61.5t-59.5 -24.5q-38 0 -63 24.5t-25 61.5zM360 985q0 38 24.5 63t61.5 25t61.5 -25t24.5 -63t-24.5 -62t-61.5 -24t-61.5 24t-24.5 62z" />
    <glyph glyph-name="uni062B.init.wide" horiz-adv-x="608" 
d="M436 0h-436l-37 66l37 63h332q14 140 14 317v230h117v-215q0 -284 -27 -461zM106 1047q0 38 25.5 63t63.5 25q37 0 60.5 -25t23.5 -63t-23.5 -62t-60.5 -24q-39 0 -64 24t-25 62zM231 1255q0 39 25 65t63 26q35 0 59.5 -26.5t24.5 -64.5q0 -37 -24.5 -61.5t-59.5 -24.5
q-38 0 -63 24.5t-25 61.5zM356 1047q0 38 24.5 63t61.5 25t61.5 -25t24.5 -63t-24.5 -62t-61.5 -24t-61.5 24t-24.5 62z" />
    <glyph glyph-name="uni0643.medi.ss01" horiz-adv-x="1568" 
d="M1249 0h-1249l-37 66l37 63h1255q-9 171 -109 241t-304 70h-719l-66 172l781 471l65 -116l-696 -402h670q221 0 344.5 -85t146.5 -273q6 -49 40.5 -63.5t127.5 -14.5h33v-129h-49q-79 0 -128 17.5t-81 58.5z" />
    <glyph glyph-name="uni0643.init.ss01" horiz-adv-x="1466" 
d="M1296 0h-1296l-37 66l37 63h1253q-9 166 -106.5 238.5t-312.5 72.5h-711l-66 172l781 471l65 -116l-696 -402h631q102 0 179 -11.5t146.5 -42.5t114 -83t70.5 -134.5t26 -195.5z" />
    <glyph glyph-name="uni0646.medi.wide" horiz-adv-x="692" 
d="M285 0h-285l-37 66l37 63h248q20 88 20 352v195h119v-367q0 -109 36.5 -144.5t131.5 -35.5h137v-129h-176q-120 0 -180 78q-22 -49 -51 -78zM225 993q0 41 28 70t69 29t67.5 -28.5t26.5 -70.5q0 -41 -26.5 -68.5t-67.5 -27.5t-69 27.5t-28 68.5z" />
    <glyph glyph-name="uni0646.init.wide" horiz-adv-x="608" 
d="M436 0h-436l-37 66l37 63h332q14 140 14 317v230h117v-215q0 -284 -27 -461zM221 1055q0 41 27.5 69.5t68.5 28.5t68 -28t27 -70q0 -41 -27 -69t-68 -28t-68.5 28t-27.5 69z" />
    <glyph glyph-name="uni064A.medi.wide" horiz-adv-x="692" 
d="M285 0h-285l-37 66l37 63h248q20 88 20 352v195h119v-367q0 -109 36.5 -144.5t131.5 -35.5h137v-129h-176q-120 0 -180 78q-22 -49 -51 -78zM94 -291q0 41 27.5 69.5t68.5 28.5t68 -28t27 -70q0 -41 -27 -68.5t-68 -27.5t-68.5 27.5t-27.5 68.5zM356 -291q0 41 28 69.5
t69 28.5q40 0 67 -28.5t27 -69.5t-27 -68.5t-67 -27.5q-41 0 -69 27.5t-28 68.5z" />
    <glyph glyph-name="uni064A.medi.wide.shifted" horiz-adv-x="692" 
d="M285 0h-285l-37 66l37 63h248q20 88 20 352v195h119v-367q0 -109 36.5 -144.5t131.5 -35.5h137v-129h-176q-120 0 -180 78q-22 -49 -51 -78zM33 -291q0 41 27.5 69.5t68.5 28.5t67.5 -28t26.5 -70q0 -41 -26.5 -68.5t-67.5 -27.5t-68.5 27.5t-27.5 68.5zM295 -291
q0 41 27.5 69.5t68.5 28.5q40 0 67 -28.5t27 -69.5t-27 -68.5t-67 -27.5q-41 0 -68.5 27.5t-27.5 68.5z" />
    <glyph glyph-name="uni064A.init.wide" horiz-adv-x="608" 
d="M436 0h-436l-37 66l37 63h332q14 140 14 317v230h117v-215q0 -284 -27 -461zM57 -291q0 41 28 69.5t69 28.5t67.5 -28t26.5 -70q0 -41 -26.5 -68.5t-67.5 -27.5t-69 27.5t-28 68.5zM319 -291q0 41 28 69.5t69 28.5q40 0 67 -28.5t27 -69.5t-27 -68.5t-67 -27.5
q-41 0 -69 27.5t-28 68.5z" />
    <glyph glyph-name="uni064A.init.wide.shifted" horiz-adv-x="659" 
d="M489 0h-489l-37 66l37 63h383q14 140 14 317v230h117v-215q0 -283 -25 -461zM-25 -291q0 41 28 69.5t69 28.5t67.5 -28t26.5 -70q0 -41 -26.5 -68.5t-67.5 -27.5t-69 27.5t-28 68.5zM238 -291q0 41 27.5 69.5t68.5 28.5q40 0 67 -28.5t27 -69.5t-27 -68.5t-67 -27.5
q-41 0 -68.5 27.5t-27.5 68.5z" />
    <glyph glyph-name="uni0626.medi.wide" horiz-adv-x="692" 
d="M285 0h-285l-37 66l37 63h248q20 88 20 352v195h119v-367q0 -109 36.5 -144.5t131.5 -35.5h137v-129h-176q-120 0 -180 78q-22 -49 -51 -78zM129 1008l119 10q-47 47 -47 121q0 61 36.5 94t98.5 33q52 0 129 -31l-27 -74q-44 23 -92 23q-44 0 -65 -21q-3 -64 31.5 -100.5
t99.5 -32.5l98 6l8 -69l-383 -31z" />
    <glyph glyph-name="uni0626.init.wide" horiz-adv-x="608" 
d="M436 0h-436l-37 66l37 63h332q14 140 14 317v230h117v-215q0 -284 -27 -461zM123 1069l119 10q-47 47 -47 121q0 61 36.5 94t98.5 33q52 0 129 -31l-27 -73q-42 22 -92 22q-46 0 -66 -20q-3 -64 32 -100.5t100 -32.5l98 6l8 -70l-383 -31z" />
    <glyph glyph-name="uni06440627" horiz-adv-x="950" 
d="M86 160q205 145 316 238.5t178 187.5q-57 99 -148 209t-155.5 175t-186.5 183l80 94q163 -154 277.5 -280t199.5 -262q70 163 70 452v229h117v-221q0 -196 -28.5 -333t-92.5 -244q114 -230 114 -484l-73 -104h-627zM223 129h498q-12 180 -86 348q-67 -81 -164 -161
t-248 -187z" />
    <glyph glyph-name="uni06440627.fina" horiz-adv-x="991" 
d="M84 68q244 3 391.5 71.5t202.5 186.5q6 55 6 436v624h117v-989q0 -268 172 -268h18v-129h-18q-103 0 -167 54.5t-85 150.5q-74 -127 -239.5 -190t-393.5 -66zM145 1303l113 14l170 -909l-115 -19z" />
    <glyph glyph-name="uni06440623" horiz-adv-x="950" 
d="M86 160q205 145 316 238.5t178 187.5q-57 99 -148 209t-155.5 175t-186.5 183l80 94q163 -154 277.5 -280t199.5 -262q70 163 70 452v229h117v-221q0 -196 -28.5 -333t-92.5 -244q114 -230 114 -484l-73 -104h-627zM-35 1448l119 10q-47 47 -47 121q0 61 36.5 94t98.5 33
q52 0 129 -31l-27 -73q-42 22 -92 22q-45 0 -65 -20q-3 -64 31.5 -101t99.5 -33l98 7l8 -70l-383 -31zM223 129h498q-12 180 -86 348q-67 -81 -164 -161t-248 -187z" />
    <glyph glyph-name="uni06440623.fina" horiz-adv-x="991" 
d="M84 68q244 3 391.5 71.5t202.5 186.5q6 55 6 436v624h117v-989q0 -268 172 -268h18v-129h-18q-103 0 -167 54.5t-85 150.5q-74 -127 -239.5 -190t-393.5 -66zM-12 1542l118 10q-47 47 -47 121q0 61 36.5 94t99.5 33q51 0 129 -31l-27 -73q-42 22 -92 22q-46 0 -66 -20
q-3 -64 31.5 -100.5t99.5 -32.5l99 6l8 -70l-383 -31zM145 1303l113 14l170 -909l-115 -19z" />
    <glyph glyph-name="uni06440625" horiz-adv-x="950" 
d="M86 160q205 145 316 238.5t178 187.5q-57 99 -148 209t-155.5 175t-186.5 183l80 94q163 -154 277.5 -280t199.5 -262q70 163 70 452v229h117v-221q0 -196 -28.5 -333t-92.5 -244q114 -230 114 -484l-73 -104h-627zM8 -440l117 10q-45 45 -45 121q0 60 36 92.5t99 32.5
q59 0 129 -31l-27 -72q-52 23 -92 23q-44 0 -65 -21q-3 -66 31.5 -102.5t99.5 -32.5l98 8l8 -69l-383 -31zM223 129h498q-12 180 -86 348q-67 -81 -164 -161t-248 -187z" />
    <glyph glyph-name="uni06440625.fina" horiz-adv-x="991" 
d="M84 68q244 3 391.5 71.5t202.5 186.5q6 55 6 436v624h117v-989q0 -268 172 -268h18v-129h-18q-103 0 -167 54.5t-85 150.5q-74 -127 -239.5 -190t-393.5 -66zM-12 1542l118 10q-47 47 -47 121q0 61 36.5 94t99.5 33q51 0 129 -31l-27 -73q-42 22 -92 22q-46 0 -66 -20
q-3 -64 31.5 -100.5t99.5 -32.5l99 6l8 -70l-383 -31zM145 1303l113 14l170 -909l-115 -19z" />
    <glyph glyph-name="uni06440622" horiz-adv-x="950" 
d="M86 160q205 145 316 238.5t178 187.5q-57 99 -148 209t-155.5 175t-186.5 183l80 94q163 -154 277.5 -280t199.5 -262q70 163 70 452v229h117v-221q0 -196 -28.5 -333t-92.5 -244q114 -230 114 -484l-73 -104h-627zM-70 1440q39 36 86.5 46.5t93.5 3.5t90.5 -16t90.5 -5
t82 30l26 -74q-43 -29 -95 -35t-98.5 1.5t-91.5 14.5t-87 -1t-72 -39zM223 129h498q-12 180 -86 348q-67 -81 -164 -161t-248 -187z" />
    <glyph glyph-name="uni06440622.fina" horiz-adv-x="991" 
d="M84 68q244 3 391.5 71.5t202.5 186.5q6 55 6 436v624h117v-989q0 -268 172 -268h18v-129h-18q-103 0 -167 54.5t-85 150.5q-74 -127 -239.5 -190t-393.5 -66zM-47 1532q39 36 86.5 46.5t93 3.5t90 -16t90.5 -5t82 30l27 -73q-43 -29 -95 -35t-98.5 1.5t-92 14t-87.5 -1.5
t-72 -39zM145 1303l113 14l170 -909l-115 -19z" />
    <glyph glyph-name="uni06440671" horiz-adv-x="950" 
d="M86 160q205 145 316 238.5t178 187.5q-57 99 -148 209t-155.5 175t-186.5 183l80 94q163 -154 277.5 -280t199.5 -262q70 163 70 452v229h117v-221q0 -196 -28.5 -333t-92.5 -244q114 -230 114 -484l-73 -104h-627zM-115 1405q59 68 125 68q25 0 68 -13q46 71 89.5 106.5
t100.5 35.5q52 0 85.5 -34t33.5 -81q0 -59 -46.5 -95t-127.5 -36q-58 0 -118 23.5t-89 23.5q-43 0 -86 -45zM129 1440q43 -15 90 -15q69 0 111 29q-4 68 -74 68q-64 0 -127 -82zM223 129h498q-12 180 -86 348q-67 -81 -164 -161t-248 -187z" />
    <glyph glyph-name="uni06440671.fina" horiz-adv-x="991" 
d="M84 68q244 3 391.5 71.5t202.5 186.5q6 55 6 436v624h117v-989q0 -268 172 -268h18v-129h-18q-103 0 -167 54.5t-85 150.5q-74 -127 -239.5 -190t-393.5 -66zM-92 1497q59 68 125 68q24 0 67 -13q46 70 90 106t101 36q52 0 85.5 -34t33.5 -81q0 -59 -46.5 -95t-127.5 -36
q-58 0 -118 23.5t-89 23.5q-43 0 -86 -45zM145 1303l113 14l170 -909l-115 -19zM152 1532q40 -14 90 -14q70 0 110 28q-4 68 -73 68q-64 0 -127 -82z" />
    <glyph glyph-name="uni06410649" horiz-adv-x="1402" 
d="M653 -410q-88 0 -166 14t-149.5 46.5t-123 82t-82 124t-30.5 168.5q0 102 37 197t119 208l96 -68q-66 -92 -98.5 -168.5t-32.5 -152.5q0 -154 125 -238t332 -84q175 0 303 58.5t186 159.5q-119 94 -432 151l33 117q128 -19 242 -53q85 85 125 223q-269 15 -406 86.5
t-137 195.5q0 52 24.5 115t66.5 120.5t107 96.5t136 39q101 0 182 -77.5t121.5 -189.5t40.5 -229q0 -116 -41 -230.5t-111 -192.5q142 -69 142 -183q0 -91 -84.5 -169t-224.5 -122.5t-300 -44.5zM700 631q60 -60 178.5 -95.5t278.5 -39.5q3 164 -65 283.5t-174 119.5
q-83 0 -142.5 -77.5t-75.5 -190.5zM829 1278q0 41 28 69.5t69 28.5t67.5 -28t26.5 -70q0 -41 -26.5 -68.5t-67.5 -27.5t-69 27.5t-28 68.5z" />
    <glyph glyph-name="uni0641064A" horiz-adv-x="1402" 
d="M653 -410q-88 0 -166 14t-149.5 46.5t-123 82t-82 124t-30.5 168.5q0 102 37 197t119 208l96 -68q-66 -92 -98.5 -168.5t-32.5 -152.5q0 -154 125 -238t332 -84q175 0 303 58.5t186 159.5q-119 94 -432 151l33 117q128 -19 242 -53q85 85 125 223q-269 15 -406 86.5
t-137 195.5q0 52 24.5 115t66.5 120.5t107 96.5t136 39q101 0 182 -77.5t121.5 -189.5t40.5 -229q0 -116 -41 -230.5t-111 -192.5q142 -69 142 -183q0 -91 -84.5 -169t-224.5 -122.5t-300 -44.5zM340 -639q0 41 27.5 69.5t68.5 28.5t67.5 -28t26.5 -70q0 -41 -26.5 -68.5
t-67.5 -27.5t-68.5 27.5t-27.5 68.5zM602 -639q0 41 27.5 69.5t68.5 28.5q40 0 67.5 -28.5t27.5 -69.5t-27.5 -68.5t-67.5 -27.5q-41 0 -68.5 27.5t-27.5 68.5zM700 631q60 -60 178.5 -95.5t278.5 -39.5q3 164 -65 283.5t-174 119.5q-83 0 -142.5 -77.5t-75.5 -190.5z
M829 1278q0 41 28 69.5t69 28.5t67.5 -28t26.5 -70q0 -41 -26.5 -68.5t-67.5 -27.5t-69 27.5t-28 68.5z" />
    </font>
</defs>
</svg>
