<?xml version="1.0" standalone="no"?>
<!DOCTYPE svg PUBLIC "-//W3C//DTD SVG 1.1//EN" "http://www.w3.org/Graphics/SVG/1.1/DTD/svg11.dtd" >
<svg xmlns="http://www.w3.org/2000/svg" xmlns:xlink="http://www.w3.org/1999/xlink" version="1.1">
<metadata>
Created by FontForge 20170731 at Sun Sep 17 09:34:50 2023
 By Aleksey,,,
Copyright (c) 2022 AK Design Lab
</metadata>
<defs>
<font id="Lusail-Bold" horiz-adv-x="0" >
  <font-face 
    font-family="Lusail"
    font-weight="700"
    font-stretch="normal"
    units-per-em="2048"
    panose-1="0 0 0 0 0 0 0 0 0 0"
    ascent="1638"
    descent="-410"
    x-height="786"
    cap-height="1290"
    bbox="-393 -993 2652 1954"
    underline-thickness="102"
    underline-position="-358"
    unicode-range="U+0020-FDFC"
  />
<missing-glyph horiz-adv-x="1228" 
 />
    <glyph glyph-name="fi" unicode="fi" horiz-adv-x="1124" 
d="M762 0v594h-340v-594h-266v594h-123v192h123v226q0 162 94.5 251t263.5 89q100 0 186 -39l-55 -201q-64 33 -121 33q-53 0 -84 -17q-18 -35 -18 -127v-215h608v-786h-268zM743 1092q0 62 45 105.5t109 43.5q65 0 109.5 -43.5t44.5 -105.5t-44.5 -106t-109.5 -44
q-64 0 -109 44t-45 106z" />
    <glyph glyph-name="fl" unicode="fl" horiz-adv-x="1110" 
d="M156 1012q0 340 436 340q230 0 424 -49v-1303h-250v1139q-82 14 -162 14q-106 0 -164 -25q-18 -35 -18 -127v-215h225v-192h-225v-594h-266v594h-123v192h123v226z" />
    <glyph glyph-name="f_f" unicode="ff" horiz-adv-x="1263" 
d="M762 1012q0 162 95 251t267 89q107 0 191 -41l-53 -201q-63 35 -123 35q-59 0 -92 -17q-19 -37 -19 -127v-215h238v-192h-238v-594h-266v594h-340v-594h-266v594h-123v192h123v226q0 162 94.5 251t265.5 89q98 0 184 -39l-55 -201q-56 33 -113 33q-61 0 -92 -17
q-18 -35 -18 -127v-215h340v226z" />
    <glyph glyph-name="f_f_i" unicode="ffi" horiz-adv-x="1730" 
d="M1370 0v594h-342v-594h-266v594h-340v-594h-266v594h-123v192h123v226q0 162 94.5 251t263.5 89q100 0 186 -39l-55 -201q-64 33 -121 33q-53 0 -84 -17q-18 -35 -18 -127v-215h340v226q0 162 95 251t265 89q102 0 185 -39l-54 -201q-60 33 -114 33q-59 0 -92 -17
q-19 -37 -19 -127v-215h610v-786h-268zM1350 1092q0 62 44.5 105.5t108.5 43.5q65 0 109.5 -43.5t44.5 -105.5t-44.5 -106t-109.5 -44q-64 0 -108.5 44t-44.5 106z" />
    <glyph glyph-name="f_f_l" unicode="ffl" horiz-adv-x="1718" 
d="M762 1012q0 340 438 340q231 0 422 -49v-1303h-248v1139q-82 14 -162 14q-110 0 -165 -25q-19 -37 -19 -127v-215h207v-192h-207v-594h-266v594h-340v-594h-266v594h-123v192h123v226q0 162 94.5 251t263.5 89q100 0 186 -39l-55 -201q-64 33 -121 33q-53 0 -84 -17
q-18 -35 -18 -127v-215h340v226z" />
    <glyph glyph-name="uni0622.fina" unicode="&#x622;" horiz-adv-x="587" arabic-form="final" 
d="M465 0q-104 0 -170 24.5t-104.5 84t-53 145t-14.5 221.5v911h242v-884q0 -59 2.5 -94t9.5 -66t22.5 -46t39.5 -23.5t61 -8.5h88v-264h-123zM-8 1642q42 43 94.5 55t102 3.5t97.5 -18.5t95.5 -5t81.5 37l33 -135q-41 -36 -94 -45t-102.5 0t-98.5 17t-96.5 -1.5
t-81.5 -46.5z" />
    <glyph glyph-name="uni0623.fina" unicode="&#x623;" horiz-adv-x="587" arabic-form="final" 
d="M465 0q-104 0 -170 24.5t-104.5 84t-53 145t-14.5 221.5v911h242v-884q0 -59 2.5 -94t9.5 -66t22.5 -46t39.5 -23.5t61 -8.5h88v-264h-123zM12 1655l127 14q-57 47 -57 129q0 68 46 112t134 44q89 0 166 -41l-53 -127q-47 20 -92 20q-41 0 -62 -18q-1 -53 32.5 -79
t88.5 -21l121 10l12 -142l-448 -43z" />
    <glyph glyph-name="uni0624.fina" unicode="&#x624;" horiz-adv-x="1011" arabic-form="final" 
d="M106 -276q355 106 482 280q-265 17 -386.5 96t-121.5 222q0 76 31 161t83 156.5t129 118.5t160 47q103 0 193 -75t144.5 -199t62.5 -267h129v-264h-164q-33 -93 -96.5 -173.5t-147 -141.5t-176 -106.5t-197.5 -80.5zM238 1118l127 15q-58 48 -58 129q0 68 46 111.5
t134 43.5q89 0 166 -41l-53 -127q-50 21 -92 21q-40 0 -62 -19q-1 -53 32.5 -79t88.5 -21l121 10l12 -141l-448 -43zM295 330q83 -63 352 -66q-9 65 -31 127t-62 109t-87 47q-63 0 -113.5 -65.5t-58.5 -151.5z" />
    <glyph glyph-name="uni0625.fina" unicode="&#x625;" horiz-adv-x="587" arabic-form="final" 
d="M465 0q-104 0 -170 24.5t-104.5 84t-53 145t-14.5 221.5v911h242v-884q0 -59 2.5 -94t9.5 -66t22.5 -46t39.5 -23.5t61 -8.5h88v-264h-123zM6 -475l127 14q-57 50 -57 131q0 68 46 112t134 44q89 0 166 -41l-53 -127q-47 20 -93 20q-40 0 -61 -18q-1 -53 32.5 -79
t88.5 -21l121 10l12 -141l-449 -47z" />
    <glyph glyph-name="uni0626.init" unicode="&#x626;" horiz-adv-x="593" arabic-form="initial" 
d="M428 0h-428l-37 133l37 131h211q12 98 12 264v283h242v-283q0 -327 -37 -528zM45 1202l127 15q-57 47 -57 129q0 68 46 111.5t134 43.5q89 0 166 -41l-53 -127q-50 21 -93 21q-39 0 -61 -19q-1 -53 32.5 -79t88.5 -21l121 10l12 -141l-449 -43z" />
    <glyph glyph-name="uni0626.medi" unicode="&#x626;" horiz-adv-x="657" arabic-form="medial" 
d="M231 0h-231l-37 133l37 131h166q22 104 22 318v229h246v-381q0 -95 35 -130.5t115 -35.5h73v-264h-127q-158 0 -217 129q-26 -65 -82 -129zM76 1135l127 14q-58 48 -58 129q0 68 46.5 112t134.5 44q89 0 166 -41l-54 -127q-47 20 -92 20q-40 0 -61 -18q-1 -54 32.5 -80
t88.5 -21l120 11l13 -142l-449 -43z" />
    <glyph glyph-name="uni0626.fina" unicode="&#x626;" horiz-adv-x="1421" arabic-form="final" 
d="M705 -410q-98 0 -186 16t-169 53.5t-139.5 93.5t-93.5 142t-35 193q0 128 50.5 247t158.5 257l192 -148q-147 -172 -147 -327q0 -130 101 -197t296 -67q283 0 414 135q-41 25 -98.5 60t-139.5 83.5t-133 79.5l137 217q126 -87 216 -125.5t174 -38.5h118v-264h-49v-18
q0 -74 -50 -144.5t-136.5 -125.5t-213 -88.5t-267.5 -33.5zM160 895l127 14q-58 48 -58 129q0 68 46.5 112t134.5 44t165 -41l-53 -127q-49 21 -92 21q-39 0 -61 -19q-1 -54 32 -79.5t88 -20.5l121 10l13 -141l-449 -43z" />
    <glyph glyph-name="uni0627.fina" unicode="&#x627;" horiz-adv-x="587" arabic-form="final" 
d="M465 0q-104 0 -170 24.5t-104.5 84t-53 145t-14.5 221.5v911h242v-884q0 -59 2.5 -94t9.5 -66t22.5 -46t39.5 -23.5t61 -8.5h88v-264h-123z" />
    <glyph glyph-name="uni0628.init" unicode="&#x628;" horiz-adv-x="593" arabic-form="initial" 
d="M428 0h-428l-37 133l37 131h211q12 98 12 264v283h242v-283q0 -327 -37 -528zM123 -279q0 61 40 102.5t101 41.5t101.5 -41.5t40.5 -102.5q0 -62 -40.5 -104.5t-101.5 -42.5t-101 42.5t-40 104.5z" />
    <glyph glyph-name="uni0628.medi" unicode="&#x628;" horiz-adv-x="657" arabic-form="medial" 
d="M231 0h-231l-37 133l37 131h166q22 104 22 318v229h246v-381q0 -95 35 -130.5t115 -35.5h73v-264h-127q-158 0 -217 129q-26 -65 -82 -129zM174 -279q0 61 40 102.5t101 41.5t101.5 -41.5t40.5 -102.5q0 -62 -40.5 -104.5t-101.5 -42.5t-101 42.5t-40 104.5z" />
    <glyph glyph-name="uni0628.fina" unicode="&#x628;" horiz-adv-x="1910" arabic-form="final" 
d="M571 0q-209 0 -328.5 110.5t-119.5 311.5q0 232 176 475l199 -135q-65 -100 -92 -170t-27 -135q0 -94 52 -143.5t171 -49.5h828q24 107 24 318v229h246v-412q0 -81 32.5 -108t102.5 -27h76v-264h-115q-163 0 -219 115q-28 -54 -82 -115h-924zM852 -279q0 61 40 102.5
t101 41.5t101.5 -41.5t40.5 -102.5q0 -62 -40.5 -104.5t-101.5 -42.5t-101 42.5t-40 104.5z" />
    <glyph glyph-name="uni0629.fina" unicode="&#x629;" horiz-adv-x="1155" arabic-form="final" 
d="M492 76q-185 0 -303.5 102.5t-118.5 239.5q0 73 39.5 139.5t102.5 114.5t143.5 86.5t160.5 61t156 32.5v137h243v-356q0 -96 3 -154t11 -104t25 -68t41 -32.5t62 -10.5h98v-264h-158q-99 0 -162.5 33t-99.5 106q-109 -63 -243 -63zM287 1307q0 60 38.5 100.5t98.5 40.5
t98.5 -40.5t38.5 -100.5q0 -59 -39 -100.5t-98 -41.5t-98 41.5t-39 100.5zM305 438q23 -53 82 -79.5t131 -26.5q92 0 164 41q-10 110 -10 231q-120 -14 -221 -59t-146 -107zM625 1307q0 60 38.5 100.5t98.5 40.5t98.5 -40.5t38.5 -100.5q0 -59 -39 -100.5t-98 -41.5
t-98 41.5t-39 100.5z" />
    <glyph glyph-name="uni062A.init" unicode="&#x62a;" horiz-adv-x="593" arabic-form="initial" 
d="M428 0h-428l-37 133l37 131h211q12 98 12 264v283h242v-283q0 -327 -37 -528zM-31 1192q0 60 38.5 100.5t98.5 40.5t99 -40.5t39 -100.5q0 -59 -39.5 -100t-98.5 -41t-98 41t-39 100zM307 1192q0 60 38.5 100.5t98.5 40.5t99 -40.5t39 -100.5q0 -59 -39.5 -100t-98.5 -41
t-98 41t-39 100z" />
    <glyph glyph-name="uni062A.medi" unicode="&#x62a;" horiz-adv-x="657" arabic-form="medial" 
d="M231 0h-231l-37 133l37 131h166q22 104 22 318v229h246v-381q0 -95 35 -130.5t115 -35.5h73v-264h-127q-158 0 -217 129q-26 -65 -82 -129zM2 1124q0 61 38.5 101.5t98.5 40.5t98.5 -40.5t38.5 -101.5q0 -59 -39 -100t-98 -41t-98 41t-39 100zM340 1124q0 61 38.5 101.5
t98.5 40.5t98.5 -40.5t38.5 -101.5q0 -59 -39 -100t-98 -41t-98 41t-39 100z" />
    <glyph glyph-name="uni062A.fina" unicode="&#x62a;" horiz-adv-x="1910" arabic-form="final" 
d="M571 0q-209 0 -328.5 110.5t-119.5 311.5q0 232 176 475l199 -135q-65 -100 -92 -170t-27 -135q0 -94 52 -143.5t171 -49.5h828q24 107 24 318v229h246v-412q0 -81 32.5 -108t102.5 -27h76v-264h-115q-163 0 -219 115q-28 -54 -82 -115h-924zM686 1055q0 60 38.5 100.5
t98.5 40.5t99 -40.5t39 -100.5q0 -59 -39.5 -100.5t-98.5 -41.5t-98 41.5t-39 100.5zM1024 1055q0 60 38.5 100.5t98.5 40.5t98.5 -40.5t38.5 -100.5q0 -59 -39 -100.5t-98 -41.5t-98 41.5t-39 100.5z" />
    <glyph glyph-name="uni062B.init" unicode="&#x62b;" horiz-adv-x="593" arabic-form="initial" 
d="M428 0h-428l-37 133l37 131h211q12 98 12 264v283h242v-283q0 -327 -37 -528zM-4 1165q0 52 34.5 87.5t86.5 35.5t85.5 -35.5t33.5 -87.5q0 -53 -33.5 -88t-85.5 -35t-86.5 35t-34.5 88zM158 1427q0 52 34.5 87.5t86.5 35.5q51 0 84.5 -35.5t33.5 -87.5
q0 -53 -33.5 -88.5t-84.5 -35.5q-52 0 -86.5 35.5t-34.5 88.5zM319 1165q0 52 33.5 87.5t85.5 35.5t86.5 -35.5t34.5 -87.5q0 -53 -34.5 -88t-86.5 -35t-85.5 35t-33.5 88z" />
    <glyph glyph-name="uni062B.medi" unicode="&#x62b;" horiz-adv-x="657" arabic-form="medial" 
d="M231 0h-231l-37 133l37 131h166q22 104 22 318v229h246v-381q0 -95 35 -130.5t115 -35.5h73v-264h-127q-158 0 -217 129q-26 -65 -82 -129zM27 1098q0 52 34 87.5t86 35.5t85.5 -35.5t33.5 -87.5q0 -53 -33.5 -88t-85.5 -35t-86 35t-34 88zM188 1360q0 52 34.5 87.5
t86.5 35.5q51 0 85 -36t34 -87q0 -53 -34 -89t-85 -36q-52 0 -86.5 36t-34.5 89zM350 1098q0 52 33.5 87.5t85.5 35.5t86.5 -35.5t34.5 -87.5q0 -53 -34.5 -88t-86.5 -35t-85.5 35t-33.5 88z" />
    <glyph glyph-name="uni062B.fina" unicode="&#x62b;" horiz-adv-x="1910" arabic-form="final" 
d="M571 0q-209 0 -328.5 110.5t-119.5 311.5q0 232 176 475l199 -135q-65 -100 -92 -170t-27 -135q0 -94 52 -143.5t171 -49.5h828q24 107 24 318v229h246v-412q0 -81 32.5 -108t102.5 -27h76v-264h-115q-163 0 -219 115q-28 -54 -82 -115h-924zM711 1028q0 52 34 87.5
t86 35.5t85.5 -35.5t33.5 -87.5q0 -53 -33.5 -88t-85.5 -35t-86 35t-34 88zM872 1290q0 52 34.5 87.5t86.5 35.5q51 0 85 -36t34 -87q0 -53 -34 -89t-85 -36q-52 0 -86.5 36t-34.5 89zM1034 1028q0 52 33.5 87.5t85.5 35.5t86.5 -35.5t34.5 -87.5q0 -53 -34.5 -88t-86.5 -35
t-85.5 35t-33.5 88z" />
    <glyph glyph-name="uni062C.init" unicode="&#x62c;" horiz-adv-x="1323" arabic-form="initial" 
d="M96 0h-96l-37 133l37 131h113q277 0 553 213q-232 66 -338 66q-126 0 -228 -54l-63 254q144 66 289 66q90 0 174 -18t155.5 -42.5t150 -49t191 -39.5t244.5 -11l-47 -266q-108 12 -156 12t-96.5 -22t-94 -56.5t-96.5 -76.5t-115 -84.5t-138.5 -77t-178.5 -56.5t-223 -22z
M475 -225q0 61 40 102t101 41t101.5 -41.5t40.5 -101.5q0 -62 -40.5 -105t-101.5 -43t-101 43t-40 105z" />
    <glyph glyph-name="uni062C.medi" unicode="&#x62c;" horiz-adv-x="1318" arabic-form="medial" 
d="M96 0h-96l-37 133l37 131h113q144 0 287.5 59t265.5 154q-224 66 -332 66q-139 0 -234 -54l-63 254q144 66 289 66q90 0 174 -18t155.5 -42.5t150 -49t191 -39.5t244.5 -11l-47 -266q-108 12 -156 12q-82 0 -168 -63q61 -68 213 -68h236v-264h-215q-155 0 -266.5 50
t-157.5 136q-116 -85 -254 -135.5t-330 -50.5zM516 -279q0 61 40 102.5t101 41.5t101.5 -41.5t40.5 -102.5q0 -62 -40.5 -104.5t-101.5 -42.5t-101 42.5t-40 104.5z" />
    <glyph glyph-name="uni062C.fina" unicode="&#x62c;" horiz-adv-x="1380" arabic-form="final" 
d="M934 -760q-133 0 -253.5 25t-221.5 76t-175 122.5t-115.5 169.5t-41.5 213q0 121 45.5 235t120.5 201t165.5 152.5t188.5 104.5q-128 32 -246 32q-144 0 -260 -55l-71 252q151 70 305 70q89 0 173.5 -18t157.5 -43.5t152 -51t189.5 -43.5t236.5 -18l-45 -258
q-130 15 -270 0q36 -63 96 -102.5t143 -39.5h172v-264h-168q-175 0 -291 93.5t-161 264.5q-160 -54 -274 -161.5t-156 -268.5q3 -127 83 -223t223.5 -147.5t330.5 -51.5q122 0 256 21l28 -258q-176 -29 -317 -29zM584 -111q0 61 40 102.5t101 41.5t101 -41.5t40 -102.5
q0 -62 -40 -104.5t-101 -42.5t-101 42.5t-40 104.5z" />
    <glyph glyph-name="uni062D.init" unicode="&#x62d;" horiz-adv-x="1323" arabic-form="initial" 
d="M96 0h-96l-37 133l37 131h113q277 0 553 213q-232 66 -338 66q-126 0 -228 -54l-63 254q144 66 289 66q90 0 174 -18t155.5 -42.5t150 -49t191 -39.5t244.5 -11l-47 -266q-108 12 -156 12t-96.5 -22t-94 -56.5t-96.5 -76.5t-115 -84.5t-138.5 -77t-178.5 -56.5t-223 -22z
" />
    <glyph glyph-name="uni062D.medi" unicode="&#x62d;" horiz-adv-x="1318" arabic-form="medial" 
d="M96 0h-96l-37 133l37 131h113q144 0 287.5 59t265.5 154q-224 66 -332 66q-139 0 -234 -54l-63 254q144 66 289 66q90 0 174 -18t155.5 -42.5t150 -49t191 -39.5t244.5 -11l-47 -266q-108 12 -156 12q-82 0 -168 -63q61 -68 213 -68h236v-264h-215q-155 0 -266.5 50
t-157.5 136q-116 -85 -254 -135.5t-330 -50.5z" />
    <glyph glyph-name="uni062D.fina" unicode="&#x62d;" horiz-adv-x="1380" arabic-form="final" 
d="M934 -760q-133 0 -253.5 25t-221.5 76t-175 122.5t-115.5 169.5t-41.5 213q0 121 45.5 235t120.5 201t165.5 152.5t188.5 104.5q-128 32 -246 32q-144 0 -260 -55l-71 252q151 70 305 70q89 0 173.5 -18t157.5 -43.5t152 -51t189.5 -43.5t236.5 -18l-45 -258
q-130 15 -270 0q36 -63 96 -102.5t143 -39.5h172v-264h-168q-175 0 -291 93.5t-161 264.5q-160 -54 -274 -161.5t-156 -268.5q3 -127 83 -223t223.5 -147.5t330.5 -51.5q122 0 256 21l28 -258q-176 -29 -317 -29z" />
    <glyph glyph-name="uni062E.init" unicode="&#x62e;" horiz-adv-x="1323" arabic-form="initial" 
d="M96 0h-96l-37 133l37 131h113q277 0 553 213q-232 66 -338 66q-126 0 -228 -54l-63 254q144 66 289 66q90 0 174 -18t155.5 -42.5t150 -49t191 -39.5t244.5 -11l-47 -266q-108 12 -156 12t-96.5 -22t-94 -56.5t-96.5 -76.5t-115 -84.5t-138.5 -77t-178.5 -56.5t-223 -22z
M516 1149q0 61 40 102t101 41t101.5 -41.5t40.5 -101.5q0 -62 -40.5 -105t-101.5 -43t-101 43t-40 105z" />
    <glyph glyph-name="uni062E.medi" unicode="&#x62e;" horiz-adv-x="1318" arabic-form="medial" 
d="M96 0h-96l-37 133l37 131h113q144 0 287.5 59t265.5 154q-224 66 -332 66q-139 0 -234 -54l-63 254q144 66 289 66q90 0 174 -18t155.5 -42.5t150 -49t191 -39.5t244.5 -11l-47 -266q-108 12 -156 12q-82 0 -168 -63q61 -68 213 -68h236v-264h-215q-155 0 -266.5 50
t-157.5 136q-116 -85 -254 -135.5t-330 -50.5zM516 1149q0 61 40 102t101 41t101.5 -41.5t40.5 -101.5q0 -62 -40.5 -105t-101.5 -43t-101 43t-40 105z" />
    <glyph glyph-name="uni062E.fina" unicode="&#x62e;" horiz-adv-x="1380" arabic-form="final" 
d="M934 -760q-133 0 -253.5 25t-221.5 76t-175 122.5t-115.5 169.5t-41.5 213q0 121 45.5 235t120.5 201t165.5 152.5t188.5 104.5q-128 32 -246 32q-144 0 -260 -55l-71 252q151 70 305 70q89 0 173.5 -18t157.5 -43.5t152 -51t189.5 -43.5t236.5 -18l-45 -258
q-130 15 -270 0q36 -63 96 -102.5t143 -39.5h172v-264h-168q-175 0 -291 93.5t-161 264.5q-160 -54 -274 -161.5t-156 -268.5q3 -127 83 -223t223.5 -147.5t330.5 -51.5q122 0 256 21l28 -258q-176 -29 -317 -29zM610 1155q0 60 40.5 101.5t101.5 41.5t101 -41t40 -102
q0 -62 -40 -104.5t-101 -42.5t-101.5 42.5t-40.5 104.5z" />
    <glyph glyph-name="uni062F.fina" unicode="&#x62f;" horiz-adv-x="1132" arabic-form="final" 
d="M1055 0q-181 0 -299 150l-62 -95q-84 -43 -260.5 -55t-357.5 14l22 267q374 -41 561 34q-90 198 -159 576l245 49q52 -270 97.5 -414t96.5 -203t126 -59h68v-264h-78z" />
    <glyph glyph-name="uni0630.fina" unicode="&#x630;" horiz-adv-x="1132" arabic-form="final" 
d="M1055 0q-181 0 -299 150l-62 -95q-84 -43 -260.5 -55t-357.5 14l22 267q374 -41 561 34q-90 198 -159 576l245 49q52 -270 97.5 -414t96.5 -203t126 -59h68v-264h-78zM455 1237q0 61 40 102t101 41t101 -41t40 -102q0 -62 -40 -104.5t-101 -42.5t-101 42.5t-40 104.5z
" />
    <glyph glyph-name="uni0631.fina" unicode="&#x631;" horiz-adv-x="964" arabic-form="final" 
d="M-12 -258q214 108 343 225.5t185 253.5q-20 137 -139 465l237 88l105 -299q41 -126 84 -168.5t117 -42.5h45v-264h-76q-104 0 -182 55q-59 -156 -205 -285.5t-373 -246.5z" />
    <glyph glyph-name="uni0632.fina" unicode="&#x632;" horiz-adv-x="964" arabic-form="final" 
d="M-12 -258q214 108 343 225.5t185 253.5q-20 137 -139 465l237 88l105 -299q41 -126 84 -168.5t117 -42.5h45v-264h-76q-104 0 -182 55q-59 -156 -205 -285.5t-373 -246.5zM309 1083q0 61 40.5 102.5t101.5 41.5t101 -41.5t40 -102.5q0 -62 -40 -104.5t-101 -42.5
t-101.5 42.5t-40.5 104.5z" />
    <glyph glyph-name="uni0633.init" unicode="&#x633;" horiz-adv-x="1601" arabic-form="initial" 
d="M305 0h-305l-37 133l37 131h225q23 120 23 318v188h244v-371q0 -76 27 -105.5t91 -29.5h133q21 93 21 189v317h244v-360q0 -87 27.5 -116.5t92.5 -29.5h99q18 99 18 223v283h242v-307q0 -269 -72 -463h-282q-72 0 -129.5 31t-90.5 84q-38 -71 -88 -115h-235
q-69 0 -123 26.5t-86 71.5q-24 -49 -76 -98z" />
    <glyph glyph-name="uni0633.medi" unicode="&#x633;" horiz-adv-x="1693" arabic-form="medial" 
d="M305 0h-305l-37 133l37 131h225q23 110 23 283v223h244v-379q0 -71 29.5 -99t92.5 -28h131q19 108 19 209v297h244v-379q0 -69 29.5 -98t92.5 -29h95q20 78 20 170v336h244v-379q0 -69 27.5 -98t87.5 -29h90v-264h-82q-146 0 -221 113q-39 -74 -91 -113h-167
q-71 0 -127.5 30.5t-90.5 82.5q-42 -72 -92 -113h-233q-68 0 -122.5 27.5t-86.5 72.5q-31 -55 -76 -100z" />
    <glyph glyph-name="uni0633.fina" unicode="&#x633;" horiz-adv-x="2490" arabic-form="final" 
d="M629 -279q-237 0 -378.5 134.5t-141.5 371.5q0 144 54.5 289t153.5 266l191 -145q-69 -86 -106 -185t-37 -188q0 -136 82.5 -207t222.5 -71q138 0 235 63.5t135 181.5q-29 179 -108 488l248 65l80 -325q29 -116 65.5 -155.5t112.5 -39.5h116q19 90 19 197v309h244v-362
q0 -87 26.5 -115.5t93.5 -28.5h86q19 81 19 201v305h244v-373q0 -75 26 -104t90 -29h88v-264h-80q-137 0 -212 117q-36 -71 -89 -117h-167q-73 0 -130 31.5t-92 87.5q-33 -71 -88 -119h-198q-140 0 -217 80q-63 -155 -220 -257t-368 -102z" />
    <glyph glyph-name="uni0634.init" unicode="&#x634;" horiz-adv-x="1601" arabic-form="initial" 
d="M305 0h-305l-37 133l37 131h225q23 120 23 318v188h244v-371q0 -76 27 -105.5t91 -29.5h133q21 93 21 189v317h244v-360q0 -87 27.5 -116.5t92.5 -29.5h99q18 99 18 223v283h242v-307q0 -269 -72 -463h-282q-72 0 -129.5 31t-90.5 84q-38 -71 -88 -115h-235
q-69 0 -123 26.5t-86 71.5q-24 -49 -76 -98zM614 1130q0 52 34.5 87.5t86.5 35.5t85.5 -35.5t33.5 -87.5q0 -53 -33.5 -87.5t-85.5 -34.5t-86.5 34.5t-34.5 87.5zM776 1393q0 52 34.5 87.5t86.5 35.5q51 0 85 -36t34 -87q0 -53 -34 -89t-85 -36q-52 0 -86.5 36t-34.5 89z
M938 1130q0 52 33.5 87.5t85.5 35.5t86.5 -35.5t34.5 -87.5q0 -53 -34.5 -87.5t-86.5 -34.5t-85.5 34.5t-33.5 87.5z" />
    <glyph glyph-name="uni0634.medi" unicode="&#x634;" horiz-adv-x="1693" arabic-form="medial" 
d="M305 0h-305l-37 133l37 131h225q23 110 23 283v223h244v-379q0 -71 29.5 -99t92.5 -28h131q19 108 19 209v297h244v-379q0 -69 29.5 -98t92.5 -29h95q20 78 20 170v336h244v-379q0 -69 27.5 -98t87.5 -29h90v-264h-82q-146 0 -221 113q-39 -74 -91 -113h-167
q-71 0 -127.5 30.5t-90.5 82.5q-42 -72 -92 -113h-233q-68 0 -122.5 27.5t-86.5 72.5q-31 -55 -76 -100zM614 1130q0 52 34.5 87.5t86.5 35.5t85.5 -35.5t33.5 -87.5q0 -53 -33.5 -87.5t-85.5 -34.5t-86.5 34.5t-34.5 87.5zM776 1393q0 52 34.5 87.5t86.5 35.5q51 0 85 -36
t34 -87q0 -53 -34 -89t-85 -36q-52 0 -86.5 36t-34.5 89zM938 1130q0 52 33.5 87.5t85.5 35.5t86.5 -35.5t34.5 -87.5q0 -53 -34.5 -87.5t-86.5 -34.5t-85.5 34.5t-33.5 87.5z" />
    <glyph glyph-name="uni0634.fina" unicode="&#x634;" horiz-adv-x="2490" arabic-form="final" 
d="M629 -279q-237 0 -378.5 134.5t-141.5 371.5q0 144 54.5 289t153.5 266l191 -145q-69 -86 -106 -185t-37 -188q0 -136 82.5 -207t222.5 -71q138 0 235 63.5t135 181.5q-29 179 -108 488l248 65l80 -325q29 -116 65.5 -155.5t112.5 -39.5h116q19 90 19 197v309h244v-362
q0 -87 26.5 -115.5t93.5 -28.5h86q19 81 19 201v305h244v-373q0 -75 26 -104t90 -29h88v-264h-80q-137 0 -212 117q-36 -71 -89 -117h-167q-73 0 -130 31.5t-92 87.5q-33 -71 -88 -119h-198q-140 0 -217 80q-63 -155 -220 -257t-368 -102zM1442 1130q0 52 34.5 87.5
t86.5 35.5t85 -35.5t33 -87.5q0 -53 -33 -87.5t-85 -34.5t-86.5 34.5t-34.5 87.5zM1604 1393q0 52 34 87.5t86 35.5q51 0 85 -36t34 -87q0 -53 -34 -89t-85 -36q-52 0 -86 36t-34 89zM1765 1130q0 52 33.5 87.5t85.5 35.5t86.5 -35.5t34.5 -87.5q0 -53 -34.5 -87.5
t-86.5 -34.5t-85.5 34.5t-33.5 87.5z" />
    <glyph glyph-name="uni0635.init" unicode="&#x635;" horiz-adv-x="1560" arabic-form="initial" 
d="M242 0h-242l-37 133l37 131h141q17 84 17 178v328h241v-190q154 131 319.5 208.5t311.5 77.5q102 0 186 -38t138 -102t83 -145t29 -169q0 -412 -643 -412h-243q-193 0 -265 115q-38 -77 -73 -115zM422 324q36 -60 160 -60h213q321 0 432 82q0 124 -60 190t-176 66
q-137 0 -291.5 -81.5t-277.5 -196.5z" />
    <glyph glyph-name="uni0635.medi" unicode="&#x635;" horiz-adv-x="1572" arabic-form="medial" 
d="M242 0h-242l-37 133l37 131h143q15 79 15 178v328h241v-190q155 132 315.5 209t305.5 77q105 0 191 -37.5t140 -101t83.5 -144t29.5 -169.5q0 -88 -26 -150h135v-264h-995q-192 0 -265 113q-38 -78 -71 -113zM422 324q19 -35 57 -47.5t103 -12.5h213q316 0 430 82
q2 119 -59.5 187.5t-178.5 68.5q-131 0 -285 -81.5t-280 -196.5z" />
    <glyph glyph-name="uni0635.fina" unicode="&#x635;" horiz-adv-x="2451" arabic-form="final" 
d="M600 -274q-109 0 -201 30t-164 89.5t-112.5 157t-40.5 224.5q0 140 52.5 283.5t156.5 271.5l190 -145q-72 -87 -107.5 -184.5t-35.5 -188.5q0 -136 78.5 -206t220.5 -70q136 0 239.5 66t139.5 188q-41 246 -109 491l250 70l64 -242q139 127 313 216t336 89
q190 0 317 -126t127 -316q0 -94 -35 -162q25 2 76 2h96v-264h-962q-174 0 -303 70q-62 -153 -222.5 -248.5t-363.5 -95.5zM1288 350q25 -45 69 -65.5t122 -20.5h123q189 0 299.5 18t173.5 66q4 68 -17.5 123.5t-77.5 93t-139 37.5q-125 0 -275.5 -73t-277.5 -179z" />
    <glyph glyph-name="uni0636.init" unicode="&#x636;" horiz-adv-x="1560" arabic-form="initial" 
d="M242 0h-242l-37 133l37 131h141q17 84 17 178v328h241v-190q154 131 319.5 208.5t311.5 77.5q102 0 186 -38t138 -102t83 -145t29 -169q0 -412 -643 -412h-243q-193 0 -265 115q-38 -77 -73 -115zM422 324q36 -60 160 -60h213q321 0 432 82q0 124 -60 190t-176 66
q-137 0 -291.5 -81.5t-277.5 -196.5zM651 1149q0 60 40.5 101.5t101.5 41.5t101 -41t40 -102q0 -62 -40 -105t-101 -43t-101.5 43t-40.5 105z" />
    <glyph glyph-name="uni0636.medi" unicode="&#x636;" horiz-adv-x="1572" arabic-form="medial" 
d="M242 0h-242l-37 133l37 131h143q15 79 15 178v328h241v-190q155 132 315.5 209t305.5 77q105 0 191 -37.5t140 -101t83.5 -144t29.5 -169.5q0 -88 -26 -150h135v-264h-995q-192 0 -265 113q-38 -78 -71 -113zM422 324q19 -35 57 -47.5t103 -12.5h213q316 0 430 82
q2 119 -59.5 187.5t-178.5 68.5q-131 0 -285 -81.5t-280 -196.5zM651 1149q0 60 40.5 101.5t101.5 41.5t101 -41t40 -102q0 -62 -40 -105t-101 -43t-101.5 43t-40.5 105z" />
    <glyph glyph-name="uni0636.fina" unicode="&#x636;" horiz-adv-x="2451" arabic-form="final" 
d="M600 -274q-109 0 -201 30t-164 89.5t-112.5 157t-40.5 224.5q0 140 52.5 283.5t156.5 271.5l190 -145q-72 -87 -107.5 -184.5t-35.5 -188.5q0 -136 78.5 -206t220.5 -70q136 0 239.5 66t139.5 188q-41 246 -109 491l250 70l64 -242q139 127 313 216t336 89
q190 0 317 -126t127 -316q0 -94 -35 -162q25 2 76 2h96v-264h-962q-174 0 -303 70q-62 -153 -222.5 -248.5t-363.5 -95.5zM1264 1149q0 61 40 102t101 41t101 -41t40 -102q0 -62 -40 -105t-101 -43t-101 43t-40 105zM1288 350q25 -45 69 -65.5t122 -20.5h123q189 0 299.5 18
t173.5 66q4 68 -17.5 123.5t-77.5 93t-139 37.5q-125 0 -275.5 -73t-277.5 -179z" />
    <glyph glyph-name="uni0637.init" unicode="&#x637;" horiz-adv-x="1415" arabic-form="initial" 
d="M442 0h-442l-37 133l37 131h90q73 122 160 232q20 171 20 364v526h242v-372q0 -186 -10 -273q178 125 358 125q105 0 193.5 -39t146 -103t89.5 -144.5t32 -165.5q0 -75 -27 -136t-90.5 -114t-163 -88.5t-251 -55.5t-347.5 -20zM330 264h157q448 0 594 105q2 101 -70 167
t-192 66q-122 0 -239 -78.5t-250 -259.5z" />
    <glyph glyph-name="uni0637.medi" unicode="&#x637;" horiz-adv-x="1468" arabic-form="medial" 
d="M1468 0h-1468l-37 133l37 131h129q73 122 160 232q20 174 20 364v526h242v-372q0 -184 -10 -271q175 123 356 123q104 0 193.5 -39.5t147 -103t90 -140.5t32.5 -153q0 -99 -70 -182q69 16 133 16h45v-264zM369 264h157q445 0 594 105q0 101 -72 167t-192 66
q-122 0 -238 -78.5t-249 -259.5z" />
    <glyph glyph-name="uni0637.fina" unicode="&#x637;" horiz-adv-x="1697" arabic-form="final" 
d="M121 0l-39 264h252q81 127 158 225q20 176 20 371v526h242v-372q0 -177 -11 -273q173 125 355 125q106 0 195.5 -39t147.5 -103t90 -144.5t32 -165.5q0 -86 -37 -156q65 6 119 6h53v-264h-1577zM569 264h160q448 0 594 105q3 94 -73 163.5t-197 69.5q-120 0 -235.5 -78.5
t-248.5 -259.5z" />
    <glyph glyph-name="uni0638.init" unicode="&#x638;" horiz-adv-x="1415" arabic-form="initial" 
d="M442 0h-442l-37 133l37 131h90q73 122 160 232q20 171 20 364v526h242v-372q0 -186 -10 -273q178 125 358 125q105 0 193.5 -39t146 -103t89.5 -144.5t32 -165.5q0 -75 -27 -136t-90.5 -114t-163 -88.5t-251 -55.5t-347.5 -20zM330 264h157q448 0 594 105q2 101 -70 167
t-192 66q-122 0 -239 -78.5t-250 -259.5zM723 1190q0 61 40 102t101 41t101.5 -41.5t40.5 -101.5q0 -62 -40.5 -105t-101.5 -43t-101 43t-40 105z" />
    <glyph glyph-name="uni0638.medi" unicode="&#x638;" horiz-adv-x="1468" arabic-form="medial" 
d="M1468 0h-1468l-37 133l37 131h129q73 122 160 232q20 174 20 364v526h242v-372q0 -184 -10 -271q175 123 356 123q104 0 193.5 -39.5t147 -103t90 -140.5t32.5 -153q0 -99 -70 -182q69 16 133 16h45v-264zM369 264h157q445 0 594 105q0 101 -72 167t-192 66
q-122 0 -238 -78.5t-249 -259.5zM770 1190q0 61 40 102t101 41t101.5 -41.5t40.5 -101.5q0 -62 -40.5 -105t-101.5 -43t-101 43t-40 105z" />
    <glyph glyph-name="uni0638.fina" unicode="&#x638;" horiz-adv-x="1697" arabic-form="final" 
d="M121 0l-39 264h252q81 127 158 225q20 176 20 371v526h242v-372q0 -177 -11 -273q173 125 355 125q106 0 195.5 -39t147.5 -103t90 -144.5t32 -165.5q0 -86 -37 -156q65 6 119 6h53v-264h-1577zM569 264h160q448 0 594 105q3 94 -73 163.5t-197 69.5q-120 0 -235.5 -78.5
t-248.5 -259.5zM969 1190q0 61 40 102t101 41t101 -41t40 -102q0 -62 -40 -105t-101 -43t-101 43t-40 105z" />
    <glyph glyph-name="uni0639.init" unicode="&#x639;" horiz-adv-x="1034" arabic-form="initial" 
d="M907 0h-907l-37 133l37 131h186q-75 107 -75 236q0 76 25.5 143t74 121t129 85.5t182.5 31.5q192 0 357 -97l-97 -231q-128 70 -258 70q-106 0 -168 -43q-17 -85 9 -156.5t94 -115.5t166 -44h319z" />
    <glyph glyph-name="uni0639.medi" unicode="&#x639;" horiz-adv-x="1169" arabic-form="medial" 
d="M530 0h-530l-37 133l37 131h408q-110 113 -285 217v248q84 57 212 92t259 35q204 0 321 -76t117 -221q0 -163 -147 -295h284v-264h-323q-130 0 -219 74q-56 -53 -97 -74zM377 578q151 -101 262 -228q158 122 176 201q-55 67 -221 67q-124 0 -217 -40z" />
    <glyph glyph-name="uni0639.fina" unicode="&#x639;" horiz-adv-x="1132" arabic-form="final" 
d="M782 -758q-112 0 -212 16.5t-189 53.5t-153 91.5t-101 136t-37 181.5q0 170 95.5 310.5t232.5 212.5q-198 177 -322 239v252q97 57 228.5 91t257.5 34q66 0 126 -10t115 -33t95 -56.5t64 -84.5t24 -113q0 -166 -158 -299h86h199v-264h-215q-122 0 -192 14t-120 64
q-126 -54 -214 -129t-116 -164q9 -93 83 -158t185 -93.5t247 -27.5q101 2 264 21l24 -256q-142 -29 -297 -29zM348 582q65 -39 138 -99t128 -121q136 101 179 189q-17 33 -78.5 51.5t-139.5 18.5q-129 0 -227 -39z" />
    <glyph glyph-name="uni063A.init" unicode="&#x63a;" horiz-adv-x="1034" arabic-form="initial" 
d="M907 0h-907l-37 133l37 131h186q-75 107 -75 236q0 76 25.5 143t74 121t129 85.5t182.5 31.5q192 0 357 -97l-97 -231q-128 70 -258 70q-106 0 -168 -43q-17 -85 9 -156.5t94 -115.5t166 -44h319zM395 1194q0 60 40.5 101.5t101.5 41.5t101 -41t40 -102q0 -62 -40 -104.5
t-101 -42.5t-101.5 42.5t-40.5 104.5z" />
    <glyph glyph-name="uni063A.medi" unicode="&#x63a;" horiz-adv-x="1169" arabic-form="medial" 
d="M530 0h-530l-37 133l37 131h408q-110 113 -285 217v248q84 57 212 92t259 35q204 0 321 -76t117 -221q0 -163 -147 -295h284v-264h-323q-130 0 -219 74q-56 -53 -97 -74zM377 578q151 -101 262 -228q158 122 176 201q-55 67 -221 67q-124 0 -217 -40zM432 1174
q0 61 40 102t101 41t101.5 -41.5t40.5 -101.5q0 -62 -40.5 -105t-101.5 -43t-101 43t-40 105z" />
    <glyph glyph-name="uni063A.fina" unicode="&#x63a;" horiz-adv-x="1132" arabic-form="final" 
d="M782 -758q-112 0 -212 16.5t-189 53.5t-153 91.5t-101 136t-37 181.5q0 170 95.5 310.5t232.5 212.5q-198 177 -322 239v252q97 57 228.5 91t257.5 34q66 0 126 -10t115 -33t95 -56.5t64 -84.5t24 -113q0 -166 -158 -299h86h199v-264h-215q-122 0 -192 14t-120 64
q-126 -54 -214 -129t-116 -164q9 -93 83 -158t185 -93.5t247 -27.5q101 2 264 21l24 -256q-142 -29 -297 -29zM348 582q65 -39 138 -99t128 -121q136 101 179 189q-17 33 -78.5 51.5t-139.5 18.5q-129 0 -227 -39zM432 1174q0 61 40 102t101 41t101.5 -41.5t40.5 -101.5
q0 -62 -40.5 -105t-101.5 -43t-101 43t-40 105z" />
    <glyph glyph-name="uni0640.fina" unicode="&#x640;" horiz-adv-x="569" 
d="M0 0v264h569v-264h-569z" />
    <glyph glyph-name="uni0641.init" unicode="&#x641;" horiz-adv-x="1060" arabic-form="initial" 
d="M901 0h-901l-37 133l37 131h209q-92 82 -92 191q0 54 20.5 117t59.5 123t89 109.5t114.5 80t131.5 30.5q92 0 173 -56t135 -145.5t85 -199t31 -217.5q0 -160 -55 -297zM340 453q46 -67 148.5 -119.5t218.5 -71.5q2 14 2 41q0 123 -60.5 238.5t-124.5 115.5
q-48 0 -108 -60.5t-76 -143.5zM387 1208q0 61 40 102.5t101 41.5t101.5 -41.5t40.5 -102.5q0 -62 -40.5 -104.5t-101.5 -42.5t-101 42.5t-40 104.5z" />
    <glyph glyph-name="uni0641.medi" unicode="&#x641;" horiz-adv-x="1056" arabic-form="medial" 
d="M246 0h-246l-37 133l37 131h199q-72 86 -72 201q0 80 41.5 162.5t105 144.5t143 101.5t152.5 39.5q76 0 146 -45t116 -112.5t73.5 -144.5t27.5 -144q0 -117 -72 -203h197v-264h-293q-61 0 -126.5 23t-115.5 63q-115 -86 -276 -86zM358 465q14 -36 62.5 -82t109.5 -88
q62 38 108.5 82.5t63.5 83.5q-3 70 -50 136.5t-101 66.5t-119 -68t-74 -131zM391 1208q0 61 40 102.5t101 41.5t101.5 -41.5t40.5 -102.5q0 -62 -40.5 -104.5t-101.5 -42.5t-101 42.5t-40 104.5z" />
    <glyph glyph-name="uni0641.fina" unicode="&#x641;" horiz-adv-x="2023" arabic-form="final" 
d="M537 0q-223 0 -339 113.5t-116 306.5q0 240 176 477l199 -135q-65 -98 -92 -168t-27 -137q0 -100 53.5 -146.5t167.5 -46.5h608q-73 83 -73 195q0 78 40.5 161.5t103 147.5t143 105.5t155.5 41.5q77 0 146.5 -46t115.5 -115.5t73 -148t27 -146.5q0 -108 -69 -195h194
v-264h-292q-132 0 -242 88q-114 -88 -279 -88h-673zM1327 457q14 -34 61 -80t109 -84q125 69 174 162q-3 72 -51 140.5t-102 68.5q-57 0 -122.5 -73.5t-68.5 -133.5zM1374 1208q0 61 40.5 102.5t101.5 41.5t101 -41.5t40 -102.5q0 -62 -40 -104.5t-101 -42.5t-101.5 42.5
t-40.5 104.5z" />
    <glyph glyph-name="uni0642.init" unicode="&#x642;" horiz-adv-x="1060" arabic-form="initial" 
d="M901 0h-901l-37 133l37 131h209q-92 82 -92 191q0 54 20.5 117t59.5 123t89 109.5t114.5 80t131.5 30.5q92 0 173 -56t135 -145.5t85 -199t31 -217.5q0 -160 -55 -297zM221 1214q0 61 38.5 101.5t98.5 40.5t99 -41t39 -101q0 -59 -39.5 -100t-98.5 -41t-98 41t-39 100z
M340 453q46 -67 148.5 -119.5t218.5 -71.5q2 14 2 41q0 123 -60.5 238.5t-124.5 115.5q-48 0 -108 -60.5t-76 -143.5zM559 1214q0 61 38.5 101.5t98.5 40.5t99 -41t39 -101q0 -59 -39.5 -100t-98.5 -41t-98 41t-39 100z" />
    <glyph glyph-name="uni0642.medi" unicode="&#x642;" horiz-adv-x="1056" arabic-form="medial" 
d="M246 0h-246l-37 133l37 131h199q-72 86 -72 201q0 80 41.5 162.5t105 144.5t143 101.5t152.5 39.5q76 0 146 -45t116 -112.5t73.5 -144.5t27.5 -144q0 -117 -72 -203h197v-264h-293q-61 0 -126.5 23t-115.5 63q-115 -86 -276 -86zM225 1214q0 61 38.5 101.5t98.5 40.5
t99 -41t39 -101q0 -59 -39.5 -100t-98.5 -41t-98 41t-39 100zM358 465q14 -36 62.5 -82t109.5 -88q62 38 108.5 82.5t63.5 83.5q-3 70 -50 136.5t-101 66.5t-119 -68t-74 -131zM563 1214q0 61 38.5 101.5t98.5 40.5t99 -41t39 -101q0 -59 -39.5 -100t-98.5 -41t-98 41
t-39 100z" />
    <glyph glyph-name="uni0642.fina" unicode="&#x642;" horiz-adv-x="1554" arabic-form="final" 
d="M733 -426q-108 0 -203 19t-178 61t-142.5 104.5t-93.5 154t-34 204.5q0 292 199 540l196 -143q-69 -89 -104 -192t-35 -185q0 -103 58.5 -171.5t152.5 -98t219 -29.5q135 0 242.5 32.5t165.5 84.5q8 31 10 51q-87 6 -163 20t-151 41.5t-127.5 66t-85 98t-32.5 133.5
q0 54 18.5 118t55 127.5t85 116t114 85t136.5 32.5q90 0 164.5 -52.5t122 -138t76 -185.5t35.5 -204h120v-264h-143q-41 -144 -142 -241.5t-235.5 -141t-300.5 -43.5zM711 1186q0 60 38.5 100.5t98.5 40.5t98.5 -40.5t38.5 -100.5q0 -59 -39 -100.5t-98 -41.5t-98 41.5
t-39 100.5zM838 371q111 -87 358 -103q-14 137 -63 227.5t-119 90.5q-60 0 -112 -64t-64 -151zM1049 1186q0 60 38.5 100.5t98.5 40.5t98.5 -40.5t38.5 -100.5q0 -59 -39 -100.5t-98 -41.5t-98 41.5t-39 100.5z" />
    <glyph glyph-name="uni0643.init" unicode="&#x643;" horiz-adv-x="964" arabic-form="initial" 
d="M692 0h-692l-37 133l37 131h541q-46 159 -172 289t-299 192l-33 265l801 356l92 -231l-574 -254q205 -123 323 -313.5t124 -420.5z" />
    <glyph glyph-name="uni0643.medi" unicode="&#x643;" horiz-adv-x="1161" arabic-form="medial" 
d="M432 0h-432l-37 133l37 131h340q29 66 29 123q0 98 -72.5 192t-210.5 154l-33 264l905 369l93 -244l-676 -266q66 -42 137 -108t127 -128.5t119 -128.5t117.5 -115t118.5 -80.5t126 -31.5h41v-264h-49q-256 0 -510 299q-21 -185 -170 -299z" />
    <glyph glyph-name="uni0643.fina" unicode="&#x643;" horiz-adv-x="1898" arabic-form="final" 
d="M571 0q-209 0 -328.5 110.5t-119.5 311.5q0 232 176 475l199 -135q-65 -100 -92 -170t-27 -135q0 -95 53 -144t178 -49h844q19 122 19 318v804h243v-997q0 -69 27.5 -97t95.5 -28h59v-264h-83q-169 0 -220 123q-30 -64 -79 -123h-945zM686 721l137 29q-61 67 -61 165
q0 94 58.5 159t172.5 65q127 0 230 -66l-74 -155q-70 43 -150 43q-38 0 -67 -13q-4 -10 -4 -30q0 -62 39 -104t110 -34l187 21l12 -170q-249 -25 -555 -82z" />
    <glyph glyph-name="uni0644.init" unicode="&#x644;" horiz-adv-x="536" arabic-form="initial" 
d="M371 0h-371l-37 133l37 131h160q12 181 12 414v708h242v-708q0 -480 -43 -678z" />
    <glyph glyph-name="uni0644.medi" unicode="&#x644;" horiz-adv-x="608" arabic-form="medial" 
d="M207 0h-207l-37 133l37 131h141q25 125 25 318v804h246v-974q0 -85 33 -116.5t108 -31.5h55v-264h-98q-91 0 -142 32t-79 97q-28 -72 -82 -129z" />
    <glyph glyph-name="uni0644.fina" unicode="&#x644;" horiz-adv-x="1484" arabic-form="final" 
d="M647 -442q-121 0 -221 29.5t-177 88.5t-120 157t-43 226q0 142 52.5 286t156.5 273l192 -147q-145 -185 -145 -367q0 -142 88.5 -213t247.5 -71q239 0 344 155q27 178 27 586v825h241v-970q0 -83 34 -117.5t103 -34.5h58v-264h-94q-71 0 -131 29q-18 -124 -58 -203
q-64 -129 -214 -198.5t-341 -69.5z" />
    <glyph glyph-name="uni0645.init" unicode="&#x645;" horiz-adv-x="1087" arabic-form="initial" 
d="M840 -25q-292 21 -523 160l-51 -135h-266l-37 133l37 131h121q92 261 226.5 413t260.5 152q80 0 154.5 -63.5t123 -155t78 -188t29.5 -168.5q0 -154 -153 -279zM418 371q144 -85 348 -111q-24 99 -72 188t-106 148q-89 -64 -170 -225z" />
    <glyph glyph-name="uni0645.medi" unicode="&#x645;" horiz-adv-x="1234" arabic-form="medial" 
d="M264 0h-264l-37 133l37 131h119q95 257 222 410t267 153q63 0 116 -31t90 -80.5t69.5 -109.5t61.5 -120.5t59.5 -110t71.5 -80.5t89 -31h70v-264h-49q-167 0 -268 78l-41 -96q-345 7 -562 165q-4 -13 -23 -65t-28 -82zM420 385q131 -96 362 -125q-10 19 -40 83
t-46.5 94.5t-49 76.5t-68.5 78q-85 -71 -158 -207z" />
    <glyph glyph-name="uni0645.fina" unicode="&#x645;" horiz-adv-x="1517" arabic-form="final" 
d="M297 -719q-203 737 -203 971q0 86 28.5 162.5t76 133t111 103.5t132.5 78.5t142 53t138 31t122 9.5q88 0 156.5 -31t111 -80t75.5 -108.5t58.5 -119.5t52 -109t63.5 -80t85 -31h72v-264h-58q-152 0 -229 61l-37 -77q-151 0 -306.5 47t-265.5 135.5t-110 191.5
q0 70 45 134q-66 -25 -133 -65.5t-90 -66.5q24 -265 211 -1022zM702 399q65 -56 171 -101t223 -67q-21 35 -68 121t-84 145t-76 99q-51 -40 -95.5 -92.5t-70.5 -104.5z" />
    <glyph glyph-name="uni0646.init" unicode="&#x646;" horiz-adv-x="593" arabic-form="initial" 
d="M428 0h-428l-37 133l37 131h211q12 98 12 264v283h242v-283q0 -327 -37 -528zM135 1184q0 61 40 102t101 41t101.5 -41.5t40.5 -101.5q0 -62 -40.5 -105t-101.5 -43t-101 43t-40 105z" />
    <glyph glyph-name="uni0646.medi" unicode="&#x646;" horiz-adv-x="657" arabic-form="medial" 
d="M231 0h-231l-37 133l37 131h166q22 104 22 318v229h246v-381q0 -95 35 -130.5t115 -35.5h73v-264h-127q-158 0 -217 129q-26 -65 -82 -129zM168 1116q0 61 40 102.5t101 41.5t101.5 -41.5t40.5 -102.5q0 -62 -40.5 -104.5t-101.5 -42.5t-101 42.5t-40 104.5z" />
    <glyph glyph-name="uni0646.fina" unicode="&#x646;" horiz-adv-x="1423" arabic-form="final" 
d="M614 -279q-236 0 -383.5 130t-150.5 364q-2 143 52 293t157 276l190 -143q-67 -84 -105 -184t-38 -193q0 -135 83.5 -205.5t225.5 -70.5q130 0 231 61.5t134 169.5q-25 193 -105 518l260 68l80 -369q16 -75 35.5 -113t41 -48.5t60.5 -10.5h41v-264h-82q-105 0 -170 41
q-77 -154 -223 -237t-334 -83zM535 1026q0 61 40 102t101 41t101 -41t40 -102q0 -62 -40 -104.5t-101 -42.5t-101 42.5t-40 104.5z" />
    <glyph glyph-name="uni0647.init" unicode="&#x647;" horiz-adv-x="1323" arabic-form="initial" 
d="M172 0h-172l-37 133l37 131h127q-43 68 -43 160q0 107 60.5 205.5t162.5 158.5l47 205q198 -13 365 -77.5t286 -172t177 -265t37 -345.5l-105 -133h-397q-179 0 -271 92q-56 -50 -120 -71t-154 -21zM307 428q17 -40 55.5 -81t86.5 -73q109 63 157 146q-3 72 -41.5 130
t-91.5 58q-59 0 -111.5 -63.5t-54.5 -116.5zM756 625q52 -87 49 -203q-3 -90 -45 -158h233q-3 105 -70 201t-167 160z" />
    <glyph glyph-name="uni0647.medi" unicode="&#x647;" horiz-adv-x="921" arabic-form="medial" 
d="M487 -469q-84 0 -151.5 27t-112 71t-75.5 106.5t-46.5 127t-21.5 137.5h-80l-37 133l37 131h86q19 184 110.5 356.5t235.5 288.5h193q67 -73 107 -183t40 -228q0 -143 -67 -234h217v-264h-156q55 -61 55 -156q0 -128 -93 -220.5t-241 -92.5zM317 0q10 -108 57 -166.5
t122 -58.5q56 0 92.5 30t44.5 76q-29 66 -104.5 91t-211.5 28zM324 252h86q61 11 101 61t40 129q0 105 -55 222q-74 -88 -118.5 -197.5t-53.5 -214.5z" />
    <glyph glyph-name="uni0647.fina" unicode="&#x647;" horiz-adv-x="1155" arabic-form="final" 
d="M492 76q-185 0 -303.5 102.5t-118.5 239.5q0 73 39.5 139.5t102.5 114.5t143.5 86.5t160.5 61t156 32.5v137h243v-356q0 -96 3 -154t11 -104t25 -68t41 -32.5t62 -10.5h98v-264h-158q-99 0 -162.5 33t-99.5 106q-109 -63 -243 -63zM305 438q23 -53 82 -79.5t131 -26.5
q92 0 164 41q-10 110 -10 231q-120 -14 -221 -59t-146 -107z" />
    <glyph glyph-name="uni0648.fina" unicode="&#x648;" horiz-adv-x="1011" arabic-form="final" 
d="M106 -276q355 106 482 280q-265 17 -386.5 96t-121.5 222q0 76 31 161t83 156.5t129 118.5t160 47q103 0 193 -75t144.5 -199t62.5 -267h129v-264h-164q-33 -93 -96.5 -173.5t-147 -141.5t-176 -106.5t-197.5 -80.5zM295 330q83 -63 352 -66q-9 65 -31 127t-62 109
t-87 47q-63 0 -113.5 -65.5t-58.5 -151.5z" />
    <glyph glyph-name="uni0649.fina" unicode="&#x649;" horiz-adv-x="1421" arabic-form="final" 
d="M705 -410q-98 0 -186 16t-169 53.5t-139.5 93.5t-93.5 142t-35 193q0 128 50.5 247t158.5 257l192 -148q-147 -172 -147 -327q0 -130 101 -197t296 -67q283 0 414 135q-41 25 -98.5 60t-139.5 83.5t-133 79.5l137 217q126 -87 216 -125.5t174 -38.5h118v-264h-49v-18
q0 -74 -50 -144.5t-136.5 -125.5t-213 -88.5t-267.5 -33.5z" />
    <glyph glyph-name="uni064A.init" unicode="&#x64a;" horiz-adv-x="593" arabic-form="initial" 
d="M428 0h-428l-37 133l37 131h211q12 98 12 264v283h242v-283q0 -327 -37 -528zM-43 -285q0 61 38.5 101.5t98.5 40.5t98.5 -40.5t38.5 -101.5q0 -59 -39 -99t-98 -40t-98 40t-39 99zM295 -285q0 61 38.5 101.5t98.5 40.5t98.5 -40.5t38.5 -101.5q0 -59 -39 -99t-98 -40
t-98 40t-39 99z" />
    <glyph glyph-name="uni064A.medi" unicode="&#x64a;" horiz-adv-x="657" arabic-form="medial" 
d="M231 0h-231l-37 133l37 131h166q22 104 22 318v229h246v-381q0 -95 35 -130.5t115 -35.5h73v-264h-127q-158 0 -217 129q-26 -65 -82 -129zM8 -285q0 61 38.5 101.5t98.5 40.5t99 -41t39 -101q0 -59 -39 -99t-99 -40q-59 0 -98 40t-39 99zM346 -285q0 61 38.5 101.5
t98.5 40.5t99 -41t39 -101q0 -59 -39 -99t-99 -40q-59 0 -98 40t-39 99z" />
    <glyph glyph-name="uni064A.fina" unicode="&#x64a;" horiz-adv-x="1421" arabic-form="final" 
d="M705 -410q-98 0 -186 16t-169 53.5t-139.5 93.5t-93.5 142t-35 193q0 128 50.5 247t158.5 257l192 -148q-147 -172 -147 -327q0 -130 101 -197t296 -67q283 0 414 135q-41 25 -98.5 60t-139.5 83.5t-133 79.5l137 217q126 -87 216 -125.5t174 -38.5h118v-264h-49v-18
q0 -74 -50 -144.5t-136.5 -125.5t-213 -88.5t-267.5 -33.5zM401 -666q0 60 39 101t99 41t98.5 -40.5t38.5 -101.5q0 -59 -39 -99t-98 -40q-60 0 -99 40t-39 99zM739 -666q0 60 39 101t99 41t98.5 -40.5t38.5 -101.5q0 -59 -39 -99t-98 -40q-60 0 -99 40t-39 99z" />
    <glyph glyph-name="uni066E.init" unicode="&#x66e;" horiz-adv-x="593" 
d="M428 0h-428l-37 133l37 131h211q12 98 12 264v283h242v-283q0 -327 -37 -528z" />
    <glyph glyph-name="uni066E.medi" unicode="&#x66e;" horiz-adv-x="657" 
d="M231 0h-231l-37 133l37 131h166q22 104 22 318v229h246v-381q0 -95 35 -130.5t115 -35.5h73v-264h-127q-158 0 -217 129q-26 -65 -82 -129z" />
    <glyph glyph-name="uni066E.fina" unicode="&#x66e;" horiz-adv-x="1910" 
d="M571 0q-209 0 -328.5 110.5t-119.5 311.5q0 232 176 475l199 -135q-65 -100 -92 -170t-27 -135q0 -94 52 -143.5t171 -49.5h828q24 107 24 318v229h246v-412q0 -81 32.5 -108t102.5 -27h76v-264h-115q-163 0 -219 115q-28 -54 -82 -115h-924z" />
    <glyph glyph-name="uni066F.fina" unicode="&#x66f;" horiz-adv-x="1554" 
d="M733 -426q-108 0 -203 19t-178 61t-142.5 104.5t-93.5 154t-34 204.5q0 292 199 540l196 -143q-69 -89 -104 -192t-35 -185q0 -103 58.5 -171.5t152.5 -98t219 -29.5q135 0 242.5 32.5t165.5 84.5q8 31 10 51q-87 6 -163 20t-151 41.5t-127.5 66t-85 98t-32.5 133.5
q0 54 18.5 118t55 127.5t85 116t114 85t136.5 32.5q90 0 164.5 -52.5t122 -138t76 -185.5t35.5 -204h120v-264h-143q-41 -144 -142 -241.5t-235.5 -141t-300.5 -43.5zM838 371q111 -87 358 -103q-14 137 -63 227.5t-119 90.5q-60 0 -112 -64t-64 -151z" />
    <glyph glyph-name="uni0671.fina" unicode="&#x671;" horiz-adv-x="587" arabic-form="final" 
d="M465 0q-104 0 -170 24.5t-104.5 84t-53 145t-14.5 221.5v911h242v-884q0 -59 2.5 -94t9.5 -66t22.5 -46t39.5 -23.5t61 -8.5h88v-264h-123zM-82 1593q66 90 168 90q19 0 43 -4q44 68 102 108t121 40q64 0 110 -42.5t46 -107.5q0 -72 -55.5 -119t-147.5 -47q-56 0 -121 26
t-96 26q-47 0 -100 -50zM213 1645q44 -19 90 -19q74 0 115 25q-5 28 -25.5 46.5t-52.5 18.5q-65 0 -127 -71z" />
    <glyph glyph-name="uni06A1.init" unicode="&#x6a1;" horiz-adv-x="1060" 
d="M901 0h-901l-37 133l37 131h209q-92 82 -92 191q0 54 20.5 117t59.5 123t89 109.5t114.5 80t131.5 30.5q92 0 173 -56t135 -145.5t85 -199t31 -217.5q0 -160 -55 -297zM340 453q46 -67 148.5 -119.5t218.5 -71.5q2 14 2 41q0 123 -60.5 238.5t-124.5 115.5
q-48 0 -108 -60.5t-76 -143.5z" />
    <glyph glyph-name="uni06A1.medi" unicode="&#x6a1;" horiz-adv-x="1056" 
d="M246 0h-246l-37 133l37 131h199q-72 86 -72 201q0 80 41.5 162.5t105 144.5t143 101.5t152.5 39.5q76 0 146 -45t116 -112.5t73.5 -144.5t27.5 -144q0 -117 -72 -203h197v-264h-293q-61 0 -126.5 23t-115.5 63q-115 -86 -276 -86zM358 465q14 -36 62.5 -82t109.5 -88
q62 38 108.5 82.5t63.5 83.5q-3 70 -50 136.5t-101 66.5t-119 -68t-74 -131z" />
    <glyph glyph-name="uni06A1.fina" unicode="&#x6a1;" horiz-adv-x="2023" 
d="M537 0q-223 0 -339 113.5t-116 306.5q0 240 176 477l199 -135q-65 -98 -92 -168t-27 -137q0 -100 53.5 -146.5t167.5 -46.5h608q-73 83 -73 195q0 78 40.5 161.5t103 147.5t143 105.5t155.5 41.5q77 0 146.5 -46t115.5 -115.5t73 -148t27 -146.5q0 -108 -69 -195h194
v-264h-292q-132 0 -242 88q-114 -88 -279 -88h-673zM1327 457q14 -34 61 -80t109 -84q125 69 174 162q-3 72 -51 140.5t-102 68.5q-57 0 -122.5 -73.5t-68.5 -133.5z" />
    <glyph glyph-name="uni06A4.init" unicode="&#x6a4;" horiz-adv-x="1060" arabic-form="initial" 
d="M901 0h-901l-37 133l37 131h209q-92 82 -92 191q0 54 20.5 117t59.5 123t89 109.5t114.5 80t131.5 30.5q92 0 173 -56t135 -145.5t85 -199t31 -217.5q0 -160 -55 -297zM246 1188q0 52 34.5 87.5t86.5 35.5t85 -35.5t33 -87.5q0 -53 -33 -88t-85 -35t-86.5 35t-34.5 88z
M340 453q46 -67 148.5 -119.5t218.5 -71.5q2 14 2 41q0 123 -60.5 238.5t-124.5 115.5q-48 0 -108 -60.5t-76 -143.5zM408 1450q0 52 34 87.5t86 35.5q51 0 85 -36t34 -87q0 -53 -34 -89t-85 -36q-52 0 -86 36t-34 89zM569 1188q0 52 33.5 87.5t85.5 35.5t86.5 -35.5
t34.5 -87.5q0 -53 -34.5 -88t-86.5 -35t-85.5 35t-33.5 88z" />
    <glyph glyph-name="uni06A4.medi" unicode="&#x6a4;" horiz-adv-x="1056" arabic-form="medial" 
d="M246 0h-246l-37 133l37 131h199q-72 86 -72 201q0 80 41.5 162.5t105 144.5t143 101.5t152.5 39.5q76 0 146 -45t116 -112.5t73.5 -144.5t27.5 -144q0 -117 -72 -203h197v-264h-293q-61 0 -126.5 23t-115.5 63q-115 -86 -276 -86zM250 1188q0 52 34.5 87.5t86.5 35.5
t85 -35.5t33 -87.5q0 -53 -33 -88t-85 -35t-86.5 35t-34.5 88zM358 465q14 -36 62.5 -82t109.5 -88q62 38 108.5 82.5t63.5 83.5q-3 70 -50 136.5t-101 66.5t-119 -68t-74 -131zM412 1450q0 52 34 87.5t86 35.5q51 0 85 -36t34 -87q0 -53 -34 -89t-85 -36q-52 0 -86 36
t-34 89zM573 1188q0 52 33.5 87.5t85.5 35.5t86.5 -35.5t34.5 -87.5q0 -53 -34.5 -88t-86.5 -35t-85.5 35t-33.5 88z" />
    <glyph glyph-name="uni06A4.fina" unicode="&#x6a4;" horiz-adv-x="2023" arabic-form="final" 
d="M537 0q-223 0 -339 113.5t-116 306.5q0 240 176 477l199 -135q-65 -98 -92 -168t-27 -137q0 -100 53.5 -146.5t167.5 -46.5h608q-73 83 -73 195q0 78 40.5 161.5t103 147.5t143 105.5t155.5 41.5q77 0 146.5 -46t115.5 -115.5t73 -148t27 -146.5q0 -108 -69 -195h194
v-264h-292q-132 0 -242 88q-114 -88 -279 -88h-673zM1235 1188q0 52 34.5 87.5t86.5 35.5t85.5 -35.5t33.5 -87.5q0 -53 -33.5 -88t-85.5 -35t-86.5 35t-34.5 88zM1327 457q14 -34 61 -80t109 -84q125 69 174 162q-3 72 -51 140.5t-102 68.5q-57 0 -122.5 -73.5
t-68.5 -133.5zM1397 1450q0 52 34.5 87.5t86.5 35.5q51 0 84.5 -35.5t33.5 -87.5q0 -53 -33.5 -89t-84.5 -36q-52 0 -86.5 36t-34.5 89zM1559 1188q0 52 33 87.5t85 35.5t86.5 -35.5t34.5 -87.5q0 -53 -34.5 -88t-86.5 -35t-85 35t-33 88z" />
    <glyph glyph-name="uni06BA.fina" unicode="&#x6ba;" horiz-adv-x="1423" arabic-form="final" 
d="M614 -279q-236 0 -383.5 130t-150.5 364q-2 143 52 293t157 276l190 -143q-67 -84 -105 -184t-38 -193q0 -135 83.5 -205.5t225.5 -70.5q130 0 231 61.5t134 169.5q-25 193 -105 518l260 68l80 -369q16 -75 35.5 -113t41 -48.5t60.5 -10.5h41v-264h-82q-105 0 -170 41
q-77 -154 -223 -237t-334 -83z" />
    <glyph glyph-name="uniFDFC" unicode="&#xfdfc;" horiz-adv-x="2748" arabic-form="isolated" 
d="M580 -442q-105 0 -193 29.5t-156 88.5t-106.5 156t-38.5 223q0 306 209 563l192 -147q-145 -185 -145 -373q0 -137 73 -207.5t203 -70.5q200 0 277 155q31 339 31 818v593h241v-587q0 -419 -19 -642t-65 -325q-57 -126 -192.5 -200t-310.5 -74zM1229 -281q0 54 40 95
t95 41q53 0 90 -40.5t37 -95.5q0 -54 -36.5 -93.5t-90.5 -39.5q-55 0 -95 40t-40 93zM1341 762v624h242v-632q0 -302 8 -381q6 -58 36 -83.5t91 -25.5h133q13 107 13 264v144h241v-144q0 -327 -37 -528h-409q-280 0 -303 266q-15 141 -15 496zM1548 -281q0 55 38 95.5
t91 40.5q54 0 93.5 -41t39.5 -95q0 -53 -39.5 -93t-93.5 -40q-53 0 -91 40t-38 93zM1890 -381q427 216 527 483q-26 181 -138 465l240 86q62 -157 97.5 -283t35.5 -235q0 -425 -622 -735z" />
    <glyph glyph-name=".notdef" horiz-adv-x="1228" 
 />
    <glyph glyph-name=".null" 
 />
    <glyph glyph-name="nonmarkingreturn" horiz-adv-x="682" 
 />
    <glyph glyph-name="space" unicode=" " horiz-adv-x="409" 
 />
    <glyph glyph-name="exclam" unicode="!" horiz-adv-x="528" 
d="M168 387q-3 25 -14.5 113t-16.5 134.5t-10.5 121.5t-5.5 137v397h287v-397q0 -62 -5.5 -136t-11 -123t-16.5 -133t-15 -114h-192zM113 127q0 62 43.5 107t107.5 45t108 -45t44 -107t-44 -106t-108 -44t-107.5 44t-43.5 106z" />
    <glyph glyph-name="quotedbl" unicode="&#x22;" horiz-adv-x="743" 
d="M158 801q-56 205 -56 360q0 101 28.5 146t90.5 45q61 0 89 -45.5t28 -145.5q0 -129 -55 -360h-125zM406 1161q0 101 28 146t90 45q61 0 89 -45.5t28 -145.5q0 -129 -55 -360h-125q-55 201 -55 360z" />
    <glyph glyph-name="numbersign" unicode="#" horiz-adv-x="1357" 
d="M641 0l70 283h-250l-70 -283h-221l70 283h-183v196h232l88 352h-232v197h279l65 262h222l-66 -262h252l66 262h221l-66 -262h182v-197h-231l-88 -352h231v-196h-280l-70 -283h-221zM510 479h250l88 352h-250z" />
    <glyph glyph-name="dollar" unicode="$" horiz-adv-x="1034" 
d="M418 -119v150q-191 16 -336 116l49 205q65 -55 172 -91t197 -36q40 0 86.5 7.5t70.5 19.5q26 19 42 51.5t16 69.5q0 44 -27 76t-71 50t-100 37t-114.5 34t-114.5 43t-100 63.5t-71 96t-27 138.5q0 143 87 237.5t241 117.5v155h184v-151q180 -22 279 -115l-47 -199
q-63 53 -156 87t-168 34q-98 0 -150 -43q-34 -39 -34 -106q0 -39 21.5 -68.5t57.5 -48t83 -33t99 -29t104 -31t99 -43.5t83 -62t57.5 -91t21.5 -127q0 -150 -92 -242t-258 -116v-156h-184z" />
    <glyph glyph-name="percent" unicode="%" horiz-adv-x="1335" 
d="M328 741q-129 0 -208 73.5t-79 217.5q0 135 82.5 212t204.5 77q128 0 207 -73.5t79 -215.5q0 -135 -83 -213t-203 -78zM197 0l721 1290h221l-723 -1290h-219zM209 1032q0 -65 32 -98t87 -33q64 0 100 29q16 31 16 102q0 63 -32.5 98t-83.5 35q-62 0 -99 -26
q-20 -36 -20 -107zM721 264q0 135 82.5 212t204.5 77q128 0 207 -73.5t79 -215.5q0 -135 -83 -213t-203 -78q-129 0 -208 73.5t-79 217.5zM889 264q0 -65 32 -98t87 -33q64 0 100 29q16 31 16 102q0 63 -32.5 98t-83.5 35q-62 0 -99 -26q-20 -36 -20 -107z" />
    <glyph glyph-name="ampersand" unicode="&#x26;" horiz-adv-x="1280" 
d="M580 -29q-97 0 -183 22.5t-157 67t-112.5 120.5t-41.5 175q0 118 60.5 207.5t175.5 138.5q-127 124 -127 271q0 159 117.5 252.5t295.5 93.5q117 0 242 -37l-25 -207q-87 37 -209 37q-84 0 -143 -29q-35 -30 -35 -94q0 -117 148 -209l272 -168v301h221v-436l162 -100
l-49 -232l-143 88q-25 -82 -95 -142t-166 -90t-208 -30zM336 385q0 -102 75.5 -154.5t184.5 -52.5q136 0 215 58q32 51 41 118l-369 226q-52 -10 -102 -41q-45 -54 -45 -154z" />
    <glyph glyph-name="quotesingle" unicode="'" horiz-adv-x="440" 
d="M158 801q-56 205 -56 360q0 101 28.5 146t90.5 45q61 0 89 -45.5t28 -145.5q0 -129 -55 -360h-125z" />
    <glyph glyph-name="parenleft" unicode="(" horiz-adv-x="763" 
d="M530 -414q-223 197 -325.5 437.5t-102.5 545.5q0 307 102.5 547.5t325.5 435.5l152 -96q-313 -354 -313 -887q0 -528 313 -882z" />
    <glyph glyph-name="parenright" unicode=")" horiz-adv-x="763" 
d="M82 -313q313 354 313 882q0 533 -313 887l151 96q223 -195 326 -435.5t103 -547.5q0 -305 -103 -545.5t-326 -437.5z" />
    <glyph glyph-name="asterisk" unicode="*" horiz-adv-x="980" 
d="M334 709l-146 106l179 221l-275 76l55 172l265 -102l-13 280h183l-15 -278l267 100l55 -172l-273 -76l177 -221l-148 -106l-156 237z" />
    <glyph glyph-name="plus" unicode="+" horiz-adv-x="1140" 
d="M115 549v196h354v353h203v-353h354v-196h-354v-352h-203v352h-354z" />
    <glyph glyph-name="comma" unicode="," horiz-adv-x="436" 
d="M72 -248q123 110 123 182q0 24 -13.5 41t-32.5 28.5t-37.5 25.5t-32 39.5t-13.5 62.5q0 66 45 107t108 41q72 0 112 -52t40 -143q0 -117 -63.5 -230.5t-147.5 -179.5z" />
    <glyph glyph-name="hyphen" unicode="-" horiz-adv-x="638" 
d="M102 426v217h435v-217h-435z" />
    <glyph glyph-name="period" unicode="." horiz-adv-x="436" 
d="M219 -23q-64 0 -108.5 44t-44.5 106t44.5 107t108.5 45t108 -45t44 -107t-44 -106t-108 -44z" />
    <glyph glyph-name="slash" unicode="/" horiz-adv-x="843" 
d="M41 -147l500 1560h262l-502 -1560h-260z" />
    <glyph glyph-name="zero" unicode="0" horiz-adv-x="1161" 
d="M578 -29q-260 0 -382 150.5t-122 496.5q0 368 125.5 534.5t384.5 166.5q260 0 380.5 -149.5t120.5 -493.5q0 -371 -125 -538t-382 -167zM365 635q0 -235 53 -335.5t168 -100.5q106 0 166 57q43 111 43 393q0 230 -53 336.5t-169 106.5q-93 0 -155 -48q-53 -121 -53 -409z
" />
    <glyph glyph-name="one" unicode="1" horiz-adv-x="763" 
d="M354 0v1008l-227 -150l-90 223l334 209h272v-1290h-289z" />
    <glyph glyph-name="two" unicode="2" horiz-adv-x="1001" 
d="M61 0v209l328 334q16 16 69.5 70t71.5 73t48 53.5t49 61.5q22 64 22 123q0 73 -43 119.5t-131 46.5q-180 0 -338 -134l-53 215q179 148 438 148q198 0 306 -90t108 -258q0 -143 -67.5 -257t-239.5 -280l-221 -213h516v-221h-863z" />
    <glyph glyph-name="three" unicode="3" horiz-adv-x="1013" 
d="M451 -29q-116 0 -206.5 28t-183.5 91l54 221q65 -54 154 -83t184 -29q105 0 178 41q31 50 31 120q0 104 -62 159.5t-178 55.5h-103v199h103q145 0 209 64q22 42 22 94q0 160 -198 160q-175 0 -320 -111l-53 221q97 63 186.5 90t204.5 27q224 0 340.5 -86t116.5 -252
q0 -225 -244 -311q264 -70 264 -322q0 -178 -132.5 -277.5t-366.5 -99.5z" />
    <glyph glyph-name="four" unicode="4" horiz-adv-x="1069" 
d="M59 258v221l242 811h301l-248 -811h344v463h279v-942h-279v258h-639z" />
    <glyph glyph-name="five" unicode="5" horiz-adv-x="1038" 
d="M467 -29q-112 0 -200 25.5t-185 85.5l51 215q150 -98 340 -98q126 0 182 47q25 45 25 131q0 119 -58.5 165t-211.5 46h-281v702h770v-221h-493v-260h88q247 0 361 -98.5t114 -302.5q0 -437 -502 -437z" />
    <glyph glyph-name="six" unicode="6" horiz-adv-x="1083" 
d="M549 -29q-80 0 -149.5 19t-130 61t-103.5 104t-67.5 152.5t-24.5 202.5q0 65 2 111.5t16 134.5t39.5 153t78 144t125 131t187 90.5t258.5 44.5l74 -209q-390 0 -483 -311q95 71 258 71q184 0 285.5 -113.5t101.5 -310.5q0 -114 -35.5 -205t-99 -149.5t-148 -89.5
t-184.5 -31zM344 471q0 -143 57.5 -212t155.5 -69q94 0 148 54q40 64 40 180q0 108 -49.5 169.5t-150.5 61.5q-112 0 -201 -67v-117z" />
    <glyph glyph-name="seven" unicode="7" horiz-adv-x="952" 
d="M104 0l490 1069h-567v221h884v-180l-495 -1110h-312z" />
    <glyph glyph-name="eight" unicode="8" horiz-adv-x="1124" 
d="M561 -25q-233 0 -360 108.5t-127 270.5q0 111 54.5 193t154.5 125q-89 41 -135 114t-46 170q0 156 122.5 257.5t338.5 101.5t337.5 -99t121.5 -258q0 -203 -180 -286q99 -39 154 -123.5t55 -192.5q0 -78 -32 -146.5t-92 -121t-154.5 -83t-211.5 -30.5zM354 371
q0 -94 55 -149.5t156 -55.5q93 0 170 47q35 56 35 147q0 99 -55 155t-156 56q-80 0 -149 -30q-56 -66 -56 -170zM375 946q0 -89 49 -137.5t143 -48.5q95 0 148 43q33 58 33 137q0 83 -46.5 133.5t-142.5 50.5q-79 0 -141 -32q-43 -56 -43 -146z" />
    <glyph glyph-name="nine" unicode="9" horiz-adv-x="1079" 
d="M227 180q393 0 482 312q-93 -72 -252 -72q-187 0 -289 114t-102 314q0 223 130.5 347t335.5 124q105 0 190 -30t149.5 -92t99.5 -163.5t35 -236.5q0 -71 -2 -119.5t-16 -139.5t-39.5 -156t-77.5 -144.5t-124.5 -131.5t-187 -90.5t-258.5 -44.5zM334 864q0 -107 51 -168
t152 -61q107 0 198 65v136q0 131 -53 197.5t-154 66.5q-45 0 -87.5 -15t-65.5 -38q-41 -71 -41 -183z" />
    <glyph glyph-name="colon" unicode=":" horiz-adv-x="438" 
d="M219 514q-64 0 -108.5 44t-44.5 106t44.5 106.5t108.5 44.5t108 -44.5t44 -106.5q0 -61 -44 -105.5t-108 -44.5zM66 127q0 62 44.5 107t108.5 45t108 -45t44 -107t-44 -106t-108 -44t-108.5 44t-44.5 106z" />
    <glyph glyph-name="semicolon" unicode=";" horiz-adv-x="438" 
d="M219 514q-64 0 -108.5 44t-44.5 106t44.5 106.5t108.5 44.5t108 -44.5t44 -106.5q0 -61 -44 -105.5t-108 -44.5zM66 131q0 66 45 107t108 41q72 0 112 -52t40 -143q0 -117 -63.5 -230.5t-147.5 -179.5l-88 78q123 110 123 182q0 24 -13.5 41t-32.5 28.5t-37.5 25.5
t-32 39.5t-13.5 62.5z" />
    <glyph glyph-name="less" unicode="&#x3c;" horiz-adv-x="1140" 
d="M946 117l-751 442v172l751 445v-236l-504 -295l504 -293v-235z" />
    <glyph glyph-name="equal" unicode="=" horiz-adv-x="1140" 
d="M135 766v192h871v-192h-871zM135 340v192h871v-192h-871z" />
    <glyph glyph-name="greater" unicode="&#x3e;" horiz-adv-x="1140" 
d="M195 117v235l503 293l-503 295v236l751 -445v-172z" />
    <glyph glyph-name="question" unicode="?" horiz-adv-x="841" 
d="M158 387q0 72 20 129t52.5 93.5t71.5 66t78 54.5t71.5 52t52.5 66t20 88q0 77 -50 117.5t-140 40.5q-57 0 -125 -17t-111 -39l-45 217q136 64 320 64q209 0 318.5 -89t109.5 -269q0 -68 -18.5 -122.5t-48.5 -89.5t-69 -66t-79 -51.5t-79 -46t-69 -50t-48.5 -63
t-18.5 -85.5h-213zM113 127q0 62 43.5 107t107.5 45t108 -45t44 -107t-44 -106t-108 -44t-107.5 44t-43.5 106z" />
    <glyph glyph-name="at" unicode="@" horiz-adv-x="1939" 
d="M922 -414q-135 0 -255.5 30.5t-225.5 97.5t-180.5 165.5t-119 242t-43.5 318.5q0 409 238 644t655 235q141 0 264 -26.5t232 -87.5t186.5 -151.5t122.5 -226.5t45 -305q0 -77 -9 -147t-33 -141.5t-62 -123t-100.5 -84t-143.5 -32.5q-90 0 -154 41t-96 112
q-83 -159 -307 -159q-95 0 -167.5 29t-114.5 73.5t-68.5 106t-35.5 118.5t-9 119q0 71 12 135.5t43 128t79.5 109t126.5 74t179 28.5q139 0 243 -47.5t165 -111.5v-383q0 -185 102 -185q56 0 98 39q35 89 35 268q0 141 -34 252.5t-92 183.5t-140 119t-171.5 66.5
t-193.5 19.5q-304 0 -512 -163q-74 -91 -118 -227t-44 -304q0 -136 32 -247t88.5 -188t135 -130t170 -77.5t195.5 -24.5q131 0 238.5 39t171.5 96l94 -160q-83 -66 -219 -112t-303 -46zM756 442q0 -127 46 -195.5t156 -68.5q103 0 166 51q50 76 50 209v224q-95 67 -199 67
q-88 0 -154 -41q-65 -79 -65 -246z" />
    <glyph glyph-name="A" unicode="A" horiz-adv-x="1357" 
d="M20 0l484 1290h352l483 -1290h-305l-88 256h-534l-88 -256h-304zM487 475h383l-190 557z" />
    <glyph glyph-name="B" unicode="B" horiz-adv-x="1232" 
d="M119 0v1290h514q255 0 367 -87t112 -247q0 -108 -48 -177.5t-151 -110.5q240 -52 240 -303q0 -175 -119 -270t-368 -95h-547zM395 203h234q129 0 194 24q45 51 45 142q0 94 -54.5 144t-184.5 50h-234v-360zM395 758h201q131 0 195 33q36 50 36 129t-53 123t-178 44h-201
v-329z" />
    <glyph glyph-name="C" unicode="C" horiz-adv-x="1228" 
d="M762 -25q-330 0 -510 161.5t-180 469.5q0 224 93.5 387t254.5 244.5t371 81.5q192 0 366 -86l-45 -221q-170 80 -328 80q-87 0 -180 -27.5t-149 -71.5q-41 -69 -64.5 -169t-23.5 -208q0 -196 101.5 -303.5t297.5 -107.5q215 0 393 94l43 -209q-177 -115 -440 -115z" />
    <glyph glyph-name="D" unicode="D" horiz-adv-x="1366" 
d="M119 0v1290h497q337 0 507.5 -153.5t170.5 -470.5q0 -310 -188 -488t-502 -178h-485zM395 221h203q200 0 326 80q88 136 88 358q0 194 -97.5 302t-275.5 108h-244v-848z" />
    <glyph glyph-name="E" unicode="E" horiz-adv-x="1036" 
d="M119 0v1290h850v-221h-561v-324h483v-221h-483v-303h563v-221h-852z" />
    <glyph glyph-name="F" unicode="F" horiz-adv-x="1024" 
d="M119 0v1290h866v-223h-577v-365h499v-221h-499v-481h-289z" />
    <glyph glyph-name="G" unicode="G" horiz-adv-x="1351" 
d="M770 -29q-333 0 -515.5 163t-182.5 478q0 332 203 519.5t542 187.5q208 0 371 -86l-45 -221q-184 80 -338 80q-95 0 -192 -28t-158 -71q-41 -66 -64.5 -161.5t-23.5 -196.5q0 -212 105.5 -324t313.5 -112q114 0 226 28v269h-260v217h499v-623q-183 -119 -481 -119z" />
    <glyph glyph-name="H" unicode="H" horiz-adv-x="1357" 
d="M950 0v518h-542v-518h-289v1290h289v-551h542v551h289v-1290h-289z" />
    <glyph glyph-name="I" unicode="I" horiz-adv-x="514" 
d="M119 0v1290h276v-1290h-276z" />
    <glyph glyph-name="J" unicode="J" horiz-adv-x="532" 
d="M-143 -137q58 4 107 22.5t90.5 53.5t65 94t23.5 137v1120h277v-1065q0 -520 -479 -587z" />
    <glyph glyph-name="K" unicode="K" horiz-adv-x="1253" 
d="M893 0l-467 647l434 643h326l-457 -635l510 -655h-346zM119 0v1290h276v-1290h-276z" />
    <glyph glyph-name="L" unicode="L" horiz-adv-x="1001" 
d="M119 0v1290h289v-1069h567v-221h-856z" />
    <glyph glyph-name="M" unicode="M" horiz-adv-x="1572" 
d="M119 0v1290h399l273 -655l272 655h391v-1290h-270v999l-293 -682h-209l-293 680v-997h-270z" />
    <glyph glyph-name="N" unicode="N" horiz-adv-x="1361" 
d="M119 0v1290h422l436 -995v995h266v-1290h-409l-451 1006v-1006h-264z" />
    <glyph glyph-name="O" unicode="O" horiz-adv-x="1474" 
d="M727 -29q-137 0 -248.5 35.5t-186 96t-125 145.5t-73 181t-22.5 204q0 203 77 356.5t230.5 241.5t365.5 88q307 0 482.5 -179t175.5 -487q0 -145 -41.5 -267t-123 -215.5t-212.5 -146.5t-299 -53zM367 647q0 -90 22 -169t65.5 -142t115.5 -100t165 -37q85 0 169.5 29.5
t127.5 70.5q37 57 56.5 152t19.5 182q0 93 -23.5 175t-68 146t-117 101t-164.5 37q-81 0 -161.5 -27.5t-124.5 -67.5q-39 -58 -60.5 -157.5t-21.5 -192.5z" />
    <glyph glyph-name="P" unicode="P" horiz-adv-x="1210" 
d="M119 0v1290h497q549 0 549 -432q0 -121 -41 -214t-116 -151t-176 -87t-224 -29h-200v-377h-289zM408 594h215q144 0 221 55q49 67 49 193q0 231 -260 231h-225v-479z" />
    <glyph glyph-name="Q" unicode="Q" horiz-adv-x="1474" 
d="M1311 -401q-101 0 -217 47.5t-202.5 106.5t-200.5 137t-183 114q-209 56 -322.5 217.5t-113.5 415.5q0 200 78 353.5t230 241t359 87.5q313 0 488.5 -179.5t175.5 -490.5q0 -249 -125 -421.5t-363 -215.5q254 -184 455 -184q73 0 156 37l37 -203q-101 -63 -252 -63z
M367 647q0 -88 22 -166t65 -140.5t115.5 -99t165.5 -36.5q84 0 168 27.5t127 64.5q37 59 57.5 155t20.5 185q0 92 -23.5 172.5t-68.5 144.5t-118 101t-165 37q-79 0 -160 -27.5t-124 -67.5q-39 -58 -60.5 -157.5t-21.5 -192.5z" />
    <glyph glyph-name="R" unicode="R" horiz-adv-x="1259" 
d="M119 0v1290h510q157 0 266 -27t171 -81.5t89 -125.5t27 -169q0 -145 -73 -242t-204 -143l326 -502h-350l-273 455h-200v-455h-289zM408 676h221q136 0 215 33q47 64 47 170q0 92 -59 141t-203 49h-221v-393z" />
    <glyph glyph-name="S" unicode="S" horiz-adv-x="1114" 
d="M522 -29q-269 0 -452 117l51 238q84 -62 204 -94.5t220 -32.5q113 0 180 26q23 18 38 50.5t15 66.5q0 52 -39 88t-101 57t-137 40.5t-150 47t-137 66.5t-101 109t-39 165q0 187 134 295.5t353 108.5q110 0 223 -28t193 -91l-49 -229q-79 58 -184 89.5t-205 31.5
q-97 0 -168 -41q-14 -16 -24.5 -44.5t-10.5 -56.5q0 -40 24.5 -70t66 -49t95 -35t113 -31.5t118.5 -34.5t112.5 -48.5t95 -68.5t66 -100t24.5 -138q0 -193 -139.5 -298.5t-389.5 -105.5z" />
    <glyph glyph-name="T" unicode="T" horiz-adv-x="1091" 
d="M401 0v1061h-374v229h1036v-229h-371v-1061h-291z" />
    <glyph glyph-name="U" unicode="U" horiz-adv-x="1318" 
d="M666 -25q-128 0 -228 30t-174.5 93t-113.5 167.5t-39 246.5v778h278v-778q0 -165 69 -236t208 -71q144 0 208 61q56 66 56 246v778h278v-778q0 -537 -542 -537z" />
    <glyph glyph-name="V" unicode="V" horiz-adv-x="1347" 
d="M498 0l-478 1290h304l350 -1032l352 1032h301l-477 -1290h-352z" />
    <glyph glyph-name="W" unicode="W" horiz-adv-x="1949" 
d="M383 0l-363 1290h293l250 -948l262 948h299l262 -950l252 950h291l-366 -1290h-340l-248 885l-248 -885h-344z" />
    <glyph glyph-name="X" unicode="X" horiz-adv-x="1304" 
d="M20 0l455 674l-414 616h334l264 -413l250 413h334l-414 -616l455 -674h-340l-297 469l-287 -469h-340z" />
    <glyph glyph-name="Y" unicode="Y" horiz-adv-x="1382" 
d="M547 0v434l-527 856h328l344 -602l344 602h326l-526 -856v-434h-289z" />
    <glyph glyph-name="Z" unicode="Z" horiz-adv-x="1120" 
d="M66 0v205l622 856h-590v229h936v-205l-622 -856h643v-229h-989z" />
    <glyph glyph-name="bracketleft" unicode="[" horiz-adv-x="614" 
d="M102 -393v1933h451v-184h-205v-1565h205v-184h-451z" />
    <glyph glyph-name="backslash" unicode="\" horiz-adv-x="843" 
d="M803 -147h-260l-502 1560h262z" />
    <glyph glyph-name="bracketright" unicode="]" horiz-adv-x="614" 
d="M512 -393h-451v184h205v1565h-205v184h451v-1933z" />
    <glyph glyph-name="asciicircum" unicode="^" horiz-adv-x="1140" 
d="M156 741l315 676h195l319 -674h-231l-185 406l-182 -408h-231z" />
    <glyph glyph-name="underscore" unicode="_" horiz-adv-x="819" 
d="M0 -328v205h819v-205h-819z" />
    <glyph glyph-name="grave" unicode="`" horiz-adv-x="591" 
d="M299 946l-217 279h270l158 -279h-211z" />
    <glyph glyph-name="a" unicode="a" horiz-adv-x="888" 
d="M600 0l-22 74q-83 -99 -256 -99q-122 0 -201.5 65t-79.5 189q0 250 369 250h139v29q0 57 -31 82.5t-104 25.5q-64 0 -138 -15t-120 -36l-45 185q148 61 335 61q184 0 271.5 -76.5t87.5 -238.5v-496h-205zM299 242q0 -84 102 -84q79 0 148 59v96h-139q-64 0 -97 -10
q-14 -27 -14 -61z" />
    <glyph glyph-name="b" unicode="b" horiz-adv-x="1003" 
d="M508 -29q-204 0 -314 107.5t-110 302.5v950h266v-577q86 61 221 61q180 0 281.5 -109t101.5 -296q0 -201 -116.5 -320t-329.5 -119zM350 373q0 -96 42 -151.5t124 -55.5q88 0 131 43q31 56 31 180q0 107 -42.5 169.5t-125.5 62.5q-37 0 -82.5 -14t-77.5 -38v-196z" />
    <glyph glyph-name="c" unicode="c" horiz-adv-x="802" 
d="M487 -29q-197 0 -317.5 105.5t-120.5 304.5q0 198 133.5 316t339.5 118q121 0 232 -51l-49 -201q-31 18 -82 34.5t-99 16.5q-39 0 -83 -12t-72 -33q-43 -62 -43 -178q0 -103 55.5 -161t150.5 -58q48 0 106 15.5t103 43.5l41 -184q-109 -76 -295 -76z" />
    <glyph glyph-name="d" unicode="d" horiz-adv-x="999" 
d="M412 -29q-172 0 -267.5 114t-95.5 294q0 202 126 319t325 117q75 0 137 -16v532h268v-1331h-227l-23 80q-32 -48 -94.5 -78.5t-148.5 -30.5zM326 397q0 -106 41.5 -168.5t119.5 -62.5q83 0 150 70v362q-56 23 -119 23q-108 0 -162 -48q-30 -65 -30 -176z" />
    <glyph glyph-name="e" unicode="e" horiz-adv-x="905" 
d="M487 -29q-201 0 -319.5 103t-118.5 305q0 193 112.5 314.5t305.5 121.5q91 0 162 -26t116 -71.5t72 -109t35 -135.5t0 -154h-555q8 -69 65.5 -112t157.5 -43q131 0 232 57l41 -178q-115 -72 -306 -72zM297 479h317q-6 72 -46.5 108t-106.5 36q-87 0 -135 -52
q-23 -48 -29 -92z" />
    <glyph glyph-name="f" unicode="f" horiz-adv-x="655" 
d="M156 1012q0 162 94.5 251t265.5 89q106 0 193 -41l-54 -201q-68 35 -123 35q-61 0 -92 -17q-18 -35 -18 -129v-213h227v-192h-227v-594h-266v594h-123v192h123v226z" />
    <glyph glyph-name="g" unicode="g" horiz-adv-x="991" 
d="M444 -414q-174 0 -321 72l49 211q129 -80 295 -80q93 0 147 41q27 57 27 211v18q-85 -63 -213 -63q-178 0 -278.5 102.5t-100.5 286.5q0 201 121.5 315.5t325.5 114.5q209 0 310 -107.5t101 -324.5v-354q0 -236 -119.5 -339.5t-343.5 -103.5zM324 403q0 -104 42.5 -158.5
t120.5 -54.5q85 0 154 56v145q0 121 -41.5 175.5t-107.5 54.5q-77 0 -130 -39q-38 -62 -38 -179z" />
    <glyph glyph-name="h" unicode="h" horiz-adv-x="978" 
d="M629 444q0 170 -117 170q-79 0 -150 -75v-539h-268v1331h268v-612q89 96 238 96q151 0 223 -88t72 -242v-485h-266v444z" />
    <glyph glyph-name="i" unicode="i" horiz-adv-x="456" 
d="M94 0v786h268v-786h-268zM78 1092q0 62 44.5 105.5t108.5 43.5t109 -43.5t45 -105.5t-45 -106t-109 -44t-108.5 44t-44.5 106z" />
    <glyph glyph-name="j" unicode="j" horiz-adv-x="456" 
d="M-88 -193q79 7 130.5 59t51.5 157v763h268v-710q0 -427 -380 -486zM76 1092q0 62 44.5 105.5t108.5 43.5t109 -43.5t45 -105.5t-45 -106t-109 -44t-108.5 44t-44.5 106z" />
    <glyph glyph-name="k" unicode="k" horiz-adv-x="954" 
d="M645 0l-256 414l234 360h301l-262 -360l282 -414h-299zM94 0v1331h268v-1331h-268z" />
    <glyph glyph-name="l" unicode="l" horiz-adv-x="456" 
d="M94 0v1331h268v-1331h-268z" />
    <glyph glyph-name="m" unicode="m" horiz-adv-x="1474" 
d="M1124 444q0 170 -106 170q-80 0 -144 -75q3 -24 3 -52v-487h-267v444q0 170 -104 170q-80 0 -144 -71v-543h-268v786h230l20 -86q92 115 250 115q178 0 244 -125q104 125 268 125q148 0 216.5 -89t68.5 -241v-485h-267v444z" />
    <glyph glyph-name="n" unicode="n" horiz-adv-x="978" 
d="M629 444q0 170 -113 170q-83 0 -154 -75v-539h-268v786h230l20 -88q94 117 256 117q151 0 223 -88t72 -242v-485h-266v444z" />
    <glyph glyph-name="o" unicode="o" horiz-adv-x="976" 
d="M483 -29q-203 0 -318.5 112.5t-115.5 305.5q0 192 121 309t322 117q203 0 319.5 -112.5t116.5 -305.5t-121 -309.5t-324 -116.5zM326 401q0 -106 40 -170.5t126 -64.5q87 0 131 47q28 49 28 170q0 108 -41.5 173t-126.5 65q-83 0 -123 -43q-34 -54 -34 -177z" />
    <glyph glyph-name="p" unicode="p" horiz-adv-x="999" 
d="M502 -29q-74 0 -140 17v-373h-268v1171h230l22 -79q30 47 92 77.5t146 30.5q174 0 270 -114t96 -293q0 -203 -124.5 -320t-323.5 -117zM362 186q58 -20 119 -20q111 0 160 49q15 28 25 78t10 96q0 106 -42 169t-122 63q-74 0 -150 -72v-363z" />
    <glyph glyph-name="q" unicode="q" horiz-adv-x="1003" 
d="M653 414q0 93 -41.5 150t-124.5 57q-88 0 -131 -43q-30 -50 -30 -181q0 -107 41.5 -169t126.5 -62q37 0 82 13.5t77 37.5v197zM49 377q0 200 117 319t330 119q106 0 186.5 -30.5t124.5 -74.5t71 -103.5t34.5 -106t7.5 -94.5v-791h-267v410q-77 -54 -207 -54
q-190 0 -293.5 108.5t-103.5 297.5z" />
    <glyph glyph-name="r" unicode="r" horiz-adv-x="698" 
d="M94 0v786h230l22 -94q79 119 221 119q80 0 144 -43l-54 -215q-71 51 -129 51q-51 0 -95.5 -28.5t-70.5 -73.5v-502h-268z" />
    <glyph glyph-name="s" unicode="s" horiz-adv-x="772" 
d="M358 -29q-174 0 -313 68l49 197q54 -39 132.5 -57.5t150.5 -18.5q59 0 104 18q6 15 6 33q0 24 -23.5 40t-61 26t-82.5 20.5t-90 28t-82.5 43t-61 70.5t-23.5 106q0 130 94.5 200t239.5 70q183 0 297 -72l-47 -190q-56 36 -127 57t-131 21q-52 0 -88 -19q-10 -17 -10 -30
q0 -28 32.5 -47t80.5 -29t105 -28t105 -41.5t80.5 -73t32.5 -119.5q0 -72 -30.5 -126t-83.5 -85.5t-117 -46.5t-138 -15z" />
    <glyph glyph-name="t" unicode="t" horiz-adv-x="727" 
d="M463 -29q-148 0 -223.5 77t-75.5 212v334h-131v192h131v265h266v-265h229v-192h-229v-291q0 -61 28.5 -95t84.5 -34q59 0 110 29l33 -187q-78 -45 -223 -45z" />
    <glyph glyph-name="u" unicode="u" horiz-adv-x="978" 
d="M381 -29q-150 0 -223.5 88t-73.5 240v487h266v-448q0 -166 117 -166q77 0 149 68v546h269v-786h-228l-22 86q-92 -115 -254 -115z" />
    <glyph glyph-name="v" unicode="v" horiz-adv-x="960" 
d="M317 0l-303 786h295l178 -548l177 548h282l-317 -786h-312z" />
    <glyph glyph-name="w" unicode="w" horiz-adv-x="1492" 
d="M311 0l-297 786h279l166 -548l157 548h265l157 -548l166 548h275l-297 -786h-283l-154 500l-153 -500h-281z" />
    <glyph glyph-name="x" unicode="x" horiz-adv-x="950" 
d="M10 0l301 416l-268 370h305l131 -223l129 223h299l-270 -370l303 -416h-305l-162 268l-162 -268h-301z" />
    <glyph glyph-name="y" unicode="y" horiz-adv-x="978" 
d="M416 -414q-172 0 -314 74l50 207q123 -76 268 -76q104 0 155 39q23 36 31 86.5t10 159.5q-88 -88 -227 -88q-305 0 -305 342v456h266v-436q0 -84 30.5 -125t84.5 -41q72 0 151 60v542h269v-766q0 -80 -18 -145.5t-47 -110t-70.5 -78t-83 -52t-89.5 -30t-85.5 -15
t-75.5 -3.5z" />
    <glyph glyph-name="z" unicode="z" horiz-adv-x="794" 
d="M59 0v180l375 414h-368v192h661v-180l-375 -413h383v-193h-676z" />
    <glyph glyph-name="braceleft" unicode="{" horiz-adv-x="829" 
d="M653 -393q-171 0 -263.5 100t-92.5 291v209q0 140 -42.5 216.5t-125.5 76.5h-47v184h47q83 0 125.5 77t42.5 216v172q0 191 90 291t266 100h115v-184h-94q-156 0 -156 -252v-166q0 -259 -170 -346q170 -81 170 -346v-203q0 -252 156 -252h94v-184h-115z" />
    <glyph glyph-name="bar" unicode="|" horiz-adv-x="606" 
d="M164 -475v1974h278v-1974h-278z" />
    <glyph glyph-name="braceright" unicode="}" horiz-adv-x="829" 
d="M176 -393h-115v184h95q155 0 155 252v203q0 265 170 346q-170 87 -170 346v166q0 252 -155 252h-95v184h115q176 0 266 -100t90 -291v-172q0 -139 42.5 -216t125.5 -77h48v-184h-48q-83 0 -125.5 -76.5t-42.5 -216.5v-209q0 -191 -92.5 -291t-263.5 -100z" />
    <glyph glyph-name="asciitilde" unicode="~" horiz-adv-x="1140" 
d="M780 389q-60 0 -112.5 18t-90.5 44t-71.5 52t-68.5 44t-68 18q-103 0 -103 -162h-176q0 167 70 252.5t200 85.5q61 0 114 -18t90.5 -44t70.5 -52t68 -44t69 -18q100 0 100 162h177q0 -166 -69.5 -252t-199.5 -86z" />
    <glyph glyph-name="uni00A0" unicode="&#xa0;" horiz-adv-x="376" 
 />
    <glyph glyph-name="exclamdown" unicode="&#xa1;" horiz-adv-x="528" 
d="M360 399q4 -31 14.5 -114t16.5 -132t11.5 -123t5.5 -136v-398h-287v398q0 62 5.5 136.5t10.5 121.5t16.5 134t14.5 113h192zM113 659q0 62 43.5 106t107.5 44t108 -44t44 -106t-44 -106.5t-108 -44.5t-107.5 44.5t-43.5 106.5z" />
    <glyph glyph-name="cent" unicode="&#xa2;" horiz-adv-x="958" 
d="M502 0v160q-109 14 -188 57.5t-124.5 110.5t-66.5 145.5t-21 173.5q0 72 12.5 135t42 122.5t74.5 104.5t114 77t157 44v160h184v-153q101 -10 172 -41l-27 -203q-110 45 -217 45q-56 0 -126.5 -16.5t-102.5 -44.5q-29 -29 -43 -97.5t-14 -126.5q0 -152 64.5 -226.5
t228.5 -74.5q128 0 231 41l25 -203q-81 -30 -191 -36v-154h-184z" />
    <glyph glyph-name="sterling" unicode="&#xa3;" horiz-adv-x="1073" 
d="M82 184q127 23 127 254v97h-127v176h127v69q0 293 98.5 416t331.5 123q179 0 307 -74l-43 -209q-113 58 -233 58q-90 0 -160 -50q-27 -58 -27 -200v-133h308v-176h-308v-95q0 -144 -55 -231q41 10 162 10h381v-219h-889v184z" />
    <glyph glyph-name="currency" unicode="&#xa4;" horiz-adv-x="1304" 
d="M653 315q-73 0 -147 33l-256 -256l-152 152l248 245q-45 73 -45 158q0 83 45 156l-246 246l150 151l254 -254q78 33 149 33q74 0 148 -33l254 254l151 -151l-245 -244q45 -73 45 -158t-45 -158l245 -243l-151 -154l-254 256q-74 -33 -148 -33zM483 647q0 -72 49.5 -121
t120.5 -49t120.5 49t49.5 121q0 71 -49.5 120.5t-120.5 49.5t-120.5 -49.5t-49.5 -120.5z" />
    <glyph glyph-name="yen" unicode="&#xa5;" horiz-adv-x="1306" 
d="M514 0v133h-299v164h299v106h-299v164h236l-431 723h308l325 -585l328 585h305l-432 -723h240v-164h-299v-106h299v-164h-299v-133h-281z" />
    <glyph glyph-name="brokenbar" unicode="&#xa6;" horiz-adv-x="606" 
d="M164 -475v831h278v-831h-278zM164 711v788h278v-788h-278z" />
    <glyph glyph-name="section" unicode="&#xa7;" horiz-adv-x="1011" 
d="M479 -414q-118 0 -222 34t-179 87l49 215q69 -62 170 -94.5t186 -32.5q81 0 158 27q47 47 47 112q0 53 -34 89.5t-88.5 58t-120.5 39.5t-132 42t-120.5 57.5t-88.5 93.5t-34 143q0 154 116 258q-116 81 -116 237q0 171 124 269t328 98q242 0 369 -119l-47 -211
q-165 121 -328 121q-88 0 -168 -35q-33 -37 -33 -98q0 -51 35 -84.5t90.5 -52t123.5 -34.5t135.5 -40t123 -59.5t90.5 -102t35 -158.5q0 -157 -104 -251q92 -85 92 -232q0 -93 -36 -166.5t-99.5 -118.5t-145 -68.5t-176.5 -23.5zM303 508q0 -34 16 -61.5t40.5 -45t64.5 -34
t75 -26.5t87 -25t86 -27q41 51 41 112q0 29 -9 53.5t-22 42t-37 34t-45.5 27t-55.5 22t-59 18.5t-64.5 18t-64.5 19q-53 -60 -53 -127z" />
    <glyph glyph-name="dieresis" unicode="&#xa8;" horiz-adv-x="831" 
d="M227 942q-61 0 -103 44.5t-42 107.5t41.5 105t103.5 42t105 -42t43 -105t-43.5 -107.5t-104.5 -44.5zM457 1094q0 63 42.5 105t104.5 42t104 -42t42 -105t-42.5 -107.5t-103.5 -44.5t-104 44.5t-43 107.5z" />
    <glyph glyph-name="copyright" unicode="&#xa9;" horiz-adv-x="1705" 
d="M854 -82q-152 0 -287 56.5t-231.5 152.5t-152.5 229.5t-56 282.5q0 150 56 284t152.5 231t231.5 153.5t287 56.5t286.5 -56.5t230.5 -153.5t152 -231t56 -284q0 -149 -56 -282.5t-152 -229.5t-231 -152.5t-286 -56.5zM264 639q0 -254 165.5 -419t424.5 -165
q257 0 422.5 165t165.5 419q0 256 -165.5 422t-422.5 166q-171 0 -305.5 -75.5t-209.5 -210t-75 -302.5zM479 631q0 187 104 299t304 112q118 0 221 -43l-23 -184q-103 43 -196 43q-100 0 -154 -41q-39 -64 -39 -176q0 -219 209 -219q110 0 199 41l18 -180q-98 -45 -241 -45
q-197 0 -299.5 102.5t-102.5 290.5z" />
    <glyph glyph-name="ordfeminine" unicode="&#xaa;" horiz-adv-x="643" 
d="M414 768l-15 49q-53 -65 -172 -65q-79 0 -132.5 43t-53.5 125q0 170 250 170h88v18q0 37 -19.5 53.5t-66.5 16.5q-96 0 -176 -35l-31 127q103 41 233 41q122 0 181 -51.5t59 -159.5v-332h-145zM219 928q0 -54 66 -54q48 0 94 39v64h-88q-39 0 -60 -6q-12 -21 -12 -43z
" />
    <glyph glyph-name="guillemotleft" unicode="&#xab;" horiz-adv-x="987" 
d="M274 225l-213 287l213 287h267l-213 -287l213 -287h-267zM438 512l213 287h267l-213 -287l213 -287h-267z" />
    <glyph glyph-name="logicalnot" unicode="&#xac;" horiz-adv-x="1140" 
d="M829 399v330h-718v193h921v-523h-203z" />
    <glyph glyph-name="uni00AD" unicode="&#xad;" horiz-adv-x="638" 
d="M102 426v217h435v-217h-435z" />
    <glyph glyph-name="registered" unicode="&#xae;" horiz-adv-x="1705" 
d="M854 -82q-152 0 -287 56.5t-231.5 152.5t-152.5 229.5t-56 282.5q0 150 56 284t152.5 231t231.5 153.5t287 56.5t286.5 -56.5t230.5 -153.5t152 -231t56 -284q0 -149 -56 -282.5t-152 -229.5t-231 -152.5t-286 -56.5zM264 639q0 -254 165.5 -419t424.5 -165
q257 0 422.5 165t165.5 419q0 256 -165.5 422t-422.5 166q-171 0 -305.5 -75.5t-209.5 -210t-75 -302.5zM553 242v796h319q312 0 312 -235q0 -86 -44 -147t-128 -87l194 -327h-211l-161 307h-86v-307h-195zM748 696h112q76 0 113 27q16 26 16 74q0 51 -33 71.5t-96 20.5
h-112v-193z" />
    <glyph glyph-name="macron" unicode="&#xaf;" horiz-adv-x="700" 
d="M82 979v184h536v-184h-536z" />
    <glyph glyph-name="degree" unicode="&#xb0;" horiz-adv-x="804" 
d="M401 719q-130 0 -216.5 86t-86.5 215q0 126 87 212.5t216 86.5q130 0 218 -86.5t88 -212.5q0 -128 -88 -214.5t-218 -86.5zM260 1020q0 -62 41 -104t102 -42q60 0 101 43t41 103q0 61 -40.5 103t-101.5 42q-62 0 -102.5 -41.5t-40.5 -103.5z" />
    <glyph glyph-name="plusminus" unicode="&#xb1;" horiz-adv-x="1140" 
d="M469 307v367h-354v192h354v355h203v-355h354v-192h-354v-367h-203zM115 49v193h911v-193h-911z" />
    <glyph glyph-name="uni00B2" unicode="&#xb2;" horiz-adv-x="561" 
d="M61 774v119l166 117q47 34 65.5 58t18.5 50q0 62 -65 62q-68 0 -142 -50l-36 123q103 62 217 62q98 0 151 -43.5t53 -118.5q0 -64 -35.5 -113t-107.5 -96l-63 -43h213v-127h-435z" />
    <glyph glyph-name="uni00B3" unicode="&#xb3;" horiz-adv-x="522" 
d="M233 754q-120 0 -200 45l28 119q77 -41 164 -41q80 0 80 57q0 28 -23 41.5t-59 13.5h-55v103h55q76 0 76 51q0 24 -19 33.5t-59 9.5q-74 0 -149 -35l-29 117q94 43 205 43q227 0 227 -137q0 -99 -110 -130q120 -24 120 -122q0 -75 -67 -121.5t-185 -46.5z" />
    <glyph glyph-name="acute" unicode="&#xb4;" horiz-adv-x="595" 
d="M82 946l160 279h272l-219 -279h-213z" />
    <glyph glyph-name="uni00B5" unicode="&#xb5;" horiz-adv-x="1077" 
d="M102 -385v1171h267v-464q0 -63 28 -106.5t86 -43.5q80 0 152 68v18v528h266v-532q0 -44 10 -62t33 -18q27 0 62 21l30 -172q-67 -48 -178 -48q-136 0 -188 99q-70 -99 -201 -99q-72 0 -117 31v-391h-250z" />
    <glyph glyph-name="paragraph" unicode="&#xb6;" horiz-adv-x="1161" 
d="M436 -176v713q-171 1 -275 111t-104 272q0 173 104.5 271.5t299.5 98.5h579v-1466h-221v1302h-162v-1302h-221z" />
    <glyph glyph-name="periodcentered" unicode="&#xb7;" horiz-adv-x="436" 
d="M219 475q-64 0 -108.5 44t-44.5 106t44.5 106.5t108.5 44.5t108 -44.5t44 -106.5t-44 -106t-108 -44z" />
    <glyph glyph-name="cedilla" unicode="&#xb8;" horiz-adv-x="544" 
d="M238 -410q-71 0 -156 29l20 123q21 -8 49.5 -14t61 -7.5t54.5 11.5t22 41q0 29 -25.5 41t-75.5 12h-69l53 225h147l-32 -133q77 -2 126.5 -35.5t49.5 -109.5q0 -88 -65.5 -135.5t-159.5 -47.5z" />
    <glyph glyph-name="uni00B9" unicode="&#xb9;" horiz-adv-x="505" 
d="M61 774v127h123v236l-116 -45l-27 125l162 73h149v-389h97v-127h-388z" />
    <glyph glyph-name="ordmasculine" unicode="&#xba;" horiz-adv-x="710" 
d="M352 752q-142 0 -222.5 74.5t-80.5 201.5t84 205t225 78q142 0 223 -75.5t81 -203.5q0 -127 -84 -203.5t-226 -76.5zM244 1036q0 -64 27.5 -103.5t84.5 -39.5q60 0 90 27q21 35 21 104q0 66 -28.5 105.5t-86.5 39.5t-82 -24q-26 -44 -26 -109z" />
    <glyph glyph-name="guillemotright" unicode="&#xbb;" horiz-adv-x="987" 
d="M336 225h-266l213 287l-213 287h266l213 -287zM446 225l213 287l-213 287h267l213 -287l-213 -287h-267z" />
    <glyph glyph-name="onequarter" unicode="&#xbc;" horiz-adv-x="1325" 
d="M61 774v127h123v236l-116 -45l-27 125l162 73h149v-389h97v-127h-388zM174 0l721 1290h221l-723 -1290h-219zM784 100v109l121 307h164l-119 -301h121v172h162v-387h-162v100h-287z" />
    <glyph glyph-name="onehalf" unicode="&#xbd;" horiz-adv-x="1327" 
d="M61 774v127h123v236l-116 -45l-27 125l162 73h149v-389h97v-127h-388zM174 0l721 1290h221l-723 -1290h-219zM827 0v119l166 117q47 34 65.5 58t18.5 50q0 62 -65 62q-68 0 -142 -50l-36 123q103 62 217 62q98 0 151 -43.5t53 -118.5q0 -64 -35.5 -113t-107.5 -96
l-63 -43h213v-127h-435z" />
    <glyph glyph-name="threequarters" unicode="&#xbe;" horiz-adv-x="1341" 
d="M233 754q-120 0 -200 45l28 119q77 -41 164 -41q80 0 80 57q0 28 -23 41.5t-59 13.5h-55v103h55q76 0 76 51q0 24 -19 33.5t-59 9.5q-74 0 -149 -35l-29 117q94 43 205 43q227 0 227 -137q0 -99 -110 -130q120 -24 120 -122q0 -75 -67 -121.5t-185 -46.5zM190 0l721 1290
h222l-723 -1290h-220zM801 100v109l121 307h163l-118 -301h120v172h162v-387h-162v100h-286z" />
    <glyph glyph-name="questiondown" unicode="&#xbf;" horiz-adv-x="841" 
d="M684 399q0 -72 -20 -129t-52.5 -93.5t-72 -66t-78.5 -54.5t-71.5 -52t-52.5 -66t-20 -88q0 -77 50 -117t141 -40q57 0 125 16.5t110 38.5l45 -217q-134 -63 -319 -63q-209 0 -318.5 89t-109.5 269q0 77 23.5 136.5t61.5 96.5t84 67t92 55.5t84 53.5t61.5 69t23.5 95h213z
M426 659q0 62 44 106t108 44t107.5 -44t43.5 -106t-43.5 -106.5t-107.5 -44.5t-108 44.5t-44 106.5z" />
    <glyph glyph-name="Agrave" unicode="&#xc0;" horiz-adv-x="1357" 
d="M20 0l484 1290h352l483 -1290h-305l-88 256h-534l-88 -256h-304zM365 1679h270l158 -278h-211zM487 475h383l-190 557z" />
    <glyph glyph-name="Aacute" unicode="&#xc1;" horiz-adv-x="1357" 
d="M20 0l484 1290h352l483 -1290h-305l-88 256h-534l-88 -256h-304zM487 475h383l-190 557zM571 1401l160 278h273l-220 -278h-213z" />
    <glyph glyph-name="Acircumflex" unicode="&#xc2;" horiz-adv-x="1357" 
d="M20 0l484 1290h352l483 -1290h-305l-88 256h-534l-88 -256h-304zM371 1403l186 276h246l186 -276h-211l-96 149l-100 -149h-211zM487 475h383l-190 557z" />
    <glyph glyph-name="Atilde" unicode="&#xc3;" horiz-adv-x="1357" 
d="M20 0l484 1290h352l483 -1290h-305l-88 256h-534l-88 -256h-304zM365 1401q0 127 50.5 194.5t141.5 67.5q42 0 81 -17.5t63 -39t50 -39t44 -17.5q49 0 49 99h162q0 -126 -52 -194.5t-141 -68.5q-41 0 -80.5 17.5t-63.5 39t-50 39t-44 17.5q-49 0 -49 -98h-161zM487 475
h383l-190 557z" />
    <glyph glyph-name="Adieresis" unicode="&#xc4;" horiz-adv-x="1357" 
d="M20 0l484 1290h352l483 -1290h-305l-88 256h-534l-88 -256h-304zM336 1544q0 59 43 101.5t104 42.5t104.5 -42.5t43.5 -101.5t-43.5 -102t-104.5 -43t-104 43t-43 102zM487 475h383l-190 557zM727 1544q0 59 42.5 101.5t104.5 42.5q61 0 103.5 -42.5t42.5 -101.5
t-42.5 -102t-103.5 -43q-62 0 -104.5 43t-42.5 102z" />
    <glyph glyph-name="Aring" unicode="&#xc5;" horiz-adv-x="1357" 
d="M20 0l484 1290h352l483 -1290h-305l-88 256h-534l-88 -256h-304zM465 1559q0 92 59 146t154 54q97 0 156 -53.5t59 -146.5q0 -90 -59.5 -144.5t-155.5 -54.5q-95 0 -154 54.5t-59 144.5zM487 475h383l-190 557zM592 1559q0 -39 23 -64t63 -25t64 25t24 64
q0 41 -23.5 65.5t-64.5 24.5t-63.5 -24t-22.5 -66z" />
    <glyph glyph-name="AE" unicode="&#xc6;" horiz-adv-x="1849" 
d="M20 0l750 1290h1012v-221h-561v-324h483v-221h-483v-303h563v-221h-852v258h-461l-143 -258h-308zM592 475h340v617z" />
    <glyph glyph-name="Ccedilla" unicode="&#xc7;" horiz-adv-x="1228" 
d="M752 -410q-71 0 -156 29l20 123q21 -8 49.5 -14t61 -7.5t54.5 11.5t22 41q0 29 -25.5 41t-75.5 12h-69l37 154q-287 22 -442.5 182t-155.5 444q0 224 93.5 387t254.5 244.5t371 81.5q192 0 366 -86l-45 -221q-170 80 -328 80q-87 0 -180 -27.5t-149 -71.5
q-41 -69 -64.5 -169t-23.5 -208q0 -196 101.5 -303.5t297.5 -107.5q215 0 393 94l43 -209q-156 -103 -387 -113l-14 -59q77 -2 126.5 -35.5t49.5 -109.5q0 -88 -65.5 -135.5t-159.5 -47.5z" />
    <glyph glyph-name="Egrave" unicode="&#xc8;" horiz-adv-x="1036" 
d="M119 0v1290h850v-221h-561v-324h483v-221h-483v-303h563v-221h-852zM229 1679h271l157 -278h-211z" />
    <glyph glyph-name="Eacute" unicode="&#xc9;" horiz-adv-x="1036" 
d="M119 0v1290h850v-221h-561v-324h483v-221h-483v-303h563v-221h-852zM438 1401l160 278h272l-219 -278h-213z" />
    <glyph glyph-name="Ecircumflex" unicode="&#xca;" horiz-adv-x="1036" 
d="M119 0v1290h850v-221h-561v-324h483v-221h-483v-303h563v-221h-852zM236 1403l186 276h246l186 -276h-211l-96 149l-101 -149h-210z" />
    <glyph glyph-name="Edieresis" unicode="&#xcb;" horiz-adv-x="1036" 
d="M119 0v1290h850v-221h-561v-324h483v-221h-483v-303h563v-221h-852zM203 1544q0 59 43 101.5t104 42.5t104.5 -42.5t43.5 -101.5t-43.5 -102t-104.5 -43t-104 43t-43 102zM594 1544q0 59 42.5 101.5t104.5 42.5q61 0 103.5 -42.5t42.5 -101.5t-42.5 -102t-103.5 -43
q-62 0 -104.5 43t-42.5 102z" />
    <glyph glyph-name="Igrave" unicode="&#xcc;" horiz-adv-x="514" 
d="M119 0v1290h276v-1290h-276zM-57 1679h270l158 -278h-211z" />
    <glyph glyph-name="Iacute" unicode="&#xcd;" horiz-adv-x="514" 
d="M119 0v1290h276v-1290h-276zM150 1401l159 278h273l-220 -278h-212z" />
    <glyph glyph-name="Icircumflex" unicode="&#xce;" horiz-adv-x="514" 
d="M119 0v1290h276v-1290h-276zM-51 1403l186 276h246l186 -276h-211l-96 149l-100 -149h-211z" />
    <glyph glyph-name="Idieresis" unicode="&#xcf;" horiz-adv-x="514" 
d="M119 0v1290h276v-1290h-276zM-84 1544q0 59 43 101.5t104 42.5t104.5 -42.5t43.5 -101.5t-43.5 -102t-104.5 -43t-104 43t-43 102zM307 1544q0 59 43 101.5t105 42.5q61 0 103 -42.5t42 -101.5t-42 -102t-103 -43q-62 0 -105 43t-43 102z" />
    <glyph glyph-name="Eth" unicode="&#xd0;" horiz-adv-x="1427" 
d="M180 0v549h-160v192h160v549h498q337 0 507.5 -153.5t170.5 -470.5q0 -310 -188 -488t-502 -178h-486zM457 221h202q200 0 326 80q88 136 88 358q0 194 -97.5 302t-275.5 108h-243v-328h284v-192h-284v-328z" />
    <glyph glyph-name="Ntilde" unicode="&#xd1;" horiz-adv-x="1361" 
d="M119 0v1290h422l436 -995v995h266v-1290h-409l-451 1006v-1006h-264zM354 1401q0 126 50.5 194t142.5 68q42 0 81 -17.5t62.5 -39t49.5 -39t44 -17.5q50 0 50 99h161q0 -126 -51.5 -194.5t-140.5 -68.5q-41 0 -80.5 17.5t-63.5 39t-50 39t-44 17.5q-49 0 -49 -98h-162z
" />
    <glyph glyph-name="Ograve" unicode="&#xd2;" horiz-adv-x="1474" 
d="M727 -29q-137 0 -248.5 35.5t-186 96t-125 145.5t-73 181t-22.5 204q0 203 77 356.5t230.5 241.5t365.5 88q307 0 482.5 -179t175.5 -487q0 -145 -41.5 -267t-123 -215.5t-212.5 -146.5t-299 -53zM367 647q0 -90 22 -169t65.5 -142t115.5 -100t165 -37q85 0 169.5 29.5
t127.5 70.5q37 57 56.5 152t19.5 182q0 93 -23.5 175t-68 146t-117 101t-164.5 37q-81 0 -161.5 -27.5t-124.5 -67.5q-39 -58 -60.5 -157.5t-21.5 -192.5zM424 1679h270l158 -278h-211z" />
    <glyph glyph-name="Oacute" unicode="&#xd3;" horiz-adv-x="1474" 
d="M727 -29q-137 0 -248.5 35.5t-186 96t-125 145.5t-73 181t-22.5 204q0 203 77 356.5t230.5 241.5t365.5 88q307 0 482.5 -179t175.5 -487q0 -145 -41.5 -267t-123 -215.5t-212.5 -146.5t-299 -53zM367 647q0 -90 22 -169t65.5 -142t115.5 -100t165 -37q85 0 169.5 29.5
t127.5 70.5q37 57 56.5 152t19.5 182q0 93 -23.5 175t-68 146t-117 101t-164.5 37q-81 0 -161.5 -27.5t-124.5 -67.5q-39 -58 -60.5 -157.5t-21.5 -192.5zM631 1401l160 278h272l-219 -278h-213z" />
    <glyph glyph-name="Ocircumflex" unicode="&#xd4;" horiz-adv-x="1474" 
d="M727 -29q-137 0 -248.5 35.5t-186 96t-125 145.5t-73 181t-22.5 204q0 203 77 356.5t230.5 241.5t365.5 88q307 0 482.5 -179t175.5 -487q0 -145 -41.5 -267t-123 -215.5t-212.5 -146.5t-299 -53zM367 647q0 -90 22 -169t65.5 -142t115.5 -100t165 -37q85 0 169.5 29.5
t127.5 70.5q37 57 56.5 152t19.5 182q0 93 -23.5 175t-68 146t-117 101t-164.5 37q-81 0 -161.5 -27.5t-124.5 -67.5q-39 -58 -60.5 -157.5t-21.5 -192.5zM430 1403l186 276h246l187 -276h-211l-97 149l-100 -149h-211z" />
    <glyph glyph-name="Otilde" unicode="&#xd5;" horiz-adv-x="1474" 
d="M727 -29q-137 0 -248.5 35.5t-186 96t-125 145.5t-73 181t-22.5 204q0 203 77 356.5t230.5 241.5t365.5 88q307 0 482.5 -179t175.5 -487q0 -145 -41.5 -267t-123 -215.5t-212.5 -146.5t-299 -53zM367 647q0 -90 22 -169t65.5 -142t115.5 -100t165 -37q85 0 169.5 29.5
t127.5 70.5q37 57 56.5 152t19.5 182q0 93 -23.5 175t-68 146t-117 101t-164.5 37q-81 0 -161.5 -27.5t-124.5 -67.5q-39 -58 -60.5 -157.5t-21.5 -192.5zM424 1401q0 127 50.5 194.5t141.5 67.5q42 0 81 -17.5t63 -39t50 -39t44 -17.5q49 0 49 99h162q0 -126 -52 -194.5
t-141 -68.5q-41 0 -80 17.5t-63.5 39t-50 39t-43.5 17.5q-49 0 -49 -98h-162z" />
    <glyph glyph-name="Odieresis" unicode="&#xd6;" horiz-adv-x="1474" 
d="M727 -29q-137 0 -248.5 35.5t-186 96t-125 145.5t-73 181t-22.5 204q0 203 77 356.5t230.5 241.5t365.5 88q307 0 482.5 -179t175.5 -487q0 -145 -41.5 -267t-123 -215.5t-212.5 -146.5t-299 -53zM367 647q0 -90 22 -169t65.5 -142t115.5 -100t165 -37q85 0 169.5 29.5
t127.5 70.5q37 57 56.5 152t19.5 182q0 93 -23.5 175t-68 146t-117 101t-164.5 37q-81 0 -161.5 -27.5t-124.5 -67.5q-39 -58 -60.5 -157.5t-21.5 -192.5zM395 1544q0 59 43.5 101.5t104.5 42.5t104 -42.5t43 -101.5t-43 -102t-104 -43t-104.5 43t-43.5 102zM786 1544
q0 59 43 101.5t105 42.5q61 0 103 -42.5t42 -101.5t-42 -102t-103 -43q-62 0 -105 43t-43 102z" />
    <glyph glyph-name="multiply" unicode="&#xd7;" horiz-adv-x="1140" 
d="M260 195l-143 141l313 313l-313 312l143 141l313 -311l314 311l143 -141l-313 -312l313 -313l-143 -141l-314 311z" />
    <glyph glyph-name="Oslash" unicode="&#xd8;" horiz-adv-x="1474" 
d="M727 -29q-229 0 -385 97l-57 -68h-209l147 170q-151 172 -151 463q0 203 77 356.5t230.5 241.5t365.5 88q228 0 383 -100l62 71h211l-152 -174q154 -177 154 -463q0 -145 -41.5 -267t-123 -215.5t-212.5 -146.5t-299 -53zM367 647q0 -142 51 -250l536 621q-90 74 -219 74
q-81 0 -161.5 -27.5t-124.5 -67.5q-39 -58 -60.5 -157.5t-21.5 -192.5zM518 270q87 -71 217 -71q85 0 169.5 29.5t127.5 70.5q37 57 56.5 152t19.5 182q0 144 -53 256z" />
    <glyph glyph-name="Ugrave" unicode="&#xd9;" horiz-adv-x="1318" 
d="M666 -25q-128 0 -228 30t-174.5 93t-113.5 167.5t-39 246.5v778h278v-778q0 -165 69 -236t208 -71q144 0 208 61q56 66 56 246v778h278v-778q0 -537 -542 -537zM350 1679h271l157 -278h-211z" />
    <glyph glyph-name="Uacute" unicode="&#xda;" horiz-adv-x="1318" 
d="M666 -25q-128 0 -228 30t-174.5 93t-113.5 167.5t-39 246.5v778h278v-778q0 -165 69 -236t208 -71q144 0 208 61q56 66 56 246v778h278v-778q0 -537 -542 -537zM559 1401l160 278h272l-219 -278h-213z" />
    <glyph glyph-name="Ucircumflex" unicode="&#xdb;" horiz-adv-x="1318" 
d="M666 -25q-128 0 -228 30t-174.5 93t-113.5 167.5t-39 246.5v778h278v-778q0 -165 69 -236t208 -71q144 0 208 61q56 66 56 246v778h278v-778q0 -537 -542 -537zM356 1403l187 276h245l187 -276h-211l-96 149l-101 -149h-211z" />
    <glyph glyph-name="Udieresis" unicode="&#xdc;" horiz-adv-x="1318" 
d="M666 -25q-128 0 -228 30t-174.5 93t-113.5 167.5t-39 246.5v778h278v-778q0 -165 69 -236t208 -71q144 0 208 61q56 66 56 246v778h278v-778q0 -537 -542 -537zM324 1544q0 59 43 101.5t104 42.5t104 -42.5t43 -101.5t-43 -102t-104 -43t-104 43t-43 102zM715 1544
q0 59 42.5 101.5t104.5 42.5q61 0 103.5 -42.5t42.5 -101.5t-42.5 -102t-103.5 -43q-62 0 -104.5 43t-42.5 102z" />
    <glyph glyph-name="Yacute" unicode="&#xdd;" horiz-adv-x="1382" 
d="M547 0v434l-527 856h328l344 -602l344 602h326l-526 -856v-434h-289zM584 1401l159 278h273l-219 -278h-213z" />
    <glyph glyph-name="Thorn" unicode="&#xde;" horiz-adv-x="1210" 
d="M119 0v1290h289v-178h208q549 0 549 -424q0 -122 -41 -215t-116 -150.5t-175.5 -86.5t-224.5 -29h-200v-207h-289zM408 424h215q142 0 221 53q49 67 49 195q0 223 -260 223h-225v-471z" />
    <glyph glyph-name="germandbls" unicode="&#xdf;" horiz-adv-x="1105" 
d="M647 -25q-127 0 -219 43l49 203q62 -35 142.5 -42.5t113.5 14.5q19 21 33 64t14 97q0 246 -227 246h-72v186h49q68 0 102 8t64 27q33 61 33 152q0 89 -47 134.5t-127 45.5q-97 0 -145 -66.5t-48 -187.5v-899h-268v887q0 100 26 183t79.5 149.5t145.5 103.5t216 37
q194 0 314 -91t120 -259q0 -230 -207 -303q267 -67 267 -351q0 -178 -109 -279.5t-299 -101.5z" />
    <glyph glyph-name="agrave" unicode="&#xe0;" horiz-adv-x="888" 
d="M600 0l-22 74q-83 -99 -256 -99q-122 0 -201.5 65t-79.5 189q0 250 369 250h139v29q0 57 -31 82.5t-104 25.5q-64 0 -138 -15t-120 -36l-45 185q148 61 335 61q184 0 271.5 -76.5t87.5 -238.5v-496h-205zM137 1225h271l157 -279h-211zM299 242q0 -84 102 -84q79 0 148 59
v96h-139q-64 0 -97 -10q-14 -27 -14 -61z" />
    <glyph glyph-name="aacute" unicode="&#xe1;" horiz-adv-x="888" 
d="M600 0l-22 74q-83 -99 -256 -99q-122 0 -201.5 65t-79.5 189q0 250 369 250h139v29q0 57 -31 82.5t-104 25.5q-64 0 -138 -15t-120 -36l-45 185q148 61 335 61q184 0 271.5 -76.5t87.5 -238.5v-496h-205zM299 242q0 -84 102 -84q79 0 148 59v96h-139q-64 0 -97 -10
q-14 -27 -14 -61zM313 946l160 279h272l-219 -279h-213z" />
    <glyph glyph-name="acircumflex" unicode="&#xe2;" horiz-adv-x="888" 
d="M600 0l-22 74q-83 -99 -256 -99q-122 0 -201.5 65t-79.5 189q0 250 369 250h139v29q0 57 -31 82.5t-104 25.5q-64 0 -138 -15t-120 -36l-45 185q148 61 335 61q184 0 271.5 -76.5t87.5 -238.5v-496h-205zM131 946l186 279h246l187 -279h-211l-97 152l-100 -152h-211z
M299 242q0 -84 102 -84q79 0 148 59v96h-139q-64 0 -97 -10q-14 -27 -14 -61z" />
    <glyph glyph-name="atilde" unicode="&#xe3;" horiz-adv-x="888" 
d="M600 0l-22 74q-83 -99 -256 -99q-122 0 -201.5 65t-79.5 189q0 250 369 250h139v29q0 57 -31 82.5t-104 25.5q-64 0 -138 -15t-120 -36l-45 185q148 61 335 61q184 0 271.5 -76.5t87.5 -238.5v-496h-205zM119 934q0 127 50.5 194.5t141.5 67.5q42 0 81 -17.5t63 -39
t50 -39t44 -17.5q49 0 49 99h162q0 -125 -52 -193.5t-141 -68.5q-41 0 -80 17.5t-63.5 38.5t-50 38.5t-43.5 17.5q-49 0 -49 -98h-162zM299 242q0 -84 102 -84q79 0 148 59v96h-139q-64 0 -97 -10q-14 -27 -14 -61z" />
    <glyph glyph-name="adieresis" unicode="&#xe4;" horiz-adv-x="888" 
d="M600 0l-22 74q-83 -99 -256 -99q-122 0 -201.5 65t-79.5 189q0 250 369 250h139v29q0 57 -31 82.5t-104 25.5q-64 0 -138 -15t-120 -36l-45 185q148 61 335 61q184 0 271.5 -76.5t87.5 -238.5v-496h-205zM106 1094q0 63 42 105t104 42t104.5 -42t42.5 -105t-43 -107.5
t-104 -44.5t-103.5 44.5t-42.5 107.5zM299 242q0 -84 102 -84q79 0 148 59v96h-139q-64 0 -97 -10q-14 -27 -14 -61zM481 1094q0 63 43 105t105 42t103.5 -42t41.5 -105t-42 -107.5t-103 -44.5t-104.5 44.5t-43.5 107.5z" />
    <glyph glyph-name="aring" unicode="&#xe5;" horiz-adv-x="888" 
d="M600 0l-22 74q-83 -99 -256 -99q-122 0 -201.5 65t-79.5 189q0 250 369 250h139v29q0 57 -31 82.5t-104 25.5q-64 0 -138 -15t-120 -36l-45 185q148 61 335 61q184 0 271.5 -76.5t87.5 -238.5v-496h-205zM229 1085q0 89 57 143t152 54t152 -54t57 -143q0 -88 -57 -141
t-152 -53t-152 53t-57 141zM299 242q0 -84 102 -84q79 0 148 59v96h-139q-64 0 -97 -10q-14 -27 -14 -61zM352 1085q0 -41 22.5 -64.5t63.5 -23.5t64.5 23.5t23.5 64.5q0 43 -23.5 67t-64.5 24t-63.5 -24t-22.5 -67z" />
    <glyph glyph-name="ae" unicode="&#xe6;" horiz-adv-x="1425" 
d="M549 508q0 57 -30.5 82.5t-102.5 25.5q-66 0 -140 -15t-120 -36l-45 185q148 61 340 61q185 0 270 -82q106 86 266 86q91 0 162 -26t116 -71.5t72 -109t35 -135.5t0 -154h-555q8 -69 65.5 -112t157.5 -43q131 0 232 57l41 -178q-115 -72 -305 -72q-242 0 -355 140
q-106 -136 -331 -136q-122 0 -201.5 64.5t-79.5 187.5q0 252 369 252h139v29zM299 242q0 -84 98 -84q52 0 102.5 25t84.5 67q-10 49 -11 63h-163q-64 0 -97 -10q-14 -27 -14 -61zM817 479h318q-6 72 -47 108t-107 36q-87 0 -135 -52q-23 -48 -29 -92z" />
    <glyph glyph-name="ccedilla" unicode="&#xe7;" horiz-adv-x="802" 
d="M469 -410q-71 0 -156 29l21 123q21 -8 49.5 -14t60.5 -7.5t54 11.5t22 41q0 29 -25 41t-75 12h-70l37 154q-156 26 -247 127.5t-91 273.5q0 198 133.5 316t339.5 118q121 0 232 -51l-49 -201q-31 18 -82 34.5t-99 16.5q-39 0 -83 -12t-72 -33q-43 -62 -43 -178
q0 -103 55.5 -161t150.5 -58q48 0 106 15.5t103 43.5l41 -184q-95 -68 -250 -74l-14 -55q77 -2 126.5 -35.5t49.5 -109.5q0 -88 -65.5 -135.5t-159.5 -47.5z" />
    <glyph glyph-name="egrave" unicode="&#xe8;" horiz-adv-x="905" 
d="M487 -29q-201 0 -319.5 103t-118.5 305q0 193 112.5 314.5t305.5 121.5q91 0 162 -26t116 -71.5t72 -109t35 -135.5t0 -154h-555q8 -69 65.5 -112t157.5 -43q131 0 232 57l41 -178q-115 -72 -306 -72zM164 1225h270l158 -279h-211zM297 479h317q-6 72 -46.5 108
t-106.5 36q-87 0 -135 -52q-23 -48 -29 -92z" />
    <glyph glyph-name="eacute" unicode="&#xe9;" horiz-adv-x="905" 
d="M487 -29q-201 0 -319.5 103t-118.5 305q0 193 112.5 314.5t305.5 121.5q91 0 162 -26t116 -71.5t72 -109t35 -135.5t0 -154h-555q8 -69 65.5 -112t157.5 -43q131 0 232 57l41 -178q-115 -72 -306 -72zM297 479h317q-6 72 -46.5 108t-106.5 36q-87 0 -135 -52
q-23 -48 -29 -92zM340 946l160 279h272l-219 -279h-213z" />
    <glyph glyph-name="ecircumflex" unicode="&#xea;" horiz-adv-x="905" 
d="M487 -29q-201 0 -319.5 103t-118.5 305q0 193 112.5 314.5t305.5 121.5q91 0 162 -26t116 -71.5t72 -109t35 -135.5t0 -154h-555q8 -69 65.5 -112t157.5 -43q131 0 232 57l41 -178q-115 -72 -306 -72zM158 946l186 279h246l186 -279h-211l-96 152l-100 -152h-211z
M297 479h317q-6 72 -46.5 108t-106.5 36q-87 0 -135 -52q-23 -48 -29 -92z" />
    <glyph glyph-name="edieresis" unicode="&#xeb;" horiz-adv-x="905" 
d="M487 -29q-201 0 -319.5 103t-118.5 305q0 193 112.5 314.5t305.5 121.5q91 0 162 -26t116 -71.5t72 -109t35 -135.5t0 -154h-555q8 -69 65.5 -112t157.5 -43q131 0 232 57l41 -178q-115 -72 -306 -72zM133 1094q0 63 42 105t104 42t104.5 -42t42.5 -105t-43 -107.5
t-104 -44.5t-103.5 44.5t-42.5 107.5zM297 479h317q-6 72 -46.5 108t-106.5 36q-87 0 -135 -52q-23 -48 -29 -92zM508 1094q0 63 42.5 105t104.5 42t104 -42t42 -105t-42.5 -107.5t-103.5 -44.5t-104 44.5t-43 107.5z" />
    <glyph glyph-name="igrave" unicode="&#xec;" horiz-adv-x="456" 
d="M94 0v786h268v-786h-268zM-72 1225h271l157 -279h-211z" />
    <glyph glyph-name="iacute" unicode="&#xed;" horiz-adv-x="456" 
d="M94 0v786h268v-786h-268zM104 946l160 279h273l-220 -279h-213z" />
    <glyph glyph-name="icircumflex" unicode="&#xee;" horiz-adv-x="456" 
d="M94 0v786h268v-786h-268zM-78 946l187 279h245l187 -279h-211l-97 152l-100 -152h-211z" />
    <glyph glyph-name="idieresis" unicode="&#xef;" horiz-adv-x="456" 
d="M94 0v786h268v-786h-268zM-90 1094q0 65 40.5 106t104.5 41q65 0 106.5 -41.5t41.5 -105.5q0 -67 -41.5 -109.5t-106.5 -42.5q-64 0 -104.5 42t-40.5 110zM256 1094q0 64 41 105.5t106 41.5q64 0 105 -41t41 -106q0 -67 -40.5 -109.5t-105.5 -42.5t-106 42.5t-41 109.5z
" />
    <glyph glyph-name="eth" unicode="&#xf0;" horiz-adv-x="976" 
d="M485 -29q-213 0 -324.5 107.5t-111.5 292.5q0 202 114.5 319t303.5 117q73 0 147 -31q-40 119 -147 205l-115 -98h-229l215 186q-114 64 -240 123l162 160q136 -64 252 -133l133 112h232l-236 -201q163 -129 225 -278t62 -371q0 -265 -108 -387.5t-335 -122.5zM326 393
q0 -99 38.5 -162t124.5 -63q94 0 128 65.5t34 212.5q0 95 -4 136q-67 30 -149 30q-100 0 -142 -45q-30 -56 -30 -174z" />
    <glyph glyph-name="ntilde" unicode="&#xf1;" horiz-adv-x="978" 
d="M629 444q0 170 -113 170q-83 0 -154 -75v-539h-268v786h230l20 -88q94 117 256 117q151 0 223 -88t72 -242v-485h-266v444zM164 934q0 127 50.5 194.5t141.5 67.5q42 0 81 -17.5t63 -39t50 -39t44 -17.5q49 0 49 99h162q0 -125 -52 -193.5t-141 -68.5q-41 0 -80 17.5
t-63.5 38.5t-50 38.5t-43.5 17.5q-49 0 -49 -98h-162z" />
    <glyph glyph-name="ograve" unicode="&#xf2;" horiz-adv-x="976" 
d="M483 -29q-203 0 -318.5 112.5t-115.5 305.5q0 192 121 309t322 117q203 0 319.5 -112.5t116.5 -305.5t-121 -309.5t-324 -116.5zM190 1225h271l157 -279h-210zM326 401q0 -106 40 -170.5t126 -64.5q87 0 131 47q28 49 28 170q0 108 -41.5 173t-126.5 65q-83 0 -123 -43
q-34 -54 -34 -177z" />
    <glyph glyph-name="oacute" unicode="&#xf3;" horiz-adv-x="976" 
d="M483 -29q-203 0 -318.5 112.5t-115.5 305.5q0 192 121 309t322 117q203 0 319.5 -112.5t116.5 -305.5t-121 -309.5t-324 -116.5zM326 401q0 -106 40 -170.5t126 -64.5q87 0 131 47q28 49 28 170q0 108 -41.5 173t-126.5 65q-83 0 -123 -43q-34 -54 -34 -177zM367 946
l159 279h273l-219 -279h-213z" />
    <glyph glyph-name="ocircumflex" unicode="&#xf4;" horiz-adv-x="976" 
d="M483 -29q-203 0 -318.5 112.5t-115.5 305.5q0 192 121 309t322 117q203 0 319.5 -112.5t116.5 -305.5t-121 -309.5t-324 -116.5zM184 946l187 279h245l187 -279h-211l-96 152l-101 -152h-211zM326 401q0 -106 40 -170.5t126 -64.5q87 0 131 47q28 49 28 170
q0 108 -41.5 173t-126.5 65q-83 0 -123 -43q-34 -54 -34 -177z" />
    <glyph glyph-name="otilde" unicode="&#xf5;" horiz-adv-x="976" 
d="M483 -29q-203 0 -318.5 112.5t-115.5 305.5q0 192 121 309t322 117q203 0 319.5 -112.5t116.5 -305.5t-121 -309.5t-324 -116.5zM172 934q0 126 50.5 194t142.5 68q42 0 81 -17.5t62.5 -39t49.5 -39t44 -17.5q49 0 49 99h162q0 -126 -51.5 -194t-140.5 -68
q-41 0 -80.5 17.5t-63.5 38.5t-50 38.5t-44 17.5q-49 0 -49 -98h-162zM326 401q0 -106 40 -170.5t126 -64.5q87 0 131 47q28 49 28 170q0 108 -41.5 173t-126.5 65q-83 0 -123 -43q-34 -54 -34 -177z" />
    <glyph glyph-name="odieresis" unicode="&#xf6;" horiz-adv-x="976" 
d="M483 -29q-203 0 -318.5 112.5t-115.5 305.5q0 192 121 309t322 117q203 0 319.5 -112.5t116.5 -305.5t-121 -309.5t-324 -116.5zM160 1094q0 63 41.5 105t103.5 42t105 -42t43 -105t-43.5 -107.5t-104.5 -44.5t-103 44.5t-42 107.5zM326 401q0 -106 40 -170.5t126 -64.5
q87 0 131 47q28 49 28 170q0 108 -41.5 173t-126.5 65q-83 0 -123 -43q-34 -54 -34 -177zM535 1094q0 63 42.5 105t104.5 42t103.5 -42t41.5 -105t-42 -107.5t-103 -44.5t-104 44.5t-43 107.5z" />
    <glyph glyph-name="divide" unicode="&#xf7;" horiz-adv-x="1140" 
d="M115 551v192h911v-192h-911zM436 276q0 55 38.5 94.5t96.5 39.5q57 0 96.5 -40t39.5 -94q0 -56 -40 -94.5t-96 -38.5q-58 0 -96.5 38.5t-38.5 94.5zM436 1018q0 55 38.5 94t96.5 39q57 0 96.5 -39.5t39.5 -93.5q0 -56 -40 -94.5t-96 -38.5q-58 0 -96.5 38t-38.5 95z" />
    <glyph glyph-name="oslash" unicode="&#xf8;" horiz-adv-x="976" 
d="M483 -29q-154 0 -258 66l-35 -37h-149l100 106q-92 112 -92 283q0 192 121 309t322 117q150 0 258 -63l32 34h152l-100 -106q94 -111 94 -283q0 -193 -121 -309.5t-324 -116.5zM326 401q0 -54 8 -90l254 271q-39 39 -105 39q-83 0 -123 -43q-34 -54 -34 -177zM385 207
q41 -41 107 -41q87 0 131 47q28 49 28 170q0 46 -10 94z" />
    <glyph glyph-name="ugrave" unicode="&#xf9;" horiz-adv-x="978" 
d="M381 -29q-150 0 -223.5 88t-73.5 240v487h266v-448q0 -166 117 -166q77 0 149 68v546h269v-786h-228l-22 86q-92 -115 -254 -115zM193 1225h270l158 -279h-211z" />
    <glyph glyph-name="uacute" unicode="&#xfa;" horiz-adv-x="978" 
d="M381 -29q-150 0 -223.5 88t-73.5 240v487h266v-448q0 -166 117 -166q77 0 149 68v546h269v-786h-228l-22 86q-92 -115 -254 -115zM371 946l159 279h273l-219 -279h-213z" />
    <glyph glyph-name="ucircumflex" unicode="&#xfb;" horiz-adv-x="978" 
d="M381 -29q-150 0 -223.5 88t-73.5 240v487h266v-448q0 -166 117 -166q77 0 149 68v546h269v-786h-228l-22 86q-92 -115 -254 -115zM186 946l187 279h245l187 -279h-211l-96 152l-101 -152h-211z" />
    <glyph glyph-name="udieresis" unicode="&#xfc;" horiz-adv-x="978" 
d="M381 -29q-150 0 -223.5 88t-73.5 240v487h266v-448q0 -166 117 -166q77 0 149 68v546h269v-786h-228l-22 86q-92 -115 -254 -115zM162 1094q0 63 41.5 105t103.5 42t105 -42t43 -105t-43.5 -107.5t-104.5 -44.5t-103 44.5t-42 107.5zM537 1094q0 63 42.5 105t104.5 42
t103.5 -42t41.5 -105t-42 -107.5t-103 -44.5t-104 44.5t-43 107.5z" />
    <glyph glyph-name="yacute" unicode="&#xfd;" horiz-adv-x="978" 
d="M416 -414q-172 0 -314 74l50 207q123 -76 268 -76q104 0 155 39q23 36 31 86.5t10 159.5q-88 -88 -227 -88q-305 0 -305 342v456h266v-436q0 -84 30.5 -125t84.5 -41q72 0 151 60v542h269v-766q0 -80 -18 -145.5t-47 -110t-70.5 -78t-83 -52t-89.5 -30t-85.5 -15
t-75.5 -3.5zM371 946l159 279h273l-219 -279h-213z" />
    <glyph glyph-name="thorn" unicode="&#xfe;" horiz-adv-x="999" 
d="M94 -385v1716h268v-600q80 84 222 84q174 0 270 -114t96 -293q0 -203 -124.5 -320t-323.5 -117q-74 0 -140 17v-373h-268zM362 186q58 -20 119 -20q111 0 160 49q15 28 25 78t10 96q0 106 -42 169t-122 63q-74 0 -150 -72v-363z" />
    <glyph glyph-name="ydieresis" unicode="&#xff;" horiz-adv-x="978" 
d="M416 -414q-172 0 -314 74l50 207q123 -76 268 -76q104 0 155 39q23 36 31 86.5t10 159.5q-88 -88 -227 -88q-305 0 -305 342v456h266v-436q0 -84 30.5 -125t84.5 -41q72 0 151 60v542h269v-766q0 -80 -18 -145.5t-47 -110t-70.5 -78t-83 -52t-89.5 -30t-85.5 -15
t-75.5 -3.5zM162 1094q0 63 41.5 105t103.5 42t105 -42t43 -105t-43.5 -107.5t-104.5 -44.5t-103 44.5t-42 107.5zM537 1094q0 63 42.5 105t104.5 42t103.5 -42t41.5 -105t-42 -107.5t-103 -44.5t-104 44.5t-43 107.5z" />
    <glyph glyph-name="Amacron" unicode="&#x100;" horiz-adv-x="1357" 
d="M20 0l484 1290h352l483 -1290h-305l-88 256h-534l-88 -256h-304zM412 1425v185h536v-185h-536zM487 475h383l-190 557z" />
    <glyph glyph-name="amacron" unicode="&#x101;" horiz-adv-x="888" 
d="M600 0l-22 74q-83 -99 -256 -99q-122 0 -201.5 65t-79.5 189q0 250 369 250h139v29q0 57 -31 82.5t-104 25.5q-64 0 -138 -15t-120 -36l-45 185q148 61 335 61q184 0 271.5 -76.5t87.5 -238.5v-496h-205zM172 979v184h537v-184h-537zM299 242q0 -84 102 -84q79 0 148 59
v96h-139q-64 0 -97 -10q-14 -27 -14 -61z" />
    <glyph glyph-name="Abreve" unicode="&#x102;" horiz-adv-x="1357" 
d="M20 0l484 1290h352l483 -1290h-305l-88 256h-534l-88 -256h-304zM375 1671l168 27q9 -73 42.5 -106t92.5 -33q60 0 94 33t43 106l168 -27q-18 -133 -94.5 -205.5t-210.5 -72.5q-130 0 -208 73t-95 205zM487 475h383l-190 557z" />
    <glyph glyph-name="abreve" unicode="&#x103;" horiz-adv-x="888" 
d="M600 0l-22 74q-83 -99 -256 -99q-122 0 -201.5 65t-79.5 189q0 250 369 250h139v29q0 57 -31 82.5t-104 25.5q-64 0 -138 -15t-120 -36l-45 185q148 61 335 61q184 0 271.5 -76.5t87.5 -238.5v-496h-205zM135 1217l168 26q9 -73 42.5 -106t92.5 -33q60 0 94 33t43 106
l168 -26q-18 -133 -94.5 -206t-210.5 -73q-130 0 -207.5 73.5t-95.5 205.5zM299 242q0 -84 102 -84q79 0 148 59v96h-139q-64 0 -97 -10q-14 -27 -14 -61z" />
    <glyph glyph-name="Aogonek" unicode="&#x104;" horiz-adv-x="1357" 
d="M20 0l484 1290h352l483 -1290h-149q-75 -43 -118.5 -94.5t-43.5 -98.5q0 -53 64 -53q29 0 67 17l31 -150q-74 -31 -139 -31q-92 0 -154.5 45.5t-62.5 133.5q0 79 56 143.5t136 110.5l-80 233h-534l-88 -256h-304zM487 475h383l-190 557z" />
    <glyph glyph-name="aogonek" unicode="&#x105;" horiz-adv-x="888" 
d="M322 -25q-122 0 -201.5 65t-79.5 189q0 250 369 250h139v29q0 57 -31 82.5t-104 25.5q-64 0 -138 -15t-120 -36l-45 185q148 61 335 61q184 0 271.5 -76.5t87.5 -238.5v-496h-33q-75 -43 -118.5 -94.5t-43.5 -98.5q0 -53 64 -53q29 0 67 17l31 -150q-74 -31 -139 -31
q-92 0 -154.5 45.5t-62.5 133.5q0 75 51.5 138t128.5 107l-18 60q-83 -99 -256 -99zM299 242q0 -84 102 -84q79 0 148 59v96h-139q-64 0 -97 -10q-14 -27 -14 -61z" />
    <glyph glyph-name="Cacute" unicode="&#x106;" horiz-adv-x="1228" 
d="M762 -25q-330 0 -510 161.5t-180 469.5q0 224 93.5 387t254.5 244.5t371 81.5q192 0 366 -86l-45 -221q-170 80 -328 80q-87 0 -180 -27.5t-149 -71.5q-41 -69 -64.5 -169t-23.5 -208q0 -196 101.5 -303.5t297.5 -107.5q215 0 393 94l43 -209q-177 -115 -440 -115z
M653 1401l160 278h272l-219 -278h-213z" />
    <glyph glyph-name="cacute" unicode="&#x107;" horiz-adv-x="802" 
d="M487 -29q-197 0 -317.5 105.5t-120.5 304.5q0 198 133.5 316t339.5 118q121 0 232 -51l-49 -201q-31 18 -82 34.5t-99 16.5q-39 0 -83 -12t-72 -33q-43 -62 -43 -178q0 -103 55.5 -161t150.5 -58q48 0 106 15.5t103 43.5l41 -184q-109 -76 -295 -76zM342 946l160 279h272
l-219 -279h-213z" />
    <glyph glyph-name="Ccircumflex" unicode="&#x108;" horiz-adv-x="1228" 
d="M762 -25q-330 0 -510 161.5t-180 469.5q0 224 93.5 387t254.5 244.5t371 81.5q192 0 366 -86l-45 -221q-170 80 -328 80q-87 0 -180 -27.5t-149 -71.5q-41 -69 -64.5 -169t-23.5 -208q0 -196 101.5 -303.5t297.5 -107.5q215 0 393 94l43 -209q-177 -115 -440 -115z
M453 1403l186 276h246l186 -276h-211l-96 149l-100 -149h-211z" />
    <glyph glyph-name="ccircumflex" unicode="&#x109;" horiz-adv-x="802" 
d="M487 -29q-197 0 -317.5 105.5t-120.5 304.5q0 198 133.5 316t339.5 118q121 0 232 -51l-49 -201q-31 18 -82 34.5t-99 16.5q-39 0 -83 -12t-72 -33q-43 -62 -43 -178q0 -103 55.5 -161t150.5 -58q48 0 106 15.5t103 43.5l41 -184q-109 -76 -295 -76zM160 946l186 279h246
l186 -279h-211l-96 152l-100 -152h-211z" />
    <glyph glyph-name="Cdotaccent" unicode="&#x10a;" horiz-adv-x="1228" 
d="M762 -25q-330 0 -510 161.5t-180 469.5q0 224 93.5 387t254.5 244.5t371 81.5q192 0 366 -86l-45 -221q-170 80 -328 80q-87 0 -180 -27.5t-149 -71.5q-41 -69 -64.5 -169t-23.5 -208q0 -196 101.5 -303.5t297.5 -107.5q215 0 393 94l43 -209q-177 -115 -440 -115z
M614 1544q0 59 43 101.5t105 42.5q61 0 104 -42.5t43 -101.5t-43 -102t-104 -43q-62 0 -105 43t-43 102z" />
    <glyph glyph-name="cdotaccent" unicode="&#x10b;" horiz-adv-x="802" 
d="M487 -29q-197 0 -317.5 105.5t-120.5 304.5q0 198 133.5 316t339.5 118q121 0 232 -51l-49 -201q-31 18 -82 34.5t-99 16.5q-39 0 -83 -12t-72 -33q-43 -62 -43 -178q0 -103 55.5 -161t150.5 -58q48 0 106 15.5t103 43.5l41 -184q-109 -76 -295 -76zM315 1092
q0 62 45 105.5t109 43.5t109 -43.5t45 -105.5t-45 -106t-109 -44t-109 44t-45 106z" />
    <glyph glyph-name="Ccaron" unicode="&#x10c;" horiz-adv-x="1228" 
d="M762 -25q-330 0 -510 161.5t-180 469.5q0 224 93.5 387t254.5 244.5t371 81.5q192 0 366 -86l-45 -221q-170 80 -328 80q-87 0 -180 -27.5t-149 -71.5q-41 -69 -64.5 -169t-23.5 -208q0 -196 101.5 -303.5t297.5 -107.5q215 0 393 94l43 -209q-177 -115 -440 -115z
M453 1679h211l100 -149l96 149h211l-186 -276h-246z" />
    <glyph glyph-name="ccaron" unicode="&#x10d;" horiz-adv-x="802" 
d="M487 -29q-197 0 -317.5 105.5t-120.5 304.5q0 198 133.5 316t339.5 118q121 0 232 -51l-49 -201q-31 18 -82 34.5t-99 16.5q-39 0 -83 -12t-72 -33q-43 -62 -43 -178q0 -103 55.5 -161t150.5 -58q48 0 106 15.5t103 43.5l41 -184q-109 -76 -295 -76zM160 1237h211
l100 -158l96 158h211l-186 -291h-246z" />
    <glyph glyph-name="Dcaron" unicode="&#x10e;" horiz-adv-x="1366" 
d="M119 0v1290h497q337 0 507.5 -153.5t170.5 -470.5q0 -310 -188 -488t-502 -178h-485zM315 1679h211l101 -149l96 149h211l-186 -276h-246zM395 221h203q200 0 326 80q88 136 88 358q0 194 -97.5 302t-275.5 108h-244v-848z" />
    <glyph glyph-name="dcaron" unicode="&#x10f;" horiz-adv-x="999" 
d="M412 -29q-172 0 -267.5 114t-95.5 294q0 202 126 319t325 117q75 0 137 -16v532h268v-1331h-227l-23 80q-32 -48 -94.5 -78.5t-148.5 -30.5zM326 397q0 -106 41.5 -168.5t119.5 -62.5q83 0 150 70v362q-56 23 -119 23q-108 0 -162 -48q-30 -65 -30 -176zM973 946l20 385
h203l-61 -385h-162z" />
    <glyph glyph-name="Dcroat" unicode="&#x110;" horiz-adv-x="1468" 
d="M221 0v549h-160v192h160v549h498q337 0 507.5 -153.5t170.5 -470.5q0 -310 -188 -488t-502 -178h-486zM498 221h202q200 0 326 80q88 136 88 358q0 194 -97.5 302t-275.5 108h-243v-328h284v-192h-284v-328z" />
    <glyph glyph-name="dcroat" unicode="&#x111;" horiz-adv-x="999" 
d="M412 -29q-172 0 -267.5 114t-95.5 294q0 202 126 319t325 117q75 0 137 -16v211h-240v159h240v162h268v-162h119v-159h-119v-1010h-227l-23 80q-32 -48 -94.5 -78.5t-148.5 -30.5zM326 397q0 -106 41.5 -168.5t119.5 -62.5q83 0 150 70v362q-56 23 -119 23
q-108 0 -162 -48q-30 -65 -30 -176z" />
    <glyph glyph-name="Emacron" unicode="&#x112;" horiz-adv-x="1036" 
d="M119 0v1290h850v-221h-561v-324h483v-221h-483v-303h563v-221h-852zM276 1425v185h537v-185h-537z" />
    <glyph glyph-name="emacron" unicode="&#x113;" horiz-adv-x="905" 
d="M487 -29q-201 0 -319.5 103t-118.5 305q0 193 112.5 314.5t305.5 121.5q91 0 162 -26t116 -71.5t72 -109t35 -135.5t0 -154h-555q8 -69 65.5 -112t157.5 -43q131 0 232 57l41 -178q-115 -72 -306 -72zM199 979v184h536v-184h-536zM297 479h317q-6 72 -46.5 108t-106.5 36
q-87 0 -135 -52q-23 -48 -29 -92z" />
    <glyph glyph-name="Edotaccent" unicode="&#x116;" horiz-adv-x="1036" 
d="M119 0v1290h850v-221h-561v-324h483v-221h-483v-303h563v-221h-852zM397 1544q0 59 43 101.5t105 42.5q61 0 104 -42.5t43 -101.5t-43 -102t-104 -43q-62 0 -105 43t-43 102z" />
    <glyph glyph-name="edotaccent" unicode="&#x117;" horiz-adv-x="905" 
d="M487 -29q-201 0 -319.5 103t-118.5 305q0 193 112.5 314.5t305.5 121.5q91 0 162 -26t116 -71.5t72 -109t35 -135.5t0 -154h-555q8 -69 65.5 -112t157.5 -43q131 0 232 57l41 -178q-115 -72 -306 -72zM297 479h317q-6 72 -46.5 108t-106.5 36q-87 0 -135 -52
q-23 -48 -29 -92zM313 1092q0 62 45 105.5t109 43.5t109 -43.5t45 -105.5t-45 -106t-109 -44t-109 44t-45 106z" />
    <glyph glyph-name="Eogonek" unicode="&#x118;" horiz-adv-x="1036" 
d="M119 0v1290h850v-221h-561v-324h483v-221h-483v-303h563v-221q-75 -43 -118.5 -94.5t-43.5 -98.5q0 -53 63 -53q30 0 68 17l31 -150q-74 -31 -140 -31q-92 0 -154.5 45.5t-62.5 133.5q0 130 158 231h-653z" />
    <glyph glyph-name="eogonek" unicode="&#x119;" horiz-adv-x="905" 
d="M541 -410q-92 0 -154.5 45.5t-62.5 133.5q0 114 125 202q-185 11 -292.5 113.5t-107.5 294.5q0 193 112.5 314.5t305.5 121.5q91 0 162 -26t116 -71.5t72 -109t35 -135.5t0 -154h-555q8 -69 65.5 -112t157.5 -43q131 0 232 57l41 -178l-19 -10q-16 -10 -54 -30.5
t-59.5 -33.5t-52.5 -34t-48 -39t-29.5 -41.5t-12.5 -47.5q0 -53 64 -53q29 0 67 17l31 -150q-74 -31 -139 -31zM297 479h317q-6 72 -46.5 108t-106.5 36q-87 0 -135 -52q-23 -48 -29 -92z" />
    <glyph glyph-name="Ecaron" unicode="&#x11a;" horiz-adv-x="1036" 
d="M119 0v1290h850v-221h-561v-324h483v-221h-483v-303h563v-221h-852zM236 1679h210l101 -149l96 149h211l-186 -276h-246z" />
    <glyph glyph-name="ecaron" unicode="&#x11b;" horiz-adv-x="905" 
d="M487 -29q-201 0 -319.5 103t-118.5 305q0 193 112.5 314.5t305.5 121.5q91 0 162 -26t116 -71.5t72 -109t35 -135.5t0 -154h-555q8 -69 65.5 -112t157.5 -43q131 0 232 57l41 -178q-115 -72 -306 -72zM158 1237h211l100 -158l96 158h211l-186 -291h-246zM297 479h317
q-6 72 -46.5 108t-106.5 36q-87 0 -135 -52q-23 -48 -29 -92z" />
    <glyph glyph-name="Gcircumflex" unicode="&#x11c;" horiz-adv-x="1351" 
d="M770 -29q-333 0 -515.5 163t-182.5 478q0 332 203 519.5t542 187.5q208 0 371 -86l-45 -221q-184 80 -338 80q-95 0 -192 -28t-158 -71q-41 -66 -64.5 -161.5t-23.5 -196.5q0 -212 105.5 -324t313.5 -112q114 0 226 28v269h-260v217h499v-623q-183 -119 -481 -119z
M487 1403l187 276h246l186 -276h-211l-96 149l-101 -149h-211z" />
    <glyph glyph-name="gcircumflex" unicode="&#x11d;" horiz-adv-x="991" 
d="M444 -414q-174 0 -321 72l49 211q129 -80 295 -80q93 0 147 41q27 57 27 211v18q-85 -63 -213 -63q-178 0 -278.5 102.5t-100.5 286.5q0 201 121.5 315.5t325.5 114.5q209 0 310 -107.5t101 -324.5v-354q0 -236 -119.5 -339.5t-343.5 -103.5zM182 946l187 279h245
l187 -279h-211l-96 152l-101 -152h-211zM324 403q0 -104 42.5 -158.5t120.5 -54.5q85 0 154 56v145q0 121 -41.5 175.5t-107.5 54.5q-77 0 -130 -39q-38 -62 -38 -179z" />
    <glyph glyph-name="Gbreve" unicode="&#x11e;" horiz-adv-x="1351" 
d="M770 -29q-333 0 -515.5 163t-182.5 478q0 332 203 519.5t542 187.5q208 0 371 -86l-45 -221q-184 80 -338 80q-95 0 -192 -28t-158 -71q-41 -66 -64.5 -161.5t-23.5 -196.5q0 -212 105.5 -324t313.5 -112q114 0 226 28v269h-260v217h499v-623q-183 -119 -481 -119z
M492 1671l167 27q17 -139 136 -139q60 0 94 33t43 106l168 -27q-18 -133 -94.5 -205.5t-210.5 -72.5q-130 0 -208 73t-95 205z" />
    <glyph glyph-name="gbreve" unicode="&#x11f;" horiz-adv-x="991" 
d="M444 -414q-174 0 -321 72l49 211q129 -80 295 -80q93 0 147 41q27 57 27 211v18q-85 -63 -213 -63q-178 0 -278.5 102.5t-100.5 286.5q0 201 121.5 315.5t325.5 114.5q209 0 310 -107.5t101 -324.5v-354q0 -236 -119.5 -339.5t-343.5 -103.5zM186 1217l168 26
q9 -73 42.5 -106t92.5 -33q60 0 94.5 33t43.5 106l168 -26q-18 -133 -95 -206t-211 -73q-130 0 -207.5 73.5t-95.5 205.5zM324 403q0 -104 42.5 -158.5t120.5 -54.5q85 0 154 56v145q0 121 -41.5 175.5t-107.5 54.5q-77 0 -130 -39q-38 -62 -38 -179z" />
    <glyph glyph-name="Gdotaccent" unicode="&#x120;" horiz-adv-x="1351" 
d="M770 -29q-333 0 -515.5 163t-182.5 478q0 332 203 519.5t542 187.5q208 0 371 -86l-45 -221q-184 80 -338 80q-95 0 -192 -28t-158 -71q-41 -66 -64.5 -161.5t-23.5 -196.5q0 -212 105.5 -324t313.5 -112q114 0 226 28v269h-260v217h499v-623q-183 -119 -481 -119z
M649 1544q0 59 43 101.5t105 42.5q61 0 104 -42.5t43 -101.5t-43 -102t-104 -43q-62 0 -105 43t-43 102z" />
    <glyph glyph-name="gdotaccent" unicode="&#x121;" horiz-adv-x="991" 
d="M444 -414q-174 0 -321 72l49 211q129 -80 295 -80q93 0 147 41q27 57 27 211v18q-85 -63 -213 -63q-178 0 -278.5 102.5t-100.5 286.5q0 201 121.5 315.5t325.5 114.5q209 0 310 -107.5t101 -324.5v-354q0 -236 -119.5 -339.5t-343.5 -103.5zM324 403q0 -104 42.5 -158.5
t120.5 -54.5q85 0 154 56v145q0 121 -41.5 175.5t-107.5 54.5q-77 0 -130 -39q-38 -62 -38 -179zM338 1092q0 62 45 105.5t109 43.5t108.5 -43.5t44.5 -105.5t-44.5 -106t-108.5 -44t-109 44t-45 106z" />
    <glyph glyph-name="uni0122" unicode="&#x122;" horiz-adv-x="1351" 
d="M770 -29q-333 0 -515.5 163t-182.5 478q0 332 203 519.5t542 187.5q208 0 371 -86l-45 -221q-184 80 -338 80q-95 0 -192 -28t-158 -71q-41 -66 -64.5 -161.5t-23.5 -196.5q0 -212 105.5 -324t313.5 -112q114 0 226 28v269h-260v217h499v-623q-183 -119 -481 -119z
M657 -207q0 49 34 77t91 28q70 0 108 -37.5t38 -96.5q0 -79 -49 -147.5t-131 -103.5l-72 81q78 49 78 80q0 14 -15 25t-33.5 18.5t-33.5 27t-15 48.5z" />
    <glyph glyph-name="uni0123" unicode="&#x123;" horiz-adv-x="991" 
d="M444 -414q-174 0 -321 72l49 211q129 -80 295 -80q93 0 147 41q27 57 27 211v18q-85 -63 -213 -63q-178 0 -278.5 102.5t-100.5 286.5q0 201 121.5 315.5t325.5 114.5q209 0 310 -107.5t101 -324.5v-354q0 -236 -119.5 -339.5t-343.5 -103.5zM324 403q0 -104 42.5 -158.5
t120.5 -54.5q85 0 154 56v145q0 121 -41.5 175.5t-107.5 54.5q-77 0 -130 -39q-38 -62 -38 -179zM346 1042q0 79 50 147.5t130 104.5l72 -82q-78 -49 -78 -79q0 -14 15 -25t33 -18.5t33 -27t15 -48.5q0 -50 -33 -77.5t-91 -27.5q-70 0 -108 37t-38 96z" />
    <glyph glyph-name="Hcircumflex" unicode="&#x124;" horiz-adv-x="1357" 
d="M950 0v518h-542v-518h-289v1290h289v-551h542v551h289v-1290h-289zM371 1403l186 276h246l186 -276h-211l-96 149l-100 -149h-211z" />
    <glyph glyph-name="hcircumflex" unicode="&#x125;" horiz-adv-x="978" 
d="M629 444q0 170 -117 170q-79 0 -150 -75v-539h-268v1331h268v-612q89 96 238 96q151 0 223 -88t72 -242v-485h-266v444zM182 1403l187 276h245l187 -276h-211l-96 149l-101 -149h-211z" />
    <glyph glyph-name="Hbar" unicode="&#x126;" horiz-adv-x="1398" 
d="M971 0v518h-543v-518h-289v924h-104v192h104v174h289v-174h543v174h289v-174h106v-192h-106v-924h-289zM428 739h543v185h-543v-185z" />
    <glyph glyph-name="hbar" unicode="&#x127;" horiz-adv-x="978" 
d="M629 444q0 170 -117 170q-79 0 -150 -75v-539h-268v1010h-117v159h117v162h268v-162h242v-159h-242v-291q89 96 238 96q151 0 223 -88t72 -242v-485h-266v444z" />
    <glyph glyph-name="Itilde" unicode="&#x128;" horiz-adv-x="514" 
d="M119 0v1290h276v-1290h-276zM-57 1401q0 127 50.5 194.5t141.5 67.5q42 0 81 -17.5t63 -39t50 -39t44 -17.5q49 0 49 99h162q0 -126 -52 -194.5t-141 -68.5q-41 0 -80 17.5t-63.5 39t-50 39t-43.5 17.5q-50 0 -50 -98h-161z" />
    <glyph glyph-name="itilde" unicode="&#x129;" horiz-adv-x="456" 
d="M94 0v786h268v-786h-268zM-90 934q0 127 50.5 194.5t141.5 67.5q42 0 81 -17.5t63 -39t50 -39t44 -17.5q49 0 49 99h162q0 -125 -52 -193.5t-141 -68.5q-41 0 -80 17.5t-63.5 38.5t-50 38.5t-43.5 17.5q-49 0 -49 -98h-162z" />
    <glyph glyph-name="Imacron" unicode="&#x12a;" horiz-adv-x="514" 
d="M119 0v1290h276v-1290h-276zM-10 1425v185h536v-185h-536z" />
    <glyph glyph-name="imacron" unicode="&#x12b;" horiz-adv-x="456" 
d="M94 0v786h268v-786h-268zM-37 979v184h537v-184h-537z" />
    <glyph glyph-name="Iogonek" unicode="&#x12e;" horiz-adv-x="514" 
d="M119 0v1290h276v-1290q-75 -43 -118.5 -94.5t-43.5 -98.5q0 -53 64 -53q30 0 68 17l30 -150q-74 -31 -139 -31q-92 0 -154.5 45.5t-62.5 133.5q0 130 158 231h-78z" />
    <glyph glyph-name="iogonek" unicode="&#x12f;" horiz-adv-x="456" 
d="M94 0v786h268v-786q-75 -43 -118 -94.5t-43 -98.5q0 -53 63 -53q30 0 68 17l30 -150q-74 -31 -139 -31q-92 0 -154.5 45.5t-62.5 133.5q0 130 158 231h-70zM78 1092q0 62 44.5 105.5t108.5 43.5t109 -43.5t45 -105.5t-45 -106t-109 -44t-108.5 44t-44.5 106z" />
    <glyph glyph-name="Idotaccent" unicode="&#x130;" horiz-adv-x="514" 
d="M119 0v1290h276v-1290h-276zM111 1544q0 59 42.5 101.5t104.5 42.5q61 0 104.5 -42.5t43.5 -101.5t-43.5 -102t-104.5 -43q-62 0 -104.5 43t-42.5 102z" />
    <glyph glyph-name="dotlessi" unicode="&#x131;" horiz-adv-x="456" 
d="M94 0v786h268v-786h-268z" />
    <glyph glyph-name="IJ" unicode="&#x132;" horiz-adv-x="1046" 
d="M119 0v1290h276v-1290h-276zM371 -137q58 4 107 22.5t90.5 53.5t65 94t23.5 137v1120h277v-1065q0 -520 -479 -587z" />
    <glyph glyph-name="ij" unicode="&#x133;" horiz-adv-x="913" 
d="M94 0v786h268v-786h-268zM78 1092q0 62 44.5 105.5t108.5 43.5t109 -43.5t45 -105.5t-45 -106t-109 -44t-108.5 44t-44.5 106zM369 -193q79 7 130.5 59t51.5 157v763h268v-710q0 -427 -381 -486zM532 1092q0 62 45 105.5t109 43.5t109 -43.5t45 -105.5t-45 -106t-109 -44
t-109 44t-45 106z" />
    <glyph glyph-name="Jcircumflex" unicode="&#x134;" horiz-adv-x="532" 
d="M-143 -137q58 4 107 22.5t90.5 53.5t65 94t23.5 137v1120h277v-1065q0 -520 -479 -587zM-45 1403l186 276h246l186 -276h-211l-96 149l-100 -149h-211z" />
    <glyph glyph-name="jcircumflex" unicode="&#x135;" horiz-adv-x="456" 
d="M-88 -193q79 7 130.5 59t51.5 157v763h268v-710q0 -427 -380 -486zM-80 946l186 279h246l187 -279h-211l-97 152l-100 -152h-211z" />
    <glyph glyph-name="uni0136" unicode="&#x136;" horiz-adv-x="1253" 
d="M893 0l-467 647l434 643h326l-457 -635l510 -655h-346zM119 0v1290h276v-1290h-276zM512 -207q0 49 34 77t91 28q70 0 107.5 -37.5t37.5 -96.5q0 -79 -49 -147.5t-131 -103.5l-72 81q78 49 78 80q0 14 -15 25t-33 18.5t-33 27t-15 48.5z" />
    <glyph glyph-name="uni0137" unicode="&#x137;" horiz-adv-x="954" 
d="M645 0l-256 414l234 360h301l-262 -360l282 -414h-299zM94 0v1331h268v-1331h-268zM354 -207q0 49 34 77t91 28q70 0 108 -37.5t38 -96.5q0 -79 -49.5 -147.5t-131.5 -103.5l-71 81q78 49 78 80q0 14 -15 25t-33.5 18.5t-33.5 27t-15 48.5z" />
    <glyph glyph-name="Lacute" unicode="&#x139;" horiz-adv-x="1001" 
d="M119 0v1290h289v-1069h567v-221h-856zM158 1401l159 278h273l-219 -278h-213z" />
    <glyph glyph-name="lacute" unicode="&#x13a;" horiz-adv-x="456" 
d="M94 0v1331h268v-1331h-268zM123 1425l160 279h272l-219 -279h-213z" />
    <glyph glyph-name="uni013B" unicode="&#x13b;" horiz-adv-x="1001" 
d="M119 0v1290h289v-1069h567v-221h-856zM432 -207q0 49 34 77t91 28q70 0 107.5 -37.5t37.5 -96.5q0 -79 -49 -147.5t-131 -103.5l-71 81q77 49 77 80q0 14 -15 25t-33 18.5t-33 27t-15 48.5z" />
    <glyph glyph-name="uni013C" unicode="&#x13c;" horiz-adv-x="456" 
d="M94 0v1331h268v-1331h-268zM104 -207q0 49 34 77t91 28q70 0 108 -37.5t38 -96.5q0 -79 -49 -147.5t-131 -103.5l-72 81q78 49 78 80q0 14 -15 25t-33.5 18.5t-33.5 27t-15 48.5z" />
    <glyph glyph-name="Lcaron" unicode="&#x13d;" horiz-adv-x="1001" 
d="M119 0v1290h289v-1069h567v-221h-856zM475 905l21 385h202l-61 -385h-162z" />
    <glyph glyph-name="lcaron" unicode="&#x13e;" horiz-adv-x="456" 
d="M94 0v1331h268v-1331h-268zM430 946l21 385h202l-61 -385h-162z" />
    <glyph glyph-name="Ldot" unicode="&#x13f;" horiz-adv-x="1001" 
d="M119 0v1290h289v-1069h567v-221h-856zM608 684q0 62 45 106t109 44t107.5 -44t43.5 -106t-43.5 -105.5t-107.5 -43.5t-109 43.5t-45 105.5z" />
    <glyph glyph-name="ldot" unicode="&#x140;" horiz-adv-x="657" 
d="M94 0v1331h268v-1331h-268zM416 645q0 57 41 98t100 41t100 -41.5t41 -97.5q0 -57 -41 -98t-100 -41q-60 0 -100.5 40t-40.5 99z" />
    <glyph glyph-name="Lslash" unicode="&#x141;" horiz-adv-x="1042" 
d="M160 0v381l-133 -80v221l133 80v688h289v-514l270 162v-221l-270 -162v-334h567v-221h-856z" />
    <glyph glyph-name="lslash" unicode="&#x142;" horiz-adv-x="579" 
d="M156 0v504l-117 -74v199l117 73v629h268v-506l117 74v-199l-117 -73v-627h-268z" />
    <glyph glyph-name="Nacute" unicode="&#x143;" horiz-adv-x="1361" 
d="M119 0v1290h422l436 -995v995h266v-1290h-409l-451 1006v-1006h-264zM563 1401l160 278h272l-219 -278h-213z" />
    <glyph glyph-name="nacute" unicode="&#x144;" horiz-adv-x="978" 
d="M629 444q0 170 -113 170q-83 0 -154 -75v-539h-268v786h230l20 -88q94 117 256 117q151 0 223 -88t72 -242v-485h-266v444zM358 946l160 279h273l-220 -279h-213z" />
    <glyph glyph-name="uni0145" unicode="&#x145;" horiz-adv-x="1361" 
d="M119 0v1290h422l436 -995v995h266v-1290h-409l-451 1006v-1006h-264zM545 -207q0 49 34 77t91 28q70 0 107.5 -37.5t37.5 -96.5q0 -79 -49 -147.5t-131 -103.5l-72 81q78 49 78 80q0 14 -15 25t-33 18.5t-33 27t-15 48.5z" />
    <glyph glyph-name="uni0146" unicode="&#x146;" horiz-adv-x="978" 
d="M629 444q0 170 -113 170q-83 0 -154 -75v-539h-268v786h230l20 -88q94 117 256 117q151 0 223 -88t72 -242v-485h-266v444zM360 -207q0 49 34 77t91 28q70 0 108 -37.5t38 -96.5q0 -79 -49 -147.5t-131 -103.5l-72 81q78 49 78 80q0 14 -15 25t-33.5 18.5t-33.5 27
t-15 48.5z" />
    <glyph glyph-name="Ncaron" unicode="&#x147;" horiz-adv-x="1361" 
d="M119 0v1290h422l436 -995v995h266v-1290h-409l-451 1006v-1006h-264zM360 1679h211l101 -149l96 149h211l-186 -276h-246z" />
    <glyph glyph-name="ncaron" unicode="&#x148;" horiz-adv-x="978" 
d="M629 444q0 170 -113 170q-83 0 -154 -75v-539h-268v786h230l20 -88q94 117 256 117q151 0 223 -88t72 -242v-485h-266v444zM176 1237h211l100 -158l97 158h211l-187 -291h-246z" />
    <glyph glyph-name="Omacron" unicode="&#x14c;" horiz-adv-x="1474" 
d="M727 -29q-137 0 -248.5 35.5t-186 96t-125 145.5t-73 181t-22.5 204q0 203 77 356.5t230.5 241.5t365.5 88q307 0 482.5 -179t175.5 -487q0 -145 -41.5 -267t-123 -215.5t-212.5 -146.5t-299 -53zM367 647q0 -90 22 -169t65.5 -142t115.5 -100t165 -37q85 0 169.5 29.5
t127.5 70.5q37 57 56.5 152t19.5 182q0 93 -23.5 175t-68 146t-117 101t-164.5 37q-81 0 -161.5 -27.5t-124.5 -67.5q-39 -58 -60.5 -157.5t-21.5 -192.5zM471 1425v185h537v-185h-537z" />
    <glyph glyph-name="omacron" unicode="&#x14d;" horiz-adv-x="976" 
d="M483 -29q-203 0 -318.5 112.5t-115.5 305.5q0 192 121 309t322 117q203 0 319.5 -112.5t116.5 -305.5t-121 -309.5t-324 -116.5zM225 979v184h537v-184h-537zM326 401q0 -106 40 -170.5t126 -64.5q87 0 131 47q28 49 28 170q0 108 -41.5 173t-126.5 65q-83 0 -123 -43
q-34 -54 -34 -177z" />
    <glyph glyph-name="Ohungarumlaut" unicode="&#x150;" horiz-adv-x="1474" 
d="M727 -29q-137 0 -248.5 35.5t-186 96t-125 145.5t-73 181t-22.5 204q0 203 77 356.5t230.5 241.5t365.5 88q307 0 482.5 -179t175.5 -487q0 -145 -41.5 -267t-123 -215.5t-212.5 -146.5t-299 -53zM367 647q0 -90 22 -169t65.5 -142t115.5 -100t165 -37q85 0 169.5 29.5
t127.5 70.5q37 57 56.5 152t19.5 182q0 93 -23.5 175t-68 146t-117 101t-164.5 37q-81 0 -161.5 -27.5t-124.5 -67.5q-39 -58 -60.5 -157.5t-21.5 -192.5zM492 1401l141 278h235l-182 -278h-194zM786 1401l183 278h233l-219 -278h-197z" />
    <glyph glyph-name="ohungarumlaut" unicode="&#x151;" horiz-adv-x="976" 
d="M483 -29q-203 0 -318.5 112.5t-115.5 305.5q0 192 121 309t322 117q203 0 319.5 -112.5t116.5 -305.5t-121 -309.5t-324 -116.5zM240 946l141 279h235l-182 -279h-194zM326 401q0 -106 40 -170.5t126 -64.5q87 0 131 47q28 49 28 170q0 108 -41.5 173t-126.5 65
q-83 0 -123 -43q-34 -54 -34 -177zM535 946l182 279h231l-219 -279h-194z" />
    <glyph glyph-name="OE" unicode="&#x152;" horiz-adv-x="2037" 
d="M696 -29q-156 0 -278 53.5t-196 146.5t-112 210.5t-38 253.5q0 201 78 355.5t225.5 241.5t341.5 87q256 0 403 -160v131h850v-221h-561v-324h483v-221h-483v-303h563v-221h-852v141q-151 -170 -424 -170zM367 647q0 -90 22 -169t65.5 -142t115.5 -100t165 -37
q85 0 169.5 29.5t127.5 70.5q37 57 56.5 152t19.5 182q0 93 -23.5 175t-68 146t-117 101t-164.5 37q-81 0 -161.5 -27.5t-124.5 -67.5q-39 -58 -60.5 -157.5t-21.5 -192.5z" />
    <glyph glyph-name="oe" unicode="&#x153;" horiz-adv-x="1538" 
d="M483 -29q-203 0 -318.5 112.5t-115.5 305.5q0 192 121 309t322 117t315 -108q114 108 293 108q91 0 162 -26t116 -71.5t72 -109t35 -135.5t0 -154h-555q8 -69 65.5 -112t157.5 -43q130 0 231 57l41 -178q-115 -72 -305 -72q-207 0 -323 107q-120 -107 -314 -107zM326 401
q0 -106 40 -170.5t126 -64.5q87 0 131 47q28 49 28 170q0 108 -41.5 173t-126.5 65q-83 0 -123 -43q-34 -54 -34 -177zM930 479h317q-6 72 -46.5 108t-106.5 36q-88 0 -136 -52q-22 -45 -28 -92z" />
    <glyph glyph-name="Racute" unicode="&#x154;" horiz-adv-x="1259" 
d="M119 0v1290h510q157 0 266 -27t171 -81.5t89 -125.5t27 -169q0 -145 -73 -242t-204 -143l326 -502h-350l-273 455h-200v-455h-289zM408 676h221q136 0 215 33q47 64 47 170q0 92 -59 141t-203 49h-221v-393zM508 1401l160 278h272l-219 -278h-213z" />
    <glyph glyph-name="racute" unicode="&#x155;" horiz-adv-x="698" 
d="M94 0v786h230l22 -94q79 119 221 119q80 0 144 -43l-54 -215q-71 51 -129 51q-51 0 -95.5 -28.5t-70.5 -73.5v-502h-268zM238 946l159 279h273l-219 -279h-213z" />
    <glyph glyph-name="uni0156" unicode="&#x156;" horiz-adv-x="1259" 
d="M119 0v1290h510q157 0 266 -27t171 -81.5t89 -125.5t27 -169q0 -145 -73 -242t-204 -143l326 -502h-350l-273 455h-200v-455h-289zM408 676h221q136 0 215 33q47 64 47 170q0 92 -59 141t-203 49h-221v-393zM489 -207q0 49 34 77t91 28q70 0 108 -37.5t38 -96.5
q0 -79 -49 -147.5t-131 -103.5l-72 81q78 49 78 80q0 14 -15 25t-33.5 18.5t-33.5 27t-15 48.5z" />
    <glyph glyph-name="uni0157" unicode="&#x157;" horiz-adv-x="698" 
d="M94 0v786h230l22 -94q79 119 221 119q80 0 144 -43l-54 -215q-71 51 -129 51q-51 0 -95.5 -28.5t-70.5 -73.5v-502h-268zM94 -207q0 49 34 77t91 28q70 0 108 -37.5t38 -96.5q0 -79 -49.5 -147.5t-131.5 -103.5l-71 81q77 49 77 80q0 14 -15 25t-33 18.5t-33 27t-15 48.5
z" />
    <glyph glyph-name="Rcaron" unicode="&#x158;" horiz-adv-x="1259" 
d="M119 0v1290h510q157 0 266 -27t171 -81.5t89 -125.5t27 -169q0 -145 -73 -242t-204 -143l326 -502h-350l-273 455h-200v-455h-289zM305 1679h211l100 -149l97 149h211l-187 -276h-245zM408 676h221q136 0 215 33q47 64 47 170q0 92 -59 141t-203 49h-221v-393z" />
    <glyph glyph-name="rcaron" unicode="&#x159;" horiz-adv-x="698" 
d="M94 0v786h230l22 -94q79 119 221 119q80 0 144 -43l-54 -215q-71 51 -129 51q-51 0 -95.5 -28.5t-70.5 -73.5v-502h-268zM53 1237h211l101 -158l96 158h211l-187 -291h-245z" />
    <glyph glyph-name="Sacute" unicode="&#x15a;" horiz-adv-x="1114" 
d="M522 -29q-269 0 -452 117l51 238q84 -62 204 -94.5t220 -32.5q113 0 180 26q23 18 38 50.5t15 66.5q0 52 -39 88t-101 57t-137 40.5t-150 47t-137 66.5t-101 109t-39 165q0 187 134 295.5t353 108.5q110 0 223 -28t193 -91l-49 -229q-79 58 -184 89.5t-205 31.5
q-97 0 -168 -41q-14 -16 -24.5 -44.5t-10.5 -56.5q0 -40 24.5 -70t66 -49t95 -35t113 -31.5t118.5 -34.5t112.5 -48.5t95 -68.5t66 -100t24.5 -138q0 -193 -139.5 -298.5t-389.5 -105.5zM440 1401l160 278h272l-219 -278h-213z" />
    <glyph glyph-name="sacute" unicode="&#x15b;" horiz-adv-x="772" 
d="M358 -29q-174 0 -313 68l49 197q54 -39 132.5 -57.5t150.5 -18.5q59 0 104 18q6 15 6 33q0 24 -23.5 40t-61 26t-82.5 20.5t-90 28t-82.5 43t-61 70.5t-23.5 106q0 130 94.5 200t239.5 70q183 0 297 -72l-47 -190q-56 36 -127 57t-131 21q-52 0 -88 -19q-10 -17 -10 -30
q0 -28 32.5 -47t80.5 -29t105 -28t105 -41.5t80.5 -73t32.5 -119.5q0 -72 -30.5 -126t-83.5 -85.5t-117 -46.5t-138 -15zM264 946l160 279h272l-219 -279h-213z" />
    <glyph glyph-name="Scircumflex" unicode="&#x15c;" horiz-adv-x="1114" 
d="M522 -29q-269 0 -452 117l51 238q84 -62 204 -94.5t220 -32.5q113 0 180 26q23 18 38 50.5t15 66.5q0 52 -39 88t-101 57t-137 40.5t-150 47t-137 66.5t-101 109t-39 165q0 187 134 295.5t353 108.5q110 0 223 -28t193 -91l-49 -229q-79 58 -184 89.5t-205 31.5
q-97 0 -168 -41q-14 -16 -24.5 -44.5t-10.5 -56.5q0 -40 24.5 -70t66 -49t95 -35t113 -31.5t118.5 -34.5t112.5 -48.5t95 -68.5t66 -100t24.5 -138q0 -193 -139.5 -298.5t-389.5 -105.5zM238 1403l186 276h246l186 -276h-211l-96 149l-100 -149h-211z" />
    <glyph glyph-name="scircumflex" unicode="&#x15d;" horiz-adv-x="772" 
d="M358 -29q-174 0 -313 68l49 197q54 -39 132.5 -57.5t150.5 -18.5q59 0 104 18q6 15 6 33q0 24 -23.5 40t-61 26t-82.5 20.5t-90 28t-82.5 43t-61 70.5t-23.5 106q0 130 94.5 200t239.5 70q183 0 297 -72l-47 -190q-56 36 -127 57t-131 21q-52 0 -88 -19q-10 -17 -10 -30
q0 -28 32.5 -47t80.5 -29t105 -28t105 -41.5t80.5 -73t32.5 -119.5q0 -72 -30.5 -126t-83.5 -85.5t-117 -46.5t-138 -15zM82 946l186 279h246l186 -279h-211l-96 152l-100 -152h-211z" />
    <glyph glyph-name="Scedilla" unicode="&#x15e;" horiz-adv-x="1114" 
d="M549 -410q-71 0 -156 29l21 123q21 -8 49.5 -14t60.5 -7.5t54 11.5t22 41q0 29 -25 41t-75 12h-70l35 147q-232 9 -395 115l51 238q84 -62 204 -94.5t220 -32.5q113 0 180 26q23 18 38 50.5t15 66.5q0 52 -39 88t-101 57t-137 40.5t-150 47t-137 66.5t-101 109t-39 165
q0 187 134 295.5t353 108.5q110 0 223 -28t193 -91l-49 -229q-79 58 -184 89.5t-205 31.5q-97 0 -168 -41q-14 -16 -24.5 -44.5t-10.5 -56.5q0 -40 24.5 -70t66 -49t95 -35t113 -31.5t118.5 -34.5t112.5 -48.5t95 -68.5t66 -100t24.5 -138q0 -174 -115.5 -277.5
t-323.5 -122.5l-14 -57q77 -2 126.5 -35.5t49.5 -109.5q0 -88 -65.5 -135.5t-159.5 -47.5z" />
    <glyph glyph-name="scedilla" unicode="&#x15f;" horiz-adv-x="772" 
d="M371 -410q-71 0 -156 29l21 123q21 -8 49.5 -14t60.5 -7.5t54 11.5t22 41q0 29 -25 41t-75 12h-70l35 147q-138 14 -242 66l49 197q54 -39 132.5 -57.5t150.5 -18.5q59 0 104 18q6 15 6 33q0 24 -23.5 40t-61 26t-82.5 20.5t-90 28t-82.5 43t-61 70.5t-23.5 106
q0 130 94.5 200t239.5 70q183 0 297 -72l-47 -190q-56 36 -127 57t-131 21q-52 0 -88 -19q-10 -17 -10 -30q0 -28 32.5 -47t80.5 -29t105 -28t105 -41.5t80.5 -73t32.5 -119.5q0 -83 -41 -142t-104.5 -88.5t-147.5 -38.5l-14 -57q77 -2 126.5 -35.5t49.5 -109.5
q0 -88 -65.5 -135.5t-159.5 -47.5z" />
    <glyph glyph-name="Scaron" unicode="&#x160;" horiz-adv-x="1114" 
d="M522 -29q-269 0 -452 117l51 238q84 -62 204 -94.5t220 -32.5q113 0 180 26q23 18 38 50.5t15 66.5q0 52 -39 88t-101 57t-137 40.5t-150 47t-137 66.5t-101 109t-39 165q0 187 134 295.5t353 108.5q110 0 223 -28t193 -91l-49 -229q-79 58 -184 89.5t-205 31.5
q-97 0 -168 -41q-14 -16 -24.5 -44.5t-10.5 -56.5q0 -40 24.5 -70t66 -49t95 -35t113 -31.5t118.5 -34.5t112.5 -48.5t95 -68.5t66 -100t24.5 -138q0 -193 -139.5 -298.5t-389.5 -105.5zM238 1679h211l100 -149l96 149h211l-186 -276h-246z" />
    <glyph glyph-name="scaron" unicode="&#x161;" horiz-adv-x="772" 
d="M358 -29q-174 0 -313 68l49 197q54 -39 132.5 -57.5t150.5 -18.5q59 0 104 18q6 15 6 33q0 24 -23.5 40t-61 26t-82.5 20.5t-90 28t-82.5 43t-61 70.5t-23.5 106q0 130 94.5 200t239.5 70q183 0 297 -72l-47 -190q-56 36 -127 57t-131 21q-52 0 -88 -19q-10 -17 -10 -30
q0 -28 32.5 -47t80.5 -29t105 -28t105 -41.5t80.5 -73t32.5 -119.5q0 -72 -30.5 -126t-83.5 -85.5t-117 -46.5t-138 -15zM82 1237h211l100 -158l96 158h211l-186 -291h-246z" />
    <glyph glyph-name="uni0162" unicode="&#x162;" horiz-adv-x="1091" 
d="M401 0v1061h-374v229h1036v-229h-371v-1061h-74l-20 -82q77 -2 126.5 -35.5t49.5 -109.5q0 -88 -65.5 -135.5t-159.5 -47.5q-71 0 -156 29l21 123q21 -8 49.5 -14t60.5 -7.5t54 11.5t22 41q0 29 -25 41t-75 12h-70l41 174h-70z" />
    <glyph glyph-name="uni0163" unicode="&#x163;" horiz-adv-x="727" 
d="M33 594v192h131v265h266v-265h229v-192h-229v-291q0 -61 28.5 -95t84.5 -34q59 0 110 29l33 -187q-68 -38 -176 -45l-14 -53q77 -2 126.5 -35.5t49.5 -109.5q0 -87 -66 -135t-160 -48q-70 0 -155 29l20 123q21 -8 49.5 -14t61 -7.5t54.5 11.5t22 41q0 29 -25.5 41
t-75.5 12h-69l37 156q-100 24 -150.5 96.5t-50.5 181.5v334h-131z" />
    <glyph glyph-name="Tcaron" unicode="&#x164;" horiz-adv-x="1091" 
d="M401 0v1061h-374v229h1036v-229h-371v-1061h-291zM240 1679h211l100 -149l96 149h211l-186 -276h-246z" />
    <glyph glyph-name="tcaron" unicode="&#x165;" horiz-adv-x="727" 
d="M463 -29q-148 0 -223.5 77t-75.5 212v334h-131v192h131v265h266v-265h229v-192h-229v-291q0 -61 28.5 -95t84.5 -34q59 0 110 29l33 -187q-78 -45 -223 -45zM498 946l20 385h203l-62 -385h-161z" />
    <glyph glyph-name="Utilde" unicode="&#x168;" horiz-adv-x="1318" 
d="M666 -25q-128 0 -228 30t-174.5 93t-113.5 167.5t-39 246.5v778h278v-778q0 -165 69 -236t208 -71q144 0 208 61q56 66 56 246v778h278v-778q0 -537 -542 -537zM350 1401q0 126 50.5 194t142.5 68q42 0 81 -17.5t62.5 -39t49.5 -39t44 -17.5q49 0 49 99h162
q0 -126 -51.5 -194.5t-140.5 -68.5q-41 0 -80.5 17.5t-63.5 39t-50 39t-44 17.5q-49 0 -49 -98h-162z" />
    <glyph glyph-name="utilde" unicode="&#x169;" horiz-adv-x="978" 
d="M381 -29q-150 0 -223.5 88t-73.5 240v487h266v-448q0 -166 117 -166q77 0 149 68v546h269v-786h-228l-22 86q-92 -115 -254 -115zM174 934q0 126 50.5 194t142.5 68q42 0 81 -17.5t62.5 -39t49.5 -39t44 -17.5q49 0 49 99h162q0 -126 -51.5 -194t-140.5 -68
q-41 0 -80.5 17.5t-63.5 38.5t-50 38.5t-44 17.5q-49 0 -49 -98h-162z" />
    <glyph glyph-name="Umacron" unicode="&#x16a;" horiz-adv-x="1318" 
d="M666 -25q-128 0 -228 30t-174.5 93t-113.5 167.5t-39 246.5v778h278v-778q0 -165 69 -236t208 -71q144 0 208 61q56 66 56 246v778h278v-778q0 -537 -542 -537zM397 1425v185h537v-185h-537z" />
    <glyph glyph-name="umacron" unicode="&#x16b;" horiz-adv-x="978" 
d="M381 -29q-150 0 -223.5 88t-73.5 240v487h266v-448q0 -166 117 -166q77 0 149 68v546h269v-786h-228l-22 86q-92 -115 -254 -115zM227 979v184h537v-184h-537z" />
    <glyph glyph-name="Ubreve" unicode="&#x16c;" horiz-adv-x="1318" 
d="M666 -25q-128 0 -228 30t-174.5 93t-113.5 167.5t-39 246.5v778h278v-778q0 -165 69 -236t208 -71q144 0 208 61q56 66 56 246v778h278v-778q0 -537 -542 -537zM360 1671l168 27q17 -139 136 -139q60 0 94 33t43 106l168 -27q-18 -133 -94.5 -205.5t-210.5 -72.5
q-130 0 -208.5 73t-95.5 205z" />
    <glyph glyph-name="ubreve" unicode="&#x16d;" horiz-adv-x="978" 
d="M381 -29q-150 0 -223.5 88t-73.5 240v487h266v-448q0 -166 117 -166q77 0 149 68v546h269v-786h-228l-22 86q-92 -115 -254 -115zM190 1217l168 26q17 -139 136 -139q60 0 94 33t43 106l168 -26q-18 -133 -94.5 -206t-210.5 -73q-130 0 -208.5 73.5t-95.5 205.5z" />
    <glyph glyph-name="Uring" unicode="&#x16e;" horiz-adv-x="1318" 
d="M666 -25q-128 0 -228 30t-174.5 93t-113.5 167.5t-39 246.5v778h278v-778q0 -165 69 -236t208 -71q144 0 208 61q56 66 56 246v778h278v-778q0 -537 -542 -537zM451 1559q0 92 59 146t154 54q97 0 156 -53.5t59 -146.5q0 -90 -59.5 -144.5t-155.5 -54.5q-95 0 -154 54.5
t-59 144.5zM578 1559q0 -39 23 -64t63 -25t64 25t24 64q0 41 -23.5 65.5t-64.5 24.5t-63.5 -24t-22.5 -66z" />
    <glyph glyph-name="uring" unicode="&#x16f;" horiz-adv-x="978" 
d="M381 -29q-150 0 -223.5 88t-73.5 240v487h266v-448q0 -166 117 -166q77 0 149 68v546h269v-786h-228l-22 86q-92 -115 -254 -115zM287 1085q0 89 57 143t152 54t152 -54t57 -143q0 -88 -57 -141t-152 -53t-152 53t-57 141zM410 1085q0 -41 22.5 -64.5t63.5 -23.5
t64.5 23.5t23.5 64.5q0 43 -23.5 67t-64.5 24t-63.5 -24t-22.5 -67z" />
    <glyph glyph-name="Uhungarumlaut" unicode="&#x170;" horiz-adv-x="1318" 
d="M666 -25q-128 0 -228 30t-174.5 93t-113.5 167.5t-39 246.5v778h278v-778q0 -165 69 -236t208 -71q144 0 208 61q56 66 56 246v778h278v-778q0 -537 -542 -537zM420 1401l141 278h236l-183 -278h-194zM715 1401l182 278h233l-219 -278h-196z" />
    <glyph glyph-name="uhungarumlaut" unicode="&#x171;" horiz-adv-x="978" 
d="M381 -29q-150 0 -223.5 88t-73.5 240v487h266v-448q0 -166 117 -166q77 0 149 68v546h269v-786h-228l-22 86q-92 -115 -254 -115zM242 946l141 279h235l-182 -279h-194zM537 946l182 279h231l-219 -279h-194z" />
    <glyph glyph-name="Uogonek" unicode="&#x172;" horiz-adv-x="1318" 
d="M715 -410q-92 0 -154.5 45.5t-62.5 133.5q0 111 123 206q-242 11 -376 140.5t-134 396.5v778h278v-778q0 -165 69 -236t208 -71q144 0 208 61q56 66 56 246v778h278v-778q0 -441 -366 -520q-70 -42 -110 -91t-40 -94q0 -53 64 -53q29 0 67 17l31 -150q-74 -31 -139 -31z
" />
    <glyph glyph-name="uogonek" unicode="&#x173;" horiz-adv-x="978" 
d="M381 -29q-150 0 -223.5 88t-73.5 240v487h266v-448q0 -166 117 -166q77 0 149 68v546h269v-786h-64q-75 -43 -118.5 -94.5t-43.5 -98.5q0 -53 64 -53q30 0 68 17l30 -150q-74 -31 -139 -31q-92 0 -154.5 45.5t-62.5 133.5q0 77 54 140.5t134 108.5l-18 68
q-92 -115 -254 -115z" />
    <glyph glyph-name="Wcircumflex" unicode="&#x174;" horiz-adv-x="1949" 
d="M383 0l-363 1290h293l250 -948l262 948h299l262 -950l252 950h291l-366 -1290h-340l-248 885l-248 -885h-344zM668 1403l186 276h246l186 -276h-211l-96 149l-100 -149h-211z" />
    <glyph glyph-name="wcircumflex" unicode="&#x175;" horiz-adv-x="1492" 
d="M311 0l-297 786h279l166 -548l157 548h265l157 -548l166 548h275l-297 -786h-283l-154 500l-153 -500h-281zM438 946l187 279h245l187 -279h-211l-96 152l-101 -152h-211z" />
    <glyph glyph-name="Ycircumflex" unicode="&#x176;" horiz-adv-x="1382" 
d="M547 0v434l-527 856h328l344 -602l344 602h326l-526 -856v-434h-289zM383 1403l186 276h246l186 -276h-210l-97 149l-100 -149h-211z" />
    <glyph glyph-name="ycircumflex" unicode="&#x177;" horiz-adv-x="978" 
d="M416 -414q-172 0 -314 74l50 207q123 -76 268 -76q104 0 155 39q23 36 31 86.5t10 159.5q-88 -88 -227 -88q-305 0 -305 342v456h266v-436q0 -84 30.5 -125t84.5 -41q72 0 151 60v542h269v-766q0 -80 -18 -145.5t-47 -110t-70.5 -78t-83 -52t-89.5 -30t-85.5 -15
t-75.5 -3.5zM186 946l187 279h245l187 -279h-211l-96 152l-101 -152h-211z" />
    <glyph glyph-name="Ydieresis" unicode="&#x178;" horiz-adv-x="1382" 
d="M547 0v434l-527 856h328l344 -602l344 602h326l-526 -856v-434h-289zM348 1544q0 59 43.5 101.5t104.5 42.5t104 -42.5t43 -101.5t-43 -102t-104 -43t-104.5 43t-43.5 102zM739 1544q0 59 43 101.5t105 42.5q61 0 103 -42.5t42 -101.5t-42 -102t-103 -43q-62 0 -105 43
t-43 102z" />
    <glyph glyph-name="Zacute" unicode="&#x179;" horiz-adv-x="1120" 
d="M66 0v205l622 856h-590v229h936v-205l-622 -856h643v-229h-989zM465 1401l160 278h272l-219 -278h-213z" />
    <glyph glyph-name="zacute" unicode="&#x17a;" horiz-adv-x="794" 
d="M59 0v180l375 414h-368v192h661v-180l-375 -413h383v-193h-676zM270 946l160 279h272l-219 -279h-213z" />
    <glyph glyph-name="Zdotaccent" unicode="&#x17b;" horiz-adv-x="1120" 
d="M66 0v205l622 856h-590v229h936v-205l-622 -856h643v-229h-989zM424 1544q0 59 42.5 101.5t104.5 42.5q61 0 104.5 -42.5t43.5 -101.5t-43.5 -102t-104.5 -43q-62 0 -104.5 43t-42.5 102z" />
    <glyph glyph-name="zdotaccent" unicode="&#x17c;" horiz-adv-x="794" 
d="M59 0v180l375 414h-368v192h661v-180l-375 -413h383v-193h-676zM242 1092q0 62 44.5 105.5t108.5 43.5t109 -43.5t45 -105.5t-45 -106t-109 -44t-108.5 44t-44.5 106z" />
    <glyph glyph-name="Zcaron" unicode="&#x17d;" horiz-adv-x="1120" 
d="M66 0v205l622 856h-590v229h936v-205l-622 -856h643v-229h-989zM262 1679h211l100 -149l97 149h211l-187 -276h-245z" />
    <glyph glyph-name="zcaron" unicode="&#x17e;" horiz-adv-x="794" 
d="M59 0v180l375 414h-368v192h661v-180l-375 -413h383v-193h-676zM88 1237h211l100 -158l97 158h211l-187 -291h-246z" />
    <glyph glyph-name="uni018F" unicode="&#x18f;" horiz-adv-x="1441" 
d="M676 -29q-152 0 -272 58t-195.5 160t-110.5 242.5t-24 305.5h995q-10 77 -36.5 138.5t-73.5 111.5t-122.5 77.5t-174.5 27.5q-104 0 -208.5 -30t-183.5 -71l-43 209q180 119 457 119q329 0 507.5 -178t178.5 -488q0 -114 -25 -214.5t-80 -186.5t-135 -148t-196 -97.5
t-258 -35.5zM371 516q18 -142 103 -229.5t233 -87.5q102 0 169.5 28t124.5 76q51 88 66 213h-696z" />
    <glyph glyph-name="florin" unicode="&#x191;" horiz-adv-x="1126" 
d="M82 -123q157 -26 221 43q47 80 72 252l63 397h-198v189h227l29 176q36 229 175 323.5t373 40.5l-34 -206q-45 19 -106 17t-95 -32q-31 -45 -47 -147l-27 -172h252v-189h-282l-64 -405q-14 -87 -35.5 -160.5t-54.5 -141t-76.5 -112.5t-102 -76.5t-130 -33t-160.5 19.5v217
z" />
    <glyph glyph-name="florin" unicode="&#x192;" horiz-adv-x="1126" 
d="M82 -123q157 -26 221 43q47 80 72 252l63 397h-198v189h227l29 176q36 229 175 323.5t373 40.5l-34 -206q-45 19 -106 17t-95 -32q-31 -45 -47 -147l-27 -172h252v-189h-282l-64 -405q-14 -87 -35.5 -160.5t-54.5 -141t-76.5 -112.5t-102 -76.5t-130 -33t-160.5 19.5v217
z" />
    <glyph glyph-name="uni0218" unicode="&#x218;" horiz-adv-x="1114" 
d="M522 -29q-269 0 -452 117l51 238q84 -62 204 -94.5t220 -32.5q113 0 180 26q23 18 38 50.5t15 66.5q0 52 -39 88t-101 57t-137 40.5t-150 47t-137 66.5t-101 109t-39 165q0 187 134 295.5t353 108.5q110 0 223 -28t193 -91l-49 -229q-79 58 -184 89.5t-205 31.5
q-97 0 -168 -41q-14 -16 -24.5 -44.5t-10.5 -56.5q0 -40 24.5 -70t66 -49t95 -35t113 -31.5t118.5 -34.5t112.5 -48.5t95 -68.5t66 -100t24.5 -138q0 -193 -139.5 -298.5t-389.5 -105.5zM422 -207q0 49 34 77t91 28q70 0 107.5 -37.5t37.5 -96.5q0 -79 -49 -147.5
t-131 -103.5l-72 81q78 49 78 80q0 14 -15 25t-33 18.5t-33 27t-15 48.5z" />
    <glyph glyph-name="uni0219" unicode="&#x219;" horiz-adv-x="772" 
d="M358 -29q-174 0 -313 68l49 197q54 -39 132.5 -57.5t150.5 -18.5q59 0 104 18q6 15 6 33q0 24 -23.5 40t-61 26t-82.5 20.5t-90 28t-82.5 43t-61 70.5t-23.5 106q0 130 94.5 200t239.5 70q183 0 297 -72l-47 -190q-56 36 -127 57t-131 21q-52 0 -88 -19q-10 -17 -10 -30
q0 -28 32.5 -47t80.5 -29t105 -28t105 -41.5t80.5 -73t32.5 -119.5q0 -72 -30.5 -126t-83.5 -85.5t-117 -46.5t-138 -15zM244 -207q0 49 34 77t91 28q70 0 107.5 -37.5t37.5 -96.5q0 -79 -49 -147.5t-131 -103.5l-72 81q78 49 78 80q0 14 -15 25t-33 18.5t-33 27t-15 48.5z
" />
    <glyph glyph-name="uni021A" unicode="&#x21a;" horiz-adv-x="1091" 
d="M401 0v1061h-374v229h1036v-229h-371v-1061h-291zM422 -207q0 49 34 77t91 28q70 0 107.5 -37.5t37.5 -96.5q0 -79 -49 -147.5t-131 -103.5l-72 81q78 49 78 80q0 14 -15 25t-33 18.5t-33 27t-15 48.5z" />
    <glyph glyph-name="uni021B" unicode="&#x21b;" horiz-adv-x="727" 
d="M463 -29q-148 0 -223.5 77t-75.5 212v334h-131v192h131v265h266v-265h229v-192h-229v-291q0 -61 28.5 -95t84.5 -34q59 0 110 29l33 -187q-78 -45 -223 -45zM319 -207q0 49 34 77t91 28q70 0 108 -37.5t38 -96.5q0 -79 -49 -147.5t-131 -103.5l-72 81q78 49 78 80
q0 14 -15 25t-33.5 18.5t-33.5 27t-15 48.5z" />
    <glyph glyph-name="uni0237" unicode="&#x237;" horiz-adv-x="456" 
d="M-88 -193q79 7 130.5 59t51.5 157v763h268v-710q0 -427 -380 -486z" />
    <glyph glyph-name="uni0259" unicode="&#x259;" horiz-adv-x="905" 
d="M418 815q202 0 320 -102.5t118 -304.5q0 -193 -112.5 -315t-305.5 -122q-91 0 -162 26t-116 71.5t-72 109t-35 135.5t0 154h555q-8 69 -65.5 112.5t-157.5 43.5q-129 0 -231 -58l-41 178q115 72 305 72zM291 307q6 -72 46.5 -107.5t106.5 -35.5q89 0 136 51q22 45 28 92
h-317z" />
    <glyph glyph-name="uni02BC" unicode="&#x2bc;" horiz-adv-x="378" 
d="M90 909q90 81 90 138q0 29 -20 47.5t-43.5 28.5t-43.5 37.5t-20 72.5q0 57 36.5 90t96.5 33q72 0 107 -48.5t35 -133.5q0 -200 -166 -328z" />
    <glyph glyph-name="circumflex" unicode="&#x2c6;" horiz-adv-x="782" 
d="M82 946l186 279h246l186 -279h-211l-96 152l-100 -152h-211z" />
    <glyph glyph-name="caron" unicode="&#x2c7;" horiz-adv-x="782" 
d="M268 946l-186 291h211l100 -158l96 158h211l-186 -291h-246z" />
    <glyph glyph-name="breve" unicode="&#x2d8;" horiz-adv-x="772" 
d="M385 938q-130 0 -207.5 73.5t-95.5 205.5l168 26q9 -73 42.5 -106t92.5 -33q60 0 94 33t43 106l168 -26q-18 -133 -94.5 -206t-210.5 -73z" />
    <glyph glyph-name="dotaccent" unicode="&#x2d9;" horiz-adv-x="471" 
d="M236 942q-64 0 -109 44t-45 106t45 105.5t109 43.5t108.5 -43.5t44.5 -105.5t-44.5 -106t-108.5 -44z" />
    <glyph glyph-name="ring" unicode="&#x2da;" horiz-adv-x="581" 
d="M291 891q-95 0 -152 53t-57 141q0 89 57 143t152 54t152 -54t57 -143q0 -88 -57 -141t-152 -53zM205 1085q0 -41 22.5 -64.5t63.5 -23.5t64.5 23.5t23.5 64.5q0 43 -23.5 67t-64.5 24t-63.5 -24t-22.5 -67z" />
    <glyph glyph-name="ogonek" unicode="&#x2db;" horiz-adv-x="520" 
d="M299 -410q-92 0 -154.5 45.5t-62.5 133.5q0 54 29 104.5t74.5 86.5t89 60.5t83.5 38.5l80 -59q-75 -43 -118.5 -94.5t-43.5 -98.5q0 -53 64 -53q30 0 68 17l30 -150q-74 -31 -139 -31z" />
    <glyph glyph-name="tilde" unicode="&#x2dc;" horiz-adv-x="804" 
d="M530 920q-41 0 -80 17.5t-63.5 38.5t-50 38.5t-43.5 17.5q-49 0 -49 -98h-162q0 127 50.5 194.5t141.5 67.5q42 0 81 -17.5t63 -39t50 -39t44 -17.5q49 0 49 99h162q0 -125 -52 -193.5t-141 -68.5z" />
    <glyph glyph-name="hungarumlaut" unicode="&#x2dd;" horiz-adv-x="872" 
d="M82 946l141 279h236l-183 -279h-194zM377 946l182 279h232l-220 -279h-194z" />
    <glyph glyph-name="gravecomb" unicode="&#x300;" 
d="M299 946l-217 279h270l158 -279h-211z" />
    <glyph glyph-name="acutecomb" unicode="&#x301;" 
d="M82 946l160 279h272l-219 -279h-213z" />
    <glyph glyph-name="uni0302" unicode="&#x302;" 
d="M82 946l186 279h246l186 -279h-211l-96 152l-100 -152h-211z" />
    <glyph glyph-name="tildecomb" unicode="&#x303;" 
d="M530 920q-41 0 -80 17.5t-63.5 38.5t-50 38.5t-43.5 17.5q-49 0 -49 -98h-162q0 127 50.5 194.5t141.5 67.5q42 0 81 -17.5t63 -39t50 -39t44 -17.5q49 0 49 99h162q0 -125 -52 -193.5t-141 -68.5z" />
    <glyph glyph-name="uni0304" unicode="&#x304;" 
d="M82 979v184h536v-184h-536z" />
    <glyph glyph-name="uni0306" unicode="&#x306;" 
d="M385 938q-130 0 -207.5 73.5t-95.5 205.5l168 26q9 -73 42.5 -106t92.5 -33q60 0 94 33t43 106l168 -26q-18 -133 -94.5 -206t-210.5 -73z" />
    <glyph glyph-name="uni0307" unicode="&#x307;" 
d="M236 942q-64 0 -109 44t-45 106t45 105.5t109 43.5t108.5 -43.5t44.5 -105.5t-44.5 -106t-108.5 -44z" />
    <glyph glyph-name="uni0308" unicode="&#x308;" 
d="M227 942q-61 0 -103 44.5t-42 107.5t41.5 105t103.5 42t105 -42t43 -105t-43.5 -107.5t-104.5 -44.5zM457 1094q0 63 42.5 105t104.5 42t104 -42t42 -105t-42.5 -107.5t-103.5 -44.5t-104 44.5t-43 107.5z" />
    <glyph glyph-name="uni030A" unicode="&#x30a;" 
d="M291 891q-95 0 -152 53t-57 141q0 89 57 143t152 54t152 -54t57 -143q0 -88 -57 -141t-152 -53zM205 1085q0 -41 22.5 -64.5t63.5 -23.5t64.5 23.5t23.5 64.5q0 43 -23.5 67t-64.5 24t-63.5 -24t-22.5 -67z" />
    <glyph glyph-name="uni030B" unicode="&#x30b;" 
d="M82 946l141 279h236l-183 -279h-194zM377 946l182 279h232l-220 -279h-194z" />
    <glyph glyph-name="uni030C" unicode="&#x30c;" 
d="M268 946l-186 291h211l100 -158l96 158h211l-186 -291h-246z" />
    <glyph glyph-name="uni0312" unicode="&#x312;" 
d="M227 909q-70 0 -107.5 37t-37.5 96q0 79 50 147.5t130 104.5l72 -82q-78 -49 -78 -79q0 -14 15 -25t33 -18.5t33 -27t15 -48.5q0 -49 -33 -77t-92 -28z" />
    <glyph glyph-name="uni0326" unicode="&#x326;" 
d="M100 -406q78 49 78 80q0 14 -15 25t-33 18.5t-33 27t-15 48.5q0 49 34 77t91 28q70 0 107.5 -37.5t37.5 -96.5q0 -79 -49 -147.5t-131 -103.5z" />
    <glyph glyph-name="uni0327" unicode="&#x327;" 
d="M238 -410q-71 0 -156 29l20 123q21 -8 49.5 -14t61 -7.5t54.5 11.5t22 41q0 29 -25.5 41t-75.5 12h-69l53 225h147l-32 -133q77 -2 126.5 -35.5t49.5 -109.5q0 -88 -65.5 -135.5t-159.5 -47.5z" />
    <glyph glyph-name="uni0328" unicode="&#x328;" 
d="M299 -410q-92 0 -154.5 45.5t-62.5 133.5q0 54 29 104.5t74.5 86.5t89 60.5t83.5 38.5l80 -59q-75 -43 -118.5 -94.5t-43.5 -98.5q0 -53 64 -53q30 0 68 17l30 -150q-74 -31 -139 -31z" />
    <glyph glyph-name="uni03A9" unicode="&#x3a9;" horiz-adv-x="1476" 
d="M90 0v229h225q-243 135 -243 482q0 270 179.5 439t493.5 169q155 0 280.5 -44t208 -122.5t127 -187t44.5 -236.5q0 -354 -275 -500h256v-229h-552v209q132 58 204 180t72 283q0 182 -98 301t-273 119q-84 0 -164 -27t-129 -64q-77 -110 -77 -323q0 -180 66.5 -293
t209.5 -176v-209h-555z" />
    <glyph glyph-name="pi" unicode="&#x3c0;" horiz-adv-x="1013" 
d="M809 -29q-252 0 -252 246v352h-170v-569h-242v569h-112v217h934v-217h-172v-303q0 -80 63 -80q37 0 82 25l33 -201q-65 -39 -164 -39z" />
    <glyph glyph-name="uni060C" unicode="&#x60c;" horiz-adv-x="483" 
d="M248 -20q-158 0 -158 188q0 126 65.5 239t161.5 183l68 -70q-109 -98 -109 -174q0 -25 12.5 -44.5t31 -33.5t36.5 -30.5t30.5 -44.5t12.5 -66q0 -71 -41 -109t-110 -38z" />
    <glyph glyph-name="uni061B" unicode="&#x61b;" horiz-adv-x="550" 
d="M281 438q-156 0 -156 180q0 120 64.5 231t158.5 181l68 -69q-105 -94 -105 -168q0 -25 12.5 -43t30.5 -31t36.5 -28.5t31 -42.5t12.5 -64q0 -69 -41.5 -107.5t-111.5 -38.5zM119 133q0 67 43 111.5t110 44.5q66 0 110 -45t44 -111t-44 -111t-110 -45q-67 0 -110 44.5
t-43 111.5z" />
    <glyph glyph-name="uni061F" unicode="&#x61f;" horiz-adv-x="890" 
d="M444 395q0 50 -19 89t-49.5 66.5t-67.5 53t-74 55.5t-67.5 66.5t-49.5 93t-19 127.5q0 182 116 275.5t310 93.5q89 0 171.5 -17.5t131.5 -42.5l-57 -225q-38 21 -103 36t-126 15q-95 0 -145 -40t-50 -109q0 -40 19 -75t49.5 -61.5t67.5 -53.5t74 -59t67.5 -70t49.5 -94
t19 -124h-248zM416 125q0 59 41 101t102 42t102 -41.5t41 -101.5q0 -62 -41 -103.5t-102 -41.5t-102 42t-41 103z" />
    <glyph glyph-name="uni0621" unicode="&#x621;" horiz-adv-x="952" 
d="M57 201q97 20 191 37q-86 96 -86 229q0 132 82 220.5t241 88.5q179 0 316 -90l-101 -215q-88 57 -206 57q-61 0 -97 -16q-4 -12 -4 -43q0 -84 54 -141.5t153 -46.5l258 28l21 -237q-314 -31 -770 -111z" />
    <glyph glyph-name="uni0622" unicode="&#x622;" horiz-adv-x="489" 
d="M123 0v1386h244v-1386h-244zM-8 1642q42 43 94.5 55t102 3.5t97.5 -18.5t95.5 -5t81.5 37l33 -135q-41 -36 -94 -45t-102.5 0t-98.5 17t-96.5 -1.5t-81.5 -46.5z" />
    <glyph glyph-name="uni0623" unicode="&#x623;" horiz-adv-x="489" 
d="M123 0v1386h244v-1386h-244zM12 1655l127 14q-57 47 -57 129q0 68 46 112t134 44q89 0 166 -41l-53 -127q-47 20 -92 20q-41 0 -62 -18q-1 -53 32.5 -79t88.5 -21l121 10l12 -142l-448 -43z" />
    <glyph glyph-name="uni0624" unicode="&#x624;" horiz-adv-x="970" 
d="M106 -276q341 101 474 270q-500 28 -500 328q0 76 31 161t83 156.5t129 118.5t160 47q109 0 202 -83t146.5 -218.5t53.5 -286.5q0 -113 -36 -212.5t-96.5 -176t-146 -141t-177.5 -109.5t-198 -80zM238 1118l127 15q-58 48 -58 129q0 68 46 111.5t134 43.5q89 0 166 -41
l-53 -127q-50 21 -92 21q-40 0 -62 -19q-1 -53 32.5 -79t88.5 -21l121 10l12 -141l-448 -43zM295 330q83 -63 352 -66q-9 65 -31 127t-62 109t-87 47q-63 0 -113.5 -65.5t-58.5 -151.5z" />
    <glyph glyph-name="uni0625" unicode="&#x625;" horiz-adv-x="489" 
d="M123 0v1386h244v-1386h-244zM6 -475l127 14q-57 50 -57 131q0 68 46 112t134 44q89 0 166 -41l-53 -127q-47 20 -93 20q-40 0 -61 -18q-1 -53 32.5 -79t88.5 -21l121 10l12 -141l-449 -47z" />
    <glyph glyph-name="uni0626" unicode="&#x626;" horiz-adv-x="1495" 
d="M678 -307q-100 0 -187 18t-162 56.5t-128.5 96t-84 140.5t-30.5 186q0 148 58.5 282.5t150.5 232.5l192 -146q-147 -195 -147 -346q0 -70 29.5 -121t82 -79t116.5 -41t143 -13q134 0 243 36t168 103q-30 18 -83.5 45t-95.5 47t-90.5 52.5t-80.5 66t-54 81.5t-22 104
q0 113 74.5 214.5t198.5 162.5t262 61q153 0 239 -74l-110 -219q-57 37 -141 37q-94 0 -172 -43t-111 -107q21 -33 73.5 -63.5t109.5 -56.5t111.5 -59.5t90 -89t35.5 -128.5q0 -124 -94.5 -225t-249 -156t-334.5 -55zM141 985l127 14q-57 47 -57 129q0 68 46 112t134 44
q89 0 166 -41l-53 -127q-50 21 -92 21q-40 0 -62 -19q-1 -53 32.5 -79t88.5 -21l121 10l12 -141l-448 -43z" />
    <glyph glyph-name="uni0627" unicode="&#x627;" horiz-adv-x="489" 
d="M123 0v1386h244v-1386h-244z" />
    <glyph glyph-name="uni0628" unicode="&#x628;" horiz-adv-x="1845" 
d="M571 0q-209 0 -328.5 110.5t-119.5 311.5q0 232 176 475l199 -135q-65 -100 -92 -170t-27 -135q0 -94 52 -143.5t171 -49.5h858q13 117 13 232v315h243v-303q0 -271 -30 -508h-1115zM852 -279q0 61 40 102.5t101 41.5t101.5 -41.5t40.5 -102.5q0 -62 -40.5 -104.5
t-101.5 -42.5t-101 42.5t-40 104.5z" />
    <glyph glyph-name="uni0629" unicode="&#x629;" horiz-adv-x="968" 
d="M473 -20q-100 0 -176.5 31t-120 83t-65 112.5t-21.5 127.5q0 94 44.5 185t127.5 163q-36 14 -82 27l80 237q302 -77 459 -220.5t158 -348.5q2 -185 -106 -291t-298 -106zM154 1208q0 61 38.5 101.5t98.5 40.5t98.5 -40.5t38.5 -101.5q0 -59 -39 -100t-98 -41t-98 41
t-39 100zM299 377q12 -59 66 -97t122 -38q105 0 172 108q-14 133 -194 240q-128 -82 -166 -213zM492 1208q0 61 38.5 101.5t98.5 40.5t98.5 -40.5t38.5 -101.5q0 -59 -39 -100t-98 -41t-98 41t-39 100z" />
    <glyph glyph-name="uni062A" unicode="&#x62a;" horiz-adv-x="1845" 
d="M571 0q-209 0 -328.5 110.5t-119.5 311.5q0 232 176 475l199 -135q-65 -100 -92 -170t-27 -135q0 -94 52 -143.5t171 -49.5h858q13 117 13 232v315h243v-303q0 -271 -30 -508h-1115zM686 1057q0 60 38.5 100.5t98.5 40.5t99 -40.5t39 -100.5q0 -59 -39.5 -100.5
t-98.5 -41.5t-98 41.5t-39 100.5zM1024 1057q0 60 38.5 100.5t98.5 40.5t98.5 -40.5t38.5 -100.5q0 -59 -39 -100.5t-98 -41.5t-98 41.5t-39 100.5z" />
    <glyph glyph-name="uni062B" unicode="&#x62b;" horiz-adv-x="1845" 
d="M571 0q-209 0 -328.5 110.5t-119.5 311.5q0 232 176 475l199 -135q-65 -100 -92 -170t-27 -135q0 -94 52 -143.5t171 -49.5h858q13 117 13 232v315h243v-303q0 -271 -30 -508h-1115zM711 1028q0 52 34 87.5t86 35.5t85.5 -35.5t33.5 -87.5q0 -53 -33.5 -88t-85.5 -35
t-86 35t-34 88zM872 1290q0 52 34.5 87.5t86.5 35.5q51 0 85 -36t34 -87q0 -53 -34 -89t-85 -36q-52 0 -86.5 36t-34.5 89zM1034 1028q0 52 33.5 87.5t85.5 35.5t86.5 -35.5t34.5 -87.5q0 -53 -34.5 -88t-86.5 -35t-85.5 35t-33.5 88z" />
    <glyph glyph-name="uni062C" unicode="&#x62c;" horiz-adv-x="1368" 
d="M934 -760q-133 0 -253.5 25t-221.5 76t-175 122.5t-115.5 169.5t-41.5 213q0 121 45.5 235t120.5 201t165.5 152.5t188.5 104.5q-128 32 -246 32q-144 0 -260 -55l-71 252q151 70 305 70q89 0 173.5 -18t157.5 -43.5t152 -51t189.5 -43.5t236.5 -18l-45 -258
q-88 13 -183 6.5t-186.5 -23.5t-178.5 -57t-158 -93.5t-124.5 -133.5t-78.5 -177q3 -127 83 -223t223.5 -147.5t330.5 -51.5q122 0 256 21l28 -258q-176 -29 -317 -29zM680 -31q0 61 40 102.5t101 41.5t101.5 -41.5t40.5 -102.5q0 -62 -40.5 -104.5t-101.5 -42.5t-101 42.5
t-40 104.5z" />
    <glyph glyph-name="uni062D" unicode="&#x62d;" horiz-adv-x="1368" 
d="M934 -760q-133 0 -253.5 25t-221.5 76t-175 122.5t-115.5 169.5t-41.5 213q0 121 45.5 235t120.5 201t165.5 152.5t188.5 104.5q-128 32 -246 32q-144 0 -260 -55l-71 252q151 70 305 70q89 0 173.5 -18t157.5 -43.5t152 -51t189.5 -43.5t236.5 -18l-45 -258
q-88 13 -183 6.5t-186.5 -23.5t-178.5 -57t-158 -93.5t-124.5 -133.5t-78.5 -177q3 -127 83 -223t223.5 -147.5t330.5 -51.5q122 0 256 21l28 -258q-176 -29 -317 -29z" />
    <glyph glyph-name="uni062E" unicode="&#x62e;" horiz-adv-x="1368" 
d="M934 -760q-133 0 -253.5 25t-221.5 76t-175 122.5t-115.5 169.5t-41.5 213q0 121 45.5 235t120.5 201t165.5 152.5t188.5 104.5q-128 32 -246 32q-144 0 -260 -55l-71 252q151 70 305 70q89 0 173.5 -18t157.5 -43.5t152 -51t189.5 -43.5t236.5 -18l-45 -258
q-88 13 -183 6.5t-186.5 -23.5t-178.5 -57t-158 -93.5t-124.5 -133.5t-78.5 -177q3 -127 83 -223t223.5 -147.5t330.5 -51.5q122 0 256 21l28 -258q-176 -29 -317 -29zM610 1155q0 60 40.5 101.5t101.5 41.5t101 -41t40 -102q0 -62 -40 -104.5t-101 -42.5t-101.5 42.5
t-40.5 104.5z" />
    <glyph glyph-name="uni062F" unicode="&#x62f;" horiz-adv-x="968" 
d="M418 0q-199 0 -344 16l10 265q173 -17 328 -17h241q-39 148 -128 255.5t-238 180.5l119 218q158 -57 274.5 -172.5t173 -270.5t43.5 -325l-111 -150h-368z" />
    <glyph glyph-name="uni0630" unicode="&#x630;" horiz-adv-x="968" 
d="M418 0q-199 0 -344 16l10 265q173 -17 328 -17h241q-39 148 -128 255.5t-238 180.5l119 218q158 -57 274.5 -172.5t173 -270.5t43.5 -325l-111 -150h-368zM293 1206q0 61 40 102.5t101 41.5t101 -41.5t40 -102.5q0 -62 -40 -104.5t-101 -42.5t-101 42.5t-40 104.5z" />
    <glyph glyph-name="uni0631" unicode="&#x631;" horiz-adv-x="845" 
d="M-12 -258q425 214 526 483q-29 198 -137 465l241 86q41 -110 64 -178t45.5 -166.5t22.5 -173.5q0 -425 -621 -735z" />
    <glyph glyph-name="uni0632" unicode="&#x632;" horiz-adv-x="845" 
d="M-12 -258q425 214 526 483q-29 198 -137 465l241 86q41 -110 64 -178t45.5 -166.5t22.5 -173.5q0 -425 -621 -735zM309 1071q0 60 40.5 101.5t101.5 41.5t101 -41t40 -102q0 -62 -40 -104.5t-101 -42.5t-101.5 42.5t-40.5 104.5z" />
    <glyph glyph-name="uni0633" unicode="&#x633;" horiz-adv-x="2398" 
d="M629 -279q-237 0 -378.5 134.5t-141.5 371.5q0 144 54.5 289t153.5 266l191 -145q-69 -86 -106 -185t-37 -188q0 -136 82.5 -207t222.5 -71q138 0 235 63.5t135 181.5q-29 179 -108 488l248 65l80 -325q29 -116 65.5 -155.5t112.5 -39.5h116q19 90 19 197v309h244v-362
q0 -87 26.5 -115.5t93.5 -28.5h86q19 87 19 236v270h242v-289q0 -291 -70 -481h-272q-73 0 -130 31.5t-92 87.5q-33 -71 -88 -119h-198q-140 0 -217 80q-63 -155 -220 -257t-368 -102z" />
    <glyph glyph-name="uni0634" unicode="&#x634;" horiz-adv-x="2398" 
d="M629 -279q-237 0 -378.5 134.5t-141.5 371.5q0 144 54.5 289t153.5 266l191 -145q-69 -86 -106 -185t-37 -188q0 -136 82.5 -207t222.5 -71q138 0 235 63.5t135 181.5q-29 179 -108 488l248 65l80 -325q29 -116 65.5 -155.5t112.5 -39.5h116q19 90 19 197v309h244v-362
q0 -87 26.5 -115.5t93.5 -28.5h86q19 87 19 236v270h242v-289q0 -291 -70 -481h-272q-73 0 -130 31.5t-92 87.5q-33 -71 -88 -119h-198q-140 0 -217 80q-63 -155 -220 -257t-368 -102zM1417 1130q0 52 34.5 87.5t86.5 35.5t85.5 -35.5t33.5 -87.5q0 -53 -33.5 -87.5
t-85.5 -34.5t-86.5 34.5t-34.5 87.5zM1579 1393q0 52 34.5 87.5t86.5 35.5q51 0 85 -36t34 -87q0 -53 -34 -89t-85 -36q-52 0 -86.5 36t-34.5 89zM1741 1130q0 52 33.5 87.5t85.5 35.5t86 -35.5t34 -87.5q0 -53 -34 -87.5t-86 -34.5t-85.5 34.5t-33.5 87.5z" />
    <glyph glyph-name="uni0635" unicode="&#x635;" horiz-adv-x="2396" 
d="M600 -274q-109 0 -201 30t-164 89.5t-112.5 157t-40.5 224.5q0 140 52.5 283.5t156.5 271.5l190 -145q-72 -87 -107.5 -184.5t-35.5 -188.5q0 -136 78.5 -206t220.5 -70q136 0 239.5 66t139.5 188q-41 246 -109 491l250 70l66 -244q129 124 308 215.5t339 91.5
q191 0 317.5 -127.5t126.5 -320.5q0 -77 -23 -140t-60.5 -105.5t-93 -74.5t-112.5 -50.5t-128 -29.5t-130 -14.5t-127 -3.5h-151q-174 0 -303 70q-62 -153 -222.5 -248.5t-363.5 -95.5zM1288 348q25 -44 69 -64t122 -20h123q189 0 299.5 18t173.5 66q4 68 -17.5 123.5
t-77.5 93t-139 37.5q-124 0 -277.5 -74.5t-275.5 -179.5z" />
    <glyph glyph-name="uni0636" unicode="&#x636;" horiz-adv-x="2396" 
d="M600 -274q-109 0 -201 30t-164 89.5t-112.5 157t-40.5 224.5q0 140 52.5 283.5t156.5 271.5l190 -145q-72 -87 -107.5 -184.5t-35.5 -188.5q0 -136 78.5 -206t220.5 -70q136 0 239.5 66t139.5 188q-41 246 -109 491l250 70l66 -244q129 124 308 215.5t339 91.5
q191 0 317.5 -127.5t126.5 -320.5q0 -77 -23 -140t-60.5 -105.5t-93 -74.5t-112.5 -50.5t-128 -29.5t-130 -14.5t-127 -3.5h-151q-174 0 -303 70q-62 -153 -222.5 -248.5t-363.5 -95.5zM1264 1149q0 61 40 102t101 41t101 -41t40 -102q0 -62 -40 -105t-101 -43t-101 43
t-40 105zM1288 348q25 -44 69 -64t122 -20h123q189 0 299.5 18t173.5 66q4 68 -17.5 123.5t-77.5 93t-139 37.5q-124 0 -277.5 -74.5t-275.5 -179.5z" />
    <glyph glyph-name="uni0637" unicode="&#x637;" horiz-adv-x="1644" 
d="M121 0l-39 264h252q81 127 158 225q20 176 20 371v526h242v-372q0 -177 -11 -273q173 125 355 125q106 0 195.5 -39t147.5 -103t90 -144.5t32 -165.5q0 -75 -27 -136t-91 -114t-163.5 -88.5t-250.5 -55.5t-347 -20h-563zM569 264h160q448 0 594 105q3 94 -73 163.5
t-197 69.5q-120 0 -235.5 -78.5t-248.5 -259.5z" />
    <glyph glyph-name="uni0638" unicode="&#x638;" horiz-adv-x="1644" 
d="M121 0l-39 264h252q81 127 158 225q20 176 20 371v526h242v-372q0 -177 -11 -273q173 125 355 125q106 0 195.5 -39t147.5 -103t90 -144.5t32 -165.5q0 -75 -27 -136t-91 -114t-163.5 -88.5t-250.5 -55.5t-347 -20h-563zM569 264h160q448 0 594 105q3 94 -73 163.5
t-197 69.5q-120 0 -235.5 -78.5t-248.5 -259.5zM969 1190q0 61 40 102t101 41t101 -41t40 -102q0 -62 -40 -105t-101 -43t-101 43t-40 105z" />
    <glyph glyph-name="uni0639" unicode="&#x639;" horiz-adv-x="1150" 
d="M817 -758q-143 0 -268 33t-224 97t-156.5 169t-57.5 240q0 150 70 280t190 215q-197 113 -197 326q0 76 24 144t71 123t126 87.5t180 32.5q95 0 192 -27t165 -69l-90 -234q-139 74 -271 74q-120 0 -170 -47q-15 -130 62 -204t213 -68q22 1 71.5 6.5t131 15t139.5 15.5
l-12 -246q-176 -5 -319.5 -44.5t-246 -118t-135.5 -187.5q18 -171 149 -259t400 -88q88 0 244 19l24 -256q-128 -29 -305 -29z" />
    <glyph glyph-name="uni063A" unicode="&#x63a;" horiz-adv-x="1150" 
d="M817 -758q-143 0 -268 33t-224 97t-156.5 169t-57.5 240q0 150 70 280t190 215q-197 113 -197 326q0 76 24 144t71 123t126 87.5t180 32.5q95 0 192 -27t165 -69l-90 -234q-139 74 -271 74q-120 0 -170 -47q-15 -130 62 -204t213 -68q22 1 71.5 6.5t131 15t139.5 15.5
l-12 -246q-176 -5 -319.5 -44.5t-246 -118t-135.5 -187.5q18 -171 149 -259t400 -88q88 0 244 19l24 -256q-128 -29 -305 -29zM420 1278q0 61 40 102t101 41t101 -41t40 -102q0 -62 -40 -105t-101 -43t-101 43t-40 105z" />
    <glyph glyph-name="uni0640" unicode="&#x640;" horiz-adv-x="569" 
d="M569 0h-569l-37 133l37 131h569v-264z" />
    <glyph glyph-name="uni0641" unicode="&#x641;" horiz-adv-x="2088" 
d="M571 0q-209 0 -328.5 110.5t-119.5 311.5q0 232 176 475l199 -135q-65 -100 -92 -170t-27 -135q0 -94 52 -143.5t171 -49.5h627q-88 78 -88 182q0 93 56 201t156.5 188t209.5 80q92 0 173 -58.5t135 -150t85 -203.5t31 -220q0 -153 -56 -283h-1360zM1364 442
q47 -63 150.5 -113t222.5 -67q2 12 2 35q0 79 -28 164t-71 140.5t-84 55.5q-47 0 -111.5 -66t-80.5 -149zM1413 1208q0 61 40 102.5t101 41.5t101.5 -41.5t40.5 -102.5q0 -62 -40.5 -104.5t-101.5 -42.5t-101 42.5t-40 104.5z" />
    <glyph glyph-name="uni0642" unicode="&#x642;" horiz-adv-x="1521" 
d="M733 -403q-108 0 -203 19t-178 61t-142.5 104t-93.5 153.5t-34 204.5q0 293 199 541l196 -143q-69 -91 -104 -193t-35 -184q0 -103 58.5 -171.5t152.5 -98t219 -29.5q136 0 243 32t165 84q6 27 14 74q-84 4 -160.5 17t-151.5 38.5t-129.5 61.5t-88 91.5t-33.5 123.5
q0 53 18.5 117t55 128.5t84.5 117.5t114 86.5t137 33.5q77 0 144 -40t113 -106t79 -150.5t48.5 -173.5t15.5 -175q0 -128 -36.5 -232.5t-100 -176.5t-152.5 -121t-192.5 -71.5t-221.5 -22.5zM715 1186q0 60 38.5 100.5t98.5 40.5t98.5 -40.5t38.5 -100.5q0 -59 -39 -100.5
t-98 -41.5t-98 41.5t-39 100.5zM838 395q105 -94 358 -114q-13 140 -61.5 233t-120.5 94q-59 2 -113 -63.5t-63 -149.5zM1053 1186q0 60 38.5 100.5t98.5 40.5t98.5 -40.5t38.5 -100.5q0 -59 -39 -100.5t-98 -41.5t-98 41.5t-39 100.5z" />
    <glyph glyph-name="uni0643" unicode="&#x643;" horiz-adv-x="1839" 
d="M571 0q-209 0 -328.5 110.5t-119.5 311.5q0 232 176 475l199 -135q-65 -100 -92 -170t-27 -135q0 -94 52 -143.5t171 -49.5h860q11 153 11 453v669h241v-657q0 -520 -43 -729h-1100zM686 721l137 29q-61 64 -61 165q0 94 58.5 159t172.5 65q127 0 230 -66l-74 -155
q-70 43 -150 43q-38 0 -67 -13q-4 -10 -4 -30q0 -62 39 -104t110 -34l187 21l12 -170q-249 -25 -555 -82z" />
    <glyph glyph-name="uni0644" unicode="&#x644;" horiz-adv-x="1404" 
d="M643 -442q-120 0 -219 29.5t-175.5 88.5t-119.5 157.5t-43 227.5q0 141 52.5 285t156.5 272l192 -147q-145 -185 -145 -367q0 -142 89 -213t249 -71q242 0 338 155q31 339 31 818v593h241v-587q0 -419 -19.5 -642.5t-64.5 -324.5q-60 -129 -213.5 -201.5t-349.5 -72.5z
" />
    <glyph glyph-name="uni0645" unicode="&#x645;" horiz-adv-x="1224" 
d="M219 -780q-149 497 -149 719q0 81 18 139.5t48.5 95t80 58t104 29.5t128.5 9h45l-189 76q68 197 174 310.5t228 113.5q97 0 193.5 -73.5t169.5 -203t104 -286.5l-123 -209q-335 14 -732 4q7 -145 40.5 -307.5t107.5 -417.5zM524 270q173 2 391 -2q-37 86 -94 154
t-125 106q-39 -25 -88.5 -94.5t-83.5 -163.5z" />
    <glyph glyph-name="uni0646" unicode="&#x646;" horiz-adv-x="1372" 
d="M655 -272q-126 0 -228.5 29.5t-180.5 88.5t-121 156.5t-43 226.5q0 142 52.5 286t156.5 273l192 -145q-71 -89 -108 -188.5t-37 -186.5q0 -137 88.5 -207.5t245.5 -70.5q117 0 217.5 40.5t157.5 121.5q-6 218 -160 579l225 94q166 -340 166 -581q0 -129 -49 -229.5
t-135 -162t-197 -93t-242 -31.5zM535 1026q0 61 40 102t101 41t101 -41t40 -102q0 -62 -40 -104.5t-101 -42.5t-101 42.5t-40 104.5z" />
    <glyph glyph-name="uni0647" unicode="&#x647;" horiz-adv-x="968" 
d="M473 -20q-100 0 -176.5 31t-120 83t-65 112.5t-21.5 127.5q0 94 44.5 185t127.5 163q-36 14 -82 27l80 237q302 -77 459 -220.5t158 -348.5q2 -185 -106 -291t-298 -106zM299 377q12 -59 66 -97t122 -38q105 0 172 108q-14 133 -194 240q-128 -82 -166 -213z" />
    <glyph glyph-name="uni0648" unicode="&#x648;" horiz-adv-x="970" 
d="M106 -276q341 101 474 270q-500 28 -500 328q0 76 31 161t83 156.5t129 118.5t160 47q109 0 202 -83t146.5 -218.5t53.5 -286.5q0 -113 -36 -212.5t-96.5 -176t-146 -141t-177.5 -109.5t-198 -80zM295 330q83 -63 352 -66q-9 65 -31 127t-62 109t-87 47
q-63 0 -113.5 -65.5t-58.5 -151.5z" />
    <glyph glyph-name="uni0649" unicode="&#x649;" horiz-adv-x="1495" 
d="M678 -307q-100 0 -187 18t-162 56.5t-128.5 96t-84 140.5t-30.5 186q0 148 58.5 282.5t150.5 232.5l192 -146q-147 -195 -147 -346q0 -70 29.5 -121t82 -79t116.5 -41t143 -13q134 0 243 36t168 103q-30 18 -83.5 45t-95.5 47t-90.5 52.5t-80.5 66t-54 81.5t-22 104
q0 113 74.5 214.5t198.5 162.5t262 61q153 0 239 -74l-110 -219q-57 37 -141 37q-94 0 -172 -43t-111 -107q21 -33 73.5 -63.5t109.5 -56.5t111.5 -59.5t90 -89t35.5 -128.5q0 -124 -94.5 -225t-249 -156t-334.5 -55z" />
    <glyph glyph-name="uni064A" unicode="&#x64a;" horiz-adv-x="1495" 
d="M678 -307q-100 0 -187 18t-162 56.5t-128.5 96t-84 140.5t-30.5 186q0 148 58.5 282.5t150.5 232.5l192 -146q-147 -195 -147 -346q0 -70 29.5 -121t82 -79t116.5 -41t143 -13q134 0 243 36t168 103q-30 18 -83.5 45t-95.5 47t-90.5 52.5t-80.5 66t-54 81.5t-22 104
q0 113 74.5 214.5t198.5 162.5t262 61q153 0 239 -74l-110 -219q-57 37 -141 37q-94 0 -172 -43t-111 -107q21 -33 73.5 -63.5t109.5 -56.5t111.5 -59.5t90 -89t35.5 -128.5q0 -124 -94.5 -225t-249 -156t-334.5 -55zM403 -567q0 60 39 100.5t99 40.5t98.5 -40.5
t38.5 -100.5q0 -59 -39 -99.5t-98 -40.5t-98.5 40.5t-39.5 99.5zM741 -567q0 60 39 100.5t99 40.5t98.5 -40.5t38.5 -100.5q0 -59 -39 -99.5t-98 -40.5t-98.5 40.5t-39.5 99.5z" />
    <glyph glyph-name="uni064B" unicode="&#x64b;" 
d="M113 283l-21 102l467 90l16 -102zM106 209l463 90l19 -102l-463 -91z" />
    <glyph glyph-name="uni064C" unicode="&#x64c;" 
d="M94 285q87 33 142 100q-69 18 -104.5 49t-35.5 82q0 63 46 106.5t104 43.5q59 0 95 -48t36 -116q0 -97 -76 -176q156 41 225 102q-68 20 -100.5 48t-32.5 77q0 64 47.5 108t106.5 44t95 -48t36 -116q0 -69 -42 -127t-104 -94.5t-142.5 -64t-148 -41t-130.5 -19.5z
M180 520q17 -22 37.5 -34t58.5 -23q7 21 7 41q0 30 -14 46.5t-36 16.5q-18 0 -33.5 -11.5t-19.5 -35.5zM475 561q19 -22 40 -33.5t65 -21.5q4 20 4 33q0 31 -13.5 49t-35.5 18q-16 0 -34 -11.5t-26 -33.5z" />
    <glyph glyph-name="uni064D" unicode="&#x64d;" 
d="M113 -150l-21 103l465 90l18 -100zM104 -229l465 90l19 -101l-463 -92z" />
    <glyph glyph-name="uni064E" unicode="&#x64e;" 
d="M117 51l-25 129l465 92l21 -131z" />
    <glyph glyph-name="uni064F" unicode="&#x64f;" 
d="M92 211q173 25 256 82q-143 50 -143 147q0 68 56 125.5t124 57.5q70 0 114 -62t44 -141q0 -68 -36 -124.5t-98.5 -94.5t-135 -63t-158.5 -40zM311 442q23 -29 111 -57q6 21 6 43q0 36 -14.5 56t-36.5 20q-20 0 -39.5 -16.5t-26.5 -45.5z" />
    <glyph glyph-name="uni0650" unicode="&#x650;" 
d="M117 -272l-25 131l465 90l21 -131z" />
    <glyph glyph-name="uni0651" unicode="&#x651;" 
d="M221 70q-61 0 -95 32.5t-34 85.5v129h111v-84q0 -27 11 -38t36 -11h37q4 32 4 60v73h112v-79q0 -31 11 -41.5t37 -10.5h32q4 28 4 66v65h107v-61q0 -110 -21 -184h-118q-43 0 -70 13.5t-41 47.5q-21 -35 -49.5 -49t-73.5 -14z" />
    <glyph glyph-name="uni0652" unicode="&#x652;" 
d="M272 72q-90 0 -135 44t-45 109q0 46 27.5 96t79.5 91q-7 5 -47 30l73 101q236 -154 236 -307q0 -68 -49 -116t-140 -48zM205 238q0 -29 20 -43.5t51 -14.5q37 0 54.5 17.5t17.5 42.5q0 49 -63 106q-80 -49 -80 -108z" />
    <glyph glyph-name="uni0653" unicode="&#x653;" 
d="M92 211q42 43 94.5 55t102 3.5t97.5 -18.5t95.5 -5t81.5 37l33 -136q-41 -36 -94 -44.5t-102.5 0t-98.5 17t-96.5 -1t-81.5 -46.5z" />
    <glyph glyph-name="uni0654" unicode="&#x654;" 
d="M106 721l-14 141l127 15q-57 47 -57 129q0 68 46 111.5t134 43.5q89 0 166 -41l-53 -127q-49 21 -93 21q-39 0 -61 -19q-1 -53 32.5 -79t88.5 -21l121 10l12 -141z" />
    <glyph glyph-name="uni0655" unicode="&#x655;" 
d="M106 -563l-14 143l127 14q-57 50 -57 132q0 68 46 111.5t134 43.5q89 0 166 -41l-53 -127q-49 21 -93 21q-39 0 -61 -19q-1 -53 32.5 -79t88.5 -21l121 10l12 -141z" />
    <glyph glyph-name="uni0656" unicode="&#x656;" 
d="M129 -424q-6 168 -37 348l158 23q22 -136 37 -353z" />
    <glyph glyph-name="uni0660" unicode="&#x660;" horiz-adv-x="661" 
d="M328 326l-256 258l256 264l262 -264z" />
    <glyph glyph-name="uni0661" unicode="&#x661;" horiz-adv-x="696" 
d="M328 -8q-4 277 -75.5 615t-178.5 597l233 92q106 -248 182 -613.5t80 -651.5z" />
    <glyph glyph-name="uni0662" unicode="&#x662;" horiz-adv-x="1017" 
d="M414 -8q-12 155 -48.5 298.5t-80 245t-85.5 188t-70 161t-28 131.5q0 77 51.5 134.5t131.5 86t179 40.5t193 5.5t173.5 -26t121.5 -48.5l-63 -227q-103 49 -265 49.5t-270 -45.5q119 -187 202.5 -450.5t98.5 -503.5z" />
    <glyph glyph-name="uni0663" unicode="&#x663;" horiz-adv-x="1345" 
d="M356 -8q-30 312 -96.5 580t-208.5 630l230 88q64 -200 108 -268t115 -68q100 0 100 156v166h234q0 -134 11.5 -204t33 -95t63.5 -27q31 -2 66 8q12 78 6 318h235q6 -297 -61.5 -433t-224.5 -136q-158 0 -232 127q-35 -62 -88.5 -94.5t-114.5 -32.5q-37 0 -67 12
q97 -307 131 -686z" />
    <glyph glyph-name="uni0664" unicode="&#x664;" horiz-adv-x="913" 
d="M711 1049q-117 2 -197.5 -17t-138.5 -67q24 -20 70 -53t80 -59t69.5 -59t54.5 -69.5t19 -73.5q0 -49 -36.5 -96.5t-83 -80.5t-113.5 -81t-105 -86q64 -37 155 -55.5t174.5 -16.5t163.5 13v-258q-42 -8 -98.5 -12.5t-126 -2.5t-139 12t-135.5 33t-116.5 56.5t-81 87
t-30.5 121.5q0 101 68.5 185.5t222.5 186.5q-141 92 -183 129q-82 74 -83 160q0 100 88.5 185.5t231 129t292.5 29.5z" />
    <glyph glyph-name="uni0665" unicode="&#x665;" horiz-adv-x="1198" 
d="M584 37q-224 0 -351 126.5t-127 358.5q0 114 30.5 222t83 191.5t118.5 147.5t140 97.5t145 33.5q120 0 229 -92.5t174.5 -244t65.5 -316.5q0 -108 -30.5 -201t-91 -166t-159.5 -115t-227 -42zM328 547q0 -67 22.5 -116t62 -76t87.5 -39.5t106 -12.5q83 0 137.5 24
t102.5 72q13 39 14.5 94t-7.5 115t-30 119t-49.5 106t-71 76t-90.5 29q-69 0 -135.5 -56.5t-107.5 -148t-41 -186.5z" />
    <glyph glyph-name="uni0666" unicode="&#x666;" horiz-adv-x="1101" 
d="M782 -8q-63 151 -117 425.5t-77 555.5q-303 -29 -543 43l55 260q144 -44 332.5 -46.5t374.5 44.5q3 -301 65.5 -630t147.5 -556z" />
    <glyph glyph-name="uni0667" unicode="&#x667;" horiz-adv-x="1259" 
d="M528 -2q-88 326 -215.5 628.5t-279.5 530.5l221 131q186 -248 387 -811q149 454 363 801l223 -121q-153 -251 -286 -582.5t-173 -576.5h-240z" />
    <glyph glyph-name="uni0668" unicode="&#x668;" horiz-adv-x="1269" 
d="M1014 -10q-212 369 -367 811q-123 -360 -393 -809l-221 119q60 96 129.5 226.5t145 292.5t134.5 336t78 310h242q60 -246 202 -593t273 -558z" />
    <glyph glyph-name="uni0669" unicode="&#x669;" horiz-adv-x="1105" 
d="M780 -8q-75 253 -127 526q-85 -26 -184 -26q-105 0 -192.5 37t-143 113t-55.5 179q0 80 27.5 161.5t76 150t125 112t164.5 43.5q51 0 94 -14t75.5 -37.5t60 -64t47 -82t38 -104t31.5 -118t29 -135.5q73 -346 166 -680zM289 819q28 -28 82 -47.5t110 -19.5q41 0 119 16
q-30 150 -63.5 205t-90.5 55q-67 0 -109.5 -60.5t-47.5 -148.5z" />
    <glyph glyph-name="uni066A" unicode="&#x66a;" horiz-adv-x="1576" 
d="M315 0l670 1290h262l-674 -1290h-258zM72 938l256 264l262 -264l-262 -258zM985 373l256 264l262 -264l-262 -258z" />
    <glyph glyph-name="uni066B" unicode="&#x66b;" horiz-adv-x="450" 
d="M72 -156q80 83 80 160q0 27 -12 50.5t-27 39t-27 42t-12 57.5q0 61 38 101t103 40q75 0 117.5 -53t42.5 -158q0 -233 -215 -377z" />
    <glyph glyph-name="uni066C" unicode="&#x66c;" horiz-adv-x="491" 
d="M57 -213q17 129 37 221t48.5 168.5t69 115t93.5 38.5q50 0 83.5 -31.5t33.5 -87.5q0 -81 -69.5 -207t-182.5 -262z" />
    <glyph glyph-name="uni066D" unicode="&#x66d;" horiz-adv-x="974" 
d="M643 709l-156 237l-155 -235l-148 104l178 221l-274 76l55 172l267 -102l-15 280h183l-15 -278l266 100l56 -172l-273 -76l176 -221z" />
    <glyph glyph-name="uni066E" unicode="&#x66e;" horiz-adv-x="1845" 
d="M571 0q-209 0 -328.5 110.5t-119.5 311.5q0 232 176 475l199 -135q-65 -100 -92 -170t-27 -135q0 -94 52 -143.5t171 -49.5h858q13 117 13 232v315h243v-303q0 -271 -30 -508h-1115z" />
    <glyph glyph-name="uni066F" unicode="&#x66f;" horiz-adv-x="1521" 
d="M733 -403q-108 0 -203 19t-178 61t-142.5 104t-93.5 153.5t-34 204.5q0 293 199 541l196 -143q-69 -91 -104 -193t-35 -184q0 -103 58.5 -171.5t152.5 -98t219 -29.5q136 0 243 32t165 84q6 27 14 74q-84 4 -160.5 17t-151.5 38.5t-129.5 61.5t-88 91.5t-33.5 123.5
q0 53 18.5 117t55 128.5t84.5 117.5t114 86.5t137 33.5q77 0 144 -40t113 -106t79 -150.5t48.5 -173.5t15.5 -175q0 -128 -36.5 -232.5t-100 -176.5t-152.5 -121t-192.5 -71.5t-221.5 -22.5zM838 395q105 -94 358 -114q-13 140 -61.5 233t-120.5 94q-59 2 -113 -63.5
t-63 -149.5z" />
    <glyph glyph-name="uni0670" unicode="&#x670;" 
d="M-70 102q-6 176 -36 349l157 22q22 -136 37 -352z" />
    <glyph glyph-name="uni0671" unicode="&#x671;" horiz-adv-x="489" 
d="M123 0v1386h244v-1386h-244zM-82 1593q66 90 168 90q19 0 43 -4q44 68 102 108t121 40q64 0 110 -42.5t46 -107.5q0 -72 -55.5 -119t-147.5 -47q-56 0 -121 26t-96 26q-47 0 -100 -50zM213 1645q44 -19 90 -19q74 0 115 25q-5 28 -25.5 46.5t-52.5 18.5q-65 0 -127 -71z
" />
    <glyph glyph-name="uni06A1" unicode="&#x6a1;" horiz-adv-x="2088" 
d="M571 0q-209 0 -328.5 110.5t-119.5 311.5q0 232 176 475l199 -135q-65 -100 -92 -170t-27 -135q0 -94 52 -143.5t171 -49.5h627q-88 78 -88 182q0 93 56 201t156.5 188t209.5 80q92 0 173 -58.5t135 -150t85 -203.5t31 -220q0 -153 -56 -283h-1360zM1364 442
q47 -63 150.5 -113t222.5 -67q2 12 2 35q0 79 -28 164t-71 140.5t-84 55.5q-47 0 -111.5 -66t-80.5 -149z" />
    <glyph glyph-name="uni06A4" unicode="&#x6a4;" horiz-adv-x="2088" 
d="M571 0q-209 0 -328.5 110.5t-119.5 311.5q0 232 176 475l199 -135q-65 -100 -92 -170t-27 -135q0 -94 52 -143.5t171 -49.5h627q-88 78 -88 182q0 93 56 201t156.5 188t209.5 80q92 0 173 -58.5t135 -150t85 -203.5t31 -220q0 -153 -56 -283h-1360zM1272 1188
q0 52 34.5 87.5t86.5 35.5t85 -35.5t33 -87.5q0 -53 -33 -88t-85 -35t-86.5 35t-34.5 88zM1364 442q47 -63 150.5 -113t222.5 -67q2 12 2 35q0 79 -28 164t-71 140.5t-84 55.5q-47 0 -111.5 -66t-80.5 -149zM1434 1450q0 52 34 87.5t86 35.5q51 0 85 -36t34 -87
q0 -53 -34 -89t-85 -36q-52 0 -86 36t-34 89zM1595 1188q0 52 33.5 87.5t85.5 35.5t86.5 -35.5t34.5 -87.5q0 -53 -34.5 -88t-86.5 -35t-85.5 35t-33.5 88z" />
    <glyph glyph-name="uni06BA" unicode="&#x6ba;" horiz-adv-x="1372" 
d="M655 -272q-126 0 -228.5 29.5t-180.5 88.5t-121 156.5t-43 226.5q0 142 52.5 286t156.5 273l192 -145q-71 -89 -108 -188.5t-37 -186.5q0 -137 88.5 -207.5t245.5 -70.5q117 0 217.5 40.5t157.5 121.5q-6 218 -160 579l225 94q166 -340 166 -581q0 -129 -49 -229.5
t-135 -162t-197 -93t-242 -31.5z" />
    <glyph glyph-name="Wgrave" unicode="&#x1e80;" horiz-adv-x="1949" 
d="M383 0l-363 1290h293l250 -948l262 948h299l262 -950l252 950h291l-366 -1290h-340l-248 885l-248 -885h-344zM662 1679h270l158 -278h-211z" />
    <glyph glyph-name="wgrave" unicode="&#x1e81;" horiz-adv-x="1492" 
d="M311 0l-297 786h279l166 -548l157 548h265l157 -548l166 548h275l-297 -786h-283l-154 500l-153 -500h-281zM444 1225h271l157 -279h-210z" />
    <glyph glyph-name="Wacute" unicode="&#x1e82;" horiz-adv-x="1949" 
d="M383 0l-363 1290h293l250 -948l262 948h299l262 -950l252 950h291l-366 -1290h-340l-248 885l-248 -885h-344zM868 1401l160 278h272l-219 -278h-213z" />
    <glyph glyph-name="wacute" unicode="&#x1e83;" horiz-adv-x="1492" 
d="M311 0l-297 786h279l166 -548l157 548h265l157 -548l166 548h275l-297 -786h-283l-154 500l-153 -500h-281zM621 946l159 279h273l-219 -279h-213z" />
    <glyph glyph-name="Wdieresis" unicode="&#x1e84;" horiz-adv-x="1949" 
d="M383 0l-363 1290h293l250 -948l262 948h299l262 -950l252 950h291l-366 -1290h-340l-248 885l-248 -885h-344zM633 1544q0 59 43 101.5t104 42.5t104.5 -42.5t43.5 -101.5t-43.5 -102t-104.5 -43t-104 43t-43 102zM1024 1544q0 59 42.5 101.5t104.5 42.5
q61 0 103.5 -42.5t42.5 -101.5t-42.5 -102t-103.5 -43q-62 0 -104.5 43t-42.5 102z" />
    <glyph glyph-name="wdieresis" unicode="&#x1e85;" horiz-adv-x="1492" 
d="M311 0l-297 786h279l166 -548l157 548h265l157 -548l166 548h275l-297 -786h-283l-154 500l-153 -500h-281zM414 1094q0 63 41.5 105t103.5 42t105 -42t43 -105t-43.5 -107.5t-104.5 -44.5t-103 44.5t-42 107.5zM788 1094q0 63 43 105t105 42t103.5 -42t41.5 -105
t-42 -107.5t-103 -44.5t-104.5 44.5t-43.5 107.5z" />
    <glyph glyph-name="uni1E9E" unicode="&#x1e9e;" horiz-adv-x="1374" 
d="M858 -25q-201 0 -352 97l51 217q61 -42 146 -65t153 -23q103 0 158 41q20 54 20 116q0 103 -58.5 148t-193.5 45h-176v178l285 332h-483v-1061h-289v1290h1102v-205l-291 -323q203 -17 292 -102.5t89 -266.5q0 -220 -116 -319t-337 -99z" />
    <glyph glyph-name="uni1EBC" unicode="&#x1ebc;" horiz-adv-x="1036" 
d="M119 0v1290h850v-221h-561v-324h483v-221h-483v-303h563v-221h-852zM229 1401q0 126 50.5 194t142.5 68q42 0 81 -17.5t62.5 -39t49.5 -39t44 -17.5q50 0 50 99h161q0 -126 -51.5 -194.5t-140.5 -68.5q-41 0 -80.5 17.5t-63.5 39t-50 39t-44 17.5q-49 0 -49 -98h-162z
" />
    <glyph glyph-name="uni1EBD" unicode="&#x1ebd;" horiz-adv-x="905" 
d="M487 -29q-201 0 -319.5 103t-118.5 305q0 193 112.5 314.5t305.5 121.5q91 0 162 -26t116 -71.5t72 -109t35 -135.5t0 -154h-555q8 -69 65.5 -112t157.5 -43q131 0 232 57l41 -178q-115 -72 -306 -72zM145 934q0 126 50.5 194t142.5 68q42 0 81 -17.5t62.5 -39t49.5 -39
t44 -17.5q50 0 50 99h161q0 -126 -51.5 -194t-140.5 -68q-41 0 -80.5 17.5t-63.5 38.5t-50 38.5t-44 17.5q-49 0 -49 -98h-162zM297 479h317q-6 72 -46.5 108t-106.5 36q-87 0 -135 -52q-23 -48 -29 -92z" />
    <glyph glyph-name="Ygrave" unicode="&#x1ef2;" horiz-adv-x="1382" 
d="M547 0v434l-527 856h328l344 -602l344 602h326l-526 -856v-434h-289zM377 1679h270l158 -278h-211z" />
    <glyph glyph-name="ygrave" unicode="&#x1ef3;" horiz-adv-x="978" 
d="M416 -414q-172 0 -314 74l50 207q123 -76 268 -76q104 0 155 39q23 36 31 86.5t10 159.5q-88 -88 -227 -88q-305 0 -305 342v456h266v-436q0 -84 30.5 -125t84.5 -41q72 0 151 60v542h269v-766q0 -80 -18 -145.5t-47 -110t-70.5 -78t-83 -52t-89.5 -30t-85.5 -15
t-75.5 -3.5zM193 1225h270l158 -279h-211z" />
    <glyph glyph-name="uni1EF8" unicode="&#x1ef8;" horiz-adv-x="1382" 
d="M547 0v434l-527 856h328l344 -602l344 602h326l-526 -856v-434h-289zM377 1401q0 127 50.5 194.5t141.5 67.5q42 0 81 -17.5t63 -39t50 -39t44 -17.5q49 0 49 99h162q0 -126 -52 -194.5t-141 -68.5q-41 0 -80 17.5t-63.5 39t-50 39t-43.5 17.5q-49 0 -49 -98h-162z" />
    <glyph glyph-name="uni1EF9" unicode="&#x1ef9;" horiz-adv-x="978" 
d="M416 -414q-172 0 -314 74l50 207q123 -76 268 -76q104 0 155 39q23 36 31 86.5t10 159.5q-88 -88 -227 -88q-305 0 -305 342v456h266v-436q0 -84 30.5 -125t84.5 -41q72 0 151 60v542h269v-766q0 -80 -18 -145.5t-47 -110t-70.5 -78t-83 -52t-89.5 -30t-85.5 -15
t-75.5 -3.5zM174 934q0 126 50.5 194t142.5 68q42 0 81 -17.5t62.5 -39t49.5 -39t44 -17.5q49 0 49 99h162q0 -126 -51.5 -194t-140.5 -68q-41 0 -80.5 17.5t-63.5 38.5t-50 38.5t-44 17.5q-49 0 -49 -98h-162z" />
    <glyph glyph-name="uni2000" unicode="&#x2000;" horiz-adv-x="1024" 
 />
    <glyph glyph-name="uni2001" unicode="&#x2001;" horiz-adv-x="2048" 
 />
    <glyph glyph-name="uni2002" unicode="&#x2002;" horiz-adv-x="1024" 
 />
    <glyph glyph-name="uni2003" unicode="&#x2003;" horiz-adv-x="2048" 
 />
    <glyph glyph-name="uni2004" unicode="&#x2004;" horiz-adv-x="681" 
 />
    <glyph glyph-name="uni2005" unicode="&#x2005;" horiz-adv-x="512" 
 />
    <glyph glyph-name="uni2006" unicode="&#x2006;" horiz-adv-x="339" 
 />
    <glyph glyph-name="uni2007" unicode="&#x2007;" horiz-adv-x="1161" 
 />
    <glyph glyph-name="uni2008" unicode="&#x2008;" horiz-adv-x="436" 
 />
    <glyph glyph-name="uni2009" unicode="&#x2009;" horiz-adv-x="256" 
 />
    <glyph glyph-name="uni200A" unicode="&#x200a;" horiz-adv-x="143" 
 />
    <glyph glyph-name="uni200B" unicode="&#x200b;" 
 />
    <glyph glyph-name="endash" unicode="&#x2013;" horiz-adv-x="1105" 
d="M102 438v205h902v-205h-902z" />
    <glyph glyph-name="emdash" unicode="&#x2014;" horiz-adv-x="2007" 
d="M102 438v205h1803v-205h-1803z" />
    <glyph glyph-name="quoteleft" unicode="&#x2018;" horiz-adv-x="378" 
d="M289 1290q-90 -81 -90 -139q0 -23 13 -38.5t31.5 -25.5t37.5 -22.5t32 -37.5t13 -62q0 -55 -36 -88t-95 -33q-144 0 -144 182q0 95 43 180t123 148z" />
    <glyph glyph-name="quoteright" unicode="&#x2019;" horiz-adv-x="378" 
d="M90 909q90 81 90 138q0 29 -20 47.5t-43.5 28.5t-43.5 37.5t-20 72.5q0 57 36.5 90t96.5 33q72 0 107 -48.5t35 -133.5q0 -200 -166 -328z" />
    <glyph glyph-name="quotesinglbase" unicode="&#x201a;" horiz-adv-x="378" 
d="M90 -217q90 81 90 137q0 29 -20 47.5t-43.5 28.5t-43.5 37.5t-20 72.5q0 57 36.5 90t96.5 33q72 0 107 -48.5t35 -133.5q0 -199 -166 -330z" />
    <glyph glyph-name="quotedblleft" unicode="&#x201c;" horiz-adv-x="702" 
d="M289 1290q-90 -81 -90 -139q0 -23 13 -38.5t31.5 -25.5t37.5 -22.5t32 -37.5t13 -62q0 -55 -36 -88t-95 -33q-144 0 -144 182q0 95 43 180t123 148zM375 1026q0 95 43 180t123 148l71 -64q-90 -81 -90 -139q0 -23 13 -38.5t32 -25.5t37.5 -22.5t31.5 -37.5t13 -62
q0 -55 -36 -88t-95 -33q-143 0 -143 182z" />
    <glyph glyph-name="quotedblright" unicode="&#x201d;" horiz-adv-x="702" 
d="M90 909q90 81 90 138q0 29 -20 47.5t-43.5 28.5t-43.5 37.5t-20 72.5q0 57 36.5 90t96.5 33q72 0 107 -48.5t35 -133.5q0 -200 -166 -328zM377 1233q0 57 36.5 90t96.5 33q141 0 141 -182q0 -200 -166 -328l-71 63q90 81 90 138q0 29 -20 47.5t-43.5 28.5t-43.5 37.5
t-20 72.5z" />
    <glyph glyph-name="quotedblbase" unicode="&#x201e;" horiz-adv-x="702" 
d="M90 -217q90 81 90 137q0 29 -20 47.5t-43.5 28.5t-43.5 37.5t-20 72.5q0 57 36.5 90t96.5 33q72 0 107 -48.5t35 -133.5q0 -199 -166 -330zM377 106q0 57 36.5 90t96.5 33q141 0 141 -182q0 -199 -166 -330l-71 66q90 81 90 137q0 29 -20 47.5t-43.5 28.5t-43.5 37.5
t-20 72.5z" />
    <glyph glyph-name="dagger" unicode="&#x2020;" horiz-adv-x="946" 
d="M328 -205v938h-246v221h246v336h290v-336h246v-221h-246v-938h-290z" />
    <glyph glyph-name="daggerdbl" unicode="&#x2021;" horiz-adv-x="946" 
d="M328 -205v336h-246v221h246v381h-246v221h246v336h290v-336h246v-221h-246v-381h246v-221h-246v-336h-290z" />
    <glyph glyph-name="bullet" unicode="&#x2022;" horiz-adv-x="591" 
d="M295 401q-95 0 -157 62.5t-62 157.5t62 157t157 62t157 -62t62 -157t-62 -157.5t-157 -62.5z" />
    <glyph glyph-name="ellipsis" unicode="&#x2026;" horiz-adv-x="1312" 
d="M260 -23q-64 0 -109 44t-45 106t45 107t109 45t108 -45t44 -107t-44 -106t-108 -44zM504 127q0 62 44.5 107t108.5 45t108 -45t44 -107t-44 -106t-108 -44t-108.5 44t-44.5 106zM901 127q0 62 45 107t109 45t107.5 -45t43.5 -107t-43.5 -106t-107.5 -44t-109 44t-45 106z
" />
    <glyph glyph-name="uni202F" unicode="&#x202f;" horiz-adv-x="75" 
 />
    <glyph glyph-name="perthousand" unicode="&#x2030;" horiz-adv-x="1947" 
d="M328 741q-129 0 -208 73.5t-79 217.5q0 135 82.5 212t204.5 77q128 0 207 -73.5t79 -215.5q0 -135 -83 -213t-203 -78zM197 0l721 1290h221l-723 -1290h-219zM209 1032q0 -65 32 -98t87 -33q64 0 100 29q16 31 16 102q0 63 -32.5 98t-83.5 35q-62 0 -99 -26
q-20 -36 -20 -107zM721 264q0 135 82.5 212t204.5 77q128 0 207 -73.5t79 -215.5q0 -135 -83 -213t-203 -78q-129 0 -208 73.5t-79 217.5zM889 264q0 -65 32 -98t87 -33q64 0 100 29q16 31 16 102q0 63 -32.5 98t-83.5 35q-62 0 -99 -26q-20 -36 -20 -107zM1335 264
q0 135 82.5 212t204.5 77q128 0 207.5 -73.5t79.5 -215.5q0 -135 -83.5 -213t-203.5 -78q-129 0 -208 73.5t-79 217.5zM1503 264q0 -65 32 -98t87 -33q64 0 100 29q17 33 17 102q0 63 -33 98t-84 35q-61 0 -98 -26q-21 -38 -21 -107z" />
    <glyph glyph-name="guilsinglleft" unicode="&#x2039;" horiz-adv-x="610" 
d="M274 225l-213 287l213 287h267l-213 -287l213 -287h-267z" />
    <glyph glyph-name="guilsinglright" unicode="&#x203a;" horiz-adv-x="610" 
d="M336 225h-266l213 287l-213 287h266l213 -287z" />
    <glyph glyph-name="fraction" unicode="&#x2044;" horiz-adv-x="278" 
d="M-332 0l721 1290h221l-723 -1290h-219z" />
    <glyph glyph-name="uni205F" unicode="&#x205f;" horiz-adv-x="454" 
 />
    <glyph glyph-name="Euro" unicode="&#x20ac;" horiz-adv-x="1222" 
d="M791 -29q-479 0 -568 445h-141v164h123q-2 18 -2 55q0 39 2 59h-123v164h141q14 76 39.5 140.5t70.5 125t105.5 102.5t149.5 67.5t198 25.5q174 0 322 -62l-35 -208q-138 57 -295 57q-136 0 -225 -76q-50 -75 -72 -172h529l-33 -164h-516v-51q0 -40 2 -63h491l-32 -164
h-435q64 -230 301 -230q83 0 173.5 19.5t136.5 42.5l22 -213q-145 -64 -329 -64z" />
    <glyph glyph-name="uni2116" unicode="&#x2116;" horiz-adv-x="2134" 
d="M119 0v1290h422l436 -995v995h266v-1290h-409l-451 1006v-1006h-264zM1411 1028q0 127 84 205t225 78q142 0 222.5 -75.5t80.5 -203.5q0 -127 -83.5 -203.5t-225.5 -76.5t-222.5 74.5t-80.5 201.5zM1606 1036q0 -64 27.5 -103.5t84.5 -39.5q60 0 90 27q21 35 21 104
q0 66 -28.5 105.5t-86.5 39.5t-82 -24q-26 -44 -26 -109z" />
    <glyph glyph-name="trademark" unicode="&#x2122;" horiz-adv-x="1634" 
d="M782 696v594h244l137 -364l129 364h240v-594h-150v434l-161 -434h-119l-170 439v-439h-150zM102 1149v141h555v-141h-190v-453h-174v453h-191z" />
    <glyph glyph-name="estimated" unicode="&#x212e;" horiz-adv-x="1599" 
d="M801 0q-209 0 -372 80t-255 229.5t-92 345.5q0 193 92 342.5t255.5 231.5t371.5 82q321 0 512.5 -175.5t204.5 -498.5h-1141q-16 0 -22.5 -6t-6.5 -29v-319q0 -27 33.5 -65.5t90 -76t145 -64t184.5 -26.5q130 0 251 58.5t201 150.5h133q-128 -143 -257.5 -201.5
t-327.5 -58.5zM348 694q0 -16 29 -16h842q21 0 25.5 5.5t4.5 25.5v313q0 51 -69.5 108.5t-176 96.5t-204.5 39q-91 0 -178.5 -27.5t-145 -66t-92.5 -76t-35 -60.5v-342z" />
    <glyph glyph-name="partialdiff" unicode="&#x2202;" horiz-adv-x="1146" 
d="M557 -29q-97 0 -179 28.5t-144 84t-97 144t-35 202.5q0 206 112 323t306 117q145 0 228 -69q-89 309 -459 309l73 209q138 -6 250 -43t181.5 -87t120.5 -120.5t75 -129t37.5 -128t15.5 -100.5t2 -64q0 -149 -25 -265.5t-68.5 -193t-106.5 -126t-133.5 -70.5t-153.5 -21z
M373 403q0 -225 182 -225q104 0 161.5 77.5t57.5 240.5v92q-89 67 -199 67q-202 0 -202 -252z" />
    <glyph glyph-name="uni2206" unicode="&#x2206;" horiz-adv-x="1523" 
d="M102 0l484 1290h352l483 -1290h-1319zM467 205h588l-293 829z" />
    <glyph glyph-name="product" unicode="&#x220f;" horiz-adv-x="1273" 
d="M799 -205v1274h-324v-1274h-258v1274h-115v221h1069v-221h-114v-1274h-258z" />
    <glyph glyph-name="summation" unicode="&#x2211;" horiz-adv-x="1128" 
d="M102 -205v197l500 551l-500 551v196h924v-221h-584l408 -453v-147l-408 -453h584v-221h-924z" />
    <glyph glyph-name="minus" unicode="&#x2212;" horiz-adv-x="1140" 
d="M115 549v196h911v-196h-911z" />
    <glyph glyph-name="radical" unicode="&#x221a;" horiz-adv-x="1329" 
d="M395 -205l-293 758h254l183 -500l352 1237h336v-221h-150l-381 -1274h-301z" />
    <glyph glyph-name="infinity" unicode="&#x221e;" horiz-adv-x="1312" 
d="M354 328q-141 0 -217 79.5t-76 219.5q0 139 80.5 224t227.5 85q112 0 180.5 -41.5t116.5 -114.5q115 156 292 156q139 0 216 -80.5t77 -222.5q0 -140 -80 -222.5t-229 -82.5q-114 0 -182 40t-113 111q-125 -151 -293 -151zM233 639q0 -69 34.5 -110.5t109.5 -41.5
q135 0 201 123q-38 80 -86 123t-132 43q-68 0 -104 -22q-23 -40 -23 -115zM735 649q43 -80 89 -121t126 -41q73 0 109 25q20 34 20 113q0 69 -36.5 110t-106.5 41q-133 0 -201 -127z" />
    <glyph glyph-name="integral" unicode="&#x222b;" horiz-adv-x="935" 
d="M244 -229q-76 0 -142 16v209q57 -14 121 -14q58 0 84 26q33 53 33 158v766q0 383 352 383q72 0 142 -17v-208q-59 14 -121 14q-57 0 -84 -27q-33 -53 -33 -157v-766q0 -383 -352 -383z" />
    <glyph glyph-name="approxequal" unicode="&#x2248;" horiz-adv-x="1140" 
d="M780 676q-59 0 -111.5 18t-90.5 44t-71.5 52t-68 44t-67.5 18q-105 0 -105 -162h-176q0 166 70 252t202 86q60 0 112.5 -18t89.5 -44t70.5 -52t68.5 -44t69 -18q100 0 100 162h177q0 -166 -69.5 -252t-199.5 -86zM90 281q0 166 70 251.5t202 85.5q60 0 112.5 -18
t89.5 -44t70.5 -52t68.5 -44t69 -18q100 0 100 162h177q0 -166 -69.5 -252t-199.5 -86q-59 0 -111.5 18t-90.5 44t-71.5 52t-68 44t-67.5 18q-105 0 -105 -161h-176z" />
    <glyph glyph-name="notequal" unicode="&#x2260;" horiz-adv-x="1140" 
d="M135 766v192h440l54 168h200l-53 -168h230v-192h-291l-76 -234h367v-192h-428l-54 -170h-198l53 170h-244v192h305l74 234h-379z" />
    <glyph glyph-name="lessequal" unicode="&#x2264;" horiz-adv-x="1140" 
d="M1026 319l-911 320v213l911 322v-224l-631 -205l631 -202v-224zM115 49v197h911v-197h-911z" />
    <glyph glyph-name="greaterequal" unicode="&#x2265;" horiz-adv-x="1140" 
d="M115 319v224l630 202l-630 205v224l911 -322v-213zM115 49v197h911v-197h-911z" />
    <glyph glyph-name="lozenge" unicode="&#x25ca;" horiz-adv-x="942" 
d="M469 0l-274 274l274 279l279 -279z" />
    <glyph glyph-name="uniA78B" unicode="&#xa78b;" horiz-adv-x="454" 
d="M98 410v880h258l-32 -880h-226z" />
    <glyph glyph-name="uniA78C" unicode="&#xa78c;" horiz-adv-x="444" 
d="M94 410v815h254l-20 -815h-234z" />
    <glyph glyph-name="uniF8FF" unicode="&#xf8ff;" horiz-adv-x="942" 
d="M469 0l-274 274l274 279l279 -279z" />
    <glyph glyph-name="uniFD3E" unicode="&#xfd3e;" horiz-adv-x="776" 
d="M522 -475q-210 198 -309.5 440t-99.5 547t99.5 547t309.5 440l164 -153q-152 -141 -239 -349t-87 -485q0 -526 326 -831z" />
    <glyph glyph-name="uniFD3F" unicode="&#xfd3f;" horiz-adv-x="776" 
d="M90 -319q326 305 326 831q0 277 -87 485t-239 349l164 153q211 -198 310.5 -440t99.5 -547t-99.5 -547t-310.5 -440z" />
    <glyph glyph-name="uni066E.medi.wide" horiz-adv-x="821" 
d="M313 0h-313l-37 133l37 131h244q26 110 26 318v229h246v-381q0 -98 36.5 -132t113.5 -34h155v-264h-209q-158 0 -217 129q-26 -65 -82 -129z" />
    <glyph glyph-name="uni066E.init.wide" horiz-adv-x="720" 
d="M555 0h-555l-37 133l37 131h340q10 85 10 240v307h242v-283q0 -327 -37 -528z" />
    <glyph glyph-name="uni066E.init.wide.shifted" horiz-adv-x="819" 
d="M653 0h-653l-37 133l37 131h438q11 94 11 240v307h241v-283q0 -327 -37 -528z" />
    <glyph glyph-name="uni0628.medi.wide" horiz-adv-x="821" 
d="M313 0h-313l-37 133l37 131h244q26 110 26 318v229h246v-381q0 -98 36.5 -132t113.5 -34h155v-264h-209q-158 0 -217 129q-26 -65 -82 -129zM246 -279q0 61 40 102.5t101 41.5t101 -41.5t40 -102.5q0 -62 -40 -104.5t-101 -42.5t-101 42.5t-40 104.5z" />
    <glyph glyph-name="uni0628.init.wide" horiz-adv-x="720" 
d="M555 0h-555l-37 133l37 131h340q10 85 10 240v307h242v-283q0 -327 -37 -528zM209 -279q0 61 40 102.5t101 41.5t101.5 -41.5t40.5 -102.5q0 -62 -40.5 -104.5t-101.5 -42.5t-101 42.5t-40 104.5z" />
    <glyph glyph-name="uni062A.medi.wide" horiz-adv-x="821" 
d="M313 0h-313l-37 133l37 131h244q26 110 26 318v229h246v-381q0 -98 36.5 -132t113.5 -34h155v-264h-209q-158 0 -217 129q-26 -65 -82 -129zM80 1124q0 61 38.5 101.5t98.5 40.5t98.5 -40.5t38.5 -101.5q0 -59 -39 -100t-98 -41t-98 41t-39 100zM418 1124
q0 61 38.5 101.5t98.5 40.5t98.5 -40.5t38.5 -101.5q0 -59 -39 -100t-98 -41t-98 41t-39 100z" />
    <glyph glyph-name="uni062A.init.wide" horiz-adv-x="720" 
d="M555 0h-555l-37 133l37 131h340q10 85 10 240v307h242v-283q0 -327 -37 -528zM80 1192q0 60 38.5 100.5t98.5 40.5t98.5 -40.5t38.5 -100.5q0 -59 -39 -100t-98 -41t-98 41t-39 100zM418 1192q0 60 38.5 100.5t98.5 40.5t98.5 -40.5t38.5 -100.5q0 -59 -39 -100t-98 -41
t-98 41t-39 100z" />
    <glyph glyph-name="uni062B.medi.wide" horiz-adv-x="821" 
d="M313 0h-313l-37 133l37 131h244q26 110 26 318v229h246v-381q0 -98 36.5 -132t113.5 -34h155v-264h-209q-158 0 -217 129q-26 -65 -82 -129zM104 1098q0 52 34.5 87.5t86.5 35.5t85.5 -35.5t33.5 -87.5q0 -53 -33.5 -88t-85.5 -35t-86.5 35t-34.5 88zM266 1360
q0 52 34.5 87.5t86.5 35.5q51 0 85 -36t34 -87q0 -53 -34 -89t-85 -36q-52 0 -86.5 36t-34.5 89zM428 1098q0 52 33.5 87.5t85.5 35.5t86.5 -35.5t34.5 -87.5q0 -53 -34.5 -88t-86.5 -35t-85.5 35t-33.5 88z" />
    <glyph glyph-name="uni062B.init.wide" horiz-adv-x="720" 
d="M555 0h-555l-37 133l37 131h340q10 85 10 240v307h242v-283q0 -327 -37 -528zM104 1165q0 52 34.5 87.5t86.5 35.5t85.5 -35.5t33.5 -87.5q0 -53 -33.5 -88t-85.5 -35t-86.5 35t-34.5 88zM266 1427q0 52 34.5 87.5t86.5 35.5q51 0 85 -36t34 -87q0 -53 -34 -88.5
t-85 -35.5q-52 0 -86.5 35.5t-34.5 88.5zM428 1165q0 52 33.5 87.5t85.5 35.5t86.5 -35.5t34.5 -87.5q0 -53 -34.5 -88t-86.5 -35t-85.5 35t-33.5 88z" />
    <glyph glyph-name="uni0643.medi.ss01" horiz-adv-x="1697" 
d="M1249 0h-1249l-37 133l37 131h1253q-18 108 -102.5 148.5t-255.5 40.5h-690l-113 323l836 479l125 -233l-615 -309h502q494 0 541 -363q9 -46 42.5 -66t112.5 -20h62v-264h-103q-181 0 -256 125z" />
    <glyph glyph-name="uni0643.init.ss01" horiz-adv-x="1533" 
d="M1341 0h-1341l-37 133l37 131h1196q-17 109 -88 149t-229 40h-674l-113 323l836 479l125 -233l-615 -309h475q108 0 189 -14.5t151 -51.5t114.5 -98t69.5 -156.5t25 -224.5z" />
    <glyph glyph-name="uni0646.medi.wide" horiz-adv-x="821" 
d="M313 0h-313l-37 133l37 131h244q26 110 26 318v229h246v-381q0 -98 36.5 -132t113.5 -34h155v-264h-209q-158 0 -217 129q-26 -65 -82 -129zM246 1116q0 61 40 102.5t101 41.5t101 -41.5t40 -102.5q0 -62 -40 -104.5t-101 -42.5t-101 42.5t-40 104.5z" />
    <glyph glyph-name="uni0646.init.wide" horiz-adv-x="720" 
d="M555 0h-555l-37 133l37 131h340q10 85 10 240v307h242v-283q0 -327 -37 -528zM246 1186q0 61 40 102t101 41t101 -41t40 -102q0 -62 -40 -105t-101 -43t-101 43t-40 105z" />
    <glyph glyph-name="uni064A.medi.wide" horiz-adv-x="821" 
d="M313 0h-313l-37 133l37 131h244q26 110 26 318v229h246v-381q0 -98 36.5 -132t113.5 -34h155v-264h-209q-158 0 -217 129q-26 -65 -82 -129zM80 -285q0 61 38.5 101.5t98.5 40.5t98.5 -40.5t38.5 -101.5q0 -59 -39 -99t-98 -40t-98 40t-39 99zM418 -285q0 61 38.5 101.5
t98.5 40.5t98.5 -40.5t38.5 -101.5q0 -59 -39 -99t-98 -40t-98 40t-39 99z" />
    <glyph glyph-name="uni064A.medi.wide.shifted" horiz-adv-x="821" 
d="M313 0h-313l-37 133l37 131h244q26 110 26 318v229h246v-381q0 -98 36.5 -132t113.5 -34h155v-264h-209q-158 0 -217 129q-26 -65 -82 -129zM8 -285q0 61 38.5 101.5t98.5 40.5t99 -41t39 -101q0 -59 -39 -99t-99 -40q-59 0 -98 40t-39 99zM346 -285q0 61 38.5 101.5
t98.5 40.5t99 -41t39 -101q0 -59 -39 -99t-99 -40q-59 0 -98 40t-39 99z" />
    <glyph glyph-name="uni064A.init.wide" horiz-adv-x="720" 
d="M555 0h-555l-37 133l37 131h340q10 85 10 240v307h242v-283q0 -327 -37 -528zM43 -285q0 61 38.5 101.5t98.5 40.5t98.5 -40.5t38.5 -101.5q0 -59 -39 -99t-98 -40t-98 40t-39 99zM381 -285q0 61 38.5 101.5t98.5 40.5t98.5 -40.5t38.5 -101.5q0 -59 -39 -99t-98 -40
t-98 40t-39 99z" />
    <glyph glyph-name="uni064A.init.wide.shifted" horiz-adv-x="819" 
d="M653 0h-653l-37 133l37 131h438q11 94 11 240v307h241v-283q0 -327 -37 -528zM-20 -285q0 61 38.5 101.5t98.5 40.5t98.5 -40.5t38.5 -101.5q0 -59 -39 -99t-98 -40t-98 40t-39 99zM317 -285q0 60 39 101t99 41t98.5 -40.5t38.5 -101.5q0 -59 -39 -99t-98 -40
q-60 0 -99 40t-39 99z" />
    <glyph glyph-name="uni0626.medi.wide" horiz-adv-x="821" 
d="M313 0h-313l-37 133l37 131h244q26 110 26 318v229h246v-381q0 -98 36.5 -132t113.5 -34h155v-264h-209q-158 0 -217 129q-26 -65 -82 -129zM154 1135l127 14q-58 48 -58 129q0 68 46 112t134 44q89 0 166 -41l-53 -127q-47 20 -92 20q-41 0 -62 -18q-1 -54 32.5 -80
t88.5 -21l121 11l12 -142l-448 -43z" />
    <glyph glyph-name="uni0626.init.wide" horiz-adv-x="720" 
d="M555 0h-555l-37 133l37 131h340q10 85 10 240v307h242v-283q0 -327 -37 -528zM154 1202l127 15q-58 48 -58 129q0 68 46 111.5t134 43.5q89 0 166 -41l-53 -127q-49 21 -92 21q-40 0 -62 -19q-1 -53 32.5 -79t88.5 -21l121 10l12 -141l-448 -43z" />
    <glyph glyph-name="uni06440627" horiz-adv-x="1046" 
d="M90 258q187 129 300 221t188 191q-80 94 -193.5 188.5t-280.5 214.5l150 199q279 -214 434 -387q29 110 29 221v280h239v-258q0 -269 -108 -462q134 -238 117 -533l-119 -133h-694zM436 264h328q-14 110 -62 215q-103 -103 -266 -215z" />
    <glyph glyph-name="uni06440627.fina" horiz-adv-x="1112" 
d="M70 203q232 -6 389.5 48.5t214.5 162.5q4 55 4 415v557h244v-909q0 -111 30.5 -162t104.5 -51h55v-264h-57q-209 0 -287 174q-107 -127 -291.5 -178.5t-396.5 -44.5zM121 1288l233 35l140 -842l-238 -41z" />
    <glyph glyph-name="uni06440623" horiz-adv-x="1046" 
d="M90 258q187 129 300 221t188 191q-80 94 -193.5 188.5t-280.5 214.5l150 199q279 -214 434 -387q29 110 29 221v280h239v-258q0 -269 -108 -462q134 -238 117 -533l-119 -133h-694zM-16 1530l127 14q-58 48 -58 129q0 68 46 112t134 44q89 0 166 -41l-53 -127
q-47 20 -92 20q-40 0 -61 -18q-1 -54 32 -79.5t88 -20.5l121 10l12 -141l-448 -43zM436 264h328q-14 110 -62 215q-103 -103 -266 -215z" />
    <glyph glyph-name="uni06440623.fina" horiz-adv-x="1112" 
d="M70 203q232 -6 389.5 48.5t214.5 162.5q4 55 4 415v557h244v-909q0 -111 30.5 -162t104.5 -51h55v-264h-57q-209 0 -287 174q-107 -127 -291.5 -178.5t-396.5 -44.5zM-31 1604l127 14q-57 47 -57 129q0 68 46 112t134 44q89 0 166 -41l-53 -127q-47 20 -92 20
q-41 0 -62 -18q-1 -54 32.5 -80t88.5 -21l121 11l12 -142l-448 -43zM121 1288l233 35l140 -842l-238 -41z" />
    <glyph glyph-name="uni06440625" horiz-adv-x="1046" 
d="M90 258q187 129 300 221t188 191q-80 94 -193.5 188.5t-280.5 214.5l150 199q279 -214 434 -387q29 110 29 221v280h239v-258q0 -269 -108 -462q134 -238 117 -533l-119 -133h-694zM27 -453l127 15q-58 51 -58 131q0 68 46 111.5t134 43.5q89 0 166 -41l-53 -126
q-47 20 -92 20q-40 0 -61 -18q-1 -54 32 -80t88 -21l121 10l12 -141l-448 -47zM436 264h328q-14 110 -62 215q-103 -103 -266 -215z" />
    <glyph glyph-name="uni06440625.fina" horiz-adv-x="1112" 
d="M70 203q232 -6 389.5 48.5t214.5 162.5q4 55 4 415v557h244v-909q0 -111 30.5 -162t104.5 -51h55v-264h-57q-209 0 -287 174q-107 -127 -291.5 -178.5t-396.5 -44.5zM-31 1604l127 14q-57 47 -57 129q0 68 46 112t134 44q89 0 166 -41l-53 -127q-47 20 -92 20
q-41 0 -62 -18q-1 -54 32.5 -80t88.5 -21l121 11l12 -142l-448 -43zM121 1288l233 35l140 -842l-238 -41z" />
    <glyph glyph-name="uni06440622" horiz-adv-x="1046" 
d="M90 258q187 129 300 221t188 191q-80 94 -193.5 188.5t-280.5 214.5l150 199q279 -214 434 -387q29 110 29 221v280h239v-258q0 -269 -108 -462q134 -238 117 -533l-119 -133h-694zM-39 1518q42 43 94.5 55t102 3.5t97.5 -19t95.5 -5.5t81.5 37l33 -135q-41 -36 -94 -45
t-102.5 0t-98.5 17t-96.5 -1.5t-81.5 -46.5zM436 264h328q-14 110 -62 215q-103 -103 -266 -215z" />
    <glyph glyph-name="uni06440622.fina" horiz-adv-x="1112" 
d="M70 203q232 -6 389.5 48.5t214.5 162.5q4 55 4 415v557h244v-909q0 -111 30.5 -162t104.5 -51h55v-264h-57q-209 0 -287 174q-107 -127 -291.5 -178.5t-396.5 -44.5zM-51 1591q42 43 94.5 55t102 3.5t97.5 -18.5t95.5 -5t81.5 37l33 -135q-41 -36 -94 -45t-102.5 0
t-98.5 17t-96.5 -1.5t-81.5 -46.5zM121 1288l233 35l140 -842l-238 -41z" />
    <glyph glyph-name="uni06440671" horiz-adv-x="1046" 
d="M90 258q187 129 300 221t188 191q-80 94 -193.5 188.5t-280.5 214.5l150 199q279 -214 434 -387q29 110 29 221v280h239v-258q0 -269 -108 -462q134 -238 117 -533l-119 -133h-694zM-111 1468q67 91 168 91q13 0 43 -5q44 68 102.5 108t121.5 40q64 0 109.5 -42.5
t45.5 -107.5q0 -72 -55.5 -119t-147.5 -47q-56 0 -121 26t-96 26q-48 0 -100 -49zM184 1520q44 -19 90 -19q74 0 115 25q-5 28 -25.5 46.5t-52.5 18.5q-65 0 -127 -71zM436 264h328q-14 110 -62 215q-103 -103 -266 -215z" />
    <glyph glyph-name="uni06440671.fina" horiz-adv-x="1112" 
d="M70 203q232 -6 389.5 48.5t214.5 162.5q4 55 4 415v557h244v-909q0 -111 30.5 -162t104.5 -51h55v-264h-57q-209 0 -287 174q-107 -127 -291.5 -178.5t-396.5 -44.5zM-125 1542q66 90 168 90q19 0 43 -4q44 68 102 108t121 40q64 0 110 -42.5t46 -107.5q0 -72 -55.5 -119
t-147.5 -47q-56 0 -121 25.5t-96 25.5q-48 0 -100 -49zM121 1288l233 35l140 -842l-238 -41zM170 1593q41 -18 90 -18q75 0 115 24q-5 28 -25.5 47t-52.5 19q-64 0 -127 -72z" />
    <glyph glyph-name="uni06410649" horiz-adv-x="1468" 
d="M702 -410q-99 0 -187.5 17t-168.5 55t-138 95t-92 142.5t-34 190.5q0 126 50.5 245t158.5 257l190 -148q-145 -178 -145 -327q0 -133 105 -198.5t294 -65.5q282 0 408 137q-151 76 -438 121l47 213q139 -20 256 -48q58 67 90 144q-248 6 -386.5 86.5t-138.5 228.5
q0 53 17.5 112.5t52.5 118t81 105.5t109 76t132 29q118 0 211.5 -84.5t141.5 -213.5t48 -272q0 -241 -141 -411q137 -81 137 -211q0 -113 -93 -204.5t-243.5 -140.5t-323.5 -49zM795 729q55 -38 147.5 -59t190.5 -21q-15 124 -62 196.5t-115 72.5q-56 0 -99 -52.5
t-62 -136.5zM834 1464q0 61 40 102.5t101 41.5t101 -41.5t40 -102.5q0 -62 -40 -104.5t-101 -42.5t-101 42.5t-40 104.5z" />
    <glyph glyph-name="uni0641064A" horiz-adv-x="1468" 
d="M702 -410q-99 0 -187.5 17t-168.5 55t-138 95t-92 142.5t-34 190.5q0 126 50.5 245t158.5 257l190 -148q-145 -178 -145 -327q0 -133 105 -198.5t294 -65.5q282 0 408 137q-151 76 -438 121l47 213q139 -20 256 -48q58 67 90 144q-248 6 -386.5 86.5t-138.5 228.5
q0 53 17.5 112.5t52.5 118t81 105.5t109 76t132 29q118 0 211.5 -84.5t141.5 -213.5t48 -272q0 -241 -141 -411q137 -81 137 -211q0 -113 -93 -204.5t-243.5 -140.5t-323.5 -49zM313 -676q0 60 39 100.5t99 40.5t98.5 -40.5t38.5 -100.5q0 -59 -39 -99t-98 -40q-60 0 -99 40
t-39 99zM651 -676q0 60 38.5 100.5t98.5 40.5t99 -40.5t39 -100.5q0 -59 -39 -99t-99 -40q-59 0 -98 40t-39 99zM795 729q55 -38 147.5 -59t190.5 -21q-15 124 -62 196.5t-115 72.5q-56 0 -99 -52.5t-62 -136.5zM834 1464q0 61 40 102.5t101 41.5t101 -41.5t40 -102.5
q0 -62 -40 -104.5t-101 -42.5t-101 42.5t-40 104.5z" />
    <glyph glyph-name="uni06410626" horiz-adv-x="1468" 
d="M702 -410q-99 0 -187.5 17t-168.5 55t-138 95t-92 142.5t-34 190.5q0 126 50.5 245t158.5 257l190 -148q-145 -178 -145 -327q0 -133 105 -198.5t294 -65.5q282 0 408 137q-151 76 -438 121l47 213q139 -20 256 -48q58 67 90 144q-248 6 -386.5 86.5t-138.5 228.5
q0 53 17.5 112.5t52.5 118t81 105.5t109 76t132 29q118 0 211.5 -84.5t141.5 -213.5t48 -272q0 -241 -141 -411q137 -81 137 -211q0 -113 -93 -204.5t-243.5 -140.5t-323.5 -49zM-4 911l127 15q-57 47 -57 129q0 68 46 111.5t134 43.5q89 0 166 -41l-54 -127q-49 21 -92 21
q-39 0 -61 -19q-1 -53 32.5 -79t88.5 -21l120 10l13 -141l-449 -43zM795 729q55 -38 147.5 -59t190.5 -21q-15 124 -62 196.5t-115 72.5q-56 0 -99 -52.5t-62 -136.5zM834 1464q0 61 40 102.5t101 41.5t101 -41.5t40 -102.5q0 -62 -40 -104.5t-101 -42.5t-101 42.5
t-40 104.5z" />
    <glyph glyph-name="uni06A10649" horiz-adv-x="1468" 
d="M702 -410q-99 0 -187.5 17t-168.5 55t-138 95t-92 142.5t-34 190.5q0 126 50.5 245t158.5 257l190 -148q-145 -178 -145 -327q0 -133 105 -198.5t294 -65.5q282 0 408 137q-151 76 -438 121l47 213q139 -20 256 -48q58 67 90 144q-248 6 -386.5 86.5t-138.5 228.5
q0 53 17.5 112.5t52.5 118t81 105.5t109 76t132 29q118 0 211.5 -84.5t141.5 -213.5t48 -272q0 -241 -141 -411q137 -81 137 -211q0 -113 -93 -204.5t-243.5 -140.5t-323.5 -49zM795 729q55 -38 147.5 -59t190.5 -21q-15 124 -62 196.5t-115 72.5q-56 0 -99 -52.5
t-62 -136.5z" />
    <glyph glyph-name="uni06420649" horiz-adv-x="1468" 
d="M702 -410q-99 0 -187.5 17t-168.5 55t-138 95t-92 142.5t-34 190.5q0 126 50.5 245t158.5 257l190 -148q-145 -178 -145 -327q0 -133 105 -198.5t294 -65.5q282 0 408 137q-151 76 -438 121l47 213q139 -20 256 -48q58 67 90 144q-248 6 -386.5 86.5t-138.5 228.5
q0 53 17.5 112.5t52.5 118t81 105.5t109 76t132 29q118 0 211.5 -84.5t141.5 -213.5t48 -272q0 -241 -141 -411q137 -81 137 -211q0 -113 -93 -204.5t-243.5 -140.5t-323.5 -49zM668 1470q0 61 38.5 101.5t98.5 40.5t98.5 -40.5t38.5 -101.5q0 -59 -39 -100t-98 -41t-98 41
t-39 100zM795 729q55 -38 147.5 -59t190.5 -21q-15 124 -62 196.5t-115 72.5q-56 0 -99 -52.5t-62 -136.5zM1006 1470q0 61 38.5 101.5t98.5 40.5t98.5 -40.5t38.5 -101.5q0 -59 -39 -100t-98 -41t-98 41t-39 100z" />
    <glyph glyph-name="uni0642064A" horiz-adv-x="1468" 
d="M702 -410q-99 0 -187.5 17t-168.5 55t-138 95t-92 142.5t-34 190.5q0 126 50.5 245t158.5 257l190 -148q-145 -178 -145 -327q0 -133 105 -198.5t294 -65.5q282 0 408 137q-151 76 -438 121l47 213q139 -20 256 -48q58 67 90 144q-248 6 -386.5 86.5t-138.5 228.5
q0 53 17.5 112.5t52.5 118t81 105.5t109 76t132 29q118 0 211.5 -84.5t141.5 -213.5t48 -272q0 -241 -141 -411q137 -81 137 -211q0 -113 -93 -204.5t-243.5 -140.5t-323.5 -49zM313 -676q0 60 39 100.5t99 40.5t98.5 -40.5t38.5 -100.5q0 -59 -39 -99t-98 -40q-60 0 -99 40
t-39 99zM651 -676q0 60 38.5 100.5t98.5 40.5t99 -40.5t39 -100.5q0 -59 -39 -99t-99 -40q-59 0 -98 40t-39 99zM668 1470q0 61 38.5 101.5t98.5 40.5t98.5 -40.5t38.5 -101.5q0 -59 -39 -100t-98 -41t-98 41t-39 100zM795 729q55 -38 147.5 -59t190.5 -21
q-15 124 -62 196.5t-115 72.5q-56 0 -99 -52.5t-62 -136.5zM1006 1470q0 61 38.5 101.5t98.5 40.5t98.5 -40.5t38.5 -101.5q0 -59 -39 -100t-98 -41t-98 41t-39 100z" />
    <glyph glyph-name="uni06420626" horiz-adv-x="1468" 
d="M702 -410q-99 0 -187.5 17t-168.5 55t-138 95t-92 142.5t-34 190.5q0 126 50.5 245t158.5 257l190 -148q-145 -178 -145 -327q0 -133 105 -198.5t294 -65.5q282 0 408 137q-151 76 -438 121l47 213q139 -20 256 -48q58 67 90 144q-248 6 -386.5 86.5t-138.5 228.5
q0 53 17.5 112.5t52.5 118t81 105.5t109 76t132 29q118 0 211.5 -84.5t141.5 -213.5t48 -272q0 -241 -141 -411q137 -81 137 -211q0 -113 -93 -204.5t-243.5 -140.5t-323.5 -49zM-4 911l127 15q-57 47 -57 129q0 68 46 111.5t134 43.5q89 0 166 -41l-54 -127q-49 21 -92 21
q-39 0 -61 -19q-1 -53 32.5 -79t88.5 -21l120 10l13 -141l-449 -43zM668 1470q0 61 38.5 101.5t98.5 40.5t98.5 -40.5t38.5 -101.5q0 -59 -39 -100t-98 -41t-98 41t-39 100zM795 729q55 -38 147.5 -59t190.5 -21q-15 124 -62 196.5t-115 72.5q-56 0 -99 -52.5t-62 -136.5z
M1006 1470q0 61 38.5 101.5t98.5 40.5t98.5 -40.5t38.5 -101.5q0 -59 -39 -100t-98 -41t-98 41t-39 100z" />
    </font>
</defs>
</svg>
